<?xml version="1.0" standalone="no"?>
<!DOCTYPE svg PUBLIC "-//W3C//DTD SVG 1.1//EN" "http://www.w3.org/Graphics/SVG/1.1/DTD/svg11.dtd" >
<svg xmlns="http://www.w3.org/2000/svg">
<metadata></metadata>
<defs>
<font id="klnt_headline_regularregular" horiz-adv-x="2527" >
<font-face units-per-em="2048" ascent="1663" descent="-385" />
<missing-glyph horiz-adv-x="835" />
<glyph horiz-adv-x="0" />
<glyph unicode="&#xd;" horiz-adv-x="835" />
<glyph horiz-adv-x="0" />
<glyph horiz-adv-x="0" />
<glyph unicode=" "  horiz-adv-x="835" />
<glyph unicode="&#x09;" horiz-adv-x="835" />
<glyph unicode="&#xa0;" horiz-adv-x="835" />
<glyph unicode="!" horiz-adv-x="860" d="M248 0h362v242h-362v-242zM272 1614l35 -1129h242l37 1129h-314z" />
<glyph unicode="&#x22;" horiz-adv-x="1083" d="M137 1567l60 -453h190l57 453h-307zM639 1567l57 -453h191l59 453h-307z" />
<glyph unicode="#" horiz-adv-x="2048" d="M184 608h338l-86 -405h234l86 405h389l-86 -405h237l86 405h390v156h-353l62 291h383v155h-351l80 357h-235l-80 -357h-387l76 357h-234l-80 -357h-377v-155h345l-62 -291h-375v-156zM793 764l63 291h391l-65 -291h-389z" />
<glyph unicode="$" horiz-adv-x="1925" d="M125 434q25 -191 201 -309q185 -125 524 -139v-224h203v224q348 17 529 131.5t181 310.5q0 169 -139 268q-146 104 -481 144l-90 10v534q188 -20 288 -98q85 -69 109 -180h270q-14 183 -186 295.5t-481 130.5v164h-203v-164q-291 -21 -465 -129q-87 -53 -133.5 -123.5 t-46.5 -149.5q0 -182 149 -284.5t441 -138.5l55 -7v-559q-203 14 -324 103q-101 72 -127 190h-274zM469 1130q0 97 100 167t281 87v-510l-21 3q-360 42 -360 253zM1053 143v531l37 -4q397 -49 397 -258q0 -237 -416 -269h-18z" />
<glyph unicode="%" horiz-adv-x="2797" d="M199 1151q0 -179 151 -277q145 -94 369 -94q223 0 368 94q154 100 154 277q0 179 -154 279q-139 90 -368 90q-226 0 -365 -90q-155 -101 -155 -279zM438 -82h258l1682 1681h-258zM444 1151q0 122 70 182t201 60q128 0 201 -61t73 -181q0 -119 -73 -179.5t-201 -60.5 q-130 0 -200.5 59.5t-70.5 180.5zM1556 356q0 -177 152 -276q145 -94 369 -94q223 0 368 94q154 100 154 276q0 179 -154 279q-139 90 -368 90q-226 0 -365 -90q-156 -101 -156 -279zM1802 356q0 122 70 182t201 60q128 0 201 -61t73 -181q0 -118 -73 -178.5t-201 -60.5 q-131 0 -201 59.5t-70 179.5z" />
<glyph unicode="&#x26;" horiz-adv-x="2158" d="M125 401q0 -93 50.5 -172t148.5 -137q210 -125 585 -125q397 0 639 189q122 -84 232 -119q118 -41 256 -41h78v160q-134 0 -207 24q-99 32 -217 119q149 194 174 483h-240q-11 -208 -98 -360q-30 24 -33 27l-16 12t-19 14l-454 356q229 102 354 213q135 119 135 242 q-1 68 -43 128.5t-115 103.5q-155 90 -389 90q-262 0 -418 -105q-157 -104 -157 -256q0 -114 73 -209q58 -75 203 -184q-288 -112 -403 -213q-119 -102 -119 -240zM412 408q0 102 88 178q71 61 268 149l18 8l506 -397q33 -26 56 -41l49 -41q-175 -149 -488 -149 q-211 0 -346 69q-151 77 -151 224zM635 1251q0 99 81.5 160.5t225.5 61.5q136 0 215 -60q74 -56 74 -137q0 -96 -88.5 -175t-276.5 -159q-115 88 -173 159t-58 150z" />
<glyph unicode="'" horiz-adv-x="583" d="M137 1567l60 -453h190l57 453h-307z" />
<glyph unicode="(" horiz-adv-x="1019" d="M291 674q0 -276 139 -537q37 -72 90 -153t85 -124.5t95 -125.5h209q-160 228 -233 409q-103 257 -103 531q0 277 103 534q70 175 233 406h-209q-66 -86 -96 -126.5t-83.5 -121.5t-90.5 -152q-139 -264 -139 -540z" />
<glyph unicode=")" horiz-adv-x="1019" d="M111 -266h208q60 79 94 125t86.5 126t90.5 152q137 264 137 537t-137 540q-80 151 -271 400h-208q163 -231 233 -406q100 -249 100 -534q0 -282 -100 -531q-73 -181 -233 -409z" />
<glyph unicode="*" horiz-adv-x="1396" d="M117 1268l463 -66v-4l-338 -233l219 -109l235 291h6l234 -291l219 109l-338 233v4l463 66l-92 170l-420 -148l-6 4l69 320h-266l70 -320l-6 -4l-424 148z" />
<glyph unicode="+" horiz-adv-x="1943" d="M264 653h580v-393h250v393h583v158h-583v391h-250v-391h-580v-158z" />
<glyph unicode="," horiz-adv-x="702" d="M154 -240h198l250 492h-344z" />
<glyph unicode="-" horiz-adv-x="1222" d="M184 588h854v166h-854v-166z" />
<glyph unicode="." horiz-adv-x="731" d="M178 0h375v250h-375v-250z" />
<glyph unicode="/" horiz-adv-x="1757" d="M18 -266h248l1395 1880h-248z" />
<glyph unicode="0" horiz-adv-x="2058" d="M211 754q0 -387 219 -590q209 -197 596 -197q383 0 598 197q221 202 221 590q0 385 -223 592q-209 194 -596 194q-383 0 -592 -194q-223 -207 -223 -592zM510 750q0 317 135.5 476.5t380.5 159.5q250 0 386 -161t136 -475q0 -304 -139.5 -467.5t-382.5 -163.5 q-250 0 -383 158.5t-133 472.5z" />
<glyph unicode="1" horiz-adv-x="1298" d="M174 1118h455v-1118h280v1524h-231q-1 -72 -25 -119t-75 -82q-113 -74 -336 -74h-68v-131z" />
<glyph unicode="2" horiz-adv-x="1886" d="M162 0h1511v164h-1136v2l618 393q291 187 393 297q59 64 85 127.5t26 142.5t-41.5 154t-124.5 131q-190 129 -539 129q-317 0 -520 -127q-213 -135 -213 -360h289q0 172 133 258q113 75 311 75q188 0 303 -75q109 -74 109 -195q0 -63 -29 -116.5t-88 -110.5 q-78 -76 -307 -232l-780 -516v-141z" />
<glyph unicode="3" horiz-adv-x="1925" d="M193 426q13 -196 194 -320q201 -137 567 -137q361 0 572 129q98 60 150.5 138.5t52.5 166.5q0 160 -138 263q-121 88 -305 118v4q171 52 273 140q106 92 106 205q0 178 -184 292q-190 115 -510 115q-349 0 -551 -135q-91 -62 -139 -145.5t-48 -176.5h277q20 301 461 301 q188 0 301 -69q117 -71 117 -193q0 -114 -117 -188q-118 -78 -293 -78h-119v-170h119q226 0 349.5 -74t123.5 -209q0 -124 -137 -202q-133 -76 -336 -76t-334 76q-146 79 -172 225h-280z" />
<glyph unicode="4" horiz-adv-x="1923" d="M129 369h1065v-369h268v369h297v159h-297v990h-301l-1032 -1002v-147zM418 526l633 615q62 62 104 114q20 20 33 43h6v-772h-776z" />
<glyph unicode="5" horiz-adv-x="1910" d="M193 395q17 -176 180 -289q192 -137 545 -137q357 0 573 142q211 139 211 378q0 252 -219 392q-191 118 -488 118q-147 0 -260.5 -36t-181.5 -89h-6l57 484h977v160h-1210l-99 -809h240q133 133 422 133q206 0 340 -92q139 -95 139 -265q0 -178 -151 -274 q-131 -86 -328 -86q-428 0 -461 270h-280z" />
<glyph unicode="6" horiz-adv-x="1968" d="M211 672q0 -395 242 -566q194 -137 551 -137q349 0 563 148q101 70 155 165t54 207q0 235 -222 371q-188 115 -477 115q-191 0 -342 -57q-153 -58 -231 -154h-12q13 292 133 448q142 185 426 185q172 0 270.5 -55t124.5 -152h264q-25 169 -190.5 259.5t-468.5 90.5 q-423 0 -631.5 -217.5t-208.5 -650.5zM528 473q0 169 138 260q127 84 342 84q209 0 342 -88q137 -91 137 -256q0 -171 -152 -264q-133 -84 -327 -84q-200 0 -330 84q-150 92 -150 264z" />
<glyph unicode="7" horiz-adv-x="1673" d="M113 1352h1124l-922 -1352h295l953 1397v121h-1450v-166z" />
<glyph unicode="8" horiz-adv-x="1925" d="M178 401q0 -91 55.5 -170.5t157.5 -138.5q216 -125 570 -125q350 0 573 127q213 121 213 307q0 158 -143 261q-117 79 -293 108v4q146 29 258 123q114 93 114 229q0 85 -50.5 160t-145.5 133q-204 121 -526 121t-523 -121q-95 -58 -145.5 -133t-50.5 -160 q0 -130 114 -229q109 -95 254 -123v-4q-171 -30 -286 -108q-146 -103 -146 -261zM463 403q0 142 151 222q135 69 347 69q219 0 354 -69q149 -81 149 -222q0 -142 -147 -219q-130 -69 -356 -69q-217 0 -347 69q-151 77 -151 219zM528 1116q0 133 129 209q116 68 304 68 q184 0 303 -68q131 -77 131 -209q0 -130 -131 -207q-120 -69 -303 -69q-185 0 -302 69q-131 75 -131 207z" />
<glyph unicode="9" horiz-adv-x="1968" d="M203 1032q0 -118 62 -209t169 -151q98 -55 220 -84t243 -29q197 0 343 52.5t222 142.5h6q0 -331 -130 -484t-402 -153q-156 0 -272 61q-119 63 -146 164h-266q39 -186 231 -283q179 -90 453 -90q414 0 612 195q211 208 211 670q0 367 -211 544q-199 162 -581 162 q-329 0 -547 -143q-104 -68 -160.5 -162t-56.5 -203zM492 1049q0 165 149 256q126 79 320 79q196 0 333 -84q152 -96 152 -251q0 -156 -139 -246q-136 -88 -346 -88q-205 0 -332 86q-137 90 -137 248z" />
<glyph unicode=":" horiz-adv-x="798" d="M242 0h379v252h-379v-252zM242 827h379v252h-379v-252z" />
<glyph unicode=";" horiz-adv-x="835" d="M172 -240h197l247 492h-344zM260 827h379v252h-379v-252z" />
<glyph unicode="&#x3c;" horiz-adv-x="1943" d="M246 618l1437 -471v179l-1103 356l1103 356v179l-1437 -472v-127z" />
<glyph unicode="=" horiz-adv-x="1943" d="M260 469h1423v156h-1423v-156zM260 840h1423v155h-1423v-155z" />
<glyph unicode="&#x3e;" horiz-adv-x="1943" d="M260 127l1438 471v127l-1438 471v-178l1104 -356l-1104 -357v-178z" />
<glyph unicode="?" horiz-adv-x="1642" d="M106 1104h263q-4 179 120 274t355 95q186 0 303 -74q113 -77 113 -191q0 -84 -51 -146t-158 -120l-152 -86q-11 -6 -34 -19.5t-32.5 -19t-27 -16t-26 -16.5t-21 -14t-21 -15.5t-16.5 -14.5q-55 -52 -55 -145v-131h252v100q0 41 8 60q11 35 80 77q11 6 38 22.5t39 23.5 l115 65q164 94 229 162q105 105 105 250q0 76 -42 149.5t-124 128.5q-192 129 -528 129q-334 0 -537 -145q-99 -70 -150 -168t-45 -215zM608 0h363v242h-363v-242z" />
<glyph unicode="@" horiz-adv-x="3098" d="M135 541q0 -204 99 -373t282 -293q180 -122 426.5 -188t534.5 -66q566 0 946 213l-129 88q-145 -77 -350.5 -124.5t-444.5 -47.5q-496 0 -801 215q-150 105 -230.5 250.5t-80.5 325.5q0 177 90 332.5t254 271.5q161 115 380 178t468 63q236 0 437.5 -51t350.5 -145 q148 -93 228 -218t80 -270q0 -230 -146 -358q-114 -98 -280 -98q-139 0 -190.5 57.5t-18.5 163.5l162 547h-230l-41 -140h-6q-34 79 -131.5 126t-249.5 47q-321 0 -526 -191q-90 -85 -135.5 -189t-40.5 -208q6 -157 131 -250.5t348 -93.5q310 0 475 186h10q39 -180 402 -180 q120 0 243 32.5t222 98.5q111 72 176 187.5t65 273.5q0 176 -99 325t-280 256q-181 106 -425.5 164t-524.5 58q-301 0 -566 -73t-464 -204q-200 -133 -310 -312t-110 -386zM1102 459q0 79 28.5 160t83.5 143q126 147 342 147q180 0 252 -100q57 -80 25 -199l-27 -88 q-37 -119 -153 -196q-121 -78 -275 -78q-136 0 -206 59t-70 152z" />
<glyph unicode="A" horiz-adv-x="2260" d="M123 0h285l243 467h940l246 -467h303l-844 1567h-338zM731 621l291 561q32 54 63 127q5 11 13.5 27.5t9.5 17.5q2 5 4.5 10.5t3.5 8t2 3.5h6l27 -61q16 -39 66 -133l294 -561h-780z" />
<glyph unicode="B" horiz-adv-x="2220" d="M319 0h855q395 0 612 96q256 115 256 359q0 140 -141 247q-143 105 -363 129v5q207 31 318.5 120t111.5 230q0 186 -211 287q-195 94 -514 94h-924v-1567zM604 154v596h547q293 0 438 -64q156 -69 156 -219q0 -168 -156 -246q-134 -67 -413 -67h-572zM604 907v506h625 q207 0 319 -59q123 -65 123 -187q0 -140 -145 -204q-123 -56 -334 -56h-588z" />
<glyph unicode="C" horiz-adv-x="2361" d="M209 780q0 -200 76 -354t217 -256q278 -201 751 -201q383 0 641 150q117 69 186 164.5t83 205.5h-293q-26 -149 -164 -247q-164 -117 -453 -117q-352 0 -546 176q-195 174 -195 479q0 297 193 475q197 181 555 181q260 0 426 -107q137 -92 176 -229h301q-38 243 -322 377 q-242 114 -581 114q-228 0 -421 -55t-333 -160q-143 -106 -220 -257t-77 -339z" />
<glyph unicode="D" horiz-adv-x="2383" d="M319 0h756q500 0 793 195q309 208 309 608q0 394 -326 592q-291 172 -811 172h-721v-1567zM604 164v1239h455q380 0 590 -137q231 -156 231 -469q0 -331 -233 -490q-210 -143 -607 -143h-436z" />
<glyph unicode="E" horiz-adv-x="2078" d="M319 0h1518v170h-1233v539h1118v165h-1118v523h1217v170h-1502v-1567z" />
<glyph unicode="F" horiz-adv-x="1886" d="M319 0h285v666h1024v165h-1024v566h1118v170h-1403v-1567z" />
<glyph unicode="G" horiz-adv-x="2543" d="M209 776q0 -202 77.5 -355.5t219.5 -254.5q275 -199 737 -199q265 0 469 78q174 67 266 180h13v-225h247v791h-958v-168h680v-23q0 -229 -186 -352q-187 -125 -525 -125q-358 0 -548.5 167t-190.5 480q0 311 195 485q205 183 575 183q234 0 395 -76q80 -38 131 -91.5 t64 -119.5h299q-46 206 -285 324q-240 114 -604 114q-227 0 -424.5 -55.5t-339.5 -159.5q-146 -107 -226.5 -259t-80.5 -339z" />
<glyph unicode="H" horiz-adv-x="2441" d="M319 0h285v707h1233v-707h285v1567h-285v-690h-1233v690h-285v-1567z" />
<glyph unicode="I" horiz-adv-x="927" d="M319 0h285v1567h-285v-1567z" />
<glyph unicode="J" horiz-adv-x="1302" d="M80 -6h129q405 0 592 104q203 113 203 359v1110h-285v-1094q0 -93 -22.5 -151t-80.5 -93q-120 -73 -473 -73h-63v-162z" />
<glyph unicode="K" horiz-adv-x="2193" d="M319 0h285v514l344 252l821 -766h345l-969 909l903 658h-344l-1100 -805v805h-285v-1567z" />
<glyph unicode="L" horiz-adv-x="1851" d="M319 0h1453v170h-1168v1397h-285v-1567z" />
<glyph unicode="M" horiz-adv-x="2920" d="M319 0h277v1346h8q27 -50 72 -138q23 -51 55 -108l578 -1100h270l592 1100q42 75 57 108q8 18 22.5 45.5t16.5 30.5l31 62h8v-1346h293v1567h-430l-606 -1123q-64 -119 -80 -153q-22 -44 -25 -51h-6q-3 7 -25 51q-21 46 -79 153l-596 1123h-433v-1567z" />
<glyph unicode="N" horiz-adv-x="2441" d="M319 0h273v1315h6q3 -6 13.5 -19.5t13.5 -17.5q36 -50 96 -115l1042 -1163h365v1567h-270v-1319h-9q-12 21 -30 45q-4 5 -35.5 44t-54.5 64l-1045 1166h-365v-1567z" />
<glyph unicode="O" d="M209 778q0 -203 81 -357.5t228 -256.5q138 -98 329.5 -147.5t412.5 -49.5q459 0 745 197q149 101 231 255.5t82 358.5q0 402 -315 617q-289 194 -743 194q-214 0 -403 -49t-331 -145q-151 -104 -234 -258.5t-83 -358.5zM510 776q0 322 211 498q194 164 539 164 q348 0 548 -170q209 -180 209 -492q0 -307 -213 -485q-204 -170 -544 -170q-345 0 -543 168q-207 175 -207 487z" />
<glyph unicode="P" horiz-adv-x="1961" d="M319 0h285v598h397q379 0 596 121q236 128 236 366q0 243 -234 369q-210 113 -573 113h-707v-1567zM604 752v661h406q260 0 389 -76q139 -82 139 -252q0 -165 -138.5 -249t-398.5 -84h-397z" />
<glyph unicode="Q" d="M209 778q0 -399 309 -612q276 -195 742 -195q67 0 229 11q114 8 194 8q161 0 269 -41q122 -47 235 -160l234 115q-100 105 -226 154q-123 48 -296 48h-7v11q209 91 317.5 258.5t108.5 402.5q0 402 -315 617q-289 194 -743 194q-214 0 -403 -49t-331 -145 q-151 -104 -234 -258.5t-83 -358.5zM510 776q0 322 211 498q194 164 539 164q348 0 548 -170q209 -180 209 -492q0 -327 -213 -497q-198 -158 -544 -158q-345 0 -543 168q-207 175 -207 487z" />
<glyph unicode="R" horiz-adv-x="2125" d="M319 0h285v664h522l486 -664h332l-519 690v4q208 35 334 121q170 114 170 311q0 137 -82 228q-87 96 -260 154.5t-418 58.5h-850v-1567zM604 821v590h553q213 0 338 -70q133 -79 133 -217q0 -153 -137 -231q-126 -72 -346 -72h-541z" />
<glyph unicode="S" horiz-adv-x="2193" d="M233 440q7 -104 70 -190t176 -148q233 -133 633 -133q418 0 639 127q215 123 215 344q0 176 -137 279q-150 110 -481 149l-332 39q-208 26 -300.5 88t-92.5 172q0 117 127 191q134 80 364 80q232 0 359 -86q107 -72 131 -205h290q-15 205 -208 321q-200 121 -568 121 q-360 0 -579 -123q-105 -59 -161 -140t-56 -175q0 -163 139 -268q158 -119 485 -158l328 -39q210 -24 304.5 -89.5t94.5 -172.5q0 -137 -121 -213q-141 -88 -434 -88q-269 0 -422 96q-140 85 -166 221h-297z" />
<glyph unicode="T" horiz-adv-x="2004" d="M45 1401h815v-1401h285v1401h815v166h-1915v-166z" />
<glyph unicode="U" horiz-adv-x="2347" d="M283 522q0 -287 243 -424q224 -129 648 -129q419 0 645 129q245 141 245 424v1045h-282v-901q0 -162 -10 -222q-19 -116 -101 -186q-158 -133 -491 -133q-329 0 -492 133q-77 67 -104 186q-17 77 -17 222v901h-284v-1045z" />
<glyph unicode="V" horiz-adv-x="2256" d="M123 1567l844 -1567h331l836 1567h-289l-602 -1157q-33 -64 -49 -103q-40 -87 -55 -137h-6q-10 27 -21 61q-21 66 -80 183l-606 1153h-303z" />
<glyph unicode="W" horiz-adv-x="3295" d="M113 1567l673 -1567h316l454 1094q35 85 41 104q27 80 43 145h7q3 -18 41 -145q18 -57 41 -106l460 -1092h320l674 1567h-281l-457 -1112q-24 -59 -39 -105q-35 -103 -41 -143h-6q-9 26 -18 65q-17 62 -68 185l-454 1110h-332l-453 -1112l-37 -105q-35 -102 -43 -143h-6 l-16 65q-30 92 -66 185l-460 1110h-293z" />
<glyph unicode="X" horiz-adv-x="2267" d="M156 0h307l655 657h6l639 -657h346l-823 821l750 746h-307l-599 -594h-6l-569 594h-340l746 -756z" />
<glyph unicode="Y" horiz-adv-x="2004" d="M33 1567l829 -897v-670h283v682l827 885h-305l-659 -723h-7l-636 723h-332z" />
<glyph unicode="Z" horiz-adv-x="2009" d="M143 0h1721v168h-1358l1333 1253v146h-1646v-168h1288l-1338 -1254v-145z" />
<glyph unicode="[" horiz-adv-x="1083" d="M338 -266h670v137h-416v1606h416v137h-670v-1880z" />
<glyph unicode="\" horiz-adv-x="1757" d="M94 1614l1395 -1880h250l-1395 1880h-250z" />
<glyph unicode="]" horiz-adv-x="1083" d="M76 -131v-135h669v1880h-669v-137h416v-1608h-416z" />
<glyph unicode="^" horiz-adv-x="1253" d="M37 1036h235l351 391h4l338 -391h252l-472 578h-227z" />
<glyph unicode="_" horiz-adv-x="1216" d="M-6 -248v-141h1229v141h-1229z" />
<glyph unicode="`" horiz-adv-x="1132" d="M301 1614l270 -332h203l-164 332h-309z" />
<glyph unicode="a" horiz-adv-x="1697" d="M141 291q0 -146 135 -227.5t377 -81.5q181 0 318.5 52t202.5 148h6q11 -51 34 -85.5t64 -57.5q81 -47 272 -47h35v149q-88 1 -117.5 28t-29.5 95v441q0 213 -146 307t-454 94q-284 0 -445 -88t-166 -234h265q3 74 83 127q88 58 254 58q175 0 256.5 -63t81.5 -208v-47 q-290 -6 -475 -26t-309 -62q-242 -80 -242 -272zM424 301q0 84 79 127t245 61q171 16 419 25v-25q0 -185 -153 -278q-126 -80 -307 -80q-135 0 -209 43t-74 127z" />
<glyph unicode="b" horiz-adv-x="1875" d="M289 0h260v172h6q66 -83 190 -137q137 -62 318 -62q287 0 469 144q197 156 197 438q0 290 -197 430q-170 121 -455 121q-175 0 -307 -56t-203 -149h-2v713h-276v-1614zM555 500v114q0 142 121 242q130 102 340 102q234 0 342 -114q92 -103 92 -289q0 -436 -430 -436 q-220 0 -346 110q-119 104 -119 271z" />
<glyph unicode="c" horiz-adv-x="1646" d="M143 535q0 -261 185 -408q188 -152 534 -152q271 0 447 95q185 101 211 282h-258q-13 -86 -86 -147q-104 -86 -310 -86q-232 0 -342 119q-98 104 -98 305q0 193 115 305q117 117 331 117q167 0 267 -64q89 -60 102 -147h270q-20 179 -211 272q-170 80 -432 80 q-333 0 -532 -162q-94 -75 -143.5 -180.5t-49.5 -228.5z" />
<glyph unicode="d" horiz-adv-x="1875" d="M143 532q0 -289 203 -434q168 -125 459 -125q174 0 305.5 58.5t204.5 146.5h8v-178h264v1614h-276v-699h-6q-52 82 -171.5 136.5t-291.5 54.5q-312 0 -502 -148q-197 -154 -197 -426zM426 541q0 197 113 307t340 110q196 0 317 -102t121 -274v-115q0 -151 -123 -248 q-127 -100 -338 -100q-228 0 -336 121q-94 102 -94 301z" />
<glyph unicode="e" horiz-adv-x="1689" d="M143 535q0 -252 181 -402q194 -160 550 -160q260 0 431.5 83.5t214.5 225.5h-267q-29 -68 -94 -106q-96 -61 -274 -61q-219 0 -336 104q-111 96 -123 270h1116v95q0 224 -156 364q-179 158 -520 158q-340 0 -536 -166q-92 -77 -139.5 -181.5t-47.5 -223.5zM430 635 q26 154 135 243t297 89q195 0 303 -93q92 -83 95 -227v-12h-830z" />
<glyph unicode="f" horiz-adv-x="1099" d="M57 938h295v-938h277v938h387v141h-387v219q0 95 55.5 131.5t181.5 36.5q109 0 150 -8v152q-82 10 -172 10q-241 0 -359 -66q-133 -78 -133 -233v-242h-295v-141z" />
<glyph unicode="g" horiz-adv-x="1869" d="M143 555q0 -282 199 -420q174 -121 451 -121q166 0 317 60q136 54 199 139h2v-160q0 -173 -111.5 -243t-349.5 -70q-191 0 -287 41q-87 37 -112 110h-267q25 -155 230 -233q170 -66 430 -66q338 0 534 105q203 110 203 330v1052h-264v-170h-6q-58 86 -170 138 q-128 59 -316 59q-304 0 -489 -141q-193 -144 -193 -410zM426 555q0 189 108 297.5t322 108.5q208 0 336 -101q125 -98 125 -262v-109q0 -140 -125 -235q-134 -100 -324 -100q-239 0 -348 112q-94 97 -94 289z" />
<glyph unicode="h" horiz-adv-x="1867" d="M289 0h276v647q0 137 107 219q113 86 332 86q179 0 256 -71q27 -24 40 -63t15 -67.5t2 -82.5v-668h276v752q0 185 -141 274q-131 80 -375 80q-187 0 -325 -64q-124 -57 -181 -141h-6v713h-276v-1614z" />
<glyph unicode="i" horiz-adv-x="856" d="M283 1325h290v199h-290v-199zM289 0h278v1079h-278v-1079z" />
<glyph unicode="j" horiz-adv-x="856" d="M-66 -238v-155q81 -15 166 -15q210 0 332 68q135 76 135 229v1190h-278v-1175q0 -84 -52.5 -119t-160.5 -35q-80 0 -142 12zM283 1325h290v199h-290v-199z" />
<glyph unicode="k" horiz-adv-x="1714" d="M289 0h276v330l271 202l473 -532h321l-608 674l541 405h-322l-676 -520v1055h-276v-1614z" />
<glyph unicode="l" horiz-adv-x="849" d="M289 0h276v1614h-276v-1614z" />
<glyph unicode="m" horiz-adv-x="2883" d="M289 0h276v651q0 135 107 215q113 86 329 86q175 0 252 -71q27 -26 40.5 -64.5t15.5 -67.5t2 -81v-668h276v647q0 139 107 219q113 86 329 86q178 0 252 -69q28 -26 42 -65t16 -68.5t2 -81.5v-668h276v752q0 183 -143 274q-131 80 -371 80q-186 0 -340 -70 q-138 -62 -188 -153h-6q-42 110 -170 166.5t-318 56.5q-183 0 -327 -64q-139 -60 -193 -145h-6v182h-260v-1079z" />
<glyph unicode="n" horiz-adv-x="1867" d="M289 0h276v647q0 137 107 219q113 86 332 86q179 0 256 -71q27 -24 40 -63.5t15 -68.5t2 -83v-666h276v752q0 185 -141 274q-131 80 -375 80q-183 0 -327 -64q-133 -58 -195 -145h-6v182h-260v-1079z" />
<glyph unicode="o" horiz-adv-x="1740" d="M143 541q0 -262 183 -410q191 -158 540 -158q338 0 535 158q192 153 192 410q0 260 -180 409q-193 156 -541 156q-335 0 -534 -156q-94 -75 -144.5 -180t-50.5 -229zM430 541q0 201 110.5 312.5t327.5 111.5q226 0 333.5 -110t107.5 -314t-107.5 -314t-327.5 -110 q-444 0 -444 424z" />
<glyph unicode="p" horiz-adv-x="1875" d="M289 -385h276v543h6q48 -75 179 -127q139 -58 309 -58q289 0 473 144q197 156 197 438q0 290 -197 430q-170 121 -455 121q-176 0 -307 -57t-209 -150h-6v180h-266v-1464zM555 500v114q0 141 125 242q130 102 336 102q234 0 342 -114q92 -103 92 -289q0 -436 -430 -436 q-220 0 -346 110q-119 104 -119 271z" />
<glyph unicode="q" horiz-adv-x="1875" d="M143 532q0 -291 203 -436q169 -123 459 -123q169 0 313 60q122 52 185 131h8v-549h276v1464h-270v-164h-6q-51 81 -173.5 136t-295.5 55q-312 0 -502 -148q-197 -154 -197 -426zM426 541q0 196 114.5 306.5t338.5 110.5q196 0 317 -102t121 -274v-115q0 -151 -123 -248 q-127 -100 -338 -100q-228 0 -336 121q-94 102 -94 301z" />
<glyph unicode="r" horiz-adv-x="1200" d="M289 0h276v588q0 156 131 239q127 80 348 80h52v193h-27q-167 0 -317 -70q-143 -65 -197 -153h-6v202h-260v-1079z" />
<glyph unicode="s" horiz-adv-x="1544" d="M135 305q15 -167 199 -252q171 -80 434 -80q285 0 455 86q178 87 178 248q0 142 -103 215q-115 76 -358 99l-250 24q-125 14 -183 48.5t-58 99.5q0 76 87 125t228 49t226 -42.5t97 -115.5h265q-24 143 -170.5 220t-407.5 77q-271 0 -432 -92q-156 -89 -156 -236 q0 -137 109 -206t334 -93l250 -24q158 -20 211 -56q26 -19 34.5 -42.5t8.5 -59.5q0 -86 -96 -134t-263 -48q-190 0 -287 65q-70 47 -81 125h-271z" />
<glyph unicode="t" horiz-adv-x="1114" d="M61 938h295v-668q0 -143 105.5 -214.5t337.5 -71.5q69 0 100 2q76 0 154 10v156l-58 -7q-70 -4 -121 -4q-131 0 -188 37t-57 123v637h399v141h-399v314h-252v-78q0 -81 -11.5 -127t-39.5 -72q-29 -25 -78.5 -34t-136.5 -9h-50v-135z" />
<glyph unicode="u" horiz-adv-x="1867" d="M283 328q0 -182 143 -273q129 -82 375 -82q184 0 325 64q119 54 185 147h6v-184h264v1079h-276v-583q0 -371 -443 -371q-167 0 -248 72q-21 18 -34 42.5t-18 58t-6 55.5t-1 63v663h-272v-751z" />
<glyph unicode="v" horiz-adv-x="1566" d="M70 1079l569 -1079h291l563 1079h-264l-361 -694l-30 -66q-45 -92 -50 -104h-6q-25 59 -47 104q-3 6 -10 19.5t-13 25t-10 21.5l-350 694h-282z" />
<glyph unicode="w" horiz-adv-x="2551" d="M82 1079l504 -1079h293l297 635q9 20 32.5 72.5t36.5 78.5q25 56 33 78h2q8 -23 33 -78l35 -73q12 -31 34 -78l295 -635h291l502 1079h-268l-320 -729l-18 -47q-6 -20 -19 -53t-14 -35h-6l-19 43q-9 21 -18 45q-16 27 -23 47l-340 729h-282l-344 -729q-20 -40 -23 -47 q-3 -9 -10.5 -25t-9.5 -20l-19 -43h-6q-3 7 -8 21.5t-8 21.5q-8 20 -37 94l-313 727h-283z" />
<glyph unicode="x" horiz-adv-x="1556" d="M57 0h301l400 422h10l401 -422h330l-563 567l510 512h-301l-363 -377h-6l-352 377h-326l512 -522z" />
<glyph unicode="y" horiz-adv-x="1597" d="M117 1079l565 -1079l-31 -57q-51 -108 -121 -152q-70 -45 -223 -45q-77 0 -141 10v-151q93 -13 166 -13q250 0 377 78q60 37 107 98.5t102 163.5l589 1147h-276l-332 -673l-59 -125q-12 -24 -21 -45h-8q-9 24 -45 98q-1 2 -14.5 27.5t-20.5 41.5l-338 676h-276z" />
<glyph unicode="z" horiz-adv-x="1587" d="M160 0h1284v152h-971l948 768v159h-1218v-149h899l-942 -768v-162z" />
<glyph unicode="{" horiz-adv-x="1083" d="M82 598h74q132 0 184.5 -35t52.5 -121v-411q0 -166 148 -236q138 -69 467 -69v127q-236 0 -310 51q-36 25 -49.5 67.5t-13.5 110.5v338q0 100 -41 158q-55 78 -188 92v8q133 14 188 92q41 58 41 158v338q0 68 13.5 110.5t49.5 67.5q74 51 310 51v127q-325 0 -467 -68 q-148 -73 -148 -237v-412q0 -85 -52.5 -120t-184.5 -35h-74v-152z" />
<glyph unicode="|" horiz-adv-x="886" d="M332 -266h223v1880h-223v-1880z" />
<glyph unicode="}" horiz-adv-x="1083" d="M76 -147v-127q328 0 469 69q145 70 145 236v411q0 85 53 120.5t185 35.5h73v152h-73q-133 0 -185.5 35t-52.5 120v412q0 165 -144.5 235t-469.5 70v-127q235 0 309 -51q36 -25 50 -67.5t14 -110.5v-338q0 -101 40 -158q55 -78 189 -92v-8q-134 -14 -189 -92 q-40 -57 -40 -158v-338q0 -68 -14 -110.5t-50 -67.5q-74 -51 -309 -51z" />
<glyph unicode="~" horiz-adv-x="1236" d="M61 598h191q6 64 40 94.5t85 30.5q28 0 65 -9.5t62 -19t76 -30.5q139 -62 262 -62q154 0 248 84q86 77 86 193h-191q-6 -65 -40.5 -96t-88.5 -31q-44 0 -88 20l-106 41q-150 61 -267 61q-151 0 -248 -83q-86 -77 -86 -193z" />
<glyph unicode="&#xa1;" horiz-adv-x="860" d="M248 1128h362v242h-362v-242zM272 -244h314l-33 1129h-244z" />
<glyph unicode="&#xa2;" horiz-adv-x="1646" d="M143 535q0 -241 160.5 -386.5t460.5 -168.5v-218h190v218q239 16 383 108q158 101 183 264h-258q-12 -77 -70 -133q-85 -82 -238 -100v846q128 -16 201 -75t86 -136h270q-20 165 -180 256q-141 81 -377 94v196h-190v-198q-285 -23 -457 -182q-164 -155 -164 -385z M420 543q0 168 89.5 278.5t254.5 139.5v-840q-344 49 -344 422z" />
<glyph unicode="&#xa3;" horiz-adv-x="1925" d="M197 647h309q73 -173 39 -262q-20 -48 -68.5 -90t-138.5 -94l-109 -60v-141h1512v164h-1151v4l45 29q145 91 178 198q29 91 -25 252h625v146h-682l-37 90q-111 261 19 395q102 108 352 108q210 0 313 -96q84 -78 84 -207h283q0 221 -189 340q-186 117 -503 117 q-216 0 -398 -72q-192 -79 -264 -223q-80 -162 17 -381l34 -71h-245v-146z" />
<glyph unicode="&#xa4;" horiz-adv-x="1937" d="M248 342l170 -113l248 168q133 -53 299 -53q164 0 297 53l245 -166l176 117l-249 164q84 84 84 199q0 108 -84 198l258 170l-168 113l-252 -172q-133 59 -307 59q-161 0 -299 -55l-240 162l-174 -117l242 -162q-80 -90 -80 -196q0 -114 86 -203zM623 711q0 106 94 178 q90 69 248 69q155 0 249 -69q95 -70 95 -178q0 -109 -95 -176q-99 -70 -249 -70q-152 0 -248 70q-94 69 -94 176z" />
<glyph unicode="&#xa5;" horiz-adv-x="1845" d="M68 1518l628 -676h-528v-142h620v-190h-614v-141h614v-369h271v369h612v141h-612v190h606v142h-522l635 676h-297l-553 -605h-6l-529 605h-325z" />
<glyph unicode="&#xa6;" horiz-adv-x="886" d="M332 -266h223v897h-223v-897zM332 793h223v821h-223v-821z" />
<glyph unicode="&#xa7;" horiz-adv-x="1830" d="M178 721q0 -118 113 -199q94 -69 307 -139l369 -123q129 -43 174 -74q51 -37 51 -108q0 -72 -72 -119q-74 -47 -254 -47q-111 0 -182.5 26.5t-106 73.5t-47.5 121h-276q12 -170 167 -268t439 -98q292 0 448 85.5t156 235.5q0 130 -106 199v4q137 43 209 104q86 73 86 176 q0 114 -90 189q-94 79 -328 160l-381 124q-99 34 -148 73.5t-49 111.5q0 73 74 121.5t221 48.5q148 0 224 -56q56 -44 71 -137h271q-14 156 -156 245t-404 89q-260 0 -415 -90q-76 -43 -118 -103t-42 -128q0 -132 115 -211v-4q-147 -42 -224 -105q-96 -76 -96 -178zM451 750 q0 122 219 163q59 -24 135 -49l356 -119q116 -38 165.5 -81t49.5 -103q0 -137 -190 -182q-38 17 -68 27q-57 18 -78 26l-387 129q-98 32 -150 76.5t-52 112.5z" />
<glyph unicode="&#xa8;" horiz-adv-x="1132" d="M123 1323h283v203h-283v-203zM725 1323h283v203h-283v-203z" />
<glyph unicode="&#xa9;" horiz-adv-x="2760" d="M168 778q0 -169 90 -318t254 -259q164 -111 387.5 -172.5t478.5 -61.5t479 61.5t390 172.5q165 110 255.5 258.5t90.5 318.5t-90.5 319t-255.5 261q-166 111 -390 172t-479 61t-478.5 -61t-387.5 -172q-164 -112 -254 -261.5t-90 -318.5zM369 778q0 146 74.5 273.5 t211.5 222.5t323.5 148t399.5 53t400.5 -53t324.5 -148t213 -223t76 -273t-76 -272t-213 -221q-137 -95 -324.5 -148t-400.5 -53t-399.5 53t-323.5 148q-137 93 -211.5 220t-74.5 273zM813 780q0 -200 148.5 -313t427.5 -113q219 0 358 74q143 78 166 215h-215 q-4 -62 -66 -111q-83 -65 -241 -65q-183 0 -267 90q-77 80 -77 229q0 145 90 231.5t258 86.5q127 0 200 -46.5t84 -113.5h232q-14 137 -168 207q-138 63 -348 63q-275 0 -428 -122q-154 -120 -154 -312z" />
<glyph unicode="&#xaa;" horiz-adv-x="1427" d="M129 889q0 -118 108.5 -184t303.5 -66q145 0 253 42.5t160 115.5h4q19 -80 90 -115t224 -35h37v131q-67 0 -92 21.5t-25 72.5v338q0 175 -117.5 251.5t-378.5 76.5q-230 0 -362 -71t-137 -191h239q5 60 67.5 100.5t186.5 40.5q132 0 194 -47.5t62 -155.5v-38 q-443 -9 -620 -70q-197 -70 -197 -217zM383 899q0 64 62 97t186 46q131 13 315 19v-21q0 -140 -112 -213q-96 -61 -236 -61q-100 0 -157.5 34t-57.5 99z" />
<glyph unicode="&#xab;" horiz-adv-x="1671" d="M186 535l351 -418h262l-326 411l320 422h-258zM819 535l350 -418h258l-321 411l319 422h-258z" />
<glyph unicode="&#xac;" horiz-adv-x="1935" d="M260 651h1174v-391h249v553h-1423v-162z" />
<glyph unicode="&#xad;" horiz-adv-x="1222" d="M184 588h854v166h-854v-166z" />
<glyph unicode="&#xae;" horiz-adv-x="1574" d="M123 1141q0 -93 50 -175t140 -143q192 -129 473 -129q286 0 478 129q90 60 139 142.5t49 175.5t-49 175t-139 144q-192 129 -478 129q-281 0 -473 -129q-91 -62 -140.5 -144.5t-49.5 -174.5zM258 1141q0 157 152 264q151 106 376 106t379 -106q152 -105 152 -264 q0 -160 -152 -264q-153 -105 -379 -105t-376 105q-152 107 -152 264zM541 926h141v184h86l141 -184h160l-158 198q62 11 99 37q49 34 49 92q0 63 -74 103q-56 30 -162 30h-282v-460zM682 1184v133h117q112 0 112 -64q0 -69 -116 -69h-113z" />
<glyph unicode="&#xaf;" horiz-adv-x="1132" d="M117 1323h897v150h-897v-150z" />
<glyph unicode="&#xb0;" horiz-adv-x="1366" d="M180 1217q0 -71 38 -133t106 -105q143 -96 358 -96q214 0 360 96q68 43 106 105t38 133t-37.5 132.5t-106.5 106.5q-146 96 -360 96q-215 0 -358 -96q-69 -45 -106.5 -106.5t-37.5 -132.5zM371 1217q0 99 86 162t225 63q140 0 226.5 -63t86.5 -162t-86.5 -161.5 t-226.5 -62.5q-139 0 -225 62.5t-86 161.5z" />
<glyph unicode="&#xb1;" horiz-adv-x="1943" d="M264 0h1413v158h-1413v-158zM264 715h580v-393h250v393h583v157h-583v392h-250v-392h-580v-157z" />
<glyph unicode="&#xb2;" horiz-adv-x="1236" d="M92 786h991v127h-663v2l323 193q182 106 242 164q74 71 74 162q0 106 -109 172q-120 73 -354 73q-219 0 -354 -77q-138 -82 -138 -220h236q0 94 76 138q68 39 174 39q105 0 166 -36.5t61 -97.5q0 -59 -57 -110t-193 -131l-475 -295v-103z" />
<glyph unicode="&#xb3;" horiz-adv-x="1267" d="M123 1038q10 -116 127 -186q132 -84 377 -84q237 0 374 78q129 70 129 178q0 91 -79 147q-76 54 -195 70v4q108 25 173 78t65 121q0 103 -123.5 169t-337.5 66q-235 0 -369 -82q-117 -75 -117 -186h234q9 148 246 148q101 0 167 -36t66 -96q0 -59 -66.5 -97t-166.5 -38 h-121v-118h129q125 0 194.5 -37.5t69.5 -104.5q0 -62 -76 -102q-74 -41 -188 -41q-110 0 -185 38t-92 111h-235z" />
<glyph unicode="&#xb4;" horiz-adv-x="1132" d="M358 1282h207l266 332h-309z" />
<glyph unicode="&#xb6;" horiz-adv-x="1882" d="M221 1196q0 -180 172 -276q167 -96 436 -99v-821h242v1567h-227q-274 0 -443 -88q-180 -94 -180 -283zM1321 0h242v1567h-242v-1567z" />
<glyph unicode="&#xb7;" horiz-adv-x="731" d="M178 518h375v250h-375v-250z" />
<glyph unicode="&#xb8;" horiz-adv-x="1646" d="M555 -299q11 -62 63 -94q67 -41 199 -41q139 0 212 48.5t73 117.5q0 72 -57.5 113.5t-159.5 41.5q-75 0 -111 -22h-6l131 180h-135l-191 -266h166q31 24 84 24q49 0 74 -19.5t25 -53.5q0 -74 -99 -74q-77 0 -92 45h-176z" />
<glyph unicode="&#xb9;" horiz-adv-x="868" d="M92 1403h273v-617h227v883h-197q-3 -164 -270 -164h-33v-102z" />
<glyph unicode="&#xba;" horiz-adv-x="1443" d="M129 1085q0 -205 152 -327q153 -125 438 -125q273 0 436 125q160 123 160 327q0 206 -150 328q-156 125 -444 125q-278 0 -434 -125q-76 -61 -117 -145t-41 -183zM387 1085q0 157 83 243.5t249 86.5q338 0 338 -330q0 -157 -82 -242t-250 -85q-338 0 -338 327z" />
<glyph unicode="&#xbb;" horiz-adv-x="1671" d="M242 950l325 -411l-321 -422h260l344 418l-346 415h-262zM874 950l324 -411l-319 -422h258l346 418l-350 415h-259z" />
<glyph unicode="&#xbc;" horiz-adv-x="2531" d="M92 1300h273v-616h227v883h-197q-3 -164 -270 -164h-33v-103zM211 -82h240l1681 1681h-240zM1333 203h672v-203h225v203h178v123h-178v555h-268l-629 -566v-112zM1567 324l352 315q45 41 66 66l20 26h10v-407h-448z" />
<glyph unicode="&#xbd;" horiz-adv-x="2697" d="M92 1300h273v-616h227v883h-197q-3 -164 -270 -164h-33v-103zM211 -82h240l1681 1681h-240zM1550 0h994v127h-664v2l322 193q187 109 243 163q74 74 74 162q0 106 -109 172q-125 74 -356 74q-215 0 -352 -78q-136 -81 -139 -219h237q0 93 76 137q68 39 172 39 q105 0 166 -36.5t61 -96.5q0 -59 -56.5 -111.5t-190.5 -130.5l-478 -295v-102z" />
<glyph unicode="&#xbe;" horiz-adv-x="2791" d="M123 936q10 -116 127 -186q132 -84 377 -84q239 0 374 77q129 71 129 179q0 91 -79 147q-76 54 -195 70v4q108 25 173 77.5t65 120.5q0 103 -123.5 169.5t-337.5 66.5q-235 0 -369 -82q-117 -75 -117 -186h234q9 147 246 147q101 0 167 -35.5t66 -95.5q0 -59 -66.5 -97 t-166.5 -38h-121v-119h129q125 0 194.5 -37t69.5 -104q0 -63 -76 -103q-74 -41 -188 -41q-110 0 -185 38.5t-92 111.5h-235zM530 -82h240l1681 1681h-239zM1593 203h674v-203h223v203h179v123h-179v555h-266l-631 -566v-112zM1827 324l354 315l39 37q10 12 25 29.5t22 25.5 h8v-407h-448z" />
<glyph unicode="&#xbf;" horiz-adv-x="1642" d="M106 145q0 -77 42.5 -150t125.5 -128q192 -129 527 -129t538 145q98 70 148.5 168t44.5 215h-260q4 -178 -121 -273t-356 -95q-189 0 -301.5 73t-112.5 191q0 84 51 146t158 120l149 86l109 64q48 25 74 51q28 26 39.5 58.5t11.5 86.5v131h-252v-100q0 -41 -8 -60 q-11 -35 -80 -77q-5 -3 -78 -45l-113 -66q-162 -93 -229 -160q-107 -107 -107 -252zM670 1128h362v242h-362v-242z" />
<glyph unicode="&#xc0;" horiz-adv-x="2260" d="M123 0h285l243 467h940l246 -467h303l-844 1567h-338zM731 621l291 561q32 54 63 127q5 11 13.5 27.5t9.5 17.5q2 5 4.5 10.5t3.5 8t2 3.5h6l27 -61q16 -39 66 -133l294 -561h-780zM731 1966l289 -272h217l-184 272h-322z" />
<glyph unicode="&#xc1;" horiz-adv-x="2260" d="M123 0h285l243 467h940l246 -467h303l-844 1567h-338zM731 621l291 561q32 54 63 127q5 11 13.5 27.5t9.5 17.5q2 5 4.5 10.5t3.5 8t2 3.5h6l27 -61q16 -39 66 -133l294 -561h-780zM1020 1694h217l289 272h-322z" />
<glyph unicode="&#xc2;" horiz-adv-x="2260" d="M123 0h285l243 467h940l246 -467h303l-844 1567h-338zM670 1694h227l229 155h4l230 -155h256l-330 272h-289zM731 621l291 561q32 54 63 127q5 11 13.5 27.5t9.5 17.5q2 5 4.5 10.5t3.5 8t2 3.5h6l27 -61q16 -39 66 -133l294 -561h-780z" />
<glyph unicode="&#xc3;" horiz-adv-x="2260" d="M123 0h285l243 467h940l246 -467h303l-844 1567h-338zM586 1694h172q24 131 141 131q9 0 18.5 -1t17.5 -2.5t19 -4.5t18 -5t20 -7t19 -7t21 -8.5t20.5 -9l22 -10t21.5 -9.5q141 -63 258 -63q156 0 243 84q80 77 80 192h-172q-24 -133 -145 -133q-40 0 -86 21 q-24 11 -103 45q-150 63 -262 63q-150 0 -241 -84q-82 -79 -82 -192zM731 621l291 561q32 54 63 127q5 11 13.5 27.5t9.5 17.5q2 5 4.5 10.5t3.5 8t2 3.5h6l27 -61q16 -39 66 -133l294 -561h-780z" />
<glyph unicode="&#xc4;" horiz-adv-x="2260" d="M123 0h285l243 467h940l246 -467h303l-844 1567h-338zM647 1683h283v203h-283v-203zM731 621l291 561q32 54 63 127q5 11 13.5 27.5t9.5 17.5q2 5 4.5 10.5t3.5 8t2 3.5h6l27 -61q16 -39 66 -133l294 -561h-780zM1311 1683h282v203h-282v-203z" />
<glyph unicode="&#xc5;" horiz-adv-x="2260" d="M123 0h285l243 467h940l246 -467h303l-844 1567h-338zM731 621l291 561q32 54 63 127q5 11 13.5 27.5t9.5 17.5q2 5 4.5 10.5t3.5 8t2 3.5h6l27 -61q16 -39 66 -133l294 -561h-780zM793 1876q0 -100 88 -159.5t245 -59.5q153 0 245.5 60t92.5 159q0 100 -87.5 159.5 t-246.5 59.5q-152 0 -244.5 -60.5t-92.5 -158.5zM967 1876q0 56 43.5 90.5t115.5 34.5q77 0 120.5 -34.5t43.5 -90.5t-44 -90.5t-116 -34.5q-77 0 -120 34t-43 91z" />
<glyph unicode="&#xc6;" horiz-adv-x="3319" d="M100 0h295l318 467h878v-467h1487v170h-1202v539h1087v165h-1087v523h1186v170h-1880zM817 621l529 776h245v-776h-774z" />
<glyph unicode="&#xc7;" horiz-adv-x="2361" d="M209 780q0 -374 258 -583q246 -199 672 -224l-138 -194h166q31 24 82 24q49 0 74 -19.5t25 -53.5q0 -74 -99 -74q-77 0 -92 45h-174q3 -57 64 -94q67 -41 196 -41q139 0 213 48.5t74 117.5q0 72 -58 113.5t-161 41.5q-75 0 -111 -22h-6l78 104q370 0 624 150 q116 69 185 164.5t82 205.5h-293q-26 -149 -164 -247q-164 -117 -453 -117q-352 0 -546 176q-195 174 -195 479q0 297 193 475q197 181 555 181q260 0 426 -107q137 -92 176 -229h301q-38 243 -322 377q-242 114 -581 114q-228 0 -421 -55t-333 -160q-143 -106 -220 -257 t-77 -339z" />
<glyph unicode="&#xc8;" horiz-adv-x="2078" d="M319 0h1518v170h-1233v539h1118v165h-1118v523h1217v170h-1502v-1567zM678 1966l289 -272h219l-185 272h-323z" />
<glyph unicode="&#xc9;" horiz-adv-x="2078" d="M319 0h1518v170h-1233v539h1118v165h-1118v523h1217v170h-1502v-1567zM973 1694h219l289 272h-324z" />
<glyph unicode="&#xca;" horiz-adv-x="2078" d="M319 0h1518v170h-1233v539h1118v165h-1118v523h1217v170h-1502v-1567zM616 1694h228l231 155h2l232 -155h254l-328 272h-289z" />
<glyph unicode="&#xcb;" horiz-adv-x="2078" d="M319 0h1518v170h-1233v539h1118v165h-1118v523h1217v170h-1502v-1567zM604 1683h283v203h-283v-203zM1268 1683h282v203h-282v-203z" />
<glyph unicode="&#xcc;" horiz-adv-x="927" d="M61 1966l289 -272h217l-184 272h-322zM319 0h285v1567h-285v-1567z" />
<glyph unicode="&#xcd;" horiz-adv-x="927" d="M319 0h285v1567h-285v-1567zM350 1694h217l289 272h-321z" />
<glyph unicode="&#xce;" horiz-adv-x="927" d="M0 1694h227l230 155h4l229 -155h256l-330 272h-288zM319 0h285v1567h-285v-1567z" />
<glyph unicode="&#xcf;" horiz-adv-x="927" d="M-12 1683h282v203h-282v-203zM319 0h285v1567h-285v-1567zM651 1683h283v203h-283v-203z" />
<glyph unicode="&#xd0;" horiz-adv-x="2428" d="M104 713h261v-713h755q502 0 795 195q309 208 309 608q0 395 -328 592q-291 172 -809 172h-722v-695h-261v-159zM651 164v549h666v159h-666v531h455q378 0 588 -137q231 -156 231 -469q0 -333 -231 -490q-210 -143 -607 -143h-436z" />
<glyph unicode="&#xd1;" horiz-adv-x="2441" d="M319 0h273v1315h6q3 -6 13.5 -19.5t13.5 -17.5q36 -50 96 -115l1042 -1163h365v1567h-270v-1319h-9q-12 21 -30 45q-4 5 -35.5 44t-54.5 64l-1045 1166h-365v-1567zM676 1694h172q10 65 47 98t94 33q9 0 18.5 -1t17.5 -2.5t19 -4.5t18 -5t20 -7t19 -7t21 -8.5t20.5 -9 l22 -10t21.5 -9.5q141 -63 258 -63q155 0 242 84q79 76 79 192h-172q-10 -65 -47.5 -99t-95.5 -34q-42 0 -88 21t-102 45q-150 63 -263 63q-148 0 -239 -84q-82 -79 -82 -192z" />
<glyph unicode="&#xd2;" d="M209 778q0 -203 81 -357.5t228 -256.5q138 -98 329.5 -147.5t412.5 -49.5q459 0 745 197q149 101 231 255.5t82 358.5q0 402 -315 617q-289 194 -743 194q-214 0 -403 -49t-331 -145q-151 -104 -234 -258.5t-83 -358.5zM510 776q0 322 211 498q194 164 539 164 q348 0 548 -170q209 -180 209 -492q0 -307 -213 -485q-204 -170 -544 -170q-345 0 -543 168q-207 175 -207 487zM856 1966l289 -272h219l-184 272h-324z" />
<glyph unicode="&#xd3;" d="M209 778q0 -203 81 -357.5t228 -256.5q138 -98 329.5 -147.5t412.5 -49.5q459 0 745 197q149 101 231 255.5t82 358.5q0 402 -315 617q-289 194 -743 194q-214 0 -403 -49t-331 -145q-151 -104 -234 -258.5t-83 -358.5zM510 776q0 322 211 498q194 164 539 164 q348 0 548 -170q209 -180 209 -492q0 -307 -213 -485q-204 -170 -544 -170q-345 0 -543 168q-207 175 -207 487zM1137 1694h217l288 272h-321z" />
<glyph unicode="&#xd4;" d="M209 778q0 -203 81 -357.5t228 -256.5q138 -98 329.5 -147.5t412.5 -49.5q459 0 745 197q149 101 231 255.5t82 358.5q0 402 -315 617q-289 194 -743 194q-214 0 -403 -49t-331 -145q-151 -104 -234 -258.5t-83 -358.5zM510 776q0 322 211 498q194 164 539 164 q348 0 548 -170q209 -180 209 -492q0 -307 -213 -485q-204 -170 -544 -170q-345 0 -543 168q-207 175 -207 487zM788 1694h228l231 155h2l232 -155h254l-328 272h-289z" />
<glyph unicode="&#xd5;" d="M209 778q0 -203 81 -357.5t228 -256.5q138 -98 329.5 -147.5t412.5 -49.5q459 0 745 197q149 101 231 255.5t82 358.5q0 402 -315 617q-289 194 -743 194q-214 0 -403 -49t-331 -145q-151 -104 -234 -258.5t-83 -358.5zM510 776q0 322 211 498q194 164 539 164 q348 0 548 -170q209 -180 209 -492q0 -307 -213 -485q-204 -170 -544 -170q-345 0 -543 168q-207 175 -207 487zM719 1694h172q10 65 47 98t94 33q9 0 18.5 -1t17.5 -2.5t19 -4.5t18 -5t20 -7t19 -7t21 -8.5t20.5 -9l22 -10t21.5 -9.5q141 -63 258 -63q155 0 242 84 q79 76 79 192h-172q-10 -65 -47.5 -99t-95.5 -34q-41 0 -88 21t-102 45q-150 63 -263 63q-148 0 -239 -84q-82 -79 -82 -192z" />
<glyph unicode="&#xd6;" d="M209 778q0 -203 81 -357.5t228 -256.5q138 -98 329.5 -147.5t412.5 -49.5q459 0 745 197q149 101 231 255.5t82 358.5q0 402 -315 617q-289 194 -743 194q-214 0 -403 -49t-331 -145q-151 -104 -234 -258.5t-83 -358.5zM510 776q0 322 211 498q194 164 539 164 q348 0 548 -170q209 -180 209 -492q0 -307 -213 -485q-204 -170 -544 -170q-345 0 -543 168q-207 175 -207 487zM782 1683h283v203h-283v-203zM1446 1683h283v203h-283v-203z" />
<glyph unicode="&#xd7;" horiz-adv-x="1937" d="M276 362l168 -112l521 350l518 -350l176 117l-526 346l528 348l-168 113l-520 -353l-518 348l-176 -116l522 -344z" />
<glyph unicode="&#xd8;" d="M117 -51h266l201 172q275 -154 676 -154q459 0 745 197q149 101 231 255.5t82 358.5q0 379 -284 596l288 250h-268l-180 -156q-263 121 -614 121q-214 0 -403 -49t-331 -145q-151 -104 -234 -258.5t-83 -358.5q0 -344 229 -551zM510 776q0 322 211 498q194 164 539 164 q282 0 462 -101l-1106 -956q-106 150 -106 395zM739 256l1125 973q153 -170 153 -453q0 -307 -213 -485q-204 -170 -544 -170q-328 0 -521 135z" />
<glyph unicode="&#xd9;" horiz-adv-x="2347" d="M283 522q0 -287 243 -424q224 -129 648 -129q419 0 645 129q245 141 245 424v1045h-282v-901q0 -162 -10 -222q-19 -116 -101 -186q-158 -133 -491 -133q-329 0 -492 133q-77 67 -104 186q-17 77 -17 222v901h-284v-1045zM774 1966l289 -272h217l-184 272h-322z" />
<glyph unicode="&#xda;" horiz-adv-x="2347" d="M283 522q0 -287 243 -424q224 -129 648 -129q419 0 645 129q245 141 245 424v1045h-282v-901q0 -162 -10 -222q-19 -116 -101 -186q-158 -133 -491 -133q-329 0 -492 133q-77 67 -104 186q-17 77 -17 222v901h-284v-1045zM1063 1694h217l289 272h-322z" />
<glyph unicode="&#xdb;" horiz-adv-x="2347" d="M283 522q0 -287 243 -424q224 -129 648 -129q419 0 645 129q245 141 245 424v1045h-282v-901q0 -162 -10 -222q-19 -116 -101 -186q-158 -133 -491 -133q-329 0 -492 133q-77 67 -104 186q-17 77 -17 222v901h-284v-1045zM713 1694h227l229 155h5l229 -155h256l-330 272 h-289z" />
<glyph unicode="&#xdc;" horiz-adv-x="2347" d="M283 522q0 -287 243 -424q224 -129 648 -129q419 0 645 129q245 141 245 424v1045h-282v-901q0 -162 -10 -222q-19 -116 -101 -186q-158 -133 -491 -133q-329 0 -492 133q-77 67 -104 186q-17 77 -17 222v901h-284v-1045zM690 1683h283v203h-283v-203zM1354 1683h282v203 h-282v-203z" />
<glyph unicode="&#xdd;" horiz-adv-x="2004" d="M33 1567l829 -897v-670h283v682l827 885h-305l-659 -723h-7l-636 723h-332zM891 1694h217l289 272h-322z" />
<glyph unicode="&#xde;" horiz-adv-x="1961" d="M319 0h285v352h428q366 0 574 109q227 119 227 338q0 216 -225 336q-201 104 -551 104h-453v328h-285v-1567zM604 506v579h436q249 0 373.5 -66.5t124.5 -219.5q0 -284 -487 -293h-447z" />
<glyph unicode="&#xdf;" horiz-adv-x="1863" d="M289 0h276v1147q0 162 111 242q93 67 264 67t274 -66t103 -190q0 -128 -98 -199t-271 -71h-61v-158h67q231 0 357.5 -84t126.5 -227q0 -155 -135 -232q-125 -71 -349 -71h-118v-158h112q355 0 561 121q207 123 207 340q0 173 -133 280q-122 96 -330 121v4 q165 38 254.5 128.5t89.5 219.5q0 185 -182 293q-179 101 -475 101q-292 0 -461 -107q-190 -120 -190 -344v-1157z" />
<glyph unicode="&#xe0;" horiz-adv-x="1697" d="M141 291q0 -146 135 -227.5t377 -81.5q181 0 318.5 52t202.5 148h6q11 -51 34 -85.5t64 -57.5q81 -47 272 -47h35v149q-88 1 -117.5 28t-29.5 95v441q0 213 -146 307t-454 94q-284 0 -445 -88t-166 -234h265q3 74 83 127q88 58 254 58q175 0 256.5 -63t81.5 -208v-47 q-290 -6 -475 -26t-309 -62q-242 -80 -242 -272zM424 301q0 84 79 127t245 61q171 16 419 25v-25q0 -185 -153 -278q-126 -80 -307 -80q-135 0 -209 43t-74 127zM457 1614l270 -332h203l-162 332h-311z" />
<glyph unicode="&#xe1;" horiz-adv-x="1697" d="M141 291q0 -146 135 -227.5t377 -81.5q181 0 318.5 52t202.5 148h6q11 -51 34 -85.5t64 -57.5q81 -47 272 -47h35v149q-88 1 -117.5 28t-29.5 95v441q0 213 -146 307t-454 94q-284 0 -445 -88t-166 -234h265q3 74 83 127q88 58 254 58q175 0 256.5 -63t81.5 -208v-47 q-290 -6 -475 -26t-309 -62q-242 -80 -242 -272zM424 301q0 84 79 127t245 61q171 16 419 25v-25q0 -185 -153 -278q-126 -80 -307 -80q-135 0 -209 43t-74 127zM733 1282h207l266 332h-309z" />
<glyph unicode="&#xe2;" horiz-adv-x="1697" d="M141 291q0 -146 135 -227.5t377 -81.5q181 0 318.5 52t202.5 148h6q11 -51 34 -85.5t64 -57.5q81 -47 272 -47h35v149q-88 1 -117.5 28t-29.5 95v441q0 213 -146 307t-454 94q-284 0 -445 -88t-166 -234h265q3 74 83 127q88 58 254 58q175 0 256.5 -63t81.5 -208v-47 q-290 -6 -475 -26t-309 -62q-242 -80 -242 -272zM375 1282h217l239 207h5l239 -207h246l-330 332h-289zM424 301q0 84 79 127t245 61q171 16 419 25v-25q0 -185 -153 -278q-126 -80 -307 -80q-135 0 -209 43t-74 127z" />
<glyph unicode="&#xe3;" horiz-adv-x="1697" d="M141 291q0 -146 135 -227.5t377 -81.5q181 0 318.5 52t202.5 148h6q11 -51 34 -85.5t64 -57.5q81 -47 272 -47h35v149q-88 1 -117.5 28t-29.5 95v441q0 213 -146 307t-454 94q-284 0 -445 -88t-166 -234h265q3 74 83 127q88 58 254 58q175 0 256.5 -63t81.5 -208v-47 q-290 -6 -475 -26t-309 -62q-242 -80 -242 -272zM303 1278h172q24 131 141 131q28 0 64.5 -10.5t58 -19.5t74.5 -33q144 -64 258 -64q157 0 244 84q80 77 80 193h-172q-24 -134 -146 -134q-39 0 -86 21t-102 45q-150 63 -262 63q-151 0 -242 -84q-82 -79 -82 -192zM424 301 q0 84 79 127t245 61q171 16 419 25v-25q0 -185 -153 -278q-126 -80 -307 -80q-135 0 -209 43t-74 127z" />
<glyph unicode="&#xe4;" horiz-adv-x="1697" d="M141 291q0 -146 135 -227.5t377 -81.5q181 0 318.5 52t202.5 148h6q11 -51 34 -85.5t64 -57.5q81 -47 272 -47h35v149q-88 1 -117.5 28t-29.5 95v441q0 213 -146 307t-454 94q-284 0 -445 -88t-166 -234h265q3 74 83 127q88 58 254 58q175 0 256.5 -63t81.5 -208v-47 q-290 -6 -475 -26t-309 -62q-242 -80 -242 -272zM406 1323h282v203h-282v-203zM424 301q0 84 79 127t245 61q171 16 419 25v-25q0 -185 -153 -278q-126 -80 -307 -80q-135 0 -209 43t-74 127zM1008 1323h282v203h-282v-203z" />
<glyph unicode="&#xe5;" horiz-adv-x="1697" d="M141 291q0 -146 135 -227.5t377 -81.5q181 0 318.5 52t202.5 148h6q11 -51 34 -85.5t64 -57.5q81 -47 272 -47h35v149q-88 1 -117.5 28t-29.5 95v441q0 213 -146 307t-454 94q-284 0 -445 -88t-166 -234h265q3 74 83 127q88 58 254 58q175 0 256.5 -63t81.5 -208v-47 q-290 -6 -475 -26t-309 -62q-242 -80 -242 -272zM424 301q0 84 79 127t245 61q171 16 419 25v-25q0 -185 -153 -278q-126 -80 -307 -80q-135 0 -209 43t-74 127zM528 1497q0 -100 88.5 -159.5t245.5 -59.5q153 0 245.5 60t92.5 159q0 100 -87.5 159.5t-246.5 59.5 q-152 0 -245 -60.5t-93 -158.5zM702 1497q0 56 44 90.5t116 34.5q77 0 120.5 -34.5t43.5 -90.5t-44 -90.5t-116 -34.5q-77 0 -120.5 34.5t-43.5 90.5z" />
<glyph unicode="&#xe6;" horiz-adv-x="2686" d="M141 291q0 -146 135 -227.5t377 -81.5q223 0 383 69q138 58 224 164h8q65 -108 218.5 -175t387.5 -67q259 0 429.5 83.5t215.5 226.5h-268q-29 -69 -92 -107q-99 -61 -277 -61q-425 0 -461 374h1119v95q0 221 -150 362q-177 160 -516 160q-360 0 -520 -182h-8 q-62 87 -170 133q-123 49 -320 49q-303 0 -463.5 -87.5t-165.5 -234.5h265q3 74 83 127q88 58 254 58q173 0 259 -66.5t86 -204.5v-59q-291 0 -479 -17t-312 -59q-242 -80 -242 -272zM424 301q0 85 80 128.5t246 59.5q147 14 424 17v-17q0 -174 -154 -272q-131 -86 -313 -86 q-135 0 -209 43t-74 127zM1425 635q23 150 127 235q121 99 310 99q199 0 301 -92q91 -85 94 -230v-12h-832z" />
<glyph unicode="&#xe7;" horiz-adv-x="1646" d="M143 535q0 -242 161.5 -388.5t463.5 -166.5l-145 -201h165q31 24 84 24q49 0 74 -19.5t25 -53.5q0 -74 -99 -74q-77 0 -92 45h-176q11 -61 64 -94q67 -41 198 -41q139 0 212 48.5t73 117.5q0 72 -57.5 113.5t-159.5 41.5q-75 0 -111 -22h-6l80 110q253 3 422 101 q175 101 201 276h-258q-13 -86 -86 -147q-104 -86 -310 -86q-232 0 -342 119q-98 104 -98 305q0 193 115 305q117 117 331 117q167 0 267 -64q89 -60 102 -147h270q-20 179 -211 272q-170 80 -432 80q-333 0 -532 -162q-94 -75 -143.5 -180.5t-49.5 -228.5z" />
<glyph unicode="&#xe8;" horiz-adv-x="1689" d="M143 535q0 -252 181 -402q194 -160 550 -160q260 0 431.5 83.5t214.5 226.5h-267q-29 -68 -94 -107q-96 -61 -274 -61q-219 0 -336 104q-111 96 -123 270h1116v95q0 224 -156 364q-179 158 -520 158q-340 0 -536 -166q-92 -77 -139.5 -181.5t-47.5 -223.5zM430 635 q26 154 135 243t297 89q195 0 303 -93q92 -83 95 -227v-12h-830zM506 1614l270 -332h203l-162 332h-311z" />
<glyph unicode="&#xe9;" horiz-adv-x="1689" d="M143 535q0 -252 181 -402q194 -160 550 -160q260 0 431.5 83.5t214.5 226.5h-267q-29 -68 -94 -107q-96 -61 -274 -61q-219 0 -336 104q-111 96 -123 270h1116v95q0 224 -156 364q-179 158 -520 158q-340 0 -536 -166q-92 -77 -139.5 -181.5t-47.5 -223.5zM430 635 q26 154 135 243t297 89q195 0 303 -93q92 -83 95 -227v-12h-830zM764 1282h207l266 332h-309z" />
<glyph unicode="&#xea;" horiz-adv-x="1689" d="M143 535q0 -252 181 -402q194 -160 550 -160q260 0 431.5 83.5t214.5 226.5h-267q-29 -68 -94 -107q-96 -61 -274 -61q-219 0 -336 104q-111 96 -123 270h1116v95q0 224 -156 364q-179 158 -520 158q-340 0 -536 -166q-92 -77 -139.5 -181.5t-47.5 -223.5zM412 1282h217 l239 207h4l240 -207h246l-330 332h-289zM430 635q26 154 135 243t297 89q195 0 303 -93q92 -83 95 -227v-12h-830z" />
<glyph unicode="&#xeb;" horiz-adv-x="1689" d="M143 535q0 -252 181 -402q194 -160 550 -160q260 0 431.5 83.5t214.5 226.5h-267q-29 -68 -94 -107q-96 -61 -274 -61q-219 0 -336 104q-111 96 -123 270h1116v95q0 224 -156 364q-179 158 -520 158q-340 0 -536 -166q-92 -77 -139.5 -181.5t-47.5 -223.5zM430 635 q26 154 135 243t297 89q195 0 303 -93q92 -83 95 -227v-12h-830zM430 1323h283v203h-283v-203zM1032 1323h283v203h-283v-203z" />
<glyph unicode="&#xec;" horiz-adv-x="856" d="M61 1614l271 -332h203l-164 332h-310zM289 0h278v1079h-278v-1079z" />
<glyph unicode="&#xed;" horiz-adv-x="856" d="M289 0h278v1079h-278v-1079zM319 1282h205l269 332h-312z" />
<glyph unicode="&#xee;" horiz-adv-x="856" d="M2 1282h197l215 207h4l215 -207h221l-295 332h-262zM289 0h278v1079h-278v-1079z" />
<glyph unicode="&#xef;" horiz-adv-x="856" d="M31 1323h254v203h-254v-203zM289 0h278v1079h-278v-1079zM571 1323h254v203h-254v-203z" />
<glyph unicode="&#xf0;" horiz-adv-x="1746" d="M143 541q0 -261 187 -410q191 -158 536 -158q346 0 539 154q188 153 188 444q0 250 -141 463q-124 184 -346 340l260 64l-55 108l-346 -82q-128 74 -330 158l-234 -59q157 -73 308 -160l-351 -84l56 -109l440 105q225 -156 328 -303h-6q-128 92 -351 92q-296 0 -489 -156 q-193 -157 -193 -407zM430 541q0 203 112.5 313.5t336.5 110.5q225 0 327.5 -103t102.5 -321q0 -204 -107.5 -314t-327.5 -110q-444 0 -444 424z" />
<glyph unicode="&#xf1;" horiz-adv-x="1867" d="M289 0h276v647q0 137 107 219q113 86 332 86q179 0 256 -71q27 -24 40 -63.5t15 -68.5t2 -83v-666h276v752q0 185 -141 274q-131 80 -375 80q-183 0 -327 -64q-133 -58 -195 -145h-6v182h-260v-1079zM395 1274h172q24 131 142 131q10 0 19.5 -1t21 -3.5t20 -4.5t21.5 -7 t20.5 -7.5t23 -9.5t22 -9.5t24.5 -10.5t24 -11q141 -63 258 -63q157 0 244 84q80 77 80 192h-172q-24 -133 -146 -133q-39 0 -86 21t-102 45q-150 63 -262 63q-151 0 -242 -84q-82 -79 -82 -192z" />
<glyph unicode="&#xf2;" horiz-adv-x="1740" d="M143 541q0 -262 183 -410q191 -158 540 -158q338 0 535 158q192 153 192 410q0 260 -180 409q-193 156 -541 156q-335 0 -534 -156q-94 -75 -144.5 -180t-50.5 -229zM430 541q0 201 110.5 312.5t327.5 111.5q226 0 333.5 -110t107.5 -314t-107.5 -314t-327.5 -110 q-444 0 -444 424zM504 1614l270 -332h203l-164 332h-309z" />
<glyph unicode="&#xf3;" horiz-adv-x="1740" d="M143 541q0 -262 183 -410q191 -158 540 -158q338 0 535 158q192 153 192 410q0 260 -180 409q-193 156 -541 156q-335 0 -534 -156q-94 -75 -144.5 -180t-50.5 -229zM430 541q0 201 110.5 312.5t327.5 111.5q226 0 333.5 -110t107.5 -314t-107.5 -314t-327.5 -110 q-444 0 -444 424zM762 1282h205l268 332h-311z" />
<glyph unicode="&#xf4;" horiz-adv-x="1740" d="M143 541q0 -262 183 -410q191 -158 540 -158q338 0 535 158q192 153 192 410q0 260 -180 409q-193 156 -541 156q-335 0 -534 -156q-94 -75 -144.5 -180t-50.5 -229zM408 1282h219l239 207h2l240 -207h246l-328 332h-289zM430 541q0 201 110.5 312.5t327.5 111.5 q226 0 333.5 -110t107.5 -314t-107.5 -314t-327.5 -110q-444 0 -444 424z" />
<glyph unicode="&#xf5;" horiz-adv-x="1740" d="M143 541q0 -262 183 -410q191 -158 540 -158q338 0 535 158q192 153 192 410q0 260 -180 409q-193 156 -541 156q-335 0 -534 -156q-94 -75 -144.5 -180t-50.5 -229zM326 1278h172q10 65 47 98t94 33q28 0 64.5 -10.5t58 -19.5t74.5 -33q144 -64 258 -64q154 0 241 84 q80 77 80 193h-172q-10 -65 -47.5 -99.5t-95.5 -34.5q-42 0 -88 21q-24 11 -103 45q-150 63 -262 63q-148 0 -239 -84q-82 -79 -82 -192zM430 541q0 201 110.5 312.5t327.5 111.5q226 0 333.5 -110t107.5 -314t-107.5 -314t-327.5 -110q-444 0 -444 424z" />
<glyph unicode="&#xf6;" horiz-adv-x="1740" d="M143 541q0 -262 183 -410q191 -158 540 -158q338 0 535 158q192 153 192 410q0 260 -180 409q-193 156 -541 156q-335 0 -534 -156q-94 -75 -144.5 -180t-50.5 -229zM426 1323h283v203h-283v-203zM430 541q0 201 110.5 312.5t327.5 111.5q226 0 333.5 -110t107.5 -314 t-107.5 -314t-327.5 -110q-444 0 -444 424zM1028 1323h283v203h-283v-203z" />
<glyph unicode="&#xf7;" horiz-adv-x="1943" d="M264 653h1413v158h-1413v-158zM823 246h291v198h-291v-198zM823 1020h291v199h-291v-199z" />
<glyph unicode="&#xf8;" horiz-adv-x="1740" d="M63 -55h232l137 116q169 -88 434 -88q338 0 535 158q192 153 192 410q0 241 -155 387l233 198h-233l-129 -110q-178 90 -437 90q-335 0 -534 -156q-94 -75 -144.5 -180t-50.5 -229q0 -243 160 -391zM430 541q0 201 110.5 312.5t327.5 111.5q198 0 301 -68l-696 -600 q-43 87 -43 244zM571 182l697 598q41 -90 41 -239q0 -204 -107.5 -314t-327.5 -110q-194 0 -303 65z" />
<glyph unicode="&#xf9;" horiz-adv-x="1867" d="M283 328q0 -182 143 -273q129 -82 375 -82q184 0 325 64q119 54 185 147h6v-184h264v1079h-276v-583q0 -371 -443 -371q-167 0 -248 72q-21 18 -34 42.5t-18 58t-6 55.5t-1 63v663h-272v-751zM565 1614l271 -332h202l-164 332h-309z" />
<glyph unicode="&#xfa;" horiz-adv-x="1867" d="M283 328q0 -182 143 -273q129 -82 375 -82q184 0 325 64q119 54 185 147h6v-184h264v1079h-276v-583q0 -371 -443 -371q-167 0 -248 72q-21 18 -34 42.5t-18 58t-6 55.5t-1 63v663h-272v-751zM823 1282h205l268 332h-311z" />
<glyph unicode="&#xfb;" horiz-adv-x="1867" d="M283 328q0 -182 143 -273q129 -82 375 -82q184 0 325 64q119 54 185 147h6v-184h264v1079h-276v-583q0 -371 -443 -371q-167 0 -248 72q-21 18 -34 42.5t-18 58t-6 55.5t-1 63v663h-272v-751zM469 1282h219l240 207h2l239 -207h246l-328 332h-288z" />
<glyph unicode="&#xfc;" horiz-adv-x="1867" d="M283 328q0 -182 143 -273q129 -82 375 -82q184 0 325 64q119 54 185 147h6v-184h264v1079h-276v-583q0 -371 -443 -371q-167 0 -248 72q-21 18 -34 42.5t-18 58t-6 55.5t-1 63v663h-272v-751zM487 1323h283v203h-283v-203zM1090 1323h282v203h-282v-203z" />
<glyph unicode="&#xfd;" horiz-adv-x="1597" d="M117 1079l565 -1079l-31 -57q-51 -108 -121 -152q-70 -45 -223 -45q-77 0 -141 10v-151q93 -13 166 -13q250 0 377 78q60 37 107 98.5t102 163.5l589 1147h-276l-332 -673l-59 -125q-12 -24 -21 -45h-8q-9 24 -45 98q-1 2 -14.5 27.5t-20.5 41.5l-338 676h-276zM702 1282 h207l267 332h-310z" />
<glyph unicode="&#xfe;" horiz-adv-x="1875" d="M289 -385h276v543h6q48 -76 181 -127q143 -58 311 -58q287 0 469 144q197 156 197 438q0 290 -197 430q-170 121 -455 121q-175 0 -307 -56t-203 -149h-2v713h-276v-1999zM555 500v114q0 142 121 242q130 102 340 102q234 0 342 -114q92 -103 92 -289q0 -436 -430 -436 q-220 0 -346 110q-119 104 -119 271z" />
<glyph unicode="&#xff;" horiz-adv-x="1597" d="M117 1079l565 -1079l-31 -57q-51 -108 -121 -152q-70 -45 -223 -45q-77 0 -141 10v-151q93 -13 166 -13q250 0 377 78q60 37 107 98.5t102 163.5l589 1147h-276l-332 -673l-59 -125q-12 -24 -21 -45h-8q-9 24 -45 98q-1 2 -14.5 27.5t-20.5 41.5l-338 676h-276zM369 1323 h282v203h-282v-203zM971 1323h282v203h-282v-203z" />
<glyph unicode="&#x152;" horiz-adv-x="3713" d="M209 778q0 -402 307 -614q278 -197 739 -197q497 0 725 236h5v-203h1486v170h-1202v539h1088v165h-1088v523h1186v170h-1470v-213h-5q-208 235 -725 235q-214 0 -403.5 -49t-329.5 -145q-313 -219 -313 -617zM510 776q0 323 207 498q194 164 536 164q357 0 549 -150 q183 -148 183 -405v-191q0 -271 -173 -413q-188 -158 -559 -158q-343 0 -538 168q-205 174 -205 487z" />
<glyph unicode="&#x153;" horiz-adv-x="2856" d="M143 541q0 -262 183 -410q191 -158 540 -158q417 0 584 250q147 -250 592 -250q260 0 431 83.5t214 226.5h-266q-29 -68 -94 -107q-96 -61 -275 -61q-219 0 -336 104q-111 96 -123 270h1117v95q0 224 -156 364q-179 158 -520 158q-418 0 -576 -252q-149 252 -586 252 q-335 0 -534 -156q-94 -75 -144.5 -180t-50.5 -229zM430 541q0 201 110.5 312.5t327.5 111.5q226 0 333.5 -110t107.5 -314t-107.5 -314t-327.5 -110q-444 0 -444 424zM1597 635q26 154 135 243t298 89q195 0 303 -93q91 -82 94 -227v-12h-830z" />
<glyph unicode="&#x178;" horiz-adv-x="2004" d="M33 1567l829 -897v-670h283v682l827 885h-305l-659 -723h-7l-636 723h-332zM528 1683h283v203h-283v-203zM1192 1683h283v203h-283v-203z" />
<glyph unicode="&#x2c6;" horiz-adv-x="1132" d="M94 1282h219l240 207h2l240 -207h245l-327 332h-289z" />
<glyph unicode="&#x2dc;" horiz-adv-x="1132" d="M20 1278h173q24 131 141 131q28 0 65 -11t56.5 -19t74.5 -33q144 -64 258 -64q157 0 244 84q80 77 80 193h-172q-24 -134 -145 -134q-39 0 -86 21q-24 11 -103 45q-150 63 -262 63q-151 0 -242 -84q-82 -79 -82 -192z" />
<glyph unicode="&#x2000;" horiz-adv-x="1047" />
<glyph unicode="&#x2001;" horiz-adv-x="2095" />
<glyph unicode="&#x2002;" horiz-adv-x="1047" />
<glyph unicode="&#x2003;" horiz-adv-x="2095" />
<glyph unicode="&#x2004;" horiz-adv-x="698" />
<glyph unicode="&#x2005;" horiz-adv-x="523" />
<glyph unicode="&#x2006;" horiz-adv-x="349" />
<glyph unicode="&#x2007;" horiz-adv-x="349" />
<glyph unicode="&#x2008;" horiz-adv-x="261" />
<glyph unicode="&#x2009;" horiz-adv-x="419" />
<glyph unicode="&#x200a;" horiz-adv-x="116" />
<glyph unicode="&#x2010;" horiz-adv-x="1222" d="M184 588h854v166h-854v-166z" />
<glyph unicode="&#x2011;" horiz-adv-x="1222" d="M184 588h854v166h-854v-166z" />
<glyph unicode="&#x2012;" horiz-adv-x="1222" d="M184 588h854v166h-854v-166z" />
<glyph unicode="&#x2013;" horiz-adv-x="1689" d="M184 598h1321v145h-1321v-145z" />
<glyph unicode="&#x2014;" horiz-adv-x="2764" d="M184 598h2396v145h-2396v-145z" />
<glyph unicode="&#x2018;" horiz-adv-x="702" d="M92 1116h340l135 451h-196z" />
<glyph unicode="&#x2019;" horiz-adv-x="702" d="M135 1114h197l278 453h-340z" />
<glyph unicode="&#x201a;" horiz-adv-x="702" d="M154 -231h196l279 452h-340z" />
<glyph unicode="&#x201c;" horiz-adv-x="1212" d="M92 1116h340l135 451h-196zM602 1116h340l135 451h-196z" />
<glyph unicode="&#x201d;" horiz-adv-x="1210" d="M135 1114h197l278 453h-340zM641 1114h201l276 453h-338z" />
<glyph unicode="&#x201e;" horiz-adv-x="1212" d="M154 -231h196l279 452h-340zM659 -231h201l277 452h-338z" />
<glyph unicode="&#x2022;" horiz-adv-x="1007" d="M174 631q0 -102 91 -162.5t235 -60.5q147 0 235 61q96 63 96 162t-90 161t-237 62q-142 0 -234 -61q-96 -67 -96 -162z" />
<glyph unicode="&#x2026;" horiz-adv-x="2439" d="M178 0h375v250h-375v-250zM1032 0h375v250h-375v-250zM1886 0h375v250h-375v-250z" />
<glyph unicode="&#x202f;" horiz-adv-x="419" />
<glyph unicode="&#x2039;" horiz-adv-x="1040" d="M186 535l351 -418h262l-326 411l320 422h-258z" />
<glyph unicode="&#x203a;" horiz-adv-x="1040" d="M242 950l325 -411l-321 -422h260l344 418l-346 415h-262z" />
<glyph unicode="&#x205f;" horiz-adv-x="523" />
<glyph unicode="&#x20ac;" horiz-adv-x="2045" d="M92 846h242q-2 -14 -2 -45v-47v-47q0 -34 2 -48h-236v-145h258q59 -283 273 -418q196 -129 534 -129q336 0 533 129q189 121 211 328h-273q-23 -143 -131 -219q-128 -90 -340 -90q-427 0 -522 399h719v145h-739q-5 35 -5 48v47v47q0 10 5 45h733v145h-713q92 398 522 398 q188 0 320 -99q109 -82 133 -209h272q-20 217 -233 344q-193 115 -492 115q-321 0 -526 -135q-218 -141 -281 -414h-264v-145z" />
<glyph unicode="&#x2122;" horiz-adv-x="2146" d="M74 1466h288v-526h181v526h288v101h-757v-101zM997 940h164v483h13q3 -17 12 -37q17 -50 39 -92l184 -354h152l184 356q14 25 24 52q15 34 17 38l14 37h12v-483h179v627h-265l-194 -365l-16 -39q-20 -46 -21 -55h-8l-6 27q-6 16 -29 67l-190 365h-265v-627z" />
<glyph unicode="&#x25fc;" horiz-adv-x="1075" d="M0 0v1075h1075v-1075h-1075z" />
<glyph unicode="&#xfb01;" horiz-adv-x="1943" d="M57 938h283v-938h276v938h375v141h-375v219q0 95 56 131.5t182 36.5q109 0 150 -8v152q-82 10 -173 10q-240 0 -358 -66q-133 -78 -133 -233v-242h-283v-141zM1370 1325h291v199h-291v-199zM1376 0h279v1079h-279v-1079z" />
<glyph unicode="&#xfb02;" horiz-adv-x="1937" d="M57 938h283v-938h276v938h375v141h-375v219q0 95 56 131.5t182 36.5q109 0 150 -8v152q-82 10 -173 10q-240 0 -358 -66q-133 -78 -133 -233v-242h-283v-141zM1376 0h277v1614h-277v-1614z" />
</font>
</defs>
</svg>
