<?xml version="1.0" standalone="no"?>
<!DOCTYPE svg PUBLIC "-//W3C//DTD SVG 1.1//EN" "http://www.w3.org/Graphics/SVG/1.1/DTD/svg11.dtd" >
<svg xmlns="http://www.w3.org/2000/svg">
<metadata></metadata>
<defs>
<font id="klnt_regularregular" horiz-adv-x="1685" >
<font-face units-per-em="2048" ascent="1663" descent="-385" />
<missing-glyph horiz-adv-x="557" />
<glyph horiz-adv-x="0" />
<glyph horiz-adv-x="682" />
<glyph unicode=" "  horiz-adv-x="557" />
<glyph unicode="&#x09;" horiz-adv-x="557" />
<glyph unicode="&#xa0;" horiz-adv-x="557" />
<glyph unicode="!" horiz-adv-x="573" d="M166 0v242h242v-242h-242zM182 1614h209l-24 -1129h-162z" />
<glyph unicode="&#x22;" horiz-adv-x="722" d="M92 1567h205l-39 -453h-127zM426 1567h205l-39 -453h-127z" />
<glyph unicode="#" horiz-adv-x="1366" d="M123 608v156h250l41 291h-230v155h252l53 357h156l-51 -357h258l53 357h158l-53 -357h233v-155h-256l-41 -291h236v-156h-260l-58 -405h-157l57 405h-260l-58 -405h-155l57 405h-225zM528 764h260l43 291h-260z" />
<glyph unicode="$" horiz-adv-x="1284" d="M84 434h182q43 -263 301 -293v559l-37 7q-194 36 -293.5 138.5t-99.5 284.5q0 160 119.5 271.5t310.5 130.5v164h135v-164q204 -19 320 -132t125 -294h-180q-13 109 -77 184t-188 94v-534l60 -10q220 -38 317 -141t97 -271q0 -195 -122 -310t-352 -132v-224h-135v224 q-226 14 -345.5 133.5t-137.5 314.5zM313 1130q0 -211 240 -253l14 -3v510q-120 -17 -187 -87t-67 -167zM702 143h13q276 32 276 269q0 208 -264 258l-25 4v-531z" />
<glyph unicode="%" horiz-adv-x="1865" d="M133 1151q0 178 98.5 273.5t247.5 95.5q151 0 249.5 -95.5t98.5 -273.5q0 -177 -99 -274t-249 -97q-153 0 -249.5 96.5t-96.5 274.5zM293 -82l1120 1681h172l-1120 -1681h-172zM297 1151q0 -119 47 -179.5t133 -60.5q85 0 133.5 61t48.5 179q0 119 -48.5 180.5 t-133.5 61.5q-87 0 -133.5 -60t-46.5 -182zM1038 356q0 178 98.5 273.5t247.5 95.5q151 0 250 -95.5t99 -273.5q0 -177 -99.5 -273.5t-249.5 -96.5q-153 0 -249.5 96t-96.5 274zM1202 356q0 -119 47 -179t133 -60q85 0 134 61t49 178q0 119 -49 180.5t-134 61.5 q-87 0 -133.5 -60t-46.5 -182z" />
<glyph unicode="&#x26;" horiz-adv-x="1439" d="M84 401q0 138 78 239t270 214q-50 58 -78.5 95.5t-55.5 86t-38.5 99.5t-11.5 112q0 154 106 257.5t277 103.5q155 0 259 -91.5t105 -230.5q1 -119 -87 -236.5t-238 -218.5l303 -356l45 -53q58 155 65 360h160q-14 -278 -117 -483q87 -93 140 -118t143 -25v-160h-51 q-94 0 -168 38t-158 122q-161 -189 -426 -189q-250 0 -386 120.5t-136 313.5zM274 408q0 -98 48 -166t121 -97.5t163 -29.5q207 0 326 149l-70 82l-338 397l-12 -8q-87 -57 -135.5 -101.5t-75.5 -100t-27 -125.5zM424 1251q0 -78 39.5 -151t114.5 -158q124 80 183.5 159.5 t59.5 174.5q0 81 -51.5 139t-140.5 58q-96 0 -150.5 -62t-54.5 -160z" />
<glyph unicode="'" horiz-adv-x="389" d="M92 1567h205l-39 -453h-127z" />
<glyph unicode="(" horiz-adv-x="679" d="M195 674q0 86 10 173t22 152.5t39.5 148.5t43 127.5t53.5 126t51 107t53 105.5h139q-51 -109 -85.5 -197.5t-69 -206t-51.5 -252t-17 -284.5q0 -149 17 -283t51.5 -252t69 -206.5t85.5 -198.5h-139q-53 104 -75.5 150.5t-68.5 157.5t-68 192.5t-41 201t-19 238.5z" />
<glyph unicode=")" horiz-adv-x="679" d="M74 -266q51 110 85.5 198.5t69 206.5t51.5 252t17 283q0 150 -17 284.5t-51.5 252t-69 206t-85.5 197.5h139q40 -80 53 -105.5t51 -107t53.5 -126t43 -127.5t39.5 -148.5t22 -152.5t10 -173q0 -119 -19 -238.5t-41 -201t-68 -192.5t-68.5 -157.5t-75.5 -150.5h-139z" />
<glyph unicode="*" horiz-adv-x="931" d="M78 1268l59 170l283 -148l4 4l-47 320h178l-47 -320l4 -4l281 148l61 -170l-309 -66v-4l225 -233l-145 -109l-156 291h-4l-158 -291l-145 109l225 233v4z" />
<glyph unicode="+" horiz-adv-x="1296" d="M176 653v158h387v391h166v-391h389v-158h-389v-393h-166v393h-387z" />
<glyph unicode="," horiz-adv-x="468" d="M102 -240l70 492h229l-165 -492h-134z" />
<glyph unicode="-" horiz-adv-x="815" d="M123 588v166h569v-166h-569z" />
<glyph unicode="." horiz-adv-x="487" d="M119 0v250h250v-250h-250z" />
<glyph unicode="/" horiz-adv-x="1171" d="M12 -266l930 1880h166l-930 -1880h-166z" />
<glyph unicode="0" horiz-adv-x="1372" d="M141 754q0 386 145 586t398 200q256 0 401.5 -199.5t145.5 -586.5q0 -386 -145.5 -586.5t-401.5 -200.5q-257 0 -400 200t-143 587zM340 750q0 -311 89.5 -471t254.5 -160q162 0 255 163.5t93 467.5q0 312 -91.5 474t-256.5 162q-164 0 -254 -159.5t-90 -476.5z" />
<glyph unicode="1" horiz-adv-x="866" d="M117 1118v131h45q149 0 223 74q65 65 68 201h153v-1524h-186v1118h-303z" />
<glyph unicode="2" horiz-adv-x="1257" d="M109 0v141l520 516q45 47 55.5 57.5t48 50.5t46.5 52t36.5 46t35 50t24 45.5t21.5 51.5t10 50t5 56q0 119 -73.5 194.5t-200.5 75.5q-62 0 -114 -19t-94 -57.5t-65.5 -104t-23.5 -152.5h-193q0 224 139 355.5t351 131.5q120 0 212.5 -35.5t147 -95t82 -131.5t27.5 -152 q0 -104 -34 -189.5t-101.5 -167.5t-200.5 -210l-412 -393v-2h758v-164h-1007z" />
<glyph unicode="3" horiz-adv-x="1284" d="M129 426h186q20 -147 112 -224t226 -77t225 76.5t91 201.5q0 135 -83 209t-233 74h-80v170h80q117 0 195 76.5t78 189.5q0 119 -77.5 190.5t-201.5 71.5q-295 0 -307 -301h-184q0 93 31.5 175t91.5 145.5t155 100t213 36.5q213 0 338 -114t125 -293q0 -113 -69.5 -204.5 t-182.5 -140.5v-4q58 -15 108.5 -44.5t93.5 -74.5t68 -112.5t25 -149.5q0 -88 -35 -166.5t-99.5 -138t-163 -94.5t-218.5 -35q-125 0 -222 36.5t-157 101t-92 145t-37 174.5z" />
<glyph unicode="4" horiz-adv-x="1282" d="M86 369v147l688 1002h201v-990h199v-159h-199v-369h-178v369h-711zM279 526h518v772h-4q-30 -63 -93 -157z" />
<glyph unicode="5" horiz-adv-x="1273" d="M129 395h186q10 -138 90.5 -204t217.5 -66q61 0 116 21.5t101.5 63.5t74 113t27.5 162q0 168 -90 262.5t-229 94.5q-195 0 -281 -133h-160l66 809h807v-160h-652l-38 -484h4q44 53 121 89t174 36q92 0 174.5 -30t150 -89.5t107 -160t39.5 -230.5q0 -237 -141 -378.5 t-382 -141.5q-99 0 -179.5 24.5t-134 65.5t-91 97t-56 115t-22.5 124z" />
<glyph unicode="6" horiz-adv-x="1312" d="M141 672q0 868 559 868q201 0 312 -91t129 -259h-176q-18 97 -84.5 152t-180.5 55q-354 0 -372 -633h8q53 97 155 154t228 57q70 0 135.5 -17.5t126 -55.5t105.5 -93.5t71.5 -138t26.5 -181.5q0 -228 -140.5 -374t-373.5 -146q-88 0 -161 18t-143 66t-118 125t-77.5 203 t-29.5 291zM352 473q0 -88 27 -156.5t72.5 -109.5t101.5 -61.5t119 -20.5q61 0 116 20.5t101.5 61t74 109.5t27.5 157q0 162 -89.5 253t-229.5 91q-144 0 -232 -87.5t-88 -256.5z" />
<glyph unicode="7" horiz-adv-x="1116" d="M76 1352v166h966v-121l-634 -1397h-197l614 1352h-749z" />
<glyph unicode="8" horiz-adv-x="1284" d="M119 401q0 82 27 149t71.5 110.5t92 70t98.5 39.5v4q-102 33 -174 127.5t-72 224.5q0 175 133 294.5t346 119.5q215 0 348 -119.5t133 -294.5q0 -131 -73 -224.5t-175 -127.5v-4q53 -12 101.5 -39t92.5 -70.5t70.5 -110.5t26.5 -149q0 -187 -144.5 -310.5t-379.5 -123.5 q-236 0 -379 122.5t-143 311.5zM309 403q0 -96 47.5 -163t120.5 -96t164 -29q95 0 168.5 29t120.5 95.5t47 163.5q0 143 -95.5 217t-240.5 74q-140 0 -236 -74.5t-96 -216.5zM352 1116q0 -132 83 -204t206 -72q121 0 205 72.5t84 203.5q0 134 -83.5 205.5t-205.5 71.5 q-125 0 -207 -71.5t-82 -205.5z" />
<glyph unicode="9" horiz-adv-x="1312" d="M135 1032q0 221 145 364.5t365 143.5q126 0 221.5 -39.5t165.5 -122.5t106 -220t36 -324q0 -189 -23 -333.5t-67.5 -245t-112 -164.5t-152.5 -93t-194 -29q-185 0 -307.5 93.5t-149.5 279.5h178q19 -101 97 -163t182 -62q181 0 267.5 153t86.5 484h-4 q-51 -90 -148.5 -142.5t-228.5 -52.5q-64 0 -127.5 17t-124.5 55t-107.5 91.5t-75 134t-28.5 175.5zM328 1049q0 -157 88.5 -245.5t224.5 -88.5q141 0 232.5 90t91.5 244q0 81 -27.5 146t-74 105.5t-103.5 62t-119 21.5q-47 0 -91 -12t-84.5 -38.5t-71 -64.5t-48.5 -95 t-18 -125z" />
<glyph unicode=":" horiz-adv-x="532" d="M162 0v252h252v-252h-252zM162 827v252h252v-252h-252z" />
<glyph unicode=";" horiz-adv-x="557" d="M115 -240l67 492h230l-166 -492h-131zM174 827v252h252v-252h-252z" />
<glyph unicode="&#x3c;" horiz-adv-x="1296" d="M164 618v127l958 472v-179l-735 -356l735 -356v-179z" />
<glyph unicode="=" horiz-adv-x="1296" d="M174 469v156h948v-156h-948zM174 840v155h948v-155h-948z" />
<glyph unicode="&#x3e;" horiz-adv-x="1296" d="M174 127v178l735 357l-735 356v178l959 -471v-127z" />
<glyph unicode="?" horiz-adv-x="1095" d="M72 1104q-7 237 128 382.5t359 145.5q94 0 171.5 -23.5t131 -62.5t90 -91.5t53.5 -110.5t17 -119q0 -62 -13.5 -117t-32 -93.5t-52 -78.5t-59 -64t-66.5 -59l-76 -65q-10 -9 -31.5 -27.5t-27 -24.5t-19 -20t-16.5 -22t-9 -22.5t-7 -30t-1 -36.5v-100h-168v131 q0 63 15 103.5t38 65t79 71.5q16 13 24 20l100 86q71 58 105.5 120.5t34.5 145.5q0 117 -76 191t-201 74q-153 0 -236.5 -96t-80.5 -273h-174zM406 0v242h241v-242h-241z" />
<glyph unicode="@" horiz-adv-x="2066" d="M90 541q0 166 48 316.5t136.5 269.5t207 207t266.5 135t309 47q252 0 454 -100.5t317.5 -284.5t115.5 -418q0 -127 -30 -230.5t-78 -169.5t-111.5 -110.5t-126 -63t-125.5 -18.5q-243 0 -269 180h-6q-114 -186 -317 -186q-148 0 -231.5 94t-88.5 250q-3 103 28 206.5 t88.5 189t150 139t202.5 53.5q101 0 166 -47.5t88 -125.5h4l27 140h153l-108 -547q-22 -105 12.5 -163t126.5 -58q38 0 75.5 13.5t76 47.5t67.5 84.5t47.5 130.5t18.5 180q0 144 -54.5 270.5t-150 217.5t-232 143.5t-294.5 52.5q-133 0 -255 -41.5t-219.5 -118.5 t-170 -180.5t-111.5 -233t-39 -271.5q0 -178 55 -326.5t152.5 -250.5t234.5 -158t299 -56q159 0 297.5 47.5t233.5 124.5l86 -88q-254 -213 -631 -213q-192 0 -358 67t-284 186.5t-185.5 291.5t-67.5 375zM735 459q0 -93 47 -152t138 -59q102 0 180.5 77t103.5 197l19 88 q13 49 7 102t-24 96.5t-62 72t-106 28.5q-74 0 -134 -41t-95.5 -107.5t-54.5 -144t-19 -157.5z" />
<glyph unicode="A" horiz-adv-x="1507" d="M82 0l557 1567h225l563 -1567h-202l-164 467h-627l-162 -467h-190zM487 621h521l-197 561q-15 42 -30 90.5t-23 75.5l-8 28h-5q-1 -3 -10.5 -33t-24 -76.5t-28.5 -84.5z" />
<glyph unicode="B" horiz-adv-x="1480" d="M213 0v1567h616q137 0 244.5 -41t173.5 -128.5t66 -211.5q0 -140 -75 -229.5t-212 -120.5v-5q148 -25 242 -130t94 -246q0 -455 -580 -455h-569zM403 154h381q183 0 281 72t98 241q0 150 -100.5 216.5t-294.5 66.5h-365v-596zM403 907h392q66 0 120.5 13t100.5 41.5 t72 80.5t26 125q0 123 -79.5 184.5t-215.5 61.5h-416v-506z" />
<glyph unicode="C" horiz-adv-x="1574" d="M139 780q0 188 52 341.5t145 256t222 158t282 55.5q104 0 202 -28.5t184.5 -85t144.5 -154t71 -223.5h-201q-11 63 -39.5 120.5t-76 107t-121.5 79t-164 29.5q-237 0 -367.5 -178.5t-130.5 -477.5q0 -306 130 -480.5t364 -174.5q80 0 146.5 21t112 55.5t78.5 82.5 t50.5 98.5t23.5 106.5h195q-19 -227 -183 -373.5t-423 -146.5q-123 0 -229 31.5t-192.5 97t-147.5 160.5t-94.5 228t-33.5 294z" />
<glyph unicode="D" horiz-adv-x="1589" d="M213 0v1567h481q109 0 205 -18.5t181.5 -56t153 -99.5t117 -145t75.5 -196t26 -249q0 -162 -35.5 -294.5t-100 -226.5t-156 -157.5t-202.5 -94t-241 -30.5h-504zM403 164h291q128 0 228 34.5t175.5 108.5t115.5 197.5t40 292.5q0 160 -40.5 278.5t-115 189t-171.5 104.5 t-219 34h-304v-1239z" />
<glyph unicode="E" horiz-adv-x="1386" d="M213 0v1567h1001v-170h-811v-523h746v-165h-746v-539h822v-170h-1012z" />
<glyph unicode="F" horiz-adv-x="1257" d="M213 0v1567h936v-170h-746v-566h682v-165h-682v-666h-190z" />
<glyph unicode="G" horiz-adv-x="1695" d="M139 776q0 188 54.5 342.5t150.5 257t227 158t283 55.5q244 0 403.5 -116.5t188.5 -321.5h-199q-20 132 -128.5 209.5t-264.5 77.5q-249 0 -381.5 -180t-132.5 -488q0 -312 128 -479.5t366 -167.5q224 0 348.5 124t124.5 353v23h-453v168h639v-791h-166v225h-8 q-61 -113 -186 -185.5t-304 -72.5q-150 0 -274.5 49.5t-218 147.5t-145.5 254t-52 358z" />
<glyph unicode="H" horiz-adv-x="1628" d="M213 0v1567h190v-690h822v690h190v-1567h-190v707h-822v-707h-190z" />
<glyph unicode="I" horiz-adv-x="618" d="M213 0v1567h190v-1567h-190z" />
<glyph unicode="J" horiz-adv-x="868" d="M53 -6v162h43q123 0 198 16t116.5 57t55 96t13.5 148v1094h191v-1110q0 -247 -131.5 -355t-399.5 -108h-86z" />
<glyph unicode="K" horiz-adv-x="1462" d="M213 0v1567h190v-805l734 805h229l-602 -658l645 -909h-229l-547 766l-230 -252v-514h-190z" />
<glyph unicode="L" horiz-adv-x="1234" d="M213 0v1567h190v-1397h779v-170h-969z" />
<glyph unicode="M" horiz-adv-x="1947" d="M213 0v1567h289l397 -1123l70 -204h4q20 67 69 204l404 1123h287v-1567h-195v1346h-6q-25 -80 -84 -246l-395 -1100h-181l-385 1100l-84 246h-6v-1346h-184z" />
<glyph unicode="N" horiz-adv-x="1628" d="M213 0v1567h244l696 -1166q24 -38 44 -76.5t28 -57.5l8 -19h6v1319h180v-1567h-243l-695 1163q-27 45 -47.5 83t-27.5 54l-7 15h-4v-1315h-182z" />
<glyph unicode="O" d="M139 778q0 164 37 299.5t102 229t154 158t191.5 94.5t216.5 30q116 0 219.5 -30t193.5 -94.5t154.5 -158.5t101.5 -229t37 -299t-36.5 -298.5t-101.5 -228.5t-154.5 -159t-193 -95t-220.5 -30q-147 0 -272.5 49t-222 146t-151.5 254.5t-55 361.5zM340 776 q0 -315 135.5 -485t364.5 -170q227 0 366.5 173t139.5 482q0 316 -137.5 489t-368.5 173q-227 0 -363.5 -170t-136.5 -492z" />
<glyph unicode="P" horiz-adv-x="1308" d="M213 0v1567h471q116 0 212.5 -28.5t170.5 -85.5t115 -151t41 -217q0 -240 -151.5 -363.5t-403.5 -123.5h-265v-598h-190zM403 752h265q173 0 265.5 84t92.5 249q0 328 -352 328h-271v-661z" />
<glyph unicode="Q" d="M139 778q0 164 37 299.5t102 229t154 158t191.5 94.5t216.5 30q116 0 219.5 -30t193.5 -94.5t154.5 -158.5t101.5 -229t37 -299q0 -234 -73 -402.5t-211 -258.5v-11h5q114 0 197 -48q84 -50 150 -154l-156 -115q-76 115 -152.5 158t-183.5 43q-51 0 -130 -9.5t-152 -9.5 q-117 0 -220.5 30t-192.5 93.5t-152.5 157.5t-99.5 228t-36 298zM340 776q0 -315 135.5 -485t364.5 -170q232 0 369 163.5t137 491.5q0 316 -137.5 489t-368.5 173q-227 0 -363.5 -170t-136.5 -492z" />
<glyph unicode="R" horiz-adv-x="1417" d="M213 0v1567h567q169 0 303 -70q203 -114 203 -371q0 -85 -22 -154.5t-55 -114.5t-79.5 -79.5t-89 -53t-90.5 -30.5v-4l346 -690h-221l-323 664h-349v-664h-190zM403 821h361q146 0 233.5 74.5t87.5 228.5q0 140 -86 213.5t-227 73.5h-369v-590z" />
<glyph unicode="S" horiz-adv-x="1462" d="M156 440h198q19 -138 116.5 -227.5t274.5 -89.5q196 0 283.5 82t87.5 219q0 106 -63 172t-203 90l-219 39q-416 77 -416 426q0 193 145.5 315.5t384.5 122.5q243 0 375.5 -118.5t143.5 -323.5h-195q-15 128 -94 209.5t-232 81.5q-154 0 -240.5 -77t-86.5 -194 q0 -108 62.5 -171t199.5 -89l221 -39q220 -40 316 -146.5t96 -281.5q0 -220 -147 -345.5t-423 -125.5q-265 0 -419 129t-166 342z" />
<glyph unicode="T" horiz-adv-x="1337" d="M31 1401v166h1276v-166h-543v-1401h-191v1401h-542z" />
<glyph unicode="U" horiz-adv-x="1564" d="M188 522v1045h191v-901q0 -70 2 -113.5t8.5 -105t24 -108.5t45.5 -81q107 -133 327 -133q224 0 328 133q26 33 42.5 76.5t22.5 103.5t7.5 98.5t1.5 109.5v20v901h188v-1045q0 -144 -42.5 -251.5t-122 -173t-186.5 -97t-243 -31.5q-137 0 -244 31t-186.5 96t-121.5 172.5 t-42 253.5z" />
<glyph unicode="V" horiz-adv-x="1505" d="M82 1567h203l403 -1153q24 -71 41 -132t22 -86l5 -26h4q16 84 69 240l402 1157h192l-557 -1567h-221z" />
<glyph unicode="W" horiz-adv-x="2197" d="M76 1567h194l308 -1110q19 -70 33 -132.5t18 -90.5l4 -27h4q12 92 53 248l301 1112h221l304 -1110q20 -70 34 -132.5t18 -90.5l5 -27h4q10 92 53 248l305 1112h187l-449 -1567h-213l-307 1092q-20 70 -33.5 133t-17.5 91l-4 27h-4q-13 -93 -56 -249l-303 -1094h-211z" />
<glyph unicode="X" horiz-adv-x="1511" d="M104 0l537 811l-498 756h228l379 -594h4l399 594h205l-500 -746l549 -821h-231l-426 657h-5l-436 -657h-205z" />
<glyph unicode="Y" horiz-adv-x="1337" d="M23 1567h221l424 -723h4l440 723h203l-551 -885v-682h-189v670z" />
<glyph unicode="Z" horiz-adv-x="1339" d="M96 0v145l891 1254h-858v168h1098v-146l-889 -1253h905v-168h-1147z" />
<glyph unicode="[" horiz-adv-x="722" d="M225 -266v1880h447v-137h-277v-1606h277v-137h-447z" />
<glyph unicode="\" horiz-adv-x="1171" d="M63 1614h166l930 -1880h-166z" />
<glyph unicode="]" horiz-adv-x="722" d="M51 -131h277v1608h-277v137h447v-1880h-447v135z" />
<glyph unicode="^" horiz-adv-x="835" d="M25 1036l321 578h152l313 -578h-168l-225 391h-2l-234 -391h-157z" />
<glyph unicode="_" horiz-adv-x="811" d="M-4 -248h819v-141h-819v141z" />
<glyph unicode="`" horiz-adv-x="755" d="M201 1614h207l108 -332h-135z" />
<glyph unicode="a" horiz-adv-x="1132" d="M94 291q0 192 162 272q81 42 205.5 62t316.5 26v47q0 144 -54.5 207.5t-170.5 63.5q-111 0 -165.5 -53.5t-59.5 -131.5h-176q3 146 110 234t297 88q205 0 302 -94t97 -307v-441q0 -67 20.5 -94.5t78.5 -28.5v-149h-23q-125 0 -179.5 44.5t-68.5 145.5h-4 q-43 -95 -134.5 -147.5t-211.5 -52.5q-161 0 -251.5 82t-90.5 227zM283 301q0 -82 49.5 -126t138.5 -44q43 0 84.5 11.5t82.5 38.5t71.5 67t49.5 102t19 139v25q-183 -8 -284 -25.5t-152 -54.5q-59 -45 -59 -133z" />
<glyph unicode="b" horiz-adv-x="1251" d="M193 0v1614h184v-713h2q46 92 134.5 148.5t205.5 56.5q71 0 133 -17.5t118.5 -58.5t96 -103.5t63 -157t23.5 -214.5q0 -143 -35 -256t-96 -183t-140.5 -106.5t-172.5 -36.5q-119 0 -205.5 56.5t-132.5 142.5h-4v-172h-174zM371 500q0 -167 80.5 -274t228.5 -107 q287 0 287 436q0 403 -289 403q-141 0 -224 -100.5t-83 -243.5v-114z" />
<glyph unicode="c" horiz-adv-x="1097" d="M96 535q0 252 130.5 411.5t353.5 159.5q84 0 156 -20t131.5 -60.5t96.5 -110t44 -161.5h-181q-10 90 -72.5 150.5t-172.5 60.5q-143 0 -220 -114t-77 -308q0 -424 293 -424q59 0 105.5 16.5t74.5 41.5t47 58t27 61t10 56h172q-20 -182 -139 -279.5t-300 -97.5 q-230 0 -354.5 150t-124.5 410z" />
<glyph unicode="d" horiz-adv-x="1251" d="M96 532q0 272 128 423t337 151q114 0 194 -54.5t115 -136.5h4v699h185v-1614h-176v178h-6q-47 -88 -135 -146.5t-205 -58.5q-71 0 -134 18t-120 59.5t-98 104.5t-65 159.5t-24 217.5zM285 541q0 -422 286 -422q140 0 224 98.5t84 249.5v115q0 170 -81.5 273t-211.5 103 q-151 0 -226 -110t-75 -307z" />
<glyph unicode="e" horiz-adv-x="1126" d="M96 535q0 161 55 289t166 205t261 77q117 0 206 -42.5t141 -117t77.5 -165.5t25.5 -197v-95h-743q9 -176 84 -275t221 -99q198 0 246 168h178q-30 -141 -144.5 -225.5t-285.5 -84.5q-121 0 -215 42.5t-153 118.5t-89.5 177.5t-30.5 223.5zM287 635h553v12 q-3 145 -67 232.5t-198 87.5q-125 0 -197.5 -89t-90.5 -243z" />
<glyph unicode="f" horiz-adv-x="733" d="M39 938v141h197v242q0 159 84 229t243 70q60 0 115 -10v-152q-40 8 -100 8q-83 0 -120.5 -37t-37.5 -131v-219h258v-141h-258v-938h-184v938h-197z" />
<glyph unicode="g" horiz-adv-x="1247" d="M96 555q0 261 125 406t330 145q121 0 203 -56.5t120 -140.5h5v170h176v-1052q0 -219 -131.5 -327t-360.5 -108q-81 0 -152.5 16t-134.5 49.5t-103.5 93.5t-49.5 140h178q16 -73 78 -112t188 -39q159 0 233 70t74 243v160h-2q-44 -85 -136 -142t-208 -57 q-70 0 -131.5 17.5t-117.5 58.5t-96 102t-63.5 154t-23.5 209zM285 555q0 -93 14.5 -163.5t47.5 -125.5t91.5 -83.5t141.5 -28.5q129 0 214 97.5t85 237.5v109q0 162 -84.5 262.5t-223.5 100.5q-142 0 -214 -108.5t-72 -297.5z" />
<glyph unicode="h" horiz-adv-x="1245" d="M193 0v1614h184v-713h4q39 86 127 145.5t211 59.5q344 0 344 -354v-752h-184v668q0 53 -1.5 81.5t-10.5 68t-27 63.5q-52 71 -170 71q-145 0 -219 -83.5t-74 -221.5v-647h-184z" />
<glyph unicode="i" horiz-adv-x="571" d="M188 1325v199h195v-199h-195zM193 0v1079h186v-1079h-186z" />
<glyph unicode="j" horiz-adv-x="571" d="M-43 -238q41 -12 94 -12q72 0 107 35.5t35 118.5v1175h186v-1190q0 -78 -24 -136.5t-67 -93t-98 -51t-122 -16.5q-57 0 -111 15v155zM188 1325v199h195v-199h-195z" />
<glyph unicode="k" horiz-adv-x="1142" d="M193 0v1614h184v-1055l450 520h215l-360 -405l405 -674h-215l-315 532l-180 -202v-330h-184z" />
<glyph unicode="l" horiz-adv-x="567" d="M193 0v1614h184v-1614h-184z" />
<glyph unicode="m" horiz-adv-x="1923" d="M193 0v1079h174v-182h4q39 89 131 149t215 60q126 0 211 -56.5t114 -166.5h5q33 91 129 157t223 66q161 0 251.5 -85t90.5 -269v-752h-185v668q0 55 -1 82t-10 67.5t-27 65.5q-50 69 -168 69q-145 0 -218 -83t-73 -222v-647h-185v668q0 55 -1 81.5t-10 66.5t-27 65 q-52 71 -168 71q-145 0 -218 -82.5t-73 -218.5v-651h-184z" />
<glyph unicode="n" horiz-adv-x="1245" d="M193 0v1079h174v-182h4q41 89 133 149t215 60q344 0 344 -354v-752h-184v666q0 53 -1.5 82t-10.5 69t-27 64q-52 71 -170 71q-145 0 -219 -83.5t-74 -221.5v-647h-184z" />
<glyph unicode="o" horiz-adv-x="1161" d="M96 541q0 253 131.5 409t354.5 156q157 0 267 -72.5t162 -197.5t52 -295q0 -257 -130 -412.5t-355 -155.5q-232 0 -357 154t-125 414zM287 541q0 -424 297 -424q288 0 288 424t-292 424q-145 0 -219 -111.5t-74 -312.5z" />
<glyph unicode="p" horiz-adv-x="1251" d="M193 -385v1464h178v-180h4q51 92 139 149.5t205 57.5q71 0 133 -17.5t118.5 -58.5t96 -103.5t63 -157t23.5 -214.5q0 -143 -35 -256t-96.5 -183t-141.5 -106.5t-173 -36.5q-113 0 -203 54.5t-123 130.5h-4v-543h-184zM371 500q0 -167 80.5 -274t228.5 -107q287 0 287 436 q0 403 -289 403q-138 0 -222.5 -101t-84.5 -243v-114z" />
<glyph unicode="q" horiz-adv-x="1251" d="M96 532q0 272 128 423t337 151q115 0 196.5 -54.5t116.5 -136.5h5v164h180v-1464h-185v549h-6q-43 -80 -129 -135.5t-202 -55.5q-90 0 -166 29t-139.5 92t-99.5 174.5t-36 263.5zM285 541q0 -422 286 -422q140 0 224 98.5t84 249.5v115q0 170 -81.5 273t-211.5 103 q-149 0 -225 -110.5t-76 -306.5z" />
<glyph unicode="r" horiz-adv-x="800" d="M193 0v1079h174v-202h4q39 90 134 156.5t208 66.5h18v-193h-35q-148 0 -233.5 -82.5t-85.5 -236.5v-588h-184z" />
<glyph unicode="s" horiz-adv-x="1030" d="M90 305h180q3 -35 15.5 -65.5t38.5 -60.5t75 -47t117 -17q111 0 175.5 49t64.5 133q0 70 -33 105t-137 53l-166 24q-150 24 -222.5 93t-72.5 206q0 145 105 236.5t286 91.5q173 0 272 -77.5t113 -219.5h-176q-8 73 -64.5 115.5t-150.5 42.5t-152.5 -49t-58.5 -125 q0 -65 39.5 -99.5t122.5 -48.5l166 -24q167 -26 237 -99.5t70 -214.5q0 -159 -116 -246.5t-306 -87.5q-178 0 -295 83.5t-127 248.5z" />
<glyph unicode="t" horiz-adv-x="743" d="M41 938v135h33q76 0 112 18t51 68t15 156v78h168v-314h266v-141h-266v-637q0 -86 38 -123t126 -37q24 0 53.5 2.5t46.5 5.5l18 3v-156q-76 -12 -170 -12q-154 0 -224 72t-70 214v668h-197z" />
<glyph unicode="u" horiz-adv-x="1245" d="M188 328v751h183v-663q0 -53 1.5 -83t10.5 -71t27 -65q54 -72 165 -72q295 0 295 371v583h185v-1079h-176v184h-5q-40 -90 -128.5 -150.5t-210.5 -60.5q-163 0 -255 86t-92 269z" />
<glyph unicode="v" horiz-adv-x="1044" d="M47 1079h189l233 -694q14 -39 27 -81.5t20 -65.5l6 -23h4q23 82 54 170l239 694h176l-374 -1079h-195z" />
<glyph unicode="w" horiz-adv-x="1701" d="M55 1079h189l209 -727l34 -137h5q20 72 40 135l230 729h188l228 -729l39 -135h4q16 72 34 135l213 729h179l-334 -1079h-195l-196 635l-68 229h-2q-37 -131 -68 -229l-198 -635h-195z" />
<glyph unicode="x" horiz-adv-x="1038" d="M39 0l369 557l-342 522h217l235 -377h4l242 377h201l-340 -512l374 -567h-219l-268 422h-6l-266 -422h-201z" />
<glyph unicode="y" horiz-adv-x="1064" d="M78 1079h184l225 -676l54 -167h6q18 66 53 170l221 673h185l-394 -1147q-35 -100 -65 -159t-75 -103t-104 -61t-147 -17q-47 0 -110 13v151q44 -10 94 -10q100 0 146 42t83 155l21 57z" />
<glyph unicode="z" horiz-adv-x="1058" d="M106 0v162l629 768h-600v149h813v-159l-633 -768h648v-152h-857z" />
<glyph unicode="{" horiz-adv-x="722" d="M55 598v152h49q88 0 123 35t35 120v412q0 167 96 236t314 69v-127q-83 0 -131.5 -11t-74.5 -40.5t-34 -69t-8 -108.5v-338q0 -46 -5.5 -82.5t-21 -73.5t-47.5 -61.5t-80 -32.5v-8q48 -8 80 -32.5t47.5 -61.5t21 -73.5t5.5 -82.5v-338q0 -69 8 -108.5t34 -69t74.5 -40.5 t131.5 -11v-127q-218 0 -314 69t-96 236v411q0 86 -35 121t-123 35h-49z" />
<glyph unicode="|" horiz-adv-x="591" d="M221 -266v1880h150v-1880h-150z" />
<glyph unicode="}" horiz-adv-x="722" d="M51 -147q83 0 131.5 11t74.5 40.5t34 69t8 108.5v338q0 46 5.5 82.5t21 73.5t47.5 61.5t80 32.5v8q-48 8 -80 32.5t-47.5 61.5t-21 73.5t-5.5 82.5v338q0 69 -8 108.5t-34 69t-74.5 40.5t-131.5 11v127q218 0 314 -69t96 -236v-412q0 -86 34.5 -120.5t122.5 -34.5h50 v-152h-50q-88 0 -122.5 -35t-34.5 -121v-411q0 -167 -96 -236t-314 -69v127z" />
<glyph unicode="~" horiz-adv-x="825" d="M41 598q0 114 60 195t163 81q46 0 95 -19t82.5 -42t70 -42t59.5 -19q36 0 59 31t27 96h127q0 -114 -60 -195.5t-163 -81.5q-46 0 -94 19t-81.5 41.5t-70.5 41.5t-63 19q-34 0 -57 -30.5t-27 -94.5h-127z" />
<glyph unicode="&#xa1;" horiz-adv-x="573" d="M166 1128v242h242v-242h-242zM182 -244l25 1129h162l22 -1129h-209z" />
<glyph unicode="&#xa2;" horiz-adv-x="1097" d="M96 535q0 231 111 386t303 181v198h127v-196q74 -6 136.5 -29.5t114 -64.5t83 -106.5t37.5 -149.5h-181q-8 77 -56.5 136t-133.5 75v-846q55 10 96.5 37t63 63t32 68.5t13.5 64.5h172q-18 -166 -119 -261.5t-258 -110.5v-218h-127v218q-199 22 -306.5 168.5t-107.5 386.5 zM281 543q0 -374 229 -422v840q-111 -29 -170 -139.5t-59 -278.5z" />
<glyph unicode="&#xa3;" horiz-adv-x="1284" d="M131 647v146h164l-23 71q-41 138 -34.5 247t46.5 190t107 134t146 79t165 26q214 0 337.5 -119t123.5 -338h-188q0 46 -7.5 88t-27 82t-48.5 69t-75.5 46.5t-105.5 17.5q-61 0 -111 -15.5t-90 -52.5t-61 -93.5t-18.5 -144t32.5 -197.5l24 -90h455v-146h-416 q37 -144 15.5 -252t-117.5 -198l-31 -29v-4h768v-164h-1007v141l71 60q116 97 138 184t-25 262h-207z" />
<glyph unicode="&#xa4;" horiz-adv-x="1292" d="M166 342l168 166q-58 89 -58 203q0 106 54 196l-162 162l117 117l159 -162q90 55 199 55q114 0 205 -59l168 172l112 -113l-172 -170q56 -91 56 -198q0 -111 -56 -199l166 -164l-116 -117l-164 166q-86 -53 -199 -53t-199 53l-165 -168zM416 711q0 -107 63.5 -176.5 t163.5 -69.5q102 0 165.5 69.5t63.5 176.5t-63.5 177t-165.5 70q-100 0 -163.5 -70t-63.5 -177z" />
<glyph unicode="&#xa5;" horiz-adv-x="1230" d="M45 1518h217l352 -605h4l369 605h199l-424 -676h348v-142h-403v-190h407v-141h-407v-369h-181v369h-409v141h409v190h-413v142h352z" />
<glyph unicode="&#xa6;" horiz-adv-x="591" d="M221 -266v897h150v-897h-150zM221 793v821h150v-821h-150z" />
<glyph unicode="&#xa7;" horiz-adv-x="1220" d="M119 721q0 102 59 173t154 110v4q-76 79 -76 211q0 142 106 231.5t277 89.5q174 0 269 -89.5t104 -244.5h-181q-8 90 -52.5 141.5t-143.5 51.5q-97 0 -147 -48.5t-50 -121.5q0 -71 33.5 -112.5t97.5 -72.5l254 -124q155 -78 217 -158t62 -191q0 -189 -197 -280v-4 q72 -72 72 -199q0 -150 -105 -235.5t-299 -85.5q-188 0 -291.5 98t-111.5 268h184q13 -111 64 -166t160 -55q217 0 217 166q0 69 -31.5 104t-118.5 78l-246 123q-72 36 -118.5 66.5t-86 70.5t-57.5 89.5t-18 111.5zM301 750q0 -68 35 -112.5t100 -76.5l258 -129 q68 -35 97 -53q127 45 127 182q0 60 -33 103t-111 81l-237 119q-46 22 -91 49q-145 -41 -145 -163z" />
<glyph unicode="&#xa8;" horiz-adv-x="755" d="M82 1323v203h188v-203h-188zM483 1323v203h189v-203h-189z" />
<glyph unicode="&#xa9;" horiz-adv-x="1841" d="M113 778q0 227 104.5 413t289.5 293t413 107t413.5 -107t290.5 -293t105 -413t-105 -412.5t-290.5 -292t-413.5 -106.5t-413 106.5t-289.5 292t-104.5 412.5zM246 778q0 -194 87 -353t242 -250t345 -91t345 91t242.5 250t87.5 353t-87.5 353.5t-242.5 251.5t-345 92 t-345 -92t-242 -251.5t-87 -353.5zM543 780q0 192 104 313t283 121q141 0 237.5 -67t106.5 -203h-154q-7 67 -56 113.5t-134 46.5q-111 0 -171.5 -86.5t-60.5 -231.5q0 -319 230 -319q56 0 98 18t63.5 47t31.5 56.5t12 54.5h143q-15 -138 -109.5 -213.5t-240.5 -75.5 q-185 0 -284 114t-99 312z" />
<glyph unicode="&#xaa;" horiz-adv-x="952" d="M86 889q0 150 131 217q116 61 414 70v38q0 107 -41.5 155t-128.5 48q-83 0 -125 -40.5t-45 -100.5h-160q3 120 91.5 191t242.5 71q172 0 251 -77.5t79 -250.5v-338q0 -51 16.5 -72.5t60.5 -21.5v-131h-24q-101 0 -149 35.5t-60 114.5h-2q-34 -73 -107 -115.5t-170 -42.5 q-129 0 -201.5 66t-72.5 184zM256 899q0 -65 38 -99t105 -34q92 0 162 68t70 206v21q-140 -6 -216 -19t-112 -41q-47 -36 -47 -102z" />
<glyph unicode="&#xab;" horiz-adv-x="1114" d="M125 535l231 415h172l-213 -422l217 -411h-174zM547 535l231 415h172l-213 -422l215 -411h-172z" />
<glyph unicode="&#xac;" horiz-adv-x="1290" d="M174 651v162h948v-553h-166v391h-782z" />
<glyph unicode="&#xad;" horiz-adv-x="815" d="M123 588v166h569v-166h-569z" />
<glyph unicode="&#xae;" horiz-adv-x="1050" d="M82 1141q0 190 126 319t316 129q191 0 318 -129t127 -319t-127 -318.5t-318 -128.5q-190 0 -316 128.5t-126 318.5zM172 1141q0 -159 100 -264t252 -105t253.5 105.5t101.5 263.5t-101.5 264t-253.5 106t-252 -105.5t-100 -264.5zM360 926v460h189q67 0 112.5 -33 t45.5 -100q0 -106 -99 -129l105 -198h-107l-94 184h-57v-184h-95zM455 1184h75q78 0 78 69q0 30 -20 47t-56 17h-77v-133z" />
<glyph unicode="&#xaf;" horiz-adv-x="755" d="M78 1323v150h598v-150h-598z" />
<glyph unicode="&#xb0;" horiz-adv-x="911" d="M121 1217q0 143 95 239t239 96q145 0 240.5 -96t95.5 -239t-95 -238.5t-241 -95.5q-144 0 -239 95.5t-95 238.5zM248 1217q0 -97 57.5 -160.5t149.5 -63.5q93 0 151 63t58 161t-58 161.5t-151 63.5q-91 0 -149 -63.5t-58 -161.5z" />
<glyph unicode="&#xb1;" horiz-adv-x="1296" d="M176 0v158h942v-158h-942zM176 715v157h387v392h166v-392h389v-157h-389v-393h-166v393h-387z" />
<glyph unicode="&#xb2;" horiz-adv-x="825" d="M61 786v103l318 295q90 80 128 131t38 110q0 61 -41 97.5t-111 36.5q-72 0 -119 -42t-47 -135h-157q1 138 90 217.5t237 79.5q155 0 232.5 -70t77.5 -175q0 -89 -45.5 -156t-165.5 -170l-215 -193v-2h442v-127h-662z" />
<glyph unicode="&#xb3;" horiz-adv-x="845" d="M82 1038h158q10 -73 60.5 -111t123.5 -38q74 0 125 40.5t51 102.5q0 67 -46.5 104.5t-129.5 37.5h-86v118h80q66 0 110.5 38.5t44.5 96.5q0 60 -43.5 96t-111.5 36q-158 0 -164 -148h-156q0 53 20 100t58 85t101.5 60.5t144.5 22.5q143 0 225 -66t82 -169q0 -68 -43 -121 t-115 -78v-4q81 -19 132 -73t51 -144q0 -107 -90 -181.5t-246 -74.5q-163 0 -246 77t-90 193z" />
<glyph unicode="&#xb4;" horiz-adv-x="755" d="M240 1282l108 332h207l-178 -332h-137z" />
<glyph unicode="&#xb6;" horiz-adv-x="1255" d="M147 1196q0 126 56.5 211t147.5 122.5t212 37.5h152v-1567h-162v821q-186 5 -296 100t-110 275zM881 0v1567h161v-1567h-161z" />
<glyph unicode="&#xb7;" horiz-adv-x="487" d="M119 518v250h250v-250h-250z" />
<glyph unicode="&#xb8;" horiz-adv-x="1097" d="M371 -299h116q10 -45 62 -45q65 0 65 74q0 73 -65 73q-34 0 -55 -24h-111l127 266h90l-88 -180h4q26 22 74 22q67 0 106 -41.5t39 -113.5q0 -69 -49 -117.5t-141 -48.5q-163 0 -174 135z" />
<glyph unicode="&#xb9;" horiz-adv-x="579" d="M61 1403v102h23q88 0 135 41q42 39 45 123h131v-883h-151v617h-183z" />
<glyph unicode="&#xba;" horiz-adv-x="962" d="M86 1085q0 205 106 329t289 124q191 0 293.5 -122t102.5 -331q0 -205 -107.5 -328.5t-290.5 -123.5q-189 0 -291 122t-102 330zM258 1085q0 -327 225 -327q112 0 167 85.5t55 241.5q0 330 -226 330q-110 0 -165.5 -87.5t-55.5 -242.5z" />
<glyph unicode="&#xbb;" horiz-adv-x="1114" d="M162 950h174l231 -415l-229 -418h-174l215 422zM584 950h172l233 -415l-231 -418h-172l213 422z" />
<glyph unicode="&#xbc;" horiz-adv-x="1687" d="M61 1300v103h23q88 0 135 41q42 39 45 123h131v-883h-151v616h-183zM141 -82l1121 1681h159l-1120 -1681h-160zM889 203v112l420 566h178v-555h119v-123h-119v-203h-150v203h-448zM1044 324h299v407h-6q-18 -39 -57 -92z" />
<glyph unicode="&#xbd;" horiz-adv-x="1798" d="M61 1300v103h23q88 0 135 41q42 39 45 123h131v-883h-151v616h-183zM141 -82l1121 1681h159l-1120 -1681h-160zM1034 0v102l318 295q90 79 128 131t38 111q0 60 -41 96.5t-111 36.5q-72 0 -119 -41.5t-47 -134.5h-158q1 138 90.5 217.5t237.5 79.5q155 0 232 -70t77 -176 q0 -89 -45.5 -155.5t-165.5 -169.5l-215 -193v-2h443v-127h-662z" />
<glyph unicode="&#xbe;" horiz-adv-x="1861" d="M82 936h158q10 -73 60.5 -111.5t123.5 -38.5q74 0 125 41t51 103q0 67 -46.5 104t-129.5 37h-86v119h80q66 0 110.5 38.5t44.5 96.5q0 60 -43.5 95.5t-111.5 35.5q-158 0 -164 -147h-156q0 53 20 100t58 85t101.5 60.5t144.5 22.5q142 0 224.5 -66.5t82.5 -169.5 q0 -68 -43 -120.5t-115 -77.5v-4q81 -19 132 -73t51 -144q0 -107 -90 -181.5t-246 -74.5q-163 0 -246 77t-90 193zM354 -82l1121 1681h159l-1120 -1681h-160zM1063 203v112l420 566h178v-555h119v-123h-119v-203h-150v203h-448zM1219 324h299v407h-7q-18 -39 -57 -92z" />
<glyph unicode="&#xbf;" horiz-adv-x="1095" d="M72 145q0 62 13.5 117t32 93.5t52 78.5t59 64t66.5 59l76 66q10 9 31 27.5t27 24t19 19.5t16 22t9 22.5t7 30t1 36.5v100h168v-131q0 -48 -6.5 -80t-24.5 -59t-39.5 -47.5t-61.5 -54.5q-15 -12 -23 -19l-101 -86q-71 -58 -105 -120.5t-34 -145.5q0 -117 75.5 -190.5 t200.5 -73.5q153 0 237 95.5t81 272.5h174q7 -237 -128 -382.5t-359 -145.5q-94 0 -171.5 23.5t-131 62.5t-90 91.5t-53.5 110.5t-17 119zM446 1128v242h242v-242h-242z" />
<glyph unicode="&#xc0;" horiz-adv-x="1507" d="M82 0l557 1567h225l563 -1567h-202l-164 467h-627l-162 -467h-190zM487 621h521l-197 561q-15 42 -30 90.5t-23 75.5l-8 28h-5q-1 -3 -10.5 -33t-24 -76.5t-28.5 -84.5zM487 1966h215l123 -272h-145z" />
<glyph unicode="&#xc1;" horiz-adv-x="1507" d="M82 0l557 1567h225l563 -1567h-202l-164 467h-627l-162 -467h-190zM487 621h521l-197 561q-15 42 -30 90.5t-23 75.5l-8 28h-5q-1 -3 -10.5 -33t-24 -76.5t-28.5 -84.5zM680 1694l123 272h215l-193 -272h-145z" />
<glyph unicode="&#xc2;" horiz-adv-x="1507" d="M82 0l557 1567h225l563 -1567h-202l-164 467h-627l-162 -467h-190zM446 1694l220 272h192l219 -272h-170l-153 155h-2l-154 -155h-152zM487 621h521l-197 561q-15 42 -30 90.5t-23 75.5l-8 28h-5q-1 -3 -10.5 -33t-24 -76.5t-28.5 -84.5z" />
<glyph unicode="&#xc3;" horiz-adv-x="1507" d="M82 0l557 1567h225l563 -1567h-202l-164 467h-627l-162 -467h-190zM391 1694q0 115 56.5 195.5t158.5 80.5q46 0 94 -20t80.5 -44.5t68 -44.5t58.5 -20q39 0 64.5 34.5t32.5 98.5h114q0 -115 -56.5 -195.5t-158.5 -80.5q-46 0 -93 20t-79 43.5t-68.5 43.5t-62.5 20 q-37 0 -62 -33.5t-32 -97.5h-115zM487 621h521l-197 561q-15 42 -30 90.5t-23 75.5l-8 28h-5q-1 -3 -10.5 -33t-24 -76.5t-28.5 -84.5z" />
<glyph unicode="&#xc4;" horiz-adv-x="1507" d="M82 0l557 1567h225l563 -1567h-202l-164 467h-627l-162 -467h-190zM432 1683v203h189v-203h-189zM487 621h521l-197 561q-15 42 -30 90.5t-23 75.5l-8 28h-5q-1 -3 -10.5 -33t-24 -76.5t-28.5 -84.5zM874 1683v203h189v-203h-189z" />
<glyph unicode="&#xc5;" horiz-adv-x="1507" d="M82 0l557 1567h225l563 -1567h-202l-164 467h-627l-162 -467h-190zM487 621h521l-197 561q-15 42 -30 90.5t-23 75.5l-8 28h-5q-1 -3 -10.5 -33t-24 -76.5t-28.5 -84.5zM528 1876q0 97 63 158t163 61q105 0 164 -60t59 -159q0 -98 -62 -158.5t-163 -60.5 q-104 0 -164 59.5t-60 159.5zM645 1876q0 -56 29.5 -90.5t79.5 -34.5q47 0 76.5 34.5t29.5 90.5t-29 90.5t-79 34.5q-47 0 -77 -35t-30 -90z" />
<glyph unicode="&#xc6;" horiz-adv-x="2213" d="M68 0l720 1567h1254v-170h-791v-523h725v-165h-725v-539h801v-170h-991v467h-586l-211 -467h-196zM545 621h516v776h-164z" />
<glyph unicode="&#xc7;" horiz-adv-x="1574" d="M139 780q0 188 52 341.5t145 256t222 158t282 55.5q104 0 202 -28.5t184.5 -85t144.5 -154t71 -223.5h-201q-11 63 -39.5 120.5t-76 107t-121.5 79t-164 29.5q-237 0 -367.5 -178.5t-130.5 -477.5q0 -306 130 -480.5t364 -174.5q80 0 146.5 21t112 55.5t78.5 82.5 t50.5 98.5t23.5 106.5h195q-19 -226 -181 -373t-413 -147l-51 -104h4q26 22 73 22q68 0 107 -41.5t39 -113.5q0 -69 -49 -117.5t-142 -48.5q-163 0 -174 135h117q10 -45 62 -45q65 0 65 74q0 73 -65 73q-35 0 -56 -24h-110l92 194q-139 12 -252 68t-196 154.5t-128 247.5 t-45 337z" />
<glyph unicode="&#xc8;" horiz-adv-x="1386" d="M213 0v1567h1001v-170h-811v-523h746v-165h-746v-539h822v-170h-1012zM453 1966h215l123 -272h-146z" />
<glyph unicode="&#xc9;" horiz-adv-x="1386" d="M213 0v1567h1001v-170h-811v-523h746v-165h-746v-539h822v-170h-1012zM649 1694l123 272h215l-192 -272h-146z" />
<glyph unicode="&#xca;" horiz-adv-x="1386" d="M213 0v1567h1001v-170h-811v-523h746v-165h-746v-539h822v-170h-1012zM412 1694l219 272h192l219 -272h-170l-153 155h-2l-154 -155h-151z" />
<glyph unicode="&#xcb;" horiz-adv-x="1386" d="M213 0v1567h1001v-170h-811v-523h746v-165h-746v-539h822v-170h-1012zM403 1683v203h189v-203h-189zM846 1683v203h188v-203h-188z" />
<glyph unicode="&#xcc;" horiz-adv-x="618" d="M41 1966h215l123 -272h-146zM213 0v1567h190v-1567h-190z" />
<glyph unicode="&#xcd;" horiz-adv-x="618" d="M213 0v1567h190v-1567h-190zM233 1694l123 272h215l-192 -272h-146z" />
<glyph unicode="&#xce;" horiz-adv-x="618" d="M0 1694l219 272h193l219 -272h-170l-154 155h-2l-153 -155h-152zM213 0v1567h190v-1567h-190z" />
<glyph unicode="&#xcf;" horiz-adv-x="618" d="M-8 1683v203h188v-203h-188zM213 0v1567h190v-1567h-190zM434 1683v203h189v-203h-189z" />
<glyph unicode="&#xd0;" horiz-adv-x="1619" d="M70 713v159h174v695h481q109 0 205 -18.5t181.5 -56t153 -99.5t117 -145t75.5 -196t26 -249q0 -162 -35.5 -294.5t-100 -226.5t-156 -157.5t-202.5 -94t-241 -30.5h-504v713h-174zM434 164h291q128 0 228 34.5t175.5 108.5t115.5 197.5t40 292.5q0 129 -27 231t-75 171.5 t-117 116t-150 67t-178 20.5h-303v-531h445v-159h-445v-549z" />
<glyph unicode="&#xd1;" horiz-adv-x="1628" d="M213 0v1567h244l696 -1166q24 -38 44 -76.5t28 -57.5l8 -19h6v1319h180v-1567h-243l-695 1163q-27 45 -47.5 83t-27.5 54l-7 15h-4v-1315h-182zM451 1694q0 115 56.5 195.5t158.5 80.5q46 0 94 -20t80.5 -44.5t68 -44.5t58.5 -20q38 0 63.5 34.5t32.5 98.5h115 q0 -115 -56.5 -195.5t-158.5 -80.5q-46 0 -93 20t-79.5 43.5t-69 43.5t-62.5 20q-37 0 -62 -33.5t-32 -97.5h-114z" />
<glyph unicode="&#xd2;" d="M139 778q0 164 37 299.5t102 229t154 158t191.5 94.5t216.5 30q116 0 219.5 -30t193.5 -94.5t154.5 -158.5t101.5 -229t37 -299t-36.5 -298.5t-101.5 -228.5t-154.5 -159t-193 -95t-220.5 -30q-147 0 -272.5 49t-222 146t-151.5 254.5t-55 361.5zM340 776 q0 -315 135.5 -485t364.5 -170q227 0 366.5 173t139.5 482q0 316 -137.5 489t-368.5 173q-227 0 -363.5 -170t-136.5 -492zM571 1966h215l123 -272h-145z" />
<glyph unicode="&#xd3;" d="M139 778q0 164 37 299.5t102 229t154 158t191.5 94.5t216.5 30q116 0 219.5 -30t193.5 -94.5t154.5 -158.5t101.5 -229t37 -299t-36.5 -298.5t-101.5 -228.5t-154.5 -159t-193 -95t-220.5 -30q-147 0 -272.5 49t-222 146t-151.5 254.5t-55 361.5zM340 776 q0 -315 135.5 -485t364.5 -170q227 0 366.5 173t139.5 482q0 316 -137.5 489t-368.5 173q-227 0 -363.5 -170t-136.5 -492zM758 1694l123 272h215l-193 -272h-145z" />
<glyph unicode="&#xd4;" d="M139 778q0 164 37 299.5t102 229t154 158t191.5 94.5t216.5 30q116 0 219.5 -30t193.5 -94.5t154.5 -158.5t101.5 -229t37 -299t-36.5 -298.5t-101.5 -228.5t-154.5 -159t-193 -95t-220.5 -30q-147 0 -272.5 49t-222 146t-151.5 254.5t-55 361.5zM340 776 q0 -315 135.5 -485t364.5 -170q227 0 366.5 173t139.5 482q0 316 -137.5 489t-368.5 173q-227 0 -363.5 -170t-136.5 -492zM526 1694l219 272h193l219 -272h-170l-153 155h-3l-153 -155h-152z" />
<glyph unicode="&#xd5;" d="M139 778q0 164 37 299.5t102 229t154 158t191.5 94.5t216.5 30q116 0 219.5 -30t193.5 -94.5t154.5 -158.5t101.5 -229t37 -299t-36.5 -298.5t-101.5 -228.5t-154.5 -159t-193 -95t-220.5 -30q-147 0 -272.5 49t-222 146t-151.5 254.5t-55 361.5zM340 776 q0 -315 135.5 -485t364.5 -170q227 0 366.5 173t139.5 482q0 316 -137.5 489t-368.5 173q-227 0 -363.5 -170t-136.5 -492zM479 1694q0 115 56.5 195.5t158.5 80.5q46 0 94 -20t80.5 -44.5t68 -44.5t58.5 -20q39 0 64.5 34.5t32.5 98.5h114q0 -115 -56.5 -195.5 t-158.5 -80.5q-46 0 -93 20t-79 43.5t-68.5 43.5t-62.5 20q-37 0 -62 -33.5t-32 -97.5h-115z" />
<glyph unicode="&#xd6;" d="M139 778q0 164 37 299.5t102 229t154 158t191.5 94.5t216.5 30q116 0 219.5 -30t193.5 -94.5t154.5 -158.5t101.5 -229t37 -299t-36.5 -298.5t-101.5 -228.5t-154.5 -159t-193 -95t-220.5 -30q-147 0 -272.5 49t-222 146t-151.5 254.5t-55 361.5zM340 776 q0 -315 135.5 -485t364.5 -170q227 0 366.5 173t139.5 482q0 316 -137.5 489t-368.5 173q-227 0 -363.5 -170t-136.5 -492zM522 1683v203h189v-203h-189zM965 1683v203h188v-203h-188z" />
<glyph unicode="&#xd7;" horiz-adv-x="1292" d="M184 362l351 347l-349 344l117 116l346 -348l346 353l113 -113l-352 -348l350 -346l-117 -117l-346 350l-346 -350z" />
<glyph unicode="&#xd8;" d="M78 -51l215 278q-154 210 -154 551q0 164 37 299.5t102 229t154 158t191.5 94.5t216.5 30q236 0 409 -121l121 156h178l-192 -250q190 -216 190 -596q0 -164 -36.5 -298.5t-101.5 -228.5t-154.5 -159t-193 -95t-220.5 -30q-269 0 -451 154l-133 -172h-178zM340 776 q0 -242 72 -395l737 956q-122 101 -309 101q-227 0 -363.5 -170t-136.5 -492zM494 256q126 -135 346 -135q227 0 366.5 173t139.5 482q0 283 -103 453z" />
<glyph unicode="&#xd9;" horiz-adv-x="1564" d="M188 522v1045h191v-901q0 -70 2 -113.5t8.5 -105t24 -108.5t45.5 -81q107 -133 327 -133q224 0 328 133q26 33 42.5 76.5t22.5 103.5t7.5 98.5t1.5 109.5v20v901h188v-1045q0 -144 -42.5 -251.5t-122 -173t-186.5 -97t-243 -31.5q-137 0 -244 31t-186.5 96t-121.5 172.5 t-42 253.5zM516 1966h215l123 -272h-145z" />
<glyph unicode="&#xda;" horiz-adv-x="1564" d="M188 522v1045h191v-901q0 -70 2 -113.5t8.5 -105t24 -108.5t45.5 -81q107 -133 327 -133q224 0 328 133q26 33 42.5 76.5t22.5 103.5t7.5 98.5t1.5 109.5v20v901h188v-1045q0 -144 -42.5 -251.5t-122 -173t-186.5 -97t-243 -31.5q-137 0 -244 31t-186.5 96t-121.5 172.5 t-42 253.5zM709 1694l122 272h216l-193 -272h-145z" />
<glyph unicode="&#xdb;" horiz-adv-x="1564" d="M188 522v1045h191v-901q0 -70 2 -113.5t8.5 -105t24 -108.5t45.5 -81q107 -133 327 -133q224 0 328 133q26 33 42.5 76.5t22.5 103.5t7.5 98.5t1.5 109.5v20v901h188v-1045q0 -144 -42.5 -251.5t-122 -173t-186.5 -97t-243 -31.5q-137 0 -244 31t-186.5 96t-121.5 172.5 t-42 253.5zM475 1694l219 272h193l219 -272h-170l-154 155h-2l-153 -155h-152z" />
<glyph unicode="&#xdc;" horiz-adv-x="1564" d="M188 522v1045h191v-901q0 -70 2 -113.5t8.5 -105t24 -108.5t45.5 -81q107 -133 327 -133q224 0 328 133q26 33 42.5 76.5t22.5 103.5t7.5 98.5t1.5 109.5v20v901h188v-1045q0 -144 -42.5 -251.5t-122 -173t-186.5 -97t-243 -31.5q-137 0 -244 31t-186.5 96t-121.5 172.5 t-42 253.5zM461 1683v203h188v-203h-188zM903 1683v203h189v-203h-189z" />
<glyph unicode="&#xdd;" horiz-adv-x="1337" d="M23 1567h221l424 -723h4l440 723h203l-551 -885v-682h-189v670zM594 1694l123 272h215l-193 -272h-145z" />
<glyph unicode="&#xde;" horiz-adv-x="1308" d="M213 0v1567h190v-328h302q112 0 204.5 -26t163.5 -78.5t110.5 -138t39.5 -197.5q0 -219 -146.5 -333t-388.5 -114h-285v-352h-190zM403 506h297q326 6 326 293q0 153 -83 219.5t-249 66.5h-291v-579z" />
<glyph unicode="&#xdf;" horiz-adv-x="1243" d="M193 0v1157q0 115 33.5 203.5t93.5 141.5t137.5 79.5t169.5 26.5q199 0 318.5 -103.5t119.5 -290.5q0 -129 -60 -219.5t-169 -128.5v-4q141 -28 225 -126.5t84 -274.5q0 -219 -137.5 -340t-374.5 -121h-76v158h80q147 0 234 75.5t87 227.5q0 143 -84 227t-237 84h-45v158 h41q115 0 180.5 71.5t65.5 198.5q0 124 -69 190t-183 66q-112 0 -181 -73.5t-69 -235.5v-1147h-184z" />
<glyph unicode="&#xe0;" horiz-adv-x="1132" d="M94 291q0 192 162 272q81 42 205.5 62t316.5 26v47q0 144 -54.5 207.5t-170.5 63.5q-111 0 -165.5 -53.5t-59.5 -131.5h-176q3 146 110 234t297 88q205 0 302 -94t97 -307v-441q0 -67 20.5 -94.5t78.5 -28.5v-149h-23q-125 0 -179.5 44.5t-68.5 145.5h-4 q-43 -95 -134.5 -147.5t-211.5 -52.5q-161 0 -251.5 82t-90.5 227zM283 301q0 -82 49.5 -126t138.5 -44q43 0 84.5 11.5t82.5 38.5t71.5 67t49.5 102t19 139v25q-183 -8 -284 -25.5t-152 -54.5q-59 -45 -59 -133zM305 1614h207l109 -332h-136z" />
<glyph unicode="&#xe1;" horiz-adv-x="1132" d="M94 291q0 192 162 272q81 42 205.5 62t316.5 26v47q0 144 -54.5 207.5t-170.5 63.5q-111 0 -165.5 -53.5t-59.5 -131.5h-176q3 146 110 234t297 88q205 0 302 -94t97 -307v-441q0 -67 20.5 -94.5t78.5 -28.5v-149h-23q-125 0 -179.5 44.5t-68.5 145.5h-4 q-43 -95 -134.5 -147.5t-211.5 -52.5q-161 0 -251.5 82t-90.5 227zM283 301q0 -82 49.5 -126t138.5 -44q43 0 84.5 11.5t82.5 38.5t71.5 67t49.5 102t19 139v25q-183 -8 -284 -25.5t-152 -54.5q-59 -45 -59 -133zM489 1282l109 332h207l-178 -332h-138z" />
<glyph unicode="&#xe2;" horiz-adv-x="1132" d="M94 291q0 192 162 272q81 42 205.5 62t316.5 26v47q0 144 -54.5 207.5t-170.5 63.5q-111 0 -165.5 -53.5t-59.5 -131.5h-176q3 146 110 234t297 88q205 0 302 -94t97 -307v-441q0 -67 20.5 -94.5t78.5 -28.5v-149h-23q-125 0 -179.5 44.5t-68.5 145.5h-4 q-43 -95 -134.5 -147.5t-211.5 -52.5q-161 0 -251.5 82t-90.5 227zM250 1282l219 332h193l219 -332h-164l-160 207h-2l-160 -207h-145zM283 301q0 -82 49.5 -126t138.5 -44q43 0 84.5 11.5t82.5 38.5t71.5 67t49.5 102t19 139v25q-183 -8 -284 -25.5t-152 -54.5 q-59 -45 -59 -133z" />
<glyph unicode="&#xe3;" horiz-adv-x="1132" d="M94 291q0 192 162 272q81 42 205.5 62t316.5 26v47q0 144 -54.5 207.5t-170.5 63.5q-111 0 -165.5 -53.5t-59.5 -131.5h-176q3 146 110 234t297 88q205 0 302 -94t97 -307v-441q0 -67 20.5 -94.5t78.5 -28.5v-149h-23q-125 0 -179.5 44.5t-68.5 145.5h-4 q-43 -95 -134.5 -147.5t-211.5 -52.5q-161 0 -251.5 82t-90.5 227zM203 1278q0 115 56.5 195.5t158.5 80.5q46 0 94 -20t80.5 -44.5t68 -44.5t58.5 -20q38 0 63.5 35t32.5 99h115q0 -115 -56.5 -196t-158.5 -81q-46 0 -93 20t-79 43.5t-68.5 43.5t-62.5 20 q-37 0 -62.5 -33.5t-32.5 -97.5h-114zM283 301q0 -82 49.5 -126t138.5 -44q43 0 84.5 11.5t82.5 38.5t71.5 67t49.5 102t19 139v25q-183 -8 -284 -25.5t-152 -54.5q-59 -45 -59 -133z" />
<glyph unicode="&#xe4;" horiz-adv-x="1132" d="M94 291q0 192 162 272q81 42 205.5 62t316.5 26v47q0 144 -54.5 207.5t-170.5 63.5q-111 0 -165.5 -53.5t-59.5 -131.5h-176q3 146 110 234t297 88q205 0 302 -94t97 -307v-441q0 -67 20.5 -94.5t78.5 -28.5v-149h-23q-125 0 -179.5 44.5t-68.5 145.5h-4 q-43 -95 -134.5 -147.5t-211.5 -52.5q-161 0 -251.5 82t-90.5 227zM270 1323v203h189v-203h-189zM283 301q0 -82 49.5 -126t138.5 -44q43 0 84.5 11.5t82.5 38.5t71.5 67t49.5 102t19 139v25q-183 -8 -284 -25.5t-152 -54.5q-59 -45 -59 -133zM672 1323v203h188v-203h-188z " />
<glyph unicode="&#xe5;" horiz-adv-x="1132" d="M94 291q0 192 162 272q81 42 205.5 62t316.5 26v47q0 144 -54.5 207.5t-170.5 63.5q-111 0 -165.5 -53.5t-59.5 -131.5h-176q3 146 110 234t297 88q205 0 302 -94t97 -307v-441q0 -67 20.5 -94.5t78.5 -28.5v-149h-23q-125 0 -179.5 44.5t-68.5 145.5h-4 q-43 -95 -134.5 -147.5t-211.5 -52.5q-161 0 -251.5 82t-90.5 227zM283 301q0 -82 49.5 -126t138.5 -44q43 0 84.5 11.5t82.5 38.5t71.5 67t49.5 102t19 139v25q-183 -8 -284 -25.5t-152 -54.5q-59 -45 -59 -133zM352 1497q0 97 63 158t163 61q105 0 164 -60t59 -159 q0 -98 -62.5 -158.5t-163.5 -60.5q-104 0 -163.5 59.5t-59.5 159.5zM469 1497q0 -56 29.5 -90.5t79.5 -34.5q47 0 76.5 34.5t29.5 90.5t-29.5 90.5t-79.5 34.5q-47 0 -76.5 -34.5t-29.5 -90.5z" />
<glyph unicode="&#xe6;" horiz-adv-x="1792" d="M94 291q0 192 162 272q81 42 207.5 59t318.5 17v59q0 271 -229 271q-111 0 -165.5 -53.5t-59.5 -131.5h-176q3 147 110.5 234.5t308.5 87.5q131 0 208 -46.5t118 -135.5h6q105 182 346 182q94 0 170 -29t126.5 -77.5t84.5 -116t49 -142t15 -157.5v-95h-746 q22 -374 307 -374q198 0 246 168h178q-30 -141 -144.5 -225.5t-285.5 -84.5q-156 0 -259 67.5t-144 174.5h-6q-128 -233 -404 -233q-161 0 -251.5 82t-90.5 227zM283 301q0 -82 49.5 -126t138.5 -44q44 0 87 12.5t84 41t72 69.5t49.5 101.5t18.5 133.5v17 q-179 -2 -284 -18.5t-156 -53.5q-59 -45 -59 -133zM950 635h555v12q-3 146 -67 234t-197 88q-128 0 -202.5 -93.5t-88.5 -240.5z" />
<glyph unicode="&#xe7;" horiz-adv-x="1097" d="M96 535q0 252 130.5 411.5t353.5 159.5q84 0 156 -20t131.5 -60.5t96.5 -110t44 -161.5h-181q-10 90 -72.5 150.5t-172.5 60.5q-143 0 -220 -114t-77 -308q0 -424 293 -424q59 0 105.5 16.5t74.5 41.5t47 58t27 61t10 56h172q-20 -177 -132 -274t-284 -103l-53 -110h4 q26 22 74 22q67 0 106 -41.5t39 -113.5q0 -69 -49 -117.5t-141 -48.5q-87 0 -128.5 37.5t-46.5 97.5h117q10 -45 62 -45q65 0 65 74q0 73 -65 73q-35 0 -56 -24h-110l96 201q-200 20 -308 167t-108 388z" />
<glyph unicode="&#xe8;" horiz-adv-x="1126" d="M96 535q0 161 55 289t166 205t261 77q117 0 206 -42.5t141 -117t77.5 -165.5t25.5 -197v-95h-743q9 -176 84 -275t221 -99q198 0 246 168h178q-30 -141 -144.5 -225.5t-285.5 -84.5q-121 0 -215 42.5t-153 118.5t-89.5 177.5t-30.5 223.5zM287 635h553v12 q-3 145 -67 232.5t-198 87.5q-125 0 -197.5 -89t-90.5 -243zM338 1614h207l108 -332h-135z" />
<glyph unicode="&#xe9;" horiz-adv-x="1126" d="M96 535q0 161 55 289t166 205t261 77q117 0 206 -42.5t141 -117t77.5 -165.5t25.5 -197v-95h-743q9 -176 84 -275t221 -99q198 0 246 168h178q-30 -141 -144.5 -225.5t-285.5 -84.5q-121 0 -215 42.5t-153 118.5t-89.5 177.5t-30.5 223.5zM287 635h553v12 q-3 145 -67 232.5t-198 87.5q-125 0 -197.5 -89t-90.5 -243zM510 1282l108 332h207l-178 -332h-137z" />
<glyph unicode="&#xea;" horiz-adv-x="1126" d="M96 535q0 161 55 289t166 205t261 77q117 0 206 -42.5t141 -117t77.5 -165.5t25.5 -197v-95h-743q9 -176 84 -275t221 -99q198 0 246 168h178q-30 -141 -144.5 -225.5t-285.5 -84.5q-121 0 -215 42.5t-153 118.5t-89.5 177.5t-30.5 223.5zM274 1282l220 332h192l219 -332 h-164l-159 207h-2l-160 -207h-146zM287 635h553v12q-3 145 -67 232.5t-198 87.5q-125 0 -197.5 -89t-90.5 -243z" />
<glyph unicode="&#xeb;" horiz-adv-x="1126" d="M96 535q0 161 55 289t166 205t261 77q117 0 206 -42.5t141 -117t77.5 -165.5t25.5 -197v-95h-743q9 -176 84 -275t221 -99q198 0 246 168h178q-30 -141 -144.5 -225.5t-285.5 -84.5q-121 0 -215 42.5t-153 118.5t-89.5 177.5t-30.5 223.5zM287 635h553v12 q-3 145 -67 232.5t-198 87.5q-125 0 -197.5 -89t-90.5 -243zM287 1323v203h188v-203h-188zM688 1323v203h189v-203h-189z" />
<glyph unicode="&#xec;" horiz-adv-x="571" d="M41 1614h207l108 -332h-135zM193 0v1079h186v-1079h-186z" />
<glyph unicode="&#xed;" horiz-adv-x="571" d="M193 0v1079h186v-1079h-186zM213 1282l109 332h206l-178 -332h-137z" />
<glyph unicode="&#xee;" horiz-adv-x="571" d="M2 1282l197 332h174l196 -332h-147l-143 207h-3l-143 -207h-131zM193 0v1079h186v-1079h-186z" />
<glyph unicode="&#xef;" horiz-adv-x="571" d="M20 1323v203h170v-203h-170zM193 0v1079h186v-1079h-186zM381 1323v203h170v-203h-170z" />
<glyph unicode="&#xf0;" horiz-adv-x="1165" d="M96 541q0 250 127.5 406.5t327.5 156.5q147 0 233 -92h4q-71 152 -219 303l-293 -105l-36 109l233 84q-90 78 -205 160l156 59q115 -70 219 -158l231 82l37 -108l-174 -64q326 -340 326 -803q0 -289 -126 -443.5t-359 -154.5q-230 0 -356 154.5t-126 413.5zM287 541 q0 -424 297 -424q288 0 288 424q0 216 -68.5 320t-217.5 104t-224 -111.5t-75 -312.5z" />
<glyph unicode="&#xf1;" horiz-adv-x="1245" d="M193 0v1079h174v-182h4q41 89 133 149t215 60q344 0 344 -354v-752h-184v666q0 53 -1.5 82t-10.5 69t-27 64q-52 71 -170 71q-145 0 -219 -83.5t-74 -221.5v-647h-184zM264 1274q0 115 56.5 195.5t158.5 80.5q46 0 94 -20t80.5 -44.5t68 -44.5t58.5 -20q39 0 64.5 34.5 t32.5 98.5h114q0 -115 -56.5 -195.5t-158.5 -80.5q-46 0 -93 20t-79 43.5t-68.5 43.5t-62.5 20q-37 0 -62 -33.5t-32 -97.5h-115z" />
<glyph unicode="&#xf2;" horiz-adv-x="1161" d="M96 541q0 253 131.5 409t354.5 156q157 0 267 -72.5t162 -197.5t52 -295q0 -257 -130 -412.5t-355 -155.5q-232 0 -357 154t-125 414zM287 541q0 -424 297 -424q288 0 288 424t-292 424q-145 0 -219 -111.5t-74 -312.5zM336 1614h207l108 -332h-135z" />
<glyph unicode="&#xf3;" horiz-adv-x="1161" d="M96 541q0 253 131.5 409t354.5 156q157 0 267 -72.5t162 -197.5t52 -295q0 -257 -130 -412.5t-355 -155.5q-232 0 -357 154t-125 414zM287 541q0 -424 297 -424q288 0 288 424t-292 424q-145 0 -219 -111.5t-74 -312.5zM508 1282l108 332h207l-178 -332h-137z" />
<glyph unicode="&#xf4;" horiz-adv-x="1161" d="M96 541q0 253 131.5 409t354.5 156q157 0 267 -72.5t162 -197.5t52 -295q0 -257 -130 -412.5t-355 -155.5q-232 0 -357 154t-125 414zM272 1282l220 332h192l219 -332h-164l-159 207h-2l-160 -207h-146zM287 541q0 -424 297 -424q288 0 288 424t-292 424 q-145 0 -219 -111.5t-74 -312.5z" />
<glyph unicode="&#xf5;" horiz-adv-x="1161" d="M96 541q0 253 131.5 409t354.5 156q157 0 267 -72.5t162 -197.5t52 -295q0 -257 -130 -412.5t-355 -155.5q-232 0 -357 154t-125 414zM217 1278q0 115 56.5 195.5t158.5 80.5q46 0 94 -20t80.5 -44.5t68 -44.5t58.5 -20q38 0 63.5 35t32.5 99h115q0 -115 -56.5 -196 t-158.5 -81q-46 0 -93 20t-79 43.5t-68.5 43.5t-62.5 20q-37 0 -62 -33.5t-32 -97.5h-115zM287 541q0 -424 297 -424q288 0 288 424t-292 424q-145 0 -219 -111.5t-74 -312.5z" />
<glyph unicode="&#xf6;" horiz-adv-x="1161" d="M96 541q0 253 131.5 409t354.5 156q157 0 267 -72.5t162 -197.5t52 -295q0 -257 -130 -412.5t-355 -155.5q-232 0 -357 154t-125 414zM285 1323v203h188v-203h-188zM287 541q0 -424 297 -424q288 0 288 424t-292 424q-145 0 -219 -111.5t-74 -312.5zM686 1323v203h188 v-203h-188z" />
<glyph unicode="&#xf7;" horiz-adv-x="1296" d="M176 653v158h942v-158h-942zM549 246v198h194v-198h-194zM549 1020v199h194v-199h-194z" />
<glyph unicode="&#xf8;" horiz-adv-x="1161" d="M43 -55l160 205q-107 146 -107 391q0 253 131.5 409t354.5 156q173 0 290 -90l86 110h156l-156 -198q105 -147 105 -387q0 -257 -130 -412.5t-355 -155.5q-175 0 -289 88l-92 -116h-154zM287 541q0 -156 28 -244l465 600q-68 68 -200 68q-145 0 -219 -111.5t-74 -312.5z M381 182q71 -65 203 -65q288 0 288 424q0 148 -26 239z" />
<glyph unicode="&#xf9;" horiz-adv-x="1245" d="M188 328v751h183v-663q0 -53 1.5 -83t10.5 -71t27 -65q54 -72 165 -72q295 0 295 371v583h185v-1079h-176v184h-5q-40 -90 -128.5 -150.5t-210.5 -60.5q-163 0 -255 86t-92 269zM377 1614h207l108 -332h-135z" />
<glyph unicode="&#xfa;" horiz-adv-x="1245" d="M188 328v751h183v-663q0 -53 1.5 -83t10.5 -71t27 -65q54 -72 165 -72q295 0 295 371v583h185v-1079h-176v184h-5q-40 -90 -128.5 -150.5t-210.5 -60.5q-163 0 -255 86t-92 269zM549 1282l108 332h207l-178 -332h-137z" />
<glyph unicode="&#xfb;" horiz-adv-x="1245" d="M188 328v751h183v-663q0 -53 1.5 -83t10.5 -71t27 -65q54 -72 165 -72q295 0 295 371v583h185v-1079h-176v184h-5q-40 -90 -128.5 -150.5t-210.5 -60.5q-163 0 -255 86t-92 269zM313 1282l219 332h193l219 -332h-164l-159 207h-3l-159 -207h-146z" />
<glyph unicode="&#xfc;" horiz-adv-x="1245" d="M188 328v751h183v-663q0 -53 1.5 -83t10.5 -71t27 -65q54 -72 165 -72q295 0 295 371v583h185v-1079h-176v184h-5q-40 -90 -128.5 -150.5t-210.5 -60.5q-163 0 -255 86t-92 269zM326 1323v203h188v-203h-188zM727 1323v203h188v-203h-188z" />
<glyph unicode="&#xfd;" horiz-adv-x="1064" d="M78 1079h184l225 -676l54 -167h6q18 66 53 170l221 673h185l-394 -1147q-35 -100 -65 -159t-75 -103t-104 -61t-147 -17q-47 0 -110 13v151q44 -10 94 -10q100 0 146 42t83 155l21 57zM469 1282l109 332h206l-178 -332h-137z" />
<glyph unicode="&#xfe;" horiz-adv-x="1251" d="M193 -385v1999h184v-713h2q46 92 134.5 148.5t205.5 56.5q71 0 133 -17.5t118.5 -58.5t96 -103.5t63 -157t23.5 -214.5q0 -143 -35 -256t-96 -183t-140.5 -106.5t-172.5 -36.5q-115 0 -205 54.5t-123 130.5h-4v-543h-184zM371 500q0 -167 80.5 -274t228.5 -107 q287 0 287 436q0 403 -289 403q-141 0 -224 -100.5t-83 -243.5v-114z" />
<glyph unicode="&#xff;" horiz-adv-x="1064" d="M78 1079h184l225 -676l54 -167h6q18 66 53 170l221 673h185l-394 -1147q-35 -100 -65 -159t-75 -103t-104 -61t-147 -17q-47 0 -110 13v151q44 -10 94 -10q100 0 146 42t83 155l21 57zM246 1323v203h188v-203h-188zM647 1323v203h189v-203h-189z" />
<glyph unicode="&#x152;" horiz-adv-x="2476" d="M139 778q0 164 37 299.5t101.5 229t153.5 158t191 94.5t216 30q344 0 483 -235h2v213h981v-170h-791v-523h725v-165h-725v-539h801v-170h-991v203h-2q-153 -236 -483 -236q-147 0 -272 49t-221.5 146t-151 254.5t-54.5 361.5zM340 776q0 -315 133.5 -485t362.5 -170 q248 0 367.5 150.5t119.5 420.5v191q0 259 -124.5 407t-362.5 148q-227 0 -361.5 -170t-134.5 -492z" />
<glyph unicode="&#x153;" horiz-adv-x="1904" d="M96 541q0 253 131.5 409t354.5 156q292 0 391 -252q108 252 383 252q117 0 206 -42.5t141 -117t77.5 -165.5t25.5 -197v-95h-743q9 -176 84 -275t221 -99q198 0 246 168h178q-30 -141 -144.5 -225.5t-285.5 -84.5q-296 0 -395 250q-109 -250 -389 -250q-232 0 -357 154 t-125 414zM287 541q0 -424 297 -424q288 0 288 424t-292 424q-145 0 -219 -111.5t-74 -312.5zM1065 635h553v12q-3 146 -67 233t-197 87q-125 0 -198 -89t-91 -243z" />
<glyph unicode="&#x178;" horiz-adv-x="1337" d="M23 1567h221l424 -723h4l440 723h203l-551 -885v-682h-189v670zM352 1683v203h189v-203h-189zM795 1683v203h188v-203h-188z" />
<glyph unicode="&#x2c6;" horiz-adv-x="755" d="M63 1282l220 332h192l219 -332h-164l-159 207h-2l-160 -207h-146z" />
<glyph unicode="&#x2dc;" horiz-adv-x="755" d="M14 1278q0 115 56.5 195.5t158.5 80.5q46 0 94 -20t80.5 -44.5t68 -44.5t58.5 -20q38 0 64 35t33 99h114q0 -115 -56.5 -196t-158.5 -81q-46 0 -93 20t-79 43.5t-68.5 43.5t-62.5 20q-37 0 -62 -33.5t-32 -97.5h-115z" />
<glyph unicode="&#x2000;" horiz-adv-x="1047" />
<glyph unicode="&#x2001;" horiz-adv-x="2095" />
<glyph unicode="&#x2002;" horiz-adv-x="1047" />
<glyph unicode="&#x2003;" horiz-adv-x="2095" />
<glyph unicode="&#x2004;" horiz-adv-x="698" />
<glyph unicode="&#x2005;" horiz-adv-x="523" />
<glyph unicode="&#x2006;" horiz-adv-x="349" />
<glyph unicode="&#x2007;" horiz-adv-x="349" />
<glyph unicode="&#x2008;" horiz-adv-x="261" />
<glyph unicode="&#x2009;" horiz-adv-x="419" />
<glyph unicode="&#x200a;" horiz-adv-x="116" />
<glyph unicode="&#x2010;" horiz-adv-x="815" d="M123 588v166h569v-166h-569z" />
<glyph unicode="&#x2011;" horiz-adv-x="815" d="M123 588v166h569v-166h-569z" />
<glyph unicode="&#x2012;" horiz-adv-x="815" d="M123 588v166h569v-166h-569z" />
<glyph unicode="&#x2013;" horiz-adv-x="1126" d="M123 598v145h881v-145h-881z" />
<glyph unicode="&#x2014;" horiz-adv-x="1843" d="M123 598v145h1597v-145h-1597z" />
<glyph unicode="&#x2018;" horiz-adv-x="468" d="M61 1116l187 451h131l-90 -451h-228z" />
<glyph unicode="&#x2019;" horiz-adv-x="468" d="M90 1114l90 453h228l-187 -453h-131z" />
<glyph unicode="&#x201a;" horiz-adv-x="468" d="M102 -231l91 452h227l-187 -452h-131z" />
<glyph unicode="&#x201c;" horiz-adv-x="808" d="M61 1116l187 451h131l-90 -451h-228zM401 1116l187 451h131l-90 -451h-228z" />
<glyph unicode="&#x201d;" horiz-adv-x="806" d="M90 1114l90 453h228l-187 -453h-131zM428 1114l92 453h225l-184 -453h-133z" />
<glyph unicode="&#x201e;" horiz-adv-x="808" d="M102 -231l91 452h227l-187 -452h-131zM440 -231l92 452h226l-185 -452h-133z" />
<glyph unicode="&#x2022;" horiz-adv-x="671" d="M117 631q0 97 63.5 160t155.5 63q98 0 158.5 -62t60.5 -161t-63.5 -161t-157.5 -62q-96 0 -156.5 61.5t-60.5 161.5z" />
<glyph unicode="&#x2026;" horiz-adv-x="1626" d="M119 0v250h250v-250h-250zM688 0v250h250v-250h-250zM1257 0v250h250v-250h-250z" />
<glyph unicode="&#x202f;" horiz-adv-x="419" />
<glyph unicode="&#x2039;" horiz-adv-x="694" d="M125 535l231 415h172l-213 -422l217 -411h-174z" />
<glyph unicode="&#x203a;" horiz-adv-x="694" d="M162 950h174l231 -415l-229 -418h-174l215 422z" />
<glyph unicode="&#x205f;" horiz-adv-x="523" />
<glyph unicode="&#x20ac;" horiz-adv-x="1363" d="M61 846v145h177q43 273 183.5 411t354.5 138q93 0 177 -29.5t151 -85.5t108.5 -145t47.5 -199h-183q-6 57 -28.5 110.5t-59 98.5t-92 72t-121.5 27q-287 0 -348 -398h475v-145h-489q-2 -29 -2 -92q0 -64 2 -95h493v-145h-479q62 -399 348 -399q142 0 221.5 86t92.5 223 h182q-14 -206 -144 -331.5t-352 -125.5q-463 0 -538 547h-172v145h157q-2 31 -2 95q0 63 2 92h-162z" />
<glyph unicode="&#x2122;" horiz-adv-x="1431" d="M49 1466v101h506v-101h-193v-526h-120v526h-193zM666 940v627h176l127 -365q8 -24 13.5 -47.5t7.5 -34.5l1 -12h6q7 39 25 94l129 365h176v-627h-119v483h-8q-12 -55 -37 -127l-123 -356h-100l-123 354q-11 32 -20 64t-12 48l-3 17h-8v-483h-108z" />
<glyph unicode="&#x25fc;" horiz-adv-x="1075" d="M0 0v1075h1075v-1075h-1075z" />
<glyph unicode="&#xfb01;" horiz-adv-x="1296" d="M39 938v141h188v242q0 159 84.5 229t243.5 70q60 0 115 -10v-152q-40 8 -101 8q-82 0 -119.5 -37t-37.5 -131v-219h250v-141h-250v-938h-185v938h-188zM913 1325v199h195v-199h-195zM918 0v1079h186v-1079h-186z" />
<glyph unicode="&#xfb02;" horiz-adv-x="1292" d="M39 938v141h188v242q0 159 84.5 229t243.5 70q60 0 115 -10v-152q-40 8 -101 8q-82 0 -119.5 -37t-37.5 -131v-219h250v-141h-250v-938h-185v938h-188zM918 0v1614h184v-1614h-184z" />
</font>
</defs>
</svg>
