<?xml version="1.0" standalone="no"?>
<!DOCTYPE svg PUBLIC "-//W3C//DTD SVG 1.1//EN" "http://www.w3.org/Graphics/SVG/1.1/DTD/svg11.dtd" >
<svg xmlns="http://www.w3.org/2000/svg">
<metadata></metadata>
<defs>
<font id="klnt_boldbold" horiz-adv-x="1558" >
<font-face units-per-em="2048" ascent="1663" descent="-385" />
<missing-glyph horiz-adv-x="466" />
<glyph horiz-adv-x="0" />
<glyph horiz-adv-x="682" />
<glyph unicode=" "  horiz-adv-x="466" />
<glyph unicode="&#x09;" horiz-adv-x="466" />
<glyph unicode="&#xa0;" horiz-adv-x="466" />
<glyph unicode="!" horiz-adv-x="675" d="M150 1614h376l-67 -1116h-244zM158 0v311h358v-311h-358z" />
<glyph unicode="&#x22;" horiz-adv-x="985" d="M135 1567h291l-49 -535h-201zM559 1567h291l-51 -535h-199z" />
<glyph unicode="#" horiz-adv-x="1366" d="M111 569v195h249l41 291h-229v194h256l49 318h185l-46 -318h224l49 318h188l-49 -318h229v-194h-256l-40 -291h235v-195h-266l-51 -366h-189l51 366h-225l-53 -366h-184l51 366h-219zM545 764h227l43 291h-227z" />
<glyph unicode="$" horiz-adv-x="1357" d="M70 440h319q23 -185 213 -217v410l-70 12q-211 36 -324.5 140.5t-113.5 304.5q0 178 136.5 300t371.5 140v166h143v-166q234 -18 360 -137t142 -297h-319q-5 72 -50.5 127.5t-132.5 74.5v-391l76 -12q457 -76 457 -426q0 -219 -138 -347t-395 -145v-215h-143v215 q-244 15 -382 134t-150 329zM416 1122q0 -152 186 -190v368q-94 -13 -140 -61.5t-46 -116.5zM745 221h5q103 13 152.5 65.5t49.5 131.5q0 81 -49.5 123t-157.5 65v-385z" />
<glyph unicode="%" horiz-adv-x="1880" d="M113 1151q0 177 103 273t255 96q155 0 259 -96t104 -273q0 -119 -50.5 -204.5t-131.5 -126t-181 -40.5q-156 0 -257 96.5t-101 274.5zM283 -82l1093 1681h234l-1094 -1681h-233zM332 1151q0 -97 36 -147t101 -50q66 0 103.5 50.5t37.5 146.5q0 97 -37.5 148t-103.5 51 t-101.5 -50t-35.5 -149zM1047 356q0 90 28.5 161.5t78 116.5t113.5 68t138 23q155 0 257.5 -95.5t102.5 -273.5q0 -119 -50 -204.5t-130 -125.5t-180 -40q-102 0 -181.5 40.5t-128 125.5t-48.5 204zM1264 356q0 -97 36 -146.5t103 -49.5q65 0 103 50t38 146t-38 147.5 t-103 51.5q-139 0 -139 -199z" />
<glyph unicode="&#x26;" horiz-adv-x="1574" d="M90 422q0 138 78 245.5t248 209.5q-87 91 -123.5 169t-36.5 185q0 165 122 273t333 108q197 0 313.5 -94.5t116.5 -245.5q0 -68 -22.5 -129t-68 -116.5t-98 -101.5t-127.5 -100l240 -262q35 80 106 281h279q-115 -318 -207 -479q70 -78 112 -96.5t136 -18.5v-252h-74 q-118 0 -189.5 31t-154.5 114q-182 -176 -444 -176q-271 0 -405 119.5t-134 335.5zM406 455q0 -118 65 -183t186 -65q143 0 252 112l-352 390l-8 -7q-69 -50 -106 -108t-37 -139zM545 1229q0 -63 29 -117.5t98 -126.5q97 68 145.5 129t48.5 135q0 70 -43 114t-114 44 q-75 0 -119.5 -50t-44.5 -128z" />
<glyph unicode="'" horiz-adv-x="563" d="M135 1567h291l-49 -535h-201z" />
<glyph unicode="(" horiz-adv-x="733" d="M139 674q0 124 21 244t52 213t78 188t87.5 159.5t91.5 135.5h233q-80 -142 -134.5 -269.5t-95 -306.5t-40.5 -364q0 -266 72.5 -491.5t197.5 -448.5h-233q-65 90 -115.5 177t-103 206.5t-82 262t-29.5 294.5z" />
<glyph unicode=")" horiz-adv-x="714" d="M31 -266q125 223 197.5 448.5t72.5 491.5q0 185 -40.5 364t-95 306.5t-134.5 269.5h231q65 -89 116 -176t103.5 -206t81.5 -262t29 -296q0 -152 -29 -294.5t-81 -261.5t-103.5 -207t-116.5 -177h-231z" />
<glyph unicode="*" horiz-adv-x="931" d="M72 1237l75 229l250 -141l4 4l-55 285h240l-54 -287l5 -4l249 139l76 -227l-280 -43v-6l211 -201l-195 -135l-127 260h-8l-127 -256l-195 135l211 199v8z" />
<glyph unicode="+" horiz-adv-x="1296" d="M129 614v238h389v397h256v-397h391v-238h-391v-401h-256v401h-389z" />
<glyph unicode="," horiz-adv-x="589" d="M82 -240l106 566h336l-225 -566h-217z" />
<glyph unicode="-" horiz-adv-x="870" d="M117 522v248h639v-248h-639z" />
<glyph unicode="." horiz-adv-x="595" d="M125 0v326h346v-326h-346z" />
<glyph unicode="/" horiz-adv-x="1171" d="M-29 -266l932 1880h246l-930 -1880h-248z" />
<glyph unicode="0" horiz-adv-x="1437" d="M102 752q0 388 164.5 587t450.5 199q298 0 458 -195.5t160 -590.5q0 -387 -162.5 -585t-455.5 -198q-299 0 -457 195.5t-158 587.5zM459 754q0 -290 65.5 -414.5t192.5 -124.5q123 0 191.5 130t68.5 409q0 281 -70 411.5t-190 130.5q-258 0 -258 -542z" />
<glyph unicode="1" horiz-adv-x="878" d="M53 1040v209h39q143 0 219 64q76 67 76 207h289v-1520h-326v1040h-297z" />
<glyph unicode="2" horiz-adv-x="1308" d="M84 0v188l534 512q136 129 191 214t55 176q0 97 -53 152.5t-145 55.5q-35 0 -66.5 -8.5t-61 -29t-51 -52t-34.5 -81.5t-13 -113h-325q3 246 150 386t411 140q136 0 239.5 -34t165 -94.5t91.5 -136.5t30 -165q0 -82 -19 -149.5t-66.5 -136t-102.5 -126.5t-152 -149 l-309 -287v-2h653v-260h-1122z" />
<glyph unicode="3" horiz-adv-x="1331" d="M92 440h336q12 -108 77.5 -164.5t162.5 -56.5q103 0 169 60.5t66 158.5q0 101 -63 159t-172 58h-136v230h109q98 0 159.5 57.5t61.5 151.5q0 92 -61 146t-148 54q-107 0 -162.5 -58t-60.5 -163h-317q2 71 21 136.5t61.5 126.5t104.5 105.5t155.5 71.5t208.5 27 q249 0 388.5 -115t139.5 -290q0 -124 -67 -214t-189 -130v-5q139 -34 217 -126t78 -242q0 -90 -37 -170.5t-107 -143t-179.5 -99t-245.5 -36.5q-119 0 -215 26t-159 70t-107 105.5t-64.5 128t-24.5 141.5z" />
<glyph unicode="4" horiz-adv-x="1363" d="M72 336v227l651 955h385v-932h184v-250h-184v-336h-320v336h-716zM379 582h416v655h-4q-27 -74 -86 -164z" />
<glyph unicode="5" horiz-adv-x="1318" d="M92 428h318q20 -209 233 -209q107 0 177.5 72.5t70.5 200.5q0 126 -65.5 199t-174.5 73q-160 0 -237 -111h-273l76 865h907v-258h-657l-33 -388h4q45 57 127.5 95.5t184.5 38.5q211 0 341 -133t130 -373q0 -110 -37.5 -205.5t-108 -168.5t-181.5 -115t-249 -42 q-122 0 -217 26.5t-155.5 69.5t-100.5 104t-58 123.5t-22 135.5z" />
<glyph unicode="6" horiz-adv-x="1355" d="M102 686q0 417 165.5 635.5t465.5 218.5q120 0 212 -29t149.5 -82t89.5 -121t41 -151h-303q-37 150 -193 150q-133 0 -209 -127t-82 -379h8q45 92 140.5 143t216.5 51q94 0 177 -31t147.5 -90.5t101.5 -153.5t37 -212q0 -111 -37 -208t-107 -171t-180.5 -117t-247.5 -43 q-104 0 -191.5 24.5t-162.5 79.5t-127 137.5t-81.5 203t-29.5 272.5zM469 487q0 -134 67.5 -203t165.5 -69q96 0 165 69.5t69 202.5q0 126 -65.5 197.5t-168.5 71.5q-106 0 -169.5 -69t-63.5 -200z" />
<glyph unicode="7" horiz-adv-x="1159" d="M47 1257v261h1061v-185l-610 -1333h-334l571 1257h-688z" />
<glyph unicode="8" horiz-adv-x="1347" d="M90 416q0 150 81 241.5t212 124.5v6q-108 37 -175 121.5t-67 214.5q0 185 140.5 300.5t392.5 115.5t392 -115.5t140 -302.5q0 -130 -67 -212.5t-176 -121.5v-6q294 -73 294 -366q0 -192 -162 -320.5t-421 -128.5q-271 0 -427.5 124.5t-156.5 324.5zM418 424 q0 -113 73.5 -174.5t182.5 -61.5q110 0 183 61.5t73 174.5q0 115 -72 174t-184 59t-184 -59t-72 -174zM455 1096q0 -103 62 -159t157 -56q94 0 155.5 56t61.5 159q0 105 -61 161t-156 56q-96 0 -157.5 -55.5t-61.5 -161.5z" />
<glyph unicode="9" horiz-adv-x="1353" d="M88 1018q0 107 39 201.5t111 166t182 113t244 41.5q281 0 434 -185t153 -550q0 -417 -167 -626.5t-461 -209.5q-219 0 -349.5 106.5t-152.5 291.5h301q15 -76 72.5 -117t136.5 -41q275 0 284 502h-6q-45 -83 -133.5 -129.5t-204.5 -46.5q-94 0 -179.5 31.5t-154 90 t-109 152t-40.5 209.5zM420 1028q0 -121 68.5 -189.5t168.5 -68.5q104 0 172 67.5t68 190.5t-72 190.5t-168 67.5q-95 0 -166 -65.5t-71 -192.5z" />
<glyph unicode=":" horiz-adv-x="610" d="M141 0v326h342v-326h-342zM141 754v325h342v-325h-342z" />
<glyph unicode=";" horiz-adv-x="653" d="M86 -240l107 566h335l-225 -566h-217zM190 754v325h345v-325h-345z" />
<glyph unicode="&#x3c;" horiz-adv-x="1296" d="M131 608v148l1016 518v-266l-647 -320l647 -321v-275z" />
<glyph unicode="=" horiz-adv-x="1296" d="M156 399v236h983v-236h-983zM156 819v236h983v-236h-983z" />
<glyph unicode="&#x3e;" horiz-adv-x="1296" d="M150 86v266l647 320l-647 321v273l1015 -516v-146z" />
<glyph unicode="?" horiz-adv-x="1210" d="M66 1083q-5 247 142 397t417 150q134 0 236.5 -33t163.5 -92t91.5 -134.5t30.5 -166.5q0 -132 -51.5 -220.5t-161.5 -180.5l-137 -115q-34 -28 -46 -48.5t-12 -61.5v-89h-280v132q0 97 21.5 140t103.5 109l116 97q67 56 97 103t30 118q0 87 -55 137.5t-154 50.5 q-108 0 -174.5 -69t-66.5 -224h-311zM420 0v311h358v-311h-358z" />
<glyph unicode="@" horiz-adv-x="2066" d="M104 541q0 166 48 316.5t136.5 269.5t207 207t266.5 135t309 47q252 0 454 -100.5t317.5 -284.5t115.5 -418q0 -154 -41 -273t-111 -189t-155.5 -105t-182.5 -35q-120 0 -196 51t-88 147h-6q-108 -194 -318 -194q-151 0 -235 96t-84 268q0 85 20 167t59.5 154.5t94 127.5 t128.5 87t158 32q95 0 158 -43t86 -109h4l23 119h262l-121 -568q-19 -89 11 -136.5t102 -47.5q51 0 97.5 25.5t85.5 76t62 137.5t23 199q0 144 -54.5 270.5t-149.5 217t-231 142.5t-292 52q-165 0 -313.5 -65t-256 -176t-170.5 -267.5t-63 -332.5q0 -177 56.5 -325.5 t156 -249t238 -156.5t299.5 -56q158 0 294.5 47.5t231.5 124.5l90 -92q-254 -213 -631 -213q-192 0 -358 67t-284 186.5t-185.5 291.5t-67.5 375zM815 479q0 -85 34.5 -132.5t102.5 -47.5q74 0 135.5 66t83.5 172l19 90q20 98 -15.5 167.5t-117.5 69.5q-59 0 -107 -36.5 t-76.5 -94.5t-43.5 -123.5t-15 -130.5z" />
<glyph unicode="A" d="M41 0l547 1567h377l555 -1567h-353l-114 348h-576l-115 -348h-321zM557 594h414l-144 455q-19 61 -34 118t-20 84l-5 27h-4q-39 -155 -62 -227z" />
<glyph unicode="B" horiz-adv-x="1490" d="M158 0v1567h651q267 0 404 -100.5t137 -299.5q0 -129 -79.5 -213.5t-193.5 -111.5v-8q152 -25 246 -125.5t94 -251.5q0 -222 -160 -339.5t-434 -117.5h-665zM494 240h305q134 0 204 55.5t70 183.5q0 110 -72.5 164.5t-207.5 54.5h-299v-458zM494 920h274 q115 0 181.5 50.5t66.5 157.5q0 100 -63 152.5t-177 52.5h-282v-413z" />
<glyph unicode="C" horiz-adv-x="1568" d="M102 762q0 388 192 607.5t533 219.5q289 0 461 -145t189 -408h-347q-12 139 -93.5 221t-209.5 82q-163 0 -262.5 -146.5t-99.5 -418.5q0 -266 95.5 -410.5t264.5 -144.5q137 0 215.5 82t92.5 231h342q-12 -256 -184.5 -410.5t-456.5 -154.5q-360 0 -546 208t-186 587z " />
<glyph unicode="D" horiz-adv-x="1576" d="M158 0v1567h534q177 0 318.5 -44.5t247 -135.5t162.5 -239t57 -345q0 -198 -56.5 -351.5t-160 -252t-245 -149t-315.5 -50.5h-542zM494 254h182q105 0 184 28t138.5 90t90.5 168t31 255q0 522 -434 522h-192v-1063z" />
<glyph unicode="E" horiz-adv-x="1327" d="M158 0v1567h1032v-256h-696v-404h659v-250h-659v-403h714v-254h-1050z" />
<glyph unicode="F" horiz-adv-x="1234" d="M158 0v1567h985v-256h-649v-455h612v-252h-612v-604h-336z" />
<glyph unicode="G" horiz-adv-x="1658" d="M102 760q0 188 53.5 343.5t150.5 262t235 165t303 58.5q282 0 447.5 -128.5t193.5 -368.5h-342q-15 115 -95.5 185.5t-203.5 70.5q-184 0 -283.5 -147t-99.5 -425q0 -565 383 -565q160 0 252 92.5t104 261.5l2 29h-371v242h685v-836h-267v213h-8q-59 -112 -174 -179 t-281 -67q-329 0 -506.5 212t-177.5 581z" />
<glyph unicode="H" horiz-adv-x="1622" d="M158 0v1567h336v-654h630v654h340v-1567h-340v651h-630v-651h-336z" />
<glyph unicode="I" horiz-adv-x="651" d="M158 0v1567h336v-1567h-336z" />
<glyph unicode="J" horiz-adv-x="917" d="M68 -6v266h75q77 0 131 12t87 33t51 58t24 78t6 102v1024h332v-1065q0 -143 -38.5 -243t-115.5 -157.5t-179.5 -82.5t-243.5 -25h-129z" />
<glyph unicode="K" horiz-adv-x="1505" d="M158 0v1567h336v-699l571 699h375l-563 -656l587 -911h-385l-430 657l-155 -182v-475h-336z" />
<glyph unicode="L" horiz-adv-x="1249" d="M158 0v1567h336v-1305h675v-262h-1011z" />
<glyph unicode="M" horiz-adv-x="1988" d="M158 0v1567h487l283 -842q20 -58 36 -116t22 -87l7 -28h4q23 100 66 231l280 842h488v-1567h-332v1227h-6q-35 -146 -96 -332l-293 -895h-250l-295 895q-27 84 -50 166.5t-33 122.5l-9 41h-6v-1225h-303z" />
<glyph unicode="N" horiz-adv-x="1615" d="M158 0v1567h370l506 -848q36 -60 64 -118.5t38 -86.5l11 -29h6v1082h307v-1567h-354l-520 864q-37 61 -67 120.5t-41 88.5l-11 29h-6v-1102h-303z" />
<glyph unicode="O" horiz-adv-x="1683" d="M102 778q0 190 54 343.5t151.5 256t234 157t300.5 54.5q347 0 543 -211.5t196 -599.5q0 -383 -199 -597t-540 -214q-353 0 -546.5 211t-193.5 600zM467 778q0 -282 95 -423.5t280 -141.5q181 0 279 144t98 421q0 274 -103 422t-274 148q-181 0 -278 -144.5t-97 -425.5z " />
<glyph unicode="P" horiz-adv-x="1368" d="M158 0v1567h544q131 0 237.5 -29t188.5 -88t127 -158t45 -231q0 -139 -48 -242t-134.5 -163.5t-197 -89.5t-246.5 -29h-180v-537h-336zM494 784h202q132 0 203.5 69t71.5 204q0 140 -69.5 204t-201.5 64h-206v-541z" />
<glyph unicode="Q" horiz-adv-x="1683" d="M102 778q0 385 200.5 598t539.5 213q343 0 541 -213t198 -598q0 -227 -74.5 -398t-208.5 -249v-10q114 -19 183 -70t127 -157l-295 -168q-77 143 -154.5 199.5t-200.5 56.5q-17 0 -55.5 -3.5t-64.5 -3.5q-353 0 -544.5 207.5t-191.5 595.5zM467 774q0 -282 95 -423.5 t280 -141.5q377 0 377 565q0 279 -102 426.5t-275 147.5q-176 0 -275.5 -147t-99.5 -427z" />
<glyph unicode="R" horiz-adv-x="1462" d="M158 0v1567h612q180 0 315 -58q261 -117 261 -403q0 -89 -26 -163t-71.5 -125t-96 -85t-110.5 -57v-4l351 -672h-363l-295 596h-241v-596h-336zM494 836h233q121 0 197.5 60t76.5 191q0 68 -24 118t-64.5 76.5t-85 39t-94.5 12.5h-239v-497z" />
<glyph unicode="S" horiz-adv-x="1431" d="M90 449h350q13 -106 86 -171t199 -65q134 0 203 59.5t69 153.5q0 83 -50.5 128.5t-172.5 68.5l-233 45q-188 37 -296 148.5t-108 293.5q0 212 156.5 345.5t431.5 133.5q144 0 255 -35t178.5 -98t102.5 -142t39 -173h-344q-7 86 -65.5 145.5t-167.5 59.5 q-108 0 -172 -52.5t-64 -136.5q0 -80 48.5 -127t158.5 -67l238 -43q207 -38 310.5 -148t103.5 -285q0 -251 -164 -385.5t-465 -134.5q-289 0 -452 129t-175 353z" />
<glyph unicode="T" horiz-adv-x="1355" d="M47 1303v264h1262v-264h-463v-1303h-336v1303h-463z" />
<glyph unicode="U" d="M141 547v1020h336l-2 -914q0 -72 2.5 -118.5t17.5 -105t42 -93.5q82 -103 243 -103q173 0 252 103q25 33 37.5 88.5t14 95t1.5 112.5v21v914h332v-1020q0 -146 -45.5 -257t-130.5 -181.5t-202 -106t-263 -35.5q-298 0 -466.5 145t-168.5 435z" />
<glyph unicode="V" horiz-adv-x="1519" d="M41 1567h352l322 -1016q21 -68 34.5 -126.5t16.5 -82.5l4 -25h4q8 82 55 232l326 1018h324l-525 -1567h-385z" />
<glyph unicode="W" horiz-adv-x="2185" d="M43 1567h348l217 -891q17 -70 29 -136t15 -97l3 -31h4q11 106 54 262l243 893h308l245 -891q19 -70 34.5 -136t21.5 -97l6 -31h2q10 106 47 262l215 893h307l-413 -1567h-330l-252 926q-19 70 -31.5 132t-15.5 89l-2 27h-4q-9 -90 -50 -246l-249 -928h-336z" />
<glyph unicode="X" horiz-adv-x="1538" d="M51 0l520 809l-483 758h387l301 -500h2l309 500h353l-486 -746l533 -821h-397l-342 561h-5l-342 -561h-350z" />
<glyph unicode="Y" horiz-adv-x="1427" d="M23 1567h370l330 -617h4l334 617h344l-522 -905v-662h-336v655z" />
<glyph unicode="Z" horiz-adv-x="1347" d="M74 0v231l786 1076h-751v260h1146v-232l-784 -1073h797v-262h-1194z" />
<glyph unicode="[" horiz-adv-x="790" d="M199 -266v1880h540v-197h-272v-1487h272v-196h-540z" />
<glyph unicode="\" horiz-adv-x="1171" d="M25 1614h245l930 -1880h-246z" />
<glyph unicode="]" horiz-adv-x="790" d="M51 -70h273v1487h-273v197h541v-1880h-541v196z" />
<glyph unicode="^" horiz-adv-x="921" d="M35 1014l319 600h215l318 -600h-225l-207 354h-2l-207 -354h-211z" />
<glyph unicode="_" horiz-adv-x="798" d="M-4 -186h807v-203h-807v203z" />
<glyph unicode="`" horiz-adv-x="755" d="M139 1614h324l104 -357h-248z" />
<glyph unicode="a" horiz-adv-x="1196" d="M57 313q0 188 166 275q80 42 195 57.5t321 24.5v59q0 184 -161 184q-77 0 -118 -38.5t-44 -102.5h-312q9 165 134 257.5t340 92.5q259 0 368 -106t109 -332v-379q0 -46 18.5 -64t69.5 -18v-225h-109q-123 0 -183 32t-85 120h-4q-111 -162 -332 -162q-173 0 -273 86 t-100 239zM379 328q0 -61 39 -98t106 -37q91 0 154 70t63 200v35q-132 -8 -201.5 -21t-107.5 -39q-53 -36 -53 -110z" />
<glyph unicode="b" horiz-adv-x="1323" d="M139 0v1614h326v-680h4q45 82 131.5 135t202.5 53q98 0 176.5 -32.5t138.5 -99t92.5 -177.5t32.5 -260q0 -277 -124.5 -428.5t-340.5 -151.5q-225 0 -323 179h-4v-152h-312zM461 489q0 -135 57.5 -217t167.5 -82q108 0 166.5 91.5t58.5 267.5q0 350 -227 350 q-100 0 -161.5 -78t-61.5 -213v-119z" />
<glyph unicode="c" horiz-adv-x="1218" d="M78 549q0 267 149 421t406 154q226 0 364 -108.5t144 -310.5h-320q-8 93 -54 147.5t-134 54.5q-61 0 -105.5 -29t-69 -80.5t-35.5 -112t-11 -132.5q0 -356 219 -356q99 0 147 60.5t51 150.5h316q-6 -210 -147.5 -322.5t-366.5 -112.5q-264 0 -408.5 153t-144.5 423z" />
<glyph unicode="d" horiz-adv-x="1329" d="M80 535q0 281 133.5 433t345.5 152q104 0 183 -45t118 -123h4v662h326v-1614h-311v162h-5q-113 -191 -327 -191q-223 0 -345 142t-122 422zM412 545q0 -355 227 -355q109 0 169 77t60 200v131q0 143 -59.5 222t-161.5 79q-111 0 -173 -89t-62 -265z" />
<glyph unicode="e" horiz-adv-x="1230" d="M78 551q0 257 146 415t401 158q109 0 197 -28t149 -78t101.5 -121t59.5 -155.5t19 -182.5v-86h-745q10 -146 65.5 -214.5t159.5 -68.5q88 0 130 35t60 94h320q-25 -161 -162 -254.5t-358 -93.5q-261 0 -402 155.5t-141 424.5zM406 659h413v15q-16 248 -194 248 q-194 0 -219 -263z" />
<glyph unicode="f" horiz-adv-x="759" d="M39 872v226h158v143q0 107 27.5 182.5t81 119.5t123.5 63.5t163 19.5q100 0 160 -12v-228q-21 7 -90 7q-75 0 -111.5 -37t-36.5 -127v-131h215v-226h-215v-872h-317v872h-158z" />
<glyph unicode="g" horiz-adv-x="1323" d="M80 569q0 260 134 405.5t341 145.5q117 0 196 -49t117 -123h4v150h312v-1010q0 -250 -136 -373t-415 -123q-249 0 -377.5 90.5t-140.5 251.5h313q16 -66 62 -97.5t147 -31.5q122 0 178.5 61.5t56.5 205.5v155h-6q-35 -79 -114 -135.5t-205 -56.5q-222 0 -344.5 132.5 t-122.5 401.5zM412 569q0 -327 231 -327q102 0 165.5 73t63.5 185v118q0 132 -62.5 206.5t-166.5 74.5q-105 0 -168 -84.5t-63 -245.5z" />
<glyph unicode="h" horiz-adv-x="1312" d="M139 0v1614h326v-692h4q41 84 129.5 141t214.5 57q195 0 284 -100.5t89 -306.5v-713h-326v643q0 133 -33 180q-46 64 -141 64q-108 0 -164.5 -65.5t-56.5 -186.5v-635h-326z" />
<glyph unicode="i" horiz-adv-x="604" d="M137 1288v295h330v-295h-330zM139 0v1098h326v-1098h-326z" />
<glyph unicode="j" horiz-adv-x="612" d="M-72 -176q20 -10 80 -10q73 0 106 36.5t33 118.5v1129h326v-1131q0 -109 -29 -186.5t-83.5 -120.5t-122.5 -62.5t-156 -19.5q-25 0 -49 1.5t-42 4.5t-30 5.5t-23 4.5l-10 3v227zM145 1288v295h330v-295h-330z" />
<glyph unicode="k" horiz-adv-x="1224" d="M139 0v1614h320v-971l375 455h344l-367 -430l385 -668h-352l-250 449l-135 -164v-285h-320z" />
<glyph unicode="l" horiz-adv-x="604" d="M139 0v1614h326v-1614h-326z" />
<glyph unicode="m" horiz-adv-x="2009" d="M139 0v1098h314v-180h4q48 89 135 145.5t213 56.5q274 0 342 -227h4q24 56 67.5 104.5t122 85.5t172.5 37q191 0 280 -101t89 -306v-713h-326v643q0 69 -6 110.5t-26 69.5q-41 64 -138 64q-102 0 -157 -65.5t-55 -186.5v-635h-326v643q0 133 -33 180q-43 64 -137 64 q-102 0 -157.5 -65.5t-55.5 -184.5v-637h-326z" />
<glyph unicode="n" horiz-adv-x="1312" d="M139 0v1098h314v-180h4q107 202 356 202q195 0 284 -100.5t89 -306.5v-713h-326v641q0 135 -33 182q-46 64 -141 64q-108 0 -164.5 -65.5t-56.5 -186.5v-635h-326z" />
<glyph unicode="o" horiz-adv-x="1267" d="M78 549q0 269 149 422t408 153q254 0 404.5 -153t150.5 -422q0 -266 -153.5 -422t-403.5 -156q-259 0 -407 154.5t-148 423.5zM414 549q0 -359 221 -359q217 0 217 359q0 356 -217 356q-115 0 -168 -96t-53 -260z" />
<glyph unicode="p" horiz-adv-x="1323" d="M139 -385v1483h314v-178h4q44 84 133.5 143t212.5 59q98 0 176.5 -32.5t138.5 -99t92.5 -177.5t32.5 -260q0 -272 -127.5 -426t-343.5 -154q-111 0 -187.5 46.5t-113.5 117.5h-6v-522h-326zM461 489q0 -135 57.5 -217t167.5 -82q108 0 166.5 91.5t58.5 267.5 q0 350 -227 350q-99 0 -161 -78.5t-62 -212.5v-119z" />
<glyph unicode="q" horiz-adv-x="1329" d="M80 535q0 281 133.5 433t345.5 152q104 0 187 -46.5t126 -125.5h5v150h313v-1483h-326v522h-4q-39 -67 -118.5 -116.5t-194.5 -49.5q-224 0 -345.5 140.5t-121.5 423.5zM412 545q0 -355 227 -355q109 0 169 77t60 200v131q0 143 -59.5 222t-161.5 79q-110 0 -172.5 -89 t-62.5 -265z" />
<glyph unicode="r" horiz-adv-x="874" d="M139 0v1098h307v-232h5q44 119 145 184.5t217 65.5h18v-295h-57q-157 0 -234 -63t-77 -215v-543h-324z" />
<glyph unicode="s" horiz-adv-x="1097" d="M66 319h299q3 -63 48 -102t136 -39q80 0 127 31t47 90q0 51 -28.5 77t-102.5 36l-176 24q-322 46 -322 328q0 73 28 137t82.5 114t143 79.5t201.5 29.5q208 0 319.5 -90t122.5 -241h-286q-5 55 -45.5 90t-112.5 35q-73 0 -113.5 -32t-40.5 -83q0 -48 29.5 -75t97.5 -36 l187 -24q317 -43 317 -324q0 -179 -131 -277t-346 -98q-234 0 -352 96t-129 254z" />
<glyph unicode="t" horiz-adv-x="821" d="M43 872v224h37q56 0 85 7t48.5 32.5t25 67.5t5.5 120v84h278v-309h246v-226h-242v-485q0 -84 35 -122t117 -38q17 0 40 2.5t38 4.5l14 2v-238q-129 -12 -217 -12q-169 0 -258.5 80.5t-89.5 259.5v546h-162z" />
<glyph unicode="u" horiz-adv-x="1304" d="M129 367v731h326v-641q0 -132 32 -181q42 -63 140 -63q215 0 215 285v600h325v-1098h-313v178h-4q-102 -198 -344 -198q-196 0 -286.5 95.5t-90.5 291.5z" />
<glyph unicode="v" horiz-adv-x="1169" d="M25 1098h327l176 -555q17 -54 32.5 -115t22.5 -95l7 -34h4q22 123 61 244l176 555h314l-393 -1098h-336z" />
<glyph unicode="w" horiz-adv-x="1761" d="M35 1098h313l146 -553q13 -50 23 -108t14 -91l4 -33h6q22 121 55 230l164 555h264l164 -555q15 -49 28 -106.5t19 -90.5l6 -33h8q18 121 47 230l144 555h284l-317 -1098h-313l-133 436q-18 59 -37 142t-29 136l-10 54h-4q-41 -201 -82 -332l-135 -436h-310z" />
<glyph unicode="x" horiz-adv-x="1167" d="M20 0l373 571l-344 527h350l189 -318h4l176 318h344l-344 -523l379 -575h-356l-218 360h-4l-204 -360h-345z" />
<glyph unicode="y" horiz-adv-x="1169" d="M35 1098h336l180 -578q16 -53 28.5 -106.5t16.5 -81.5l4 -27h6q12 96 47 215l170 578h318l-385 -1133q-35 -101 -72.5 -167t-93 -114.5t-132 -70t-182.5 -21.5q-116 0 -161 15v237q45 -10 110 -10q93 0 140.5 30t70.5 103l8 27z" />
<glyph unicode="z" horiz-adv-x="1114" d="M90 0v213l549 649h-528v236h917v-211l-549 -647h559v-240h-948z" />
<glyph unicode="{" horiz-adv-x="845" d="M86 559v223h61q68 0 95.5 32t27.5 108v313q0 112 30.5 187t98 119.5t162 62.5t234.5 18v-188q-110 0 -167.5 -23t-78.5 -70.5t-21 -136.5v-262q0 -50 -7 -90t-24 -77t-50.5 -62t-81.5 -35v-8q92 -20 127.5 -90.5t35.5 -180.5v-256q0 -89 21 -136t78.5 -70t167.5 -23v-188 q-279 0 -402 81t-123 289v324q0 76 -27.5 107.5t-95.5 31.5h-61z" />
<glyph unicode="|" horiz-adv-x="591" d="M182 -266v1880h221v-1880h-221z" />
<glyph unicode="}" horiz-adv-x="845" d="M51 -86q83 0 134.5 11.5t81.5 40t41 69.5t11 108v265q0 229 164 262v8q-92 20 -128 90t-36 180v256q0 89 -21.5 136.5t-79 70.5t-167.5 23v188q279 0 403 -81.5t124 -289.5v-323q0 -77 26.5 -108.5t95.5 -31.5h62v-223h-62q-69 0 -95.5 -31.5t-26.5 -107.5v-313 q0 -112 -31 -187t-98.5 -119.5t-162.5 -62.5t-235 -18v188z" />
<glyph unicode="~" horiz-adv-x="919" d="M35 520q0 148 64.5 248t185.5 100q55 0 120 -26t120.5 -52t86.5 -26q77 0 82 106h191q0 -71 -13.5 -132t-41.5 -110.5t-74.5 -77.5t-108.5 -28q-54 0 -119 26t-121 52.5t-88 26.5q-73 0 -79 -107h-205z" />
<glyph unicode="&#xa1;" horiz-adv-x="675" d="M150 -233l67 1116h244l65 -1116h-376zM160 1069v311h358v-311h-358z" />
<glyph unicode="&#xa2;" horiz-adv-x="1234" d="M94 549q0 248 128.5 398.5t355.5 172.5v180h139v-178q197 -15 315 -123t125 -294h-303q-14 167 -137 202v-712q72 20 107 78.5t38 134.5h299q-6 -193 -126.5 -304.5t-317.5 -126.5v-215h-139v213q-231 20 -357.5 171t-126.5 403zM408 553q0 -309 170 -356v710 q-89 -29 -129.5 -124.5t-40.5 -229.5z" />
<glyph unicode="&#xa3;" horiz-adv-x="1329" d="M72 618v199h188l-27 80q-62 198 -16 340.5t178 222.5t318 80q257 0 385 -119t125 -338h-328q0 105 -42.5 170.5t-139.5 65.5q-43 0 -78 -12t-63 -41t-42 -72.5t-10 -111t29 -152.5l33 -113h374v-199h-323q15 -105 -15 -186t-118 -156l-17 -14v-4h721v-258h-1087v188 l57 43q45 33 74 60.5t53 62t33 72t7.5 85.5t-17.5 107h-252z" />
<glyph unicode="&#xa4;" horiz-adv-x="1292" d="M102 342l201 197q-39 80 -39 174q0 88 37 170l-199 196l177 176l196 -200q76 39 168 39t172 -41l201 204l176 -176l-207 -200q39 -76 39 -168q0 -95 -39 -168l205 -201l-176 -176l-201 203q-73 -37 -170 -37q-93 0 -168 35l-199 -203zM463 713q0 -86 49.5 -140.5 t130.5 -54.5q82 0 132 54.5t50 140.5t-50 140t-132 54q-81 0 -130.5 -54t-49.5 -140z" />
<glyph unicode="&#xa5;" horiz-adv-x="1339" d="M43 1518h363l276 -496h4l277 496h335l-446 -738h385v-155h-406v-166h410v-156h-410v-303h-319v303h-406v156h406v166h-410v155h385z" />
<glyph unicode="&#xa6;" horiz-adv-x="591" d="M182 -266v854h221v-854h-221zM182 786v828h221v-828h-221z" />
<glyph unicode="&#xa7;" horiz-adv-x="1280" d="M90 696q0 99 53.5 172t153.5 111v2q-100 83 -100 240q0 160 124 256t324 96q223 0 331 -93.5t118 -256.5h-293q-10 141 -154 141q-75 0 -114 -31.5t-39 -83.5q0 -57 31.5 -86t115.5 -65l268 -117q157 -70 220 -148t63 -200q0 -199 -201 -275v-4q99 -82 99 -217 q0 -180 -126 -275t-339 -95q-226 0 -342 94.5t-125 265.5h288q6 -72 52 -112t129 -40q81 0 123.5 31.5t42.5 87.5q0 48 -28 76t-97 59l-293 127q-73 32 -118.5 59t-87 66.5t-60.5 92t-19 122.5zM375 748q0 -54 37.5 -87.5t113.5 -68.5l195 -90q68 -30 80 -37q50 10 77 44.5 t27 82.5t-33 83t-118 73l-199 88q-57 24 -70 34q-54 -11 -82 -44.5t-28 -77.5z" />
<glyph unicode="&#xa8;" horiz-adv-x="755" d="M25 1303v280h278v-280h-278zM451 1303v280h280v-280h-280z" />
<glyph unicode="&#xa9;" horiz-adv-x="1841" d="M113 778q0 227 104.5 413t289.5 293t413 107t413.5 -107t290.5 -293t105 -413t-105 -412.5t-290.5 -292t-413.5 -106.5t-413 106.5t-289.5 292t-104.5 412.5zM246 778q0 -194 87 -353t242 -250t345 -91t345 91t242.5 250t87.5 353t-87.5 353.5t-242.5 251.5t-345 92 t-345 -92t-242 -251.5t-87 -353.5zM506 786q0 203 113.5 321t308.5 118q171 0 276 -83t111 -239h-246q-5 70 -40 113t-101 43q-47 0 -81 -22.5t-53 -61.5t-27.5 -85.5t-8.5 -101.5q0 -270 168 -270q77 0 112.5 45.5t38.5 116.5h240q-3 -108 -55.5 -184.5t-138.5 -113 t-197 -36.5q-201 0 -310.5 116t-109.5 324z" />
<glyph unicode="&#xaa;" horiz-adv-x="1038" d="M84 903q0 148 131 217q63 35 155 48t255 18v43q0 125 -111 125q-50 0 -81 -27t-34 -70h-282q4 131 112 207t277 76q216 0 304.5 -87t88.5 -267v-273q0 -40 15.5 -55.5t50.5 -15.5v-189h-97q-99 0 -151.5 23.5t-77.5 93.5h-4q-38 -59 -105 -93t-155 -34q-131 0 -211 71 t-80 189zM371 924q0 -45 26.5 -70t71.5 -25q71 0 114.5 50t43.5 137v24q-73 -3 -100.5 -4.5t-62 -9t-54.5 -22.5q-39 -26 -39 -80z" />
<glyph unicode="&#xab;" horiz-adv-x="1087" d="M78 535l219 415h238l-199 -422l203 -411h-240zM526 535l219 415h238l-199 -422l201 -411h-237z" />
<glyph unicode="&#xac;" horiz-adv-x="1294" d="M129 614v238h1036v-639h-256v401h-780z" />
<glyph unicode="&#xad;" horiz-adv-x="870" d="M117 522v248h639v-248h-639z" />
<glyph unicode="&#xae;" horiz-adv-x="1050" d="M82 1141q0 190 126 319t316 129q191 0 318 -129t127 -319t-127 -318.5t-318 -128.5q-190 0 -316 128.5t-126 318.5zM172 1141q0 -159 100 -264t252 -105t253.5 105.5t101.5 263.5t-101.5 264t-253.5 106t-252 -105.5t-100 -264.5zM348 926v460h207q67 0 114.5 -34.5 t47.5 -104.5q0 -51 -28 -83t-66 -44l100 -194h-127l-84 176h-49v-176h-115zM463 1184h57q78 0 78 67q0 29 -20.5 44.5t-55.5 15.5h-59v-127z" />
<glyph unicode="&#xaf;" horiz-adv-x="755" d="M27 1303v213h700v-213h-700z" />
<glyph unicode="&#xb0;" horiz-adv-x="911" d="M111 1217q0 148 97.5 247t246.5 99q150 0 248 -99t98 -247t-98 -246.5t-248 -98.5q-149 0 -246.5 98.5t-97.5 246.5zM281 1217q0 -82 48 -134.5t126 -52.5q79 0 127.5 52.5t48.5 134.5q0 83 -48.5 135.5t-127.5 52.5q-77 0 -125.5 -53t-48.5 -135z" />
<glyph unicode="&#xb1;" horiz-adv-x="1296" d="M129 0v236h1036v-236h-1036zM129 756v237h389v344h256v-344h391v-237h-391v-348h-256v348h-389z" />
<glyph unicode="&#xb2;" horiz-adv-x="880" d="M61 786v125l357 310q73 62 101 102t28 86q0 49 -30 78t-81 29q-61 0 -98 -37t-37 -119h-231q3 151 97 236t271 85q176 0 263 -71.5t87 -186.5q0 -93 -49 -161.5t-166 -161.5l-161 -133v-4h383v-177h-734z" />
<glyph unicode="&#xb3;" horiz-adv-x="894" d="M76 1047h237q4 -52 40 -80.5t89 -28.5q61 0 98.5 33t37.5 82q0 51 -35 79.5t-97 28.5h-102v146h84q53 0 89 28.5t36 77.5t-33 77t-84 28q-59 0 -89 -31.5t-32 -79.5h-231q1 41 13 79t40 75t68.5 64t103.5 44t142 17q160 0 250 -68t90 -172q0 -74 -44.5 -126t-130.5 -73 v-4q97 -17 147 -71t50 -140q0 -110 -97.5 -187t-271.5 -77q-80 0 -143.5 16t-104.5 42.5t-68 63.5t-39 75.5t-13 81.5z" />
<glyph unicode="&#xb4;" horiz-adv-x="755" d="M193 1257l104 357h324l-181 -357h-247z" />
<glyph unicode="&#xb6;" horiz-adv-x="1261" d="M98 1169q0 200 124.5 299t330.5 99h182v-1567h-200v766q-200 5 -318.5 107.5t-118.5 295.5zM901 0v1567h203v-1567h-203z" />
<glyph unicode="&#xb7;" horiz-adv-x="595" d="M125 547v325h346v-325h-346z" />
<glyph unicode="&#xb8;" horiz-adv-x="1097" d="M338 -287h158q14 -43 63 -43q66 0 66 66q0 30 -17 46.5t-49 16.5q-35 0 -55 -26h-133l129 288h108l-71 -155h4q29 20 82 20q75 0 123.5 -49.5t48.5 -132.5q0 -80 -61.5 -136.5t-178.5 -56.5q-101 0 -157.5 46.5t-59.5 115.5z" />
<glyph unicode="&#xb9;" horiz-adv-x="624" d="M49 1360v156h29q87 0 135 34q49 36 49 119h215v-883h-235v574h-193z" />
<glyph unicode="&#xba;" horiz-adv-x="1081" d="M90 1085q0 216 120.5 334.5t330.5 118.5q201 0 325.5 -119t124.5 -334q0 -210 -125 -331t-325 -121q-208 0 -329.5 119t-121.5 333zM383 1085q0 -251 158 -251q47 0 79 20t48.5 56.5t23 78.5t6.5 96q0 252 -157 252q-158 0 -158 -252z" />
<glyph unicode="&#xbb;" horiz-adv-x="1101" d="M102 950h240l219 -415l-217 -418h-240l201 422zM563 950h240l219 -415l-217 -418h-240l201 422z" />
<glyph unicode="&#xbc;" horiz-adv-x="1787" d="M49 1257v156h29q86 0 135 35q49 36 49 119h215v-883h-235v573h-193zM152 -82l1120 1681h227l-1120 -1681h-227zM926 184v156l401 543h281v-525h114v-174h-114v-184h-219v184h-463zM1139 348h258v377h-6q-25 -66 -72 -129z" />
<glyph unicode="&#xbd;" horiz-adv-x="1880" d="M49 1257v156h29q86 0 135 35q49 36 49 119h215v-883h-235v573h-193zM150 -82l1120 1681h227l-1120 -1681h-227zM1061 0v125l356 309q73 64 101 103.5t28 85.5q0 49 -29.5 77.5t-80.5 28.5q-61 0 -98.5 -37t-37.5 -119h-231q3 151 97.5 236.5t271.5 85.5q176 0 263 -71.5 t87 -186.5q0 -64 -27 -119.5t-68 -97.5t-120 -107l-162 -133v-4h383v-176h-733z" />
<glyph unicode="&#xbe;" horiz-adv-x="1949" d="M76 944h237q4 -52 40 -80t89 -28q61 0 98.5 32.5t37.5 81.5q0 51 -35 80t-97 29h-102v145h84q53 0 89 29t36 78t-33 76.5t-84 27.5q-59 0 -89 -31t-32 -79h-231q2 52 22 98.5t60.5 88.5t114 66.5t170.5 24.5q160 0 250 -68t90 -172q0 -73 -44.5 -125t-130.5 -73v-4 q97 -17 147 -71t50 -140q0 -110 -97.5 -187t-271.5 -77q-99 0 -172.5 23.5t-114 64.5t-60 88t-21.5 102zM350 -82l1120 1681h228l-1120 -1681h-228zM1087 184v156l402 543h280v-525h115v-174h-115v-184h-219v184h-463zM1300 348h259v377h-7q-24 -66 -71 -129z" />
<glyph unicode="&#xbf;" horiz-adv-x="1210" d="M66 176q0 132 51.5 221.5t161.5 180.5l137 114q34 28 45.5 49t11.5 62v88h281v-131q0 -97 -21.5 -140.5t-103.5 -109.5l-117 -96q-67 -56 -97 -103t-30 -118q0 -87 55 -138t154 -51q109 0 175.5 69t66.5 224h311q5 -247 -142 -397t-417 -150q-134 0 -236.5 33t-163.5 92 t-91.5 134.5t-30.5 166.5zM434 1069v311h359v-311h-359z" />
<glyph unicode="&#xc0;" d="M41 0l547 1567h377l555 -1567h-353l-114 348h-576l-115 -348h-321zM440 1966h326l131 -272h-246zM557 594h414l-144 455q-19 61 -34 118t-20 84l-5 27h-4q-39 -155 -62 -227z" />
<glyph unicode="&#xc1;" d="M41 0l547 1567h377l555 -1567h-353l-114 348h-576l-115 -348h-321zM557 594h414l-144 455q-19 61 -34 118t-20 84l-5 27h-4q-39 -155 -62 -227zM647 1694l131 272h324l-211 -272h-244z" />
<glyph unicode="&#xc2;" d="M41 0l547 1567h377l555 -1567h-353l-114 348h-576l-115 -348h-321zM424 1694l221 272h279l221 -272h-236l-135 114h-2l-131 -114h-217zM557 594h414l-144 455q-19 61 -34 118t-20 84l-5 27h-4q-39 -155 -62 -227z" />
<glyph unicode="&#xc3;" d="M41 0l547 1567h377l555 -1567h-353l-114 348h-576l-115 -348h-321zM389 1677q3 144 59 231t179 87q44 0 89 -16.5t76 -37t66.5 -37t61.5 -16.5q73 0 100 109h145q-7 -318 -237 -318q-43 0 -88.5 16.5t-76 37t-66.5 37t-64 16.5q-30 0 -57 -26t-39 -83h-148zM557 594h414 l-144 455q-19 61 -34 118t-20 84l-5 27h-4q-39 -155 -62 -227z" />
<glyph unicode="&#xc4;" d="M41 0l547 1567h377l555 -1567h-353l-114 348h-576l-115 -348h-321zM420 1696v280h278v-280h-278zM557 594h414l-144 455q-19 61 -34 118t-20 84l-5 27h-4q-39 -155 -62 -227zM860 1696v280h279v-280h-279z" />
<glyph unicode="&#xc5;" d="M41 0l547 1567h377l555 -1567h-353l-114 348h-576l-115 -348h-321zM508 1882q0 113 75 183.5t195 70.5q127 0 198 -69.5t71 -184.5q0 -112 -74.5 -181t-196.5 -69q-125 0 -196.5 68t-71.5 182zM557 594h414l-144 455q-19 61 -34 118t-20 84l-5 27h-4q-39 -155 -62 -227z M668 1882q0 -57 29 -91t81 -34q49 0 78 34.5t29 90.5q0 57 -28.5 91t-80.5 34q-49 0 -78.5 -34.5t-29.5 -90.5z" />
<glyph unicode="&#xc6;" horiz-adv-x="2238" d="M25 0l761 1567h1315v-256h-688v-404h651v-250h-651v-403h707v-254h-1045v375h-528l-174 -375h-348zM659 621h416v690h-96z" />
<glyph unicode="&#xc7;" horiz-adv-x="1568" d="M102 762q0 388 192 607.5t533 219.5q289 0 461 -145t189 -408h-347q-12 139 -93.5 221t-209.5 82q-163 0 -262.5 -146.5t-99.5 -418.5q0 -266 95.5 -410.5t264.5 -144.5q137 0 215.5 82t92.5 231h342q-12 -256 -184.5 -410.5t-456.5 -154.5h-13l-41 -88h4q30 21 82 21 q75 0 123.5 -50t48.5 -133q0 -80 -61 -136t-178 -56q-101 0 -157.5 46.5t-59.5 115.5h157q14 -43 64 -43q65 0 65 65q0 30 -16.5 47t-48.5 17q-35 0 -55 -27h-134l103 227q-304 33 -459.5 237.5t-155.5 551.5z" />
<glyph unicode="&#xc8;" horiz-adv-x="1327" d="M158 0v1567h1032v-256h-696v-404h659v-250h-659v-403h714v-254h-1050zM346 1966h326l131 -272h-246z" />
<glyph unicode="&#xc9;" horiz-adv-x="1327" d="M158 0v1567h1032v-256h-696v-404h659v-250h-659v-403h714v-254h-1050zM555 1694l131 272h324l-211 -272h-244z" />
<glyph unicode="&#xca;" horiz-adv-x="1327" d="M158 0v1567h1032v-256h-696v-404h659v-250h-659v-403h714v-254h-1050zM330 1694l221 272h278l222 -272h-236l-135 114h-2l-131 -114h-217z" />
<glyph unicode="&#xcb;" horiz-adv-x="1327" d="M158 0v1567h1032v-256h-696v-404h659v-250h-659v-403h714v-254h-1050zM324 1696v280h278v-280h-278zM764 1696v280h278v-280h-278z" />
<glyph unicode="&#xcc;" horiz-adv-x="651" d="M-12 1966h325l131 -272h-245zM158 0v1567h336v-1567h-336z" />
<glyph unicode="&#xcd;" horiz-adv-x="651" d="M158 0v1567h336v-1567h-336zM197 1694l131 272h323l-211 -272h-243z" />
<glyph unicode="&#xce;" horiz-adv-x="651" d="M-29 1694l222 272h278l221 -272h-235l-135 114h-3l-131 -114h-217zM158 0v1567h336v-1567h-336z" />
<glyph unicode="&#xcf;" horiz-adv-x="651" d="M-35 1696v280h279v-280h-279zM158 0v1567h336v-1567h-336zM406 1696v280h278v-280h-278z" />
<glyph unicode="&#xd0;" horiz-adv-x="1622" d="M49 674v227h154v666h536q176 0 317 -44.5t246.5 -135.5t162.5 -239t57 -345q0 -198 -56.5 -351.5t-160 -252t-245 -149t-315.5 -50.5h-542v674h-154zM539 254h182q105 0 184 28t138.5 90t90.5 168t31 255q0 522 -434 522h-192v-416h340v-227h-340v-420z" />
<glyph unicode="&#xd1;" horiz-adv-x="1615" d="M158 0v1567h370l506 -848q36 -60 64 -118.5t38 -86.5l11 -29h6v1082h307v-1567h-354l-520 864q-37 61 -67 120.5t-41 88.5l-11 29h-6v-1102h-303zM420 1677q7 318 237 318q44 0 89 -16.5t76 -37t66.5 -37t61.5 -16.5q74 0 101 109h145q-3 -144 -59 -231t-179 -87 q-43 0 -88 16.5t-76 37t-66.5 37t-63.5 16.5q-30 0 -57.5 -26t-39.5 -83h-147z" />
<glyph unicode="&#xd2;" horiz-adv-x="1683" d="M102 778q0 190 54 343.5t151.5 256t234 157t300.5 54.5q347 0 543 -211.5t196 -599.5q0 -383 -199 -597t-540 -214q-353 0 -546.5 211t-193.5 600zM467 778q0 -282 95 -423.5t280 -141.5q181 0 279 144t98 421q0 274 -103 422t-274 148q-181 0 -278 -144.5t-97 -425.5z M504 1966h325l132 -272h-246z" />
<glyph unicode="&#xd3;" horiz-adv-x="1683" d="M102 778q0 190 54 343.5t151.5 256t234 157t300.5 54.5q347 0 543 -211.5t196 -599.5q0 -383 -199 -597t-540 -214q-353 0 -546.5 211t-193.5 600zM467 778q0 -282 95 -423.5t280 -141.5q181 0 279 144t98 421q0 274 -103 422t-274 148q-181 0 -278 -144.5t-97 -425.5z M709 1694l131 272h323l-211 -272h-243z" />
<glyph unicode="&#xd4;" horiz-adv-x="1683" d="M102 778q0 190 54 343.5t151.5 256t234 157t300.5 54.5q347 0 543 -211.5t196 -599.5q0 -383 -199 -597t-540 -214q-353 0 -546.5 211t-193.5 600zM467 778q0 -282 95 -423.5t280 -141.5q181 0 279 144t98 421q0 274 -103 422t-274 148q-181 0 -278 -144.5t-97 -425.5z M485 1694l222 272h278l221 -272h-235l-135 114h-2l-132 -114h-217z" />
<glyph unicode="&#xd5;" horiz-adv-x="1683" d="M102 778q0 190 54 343.5t151.5 256t234 157t300.5 54.5q347 0 543 -211.5t196 -599.5q0 -383 -199 -597t-540 -214q-353 0 -546.5 211t-193.5 600zM453 1677q7 318 237 318q44 0 89 -16.5t76 -37t66.5 -37t61.5 -16.5q73 0 100 109h146q-3 -144 -59 -231t-179 -87 q-43 0 -88.5 16.5t-76 37t-66.5 37t-64 16.5q-30 0 -57 -26t-39 -83h-147zM467 778q0 -282 95 -423.5t280 -141.5q181 0 279 144t98 421q0 274 -103 422t-274 148q-181 0 -278 -144.5t-97 -425.5z" />
<glyph unicode="&#xd6;" horiz-adv-x="1683" d="M102 778q0 190 54 343.5t151.5 256t234 157t300.5 54.5q347 0 543 -211.5t196 -599.5q0 -383 -199 -597t-540 -214q-353 0 -546.5 211t-193.5 600zM467 778q0 -282 95 -423.5t280 -141.5q181 0 279 144t98 421q0 274 -103 422t-274 148q-181 0 -278 -144.5t-97 -425.5z M481 1696v280h279v-280h-279zM922 1696v280h278v-280h-278z" />
<glyph unicode="&#xd7;" horiz-adv-x="1294" d="M129 371l346 340l-344 340l176 178l340 -344l340 344l176 -174l-344 -342l344 -340l-176 -178l-342 346l-340 -346z" />
<glyph unicode="&#xd8;" horiz-adv-x="1683" d="M49 -51l215 268q-162 206 -162 561q0 190 54 343.5t151.5 256t234 157t300.5 54.5q254 0 430 -114l119 149h221l-211 -264q180 -211 180 -582q0 -383 -199 -597t-540 -214q-273 0 -453 129l-119 -147h-221zM459 778q0 -168 28 -280l605 753q-95 101 -250 101 q-185 0 -284 -145t-99 -429zM569 324q93 -117 273 -117q184 0 284.5 146t100.5 425q0 185 -43 312z" />
<glyph unicode="&#xd9;" d="M141 547v1020h336l-2 -914q0 -72 2.5 -118.5t17.5 -105t42 -93.5q82 -103 243 -103q173 0 252 103q25 33 37.5 88.5t14 95t1.5 112.5v21v914h332v-1020q0 -146 -45.5 -257t-130.5 -181.5t-202 -106t-263 -35.5q-298 0 -466.5 145t-168.5 435zM442 1966h326l131 -272h-246 z" />
<glyph unicode="&#xda;" d="M141 547v1020h336l-2 -914q0 -72 2.5 -118.5t17.5 -105t42 -93.5q82 -103 243 -103q173 0 252 103q25 33 37.5 88.5t14 95t1.5 112.5v21v914h332v-1020q0 -146 -45.5 -257t-130.5 -181.5t-202 -106t-263 -35.5q-298 0 -466.5 145t-168.5 435zM649 1694l131 272h324 l-211 -272h-244z" />
<glyph unicode="&#xdb;" d="M141 547v1020h336l-2 -914q0 -72 2.5 -118.5t17.5 -105t42 -93.5q82 -103 243 -103q173 0 252 103q25 33 37.5 88.5t14 95t1.5 112.5v21v914h332v-1020q0 -146 -45.5 -257t-130.5 -181.5t-202 -106t-263 -35.5q-298 0 -466.5 145t-168.5 435zM426 1694l221 272h279 l221 -272h-236l-135 114h-2l-131 -114h-217z" />
<glyph unicode="&#xdc;" d="M141 547v1020h336l-2 -914q0 -72 2.5 -118.5t17.5 -105t42 -93.5q82 -103 243 -103q173 0 252 103q25 33 37.5 88.5t14 95t1.5 112.5v21v914h332v-1020q0 -146 -45.5 -257t-130.5 -181.5t-202 -106t-263 -35.5q-298 0 -466.5 145t-168.5 435zM418 1696v280h278v-280h-278 zM858 1696v280h279v-280h-279z" />
<glyph unicode="&#xdd;" horiz-adv-x="1427" d="M23 1567h370l330 -617h4l334 617h344l-522 -905v-662h-336v655zM598 1694l131 272h324l-211 -272h-244z" />
<glyph unicode="&#xde;" horiz-adv-x="1368" d="M158 0v1567h336v-303h262q120 0 217 -26t171.5 -79.5t115 -143t40.5 -210.5q0 -126 -42 -219t-119.5 -148t-178 -81.5t-227.5 -26.5h-239v-330h-336zM494 565h223q124 3 191 62.5t67 175.5q0 122 -68 176.5t-198 54.5h-215v-469z" />
<glyph unicode="&#xdf;" horiz-adv-x="1329" d="M139 0v1137q0 231 134.5 358t402.5 127q228 0 356.5 -114t128.5 -298q0 -140 -67.5 -226.5t-169.5 -119.5v-6q148 -29 238.5 -130.5t90.5 -268.5q0 -219 -149.5 -339t-417.5 -120h-82v236h66q113 0 179 60t66 181q0 118 -69.5 188t-179.5 70h-33v236h31q90 0 142 56 t52 169q0 109 -53.5 159t-142.5 50q-86 0 -141.5 -58t-55.5 -180v-1167h-326z" />
<glyph unicode="&#xe0;" horiz-adv-x="1196" d="M57 313q0 188 166 275q80 42 195 57.5t321 24.5v59q0 184 -161 184q-77 0 -118 -38.5t-44 -102.5h-312q9 165 134 257.5t340 92.5q259 0 368 -106t109 -332v-379q0 -46 18.5 -64t69.5 -18v-225h-109q-123 0 -183 32t-85 120h-4q-111 -162 -332 -162q-173 0 -273 86 t-100 239zM297 1614h324l104 -357h-248zM379 328q0 -61 39 -98t106 -37q91 0 154 70t63 200v35q-132 -8 -201.5 -21t-107.5 -39q-53 -36 -53 -110z" />
<glyph unicode="&#xe1;" horiz-adv-x="1196" d="M57 313q0 188 166 275q80 42 195 57.5t321 24.5v59q0 184 -161 184q-77 0 -118 -38.5t-44 -102.5h-312q9 165 134 257.5t340 92.5q259 0 368 -106t109 -332v-379q0 -46 18.5 -64t69.5 -18v-225h-109q-123 0 -183 32t-85 120h-4q-111 -162 -332 -162q-173 0 -273 86 t-100 239zM379 328q0 -61 39 -98t106 -37q91 0 154 70t63 200v35q-132 -8 -201.5 -21t-107.5 -39q-53 -36 -53 -110zM453 1257l104 357h324l-181 -357h-247z" />
<glyph unicode="&#xe2;" horiz-adv-x="1196" d="M57 313q0 188 166 275q80 42 195 57.5t321 24.5v59q0 184 -161 184q-77 0 -118 -38.5t-44 -102.5h-312q9 165 134 257.5t340 92.5q259 0 368 -106t109 -332v-379q0 -46 18.5 -64t69.5 -18v-225h-109q-123 0 -183 32t-85 120h-4q-111 -162 -332 -162q-173 0 -273 86 t-100 239zM248 1257l225 357h258l225 -357h-223l-141 158h-2l-135 -158h-207zM379 328q0 -61 39 -98t106 -37q91 0 154 70t63 200v35q-132 -8 -201.5 -21t-107.5 -39q-53 -36 -53 -110z" />
<glyph unicode="&#xe3;" horiz-adv-x="1196" d="M57 313q0 188 166 275q80 42 195 57.5t321 24.5v59q0 184 -161 184q-77 0 -118 -38.5t-44 -102.5h-312q9 165 134 257.5t340 92.5q259 0 368 -106t109 -332v-379q0 -46 18.5 -64t69.5 -18v-225h-109q-123 0 -183 32t-85 120h-4q-111 -162 -332 -162q-173 0 -273 86 t-100 239zM207 1257q0 149 58.5 242.5t183.5 93.5q54 0 108.5 -26t100 -52t77.5 -26q78 0 103 106h145q0 -72 -13 -131.5t-41 -107t-75.5 -73.5t-112.5 -26q-43 0 -86.5 16.5t-73.5 36t-64.5 36t-61.5 16.5q-33 0 -61 -24t-40 -81h-147zM379 328q0 -61 39 -98t106 -37 q91 0 154 70t63 200v35q-132 -8 -201.5 -21t-107.5 -39q-53 -36 -53 -110z" />
<glyph unicode="&#xe4;" horiz-adv-x="1196" d="M57 313q0 188 166 275q80 42 195 57.5t321 24.5v59q0 184 -161 184q-77 0 -118 -38.5t-44 -102.5h-312q9 165 134 257.5t340 92.5q259 0 368 -106t109 -332v-379q0 -46 18.5 -64t69.5 -18v-225h-109q-123 0 -183 32t-85 120h-4q-111 -162 -332 -162q-173 0 -273 86 t-100 239zM242 1303v280h278v-280h-278zM379 328q0 -61 39 -98t106 -37q91 0 154 70t63 200v35q-132 -8 -201.5 -21t-107.5 -39q-53 -36 -53 -110zM668 1303v280h280v-280h-280z" />
<glyph unicode="&#xe5;" horiz-adv-x="1196" d="M57 313q0 188 166 275q80 42 195 57.5t321 24.5v59q0 184 -161 184q-77 0 -118 -38.5t-44 -102.5h-312q9 165 134 257.5t340 92.5q259 0 368 -106t109 -332v-379q0 -46 18.5 -64t69.5 -18v-225h-109q-123 0 -183 32t-85 120h-4q-111 -162 -332 -162q-173 0 -273 86 t-100 239zM330 1485q0 111 75 181.5t195 70.5q126 0 197 -69.5t71 -182.5q0 -114 -74 -183t-196 -69q-125 0 -196.5 68.5t-71.5 183.5zM379 328q0 -61 39 -98t106 -37q91 0 154 70t63 200v35q-132 -8 -201.5 -21t-107.5 -39q-53 -36 -53 -110zM489 1483q0 -56 29.5 -89.5 t81.5 -33.5q49 0 78 33.5t29 89.5q0 58 -28.5 91.5t-80.5 33.5q-50 0 -79.5 -34t-29.5 -91z" />
<glyph unicode="&#xe6;" horiz-adv-x="1873" d="M57 313q0 188 166 275q81 42 200 57.5t316 18.5v65q0 184 -161 184q-78 0 -118.5 -38.5t-43.5 -102.5h-312q9 165 134 257.5t344 92.5q242 0 333 -139h5q115 141 342 141q138 0 242 -43t166 -120.5t92 -178t30 -223.5v-86h-745q10 -148 65.5 -215.5t159.5 -67.5 q155 0 190 129h322q-26 -167 -159 -257.5t-355 -90.5q-317 0 -430 207h-4q-135 -190 -406 -190q-173 0 -273 86t-100 239zM379 328q0 -61 39.5 -98t105.5 -37q92 0 155.5 71.5t63.5 198.5v26q-237 0 -311 -51q-53 -36 -53 -110zM1047 659h415v13q-19 250 -205 250 q-95 0 -147 -68.5t-63 -194.5z" />
<glyph unicode="&#xe7;" horiz-adv-x="1218" d="M78 549q0 267 149 421t406 154q226 0 364 -108.5t144 -310.5h-320q-8 93 -54 147.5t-134 54.5q-61 0 -105.5 -29t-69 -80.5t-35.5 -112t-11 -132.5q0 -356 219 -356q99 0 147 60.5t51 150.5h316q-6 -204 -140.5 -316.5t-351.5 -118.5l-43 -94h4q30 21 82 21 q75 0 123.5 -50t48.5 -133q0 -80 -61 -136t-178 -56q-101 0 -157.5 46.5t-59.5 115.5h157q14 -43 64 -43q65 0 65 65q0 30 -16.5 47t-48.5 17q-35 0 -55 -27h-134l105 231q-226 25 -348.5 174.5t-122.5 397.5z" />
<glyph unicode="&#xe8;" horiz-adv-x="1230" d="M78 551q0 257 146 415t401 158q109 0 197 -28t149 -78t101.5 -121t59.5 -155.5t19 -182.5v-86h-745q10 -146 65.5 -214.5t159.5 -68.5q88 0 130 35t60 94h320q-25 -161 -162 -254.5t-358 -93.5q-261 0 -402 155.5t-141 424.5zM328 1614h323l105 -357h-248zM406 659h413 v15q-16 248 -194 248q-194 0 -219 -263z" />
<glyph unicode="&#xe9;" horiz-adv-x="1230" d="M78 551q0 257 146 415t401 158q109 0 197 -28t149 -78t101.5 -121t59.5 -155.5t19 -182.5v-86h-745q10 -146 65.5 -214.5t159.5 -68.5q88 0 130 35t60 94h320q-25 -161 -162 -254.5t-358 -93.5q-261 0 -402 155.5t-141 424.5zM406 659h413v15q-16 248 -194 248 q-194 0 -219 -263zM479 1257l105 357h323l-180 -357h-248z" />
<glyph unicode="&#xea;" horiz-adv-x="1230" d="M78 551q0 257 146 415t401 158q109 0 197 -28t149 -78t101.5 -121t59.5 -155.5t19 -182.5v-86h-745q10 -146 65.5 -214.5t159.5 -68.5q88 0 130 35t60 94h320q-25 -161 -162 -254.5t-358 -93.5q-261 0 -402 155.5t-141 424.5zM276 1257l226 357h258l225 -357h-223 l-141 158h-3l-135 -158h-207zM406 659h413v15q-16 248 -194 248q-194 0 -219 -263z" />
<glyph unicode="&#xeb;" horiz-adv-x="1230" d="M78 551q0 257 146 415t401 158q109 0 197 -28t149 -78t101.5 -121t59.5 -155.5t19 -182.5v-86h-745q10 -146 65.5 -214.5t159.5 -68.5q88 0 130 35t60 94h320q-25 -161 -162 -254.5t-358 -93.5q-261 0 -402 155.5t-141 424.5zM268 1303v280h279v-280h-279zM406 659h413 v15q-16 248 -194 248q-194 0 -219 -263zM694 1303v280h281v-280h-281z" />
<glyph unicode="&#xec;" horiz-adv-x="604" d="M10 1614h324l104 -357h-248zM139 0v1098h326v-1098h-326z" />
<glyph unicode="&#xed;" horiz-adv-x="604" d="M139 0v1098h326v-1098h-326zM160 1257l104 357h324l-180 -357h-248z" />
<glyph unicode="&#xee;" horiz-adv-x="604" d="M-14 1257l202 357h232l203 -357h-201l-127 158h-2l-121 -158h-186zM139 0v1098h326v-1098h-326z" />
<glyph unicode="&#xef;" horiz-adv-x="604" d="M-14 1303v280h250v-280h-250zM139 0v1098h326v-1098h-326zM369 1303v280h252v-280h-252z" />
<glyph unicode="&#xf0;" horiz-adv-x="1273" d="M78 543q0 259 131 416t342 157q77 0 127 -23t96 -69h4q-62 125 -219 254l-272 -107l-49 129l192 76q-71 50 -217 140l240 112q156 -65 264 -139l221 86l47 -129l-143 -55q344 -312 344 -795q0 -159 -39.5 -279.5t-113.5 -195.5t-175 -112.5t-227 -37.5q-261 0 -407 150 t-146 422zM414 543q0 -353 219 -353q217 0 217 353q0 366 -215 366q-118 0 -169.5 -93.5t-51.5 -272.5z" />
<glyph unicode="&#xf1;" horiz-adv-x="1312" d="M139 0v1098h314v-180h4q107 202 356 202q195 0 284 -100.5t89 -306.5v-713h-326v641q0 135 -33 182q-46 64 -141 64q-108 0 -164.5 -65.5t-56.5 -186.5v-635h-326zM281 1255q0 71 13 129.5t40.5 106t75 74t112.5 26.5q43 0 87 -16.5t74 -35.5t65 -35.5t61 -16.5 q77 0 102 106h146q0 -72 -13 -131.5t-41 -107t-75.5 -73.5t-112.5 -26q-54 0 -108.5 26.5t-100 52.5t-78.5 26t-60.5 -24t-39.5 -81h-147z" />
<glyph unicode="&#xf2;" horiz-adv-x="1267" d="M78 549q0 269 149 422t408 153q254 0 404.5 -153t150.5 -422q0 -266 -153.5 -422t-403.5 -156q-259 0 -407 154.5t-148 423.5zM342 1614h324l104 -357h-248zM414 549q0 -359 221 -359q217 0 217 359q0 356 -217 356q-115 0 -168 -96t-53 -260z" />
<glyph unicode="&#xf3;" horiz-adv-x="1267" d="M78 549q0 269 149 422t408 153q254 0 404.5 -153t150.5 -422q0 -266 -153.5 -422t-403.5 -156q-259 0 -407 154.5t-148 423.5zM414 549q0 -359 221 -359q217 0 217 359q0 356 -217 356q-115 0 -168 -96t-53 -260zM492 1257l104 357h324l-181 -357h-247z" />
<glyph unicode="&#xf4;" horiz-adv-x="1267" d="M78 549q0 269 149 422t408 153q254 0 404.5 -153t150.5 -422q0 -266 -153.5 -422t-403.5 -156q-259 0 -407 154.5t-148 423.5zM289 1257l225 357h258l225 -357h-223l-141 158h-2l-135 -158h-207zM414 549q0 -359 221 -359q217 0 217 359q0 356 -217 356q-115 0 -168 -96 t-53 -260z" />
<glyph unicode="&#xf5;" horiz-adv-x="1267" d="M78 549q0 269 149 422t408 153q254 0 404.5 -153t150.5 -422q0 -266 -153.5 -422t-403.5 -156q-259 0 -407 154.5t-148 423.5zM246 1257q0 71 13 129.5t40.5 106t75 74t112.5 26.5q43 0 87 -16.5t74 -35.5t65 -35.5t61 -16.5q78 0 103 106h145q0 -72 -13 -131.5t-41 -107 t-75.5 -73.5t-112.5 -26q-43 0 -86.5 16.5t-73.5 36t-64.5 36t-61.5 16.5q-78 0 -101 -105h-147zM414 549q0 -359 221 -359q217 0 217 359q0 356 -217 356q-115 0 -168 -96t-53 -260z" />
<glyph unicode="&#xf6;" horiz-adv-x="1267" d="M78 549q0 269 149 422t408 153q254 0 404.5 -153t150.5 -422q0 -266 -153.5 -422t-403.5 -156q-259 0 -407 154.5t-148 423.5zM281 1303v280h278v-280h-278zM414 549q0 -359 221 -359q217 0 217 359q0 356 -217 356q-115 0 -168 -96t-53 -260zM707 1303v280h280v-280 h-280z" />
<glyph unicode="&#xf7;" horiz-adv-x="1296" d="M156 614v238h983v-238h-983zM489 160v295h314v-295h-314zM489 1008v292h314v-292h-314z" />
<glyph unicode="&#xf8;" horiz-adv-x="1267" d="M31 -78l178 221q-131 153 -131 406q0 269 149 422t408 153q178 0 307 -75l100 122h195l-178 -221q131 -150 131 -401q0 -266 -153.5 -422t-403.5 -156q-177 0 -307 76l-103 -125h-192zM403 549q0 -79 13 -152l368 457q-54 57 -149 57q-83 0 -136 -49t-74.5 -127 t-21.5 -186zM483 244q55 -58 152 -58q229 0 229 363q0 74 -10 149z" />
<glyph unicode="&#xf9;" horiz-adv-x="1304" d="M129 367v731h326v-641q0 -132 32 -181q42 -63 140 -63q215 0 215 285v600h325v-1098h-313v178h-4q-102 -198 -344 -198q-196 0 -286.5 95.5t-90.5 291.5zM356 1614h324l104 -357h-247z" />
<glyph unicode="&#xfa;" horiz-adv-x="1304" d="M129 367v731h326v-641q0 -132 32 -181q42 -63 140 -63q215 0 215 285v600h325v-1098h-313v178h-4q-102 -198 -344 -198q-196 0 -286.5 95.5t-90.5 291.5zM506 1257l104 357h324l-180 -357h-248z" />
<glyph unicode="&#xfb;" horiz-adv-x="1304" d="M129 367v731h326v-641q0 -132 32 -181q42 -63 140 -63q215 0 215 285v600h325v-1098h-313v178h-4q-102 -198 -344 -198q-196 0 -286.5 95.5t-90.5 291.5zM303 1257l225 357h258l226 -357h-224l-141 158h-2l-135 -158h-207z" />
<glyph unicode="&#xfc;" horiz-adv-x="1304" d="M129 367v731h326v-641q0 -132 32 -181q42 -63 140 -63q215 0 215 285v600h325v-1098h-313v178h-4q-102 -198 -344 -198q-196 0 -286.5 95.5t-90.5 291.5zM299 1303v280h279v-280h-279zM725 1303v280h281v-280h-281z" />
<glyph unicode="&#xfd;" horiz-adv-x="1169" d="M35 1098h336l180 -578q16 -53 28.5 -106.5t16.5 -81.5l4 -27h6q12 96 47 215l170 578h318l-385 -1133q-35 -101 -72.5 -167t-93 -114.5t-132 -70t-182.5 -21.5q-116 0 -161 15v237q45 -10 110 -10q93 0 140.5 30t70.5 103l8 27zM463 1257l104 357h324l-180 -357h-248z " />
<glyph unicode="&#xfe;" horiz-adv-x="1323" d="M139 -385v1999h326v-680h4q45 82 131.5 135t202.5 53q98 0 176.5 -32.5t138.5 -99t92.5 -177.5t32.5 -260q0 -272 -127.5 -426t-343.5 -154q-111 0 -187.5 46.5t-113.5 117.5h-6v-522h-326zM461 489q0 -135 57.5 -217t167.5 -82q108 0 166.5 91.5t58.5 267.5 q0 350 -227 350q-100 0 -161.5 -78t-61.5 -213v-119z" />
<glyph unicode="&#xff;" horiz-adv-x="1169" d="M35 1098h336l180 -578q16 -53 28.5 -106.5t16.5 -81.5l4 -27h6q12 96 47 215l170 578h318l-385 -1133q-35 -101 -72.5 -167t-93 -114.5t-132 -70t-182.5 -21.5q-116 0 -161 15v237q45 -10 110 -10q93 0 140.5 30t70.5 103l8 27zM252 1303v280h278v-280h-278zM678 1303 v280h280v-280h-280z" />
<glyph unicode="&#x152;" horiz-adv-x="2367" d="M100 778q0 198 54 354.5t150 255.5t221.5 150t273.5 51q130 0 235.5 -48.5t167.5 -147.5h2v174h1026v-256h-688v-404h651v-250h-651v-403h707v-254h-1045v158h-2q-133 -189 -422 -189q-152 0 -276.5 51.5t-214.5 151t-139.5 254t-49.5 352.5zM467 778q0 -278 97 -421.5 t276 -143.5q181 0 272.5 121.5t91.5 329.5v213q0 228 -93 349.5t-267 121.5q-171 0 -274 -141.5t-103 -428.5z" />
<glyph unicode="&#x153;" horiz-adv-x="1990" d="M78 549q0 269 149 422t408 153q250 0 377 -155q123 155 364 155q138 0 242.5 -42.5t167.5 -120t94 -178t31 -224.5v-86h-746q10 -146 66 -214.5t160 -68.5q88 0 130 35t60 94h320q-25 -162 -164.5 -255t-358.5 -93q-250 0 -372 156q-128 -156 -373 -156 q-259 0 -407 154.5t-148 423.5zM414 549q0 -359 221 -359q217 0 217 359q0 356 -217 356q-115 0 -168 -96t-53 -260zM1165 659h414v13q-16 250 -203 250q-186 0 -211 -263z" />
<glyph unicode="&#x178;" horiz-adv-x="1427" d="M23 1567h370l330 -617h4l334 617h344l-522 -905v-662h-336v655zM369 1696v280h278v-280h-278zM809 1696v280h278v-280h-278z" />
<glyph unicode="&#x2c6;" horiz-adv-x="755" d="M25 1257l225 357h258l225 -357h-223l-141 158h-2l-136 -158h-206z" />
<glyph unicode="&#x2dc;" horiz-adv-x="755" d="M-10 1257q0 71 13 129.5t40.5 106t75 74t112.5 26.5q43 0 87 -16.5t74 -35.5t65 -35.5t61 -16.5q78 0 103 106h145q0 -72 -13 -131.5t-41 -107t-75.5 -73.5t-112.5 -26q-43 0 -86.5 16.5t-73.5 36t-64.5 36t-61.5 16.5q-78 0 -101 -105h-147z" />
<glyph unicode="&#x2000;" horiz-adv-x="1068" />
<glyph unicode="&#x2001;" horiz-adv-x="2136" />
<glyph unicode="&#x2002;" horiz-adv-x="1068" />
<glyph unicode="&#x2003;" horiz-adv-x="2136" />
<glyph unicode="&#x2004;" horiz-adv-x="712" />
<glyph unicode="&#x2005;" horiz-adv-x="534" />
<glyph unicode="&#x2006;" horiz-adv-x="356" />
<glyph unicode="&#x2007;" horiz-adv-x="356" />
<glyph unicode="&#x2008;" horiz-adv-x="267" />
<glyph unicode="&#x2009;" horiz-adv-x="427" />
<glyph unicode="&#x200a;" horiz-adv-x="118" />
<glyph unicode="&#x2010;" horiz-adv-x="870" d="M117 522v248h639v-248h-639z" />
<glyph unicode="&#x2011;" horiz-adv-x="870" d="M117 522v248h639v-248h-639z" />
<glyph unicode="&#x2012;" horiz-adv-x="870" d="M117 522v248h639v-248h-639z" />
<glyph unicode="&#x2013;" horiz-adv-x="1073" d="M117 524v232h839v-232h-839z" />
<glyph unicode="&#x2014;" horiz-adv-x="1830" d="M117 528v224h1597v-224h-1597z" />
<glyph unicode="&#x2018;" horiz-adv-x="591" d="M61 1032l246 535h207l-121 -535h-332z" />
<glyph unicode="&#x2019;" horiz-adv-x="591" d="M78 1032l123 535h329l-245 -535h-207z" />
<glyph unicode="&#x201a;" horiz-adv-x="591" d="M82 -231l123 534h332l-248 -534h-207z" />
<glyph unicode="&#x201c;" horiz-adv-x="1015" d="M63 1032l240 535h207l-121 -535h-326zM489 1032l240 535h207l-123 -535h-324z" />
<glyph unicode="&#x201d;" horiz-adv-x="1013" d="M84 1032l123 535h323l-239 -535h-207zM510 1032l123 535h323l-239 -535h-207z" />
<glyph unicode="&#x201e;" horiz-adv-x="1011" d="M82 -231l123 534h323l-239 -534h-207zM508 -231l121 534h325l-239 -534h-207z" />
<glyph unicode="&#x2022;" horiz-adv-x="696" d="M100 631q0 109 72.5 180.5t175.5 71.5q110 0 179 -70.5t69 -181.5q0 -112 -72.5 -182t-177.5 -70q-108 0 -177 69.5t-69 182.5z" />
<glyph unicode="&#x2026;" horiz-adv-x="1843" d="M125 0v326h346v-326h-346zM748 0v326h348v-326h-348zM1372 0v326h346v-326h-346z" />
<glyph unicode="&#x202f;" horiz-adv-x="427" />
<glyph unicode="&#x2039;" horiz-adv-x="641" d="M78 535l219 415h238l-199 -422l203 -411h-240z" />
<glyph unicode="&#x203a;" horiz-adv-x="638" d="M102 950h240l219 -415l-217 -418h-240l201 422z" />
<glyph unicode="&#x205f;" horiz-adv-x="534" />
<glyph unicode="&#x20ac;" horiz-adv-x="1466" d="M55 836v157h166q47 270 202.5 407.5t407.5 137.5q249 0 393 -132.5t156 -346.5h-336q-10 107 -65.5 178.5t-161.5 71.5q-111 0 -176.5 -75.5t-89.5 -240.5h367v-157h-379q-2 -25 -2 -80q0 -59 2 -86h383v-158h-371q24 -165 89 -237t177 -72q110 0 166.5 64.5t67.5 172.5 h323q-8 -209 -154 -340t-407 -131q-508 0 -594 543h-160v158h146q-2 27 -2 82q0 57 2 84h-150z" />
<glyph unicode="&#x2122;" horiz-adv-x="1460" d="M31 1432v135h530v-135h-188v-492h-156v492h-186zM633 940v627h250l102 -322l23 -96h6q6 41 24 96l103 322h245v-627h-153v459h-6q-14 -55 -39 -127l-111 -332h-139l-115 330q-11 32 -20 64.5t-12 48.5l-3 16h-8v-459h-147z" />
<glyph unicode="&#x25fc;" horiz-adv-x="1095" d="M0 0v1096h1096v-1096h-1096z" />
<glyph unicode="&#xfb01;" horiz-adv-x="1361" d="M39 872v226h156v147q0 106 27.5 181.5t80.5 118.5t121 62t158 19q81 0 153 -12v-228q-28 7 -84 7q-70 0 -104.5 -37t-34.5 -127v-131h211v-226h-211v-872h-317v872h-156zM895 1288v295h330v-295h-330zM897 0v1098h326v-1098h-326z" />
<glyph unicode="&#xfb02;" horiz-adv-x="1361" d="M39 872v226h156v147q0 106 27.5 181.5t80.5 118.5t121 62t158 19q81 0 153 -12v-228q-28 7 -84 7q-70 0 -104.5 -37t-34.5 -127v-131h211v-226h-211v-872h-317v872h-156zM897 0v1614h326v-1614h-326z" />
</font>
</defs>
</svg>
