<?xml version="1.0" encoding="utf-8"?>
<!-- Generator: Adobe Illustrator 16.0.0, SVG Export Plug-In . SVG Version: 6.00 Build 0)  -->
<!DOCTYPE svg PUBLIC "-//W3C//DTD SVG 1.1//EN" "http://www.w3.org/Graphics/SVG/1.1/DTD/svg11.dtd">
<svg version="1.1" id="Layer_1" xmlns="http://www.w3.org/2000/svg" xmlns:xlink="http://www.w3.org/1999/xlink" x="0px" y="0px"
	 width="700px" height="300px" viewBox="0 0 700 300" enable-background="new 0 0 700 300" xml:space="preserve">
<g>
	<path d="M291.907,22.525v52.324c0,0.664,0.05,1.211,0.146,1.642c0.104,0.433,0.348,0.813,0.747,1.145
		c0.398,0.332,0.959,0.613,1.691,0.844c0.729,0.234,1.755,0.449,3.083,0.646c0.995,0.199,1.49,0.764,1.49,1.692
		c0,0.2-0.018,0.497-0.05,0.896c-0.034,0.398-0.084,0.729-0.146,0.994c-2.122-0.132-4.396-0.249-6.814-0.348
		c-2.42-0.099-4.56-0.149-6.415-0.149c-1.925,0-4.062,0.05-6.417,0.149c-2.354,0.099-4.593,0.215-6.716,0.348
		c-0.133-0.265-0.215-0.595-0.248-0.994c-0.034-0.398-0.05-0.696-0.05-0.896c0-0.462,0.083-0.846,0.249-1.145
		c0.164-0.298,0.613-0.512,1.343-0.646c2.453-0.332,3.994-0.779,4.626-1.342c0.629-0.564,0.945-1.509,0.945-2.837V22.525h-8.754
		c-1.857,0-3.436,0.183-4.728,0.547c-1.294,0.364-2.422,0.93-3.382,1.692c-0.963,0.762-1.825,1.756-2.587,2.982
		c-0.763,1.229-1.542,2.704-2.338,4.426c-0.267,0.6-0.763,0.897-1.491,0.897c-0.396,0-0.863-0.083-1.392-0.249
		c-0.533-0.165-0.933-0.314-1.195-0.447c0.463-1.594,0.862-3,1.195-4.229c0.33-1.226,0.595-2.437,0.795-3.63
		c0.264-1.525,0.462-2.886,0.597-4.079c0.131-1.193,0.298-2.055,0.497-2.586c0.264-0.599,0.797-0.897,1.592-0.897
		c0.729,0,2.171,0.101,4.328,0.298c2.154,0.2,4.757,0.299,7.812,0.299h30.638c2.982,0,5.554-0.099,7.71-0.299
		c2.15-0.198,3.63-0.298,4.427-0.298c0.729,0,1.259,0.298,1.592,0.897c0.199,0.531,0.348,1.393,0.446,2.586
		c0.101,1.193,0.312,2.554,0.646,4.079c0.199,1.193,0.446,2.404,0.746,3.63c0.299,1.229,0.711,2.635,1.243,4.229
		c-0.333,0.133-0.746,0.282-1.243,0.447c-0.499,0.167-0.942,0.249-1.344,0.249c-0.729,0-1.259-0.297-1.592-0.897
		c-0.795-1.723-1.575-3.197-2.337-4.426c-0.766-1.226-1.626-2.22-2.586-2.982c-0.962-0.763-2.089-1.328-3.382-1.692
		c-1.293-0.364-2.834-0.547-4.625-0.547H291.907z"/>
	<path d="M384.319,74.849c0,0.664,0.05,1.211,0.148,1.642c0.101,0.433,0.361,0.813,0.797,1.145c0.43,0.332,1.06,0.613,1.89,0.844
		c0.829,0.234,1.938,0.449,3.332,0.646c0.662,0.134,0.995,0.696,0.995,1.692c0,0.2-0.018,0.497-0.051,0.896
		c-0.033,0.399-0.084,0.729-0.147,0.994c-2.125-0.132-4.379-0.249-6.766-0.348c-2.388-0.099-4.511-0.149-6.366-0.149
		c-1.925,0-4.097,0.05-6.516,0.149c-2.422,0.099-4.692,0.215-6.813,0.348c-0.136-0.265-0.2-0.595-0.2-0.994c0-0.399,0-0.696,0-0.896
		c0-1.061,0.331-1.624,0.995-1.692c1.395-0.198,2.503-0.413,3.332-0.646c0.829-0.231,1.441-0.513,1.841-0.844
		c0.397-0.332,0.663-0.712,0.8-1.145c0.131-0.43,0.195-0.978,0.195-1.642V51.473h-26.856v23.376c0,0.664,0.048,1.211,0.146,1.642
		c0.102,0.433,0.364,0.813,0.794,1.145c0.434,0.332,1.062,0.613,1.895,0.844c0.827,0.234,1.938,0.449,3.332,0.646
		c0.663,0.134,0.994,0.696,0.994,1.692c0,0.2-0.019,0.497-0.052,0.896c-0.03,0.399-0.084,0.729-0.146,0.994
		c-2.125-0.132-4.412-0.249-6.865-0.348c-2.455-0.099-4.608-0.149-6.465-0.149c-1.858,0-3.979,0.05-6.368,0.149
		c-2.387,0.099-4.643,0.215-6.765,0.348c-0.132-0.265-0.197-0.595-0.197-0.994c0-0.399,0-0.696,0-0.896
		c0-1.061,0.33-1.624,0.994-1.692c1.393-0.198,2.503-0.413,3.333-0.646c0.828-0.231,1.441-0.513,1.84-0.844
		c0.398-0.332,0.662-0.712,0.795-1.145c0.132-0.43,0.199-0.978,0.199-1.642V25.012c0-0.662-0.066-1.209-0.199-1.641
		c-0.133-0.429-0.396-0.812-0.795-1.145c-0.396-0.331-1.012-0.613-1.84-0.846c-0.83-0.23-1.94-0.447-3.333-0.646
		c-0.664-0.199-0.994-0.762-0.994-1.691c0-0.198,0-0.496,0-0.894s0.065-0.763,0.197-1.095c2.123,0.133,4.378,0.249,6.765,0.348
		c2.389,0.099,4.509,0.149,6.368,0.149c1.854,0,4.01-0.05,6.465-0.149c2.453-0.099,4.741-0.215,6.865-0.348
		c0.062,0.332,0.115,0.696,0.146,1.095c0.033,0.398,0.052,0.696,0.052,0.894c0,0.929-0.331,1.493-0.994,1.691
		c-1.396,0.2-2.505,0.417-3.332,0.646c-0.831,0.233-1.46,0.515-1.895,0.846c-0.43,0.333-0.693,0.715-0.794,1.145
		c-0.101,0.432-0.146,0.979-0.146,1.641v21.189h26.856V25.012c0-0.662-0.064-1.209-0.195-1.641c-0.137-0.429-0.399-0.812-0.8-1.145
		c-0.396-0.331-1.012-0.613-1.841-0.846c-0.829-0.23-1.938-0.447-3.332-0.646c-0.664-0.199-0.995-0.762-0.995-1.691
		c0-0.198,0-0.496,0-0.894s0.064-0.763,0.2-1.095c2.121,0.133,4.395,0.249,6.813,0.348s4.591,0.149,6.516,0.149
		c1.855,0,3.979-0.05,6.366-0.149s4.641-0.215,6.766-0.348c0.063,0.332,0.114,0.696,0.147,1.095
		c0.033,0.398,0.051,0.696,0.051,0.894c0,0.929-0.333,1.493-0.995,1.691c-1.394,0.2-2.503,0.417-3.332,0.646
		c-0.83,0.233-1.46,0.515-1.89,0.846c-0.436,0.333-0.696,0.715-0.797,1.145c-0.102,0.432-0.148,0.979-0.148,1.641V74.849z"/>
	<path d="M420.526,22.525v23.974h14.025c1.259,0,2.122-0.514,2.587-1.542c0.463-1.028,0.857-2.703,1.189-5.024
		c0.067-0.529,0.269-0.879,0.601-1.044c0.332-0.166,0.762-0.249,1.294-0.249c0.199,0,0.513,0.017,0.94,0.049
		c0.435,0.034,0.747,0.085,0.946,0.149c-0.133,1.527-0.248,3.299-0.349,5.322c-0.101,2.024-0.149,3.73-0.149,5.123
		c0,1.195,0.032,2.604,0.104,4.229c0.062,1.625,0.195,3.465,0.396,5.521c-0.199,0.133-0.515,0.216-0.946,0.248
		c-0.431,0.034-0.741,0.05-0.94,0.05c-1.193,0-1.824-0.462-1.895-1.392c-0.396-2.52-0.845-4.229-1.342-5.123
		c-0.497-0.897-1.31-1.344-2.438-1.344h-14.025v22.282c0,1.394,0.86,2.323,2.585,2.786c1.729,0.464,4.646,0.696,8.755,0.696h4.181
		c1.987,0,3.662-0.265,5.021-0.795c1.358-0.531,2.568-1.275,3.631-2.239c1.062-0.96,1.988-2.089,2.785-3.382
		c0.794-1.292,1.591-2.737,2.387-4.327c0.198-0.463,0.661-0.697,1.396-0.697c0.329,0,0.729,0.099,1.188,0.298
		c0.468,0.197,0.932,0.398,1.396,0.596c-0.134,0.531-0.284,1.03-0.447,1.493c-0.167,0.465-0.313,0.93-0.448,1.393
		c-0.331,0.732-0.597,1.527-0.795,2.387c-0.196,0.864-0.396,1.561-0.598,2.09c-0.135,0.664-0.283,1.41-0.448,2.24
		c-0.166,0.829-0.333,1.625-0.498,2.386c-0.164,0.763-0.331,1.443-0.495,2.04c-0.168,0.596-0.282,0.994-0.35,1.192
		c-0.266,0.531-0.795,0.796-1.592,0.796c-0.53,0-1.293-0.034-2.286-0.098c-0.997-0.066-2.075-0.117-3.234-0.151
		c-1.161-0.033-2.338-0.083-3.529-0.149c-1.193-0.066-2.226-0.099-3.083-0.099h-22.582c-1.926,0-4.126,0.05-6.613,0.149
		s-4.729,0.215-6.716,0.348c-0.137-0.265-0.198-0.612-0.198-1.044c0-0.431,0-0.747,0-0.944c0-0.996,0.33-1.525,0.995-1.593
		c2.519-0.463,4.327-0.96,5.421-1.491c1.093-0.53,1.641-1.459,1.641-2.787V25.012c0-0.662-0.099-1.209-0.298-1.641
		c-0.198-0.429-0.581-0.795-1.145-1.093c-0.563-0.299-1.292-0.563-2.188-0.797c-0.896-0.231-2.04-0.48-3.432-0.747
		c-0.665-0.199-0.995-0.794-0.995-1.791c0-0.332,0-0.646,0-0.943c0-0.3,0.062-0.614,0.198-0.946
		c2.851,0.198,5.372,0.332,7.561,0.398c2.189,0.067,4.078,0.099,5.671,0.099h20.394c2.981,0,5.554-0.099,7.711-0.299
		c2.151-0.198,3.631-0.298,4.428-0.298c0.728,0,1.257,0.298,1.591,0.897c0.199,0.531,0.364,1.509,0.496,2.934
		c0.134,1.427,0.364,2.902,0.697,4.427c0.197,1.129,0.43,2.222,0.692,3.284c0.267,1.06,0.663,2.354,1.194,3.879
		c-0.332,0.133-0.696,0.266-1.093,0.398c-0.399,0.133-0.797,0.197-1.196,0.197c-0.729,0-1.259-0.298-1.591-0.896
		c-0.794-1.724-1.575-3.198-2.336-4.427c-0.764-1.225-1.627-2.22-2.588-2.984c-0.962-0.761-2.088-1.308-3.382-1.642
		c-1.294-0.33-2.836-0.497-4.627-0.497L420.526,22.525L420.526,22.525z"/>
	<path d="M17.954,106.635h22.446l15.367,50.984l15.635-50.573h21.114l16.301,50.573l14.435-50.984h21.381l-25.924,73.396H99.333
		l-17.772-54.273L64.323,180.03H45.481L17.954,106.635z"/>
	<path d="M187.526,173.245c-2.762,2.399-5.855,4.353-9.287,5.858c-3.429,1.506-7.859,2.262-13.296,2.262
		c-3.116,0-6.082-0.309-8.886-0.926c-2.807-0.616-5.258-1.574-7.351-2.877c-2.098-1.304-3.767-2.965-5.014-4.986
		c-1.249-2.021-1.868-4.436-1.868-7.246c0-3.702,1.066-6.717,3.203-9.045c2.142-2.33,4.945-4.146,8.422-5.449
		c3.475-1.301,7.367-2.225,11.69-2.775c4.32-0.547,8.708-0.89,13.164-1.026l8.951-0.31v-2.673c0-3.29-1.18-5.55-3.541-6.784
		c-2.36-1.233-5.146-1.851-8.354-1.851c-7.396,0-11.627,2.159-12.693,6.476l-17.105-1.233c1.247-5.619,4.455-9.678,9.622-12.181
		c5.167-2.501,12.114-3.753,20.846-3.753c5.349,0,9.893,0.499,13.634,1.491c3.739,0.994,6.748,2.416,9.02,4.267
		c2.272,1.849,3.918,4.097,4.945,6.732c1.021,2.639,1.536,5.602,1.536,8.892v33.921h-17.642L187.526,173.245L187.526,173.245z
		 M187.125,156.078l-8.283,0.311c-3.921,0.137-7.083,0.443-9.488,0.924c-2.406,0.48-4.255,1.08-5.546,1.799
		c-1.292,0.723-2.16,1.562-2.604,2.52c-0.446,0.963-0.668,2.021-0.668,3.188c0,1.783,0.803,3.188,2.403,4.217
		c1.604,1.025,3.83,1.542,6.684,1.542c4.812,0,8.729-0.854,11.761-2.569c1.688-0.96,3.073-2.175,4.142-3.648
		c1.068-1.473,1.604-3.305,1.604-5.5v-2.776h-0.004L187.125,156.078L187.125,156.078z"/>
	<path d="M219.062,126.371h18.174v7.403c2.762-3.152,6.033-5.45,9.822-6.888c3.785-1.44,7.729-2.16,11.826-2.16
		c7.927,0,13.808,1.593,17.639,4.78c3.83,3.188,5.747,8.208,5.747,15.061v35.463h-18.71v-33.51c0-3.769-0.936-6.337-2.804-7.71
		c-1.872-1.369-4.369-2.056-7.484-2.056c-2.403,0-4.478,0.275-6.214,0.823c-1.739,0.55-3.364,1.337-4.876,2.363
		c-1.25,0.962-2.296,2.108-3.141,3.445c-0.852,1.336-1.271,2.792-1.271,4.369v32.276h-18.708V126.371L219.062,126.371z"/>
	<path d="M344.807,172.936c-5.346,5.825-12.562,8.738-21.649,8.738c-9.8,0-17.104-2.533-21.913-7.607
		c-4.812-5.066-7.217-12.092-7.217-21.068c0-4.18,0.688-8.001,2.071-11.463c1.379-3.458,3.361-6.439,5.947-8.94
		c2.583-2.503,5.746-4.437,9.485-5.809c3.74-1.37,7.974-2.057,12.694-2.057c3.474,0,6.926,0.481,10.354,1.441
		c3.43,0.958,6.657,2.811,9.688,5.55v-25.083h18.708v73.396h-18.171v-7.096h-0.001v-0.002H344.807z M344.405,152.584
		c0-3.426-0.38-6.169-1.137-8.225c-0.757-2.055-1.983-3.733-3.674-5.036c-1.604-1.234-3.364-2.039-5.278-2.416
		c-1.917-0.376-3.81-0.566-5.679-0.566c-2.05,0-3.988,0.309-5.812,0.926c-1.828,0.617-3.431,1.577-4.812,2.879
		s-2.474,3.015-3.274,5.139c-0.802,2.125-1.201,4.662-1.201,7.605c0,3.223,0.377,5.908,1.138,8.068
		c0.756,2.157,1.803,3.905,3.141,5.242c1.335,1.336,2.894,2.296,4.676,2.878c1.781,0.583,3.696,0.873,5.746,0.873
		c4.454,0,8.107-0.992,10.958-2.979c1.781-1.369,3.094-3.033,3.942-4.983c0.845-1.955,1.27-4.474,1.27-7.558L344.405,152.584
		L344.405,152.584z"/>
	<path d="M440.486,163.273c-1.25,6.031-4.39,10.604-9.421,13.724c-5.034,3.118-12.362,4.677-21.982,4.677
		c-11.578,0-20.287-2.467-26.121-7.4c-5.84-4.935-8.757-11.924-8.757-20.971c0-4.521,0.849-8.548,2.539-12.078
		c1.691-3.528,4.076-6.526,7.148-8.994c3.075-2.466,6.748-4.334,11.023-5.603c4.274-1.267,8.995-1.902,14.166-1.902
		c10.688,0,18.729,2.364,24.116,7.093c5.395,4.729,8.087,11.103,8.087,19.121v5.756h-48.375c0.181,4.318,1.604,7.693,4.276,10.125
		c2.673,2.436,6.682,3.647,12.028,3.647c7.393,0,11.759-2.396,13.094-7.194H440.486L440.486,163.273z M423.245,147.238
		c0-3.7-1.182-6.578-3.542-8.633c-2.358-2.056-6.033-3.086-11.022-3.086c-2.494,0-4.675,0.309-6.548,0.926
		c-1.869,0.617-3.453,1.457-4.742,2.519c-1.293,1.062-2.295,2.296-3.008,3.7c-0.715,1.406-1.114,2.929-1.203,4.574H423.245z"/>
	<path d="M453.045,126.371h18.175v7.504c2.312-2.809,5.121-4.917,8.417-6.322c3.296-1.402,6.77-2.107,10.425-2.107
		c1.78,0,3.25,0.051,4.41,0.154c1.155,0.104,2.181,0.223,3.073,0.359l-2.272,13.057c-2.138-0.412-4.766-0.618-7.885-0.618
		c-2.05,0-4.009,0.19-5.878,0.566c-1.873,0.375-3.564,1.079-5.077,2.106c-1.606,1.097-2.787,2.33-3.544,3.7
		c-0.757,1.373-1.135,2.777-1.135,4.216v31.043h-18.709V126.371L453.045,126.371z"/>
	<path d="M506.897,106.635h19.243v12.953h-19.243V106.635z M507.162,126.371h18.707v53.658h-18.707V126.371L507.162,126.371z"/>
	<path d="M540.57,126.371h18.175v7.403c2.762-3.152,6.033-5.45,9.82-6.888c3.785-1.44,7.729-2.16,11.826-2.16
		c7.928,0,13.81,1.593,17.64,4.78c3.829,3.188,5.746,8.208,5.746,15.061v35.463h-18.708v-33.51c0-3.769-0.937-6.337-2.807-7.71
		c-1.871-1.369-4.366-2.056-7.482-2.056c-2.406,0-4.478,0.275-6.215,0.823c-1.738,0.55-3.362,1.337-4.877,2.363
		c-1.249,0.962-2.296,2.108-3.141,3.445c-0.852,1.336-1.271,2.792-1.271,4.369v32.276H540.57V126.371z"/>
	<path d="M636.781,183.421c0.354,1.369,0.87,2.468,1.536,3.29c0.669,0.823,1.56,1.475,2.673,1.952
		c1.112,0.479,2.45,0.806,4.009,0.978c1.562,0.17,3.453,0.258,5.684,0.258c3.474,0,6.188-0.5,8.147-1.487
		c1.958-0.995,3.408-2.313,4.347-3.959c0.935-1.646,1.514-3.53,1.734-5.654c0.224-2.122,0.334-4.315,0.334-6.577v-1.646
		c-2.314,2.604-5.276,4.573-8.888,5.907c-3.607,1.338-7.683,2.004-12.227,2.004c-9.804,0-17.128-2.43-21.982-7.297
		c-4.854-4.862-7.281-11.407-7.281-19.633c0-3.907,0.688-7.505,2.07-10.795c1.38-3.288,3.361-6.115,5.948-8.479
		c2.582-2.366,5.764-4.214,9.553-5.552c3.786-1.335,8.038-2.004,12.762-2.004c3.741,0,7.37,0.551,10.893,1.645
		c3.519,1.098,6.749,3.119,9.688,6.065v-6.065h18.174v46.153c0,4.521-0.602,8.549-1.803,12.078
		c-1.203,3.527-3.121,6.526-5.746,8.996c-2.63,2.465-6.061,4.332-10.291,5.603c-4.229,1.266-9.377,1.899-15.433,1.899
		c-5.614,0-10.403-0.358-14.366-1.076c-3.965-0.725-7.238-1.817-9.821-3.291c-2.586-1.479-4.563-3.325-5.944-5.551
		c-1.385-2.229-2.294-4.815-2.739-7.765L636.781,183.421L636.781,183.421z M665.381,151.352c0-3.222-0.472-5.825-1.405-7.812
		c-0.938-1.986-2.162-3.511-3.675-4.574c-1.519-1.062-3.207-1.765-5.077-2.107c-1.872-0.344-3.742-0.515-5.612-0.515
		c-2.051,0-3.989,0.275-5.812,0.822c-1.826,0.55-3.434,1.441-4.812,2.673c-1.383,1.233-2.472,2.81-3.271,4.729
		c-0.805,1.918-1.203,4.213-1.203,6.887c0,5.688,1.4,9.714,4.209,12.077c2.807,2.364,6.301,3.548,10.49,3.548
		c2.312,0,4.477-0.257,6.479-0.771c2.004-0.517,3.718-1.338,5.146-2.469c1.425-1.131,2.537-2.604,3.343-4.42
		c0.801-1.816,1.203-4.025,1.203-6.632L665.381,151.352L665.381,151.352z"/>
	<path d="M200.042,232.618c-0.6,0.198-1.229,0.298-1.893,0.298c-0.93,0-1.592-0.182-1.987-0.547
		c-0.398-0.362-0.664-0.745-0.796-1.143c-1.525-3.781-3.497-6.5-5.917-8.158c-2.424-1.656-5.656-2.485-9.7-2.485
		c-3.186,0-5.889,0.78-8.105,2.338c-2.225,1.556-3.334,3.927-3.334,7.11c0,2.453,0.85,4.426,2.537,5.919
		c1.69,1.491,3.812,2.803,6.367,3.93c2.551,1.129,5.304,2.224,8.257,3.282c2.95,1.062,5.702,2.388,8.255,3.979
		c2.554,1.592,4.675,3.616,6.367,6.068c1.692,2.455,2.537,5.605,2.537,9.448c0,2.521-0.432,4.975-1.293,7.362
		c-0.864,2.389-2.227,4.49-4.079,6.314c-1.857,1.825-4.213,3.282-7.062,4.377c-2.853,1.096-6.268,1.645-10.242,1.645
		c-4.378,0-8.292-0.476-11.739-1.414c-3.449-0.943-6.302-1.967-8.555-3.072c-0.199-2.846-0.518-5.643-0.945-8.395
		c-0.436-2.754-0.914-5.426-1.443-8.012c0.663-0.266,1.429-0.396,2.288-0.396c0.796,0,1.395,0.146,1.791,0.445
		c0.398,0.299,0.729,0.812,0.994,1.543c0.861,2.521,1.824,4.689,2.885,6.516c1.062,1.824,2.29,3.318,3.685,4.479
		c1.393,1.158,2.999,2.006,4.823,2.534c1.823,0.532,3.931,0.796,6.316,0.796c2.055,0,3.812-0.279,5.273-0.848
		c1.458-0.562,2.648-1.312,3.577-2.24c0.931-0.931,1.625-2.025,2.094-3.289c0.462-1.261,0.693-2.556,0.693-3.886
		c0-2.854-0.812-5.099-2.438-6.726s-3.648-2.987-6.068-4.084c-2.422-1.098-5.041-2.125-7.856-3.088
		c-2.819-0.967-5.438-2.19-7.857-3.688c-2.422-1.495-4.444-3.422-6.069-5.779c-1.625-2.355-2.437-5.527-2.437-9.515
		c0-2.658,0.479-5.136,1.439-7.425c0.964-2.293,2.37-4.281,4.229-5.979c1.856-1.693,4.093-3.039,6.714-4.036
		c2.618-0.991,5.62-1.493,9.004-1.493c2.784,0,5.585,0.301,8.404,0.896c2.819,0.598,6.019,1.592,9.6,2.983
		c0.136,1.987,0.351,4.229,0.648,6.715C199.297,228.389,199.644,230.629,200.042,232.618z"/>
	<path d="M244.009,282.355c-5.571,0-10.446-0.863-14.624-2.586c-4.178-1.726-7.626-4.097-10.346-7.111
		c-2.723-3.018-4.758-6.566-6.117-10.645c-1.36-4.08-2.04-8.474-2.04-13.185c0-3.912,0.663-7.856,1.99-11.837
		c1.326-3.979,3.414-7.576,6.268-10.793c2.852-3.221,6.499-5.836,10.941-7.859c4.44-2.021,9.749-3.031,15.917-3.031
		c3.382,0,6.547,0.23,9.499,0.695c2.947,0.463,6.147,1.159,9.599,2.089c0.133,1.789,0.398,4.077,0.797,6.862
		c0.396,2.785,0.96,5.505,1.69,8.158c-0.332,0.062-0.766,0.146-1.294,0.248c-0.531,0.1-0.932,0.146-1.193,0.146
		c-0.531,0-0.979-0.081-1.342-0.249c-0.366-0.162-0.615-0.512-0.747-1.044c-0.73-2.188-1.562-4.026-2.487-5.521
		c-0.929-1.492-2.04-2.688-3.332-3.581c-1.293-0.896-2.802-1.542-4.524-1.94c-1.729-0.398-3.746-0.595-6.068-0.595
		c-3.582,0-6.748,0.61-9.5,1.839c-2.751,1.229-5.057,2.984-6.912,5.271c-1.858,2.289-3.268,5.041-4.229,8.256
		c-0.961,3.219-1.441,6.85-1.441,10.895c0,4.311,0.58,8.322,1.741,12.036c1.159,3.715,2.751,6.931,4.772,9.649
		c2.022,2.721,4.429,4.841,7.212,6.365c2.786,1.523,5.805,2.288,9.054,2.288c2.649,0,4.926-0.247,6.812-0.747
		c1.892-0.496,3.518-1.261,4.875-2.287c1.359-1.027,2.521-2.338,3.481-3.931s1.841-3.444,2.636-5.567
		c0.2-0.53,0.513-0.912,0.946-1.146c0.431-0.23,0.877-0.35,1.342-0.35c0.333,0,0.747,0.05,1.244,0.147
		c0.497,0.101,0.911,0.218,1.243,0.351c-0.398,1.127-0.813,2.401-1.243,3.828c-0.436,1.43-0.88,2.885-1.342,4.377
		c-0.468,1.492-0.884,2.983-1.244,4.479c-0.366,1.492-0.685,2.938-0.946,4.329c-3.249,0.595-6.565,1.024-9.947,1.292
		C251.768,282.225,248.054,282.355,244.009,282.355z"/>
	<path d="M337.414,273.802c0,0.663,0.053,1.212,0.149,1.642c0.1,0.433,0.364,0.812,0.796,1.146c0.434,0.334,1.062,0.615,1.893,0.847
		c0.826,0.231,1.938,0.447,3.33,0.646c0.661,0.133,0.995,0.693,0.995,1.688c0,0.201-0.018,0.498-0.05,0.897
		c-0.034,0.397-0.084,0.729-0.146,0.994c-2.124-0.134-4.378-0.25-6.768-0.351c-2.388-0.101-4.511-0.148-6.365-0.148
		c-1.926,0-4.097,0.051-6.518,0.148c-2.42,0.101-4.691,0.217-6.812,0.351c-0.138-0.267-0.199-0.597-0.199-0.994
		c0-0.399,0-0.696,0-0.897c0-1.06,0.33-1.623,0.994-1.688c1.392-0.199,2.503-0.415,3.332-0.646c0.827-0.229,1.439-0.513,1.841-0.847
		c0.396-0.33,0.663-0.713,0.796-1.146c0.131-0.43,0.199-0.979,0.199-1.642v-23.377h-26.858v23.377c0,0.663,0.048,1.212,0.148,1.642
		c0.099,0.433,0.364,0.812,0.795,1.146c0.431,0.334,1.061,0.615,1.891,0.847c0.828,0.231,1.94,0.447,3.332,0.646
		c0.663,0.133,0.994,0.693,0.994,1.688c0,0.201-0.016,0.498-0.048,0.897c-0.034,0.397-0.084,0.729-0.149,0.994
		c-2.125-0.134-4.409-0.25-6.862-0.351c-2.455-0.101-4.61-0.148-6.467-0.148c-1.857,0-3.979,0.051-6.366,0.148
		c-2.39,0.101-4.645,0.217-6.768,0.351c-0.132-0.267-0.194-0.597-0.194-0.994c0-0.399,0-0.696,0-0.897
		c0-1.06,0.328-1.623,0.991-1.688c1.396-0.199,2.504-0.415,3.332-0.646c0.829-0.229,1.443-0.513,1.844-0.847
		c0.396-0.33,0.659-0.713,0.795-1.146c0.132-0.43,0.196-0.979,0.196-1.642v-49.84c0-0.659-0.063-1.207-0.196-1.642
		c-0.135-0.43-0.397-0.812-0.795-1.146c-0.398-0.327-1.015-0.608-1.844-0.845c-0.828-0.229-1.938-0.448-3.332-0.646
		c-0.663-0.199-0.991-0.764-0.991-1.689c0-0.199,0-0.498,0-0.896c0-0.396,0.062-0.765,0.194-1.095
		c2.123,0.134,4.378,0.248,6.768,0.347c2.388,0.104,4.509,0.148,6.366,0.148c1.854,0,4.012-0.048,6.467-0.148
		c2.453-0.099,4.737-0.213,6.862-0.347c0.065,0.33,0.115,0.696,0.149,1.095c0.032,0.396,0.048,0.694,0.048,0.896
		c0,0.929-0.332,1.49-0.994,1.689c-1.392,0.197-2.504,0.416-3.332,0.646c-0.83,0.23-1.46,0.518-1.891,0.845
		c-0.431,0.334-0.696,0.716-0.795,1.146c-0.103,0.435-0.148,0.979-0.148,1.642v21.19h26.858v-21.19c0-0.659-0.068-1.207-0.199-1.642
		c-0.134-0.43-0.398-0.812-0.796-1.146c-0.398-0.327-1.014-0.608-1.841-0.845c-0.829-0.229-1.94-0.448-3.332-0.646
		c-0.664-0.199-0.994-0.764-0.994-1.689c0-0.199,0-0.498,0-0.896c0-0.396,0.062-0.765,0.199-1.095
		c2.119,0.134,4.393,0.248,6.812,0.347c2.421,0.104,4.592,0.148,6.518,0.148c1.854,0,3.979-0.048,6.365-0.148
		c2.39-0.099,4.644-0.213,6.768-0.347c0.062,0.33,0.112,0.696,0.146,1.095c0.033,0.396,0.05,0.694,0.05,0.896
		c0,0.929-0.333,1.49-0.995,1.689c-1.394,0.197-2.504,0.416-3.33,0.646c-0.831,0.23-1.461,0.518-1.893,0.845
		c-0.432,0.334-0.696,0.716-0.796,1.146c-0.099,0.435-0.149,0.979-0.149,1.642V273.802z"/>
	<path d="M352.338,248.832c0-4.641,0.876-8.986,2.635-13.03c1.756-4.044,4.162-7.593,7.212-10.644
		c3.051-3.051,6.615-5.455,10.694-7.213c4.078-1.758,8.438-2.637,13.081-2.637c4.771,0,9.217,0.83,13.326,2.484
		c4.11,1.659,7.679,3.979,10.693,6.963c3.021,2.984,5.388,6.533,7.113,10.646c1.724,4.113,2.585,8.59,2.585,13.43
		c0,4.643-0.879,9.004-2.635,13.081c-1.763,4.08-4.163,7.626-7.215,10.644c-3.052,3.021-6.632,5.407-10.741,7.164
		c-4.112,1.756-8.489,2.637-13.132,2.637c-4.773,0-9.221-0.83-13.328-2.484c-4.113-1.658-7.661-3.979-10.646-6.964
		c-2.98-2.984-5.337-6.519-7.062-10.597C353.197,258.232,352.338,253.74,352.338,248.832z M387.449,277.184
		c2.784,0,5.307-0.613,7.562-1.841c2.253-1.226,4.19-2.899,5.817-5.022c1.623-2.119,2.886-4.606,3.778-7.461
		c0.896-2.852,1.344-5.899,1.344-9.149c0-4.708-0.445-9.085-1.344-13.131c-0.896-4.044-2.255-7.543-4.078-10.494
		c-1.824-2.951-4.109-5.272-6.861-6.964c-2.755-1.691-5.952-2.535-9.601-2.535c-2.322,0-4.575,0.518-6.766,1.541
		c-2.188,1.027-4.112,2.521-5.771,4.477c-1.657,1.959-2.981,4.328-3.979,7.112c-0.997,2.785-1.492,5.938-1.492,9.449
		c0,4.909,0.479,9.45,1.442,13.629c0.959,4.179,2.354,7.772,4.179,10.793c1.823,3.021,4.061,5.372,6.714,7.062
		C381.051,276.338,384.07,277.184,387.449,277.184z"/>
	<path d="M427.143,248.832c0-4.641,0.876-8.986,2.635-13.03c1.756-4.044,4.162-7.593,7.212-10.644
		c3.054-3.051,6.615-5.455,10.694-7.213c4.078-1.758,8.438-2.637,13.081-2.637c4.771,0,9.217,0.83,13.329,2.484
		c4.107,1.659,7.676,3.979,10.69,6.963c3.021,2.984,5.391,6.533,7.113,10.646c1.728,4.113,2.585,8.59,2.585,13.43
		c0,4.643-0.879,9.004-2.636,13.081c-1.759,4.08-4.162,7.626-7.211,10.644c-3.052,3.021-6.632,5.407-10.744,7.164
		c-4.112,1.756-8.489,2.637-13.13,2.637c-4.776,0-9.22-0.83-13.33-2.484c-4.113-1.658-7.661-3.979-10.646-6.964
		c-2.979-2.984-5.337-6.519-7.062-10.597C428.002,258.232,427.143,253.74,427.143,248.832z M462.257,277.184
		c2.781,0,5.304-0.613,7.56-1.841c2.253-1.226,4.193-2.899,5.82-5.022c1.623-2.119,2.883-4.606,3.775-7.461
		c0.896-2.852,1.347-5.899,1.347-9.149c0-4.708-0.448-9.085-1.347-13.131c-0.896-4.044-2.255-7.543-4.075-10.494
		c-1.824-2.951-4.112-5.272-6.864-6.964s-5.952-2.535-9.598-2.535c-2.322,0-4.575,0.518-6.769,1.541
		c-2.188,1.027-4.112,2.521-5.77,4.477c-1.659,1.959-2.984,4.328-3.979,7.112c-0.996,2.785-1.492,5.938-1.492,9.449
		c0,4.909,0.479,9.45,1.442,13.629c0.959,4.179,2.354,7.772,4.179,10.793c1.823,3.021,4.062,5.372,6.714,7.062
		C455.855,276.338,458.875,277.184,462.257,277.184z"/>
	<path d="M523.234,272.707c0,1.393,0.896,2.32,2.688,2.785c1.789,0.466,4.738,0.695,8.854,0.695h3.778
		c1.658,0,3.102-0.184,4.328-0.549c1.228-0.361,2.305-0.979,3.231-1.84c0.928-0.859,1.772-1.973,2.536-3.332
		c0.762-1.357,1.508-3,2.237-4.926c0.199-0.527,0.697-0.795,1.494-0.795c0.329,0,0.729,0.102,1.189,0.298
		c0.463,0.199,0.931,0.396,1.396,0.601c-0.531,2.121-1.015,4.426-1.443,6.912c-0.432,2.485-0.812,4.926-1.142,7.312
		c-0.068,0.797-0.284,1.292-0.648,1.491c-0.364,0.197-0.746,0.3-1.143,0.3c-0.533,0-1.278-0.036-2.239-0.103
		c-0.962-0.066-2.007-0.115-3.133-0.147c-1.129-0.035-2.273-0.084-3.436-0.149c-1.161-0.066-2.173-0.1-3.032-0.1h-22.58
		c-1.926,0-4.127,0.051-6.613,0.146c-2.487,0.103-4.729,0.217-6.717,0.353c-0.135-0.267-0.197-0.613-0.197-1.048
		c0-0.433,0-0.743,0-0.944c0-0.995,0.33-1.522,0.994-1.59c2.52-0.463,4.328-0.961,5.421-1.493c1.095-0.527,1.642-1.457,1.642-2.784
		v-49.84c0-0.659-0.063-1.207-0.199-1.642c-0.133-0.43-0.396-0.812-0.795-1.146c-0.396-0.33-1.012-0.61-1.841-0.845
		c-0.829-0.23-1.938-0.448-3.332-0.646c-0.663-0.197-0.994-0.763-0.994-1.688c0-0.199,0-0.498,0-0.896
		c0-0.396,0.065-0.765,0.197-1.095c2.122,0.132,4.378,0.248,6.765,0.349c2.392,0.102,4.513,0.146,6.368,0.146
		c0.93,0,1.987-0.018,3.187-0.048c1.19-0.033,2.437-0.065,3.729-0.104c1.293-0.031,2.586-0.08,3.88-0.146
		c1.293-0.065,2.473-0.136,3.53-0.197c0.065,0.33,0.115,0.696,0.15,1.095c0.029,0.396,0.049,0.694,0.049,0.896
		c0,0.929-0.333,1.491-0.995,1.688c-2.852,0.397-4.758,0.913-5.718,1.543c-0.965,0.631-1.443,1.606-1.443,2.938L523.234,272.707
		L523.234,272.707z"/>
</g>
</svg>
