<?xml version="1.0" encoding="utf-8"?>
<!-- Generator: Adobe Illustrator 16.0.0, SVG Export Plug-In . SVG Version: 6.00 Build 0)  -->
<!DOCTYPE svg PUBLIC "-//W3C//DTD SVG 1.1//EN" "http://www.w3.org/Graphics/SVG/1.1/DTD/svg11.dtd">
<svg version="1.1" id="Layer_1" xmlns="http://www.w3.org/2000/svg" xmlns:xlink="http://www.w3.org/1999/xlink" x="0px" y="0px"
	 width="399.992px" height="158px" viewBox="-49.996 -20 399.992 158" enable-background="new -49.996 -20 399.992 158"
	 xml:space="preserve">
<g>
	<path fill="#FFFFFF" d="M124.97-17.157c1.025,0,1.888,0.103,2.588,0.307c0.7,0.206,1.299,0.514,1.794,0.921
		c0.495,0.411,0.93,0.94,1.308,1.589c0.374,0.647,0.751,1.399,1.126,2.252c0.068,0.172,0.188,0.29,0.359,0.36
		c0.17,0.067,0.325,0.101,0.461,0.101c0.205,0,0.385-0.033,0.539-0.101c0.153-0.07,0.314-0.138,0.486-0.206
		c-0.376-1.159-0.641-2.219-0.795-3.175c-0.154-0.955-0.3-1.758-0.436-2.408c-0.136-0.648-0.281-1.151-0.436-1.512
		c-0.154-0.358-0.403-0.535-0.743-0.535c-0.274,0-0.624,0.017-1.052,0.051c-0.428,0.033-0.896,0.068-1.41,0.101
		c-0.512,0.034-1.025,0.069-1.537,0.103c-0.512,0.035-0.973,0.053-1.384,0.053h-17.12c-0.443,0-0.922-0.018-1.436-0.053
		c-0.512-0.033-1.018-0.068-1.512-0.103c-0.496-0.032-0.967-0.067-1.411-0.101c-0.444-0.034-0.786-0.051-1.025-0.051
		c-0.341,0-0.588,0.17-0.743,0.512c-0.152,0.341-0.299,0.828-0.436,1.46s-0.291,1.425-0.461,2.381
		c-0.171,0.956-0.428,2.048-0.77,3.277c0.273,0.206,0.598,0.307,0.973,0.307c0.137,0,0.281-0.033,0.437-0.101
		c0.155-0.07,0.266-0.188,0.333-0.36c0.41-0.854,0.803-1.604,1.18-2.252c0.375-0.648,0.819-1.179,1.333-1.589
		c0.512-0.408,1.118-0.715,1.819-0.921c0.7-0.204,1.562-0.307,2.588-0.307h5.28v27.35c0,0.786-0.343,1.332-1.025,1.639
		c-0.684,0.307-1.794,0.562-3.332,0.769c-0.341,0.067-0.512,0.341-0.512,0.818c0,0.24,0.033,0.529,0.103,0.869
		c1.092-0.068,2.263-0.128,3.511-0.179c1.247-0.051,2.47-0.077,3.665-0.077c1.23,0,2.452,0.026,3.666,0.077
		c1.213,0.051,2.365,0.11,3.46,0.179c0.067-0.34,0.103-0.631,0.103-0.869c0-0.546-0.188-0.818-0.564-0.818
		c-1.537-0.172-2.632-0.418-3.279-0.743c-0.65-0.325-0.974-0.879-0.974-1.665v-27.349H124.97z"/>
	<path fill="#FFFFFF" d="M165.82-15.57c0-0.683,0.214-1.178,0.641-1.484c0.426-0.307,1.306-0.563,2.638-0.768
		c0.342-0.069,0.512-0.342,0.512-0.82c0-0.238-0.032-0.527-0.102-0.869c-1.06,0.069-2.109,0.128-3.146,0.179
		c-1.037,0.052-2.029,0.079-2.976,0.079c-0.913,0-1.94-0.027-3.082-0.079c-1.141-0.051-2.14-0.109-2.992-0.179
		c-0.07,0.342-0.103,0.632-0.103,0.869c0,0.514,0.188,0.787,0.563,0.82c1.333,0.204,2.203,0.486,2.614,0.846
		c0.409,0.358,0.615,0.828,0.615,1.408v11.471h-16.095V-15.57c0-0.683,0.213-1.178,0.641-1.484c0.426-0.307,1.307-0.563,2.64-0.768
		c0.34-0.069,0.512-0.342,0.512-0.82c0-0.238-0.034-0.527-0.103-0.869c-1.025,0.069-2.068,0.128-3.127,0.179
		c-1.059,0.052-2.068,0.079-3.023,0.079c-0.923,0-1.948-0.027-3.076-0.079c-1.128-0.051-2.119-0.109-2.974-0.179
		c-0.069,0.342-0.103,0.632-0.103,0.869c0,0.514,0.171,0.787,0.512,0.82c0.685,0.137,1.239,0.264,1.667,0.384
		c0.427,0.12,0.76,0.265,1,0.435c0.239,0.171,0.401,0.367,0.487,0.588c0.085,0.223,0.129,0.506,0.129,0.846v26.019
		c0,0.683-0.24,1.16-0.719,1.434s-1.367,0.529-2.666,0.768c-0.342,0.069-0.512,0.307-0.512,0.718c0,0.273,0.033,0.581,0.104,0.92
		c1.059-0.068,2.118-0.128,3.177-0.179s2.066-0.077,3.025-0.077c0.923,0,1.964,0.026,3.126,0.077s2.188,0.11,3.076,0.179
		c0.068-0.34,0.104-0.646,0.104-0.92c0-0.411-0.188-0.648-0.564-0.718c-1.333-0.272-2.221-0.537-2.665-0.793
		s-0.667-0.727-0.667-1.409V-1.946h16.095v12.395c0,0.683-0.24,1.16-0.718,1.434s-1.352,0.529-2.614,0.768
		c-0.343,0.069-0.512,0.307-0.512,0.718c0,0.273,0.033,0.581,0.102,0.92c1.024-0.068,2.074-0.128,3.146-0.179
		c1.073-0.051,2.082-0.077,3.028-0.077c0.914,0,1.948,0.026,3.104,0.077c1.159,0.051,2.164,0.11,3.022,0.179
		c0.068-0.34,0.102-0.646,0.102-0.92c0-0.411-0.172-0.648-0.512-0.718c-1.334-0.272-2.222-0.537-2.667-0.793
		s-0.667-0.727-0.667-1.409L165.82-15.57L165.82-15.57z"/>
	<path fill="#FFFFFF" d="M191.039-17.157c1.026,0,1.888,0.103,2.589,0.307c0.699,0.206,1.297,0.514,1.794,0.921
		c0.495,0.411,0.93,0.932,1.305,1.563c0.376,0.632,0.77,1.392,1.183,2.278c0.135,0.307,0.424,0.462,0.868,0.462
		c0.341,0,0.647-0.102,0.921-0.308c-0.375-0.614-0.635-1.363-0.769-2.253c-0.138-0.887-0.254-1.723-0.359-2.509
		c-0.104-0.785-0.231-1.461-0.386-2.024c-0.153-0.562-0.453-0.844-0.896-0.844c-0.378,0-1.129,0.051-2.255,0.151
		c-1.128,0.104-2.461,0.155-3.998,0.155h-10.098c-0.785,0-1.676-0.018-2.665-0.052c-0.991-0.033-2.222-0.104-3.692-0.204
		c-0.033,0.137-0.061,0.264-0.078,0.384c-0.016,0.12-0.026,0.264-0.026,0.435c0,0.512,0.172,0.803,0.515,0.87
		c1.436,0.273,2.399,0.538,2.896,0.794c0.495,0.256,0.743,0.727,0.743,1.409v26.069c0,0.683-0.281,1.16-0.846,1.434
		c-0.562,0.273-1.495,0.529-2.793,0.768c-0.343,0.069-0.515,0.342-0.515,0.819c0,0.205,0.032,0.479,0.104,0.818
		c1.024-0.068,2.1-0.128,3.229-0.179c1.128-0.051,2.187-0.077,3.179-0.077h11.226c0.443,0,0.974,0.018,1.588,0.051
		c0.615,0.033,1.222,0.06,1.818,0.077c0.598,0.017,1.153,0.042,1.666,0.077c0.516,0.035,0.906,0.051,1.18,0.051
		c0.342,0,0.623-0.289,0.847-0.869c0.222-0.58,0.435-1.28,0.638-2.101c0.206-0.818,0.417-1.681,0.639-2.585
		c0.224-0.904,0.486-1.682,0.797-2.331c-0.171-0.101-0.352-0.204-0.538-0.307c-0.188-0.101-0.366-0.153-0.535-0.153
		c-0.413,0-0.667,0.121-0.769,0.36c-0.411,0.818-0.838,1.57-1.283,2.252c-0.443,0.684-0.948,1.273-1.511,1.767
		c-0.565,0.496-1.214,0.889-1.948,1.179c-0.738,0.29-1.599,0.435-2.588,0.435h-2.819c-2.118,0-3.64-0.119-4.562-0.358
		c-0.921-0.239-1.384-0.718-1.384-1.434V-1.946h7.996c0.684,0,1.17,0.333,1.462,0.999c0.292,0.665,0.521,1.477,0.694,2.432
		c0.1,0.443,0.426,0.666,0.973,0.666c0.236,0,0.492-0.033,0.767-0.102c-0.101-1.059-0.171-2.006-0.204-2.844
		c-0.033-0.836-0.05-1.543-0.05-2.126c0-0.716,0.026-1.552,0.078-2.51c0.051-0.956,0.11-1.808,0.179-2.56
		c-0.101-0.033-0.24-0.068-0.412-0.103c-0.17-0.033-0.306-0.051-0.41-0.051c-0.514,0-0.82,0.223-0.92,0.665
		c-0.174,0.957-0.402,1.767-0.694,2.434c-0.292,0.665-0.778,0.997-1.462,0.997h-7.996v-13.109H191.039z"/>
	<path fill="#FFFFFF" d="M-30.191,75.491l9.104-27.346c1.292-3.892,1.662-6.248,1.662-6.248h0.123c0,0,0.307,2.356,1.662,6.299
		l9.227,27.295h6.396l13.473-39.174H5.856l-9.165,27.806c-1.293,3.892-1.6,6.195-1.6,6.195h-0.123c0,0-0.368-2.307-1.723-6.25
		l-9.104-27.752h-6.644l-9.043,27.805c-1.23,3.893-1.6,6.194-1.6,6.194h-0.123c0,0-0.368-2.305-1.661-6.249l-9.228-27.752H-50
		l13.473,39.174h6.336V75.491z"/>
	<path fill="#FFFFFF" d="M33.965,41.08h0.122c0,0,0.861,2.51,1.846,4.864l5.906,14.03H26.213l5.844-14.03
		C32.979,43.743,33.842,41.336,33.965,41.08z M48.359,75.491h6.089L37.531,36.317h-6.768L14.032,75.491h5.722l4.859-11.676h18.824
		L48.359,75.491z"/>
	<path fill="#FFFFFF" d="M63.24,75.491h5.475V42.616h0.124c0,0,0.614,1.229,2.46,3.79l20.855,29.085h7.319V36.317h-5.415v32.978
		h-0.184c0,0-0.8-1.69-2.398-3.842L70.562,36.317H63.24V75.491z"/>
	<path fill="#FFFFFF" d="M112.141,75.491h15.133c12.857,0,22.084-6.301,22.084-20.073c0-13.878-9.904-19.101-22.76-19.101h-14.456
		L112.141,75.491L112.141,75.491z M117.861,71.395V40.415h9.104c9.472,0,16.424,4.198,16.424,15.157
		c0,11.521-6.828,15.822-16.794,15.822H117.861z"/>
	<path fill="#FFFFFF" d="M159.872,75.491h30.389V71.24h-24.67V57.773h22.391v-4.148h-22.391V40.568h24.361v-4.251h-30.08V75.491z"/>
	<path fill="#FFFFFF" d="M207.234,54.957V40.21h11.073c5.415,0,9.414,2.355,9.414,7.168c0,5.377-4.121,7.579-9.658,7.579H207.234
		L207.234,54.957z M227.411,75.491h6.644l-10.396-17.257v-0.102c4.305-0.922,10.088-3.432,10.088-10.806
		c0-4.505-2.338-7.528-6.09-9.269c-2.584-1.126-5.66-1.741-9.104-1.741h-17.041v39.174h5.722V58.9h10.458L227.411,75.491z"/>
	<path fill="#FFFFFF" d="M244.078,75.491h5.722V36.317h-5.722V75.491z"/>
	<path fill="#FFFFFF" d="M262.651,75.491h5.477V42.616h0.122c0,0,0.614,1.229,2.461,3.79l20.853,29.085h7.322V36.317h-5.414v32.978
		h-0.188c0,0-0.803-1.69-2.398-3.842l-20.917-29.136h-7.32v39.174H262.651z"/>
	<path fill="#FFFFFF" d="M330.805,39.543c6.152,0,11.016,2.715,11.812,7.17h5.969c-1.169-6.914-8.122-10.959-17.781-10.959
		c-12.177,0-21.468,7.527-21.468,20.329c0,13.774,8.858,20.225,20.73,20.225c7.631,0,12.488-3.022,14.702-6.45h0.246v5.634H350
		V55.726h-19.195v4.196h13.597v0.565c0,7.68-5.291,11.93-14.211,11.93c-9.533,0-14.823-5.786-14.823-16.183
		C315.367,46.2,320.597,39.543,330.805,39.543z"/>
	<path fill="#FFFFFF" d="M72.532,108.396c-0.12-1.179-0.215-2.28-0.281-3.305c-1.845-0.717-3.503-1.229-4.972-1.537
		c-1.47-0.305-3.007-0.461-4.613-0.461c-1.537,0-2.922,0.241-4.152,0.719c-1.23,0.475-2.281,1.127-3.152,1.945
		c-0.871,0.82-1.537,1.785-2,2.894c-0.461,1.112-0.691,2.298-0.691,3.562c0,1.431,0.23,2.67,0.691,3.712
		c0.462,1.042,1.119,1.954,1.974,2.739c0.854,0.787,1.879,1.477,3.076,2.076c1.196,0.596,2.528,1.169,3.999,1.713
		c2.254,0.822,3.988,1.745,5.202,2.768c1.212,1.024,1.82,2.423,1.82,4.199c0,0.786-0.138,1.52-0.411,2.199
		c-0.273,0.686-0.684,1.301-1.23,1.848c-0.547,0.543-1.23,0.971-2.051,1.278c-0.82,0.305-1.777,0.461-2.871,0.461
		c-2.426,0-4.314-0.582-5.664-1.739c-1.352-1.162-2.453-2.973-3.307-5.43c-0.17-0.409-0.367-0.707-0.589-0.896
		c-0.223-0.189-0.538-0.281-0.948-0.281c-0.342,0-0.633,0.05-0.871,0.151c0.272,1.331,0.512,2.663,0.717,3.993
		c0.205,1.334,0.358,2.715,0.461,4.15c1.195,0.713,2.656,1.297,4.383,1.74c1.726,0.443,3.646,0.667,5.767,0.667
		c2.017,0,3.741-0.254,5.178-0.767c1.437-0.515,2.605-1.222,3.512-2.128c0.904-0.906,1.572-1.966,1.999-3.176
		c0.427-1.211,0.64-2.52,0.64-3.918c0-2.32-0.777-4.276-2.332-5.862c-1.556-1.588-3.972-3.029-7.253-4.328
		c-2.633-1.057-4.621-2.1-5.973-3.125c-1.35-1.024-2.025-2.338-2.025-3.945c0-0.748,0.163-1.431,0.487-2.045
		c0.323-0.616,0.76-1.137,1.307-1.566c0.547-0.422,1.187-0.749,1.923-0.972c0.734-0.223,1.512-0.333,2.333-0.333
		c2.117,0,3.794,0.443,5.022,1.332c1.23,0.887,2.289,2.306,3.179,4.251c0.103,0.206,0.257,0.394,0.462,0.563
		c0.205,0.171,0.529,0.257,0.973,0.257c0.171,0,0.427-0.034,0.77-0.104C72.813,110.676,72.65,109.576,72.532,108.396z"/>
	<path fill="#FFFFFF" d="M102.236,137.332c1.742-0.153,3.451-0.365,5.125-0.639c0.273-1.436,0.615-2.866,1.025-4.304
		c0.411-1.433,0.82-2.749,1.23-3.942c-0.102-0.069-0.249-0.128-0.436-0.18c-0.188-0.051-0.367-0.077-0.537-0.077
		c-0.583,0-0.992,0.254-1.23,0.766c-0.41,1.026-0.846,1.938-1.306,2.742c-0.463,0.804-1.026,1.476-1.693,2.023
		c-0.665,0.547-1.503,0.966-2.511,1.255c-1.008,0.291-2.248,0.436-3.716,0.436c-1.846,0-3.58-0.394-5.203-1.18
		c-1.622-0.787-3.041-1.895-4.253-3.33c-1.213-1.434-2.179-3.138-2.897-5.121c-0.718-1.979-1.076-4.146-1.076-6.505
		c0-2.116,0.282-4.034,0.847-5.762c0.564-1.724,1.4-3.199,2.512-4.429c1.111-1.229,2.478-2.186,4.101-2.865
		c1.622-0.684,3.495-1.025,5.613-1.025c2.528,0,4.46,0.477,5.792,1.433c1.333,0.956,2.307,2.56,2.922,4.813
		c0.067,0.307,0.213,0.495,0.436,0.562c0.223,0.072,0.469,0.102,0.744,0.102c0.273,0,0.545-0.068,0.82-0.204
		c-0.344-1.364-0.615-2.714-0.82-4.044c-0.204-1.331-0.326-2.46-0.359-3.381c-0.889-0.236-1.744-0.45-2.562-0.639
		c-0.82-0.187-1.657-0.342-2.51-0.461c-0.855-0.119-1.753-0.205-2.692-0.257c-0.94-0.05-1.974-0.075-3.102-0.075
		c-2.87,0-5.383,0.52-7.536,1.561c-2.152,1.041-3.938,2.391-5.355,4.046c-1.419,1.656-2.479,3.509-3.18,5.558
		c-0.699,2.049-1.05,4.08-1.05,6.094c0,2.423,0.351,4.688,1.05,6.786c0.701,2.099,1.761,3.925,3.18,5.478
		c1.417,1.555,3.202,2.775,5.355,3.662c2.153,0.888,4.666,1.333,7.536,1.333C98.579,137.564,100.494,137.486,102.236,137.332z"/>
	<path fill="#FFFFFF" d="M143.344,107.347c0-0.684,0.215-1.179,0.642-1.484s1.307-0.562,2.64-0.769
		c0.342-0.07,0.513-0.341,0.513-0.817c0-0.242-0.034-0.528-0.103-0.87c-1.059,0.07-2.108,0.128-3.146,0.18
		c-1.039,0.053-2.031,0.078-2.978,0.078c-0.913,0-1.94-0.025-3.081-0.078c-1.141-0.052-2.139-0.109-2.994-0.18
		c-0.068,0.342-0.103,0.633-0.103,0.87c0,0.512,0.187,0.785,0.564,0.817c1.333,0.206,2.204,0.484,2.614,0.847
		s0.615,0.828,0.615,1.411v11.472h-16.096v-11.477c0-0.684,0.213-1.179,0.641-1.484c0.427-0.306,1.307-0.562,2.641-0.769
		c0.341-0.07,0.512-0.341,0.512-0.817c0-0.242-0.035-0.528-0.104-0.87c-1.025,0.07-2.067,0.128-3.126,0.18
		c-1.059,0.053-2.068,0.078-3.024,0.078c-0.922,0-1.947-0.025-3.076-0.078c-1.126-0.052-2.118-0.109-2.972-0.18
		c-0.067,0.342-0.103,0.633-0.103,0.87c0,0.512,0.171,0.785,0.514,0.817c0.683,0.14,1.238,0.266,1.666,0.383
		c0.427,0.123,0.76,0.266,1,0.436c0.238,0.172,0.401,0.368,0.487,0.59c0.084,0.223,0.128,0.504,0.128,0.845v26.019
		c0,0.685-0.24,1.161-0.719,1.432c-0.479,0.273-1.367,0.53-2.666,0.769c-0.342,0.07-0.513,0.308-0.513,0.718
		c0,0.273,0.033,0.582,0.103,0.92c1.059-0.07,2.119-0.127,3.179-0.18c1.059-0.049,2.066-0.076,3.024-0.076
		c0.922,0,1.964,0.027,3.126,0.076c1.161,0.053,2.187,0.109,3.076,0.18c0.068-0.341,0.103-0.646,0.103-0.92
		c0-0.41-0.189-0.647-0.563-0.718c-1.332-0.271-2.224-0.536-2.665-0.794c-0.444-0.256-0.667-0.725-0.667-1.409v-12.394h16.096
		v12.394c0,0.685-0.24,1.161-0.719,1.435c-0.479,0.271-1.351,0.527-2.613,0.766c-0.341,0.073-0.512,0.305-0.512,0.718
		c0,0.273,0.033,0.582,0.103,0.921c1.025-0.07,2.073-0.128,3.146-0.18c1.073-0.053,2.083-0.077,3.029-0.077
		c0.912,0,1.947,0.024,3.106,0.077c1.157,0.052,2.164,0.109,3.019,0.18c0.068-0.342,0.104-0.647,0.104-0.921
		c0-0.413-0.172-0.645-0.513-0.718c-1.333-0.271-2.223-0.536-2.667-0.794c-0.443-0.255-0.666-0.724-0.666-1.409L143.344,107.347
		L143.344,107.347z"/>
	<path fill="#FFFFFF" d="M153.16,127.37c0.804,2.118,1.931,3.938,3.383,5.454c1.452,1.521,3.187,2.69,5.202,3.51
		c2.013,0.818,4.236,1.23,6.664,1.23c2.391,0,4.638-0.395,6.739-1.179c2.102-0.786,3.93-1.922,5.484-3.406
		c1.555-1.485,2.778-3.298,3.667-5.429c0.888-2.134,1.333-4.551,1.333-7.248c0-2.288-0.362-4.473-1.079-6.555
		c-0.718-2.084-1.807-3.918-3.254-5.506c-1.455-1.587-3.292-2.854-5.512-3.793c-2.222-0.938-4.816-1.407-7.792-1.407
		c-2.152,0-4.202,0.461-6.147,1.38c-1.951,0.922-3.658,2.17-5.129,3.741c-1.473,1.57-2.634,3.397-3.486,5.478
		c-0.854,2.084-1.281,4.305-1.281,6.659C151.954,122.898,152.356,125.256,153.16,127.37z M164.308,133.772
		c-1.537-0.887-2.828-2.126-3.87-3.712s-1.836-3.467-2.382-5.636c-0.547-2.167-0.82-4.513-0.82-7.04
		c0-1.913,0.291-3.602,0.871-5.072c0.581-1.469,1.359-2.704,2.331-3.712c0.974-1.007,2.102-1.774,3.384-2.304
		c1.283-0.529,2.623-0.798,4.025-0.798c2.119,0,3.971,0.445,5.56,1.332c1.59,0.888,2.906,2.108,3.948,3.663
		c1.041,1.553,1.818,3.38,2.333,5.478c0.511,2.099,0.767,4.378,0.767,6.836c0,1.776-0.264,3.417-0.794,4.918
		c-0.53,1.503-1.273,2.801-2.229,3.892c-0.957,1.093-2.102,1.947-3.435,2.562c-1.332,0.615-2.804,0.921-4.407,0.921
		C167.605,135.104,165.847,134.662,164.308,133.772z"/>
	<path fill="#FFFFFF" d="M191.552,127.37c0.805,2.118,1.93,3.938,3.383,5.454c1.452,1.521,3.187,2.69,5.203,3.51
		c2.016,0.818,4.237,1.23,6.662,1.23c2.393,0,4.638-0.395,6.742-1.179c2.102-0.786,3.927-1.922,5.484-3.406
		c1.555-1.485,2.775-3.298,3.664-5.429c0.888-2.134,1.333-4.551,1.333-7.248c0-2.288-0.36-4.473-1.079-6.555
		c-0.717-2.084-1.804-3.918-3.252-5.506c-1.453-1.587-3.291-2.854-5.513-3.793c-2.219-0.938-4.815-1.407-7.79-1.407
		c-2.154,0-4.202,0.461-6.15,1.38c-1.95,0.922-3.656,2.17-5.127,3.741c-1.472,1.57-2.636,3.397-3.482,5.478
		c-0.857,2.084-1.285,4.305-1.285,6.659C190.349,122.898,190.75,125.256,191.552,127.37z M202.7,133.772
		c-1.537-0.887-2.828-2.126-3.869-3.712c-1.043-1.586-1.838-3.467-2.383-5.636c-0.549-2.167-0.82-4.513-0.82-7.04
		c0-1.913,0.289-3.602,0.869-5.072c0.581-1.469,1.359-2.704,2.334-3.712c0.974-1.007,2.102-1.774,3.383-2.304
		c1.282-0.529,2.622-0.798,4.025-0.798c2.117,0,3.973,0.445,5.561,1.332c1.588,0.888,2.903,2.108,3.947,3.663
		c1.041,1.553,1.819,3.38,2.334,5.478c0.51,2.099,0.768,4.378,0.768,6.836c0,1.776-0.266,3.417-0.797,4.918
		c-0.528,1.503-1.273,2.801-2.229,3.892c-0.959,1.093-2.102,1.947-3.436,2.562c-1.332,0.615-2.802,0.921-4.408,0.921
		C205.997,135.104,204.239,134.662,202.7,133.772z"/>
	<path fill="#FFFFFF" d="M237.761,107.654c0-0.854,0.35-1.443,1.049-1.768s1.788-0.571,3.254-0.743
		c0.377-0.032,0.566-0.341,0.566-0.922c0-0.203-0.032-0.477-0.104-0.819c-1.025,0.069-2.189,0.129-3.483,0.182
		c-1.301,0.049-2.53,0.078-3.691,0.078c-0.789,0-1.745-0.029-2.872-0.078c-1.125-0.053-2.271-0.112-3.433-0.182
		c-0.07,0.343-0.103,0.632-0.103,0.871c0,0.203,0.043,0.383,0.129,0.537c0.084,0.153,0.213,0.248,0.384,0.281
		c1.367,0.205,2.29,0.454,2.769,0.743c0.478,0.29,0.717,0.777,0.717,1.46v26.119c0,0.615-0.255,1.068-0.768,1.359
		c-0.514,0.291-1.472,0.557-2.87,0.795c-0.344,0.072-0.515,0.344-0.515,0.82c0,0.2,0.035,0.477,0.104,0.817
		c1.094-0.07,2.236-0.128,3.435-0.18c1.195-0.052,2.187-0.077,2.972-0.077h12.814c0.648,0,1.409,0.042,2.28,0.129
		c0.871,0.084,1.597,0.128,2.181,0.128c0.237,0,0.443-0.051,0.615-0.152c0.169-0.102,0.271-0.341,0.306-0.718
		c0.172-1.434,0.366-2.721,0.59-3.864c0.222-1.144,0.453-2.227,0.691-3.253c-0.204-0.102-0.402-0.195-0.59-0.279
		c-0.187-0.085-0.364-0.129-0.535-0.129c-0.309,0-0.515,0.138-0.616,0.408c-0.307,0.89-0.657,1.683-1.051,2.383
		c-0.395,0.701-0.848,1.289-1.357,1.766c-0.515,0.479-1.129,0.847-1.848,1.102c-0.718,0.256-1.574,0.383-2.564,0.383h-5.586
		c-0.888,0-1.586-0.119-2.102-0.359c-0.513-0.239-0.768-0.646-0.768-1.231V107.654L237.761,107.654z"/>
</g>
</svg>
