<?xml version="1.0" encoding="utf-8"?>
<!-- Generator: Adobe Illustrator 16.0.0, SVG Export Plug-In . SVG Version: 6.00 Build 0)  -->
<!DOCTYPE svg PUBLIC "-//W3C//DTD SVG 1.1//EN" "http://www.w3.org/Graphics/SVG/1.1/DTD/svg11.dtd">
<svg version="1.1" id="Layer_1" xmlns="http://www.w3.org/2000/svg" xmlns:xlink="http://www.w3.org/1999/xlink" x="0px" y="0px"
	 width="700px" height="300px" viewBox="0 0 700 300" enable-background="new 0 0 700 300" xml:space="preserve">
<g>
	<path fill="#FFFFFF" stroke="#000000" stroke-miterlimit="10" d="M291.907,22.525v52.324c0,0.664,0.05,1.211,0.147,1.642
		c0.103,0.433,0.348,0.813,0.747,1.145c0.398,0.332,0.959,0.613,1.691,0.844c0.729,0.234,1.755,0.449,3.083,0.646
		c0.996,0.199,1.491,0.764,1.491,1.692c0,0.2-0.018,0.497-0.05,0.896c-0.034,0.398-0.084,0.729-0.147,0.994
		c-2.122-0.132-4.396-0.249-6.814-0.348c-2.42-0.099-4.56-0.149-6.415-0.149c-1.925,0-4.062,0.05-6.417,0.149
		c-2.354,0.099-4.593,0.215-6.716,0.348c-0.133-0.265-0.215-0.595-0.248-0.994c-0.034-0.398-0.05-0.696-0.05-0.896
		c0-0.462,0.083-0.846,0.249-1.145c0.164-0.298,0.613-0.512,1.343-0.646c2.453-0.332,3.994-0.779,4.626-1.342
		c0.629-0.564,0.945-1.509,0.945-2.837V22.525h-8.754c-1.857,0-3.435,0.183-4.727,0.547c-1.294,0.364-2.422,0.93-3.382,1.692
		c-0.963,0.762-1.825,1.756-2.587,2.982c-0.763,1.229-1.542,2.704-2.338,4.426c-0.266,0.6-0.763,0.897-1.491,0.897
		c-0.396,0-0.863-0.083-1.392-0.249c-0.533-0.165-0.932-0.314-1.195-0.447c0.463-1.594,0.862-3,1.195-4.229
		c0.33-1.226,0.595-2.437,0.795-3.63c0.264-1.525,0.462-2.886,0.597-4.079c0.131-1.193,0.298-2.055,0.497-2.586
		c0.264-0.599,0.797-0.897,1.592-0.897c0.729,0,2.171,0.101,4.328,0.298c2.154,0.2,4.757,0.299,7.811,0.299h30.638
		c2.983,0,5.554-0.099,7.71-0.299c2.151-0.198,3.63-0.298,4.427-0.298c0.729,0,1.259,0.298,1.592,0.897
		c0.199,0.531,0.348,1.393,0.446,2.586c0.101,1.193,0.312,2.554,0.646,4.079c0.199,1.193,0.446,2.404,0.746,3.63
		c0.299,1.229,0.711,2.635,1.243,4.229c-0.333,0.133-0.746,0.282-1.243,0.447c-0.499,0.167-0.943,0.249-1.344,0.249
		c-0.729,0-1.259-0.297-1.592-0.897c-0.795-1.723-1.575-3.197-2.337-4.426c-0.765-1.226-1.626-2.22-2.586-2.982
		c-0.962-0.763-2.089-1.328-3.382-1.692c-1.293-0.364-2.834-0.547-4.625-0.547H291.907z"/>
	<path fill="#FFFFFF" stroke="#000000" stroke-miterlimit="10" d="M384.319,74.849c0,0.664,0.05,1.211,0.148,1.642
		c0.101,0.433,0.362,0.813,0.797,1.145c0.43,0.332,1.06,0.613,1.89,0.844c0.829,0.234,1.938,0.449,3.332,0.646
		c0.662,0.134,0.995,0.696,0.995,1.692c0,0.2-0.018,0.497-0.051,0.896c-0.033,0.399-0.084,0.729-0.147,0.994
		c-2.125-0.132-4.379-0.249-6.766-0.348c-2.388-0.099-4.511-0.149-6.366-0.149c-1.925,0-4.097,0.05-6.516,0.149
		c-2.422,0.099-4.692,0.215-6.813,0.348c-0.136-0.265-0.2-0.595-0.2-0.994c0-0.399,0-0.696,0-0.896c0-1.061,0.331-1.624,0.995-1.692
		c1.394-0.198,2.503-0.413,3.332-0.646c0.829-0.231,1.441-0.513,1.841-0.844c0.397-0.332,0.663-0.712,0.799-1.145
		c0.131-0.43,0.196-0.978,0.196-1.642V51.473h-26.857v23.376c0,0.664,0.048,1.211,0.147,1.642c0.101,0.433,0.364,0.813,0.794,1.145
		c0.433,0.332,1.062,0.613,1.894,0.844c0.827,0.234,1.938,0.449,3.332,0.646c0.663,0.134,0.994,0.696,0.994,1.692
		c0,0.2-0.018,0.497-0.051,0.896c-0.031,0.399-0.084,0.729-0.146,0.994c-2.125-0.132-4.412-0.249-6.865-0.348
		c-2.455-0.099-4.609-0.149-6.465-0.149c-1.858,0-3.98,0.05-6.368,0.149c-2.387,0.099-4.643,0.215-6.765,0.348
		c-0.132-0.265-0.197-0.595-0.197-0.994c0-0.399,0-0.696,0-0.896c0-1.061,0.33-1.624,0.994-1.692
		c1.393-0.198,2.503-0.413,3.333-0.646c0.828-0.231,1.441-0.513,1.84-0.844c0.398-0.332,0.662-0.712,0.795-1.145
		c0.132-0.43,0.199-0.978,0.199-1.642V25.012c0-0.662-0.066-1.209-0.199-1.641c-0.133-0.429-0.396-0.812-0.795-1.145
		c-0.397-0.331-1.012-0.613-1.84-0.846c-0.83-0.23-1.94-0.447-3.333-0.646c-0.664-0.199-0.994-0.762-0.994-1.691
		c0-0.198,0-0.496,0-0.894s0.065-0.763,0.197-1.095c2.123,0.133,4.378,0.249,6.765,0.348c2.388,0.099,4.509,0.149,6.368,0.149
		c1.854,0,4.01-0.05,6.465-0.149c2.453-0.099,4.741-0.215,6.865-0.348c0.062,0.332,0.115,0.696,0.146,1.095
		c0.033,0.398,0.051,0.696,0.051,0.894c0,0.929-0.331,1.493-0.994,1.691c-1.395,0.2-2.505,0.417-3.332,0.646
		c-0.831,0.233-1.46,0.515-1.894,0.846c-0.43,0.333-0.694,0.715-0.794,1.145c-0.101,0.432-0.147,0.979-0.147,1.641v21.189h26.857
		V25.012c0-0.662-0.065-1.209-0.196-1.641c-0.136-0.429-0.399-0.812-0.799-1.145c-0.397-0.331-1.012-0.613-1.841-0.846
		c-0.829-0.23-1.938-0.447-3.332-0.646c-0.664-0.199-0.995-0.762-0.995-1.691c0-0.198,0-0.496,0-0.894s0.064-0.763,0.2-1.095
		c2.121,0.133,4.394,0.249,6.813,0.348c2.419,0.099,4.591,0.149,6.516,0.149c1.855,0,3.979-0.05,6.366-0.149
		s4.641-0.215,6.766-0.348c0.063,0.332,0.114,0.696,0.147,1.095c0.033,0.398,0.051,0.696,0.051,0.894
		c0,0.929-0.333,1.493-0.995,1.691c-1.394,0.2-2.503,0.417-3.332,0.646c-0.83,0.233-1.46,0.515-1.89,0.846
		c-0.435,0.333-0.696,0.715-0.797,1.145c-0.101,0.432-0.148,0.979-0.148,1.641V74.849z"/>
	<path fill="#FFFFFF" stroke="#000000" stroke-miterlimit="10" d="M420.526,22.525v23.974h14.025c1.259,0,2.122-0.514,2.587-1.542
		c0.463-1.028,0.858-2.703,1.19-5.024c0.067-0.529,0.268-0.879,0.6-1.044c0.332-0.166,0.762-0.249,1.294-0.249
		c0.199,0,0.513,0.017,0.941,0.049c0.434,0.034,0.747,0.085,0.946,0.149c-0.133,1.527-0.248,3.299-0.349,5.322
		c-0.1,2.024-0.149,3.73-0.149,5.123c0,1.195,0.032,2.604,0.103,4.229c0.063,1.625,0.196,3.465,0.396,5.521
		c-0.199,0.133-0.515,0.216-0.946,0.248c-0.431,0.034-0.742,0.05-0.941,0.05c-1.193,0-1.824-0.462-1.894-1.392
		c-0.396-2.52-0.845-4.229-1.342-5.123c-0.497-0.897-1.31-1.344-2.438-1.344h-14.025v22.282c0,1.394,0.86,2.323,2.585,2.786
		c1.728,0.464,4.645,0.696,8.755,0.696h4.18c1.988,0,3.663-0.265,5.022-0.795c1.358-0.531,2.568-1.275,3.631-2.239
		c1.061-0.96,1.988-2.089,2.785-3.382c0.794-1.292,1.591-2.737,2.387-4.327c0.198-0.463,0.661-0.697,1.396-0.697
		c0.329,0,0.729,0.099,1.189,0.298c0.467,0.197,0.931,0.398,1.396,0.596c-0.134,0.531-0.284,1.03-0.447,1.493
		c-0.167,0.465-0.314,0.93-0.448,1.393c-0.331,0.732-0.597,1.527-0.795,2.387c-0.197,0.864-0.396,1.561-0.598,2.09
		c-0.135,0.664-0.283,1.41-0.448,2.24c-0.166,0.829-0.333,1.625-0.498,2.386c-0.164,0.763-0.331,1.443-0.495,2.04
		c-0.168,0.596-0.283,0.994-0.35,1.192c-0.266,0.531-0.795,0.796-1.592,0.796c-0.53,0-1.293-0.034-2.286-0.098
		c-0.997-0.066-2.075-0.117-3.234-0.151c-1.161-0.033-2.338-0.083-3.53-0.149c-1.193-0.066-2.225-0.099-3.083-0.099h-22.582
		c-1.925,0-4.126,0.05-6.613,0.149s-4.728,0.215-6.716,0.348c-0.136-0.265-0.198-0.612-0.198-1.044c0-0.431,0-0.747,0-0.944
		c0-0.996,0.33-1.525,0.995-1.593c2.519-0.463,4.327-0.96,5.421-1.491c1.093-0.53,1.641-1.459,1.641-2.787V25.012
		c0-0.662-0.099-1.209-0.298-1.641c-0.198-0.429-0.581-0.795-1.145-1.093c-0.563-0.299-1.292-0.563-2.188-0.797
		c-0.896-0.231-2.04-0.48-3.432-0.747c-0.665-0.199-0.995-0.794-0.995-1.791c0-0.332,0-0.646,0-0.943c0-0.3,0.062-0.614,0.198-0.946
		c2.851,0.198,5.372,0.332,7.561,0.398c2.189,0.067,4.078,0.099,5.671,0.099h20.393c2.982,0,5.554-0.099,7.711-0.299
		c2.152-0.198,3.631-0.298,4.428-0.298c0.728,0,1.257,0.298,1.591,0.897c0.199,0.531,0.364,1.509,0.496,2.934
		c0.134,1.427,0.364,2.902,0.697,4.427c0.197,1.129,0.43,2.222,0.693,3.284c0.266,1.06,0.663,2.354,1.194,3.879
		c-0.332,0.133-0.696,0.266-1.093,0.398c-0.399,0.133-0.797,0.197-1.196,0.197c-0.729,0-1.259-0.298-1.591-0.896
		c-0.794-1.724-1.575-3.198-2.336-4.427c-0.764-1.225-1.627-2.22-2.588-2.984c-0.962-0.761-2.088-1.308-3.382-1.642
		c-1.294-0.33-2.836-0.497-4.627-0.497L420.526,22.525L420.526,22.525z"/>
	<path fill="#FFFFFF" stroke="#000000" stroke-miterlimit="10" d="M17.954,106.635h22.447l15.367,50.984l15.635-50.573h21.114
		l16.301,50.573l14.434-50.984h21.381l-25.924,73.396H99.333l-17.772-54.273L64.323,180.03H45.481L17.954,106.635z"/>
	<path fill="#FFFFFF" stroke="#000000" stroke-miterlimit="10" d="M187.526,173.245c-2.762,2.399-5.856,4.353-9.287,5.858
		c-3.429,1.506-7.86,2.262-13.296,2.262c-3.117,0-6.082-0.309-8.886-0.926c-2.807-0.616-5.258-1.574-7.351-2.877
		c-2.097-1.303-3.766-2.965-5.013-4.986c-1.249-2.021-1.869-4.436-1.869-7.246c0-3.702,1.067-6.717,3.204-9.045
		c2.141-2.33,4.945-4.146,8.421-5.449c3.475-1.301,7.368-2.225,11.691-2.775c4.32-0.547,8.708-0.89,13.164-1.026l8.951-0.31v-2.673
		c0-3.29-1.18-5.55-3.541-6.784c-2.36-1.233-5.146-1.851-8.353-1.851c-7.396,0-11.627,2.159-12.694,6.476l-17.105-1.233
		c1.247-5.619,4.455-9.678,9.622-12.181c5.167-2.501,12.114-3.753,20.846-3.753c5.348,0,9.892,0.499,13.633,1.491
		c3.74,0.994,6.748,2.416,9.02,4.267c2.272,1.849,3.918,4.097,4.945,6.732c1.021,2.639,1.536,5.602,1.536,8.892v33.921h-17.641
		L187.526,173.245L187.526,173.245z M187.125,156.078l-8.283,0.311c-3.921,0.137-7.083,0.443-9.488,0.924
		c-2.406,0.48-4.255,1.08-5.546,1.799c-1.292,0.722-2.16,1.561-2.604,2.519c-0.446,0.963-0.668,2.022-0.668,3.188
		c0,1.783,0.803,3.188,2.404,4.216c1.604,1.026,3.83,1.542,6.683,1.542c4.812,0,8.729-0.854,11.761-2.569
		c1.688-0.96,3.073-2.175,4.142-3.649c1.068-1.472,1.604-3.305,1.604-5.5v-2.776h-0.004V156.078z"/>
	<path fill="#FFFFFF" stroke="#000000" stroke-miterlimit="10" d="M219.062,126.371h18.174v7.403
		c2.761-3.152,6.033-5.45,9.822-6.888c3.785-1.44,7.728-2.16,11.826-2.16c7.927,0,13.808,1.593,17.639,4.78
		c3.83,3.188,5.747,8.208,5.747,15.061v35.463h-18.71v-33.51c0-3.769-0.936-6.337-2.804-7.71c-1.872-1.369-4.369-2.056-7.484-2.056
		c-2.404,0-4.478,0.275-6.214,0.823c-1.739,0.55-3.364,1.337-4.876,2.363c-1.25,0.962-2.296,2.108-3.141,3.445
		c-0.851,1.336-1.271,2.792-1.271,4.369v32.276h-18.708V126.371L219.062,126.371z"/>
	<path fill="#FFFFFF" stroke="#000000" stroke-miterlimit="10" d="M344.807,172.936c-5.346,5.825-12.562,8.738-21.649,8.738
		c-9.8,0-17.104-2.533-21.914-7.607c-4.812-5.067-7.216-12.092-7.216-21.069c0-4.18,0.688-8.001,2.071-11.463
		c1.379-3.458,3.361-6.439,5.947-8.94c2.583-2.503,5.746-4.437,9.486-5.809c3.74-1.37,7.973-2.057,12.694-2.057
		c3.474,0,6.926,0.481,10.355,1.441c3.429,0.958,6.657,2.811,9.688,5.55v-25.083h18.708v73.396h-18.171v-7.095h-0.001V172.936z
		 M344.405,152.584c0-3.426-0.38-6.169-1.137-8.225c-0.757-2.055-1.983-3.733-3.674-5.036c-1.604-1.234-3.364-2.039-5.278-2.416
		c-1.917-0.376-3.81-0.566-5.679-0.566c-2.05,0-3.988,0.309-5.812,0.926c-1.828,0.617-3.431,1.577-4.812,2.879
		s-2.473,3.015-3.274,5.139c-0.802,2.125-1.201,4.662-1.201,7.605c0,3.223,0.377,5.909,1.137,8.069
		c0.756,2.157,1.803,3.905,3.141,5.242c1.335,1.336,2.893,2.296,4.676,2.878c1.781,0.583,3.696,0.873,5.746,0.873
		c4.454,0,8.107-0.992,10.958-2.979c1.781-1.369,3.094-3.033,3.942-4.984c0.845-1.955,1.27-4.473,1.27-7.557L344.405,152.584
		L344.405,152.584z"/>
	<path fill="#FFFFFF" stroke="#000000" stroke-miterlimit="10" d="M440.486,163.273c-1.25,6.031-4.39,10.604-9.421,13.724
		c-5.034,3.118-12.362,4.677-21.982,4.677c-11.579,0-20.288-2.467-26.122-7.4c-5.839-4.935-8.756-11.924-8.756-20.971
		c0-4.521,0.848-8.548,2.539-12.078c1.691-3.528,4.076-6.526,7.148-8.994c3.075-2.466,6.748-4.334,11.024-5.603
		c4.274-1.267,8.995-1.902,14.166-1.902c10.688,0,18.729,2.364,24.116,7.093c5.394,4.729,8.087,11.103,8.087,19.121v5.756H392.91
		c0.18,4.318,1.604,7.693,4.276,10.125c2.673,2.435,6.682,3.647,12.028,3.647c7.393,0,11.759-2.396,13.094-7.194H440.486
		L440.486,163.273z M423.246,147.238c0-3.7-1.182-6.578-3.542-8.633c-2.359-2.056-6.034-3.086-11.023-3.086
		c-2.494,0-4.675,0.309-6.548,0.926c-1.869,0.617-3.453,1.457-4.742,2.519c-1.293,1.062-2.295,2.296-3.008,3.7
		c-0.715,1.406-1.114,2.929-1.203,4.574H423.246z"/>
	<path fill="#FFFFFF" stroke="#000000" stroke-miterlimit="10" d="M453.045,126.371h18.175v7.504
		c2.313-2.809,5.121-4.917,8.417-6.322c3.296-1.402,6.77-2.107,10.425-2.107c1.78,0,3.25,0.051,4.41,0.154
		c1.155,0.104,2.181,0.223,3.073,0.359l-2.272,13.057c-2.138-0.412-4.766-0.618-7.885-0.618c-2.05,0-4.009,0.19-5.878,0.566
		c-1.873,0.375-3.564,1.079-5.077,2.106c-1.606,1.097-2.787,2.33-3.544,3.7c-0.757,1.373-1.135,2.777-1.135,4.216v31.043h-18.709
		V126.371L453.045,126.371z"/>
	<path fill="#FFFFFF" stroke="#000000" stroke-miterlimit="10" d="M506.897,106.635h19.243v12.953h-19.243V106.635z
		 M507.163,126.371h18.707v53.658h-18.707V126.371L507.163,126.371z"/>
	<path fill="#FFFFFF" stroke="#000000" stroke-miterlimit="10" d="M540.57,126.371h18.175v7.403c2.761-3.152,6.033-5.45,9.82-6.888
		c3.785-1.44,7.729-2.16,11.826-2.16c7.928,0,13.81,1.593,17.64,4.78c3.829,3.188,5.746,8.208,5.746,15.061v35.463h-18.708v-33.51
		c0-3.769-0.937-6.337-2.807-7.71c-1.871-1.369-4.366-2.056-7.482-2.056c-2.406,0-4.478,0.275-6.215,0.823
		c-1.738,0.55-3.362,1.337-4.877,2.363c-1.249,0.962-2.296,2.108-3.141,3.445c-0.851,1.336-1.271,2.792-1.271,4.369v32.276H540.57
		V126.371z"/>
	<path fill="#FFFFFF" stroke="#000000" stroke-miterlimit="10" d="M636.781,183.421c0.354,1.369,0.87,2.468,1.536,3.29
		c0.669,0.823,1.559,1.475,2.673,1.952c1.112,0.479,2.45,0.806,4.009,0.978c1.561,0.17,3.453,0.258,5.683,0.258
		c3.474,0,6.188-0.5,8.148-1.488c1.958-0.995,3.408-2.314,4.346-3.959c0.935-1.646,1.514-3.53,1.735-5.654
		c0.223-2.122,0.334-4.316,0.334-6.577v-1.646c-2.315,2.604-5.277,4.574-8.888,5.908c-3.607,1.338-7.683,2.004-12.227,2.004
		c-9.803,0-17.128-2.43-21.982-7.297c-4.854-4.863-7.281-11.408-7.281-19.633c0-3.907,0.688-7.505,2.07-10.795
		c1.38-3.288,3.361-6.115,5.948-8.479c2.582-2.366,5.764-4.214,9.553-5.552c3.786-1.335,8.038-2.004,12.762-2.004
		c3.741,0,7.37,0.551,10.892,1.645c3.519,1.098,6.749,3.119,9.688,6.065v-6.065h18.174v46.153c0,4.522-0.602,8.549-1.803,12.078
		c-1.203,3.528-3.121,6.527-5.746,8.996c-2.63,2.465-6.061,4.332-10.291,5.603c-4.23,1.266-9.377,1.899-15.433,1.899
		c-5.614,0-10.403-0.358-14.366-1.076c-3.965-0.724-7.238-1.817-9.821-3.291c-2.586-1.478-4.564-3.325-5.945-5.551
		c-1.384-2.229-2.294-4.815-2.739-7.764L636.781,183.421L636.781,183.421z M665.381,151.352c0-3.222-0.471-5.825-1.405-7.812
		c-0.938-1.986-2.162-3.511-3.675-4.574c-1.518-1.062-3.207-1.765-5.077-2.107c-1.872-0.344-3.742-0.515-5.612-0.515
		c-2.051,0-3.989,0.275-5.812,0.822c-1.826,0.55-3.433,1.441-4.812,2.673c-1.383,1.233-2.472,2.81-3.271,4.729
		c-0.804,1.918-1.203,4.213-1.203,6.887c0,5.688,1.401,9.714,4.209,12.077c2.807,2.364,6.301,3.548,10.49,3.548
		c2.312,0,4.477-0.257,6.48-0.771c2.004-0.517,3.718-1.338,5.145-2.469c1.425-1.131,2.538-2.604,3.343-4.42
		c0.801-1.816,1.203-4.025,1.203-6.632L665.381,151.352L665.381,151.352z"/>
</g>
</svg>
