<?xml version="1.0" encoding="utf-8"?>
<!-- Generator: Adobe Illustrator 16.0.0, SVG Export Plug-In . SVG Version: 6.00 Build 0)  -->
<!DOCTYPE svg PUBLIC "-//W3C//DTD SVG 1.1//EN" "http://www.w3.org/Graphics/SVG/1.1/DTD/svg11.dtd">
<svg version="1.1" id="Layer_1" xmlns="http://www.w3.org/2000/svg" xmlns:xlink="http://www.w3.org/1999/xlink" x="0px" y="0px"
	 width="700px" height="300px" viewBox="0 0 700 300" enable-background="new 0 0 700 300" xml:space="preserve">
<g>
	<path fill="#FFFFFF" stroke="#000000" stroke-miterlimit="10" d="M291.907,22.525v52.324c0,0.664,0.05,1.211,0.148,1.642
		c0.102,0.433,0.348,0.813,0.747,1.145c0.398,0.332,0.959,0.613,1.691,0.844c0.729,0.234,1.755,0.449,3.083,0.646
		c0.996,0.199,1.492,0.764,1.492,1.692c0,0.2-0.018,0.497-0.05,0.896c-0.034,0.398-0.084,0.729-0.148,0.994
		c-2.122-0.132-4.396-0.249-6.814-0.348c-2.42-0.099-4.56-0.149-6.415-0.149c-1.925,0-4.063,0.05-6.417,0.149
		c-2.354,0.099-4.593,0.215-6.716,0.348c-0.133-0.265-0.215-0.595-0.248-0.994c-0.034-0.398-0.05-0.696-0.05-0.896
		c0-0.462,0.083-0.846,0.249-1.145c0.164-0.298,0.613-0.512,1.343-0.646c2.453-0.332,3.994-0.779,4.626-1.342
		c0.629-0.564,0.945-1.509,0.945-2.837V22.525h-8.754c-1.857,0-3.434,0.183-4.726,0.547c-1.294,0.364-2.422,0.93-3.382,1.692
		c-0.963,0.762-1.825,1.756-2.587,2.982c-0.763,1.229-1.542,2.704-2.338,4.426c-0.265,0.6-0.763,0.897-1.491,0.897
		c-0.397,0-0.863-0.083-1.392-0.249c-0.533-0.165-0.931-0.314-1.195-0.447c0.463-1.594,0.862-3,1.195-4.229
		c0.33-1.226,0.595-2.437,0.795-3.63c0.264-1.525,0.462-2.886,0.597-4.079c0.131-1.193,0.298-2.055,0.497-2.586
		c0.264-0.599,0.797-0.897,1.592-0.897c0.729,0,2.171,0.101,4.328,0.298c2.154,0.2,4.757,0.299,7.81,0.299h30.638
		c2.984,0,5.554-0.099,7.71-0.299c2.152-0.198,3.63-0.298,4.427-0.298c0.729,0,1.259,0.298,1.592,0.897
		c0.199,0.531,0.348,1.393,0.446,2.586c0.101,1.193,0.313,2.554,0.647,4.079c0.199,1.193,0.446,2.404,0.746,3.63
		c0.299,1.229,0.711,2.635,1.243,4.229c-0.333,0.133-0.746,0.282-1.243,0.447c-0.499,0.167-0.944,0.249-1.344,0.249
		c-0.729,0-1.259-0.297-1.592-0.897c-0.795-1.723-1.575-3.197-2.337-4.426c-0.764-1.226-1.626-2.22-2.586-2.982
		c-0.962-0.763-2.089-1.328-3.382-1.692c-1.293-0.364-2.834-0.547-4.625-0.547H291.907z"/>
	<path fill="#FFFFFF" stroke="#000000" stroke-miterlimit="10" d="M384.319,74.849c0,0.664,0.05,1.211,0.148,1.642
		c0.101,0.433,0.363,0.813,0.797,1.145c0.43,0.332,1.06,0.613,1.89,0.844c0.829,0.234,1.938,0.449,3.332,0.646
		c0.662,0.134,0.995,0.696,0.995,1.692c0,0.2-0.018,0.497-0.051,0.896c-0.033,0.399-0.084,0.729-0.147,0.994
		c-2.125-0.132-4.379-0.249-6.766-0.348c-2.388-0.099-4.511-0.149-6.366-0.149c-1.925,0-4.097,0.05-6.516,0.149
		c-2.422,0.099-4.692,0.215-6.813,0.348c-0.136-0.265-0.2-0.595-0.2-0.994c0-0.399,0-0.696,0-0.896c0-1.061,0.331-1.624,0.995-1.692
		c1.393-0.198,2.503-0.413,3.332-0.646c0.829-0.231,1.441-0.513,1.841-0.844c0.397-0.332,0.663-0.712,0.798-1.145
		c0.131-0.43,0.197-0.978,0.197-1.642V51.473h-26.858v23.376c0,0.664,0.048,1.211,0.148,1.642c0.1,0.433,0.364,0.813,0.794,1.145
		c0.432,0.332,1.062,0.613,1.893,0.844c0.827,0.234,1.938,0.449,3.332,0.646c0.663,0.134,0.994,0.696,0.994,1.692
		c0,0.2-0.017,0.497-0.05,0.896c-0.032,0.399-0.084,0.729-0.147,0.994c-2.125-0.132-4.412-0.249-6.865-0.348
		c-2.455-0.099-4.61-0.149-6.465-0.149c-1.858,0-3.98,0.05-6.368,0.149c-2.387,0.099-4.643,0.215-6.765,0.348
		c-0.132-0.265-0.197-0.595-0.197-0.994c0-0.399,0-0.696,0-0.896c0-1.061,0.33-1.624,0.994-1.692
		c1.393-0.198,2.503-0.413,3.333-0.646c0.828-0.231,1.441-0.513,1.84-0.844c0.398-0.332,0.662-0.712,0.795-1.145
		c0.132-0.43,0.199-0.978,0.199-1.642V25.012c0-0.662-0.066-1.209-0.199-1.641c-0.133-0.429-0.396-0.812-0.795-1.145
		c-0.398-0.331-1.012-0.613-1.84-0.846c-0.83-0.23-1.94-0.447-3.333-0.646c-0.664-0.199-0.994-0.762-0.994-1.691
		c0-0.198,0-0.496,0-0.894s0.065-0.763,0.197-1.095c2.123,0.133,4.378,0.249,6.765,0.348c2.388,0.099,4.509,0.149,6.368,0.149
		c1.854,0,4.01-0.05,6.465-0.149c2.453-0.099,4.741-0.215,6.865-0.348c0.063,0.332,0.115,0.696,0.147,1.095
		c0.033,0.398,0.05,0.696,0.05,0.894c0,0.929-0.331,1.493-0.994,1.691c-1.394,0.2-2.505,0.417-3.332,0.646
		c-0.831,0.233-1.46,0.515-1.893,0.846c-0.43,0.333-0.695,0.715-0.794,1.145c-0.101,0.432-0.148,0.979-0.148,1.641v21.189h26.858
		V25.012c0-0.662-0.066-1.209-0.197-1.641c-0.135-0.429-0.399-0.812-0.798-1.145c-0.398-0.331-1.012-0.613-1.841-0.846
		c-0.829-0.23-1.939-0.447-3.332-0.646c-0.664-0.199-0.995-0.762-0.995-1.691c0-0.198,0-0.496,0-0.894s0.064-0.763,0.2-1.095
		c2.121,0.133,4.393,0.249,6.813,0.348c2.419,0.099,4.591,0.149,6.516,0.149c1.855,0,3.979-0.05,6.366-0.149
		s4.641-0.215,6.766-0.348c0.063,0.332,0.114,0.696,0.147,1.095c0.033,0.398,0.051,0.696,0.051,0.894
		c0,0.929-0.333,1.493-0.995,1.691c-1.394,0.2-2.503,0.417-3.332,0.646c-0.83,0.233-1.46,0.515-1.89,0.846
		c-0.434,0.333-0.696,0.715-0.797,1.145c-0.1,0.432-0.148,0.979-0.148,1.641V74.849z"/>
	<path fill="#FFFFFF" stroke="#000000" stroke-miterlimit="10" d="M420.526,22.525v23.974h14.025c1.259,0,2.122-0.514,2.587-1.542
		c0.463-1.028,0.859-2.703,1.191-5.024c0.067-0.529,0.267-0.879,0.599-1.044c0.332-0.166,0.762-0.249,1.294-0.249
		c0.199,0,0.513,0.017,0.942,0.049c0.433,0.034,0.747,0.085,0.946,0.149c-0.133,1.527-0.248,3.299-0.349,5.322
		c-0.099,2.024-0.149,3.73-0.149,5.123c0,1.195,0.032,2.604,0.102,4.229c0.064,1.625,0.197,3.465,0.396,5.521
		c-0.199,0.133-0.515,0.216-0.946,0.248c-0.431,0.034-0.743,0.05-0.942,0.05c-1.193,0-1.824-0.462-1.893-1.392
		c-0.396-2.52-0.845-4.229-1.342-5.123c-0.497-0.897-1.31-1.344-2.438-1.344h-14.025v22.282c0,1.394,0.86,2.323,2.585,2.786
		c1.727,0.464,4.644,0.696,8.755,0.696h4.179c1.989,0,3.664-0.265,5.023-0.795c1.358-0.531,2.568-1.275,3.631-2.239
		c1.06-0.96,1.988-2.089,2.785-3.382c0.794-1.292,1.591-2.737,2.387-4.327c0.198-0.463,0.661-0.697,1.396-0.697
		c0.329,0,0.729,0.099,1.19,0.298c0.466,0.197,0.93,0.398,1.395,0.596c-0.134,0.531-0.284,1.03-0.447,1.493
		c-0.167,0.465-0.315,0.93-0.448,1.393c-0.331,0.732-0.597,1.527-0.795,2.387c-0.198,0.864-0.397,1.561-0.598,2.09
		c-0.135,0.664-0.283,1.41-0.448,2.24c-0.166,0.829-0.333,1.625-0.498,2.386c-0.164,0.763-0.331,1.443-0.495,2.04
		c-0.168,0.596-0.284,0.994-0.35,1.192c-0.266,0.531-0.795,0.796-1.592,0.796c-0.53,0-1.293-0.034-2.286-0.098
		c-0.997-0.066-2.075-0.117-3.234-0.151c-1.161-0.033-2.338-0.083-3.531-0.149s-2.224-0.099-3.083-0.099h-22.582
		c-1.924,0-4.126,0.05-6.613,0.149s-4.727,0.215-6.716,0.348c-0.135-0.265-0.198-0.612-0.198-1.044c0-0.431,0-0.747,0-0.944
		c0-0.996,0.33-1.525,0.995-1.593c2.519-0.463,4.327-0.96,5.421-1.491c1.093-0.53,1.641-1.459,1.641-2.787V25.012
		c0-0.662-0.099-1.209-0.298-1.641c-0.198-0.429-0.581-0.795-1.145-1.093c-0.563-0.299-1.292-0.563-2.188-0.797
		c-0.896-0.231-2.04-0.48-3.432-0.747c-0.665-0.199-0.995-0.794-0.995-1.791c0-0.332,0-0.646,0-0.943c0-0.3,0.063-0.614,0.198-0.946
		c2.851,0.198,5.372,0.332,7.561,0.398c2.189,0.067,4.078,0.099,5.671,0.099h20.392c2.983,0,5.554-0.099,7.711-0.299
		c2.153-0.198,3.631-0.298,4.428-0.298c0.728,0,1.257,0.298,1.591,0.897c0.199,0.531,0.364,1.509,0.496,2.934
		c0.134,1.427,0.364,2.902,0.697,4.427c0.197,1.129,0.43,2.222,0.694,3.284c0.265,1.06,0.663,2.354,1.194,3.879
		c-0.332,0.133-0.696,0.266-1.093,0.398c-0.399,0.133-0.797,0.197-1.196,0.197c-0.729,0-1.259-0.298-1.591-0.896
		c-0.794-1.724-1.575-3.198-2.336-4.427c-0.764-1.225-1.627-2.22-2.588-2.984c-0.962-0.761-2.088-1.308-3.382-1.642
		c-1.294-0.33-2.836-0.497-4.627-0.497L420.526,22.525L420.526,22.525z"/>
	<path fill="#FFFFFF" stroke="#000000" stroke-miterlimit="10" d="M17.954,106.635h22.448l15.367,50.984l15.635-50.573h21.114
		l16.301,50.573l14.433-50.984h21.381l-25.924,73.396H99.333l-17.772-54.273L64.323,180.03H45.481L17.954,106.635z"/>
	<path fill="#FFFFFF" stroke="#000000" stroke-miterlimit="10" d="M187.526,173.245c-2.762,2.399-5.857,4.353-9.287,5.858
		c-3.429,1.506-7.861,2.262-13.296,2.262c-3.118,0-6.082-0.309-8.886-0.926c-2.807-0.616-5.258-1.574-7.351-2.877
		c-2.096-1.302-3.765-2.965-5.012-4.986c-1.249-2.021-1.87-4.436-1.87-7.246c0-3.702,1.068-6.717,3.205-9.045
		c2.14-2.33,4.945-4.146,8.42-5.449c3.475-1.301,7.369-2.225,11.692-2.775c4.32-0.547,8.708-0.89,13.164-1.026l8.951-0.31v-2.673
		c0-3.29-1.18-5.55-3.541-6.784c-2.36-1.233-5.146-1.851-8.352-1.851c-7.396,0-11.627,2.159-12.695,6.476l-17.105-1.233
		c1.247-5.619,4.455-9.678,9.622-12.181c5.167-2.501,12.114-3.753,20.846-3.753c5.347,0,9.891,0.499,13.632,1.491
		c3.741,0.994,6.748,2.416,9.02,4.267c2.272,1.849,3.918,4.097,4.945,6.732c1.022,2.639,1.536,5.602,1.536,8.892v33.921h-17.64
		L187.526,173.245L187.526,173.245z M187.125,156.078l-8.283,0.311c-3.921,0.137-7.083,0.443-9.488,0.924
		c-2.406,0.48-4.255,1.08-5.546,1.799c-1.292,0.721-2.16,1.56-2.605,2.518c-0.446,0.963-0.668,2.023-0.668,3.188
		c0,1.783,0.803,3.188,2.405,4.216c1.604,1.026,3.83,1.542,6.682,1.542c4.812,0,8.729-0.854,11.761-2.569
		c1.689-0.96,3.073-2.175,4.142-3.649c1.068-1.472,1.604-3.305,1.604-5.5v-2.777H187.125z"/>
	<path fill="#FFFFFF" stroke="#000000" stroke-miterlimit="10" d="M219.062,126.371h18.174v7.403c2.76-3.152,6.033-5.45,9.822-6.888
		c3.785-1.44,7.727-2.16,11.826-2.16c7.927,0,13.808,1.593,17.639,4.78c3.83,3.188,5.747,8.208,5.747,15.061v35.463h-18.71v-33.51
		c0-3.769-0.936-6.337-2.804-7.71c-1.872-1.369-4.369-2.056-7.484-2.056c-2.405,0-4.478,0.275-6.214,0.823
		c-1.739,0.55-3.364,1.337-4.876,2.363c-1.25,0.962-2.296,2.108-3.141,3.445c-0.85,1.336-1.271,2.792-1.271,4.369v32.276h-18.708
		L219.062,126.371L219.062,126.371z"/>
	<path fill="#FFFFFF" stroke="#000000" stroke-miterlimit="10" d="M344.807,172.936c-5.346,5.825-12.562,8.738-21.649,8.738
		c-9.8,0-17.104-2.533-21.915-7.607c-4.812-5.068-7.215-12.092-7.215-21.07c0-4.18,0.688-8.001,2.071-11.463
		c1.379-3.458,3.361-6.439,5.947-8.94c2.583-2.503,5.746-4.437,9.487-5.809c3.74-1.37,7.972-2.057,12.694-2.057
		c3.474,0,6.926,0.481,10.356,1.441c3.428,0.958,6.657,2.811,9.688,5.55v-25.083h18.708v73.396h-18.171v-7.095H344.807z
		 M344.405,152.584c0-3.426-0.38-6.169-1.137-8.225c-0.757-2.055-1.983-3.733-3.674-5.036c-1.604-1.234-3.364-2.039-5.278-2.416
		c-1.917-0.376-3.81-0.566-5.679-0.566c-2.05,0-3.988,0.309-5.812,0.926c-1.828,0.617-3.431,1.577-4.812,2.879
		s-2.472,3.015-3.274,5.139c-0.802,2.125-1.201,4.662-1.201,7.605c0,3.223,0.377,5.91,1.136,8.07
		c0.756,2.157,1.803,3.905,3.141,5.242c1.335,1.336,2.893,2.296,4.676,2.878c1.781,0.583,3.696,0.873,5.746,0.873
		c4.454,0,8.107-0.992,10.958-2.979c1.781-1.369,3.094-3.033,3.942-4.984c0.845-1.955,1.27-4.473,1.27-7.557L344.405,152.584
		L344.405,152.584z"/>
	<path fill="#FFFFFF" stroke="#000000" stroke-miterlimit="10" d="M440.486,163.273c-1.25,6.031-4.39,10.604-9.421,13.724
		c-5.034,3.118-12.362,4.677-21.982,4.677c-11.58,0-20.289-2.467-26.123-7.4c-5.838-4.935-8.755-11.924-8.755-20.971
		c0-4.522,0.847-8.548,2.539-12.078c1.691-3.528,4.076-6.526,7.148-8.994c3.075-2.466,6.748-4.334,11.024-5.603
		c4.275-1.267,8.996-1.902,14.166-1.902c10.689,0,18.729,2.364,24.117,7.093c5.393,4.729,8.087,11.103,8.087,19.121v5.756h-48.375
		c0.179,4.318,1.604,7.693,4.276,10.125c2.673,2.434,6.682,3.647,12.028,3.647c7.393,0,11.759-2.396,13.094-7.194H440.486z
		 M423.247,147.238c0-3.7-1.182-6.578-3.542-8.633c-2.36-2.056-6.035-3.086-11.024-3.086c-2.494,0-4.675,0.309-6.548,0.926
		c-1.869,0.617-3.453,1.457-4.742,2.519c-1.293,1.062-2.295,2.296-3.008,3.7c-0.715,1.406-1.114,2.929-1.203,4.574H423.247z"/>
	<path fill="#FFFFFF" stroke="#000000" stroke-miterlimit="10" d="M453.045,126.371h18.175v7.504
		c2.314-2.809,5.121-4.917,8.417-6.322c3.296-1.402,6.77-2.107,10.425-2.107c1.78,0,3.25,0.051,4.41,0.154
		c1.155,0.104,2.181,0.223,3.073,0.359l-2.272,13.057c-2.138-0.412-4.766-0.618-7.885-0.618c-2.05,0-4.009,0.19-5.878,0.566
		c-1.873,0.375-3.564,1.079-5.077,2.106c-1.606,1.097-2.787,2.33-3.544,3.7c-0.757,1.373-1.135,2.777-1.135,4.216v31.043h-18.709
		V126.371L453.045,126.371z"/>
	<path fill="#FFFFFF" stroke="#000000" stroke-miterlimit="10" d="M506.897,106.635h19.243v12.953h-19.243V106.635z
		 M507.164,126.371h18.707v53.658h-18.707V126.371z"/>
	<path fill="#FFFFFF" stroke="#000000" stroke-miterlimit="10" d="M540.57,126.371h18.175v7.403c2.76-3.152,6.033-5.45,9.82-6.888
		c3.785-1.44,7.729-2.16,11.826-2.16c7.928,0,13.81,1.593,17.64,4.78c3.829,3.188,5.746,8.208,5.746,15.061v35.463h-18.708v-33.51
		c0-3.769-0.937-6.337-2.807-7.71c-1.871-1.369-4.366-2.056-7.482-2.056c-2.406,0-4.478,0.275-6.215,0.823
		c-1.738,0.55-3.362,1.337-4.877,2.363c-1.249,0.962-2.296,2.108-3.141,3.445c-0.85,1.336-1.271,2.792-1.271,4.369v32.276H540.57
		V126.371z"/>
	<path fill="#FFFFFF" stroke="#000000" stroke-miterlimit="10" d="M636.781,183.421c0.354,1.369,0.87,2.468,1.536,3.29
		c0.669,0.823,1.558,1.475,2.673,1.952c1.112,0.479,2.45,0.806,4.009,0.978c1.56,0.17,3.453,0.258,5.682,0.258
		c3.474,0,6.188-0.5,8.149-1.489c1.958-0.995,3.408-2.314,4.345-3.959c0.935-1.646,1.514-3.53,1.736-5.654
		c0.222-2.122,0.334-4.317,0.334-6.577v-1.646c-2.316,2.604-5.278,4.575-8.888,5.909c-3.607,1.338-7.683,2.004-12.227,2.004
		c-9.802,0-17.128-2.43-21.982-7.297c-4.855-4.864-7.281-11.409-7.281-19.633c0-3.907,0.688-7.505,2.07-10.795
		c1.38-3.288,3.361-6.115,5.948-8.479c2.582-2.366,5.764-4.214,9.553-5.552c3.786-1.335,8.038-2.004,12.762-2.004
		c3.741,0,7.37,0.551,10.891,1.645c3.519,1.098,6.749,3.119,9.688,6.065v-6.065h18.174v46.153c0,4.523-0.602,8.549-1.803,12.078
		c-1.203,3.529-3.121,6.528-5.746,8.996c-2.63,2.465-6.061,4.332-10.291,5.603c-4.231,1.266-9.377,1.899-15.433,1.899
		c-5.614,0-10.403-0.358-14.366-1.076c-3.965-0.723-7.238-1.817-9.821-3.291c-2.586-1.477-4.565-3.325-5.946-5.551
		c-1.383-2.229-2.294-4.815-2.739-7.763H636.781L636.781,183.421z M665.381,151.352c0-3.222-0.47-5.825-1.405-7.812
		c-0.937-1.986-2.162-3.511-3.675-4.574c-1.517-1.062-3.207-1.765-5.077-2.107c-1.872-0.344-3.742-0.515-5.612-0.515
		c-2.051,0-3.989,0.275-5.813,0.822c-1.826,0.55-3.432,1.441-4.811,2.673c-1.383,1.233-2.472,2.81-3.272,4.729
		c-0.803,1.918-1.203,4.213-1.203,6.887c0,5.688,1.402,9.714,4.209,12.077c2.807,2.365,6.301,3.548,10.49,3.548
		c2.313,0,4.477-0.257,6.481-0.771c2.004-0.517,3.718-1.338,5.144-2.469c1.425-1.131,2.539-2.604,3.343-4.42
		c0.801-1.816,1.203-4.025,1.203-6.632L665.381,151.352L665.381,151.352z"/>
	<path fill="#FFFFFF" stroke="#000000" stroke-miterlimit="10" d="M200.042,232.618c-0.598,0.198-1.229,0.298-1.891,0.298
		c-0.93,0-1.592-0.182-1.989-0.547c-0.398-0.362-0.664-0.745-0.796-1.143c-1.525-3.781-3.497-6.5-5.917-8.158
		c-2.422-1.656-5.656-2.485-9.7-2.485c-3.184,0-5.887,0.78-8.105,2.338c-2.225,1.556-3.334,3.927-3.334,7.11
		c0,2.453,0.848,4.426,2.537,5.919c1.69,1.491,3.812,2.803,6.367,3.93c2.551,1.129,5.304,2.224,8.257,3.282
		c2.95,1.062,5.702,2.388,8.255,3.979c2.554,1.592,4.675,3.616,6.367,6.068c1.692,2.455,2.537,5.605,2.537,9.448
		c0,2.522-0.432,4.975-1.293,7.362c-0.864,2.389-2.225,4.492-4.079,6.316c-1.857,1.825-4.213,3.282-7.062,4.377
		c-2.853,1.094-6.268,1.643-10.244,1.643c-4.378,0-8.292-0.474-11.739-1.414c-3.449-0.943-6.302-1.967-8.555-3.072
		c-0.199-2.846-0.516-5.643-0.945-8.395c-0.434-2.754-0.914-5.424-1.443-8.01c0.663-0.266,1.427-0.396,2.288-0.396
		c0.796,0,1.393,0.147,1.791,0.445c0.398,0.299,0.729,0.813,0.994,1.543c0.861,2.521,1.824,4.69,2.885,6.515
		c1.062,1.825,2.29,3.319,3.683,4.479c1.393,1.158,2.999,2.005,4.825,2.534c1.823,0.532,3.929,0.796,6.316,0.796
		c2.055,0,3.812-0.28,5.273-0.848c1.458-0.563,2.65-1.312,3.579-2.24c0.929-0.931,1.625-2.026,2.092-3.289
		c0.462-1.261,0.695-2.556,0.695-3.886c0-2.854-0.812-5.098-2.438-6.725s-3.648-2.988-6.068-4.084
		c-2.422-1.097-5.041-2.125-7.858-3.088c-2.819-0.966-5.438-2.191-7.857-3.688c-2.422-1.495-4.444-3.421-6.069-5.779
		c-1.625-2.356-2.437-5.528-2.437-9.515c0-2.658,0.479-5.135,1.44-7.424c0.963-2.293,2.371-4.282,4.229-5.979
		c1.856-1.695,4.093-3.039,6.714-4.036c2.618-0.993,5.62-1.495,9.004-1.495c2.784,0,5.585,0.301,8.404,0.896
		c2.819,0.598,6.019,1.592,9.6,2.984c0.134,1.988,0.349,4.228,0.648,6.715C199.297,228.389,199.644,230.629,200.042,232.618z"/>
	<path fill="#FFFFFF" stroke="#000000" stroke-miterlimit="10" d="M244.009,282.355c-5.571,0-10.446-0.863-14.624-2.586
		c-4.178-1.724-7.626-4.095-10.346-7.111c-2.721-3.018-4.758-6.566-6.117-10.645c-1.36-4.08-2.04-8.472-2.04-13.183
		c0-3.912,0.663-7.858,1.99-11.837c1.326-3.979,3.414-7.576,6.268-10.793c2.85-3.219,6.499-5.836,10.941-7.859
		c4.442-2.021,9.749-3.033,15.917-3.033c3.382,0,6.547,0.232,9.499,0.697c2.949,0.463,6.149,1.159,9.599,2.089
		c0.133,1.789,0.398,4.077,0.797,6.862c0.396,2.785,0.96,5.505,1.69,8.158c-0.332,0.064-0.764,0.146-1.294,0.248
		c-0.531,0.1-0.93,0.147-1.193,0.147c-0.531,0-0.979-0.081-1.342-0.249c-0.366-0.162-0.615-0.512-0.747-1.044
		c-0.73-2.188-1.56-4.026-2.487-5.52c-0.929-1.493-2.04-2.688-3.332-3.582c-1.293-0.896-2.802-1.542-4.526-1.94
		c-1.727-0.398-3.746-0.595-6.068-0.595c-3.582,0-6.748,0.61-9.5,1.839c-2.751,1.229-5.057,2.984-6.912,5.271
		c-1.859,2.289-3.268,5.041-4.229,8.257c-0.961,3.218-1.441,6.849-1.441,10.894c0,4.311,0.58,8.322,1.741,12.036
		c1.159,3.715,2.751,6.931,4.774,9.649c2.022,2.721,4.427,4.841,7.212,6.365c2.786,1.525,5.803,2.289,9.052,2.289
		c2.651,0,4.926-0.248,6.814-0.748c1.89-0.496,3.516-1.259,4.875-2.287c1.359-1.027,2.521-2.338,3.481-3.929
		c0.96-1.593,1.841-3.446,2.636-5.569c0.2-0.53,0.513-0.912,0.946-1.146c0.431-0.231,0.877-0.349,1.342-0.349
		c0.333,0,0.747,0.049,1.244,0.148s0.911,0.217,1.243,0.35c-0.398,1.127-0.813,2.402-1.243,3.828
		c-0.434,1.429-0.88,2.885-1.342,4.377c-0.466,1.492-0.882,2.984-1.244,4.478c-0.366,1.492-0.683,2.937-0.946,4.329
		c-3.249,0.595-6.565,1.025-9.947,1.292C251.768,282.225,248.054,282.355,244.009,282.355z"/>
	<path fill="#FFFFFF" stroke="#000000" stroke-miterlimit="10" d="M337.416,273.802c0,0.663,0.051,1.212,0.149,1.642
		c0.1,0.431,0.364,0.812,0.796,1.144c0.432,0.334,1.061,0.615,1.891,0.845c0.828,0.233,1.938,0.449,3.332,0.648
		c0.661,0.133,0.995,0.695,0.995,1.689c0,0.201-0.018,0.498-0.05,0.897c-0.034,0.397-0.084,0.729-0.148,0.994
		c-2.124-0.134-4.378-0.25-6.766-0.351c-2.388-0.099-4.511-0.148-6.365-0.148c-1.926,0-4.097,0.051-6.518,0.148
		c-2.42,0.101-4.691,0.217-6.812,0.351c-0.136-0.267-0.199-0.597-0.199-0.994c0-0.399,0-0.696,0-0.897
		c0-1.06,0.33-1.623,0.994-1.689c1.392-0.199,2.503-0.415,3.332-0.648c0.829-0.229,1.441-0.511,1.841-0.845
		c0.397-0.33,0.663-0.713,0.796-1.144c0.131-0.43,0.199-0.979,0.199-1.642v-23.377h-26.858v23.377c0,0.663,0.048,1.212,0.148,1.642
		c0.099,0.431,0.364,0.812,0.795,1.144c0.431,0.334,1.061,0.615,1.891,0.845c0.828,0.233,1.94,0.449,3.332,0.648
		c0.663,0.133,0.994,0.695,0.994,1.689c0,0.201-0.016,0.498-0.048,0.897c-0.034,0.397-0.084,0.729-0.149,0.994
		c-2.125-0.134-4.411-0.25-6.864-0.351c-2.455-0.099-4.61-0.148-6.465-0.148c-1.859,0-3.98,0.051-6.368,0.148
		c-2.388,0.101-4.643,0.217-6.766,0.351c-0.132-0.267-0.196-0.597-0.196-0.994c0-0.399,0-0.696,0-0.897
		c0-1.06,0.33-1.623,0.993-1.689c1.394-0.199,2.504-0.415,3.332-0.648c0.829-0.229,1.443-0.511,1.842-0.845
		c0.397-0.33,0.661-0.713,0.795-1.144c0.132-0.43,0.198-0.979,0.198-1.642v-49.84c0-0.659-0.065-1.207-0.198-1.642
		c-0.133-0.43-0.397-0.81-0.795-1.144c-0.398-0.329-1.013-0.61-1.842-0.845c-0.828-0.23-1.938-0.448-3.332-0.646
		c-0.663-0.199-0.993-0.763-0.993-1.69c0-0.199,0-0.498,0-0.896c0-0.396,0.064-0.764,0.196-1.094
		c2.123,0.133,4.378,0.248,6.766,0.346c2.388,0.103,4.509,0.149,6.368,0.149c1.854,0,4.01-0.048,6.465-0.149
		c2.453-0.098,4.739-0.213,6.864-0.346c0.065,0.33,0.115,0.696,0.149,1.094c0.032,0.396,0.048,0.695,0.048,0.896
		c0,0.929-0.332,1.491-0.994,1.69c-1.392,0.198-2.504,0.416-3.332,0.646c-0.83,0.232-1.46,0.516-1.891,0.845
		c-0.431,0.334-0.696,0.714-0.795,1.144c-0.101,0.435-0.148,0.981-0.148,1.642v21.19h26.858v-21.19c0-0.659-0.068-1.207-0.199-1.642
		c-0.134-0.43-0.398-0.81-0.796-1.144c-0.398-0.329-1.012-0.61-1.841-0.845c-0.829-0.23-1.94-0.448-3.332-0.646
		c-0.664-0.199-0.994-0.763-0.994-1.69c0-0.199,0-0.498,0-0.896c0-0.396,0.063-0.764,0.199-1.094
		c2.121,0.133,4.393,0.248,6.812,0.346c2.421,0.103,4.592,0.149,6.518,0.149c1.854,0,3.979-0.048,6.365-0.149
		c2.388-0.098,4.642-0.213,6.766-0.346c0.064,0.33,0.114,0.696,0.148,1.094c0.033,0.396,0.05,0.695,0.05,0.896
		c0,0.929-0.333,1.491-0.995,1.69c-1.394,0.198-2.504,0.416-3.332,0.646c-0.831,0.232-1.459,0.516-1.891,0.845
		c-0.432,0.334-0.696,0.714-0.796,1.144c-0.099,0.435-0.149,0.981-0.149,1.642V273.802z"/>
	<path fill="#FFFFFF" stroke="#000000" stroke-miterlimit="10" d="M352.338,248.832c0-4.641,0.876-8.986,2.635-13.03
		c1.756-4.044,4.162-7.593,7.212-10.644c3.051-3.051,6.615-5.455,10.694-7.213c4.078-1.758,8.438-2.637,13.081-2.637
		c4.772,0,9.217,0.83,13.328,2.486c4.11,1.659,7.677,3.98,10.693,6.963c3.019,2.984,5.388,6.533,7.113,10.645
		c1.724,4.113,2.585,8.59,2.585,13.43c0,4.643-0.879,9.004-2.635,13.081c-1.761,4.08-4.163,7.626-7.213,10.644
		c-3.052,3.021-6.632,5.407-10.743,7.164c-4.112,1.756-8.489,2.637-13.13,2.637c-4.775,0-9.221-0.83-13.33-2.486
		c-4.113-1.658-7.661-3.98-10.646-6.964c-2.981-2.984-5.337-6.517-7.062-10.595C353.197,258.232,352.338,253.74,352.338,248.832z
		 M387.451,277.184c2.784,0,5.305-0.613,7.561-1.841c2.253-1.226,4.192-2.899,5.819-5.022c1.623-2.121,2.884-4.608,3.778-7.461
		c0.896-2.852,1.344-5.901,1.344-9.151c0-4.708-0.447-9.085-1.344-13.131c-0.896-4.044-2.255-7.543-4.078-10.494
		c-1.824-2.951-4.111-5.274-6.863-6.964c-2.753-1.691-5.952-2.535-9.599-2.535c-2.322,0-4.575,0.516-6.766,1.541
		c-2.188,1.029-4.112,2.521-5.771,4.475c-1.658,1.959-2.983,4.329-3.979,7.114c-0.996,2.785-1.492,5.937-1.492,9.449
		c0,4.909,0.481,9.45,1.442,13.629c0.959,4.178,2.354,7.774,4.179,10.793c1.823,3.019,4.061,5.372,6.714,7.062
		C381.051,276.338,384.07,277.184,387.451,277.184z"/>
	<path fill="#FFFFFF" stroke="#000000" stroke-miterlimit="10" d="M427.143,248.832c0-4.641,0.876-8.986,2.635-13.03
		c1.756-4.044,4.162-7.593,7.212-10.644c3.052-3.051,6.615-5.455,10.694-7.213c4.078-1.758,8.438-2.637,13.081-2.637
		c4.772,0,9.217,0.83,13.329,2.486c4.109,1.659,7.676,3.98,10.692,6.963c3.019,2.984,5.389,6.533,7.113,10.645
		c1.726,4.113,2.585,8.59,2.585,13.43c0,4.643-0.879,9.004-2.636,13.081c-1.759,4.08-4.162,7.626-7.211,10.644
		c-3.052,3.021-6.632,5.407-10.744,7.164c-4.112,1.756-8.489,2.637-13.13,2.637c-4.776,0-9.22-0.83-13.33-2.486
		c-4.113-1.658-7.661-3.98-10.646-6.964c-2.981-2.984-5.337-6.517-7.062-10.595C428.002,258.232,427.143,253.74,427.143,248.832z
		 M462.257,277.184c2.783,0,5.304-0.613,7.56-1.841c2.253-1.226,4.193-2.899,5.82-5.022c1.623-2.121,2.883-4.608,3.777-7.461
		c0.896-2.852,1.345-5.901,1.345-9.151c0-4.708-0.448-9.085-1.345-13.131c-0.896-4.044-2.255-7.543-4.077-10.494
		c-1.824-2.951-4.112-5.274-6.864-6.964c-2.752-1.691-5.952-2.535-9.598-2.535c-2.322,0-4.575,0.516-6.767,1.541
		c-2.188,1.029-4.112,2.521-5.77,4.475c-1.659,1.959-2.984,4.329-3.979,7.114c-0.996,2.785-1.492,5.937-1.492,9.449
		c0,4.909,0.479,9.45,1.442,13.629c0.959,4.178,2.354,7.774,4.179,10.793c1.823,3.019,4.062,5.372,6.714,7.062
		C455.855,276.338,458.875,277.184,462.257,277.184z"/>
	<path fill="#FFFFFF" stroke="#000000" stroke-miterlimit="10" d="M523.234,272.707c0,1.393,0.896,2.32,2.687,2.785
		c1.789,0.466,4.74,0.695,8.854,0.695h3.778c1.658,0,3.102-0.182,4.328-0.549c1.228-0.361,2.305-0.977,3.233-1.838
		c0.928-0.861,1.772-1.973,2.536-3.332c0.762-1.359,1.508-3,2.237-4.926c0.199-0.529,0.697-0.795,1.494-0.795
		c0.329,0,0.729,0.1,1.191,0.298c0.463,0.199,0.929,0.397,1.394,0.599c-0.531,2.121-1.013,4.426-1.443,6.912
		c-0.432,2.487-0.812,4.926-1.142,7.312c-0.068,0.797-0.284,1.292-0.648,1.492c-0.364,0.197-0.746,0.299-1.143,0.299
		c-0.533,0-1.278-0.036-2.239-0.102c-0.962-0.067-2.007-0.115-3.133-0.148c-1.129-0.035-2.273-0.084-3.434-0.149
		c-1.161-0.067-2.173-0.1-3.033-0.1H516.17c-1.924,0-4.127,0.051-6.613,0.147c-2.487,0.102-4.728,0.217-6.717,0.352
		c-0.133-0.266-0.197-0.613-0.197-1.047c0-0.432,0-0.744,0-0.945c0-0.995,0.33-1.523,0.994-1.59c2.52-0.463,4.328-0.961,5.421-1.493
		c1.095-0.528,1.642-1.457,1.642-2.784v-49.84c0-0.659-0.065-1.207-0.199-1.641c-0.133-0.43-0.396-0.811-0.795-1.145
		c-0.397-0.33-1.012-0.611-1.841-0.845c-0.829-0.231-1.938-0.448-3.332-0.647c-0.663-0.197-0.994-0.762-0.994-1.689
		c0-0.199,0-0.498,0-0.896c0-0.396,0.065-0.763,0.197-1.093c2.122,0.132,4.378,0.248,6.765,0.347
		c2.39,0.102,4.511,0.148,6.368,0.148c0.928,0,1.987-0.016,3.185-0.048c1.192-0.033,2.437-0.065,3.729-0.103
		c1.293-0.031,2.586-0.08,3.88-0.147c1.293-0.065,2.471-0.134,3.53-0.197c0.065,0.33,0.115,0.696,0.15,1.093
		c0.031,0.397,0.049,0.696,0.049,0.896c0,0.929-0.333,1.492-0.995,1.689c-2.852,0.398-4.758,0.914-5.718,1.543
		c-0.965,0.631-1.443,1.607-1.443,2.937L523.234,272.707L523.234,272.707z"/>
</g>
</svg>
