<?xml version="1.0" encoding="utf-8"?>
<!-- Generator: Adobe Illustrator 16.0.0, SVG Export Plug-In . SVG Version: 6.00 Build 0)  -->
<!DOCTYPE svg PUBLIC "-//W3C//DTD SVG 1.1//EN" "http://www.w3.org/Graphics/SVG/1.1/DTD/svg11.dtd">
<svg version="1.1" id="Layer_1" xmlns="http://www.w3.org/2000/svg" xmlns:xlink="http://www.w3.org/1999/xlink" x="0px" y="0px"
	 width="700px" height="300px" viewBox="0 0 700 300" enable-background="new 0 0 700 300" xml:space="preserve">
<g>
	<path fill="#FFFFFF" d="M260.886,21.585h-30.194V7.649h81.463v13.936h-30.196V84.79H260.89L260.886,21.585L260.886,21.585z"/>
	<path fill="#FFFFFF" d="M324.373,7.648h19.663v27.874c2.903-3.027,6.272-5.257,10.107-6.698c3.842-1.438,7.866-2.162,12.082-2.162
		c8.335,0,14.515,1.676,18.543,5.024c4.022,3.348,6.036,8.627,6.036,15.827v37.273h-19.657V49.568c0-3.962-0.989-6.663-2.956-8.103
		c-1.964-1.439-4.589-2.162-7.865-2.162c-2.527,0-4.703,0.29-6.528,0.865c-1.825,0.577-3.537,1.406-5.125,2.483
		c-1.312,1.011-2.413,2.216-3.301,3.62c-0.892,1.403-1.334,2.935-1.334,4.593v33.922h-19.664L324.373,7.648L324.373,7.648z"/>
	<path fill="#FFFFFF" d="M472.551,67.18c-1.315,6.34-4.61,11.146-9.901,14.423c-5.288,3.275-12.99,4.915-23.107,4.915
		c-12.168,0-21.326-2.593-27.455-7.778c-6.137-5.185-9.201-12.533-9.201-22.041c0-4.756,0.889-8.984,2.67-12.695
		c1.777-3.709,4.286-6.861,7.516-9.454c3.229-2.591,7.093-4.554,11.584-5.887c4.496-1.332,9.457-2,14.887-2
		c11.235,0,19.688,2.485,25.35,7.455c5.667,4.97,8.499,11.671,8.499,20.098v6.048h-50.845c0.185,4.538,1.688,8.086,4.495,10.644
		c2.808,2.559,7.021,3.838,12.64,3.838c7.772,0,12.364-2.521,13.766-7.564H472.551z M454.431,50.325c0-3.89-1.244-6.915-3.724-9.075
		c-2.481-2.161-6.344-3.242-11.582-3.242c-2.625,0-4.915,0.324-6.884,0.974c-1.967,0.647-3.632,1.532-4.983,2.646
		c-1.36,1.118-2.413,2.415-3.163,3.889c-0.749,1.477-1.171,3.08-1.262,4.809H454.431z"/>
	<path fill="#FFFFFF" d="M0,110.46h23.594l16.151,53.588l16.431-53.155H78.37l17.134,53.155l15.172-53.588h22.469l-27.244,77.141
		H85.534l-18.681-57.044l-18.117,57.044H28.932L0,110.46z"/>
	<path fill="#FFFFFF" d="M178.23,180.471c-2.904,2.522-6.157,4.573-9.759,6.156c-3.606,1.584-8.266,2.377-13.976,2.377
		c-3.278,0-6.393-0.323-9.339-0.971c-2.951-0.647-5.528-1.654-7.726-3.026c-2.201-1.367-3.958-3.112-5.269-5.238
		c-1.31-2.121-1.965-4.662-1.965-7.617c0-3.89,1.127-7.06,3.369-9.509c2.249-2.445,5.198-4.357,8.854-5.727
		c3.649-1.367,7.748-2.338,12.29-2.912c4.54-0.576,9.15-0.938,13.834-1.082l9.409-0.326v-2.807c0-3.457-1.24-5.834-3.72-7.13
		c-2.479-1.297-5.405-1.947-8.779-1.947c-7.773,0-12.219,2.271-13.342,6.806l-17.984-1.295c1.312-5.906,4.679-10.173,10.112-12.801
		c5.43-2.63,12.735-3.945,21.909-3.945c5.623,0,10.397,0.524,14.327,1.566c3.933,1.044,7.093,2.539,9.481,4.486
		c2.389,1.944,4.119,4.302,5.196,7.075c1.076,2.773,1.616,5.888,1.616,9.346v35.65h-18.542L178.23,180.471L178.23,180.471z
		 M177.808,162.431l-8.706,0.323c-4.125,0.146-7.448,0.472-9.972,0.973c-2.533,0.504-4.472,1.138-5.831,1.89
		c-1.36,0.756-2.271,1.643-2.74,2.649c-0.471,1.008-0.7,2.124-0.7,3.346c0,1.873,0.843,3.347,2.528,4.432
		c1.685,1.078,4.024,1.622,7.021,1.622c5.058,0,9.176-0.902,12.36-2.702c1.776-1.005,3.23-2.285,4.354-3.835
		c1.124-1.547,1.684-3.475,1.684-5.781V162.431z"/>
	<path fill="#FFFFFF" d="M211.378,131.205h19.101v7.779c2.902-3.312,6.342-5.725,10.325-7.238c3.979-1.512,8.122-2.27,12.43-2.27
		c8.335,0,14.516,1.676,18.541,5.024c4.024,3.35,6.042,8.63,6.042,15.828v37.271h-19.669v-35.219c0-3.959-0.983-6.66-2.948-8.102
		c-1.966-1.439-4.591-2.161-7.865-2.161c-2.528,0-4.708,0.289-6.532,0.864c-1.828,0.576-3.537,1.406-5.127,2.483
		c-1.309,1.011-2.409,2.217-3.3,3.62c-0.893,1.403-1.334,2.937-1.334,4.594v33.92h-19.66L211.378,131.205L211.378,131.205z"/>
	<path fill="#FFFFFF" d="M343.544,180.149c-5.622,6.125-13.206,9.181-22.756,9.181c-10.301,0-17.973-2.664-23.034-7.991
		c-5.055-5.332-7.583-12.713-7.583-22.151c0-4.391,0.723-8.406,2.173-12.047c1.45-3.634,3.537-6.769,6.255-9.399
		c2.709-2.629,6.04-4.664,9.968-6.104c3.933-1.438,8.378-2.162,13.342-2.162c3.649,0,7.279,0.505,10.887,1.513
		c3.602,1.01,6.997,2.956,10.179,5.834V110.46h19.664v77.141h-19.101v-7.451H343.544z M343.122,158.755
		c0-3.601-0.401-6.482-1.195-8.642c-0.796-2.161-2.085-3.925-3.86-5.292c-1.686-1.297-3.538-2.146-5.55-2.537
		c-2.016-0.397-4.005-0.598-5.97-0.598c-2.153,0-4.191,0.325-6.108,0.975c-1.923,0.647-3.607,1.657-5.058,3.022
		c-1.452,1.371-2.598,3.171-3.441,5.403c-0.842,2.233-1.264,4.899-1.264,7.996c0,3.389,0.397,6.209,1.193,8.481
		c0.795,2.265,1.896,4.104,3.302,5.512c1.404,1.401,3.041,2.411,4.915,3.026c1.872,0.61,3.885,0.916,6.04,0.916
		c4.682,0,8.521-1.039,11.516-3.129c1.872-1.438,3.253-3.192,4.145-5.243c0.889-2.053,1.335-4.703,1.335-7.941V158.755z"/>
	<path fill="#FFFFFF" d="M444.108,169.993c-1.315,6.339-4.607,11.143-9.898,14.424c-5.291,3.272-12.995,4.913-23.11,4.913
		c-12.165,0-21.325-2.596-27.453-7.779c-6.139-5.182-9.203-12.53-9.203-22.037c0-4.756,0.894-8.984,2.673-12.695
		c1.777-3.71,4.281-6.862,7.511-9.454c3.233-2.594,7.093-4.555,11.589-5.888c4.493-1.331,9.454-2,14.884-2
		c11.238,0,19.686,2.486,25.353,7.455c5.665,4.971,8.499,11.67,8.499,20.099v6.047h-50.846c0.189,4.539,1.687,8.09,4.494,10.644
		c2.812,2.557,7.022,3.838,12.642,3.838c7.772,0,12.361-2.525,13.766-7.563L444.108,169.993L444.108,169.993z M425.991,153.138
		c0-3.891-1.244-6.915-3.724-9.076c-2.481-2.161-6.344-3.241-11.589-3.241c-2.618,0-4.913,0.324-6.88,0.973
		c-1.964,0.646-3.63,1.531-4.985,2.646c-1.358,1.119-2.408,2.415-3.158,3.89c-0.752,1.477-1.171,3.079-1.267,4.81H425.991
		L425.991,153.138z"/>
	<path fill="#FFFFFF" d="M457.309,131.205h19.102v7.888c2.434-2.951,5.385-5.167,8.851-6.645c3.461-1.475,7.111-2.216,10.956-2.216
		c1.873,0,3.418,0.055,4.635,0.163c1.214,0.106,2.294,0.234,3.229,0.376l-2.389,13.723c-2.244-0.433-5.008-0.649-8.285-0.649
		c-2.155,0-4.213,0.199-6.18,0.594c-1.964,0.396-3.746,1.136-5.334,2.215c-1.688,1.153-2.93,2.449-3.721,3.889
		c-0.798,1.443-1.194,2.913-1.194,4.431v32.628h-19.662v-56.396H457.309z"/>
	<path fill="#FFFFFF" d="M513.91,110.46h20.228v13.614H513.91V110.46z M514.192,131.205h19.66v56.396h-19.66V131.205z"/>
	<path fill="#FFFFFF" d="M549.304,131.205h19.096v7.779c2.905-3.312,6.348-5.725,10.326-7.238c3.981-1.512,8.121-2.27,12.431-2.27
		c8.34,0,14.517,1.676,18.543,5.024c4.022,3.35,6.041,8.63,6.041,15.828v37.271h-19.662v-35.219c0-3.959-0.984-6.66-2.951-8.102
		c-1.967-1.439-4.592-2.161-7.866-2.161c-2.531,0-4.703,0.289-6.53,0.864c-1.825,0.576-3.534,1.406-5.125,2.483
		c-1.314,1.011-2.415,2.217-3.302,3.62c-0.893,1.403-1.335,2.937-1.335,4.594v33.92h-19.66v-56.396H549.304z"/>
	<path fill="#FFFFFF" d="M650.428,191.171c0.371,1.438,0.914,2.591,1.615,3.454c0.7,0.864,1.637,1.548,2.811,2.054
		c1.166,0.503,2.572,0.845,4.213,1.022c1.639,0.185,3.627,0.271,5.97,0.271c3.653,0,6.506-0.524,8.567-1.565
		c2.061-1.048,3.58-2.434,4.562-4.161c0.984-1.727,1.595-3.712,1.827-5.94c0.235-2.235,0.354-4.536,0.354-6.918v-1.727
		c-2.44,2.738-5.551,4.808-9.345,6.211c-3.792,1.406-8.073,2.104-12.848,2.104c-10.304,0-18.006-2.555-23.109-7.675
		c-5.104-5.11-7.654-11.987-7.654-20.631c0-4.105,0.725-7.886,2.177-11.345c1.448-3.458,3.534-6.431,6.25-8.914
		c2.716-2.485,6.062-4.428,10.042-5.833c3.98-1.406,8.447-2.108,13.412-2.108c3.933,0,7.747,0.578,11.447,1.729
		c3.696,1.154,7.092,3.278,10.18,6.375v-6.375H700v48.509c0,4.753-0.634,8.984-1.896,12.694c-1.262,3.71-3.273,6.858-6.038,9.454
		c-2.762,2.591-6.368,4.555-10.816,5.888s-9.857,2.001-16.222,2.001c-5.902,0-10.934-0.378-15.101-1.137
		c-4.168-0.762-7.606-1.907-10.327-3.457c-2.716-1.557-4.799-3.495-6.248-5.838s-2.413-5.061-2.88-8.155h19.952v0.014H650.428z
		 M680.485,157.458c0-3.384-0.492-6.122-1.479-8.211c-0.982-2.088-2.27-3.689-3.858-4.809c-1.595-1.114-3.372-1.854-5.336-2.214
		c-1.965-0.358-3.934-0.541-5.904-0.541c-2.153,0-4.188,0.289-6.106,0.864c-1.921,0.579-3.607,1.513-5.054,2.808
		c-1.454,1.298-2.603,2.955-3.443,4.972c-0.844,2.014-1.265,4.429-1.265,7.236c0,5.981,1.477,10.213,4.425,12.696
		c2.951,2.486,6.624,3.724,11.026,3.724c2.434,0,4.703-0.265,6.812-0.81c2.105-0.54,3.91-1.405,5.409-2.593
		c1.497-1.191,2.666-2.739,3.509-4.648c0.841-1.909,1.265-4.227,1.265-6.966V157.458L680.485,157.458z"/>
	<path fill="#FFFFFF" d="M150.632,265.242c0.472,4.754,2.462,8.21,5.973,10.37c3.508,2.163,8.684,3.243,15.521,3.243
		c3.273,0,6.04-0.27,8.284-0.81c2.246-0.542,4.075-1.262,5.476-2.162c1.406-0.902,2.41-1.962,3.019-3.192
		c0.608-1.217,0.916-2.555,0.916-3.997c0-2.017-0.984-3.907-2.952-5.671c-1.963-1.764-5.569-3.047-10.813-3.838l-13.064-1.836
		c-5.151-0.72-9.688-1.654-13.622-2.808c-3.932-1.15-7.234-2.646-9.905-4.484c-2.668-1.839-4.702-4.088-6.107-6.752
		c-1.404-2.668-2.104-5.838-2.104-9.511c0-3.675,0.959-6.913,2.878-9.726c1.921-2.807,4.589-5.146,8.007-7.02
		c3.416-1.873,7.514-3.295,12.289-4.269c4.776-0.973,10.021-1.456,15.732-1.456c7.304,0,13.389,0.647,18.26,1.944
		c4.87,1.299,8.798,3.008,11.798,5.134c2.995,2.121,5.219,4.594,6.67,7.396c1.449,2.813,2.407,5.726,2.879,8.752L189.96,236.5
		c-1.032-4.25-3.021-7.31-5.971-9.183c-2.949-1.873-7.423-2.811-13.411-2.811c-3.565,0-6.487,0.23-8.782,0.7
		c-2.298,0.472-4.145,1.077-5.548,1.837c-1.406,0.756-2.389,1.638-2.951,2.645c-0.564,1.01-0.845,2.054-0.845,3.136
		c0,2.88,1.054,5.038,3.161,6.48c2.106,1.442,5.688,2.56,10.744,3.348l13.768,2.053c10.858,1.657,18.822,4.341,23.874,8.046
		c5.056,3.712,7.587,9.062,7.587,16.049c0,3.388-0.822,6.498-2.459,9.345c-1.64,2.844-4.073,5.332-7.303,7.455
		c-3.23,2.126-7.284,3.785-12.154,4.97c-4.868,1.189-10.581,1.782-17.133,1.782c-13.672,0-24.139-2.251-31.394-6.752
		c-7.257-4.502-11.165-11.286-11.723-20.364h21.208v0.007H150.632z"/>
	<path fill="#FFFFFF" d="M289.96,269.996c-0.75,6.77-3.771,12.156-9.061,16.146c-5.289,4.001-13.227,5.997-23.804,5.997
		c-6.181,0-11.518-0.72-16.015-2.162c-4.492-1.438-8.167-3.455-11.025-6.05c-2.854-2.591-4.986-5.727-6.389-9.397
		c-1.404-3.678-2.107-7.747-2.107-12.211s0.818-8.557,2.461-12.262c1.638-3.709,4.003-6.879,7.092-9.509
		c3.091-2.627,6.882-4.667,11.378-6.104c4.492-1.438,9.642-2.162,15.447-2.162c4.963,0,9.296,0.485,12.993,1.456
		c3.696,0.973,6.813,2.319,9.342,4.054c2.533,1.729,4.492,3.799,5.898,6.209c1.409,2.413,2.337,5.059,2.811,7.941l-19.804,2.053
		c-0.471-2.883-1.545-5.202-3.233-6.968c-1.686-1.762-4.589-2.647-8.708-2.647c-2.998,0-5.479,0.484-7.447,1.463
		c-1.963,0.971-3.537,2.283-4.707,3.938c-1.171,1.656-1.99,3.55-2.458,5.671c-0.471,2.126-0.702,4.341-0.702,6.646
		c0,2.379,0.234,4.646,0.702,6.807c0.467,2.162,1.262,4.069,2.387,5.727c1.127,1.654,2.672,2.971,4.632,3.939
		c1.968,0.976,4.449,1.461,7.45,1.461c3.931,0,6.975-0.864,9.129-2.596c2.153-1.728,3.419-4.216,3.792-7.453h19.944L289.96,269.996
		L289.96,269.996z"/>
	<path fill="#FFFFFF" d="M303.3,213.271h19.665v27.877c2.904-3.024,6.272-5.255,10.111-6.697c3.838-1.442,7.865-2.162,12.079-2.162
		c8.334,0,14.514,1.673,18.541,5.024c4.023,3.348,6.038,8.627,6.038,15.827v37.274h-19.66v-35.221c0-3.961-0.985-6.661-2.948-8.104
		c-1.967-1.438-4.592-2.162-7.865-2.162c-2.531,0-4.706,0.289-6.531,0.863c-1.827,0.576-3.533,1.408-5.125,2.484
		c-1.314,1.007-2.414,2.215-3.302,3.623c-0.891,1.4-1.334,2.932-1.334,4.591v33.92h-19.661V213.27H303.3V213.271z"/>
	<path fill="#FFFFFF" d="M418.893,292.145c-11.794,0-20.925-2.598-27.387-7.779c-6.46-5.185-9.688-12.605-9.688-22.256
		c0-4.607,0.863-8.769,2.595-12.478c1.732-3.71,4.214-6.841,7.449-9.402c3.229-2.549,7.139-4.518,11.724-5.888
		c4.589-1.364,9.693-2.048,15.312-2.048c5.708,0,10.86,0.684,15.449,2.048c4.591,1.37,8.499,3.339,11.728,5.888
		c3.229,2.562,5.69,5.692,7.372,9.402c1.687,3.712,2.534,7.87,2.534,12.478c0,4.681-0.869,8.878-2.603,12.59
		c-1.731,3.712-4.214,6.86-7.446,9.451c-3.229,2.594-7.14,4.573-11.722,5.938C429.611,291.461,424.51,292.145,418.893,292.145z
		 M418.893,280.047c5.619,0,9.81-1.55,12.571-4.646c2.76-3.097,4.146-7.53,4.146-13.291s-1.384-10.158-4.146-13.182
		c-2.762-3.026-6.952-4.537-12.571-4.537c-5.616,0-9.81,1.511-12.571,4.537c-2.759,3.023-4.14,7.421-4.14,13.182
		c0,5.838,1.354,10.283,4.069,13.342C408.965,278.514,413.178,280.047,418.893,280.047z"/>
	<path fill="#FFFFFF" d="M503.305,292.145c-11.796,0-20.929-2.598-27.389-7.779c-6.458-5.185-9.689-12.605-9.689-22.256
		c0-4.607,0.864-8.769,2.601-12.478c1.729-3.71,4.216-6.841,7.444-9.402c3.23-2.549,7.139-4.518,11.724-5.888
		c4.591-1.364,9.69-2.048,15.312-2.048c5.708,0,10.862,0.684,15.449,2.048c4.587,1.37,8.499,3.339,11.73,5.888
		c3.227,2.562,5.688,5.692,7.373,9.402c1.685,3.712,2.527,7.87,2.527,12.478c0,4.681-0.863,8.878-2.6,12.59
		c-1.732,3.712-4.211,6.86-7.442,9.451c-3.229,2.594-7.144,4.573-11.729,5.938C514.026,291.461,508.924,292.145,503.305,292.145z
		 M503.305,280.047c5.619,0,9.81-1.55,12.569-4.646s4.145-7.53,4.145-13.291s-1.381-10.158-4.145-13.182
		c-2.76-3.026-6.95-4.537-12.569-4.537c-5.621,0-9.812,1.511-12.568,4.537c-2.767,3.023-4.149,7.421-4.149,13.182
		c0,5.838,1.36,10.283,4.076,13.342C493.379,278.514,497.593,280.047,503.305,280.047z"/>
	<path fill="#FFFFFF" d="M553.306,213.271h19.662v77.141h-19.662V213.271z"/>
</g>
</svg>
