<?xml version="1.0" encoding="utf-8"?>
<!-- Generator: Adobe Illustrator 16.0.0, SVG Export Plug-In . SVG Version: 6.00 Build 0)  -->
<!DOCTYPE svg PUBLIC "-//W3C//DTD SVG 1.1//EN" "http://www.w3.org/Graphics/SVG/1.1/DTD/svg11.dtd">
<svg version="1.1" id="Layer_1" xmlns="http://www.w3.org/2000/svg" xmlns:xlink="http://www.w3.org/1999/xlink" x="0px" y="0px"
	 width="700px" height="300px" viewBox="0 0 700 300" enable-background="new 0 0 700 300" xml:space="preserve">
<g>
	<path fill="#FFFFFF" d="M291.907,22.525v52.324c0,0.664,0.05,1.211,0.149,1.642c0.101,0.433,0.348,0.813,0.747,1.145
		c0.398,0.332,0.959,0.613,1.691,0.844c0.729,0.234,1.755,0.449,3.083,0.646c0.996,0.199,1.493,0.764,1.493,1.692
		c0,0.2-0.018,0.497-0.05,0.896c-0.034,0.398-0.084,0.729-0.149,0.994c-2.122-0.132-4.395-0.249-6.814-0.348
		c-2.42-0.099-4.56-0.149-6.415-0.149c-1.925,0-4.064,0.05-6.417,0.149c-2.355,0.099-4.593,0.215-6.716,0.348
		c-0.133-0.265-0.215-0.595-0.248-0.994c-0.034-0.398-0.05-0.696-0.05-0.896c0-0.462,0.083-0.846,0.249-1.145
		c0.164-0.298,0.613-0.512,1.343-0.646c2.453-0.332,3.994-0.779,4.626-1.342c0.629-0.564,0.945-1.509,0.945-2.837V22.525h-8.754
		c-1.857,0-3.433,0.183-4.725,0.547c-1.294,0.364-2.422,0.93-3.382,1.692c-0.963,0.762-1.825,1.756-2.587,2.982
		c-0.763,1.229-1.542,2.704-2.338,4.426c-0.265,0.6-0.763,0.897-1.491,0.897c-0.398,0-0.863-0.083-1.392-0.249
		c-0.533-0.165-0.93-0.314-1.195-0.447c0.463-1.594,0.862-3,1.195-4.229c0.33-1.226,0.595-2.437,0.795-3.63
		c0.264-1.525,0.462-2.886,0.597-4.079c0.131-1.193,0.298-2.055,0.497-2.586c0.264-0.599,0.797-0.897,1.592-0.897
		c0.729,0,2.171,0.101,4.328,0.298c2.154,0.2,4.757,0.299,7.809,0.299h30.638c2.984,0,5.554-0.099,7.71-0.299
		c2.153-0.198,3.63-0.298,4.427-0.298c0.729,0,1.259,0.298,1.592,0.897c0.199,0.531,0.348,1.393,0.446,2.586
		c0.101,1.193,0.314,2.554,0.648,4.079c0.199,1.193,0.446,2.404,0.746,3.63c0.298,1.229,0.711,2.635,1.243,4.229
		c-0.333,0.133-0.746,0.282-1.243,0.447c-0.499,0.167-0.945,0.249-1.344,0.249c-0.73,0-1.259-0.297-1.592-0.897
		c-0.795-1.723-1.575-3.197-2.337-4.426c-0.763-1.226-1.626-2.22-2.586-2.982c-0.962-0.763-2.089-1.328-3.382-1.692
		s-2.834-0.547-4.625-0.547H291.907z"/>
	<path fill="#FFFFFF" d="M384.319,74.849c0,0.664,0.05,1.211,0.148,1.642c0.101,0.433,0.364,0.813,0.797,1.145
		c0.43,0.332,1.06,0.613,1.89,0.844c0.829,0.234,1.938,0.449,3.332,0.646c0.662,0.134,0.995,0.696,0.995,1.692
		c0,0.2-0.018,0.497-0.051,0.896s-0.084,0.729-0.147,0.994c-2.125-0.132-4.379-0.249-6.766-0.348
		c-2.388-0.099-4.511-0.149-6.366-0.149c-1.925,0-4.097,0.05-6.516,0.149c-2.422,0.099-4.692,0.215-6.813,0.348
		c-0.136-0.265-0.2-0.595-0.2-0.994s0-0.696,0-0.896c0-1.061,0.331-1.624,0.995-1.692c1.392-0.198,2.503-0.413,3.332-0.646
		c0.829-0.231,1.441-0.513,1.841-0.844c0.397-0.332,0.663-0.712,0.797-1.145c0.131-0.43,0.198-0.978,0.198-1.642V51.473h-26.859
		v23.376c0,0.664,0.048,1.211,0.149,1.642c0.099,0.433,0.364,0.813,0.794,1.145c0.431,0.332,1.061,0.613,1.892,0.844
		c0.827,0.234,1.939,0.449,3.332,0.646c0.663,0.134,0.994,0.696,0.994,1.692c0,0.2-0.016,0.497-0.049,0.896
		s-0.084,0.729-0.148,0.994c-2.125-0.132-4.412-0.249-6.865-0.348c-2.455-0.099-4.61-0.149-6.465-0.149
		c-1.858,0-3.98,0.05-6.368,0.149c-2.387,0.099-4.643,0.215-6.765,0.348c-0.132-0.265-0.197-0.595-0.197-0.994s0-0.696,0-0.896
		c0-1.061,0.33-1.624,0.994-1.692c1.393-0.198,2.503-0.413,3.333-0.646c0.828-0.231,1.442-0.513,1.84-0.844
		c0.398-0.332,0.662-0.712,0.795-1.145c0.132-0.43,0.199-0.978,0.199-1.642V25.012c0-0.662-0.066-1.209-0.199-1.641
		c-0.133-0.429-0.397-0.812-0.795-1.145c-0.398-0.331-1.012-0.613-1.84-0.846c-0.83-0.23-1.94-0.447-3.333-0.646
		c-0.664-0.199-0.994-0.762-0.994-1.691c0-0.198,0-0.496,0-0.894c0-0.398,0.065-0.763,0.197-1.095
		c2.123,0.133,4.378,0.249,6.765,0.348c2.388,0.099,4.509,0.149,6.368,0.149c1.855,0,4.01-0.05,6.465-0.149
		c2.453-0.099,4.741-0.215,6.865-0.348c0.064,0.332,0.115,0.696,0.148,1.095c0.033,0.398,0.049,0.696,0.049,0.894
		c0,0.929-0.331,1.493-0.994,1.691c-1.393,0.2-2.505,0.417-3.332,0.646c-0.831,0.233-1.46,0.515-1.892,0.846
		c-0.43,0.333-0.696,0.715-0.794,1.145c-0.101,0.432-0.149,0.979-0.149,1.641v21.189h26.859V25.012c0-0.662-0.067-1.209-0.198-1.641
		c-0.134-0.429-0.399-0.812-0.797-1.145c-0.399-0.331-1.012-0.613-1.841-0.846c-0.829-0.23-1.94-0.447-3.332-0.646
		c-0.664-0.199-0.995-0.762-0.995-1.691c0-0.198,0-0.496,0-0.894c0-0.398,0.064-0.763,0.2-1.095
		c2.121,0.133,4.392,0.249,6.813,0.348c2.419,0.099,4.591,0.149,6.516,0.149c1.855,0,3.979-0.05,6.366-0.149
		c2.387-0.099,4.641-0.215,6.766-0.348c0.063,0.332,0.114,0.696,0.147,1.095c0.033,0.398,0.051,0.696,0.051,0.894
		c0,0.929-0.333,1.493-0.995,1.691c-1.394,0.2-2.503,0.417-3.332,0.646c-0.83,0.233-1.46,0.515-1.89,0.846
		c-0.433,0.333-0.696,0.715-0.797,1.145c-0.099,0.432-0.148,0.979-0.148,1.641V74.849z"/>
	<path fill="#FFFFFF" d="M420.526,22.525v23.974h14.025c1.259,0,2.122-0.514,2.587-1.542c0.463-1.028,0.86-2.703,1.192-5.024
		c0.067-0.529,0.266-0.879,0.598-1.044c0.332-0.166,0.762-0.249,1.294-0.249c0.199,0,0.513,0.017,0.943,0.049
		c0.432,0.034,0.747,0.085,0.946,0.149c-0.133,1.527-0.248,3.299-0.349,5.322c-0.098,2.024-0.149,3.73-0.149,5.123
		c0,1.195,0.032,2.604,0.101,4.229c0.065,1.625,0.198,3.465,0.397,5.521c-0.199,0.133-0.515,0.216-0.946,0.248
		c-0.431,0.034-0.744,0.05-0.943,0.05c-1.193,0-1.824-0.462-1.892-1.392c-0.397-2.52-0.845-4.229-1.342-5.123
		c-0.497-0.897-1.31-1.344-2.438-1.344h-14.025v22.282c0,1.394,0.86,2.323,2.585,2.786c1.726,0.464,4.643,0.696,8.755,0.696h4.178
		c1.99,0,3.664-0.265,5.024-0.795c1.358-0.531,2.568-1.275,3.631-2.239c1.059-0.96,1.988-2.089,2.785-3.382
		c0.794-1.292,1.591-2.737,2.387-4.327c0.198-0.463,0.661-0.697,1.395-0.697c0.329,0,0.729,0.099,1.191,0.298
		c0.465,0.197,0.929,0.398,1.394,0.596c-0.134,0.531-0.284,1.03-0.447,1.493c-0.167,0.465-0.316,0.93-0.448,1.393
		c-0.332,0.732-0.597,1.527-0.795,2.387c-0.199,0.864-0.398,1.561-0.598,2.09c-0.135,0.664-0.283,1.41-0.448,2.24
		c-0.166,0.829-0.333,1.625-0.498,2.386c-0.164,0.763-0.331,1.443-0.495,2.04c-0.168,0.596-0.285,0.994-0.35,1.192
		c-0.266,0.531-0.795,0.796-1.592,0.796c-0.53,0-1.293-0.034-2.286-0.098c-0.997-0.066-2.075-0.117-3.234-0.151
		c-1.161-0.033-2.338-0.083-3.532-0.149c-1.193-0.066-2.223-0.099-3.083-0.099h-22.582c-1.923,0-4.126,0.05-6.613,0.149
		s-4.726,0.215-6.716,0.348c-0.134-0.265-0.198-0.612-0.198-1.044c0-0.431,0-0.747,0-0.944c0-0.996,0.33-1.525,0.995-1.593
		c2.519-0.463,4.327-0.96,5.421-1.491c1.093-0.53,1.641-1.459,1.641-2.787V25.012c0-0.662-0.099-1.209-0.298-1.641
		c-0.198-0.429-0.581-0.795-1.145-1.093c-0.563-0.299-1.292-0.563-2.188-0.797c-0.896-0.231-2.04-0.48-3.432-0.747
		c-0.665-0.199-0.995-0.794-0.995-1.791c0-0.332,0-0.646,0-0.943c0-0.3,0.064-0.614,0.198-0.946
		c2.851,0.198,5.372,0.332,7.561,0.398c2.189,0.067,4.078,0.099,5.671,0.099h20.391c2.984,0,5.554-0.099,7.711-0.299
		c2.154-0.198,3.631-0.298,4.428-0.298c0.728,0,1.257,0.298,1.591,0.897c0.199,0.531,0.364,1.509,0.496,2.934
		c0.134,1.427,0.364,2.902,0.697,4.427c0.198,1.129,0.43,2.222,0.695,3.284c0.264,1.06,0.663,2.354,1.194,3.879
		c-0.332,0.133-0.696,0.266-1.093,0.398c-0.399,0.133-0.797,0.197-1.196,0.197c-0.729,0-1.259-0.298-1.591-0.896
		c-0.794-1.724-1.575-3.198-2.336-4.427c-0.764-1.225-1.627-2.22-2.588-2.984c-0.962-0.761-2.088-1.308-3.382-1.642
		c-1.294-0.33-2.836-0.497-4.627-0.497H420.526z"/>
	<path fill="#FFFFFF" d="M17.954,106.635h22.449l15.367,50.984l15.635-50.573h21.114l16.301,50.573l14.432-50.984h21.381
		l-25.924,73.395H99.333l-17.772-54.273l-17.238,54.273H45.481L17.954,106.635z"/>
	<path fill="#FFFFFF" d="M187.526,173.245c-2.762,2.399-5.858,4.352-9.287,5.859c-3.429,1.506-7.862,2.261-13.296,2.261
		c-3.119,0-6.082-0.309-8.886-0.925c-2.807-0.617-5.258-1.575-7.351-2.877c-2.095-1.302-3.764-2.965-5.011-4.987
		c-1.249-2.021-1.871-4.436-1.871-7.246c0-3.702,1.069-6.717,3.206-9.045c2.139-2.33,4.945-4.146,8.419-5.449
		c3.475-1.301,7.37-2.225,11.693-2.775c4.32-0.547,8.708-0.89,13.164-1.026l8.951-0.31v-2.673c0-3.29-1.18-5.55-3.541-6.784
		c-2.36-1.233-5.146-1.851-8.351-1.851c-7.396,0-11.627,2.159-12.696,6.476l-17.105-1.233c1.247-5.619,4.455-9.678,9.622-12.181
		c5.167-2.501,12.114-3.753,20.846-3.753c5.346,0,9.89,0.499,13.631,1.491c3.742,0.994,6.748,2.416,9.02,4.267
		c2.272,1.849,3.918,4.097,4.945,6.732c1.023,2.639,1.536,5.602,1.536,8.892v33.921h-17.639V173.245z M187.125,156.078l-8.283,0.31
		c-3.921,0.137-7.083,0.444-9.488,0.924c-2.406,0.481-4.255,1.081-5.546,1.8c-1.292,0.72-2.16,1.559-2.606,2.517
		c-0.446,0.963-0.668,2.024-0.668,3.188c0,1.783,0.803,3.188,2.406,4.215c1.604,1.027,3.83,1.542,6.681,1.542
		c4.812,0,8.73-0.854,11.761-2.569c1.69-0.96,3.073-2.175,4.142-3.649c1.068-1.472,1.603-3.305,1.603-5.501V156.078z"/>
	<path fill="#FFFFFF" d="M219.062,126.371h18.174v7.403c2.759-3.152,6.033-5.45,9.822-6.888c3.785-1.44,7.726-2.16,11.826-2.16
		c7.927,0,13.808,1.593,17.639,4.78c3.83,3.188,5.747,8.208,5.747,15.061v35.463h-18.71v-33.51c0-3.769-0.936-6.337-2.804-7.71
		c-1.872-1.369-4.369-2.056-7.484-2.056c-2.406,0-4.478,0.275-6.214,0.823c-1.739,0.55-3.364,1.337-4.876,2.363
		c-1.25,0.962-2.296,2.108-3.141,3.445c-0.849,1.336-1.27,2.792-1.27,4.369v32.276h-18.708V126.371z"/>
	<path fill="#FFFFFF" d="M344.807,172.936c-5.346,5.825-12.562,8.738-21.649,8.738c-9.8,0-17.104-2.533-21.916-7.607
		c-4.811-5.069-7.214-12.093-7.214-21.071c0-4.18,0.688-8.001,2.071-11.463c1.379-3.458,3.361-6.439,5.947-8.94
		c2.583-2.503,5.746-4.437,9.488-5.809c3.74-1.37,7.971-2.057,12.694-2.057c3.474,0,6.926,0.481,10.356,1.441
		c3.428,0.958,6.658,2.811,9.688,5.55v-25.083h18.708v73.395h-18.171V172.936z M344.405,152.584c0-3.426-0.38-6.169-1.137-8.225
		c-0.757-2.055-1.983-3.733-3.674-5.036c-1.604-1.234-3.364-2.039-5.278-2.416c-1.917-0.376-3.81-0.566-5.679-0.566
		c-2.05,0-3.988,0.309-5.812,0.926c-1.828,0.617-3.431,1.577-4.812,2.879c-1.381,1.302-2.471,3.015-3.274,5.139
		c-0.802,2.125-1.201,4.662-1.201,7.606c0,3.222,0.377,5.91,1.135,8.07c0.756,2.157,1.803,3.905,3.141,5.242
		c1.335,1.336,2.893,2.296,4.676,2.878c1.781,0.583,3.696,0.873,5.746,0.873c4.454,0,8.107-0.992,10.958-2.98
		c1.781-1.369,3.094-3.033,3.942-4.984c0.845-1.955,1.27-4.473,1.27-7.557V152.584z"/>
	<path fill="#FFFFFF" d="M440.486,163.273c-1.25,6.032-4.39,10.604-9.421,13.724c-5.034,3.118-12.362,4.677-21.982,4.677
		c-11.581,0-20.29-2.467-26.124-7.4c-5.837-4.935-8.754-11.925-8.754-20.971c0-4.523,0.846-8.548,2.539-12.078
		c1.691-3.528,4.076-6.526,7.148-8.994c3.075-2.466,6.748-4.334,11.024-5.603c4.276-1.267,8.997-1.902,14.166-1.902
		c10.69,0,18.729,2.364,24.118,7.093c5.392,4.729,8.087,11.103,8.087,19.12v5.756h-48.375c0.178,4.318,1.604,7.693,4.276,10.126
		c2.673,2.433,6.682,3.647,12.028,3.647c7.393,0,11.759-2.396,13.094-7.195H440.486z M423.248,147.238
		c0-3.7-1.182-6.578-3.542-8.633c-2.361-2.056-6.036-3.086-11.025-3.086c-2.494,0-4.675,0.309-6.548,0.926
		c-1.869,0.617-3.453,1.457-4.742,2.519c-1.293,1.062-2.295,2.296-3.008,3.7c-0.715,1.406-1.114,2.929-1.203,4.574H423.248z"/>
	<path fill="#FFFFFF" d="M453.045,126.371h18.175v7.504c2.315-2.809,5.121-4.917,8.417-6.322c3.296-1.402,6.77-2.107,10.425-2.107
		c1.78,0,3.25,0.051,4.41,0.154c1.155,0.104,2.181,0.223,3.073,0.359l-2.272,13.057c-2.138-0.412-4.766-0.618-7.885-0.618
		c-2.05,0-4.009,0.19-5.878,0.566c-1.873,0.375-3.564,1.079-5.077,2.106c-1.606,1.097-2.787,2.33-3.544,3.7
		c-0.757,1.373-1.135,2.777-1.135,4.216v31.043h-18.709V126.371z"/>
	<path fill="#FFFFFF" d="M506.897,106.635h19.243v12.953h-19.243V106.635z M507.165,126.371h18.707v53.658h-18.707V126.371z"/>
	<path fill="#FFFFFF" d="M540.57,126.371h18.175v7.403c2.759-3.152,6.033-5.45,9.82-6.888c3.785-1.44,7.728-2.16,11.826-2.16
		c7.928,0,13.81,1.593,17.64,4.78c3.829,3.188,5.746,8.208,5.746,15.061v35.463h-18.708v-33.51c0-3.769-0.937-6.337-2.807-7.71
		c-1.871-1.369-4.366-2.056-7.482-2.056c-2.406,0-4.478,0.275-6.215,0.823c-1.738,0.55-3.362,1.337-4.877,2.363
		c-1.249,0.962-2.296,2.108-3.141,3.445c-0.849,1.336-1.27,2.792-1.27,4.369v32.276H540.57V126.371z"/>
	<path fill="#FFFFFF" d="M636.782,183.421c0.354,1.369,0.87,2.468,1.536,3.29c0.669,0.823,1.558,1.474,2.673,1.952
		c1.112,0.479,2.45,0.806,4.009,0.978c1.559,0.17,3.453,0.257,5.681,0.257c3.474,0,6.189-0.499,8.15-1.489
		c1.958-0.995,3.408-2.314,4.344-3.959c0.935-1.645,1.514-3.53,1.737-5.654c0.221-2.122,0.334-4.317,0.334-6.577v-1.646
		c-2.317,2.605-5.279,4.575-8.888,5.909c-3.607,1.338-7.683,2.005-12.227,2.005c-9.801,0-17.128-2.431-21.982-7.298
		c-4.856-4.864-7.281-11.409-7.281-19.632c0-3.907,0.688-7.505,2.07-10.795c1.38-3.288,3.361-6.115,5.948-8.479
		c2.582-2.366,5.764-4.214,9.553-5.552c3.786-1.335,8.038-2.004,12.762-2.004c3.741,0,7.37,0.551,10.89,1.645
		c3.519,1.098,6.749,3.119,9.688,6.065v-6.065h18.174v46.154c0,4.523-0.602,8.548-1.803,12.078
		c-1.203,3.529-3.121,6.528-5.746,8.995c-2.63,2.466-6.061,4.333-10.291,5.603c-4.232,1.266-9.377,1.9-15.433,1.9
		c-5.614,0-10.403-0.359-14.366-1.077c-3.965-0.722-7.238-1.817-9.821-3.291c-2.586-1.476-4.566-3.325-5.947-5.551
		c-1.382-2.228-2.294-4.815-2.739-7.762H636.782z M665.381,151.351c0-3.221-0.469-5.824-1.405-7.812
		c-0.936-1.986-2.162-3.511-3.675-4.574c-1.516-1.062-3.207-1.765-5.077-2.107c-1.872-0.344-3.742-0.515-5.612-0.515
		c-2.051,0-3.989,0.275-5.814,0.822c-1.826,0.55-3.431,1.441-4.81,2.673c-1.383,1.233-2.472,2.81-3.273,4.729
		c-0.802,1.918-1.203,4.213-1.203,6.887c0,5.689,1.403,9.714,4.209,12.077c2.807,2.366,6.301,3.548,10.491,3.548
		c2.313,0,4.476-0.257,6.481-0.771c2.004-0.516,3.718-1.338,5.143-2.468c1.425-1.131,2.54-2.604,3.343-4.42
		c0.801-1.816,1.203-4.025,1.203-6.632V151.351z"/>
	<path fill="#FFFFFF" d="M200.042,232.618c-0.597,0.198-1.228,0.298-1.89,0.298c-0.93,0-1.592-0.181-1.99-0.547
		c-0.398-0.362-0.664-0.745-0.796-1.143c-1.525-3.781-3.497-6.5-5.917-8.157c-2.421-1.657-5.656-2.486-9.7-2.486
		c-3.183,0-5.886,0.78-8.105,2.338c-2.225,1.556-3.334,3.927-3.334,7.11c0,2.454,0.847,4.426,2.537,5.919
		c1.69,1.492,3.811,2.803,6.367,3.93c2.551,1.129,5.304,2.223,8.257,3.282c2.95,1.062,5.702,2.388,8.255,3.979
		c2.554,1.592,4.675,3.616,6.367,6.068c1.692,2.455,2.537,5.606,2.537,9.448c0,2.522-0.432,4.975-1.293,7.362
		c-0.864,2.389-2.224,4.493-4.079,6.317c-1.857,1.825-4.213,3.282-7.062,4.377c-2.853,1.094-6.268,1.642-10.245,1.642
		c-4.378,0-8.292-0.473-11.739-1.414c-3.449-0.943-6.302-1.967-8.555-3.072c-0.199-2.845-0.515-5.643-0.945-8.395
		c-0.433-2.753-0.914-5.423-1.443-8.009c0.663-0.266,1.427-0.397,2.288-0.397c0.796,0,1.392,0.148,1.791,0.446
		c0.398,0.299,0.729,0.813,0.994,1.542c0.861,2.522,1.824,4.691,2.885,6.515c1.061,1.826,2.29,3.319,3.682,4.479
		c1.393,1.158,2.999,2.005,4.826,2.534c1.823,0.532,3.928,0.796,6.316,0.796c2.055,0,3.812-0.28,5.273-0.848
		c1.458-0.563,2.651-1.312,3.58-2.24c0.928-0.931,1.625-2.027,2.091-3.289c0.462-1.261,0.696-2.556,0.696-3.886
		c0-2.854-0.812-5.097-2.438-6.725c-1.626-1.627-3.648-2.988-6.068-4.084c-2.422-1.096-5.041-2.125-7.859-3.088
		c-2.819-0.965-5.437-2.191-7.857-3.688c-2.422-1.495-4.444-3.421-6.069-5.779c-1.625-2.357-2.437-5.529-2.437-9.515
		c0-2.658,0.479-5.134,1.441-7.424c0.962-2.292,2.371-4.282,4.229-5.978c1.856-1.696,4.093-3.039,6.714-4.036
		c2.618-0.994,5.62-1.495,9.004-1.495c2.784,0,5.585,0.3,8.404,0.896c2.819,0.598,6.019,1.592,9.6,2.985
		c0.133,1.988,0.348,4.227,0.648,6.714C199.297,228.389,199.644,230.629,200.042,232.618z"/>
	<path fill="#FFFFFF" d="M244.009,282.356c-5.571,0-10.446-0.864-14.624-2.587s-7.626-4.094-10.346-7.111
		c-2.72-3.018-4.758-6.566-6.117-10.644c-1.36-4.08-2.04-8.472-2.04-13.183c0-3.912,0.663-7.858,1.99-11.837
		c1.326-3.979,3.414-7.576,6.268-10.793c2.849-3.218,6.499-5.836,10.941-7.859c4.443-2.021,9.749-3.034,15.917-3.034
		c3.382,0,6.547,0.233,9.499,0.698c2.95,0.463,6.15,1.159,9.599,2.089c0.133,1.789,0.398,4.077,0.797,6.862
		c0.396,2.785,0.96,5.505,1.69,8.158c-0.332,0.065-0.763,0.147-1.294,0.248c-0.531,0.1-0.929,0.148-1.193,0.148
		c-0.531,0-0.979-0.081-1.342-0.249c-0.366-0.162-0.615-0.512-0.747-1.044c-0.73-2.188-1.559-4.027-2.487-5.52
		c-0.929-1.493-2.04-2.687-3.332-3.582c-1.293-0.895-2.802-1.542-4.527-1.94c-1.726-0.398-3.746-0.595-6.068-0.595
		c-3.582,0-6.748,0.611-9.5,1.839c-2.751,1.228-5.057,2.985-6.912,5.271c-1.859,2.289-3.268,5.042-4.229,8.257
		c-0.961,3.218-1.441,6.849-1.441,10.894c0,4.311,0.58,8.322,1.741,12.036c1.159,3.715,2.751,6.93,4.775,9.649
		c2.022,2.721,4.426,4.841,7.212,6.366c2.786,1.525,5.802,2.288,9.051,2.288c2.652,0,4.926-0.248,6.815-0.747
		c1.889-0.496,3.515-1.259,4.875-2.287c1.359-1.028,2.52-2.338,3.481-3.929c0.96-1.593,1.841-3.447,2.636-5.57
		c0.2-0.53,0.513-0.911,0.946-1.145c0.431-0.231,0.877-0.349,1.342-0.349c0.333,0,0.747,0.049,1.244,0.149
		c0.497,0.1,0.911,0.217,1.243,0.349c-0.398,1.128-0.813,2.403-1.243,3.828c-0.433,1.429-0.88,2.885-1.342,4.378
		c-0.465,1.492-0.881,2.984-1.244,4.477c-0.366,1.492-0.682,2.937-0.946,4.329c-3.249,0.595-6.565,1.026-9.947,1.292
		C251.768,282.224,248.054,282.356,244.009,282.356z"/>
	<path fill="#FFFFFF" d="M337.417,273.802c0,0.663,0.05,1.211,0.149,1.642c0.1,0.43,0.364,0.812,0.796,1.143
		c0.431,0.334,1.06,0.615,1.89,0.845c0.829,0.233,1.939,0.449,3.332,0.648c0.662,0.133,0.996,0.695,0.996,1.69
		c0,0.2-0.018,0.498-0.05,0.897c-0.034,0.397-0.084,0.729-0.149,0.994c-2.124-0.134-4.378-0.25-6.765-0.351
		c-2.388-0.098-4.511-0.148-6.366-0.148c-1.925,0-4.096,0.051-6.517,0.148c-2.42,0.101-4.692,0.217-6.813,0.351
		c-0.135-0.266-0.199-0.597-0.199-0.994c0-0.399,0-0.697,0-0.897c0-1.06,0.33-1.624,0.994-1.69c1.392-0.199,2.503-0.415,3.332-0.648
		c0.829-0.229,1.442-0.511,1.841-0.845c0.398-0.33,0.663-0.713,0.796-1.143c0.131-0.431,0.199-0.979,0.199-1.642v-23.377h-26.858
		v23.377c0,0.663,0.048,1.211,0.148,1.642c0.099,0.43,0.364,0.812,0.795,1.143c0.431,0.334,1.061,0.615,1.891,0.845
		c0.828,0.233,1.94,0.449,3.332,0.648c0.663,0.133,0.994,0.695,0.994,1.69c0,0.2-0.016,0.498-0.048,0.897
		c-0.034,0.397-0.084,0.729-0.149,0.994c-2.125-0.134-4.412-0.25-6.865-0.351c-2.455-0.098-4.61-0.148-6.465-0.148
		c-1.859,0-3.98,0.051-6.368,0.148c-2.387,0.101-4.642,0.217-6.765,0.351c-0.132-0.266-0.197-0.597-0.197-0.994
		c0-0.399,0-0.697,0-0.897c0-1.06,0.33-1.624,0.994-1.69c1.393-0.199,2.503-0.415,3.332-0.648c0.829-0.229,1.443-0.511,1.841-0.845
		c0.398-0.33,0.662-0.713,0.795-1.143c0.132-0.431,0.199-0.979,0.199-1.642v-49.84c0-0.659-0.066-1.207-0.199-1.641
		c-0.133-0.43-0.397-0.81-0.795-1.144c-0.398-0.33-1.012-0.611-1.841-0.845c-0.829-0.231-1.939-0.448-3.332-0.647
		c-0.664-0.198-0.994-0.762-0.994-1.69c0-0.199,0-0.498,0-0.896c0-0.396,0.065-0.763,0.197-1.093
		c2.123,0.132,4.378,0.248,6.765,0.346c2.388,0.102,4.509,0.149,6.368,0.149c1.855,0,4.01-0.048,6.465-0.149
		c2.453-0.098,4.74-0.214,6.865-0.346c0.065,0.33,0.115,0.696,0.149,1.093c0.032,0.397,0.048,0.696,0.048,0.896
		c0,0.929-0.332,1.492-0.994,1.69c-1.392,0.199-2.504,0.416-3.332,0.647c-0.83,0.233-1.46,0.515-1.891,0.845
		c-0.431,0.334-0.696,0.714-0.795,1.144c-0.1,0.434-0.148,0.981-0.148,1.641v21.19h26.858v-21.19c0-0.659-0.068-1.207-0.199-1.641
		c-0.134-0.43-0.398-0.81-0.796-1.144c-0.398-0.33-1.012-0.611-1.841-0.845c-0.829-0.231-1.94-0.448-3.332-0.647
		c-0.664-0.198-0.994-0.762-0.994-1.69c0-0.199,0-0.498,0-0.896c0-0.396,0.064-0.763,0.199-1.093
		c2.121,0.132,4.393,0.248,6.813,0.346c2.421,0.102,4.592,0.149,6.517,0.149c1.855,0,3.979-0.048,6.366-0.149
		c2.387-0.098,4.641-0.214,6.765-0.346c0.065,0.33,0.115,0.696,0.149,1.093c0.033,0.397,0.05,0.696,0.05,0.896
		c0,0.929-0.333,1.492-0.996,1.69c-1.393,0.199-2.503,0.416-3.332,0.647c-0.831,0.233-1.459,0.515-1.89,0.845
		c-0.432,0.334-0.696,0.714-0.796,1.144c-0.099,0.434-0.149,0.981-0.149,1.641V273.802z"/>
	<path fill="#FFFFFF" d="M352.338,248.832c0-4.64,0.876-8.986,2.635-13.03c1.756-4.044,4.162-7.593,7.212-10.644
		c3.051-3.05,6.615-5.455,10.694-7.212c4.078-1.759,8.438-2.638,13.081-2.638c4.773,0,9.217,0.83,13.329,2.487
		c4.11,1.659,7.676,3.98,10.693,6.963c3.018,2.984,5.388,6.533,7.113,10.645c1.724,4.112,2.585,8.589,2.585,13.429
		c0,4.643-0.879,9.004-2.635,13.081c-1.76,4.08-4.163,7.626-7.212,10.644c-3.052,3.02-6.632,5.407-10.744,7.164
		c-4.112,1.755-8.489,2.636-13.13,2.636c-4.775,0-9.22-0.829-13.33-2.486c-4.113-1.658-7.661-3.98-10.646-6.964
		c-2.982-2.984-5.337-6.517-7.062-10.594C353.197,258.232,352.338,253.74,352.338,248.832z M387.452,277.184
		c2.784,0,5.304-0.613,7.56-1.841c2.253-1.226,4.193-2.9,5.82-5.023c1.623-2.121,2.883-4.608,3.778-7.46s1.344-5.902,1.344-9.152
		c0-4.708-0.448-9.085-1.344-13.131c-0.896-4.044-2.255-7.543-4.078-10.494c-1.824-2.951-4.112-5.274-6.864-6.964
		c-2.752-1.691-5.952-2.535-9.598-2.535c-2.322,0-4.575,0.515-6.766,1.541c-2.188,1.029-4.112,2.521-5.77,4.475
		c-1.659,1.959-2.984,4.329-3.979,7.114c-0.996,2.785-1.492,5.937-1.492,9.449c0,4.909,0.481,9.45,1.442,13.629
		c0.959,4.178,2.354,7.775,4.179,10.793c1.823,3.018,4.061,5.372,6.714,7.062C381.051,276.338,384.07,277.184,387.452,277.184z"/>
	<path fill="#FFFFFF" d="M427.143,248.832c0-4.64,0.876-8.986,2.635-13.03c1.756-4.044,4.162-7.593,7.212-10.644
		c3.051-3.05,6.615-5.455,10.694-7.212c4.078-1.759,8.438-2.638,13.081-2.638c4.773,0,9.217,0.83,13.329,2.487
		c4.11,1.659,7.676,3.98,10.693,6.963c3.018,2.984,5.388,6.533,7.113,10.645c1.725,4.112,2.585,8.589,2.585,13.429
		c0,4.643-0.879,9.004-2.636,13.081c-1.759,4.08-4.162,7.626-7.211,10.644c-3.052,3.02-6.632,5.407-10.744,7.164
		c-4.112,1.755-8.489,2.636-13.13,2.636c-4.776,0-9.22-0.829-13.33-2.486c-4.113-1.658-7.661-3.98-10.646-6.964
		c-2.982-2.984-5.337-6.517-7.062-10.594C428.002,258.232,427.143,253.74,427.143,248.832z M462.257,277.184
		c2.784,0,5.304-0.613,7.56-1.841c2.253-1.226,4.193-2.9,5.82-5.023c1.623-2.121,2.883-4.608,3.778-7.46s1.344-5.902,1.344-9.152
		c0-4.708-0.448-9.085-1.344-13.131c-0.896-4.044-2.255-7.543-4.078-10.494c-1.824-2.951-4.112-5.274-6.864-6.964
		c-2.752-1.691-5.952-2.535-9.598-2.535c-2.322,0-4.575,0.515-6.766,1.541c-2.188,1.029-4.112,2.521-5.77,4.475
		c-1.659,1.959-2.984,4.329-3.979,7.114c-0.996,2.785-1.492,5.937-1.492,9.449c0,4.909,0.479,9.45,1.442,13.629
		c0.959,4.178,2.354,7.775,4.179,10.793c1.823,3.018,4.061,5.372,6.714,7.062C455.855,276.338,458.875,277.184,462.257,277.184z"/>
	<path fill="#FFFFFF" d="M523.234,272.707c0,1.392,0.895,2.321,2.686,2.785c1.79,0.466,4.741,0.695,8.854,0.695h3.778
		c1.658,0,3.102-0.181,4.328-0.548c1.228-0.361,2.305-0.977,3.234-1.838c0.928-0.861,1.772-1.973,2.536-3.332
		c0.762-1.36,1.508-3,2.237-4.926c0.199-0.529,0.697-0.795,1.494-0.795c0.329,0,0.729,0.1,1.192,0.298
		c0.463,0.199,0.928,0.398,1.393,0.599c-0.531,2.121-1.012,4.426-1.443,6.911c-0.432,2.488-0.812,4.926-1.142,7.313
		c-0.068,0.797-0.284,1.292-0.648,1.492c-0.364,0.198-0.746,0.299-1.143,0.299c-0.533,0-1.278-0.036-2.239-0.101
		c-0.962-0.068-2.007-0.116-3.133-0.149c-1.129-0.035-2.273-0.084-3.433-0.149c-1.161-0.067-2.173-0.1-3.034-0.1H516.17
		c-1.923,0-4.127,0.051-6.613,0.148c-2.487,0.101-4.727,0.217-6.717,0.351c-0.132-0.266-0.197-0.613-0.197-1.047
		c0-0.432,0-0.744,0-0.945c0-0.995,0.33-1.523,0.994-1.59c2.52-0.463,4.328-0.961,5.421-1.493c1.095-0.529,1.642-1.457,1.642-2.784
		v-49.84c0-0.659-0.066-1.207-0.199-1.641c-0.133-0.43-0.396-0.81-0.795-1.144c-0.398-0.33-1.012-0.611-1.841-0.845
		c-0.829-0.231-1.939-0.448-3.332-0.647c-0.663-0.198-0.994-0.762-0.994-1.69c0-0.199,0-0.498,0-0.896
		c0-0.396,0.065-0.763,0.197-1.093c2.122,0.132,4.378,0.248,6.765,0.346c2.389,0.102,4.51,0.149,6.368,0.149
		c0.927,0,1.987-0.015,3.184-0.048c1.193-0.033,2.437-0.065,3.729-0.102c1.293-0.031,2.586-0.08,3.88-0.148
		c1.293-0.065,2.47-0.134,3.53-0.197c0.065,0.33,0.115,0.696,0.15,1.093c0.032,0.397,0.049,0.696,0.049,0.896
		c0,0.929-0.333,1.492-0.995,1.69c-2.852,0.398-4.758,0.913-5.718,1.543c-0.965,0.63-1.443,1.607-1.443,2.936V272.707z"/>
</g>
</svg>
