<?xml version="1.0" encoding="utf-8"?>
<!-- Generator: Adobe Illustrator 16.0.0, SVG Export Plug-In . SVG Version: 6.00 Build 0)  -->
<!DOCTYPE svg PUBLIC "-//W3C//DTD SVG 1.1//EN" "http://www.w3.org/Graphics/SVG/1.1/DTD/svg11.dtd">
<svg version="1.1" id="Layer_1" xmlns="http://www.w3.org/2000/svg" xmlns:xlink="http://www.w3.org/1999/xlink" x="0px" y="0px"
	 width="700px" height="300px" viewBox="0 0 700 300" enable-background="new 0 0 700 300" xml:space="preserve">
<g>
	<path fill="#FFFFFF" stroke="#000000" stroke-miterlimit="10" d="M200.042,232.618c-0.599,0.198-1.229,0.298-1.892,0.298
		c-0.93,0-1.592-0.182-1.988-0.547c-0.398-0.362-0.664-0.745-0.796-1.143c-1.525-3.781-3.497-6.5-5.917-8.158
		c-2.423-1.656-5.656-2.485-9.7-2.485c-3.185,0-5.888,0.78-8.105,2.338c-2.225,1.556-3.334,3.927-3.334,7.11
		c0,2.453,0.849,4.426,2.537,5.919c1.69,1.491,3.812,2.803,6.367,3.93c2.551,1.129,5.304,2.224,8.257,3.282
		c2.95,1.062,5.702,2.388,8.255,3.979c2.554,1.592,4.675,3.616,6.367,6.068c1.692,2.455,2.537,5.605,2.537,9.448
		c0,2.521-0.432,4.975-1.293,7.362c-0.864,2.389-2.226,4.491-4.079,6.315c-1.857,1.825-4.213,3.282-7.062,4.377
		c-2.853,1.095-6.268,1.644-10.243,1.644c-4.378,0-8.292-0.475-11.739-1.414c-3.449-0.943-6.302-1.967-8.555-3.072
		c-0.199-2.846-0.517-5.643-0.945-8.395c-0.435-2.754-0.914-5.425-1.443-8.011c0.663-0.266,1.428-0.396,2.288-0.396
		c0.796,0,1.394,0.146,1.791,0.445c0.398,0.299,0.729,0.812,0.994,1.543c0.861,2.521,1.824,4.689,2.885,6.515
		c1.062,1.825,2.29,3.319,3.684,4.479c1.393,1.158,2.999,2.005,4.824,2.534c1.823,0.532,3.93,0.796,6.316,0.796
		c2.055,0,3.812-0.28,5.273-0.848c1.458-0.563,2.649-1.312,3.578-2.24c0.93-0.931,1.625-2.026,2.093-3.289
		c0.462-1.261,0.694-2.556,0.694-3.886c0-2.854-0.812-5.098-2.438-6.725s-3.648-2.988-6.068-4.084
		c-2.422-1.098-5.041-2.125-7.857-3.088c-2.819-0.967-5.438-2.191-7.857-3.688c-2.422-1.495-4.444-3.421-6.069-5.779
		c-1.625-2.356-2.437-5.528-2.437-9.515c0-2.658,0.479-5.135,1.439-7.424c0.964-2.293,2.371-4.282,4.229-5.979
		c1.856-1.694,4.093-3.039,6.714-4.036c2.618-0.992,5.62-1.494,9.004-1.494c2.784,0,5.585,0.301,8.404,0.896
		c2.819,0.598,6.019,1.592,9.6,2.983c0.135,1.988,0.35,4.229,0.648,6.715C199.297,228.389,199.644,230.629,200.042,232.618z"/>
	<path fill="#FFFFFF" stroke="#000000" stroke-miterlimit="10" d="M244.009,282.355c-5.571,0-10.446-0.863-14.624-2.586
		c-4.178-1.725-7.626-4.096-10.346-7.111c-2.722-3.018-4.758-6.566-6.117-10.645c-1.36-4.08-2.04-8.473-2.04-13.184
		c0-3.912,0.663-7.857,1.99-11.837c1.326-3.979,3.414-7.576,6.268-10.793c2.851-3.22,6.499-5.836,10.941-7.859
		c4.441-2.021,9.749-3.032,15.917-3.032c3.382,0,6.547,0.231,9.499,0.696c2.948,0.463,6.148,1.159,9.599,2.089
		c0.133,1.789,0.398,4.077,0.797,6.862c0.396,2.785,0.96,5.505,1.69,8.158c-0.332,0.063-0.765,0.146-1.294,0.248
		c-0.531,0.1-0.931,0.146-1.193,0.146c-0.531,0-0.979-0.081-1.342-0.249c-0.366-0.162-0.615-0.512-0.747-1.044
		c-0.73-2.188-1.561-4.026-2.487-5.52c-0.929-1.493-2.04-2.688-3.332-3.582c-1.293-0.896-2.802-1.542-4.525-1.94
		c-1.728-0.398-3.746-0.595-6.068-0.595c-3.582,0-6.748,0.61-9.5,1.839c-2.751,1.229-5.057,2.984-6.912,5.271
		c-1.859,2.289-3.268,5.041-4.229,8.257c-0.961,3.218-1.441,6.849-1.441,10.894c0,4.311,0.58,8.322,1.741,12.036
		c1.159,3.715,2.751,6.931,4.773,9.649c2.022,2.721,4.428,4.841,7.212,6.365c2.786,1.524,5.804,2.289,9.053,2.289
		c2.65,0,4.926-0.248,6.813-0.748c1.891-0.496,3.517-1.26,4.875-2.287c1.359-1.027,2.521-2.338,3.481-3.93
		c0.96-1.593,1.841-3.445,2.636-5.568c0.2-0.53,0.513-0.912,0.946-1.146c0.431-0.23,0.877-0.35,1.342-0.35
		c0.333,0,0.747,0.05,1.244,0.148c0.497,0.1,0.911,0.217,1.243,0.35c-0.398,1.128-0.813,2.402-1.243,3.828
		c-0.435,1.43-0.88,2.886-1.342,4.377c-0.467,1.492-0.883,2.984-1.244,4.479c-0.366,1.492-0.684,2.938-0.946,4.329
		c-3.249,0.595-6.565,1.024-9.947,1.292C251.768,282.225,248.054,282.355,244.009,282.355z"/>
	<path fill="#FFFFFF" stroke="#000000" stroke-miterlimit="10" d="M337.415,273.802c0,0.663,0.052,1.212,0.149,1.642
		c0.1,0.432,0.364,0.812,0.796,1.145c0.433,0.334,1.062,0.615,1.892,0.846c0.827,0.232,1.938,0.448,3.331,0.647
		c0.661,0.133,0.995,0.694,0.995,1.688c0,0.201-0.018,0.498-0.05,0.897c-0.034,0.397-0.084,0.729-0.147,0.994
		c-2.124-0.134-4.378-0.25-6.767-0.351c-2.388-0.1-4.511-0.148-6.365-0.148c-1.926,0-4.097,0.051-6.518,0.148
		c-2.42,0.101-4.691,0.217-6.812,0.351c-0.137-0.267-0.199-0.597-0.199-0.994c0-0.399,0-0.696,0-0.897
		c0-1.06,0.33-1.623,0.994-1.688c1.392-0.199,2.503-0.415,3.332-0.647c0.828-0.229,1.44-0.512,1.841-0.846
		c0.396-0.33,0.663-0.713,0.796-1.145c0.131-0.43,0.199-0.979,0.199-1.642v-23.377h-26.858v23.377c0,0.663,0.048,1.212,0.148,1.642
		c0.099,0.432,0.364,0.812,0.795,1.145c0.431,0.334,1.061,0.615,1.891,0.846c0.828,0.232,1.94,0.448,3.332,0.647
		c0.663,0.133,0.994,0.694,0.994,1.688c0,0.201-0.016,0.498-0.048,0.897c-0.034,0.397-0.084,0.729-0.149,0.994
		c-2.125-0.134-4.41-0.25-6.863-0.351c-2.455-0.1-4.61-0.148-6.466-0.148c-1.858,0-3.979,0.051-6.367,0.148
		c-2.389,0.101-4.644,0.217-6.767,0.351c-0.132-0.267-0.195-0.597-0.195-0.994c0-0.399,0-0.696,0-0.897
		c0-1.06,0.329-1.623,0.992-1.688c1.395-0.199,2.504-0.415,3.332-0.647c0.829-0.229,1.443-0.512,1.843-0.846
		c0.396-0.33,0.66-0.713,0.795-1.145c0.132-0.43,0.197-0.979,0.197-1.642v-49.84c0-0.659-0.064-1.207-0.197-1.642
		c-0.134-0.43-0.397-0.811-0.795-1.145c-0.398-0.328-1.014-0.609-1.843-0.845c-0.828-0.229-1.938-0.448-3.332-0.646
		c-0.663-0.199-0.992-0.764-0.992-1.69c0-0.199,0-0.498,0-0.896c0-0.396,0.063-0.765,0.195-1.095
		c2.123,0.134,4.378,0.248,6.767,0.347c2.388,0.103,4.509,0.148,6.367,0.148c1.854,0,4.011-0.048,6.466-0.148
		c2.453-0.099,4.738-0.213,6.863-0.347c0.065,0.33,0.115,0.696,0.149,1.095c0.032,0.396,0.048,0.694,0.048,0.896
		c0,0.929-0.332,1.491-0.994,1.69c-1.392,0.197-2.504,0.416-3.332,0.646c-0.83,0.231-1.46,0.517-1.891,0.845
		c-0.431,0.334-0.696,0.715-0.795,1.145c-0.102,0.435-0.148,0.98-0.148,1.642v21.19h26.858v-21.19c0-0.659-0.068-1.207-0.199-1.642
		c-0.134-0.43-0.398-0.811-0.796-1.145c-0.398-0.328-1.013-0.609-1.841-0.845c-0.829-0.229-1.94-0.448-3.332-0.646
		c-0.664-0.199-0.994-0.764-0.994-1.69c0-0.199,0-0.498,0-0.896c0-0.396,0.062-0.765,0.199-1.095
		c2.12,0.134,4.393,0.248,6.812,0.347c2.421,0.103,4.592,0.148,6.518,0.148c1.854,0,3.979-0.048,6.365-0.148
		c2.389-0.099,4.643-0.213,6.767-0.347c0.063,0.33,0.113,0.696,0.147,1.095c0.033,0.396,0.05,0.694,0.05,0.896
		c0,0.929-0.333,1.491-0.995,1.69c-1.394,0.197-2.504,0.416-3.331,0.646c-0.831,0.231-1.46,0.517-1.892,0.845
		c-0.432,0.334-0.696,0.715-0.796,1.145c-0.099,0.435-0.149,0.98-0.149,1.642V273.802z"/>
	<path fill="#FFFFFF" stroke="#000000" stroke-miterlimit="10" d="M352.338,248.832c0-4.641,0.876-8.986,2.635-13.03
		c1.756-4.044,4.162-7.593,7.212-10.644c3.051-3.051,6.615-5.455,10.694-7.213c4.078-1.758,8.438-2.637,13.081-2.637
		c4.771,0,9.217,0.83,13.327,2.485c4.11,1.659,7.678,3.979,10.693,6.963c3.02,2.984,5.388,6.533,7.113,10.646
		c1.724,4.113,2.585,8.59,2.585,13.43c0,4.643-0.879,9.004-2.635,13.081c-1.762,4.08-4.163,7.626-7.214,10.644
		c-3.052,3.021-6.632,5.407-10.742,7.164c-4.112,1.756-8.489,2.637-13.131,2.637c-4.774,0-9.221-0.83-13.329-2.485
		c-4.113-1.658-7.661-3.979-10.646-6.964c-2.98-2.984-5.337-6.518-7.062-10.596C353.197,258.232,352.338,253.74,352.338,248.832z
		 M387.45,277.184c2.784,0,5.306-0.613,7.562-1.841c2.253-1.226,4.191-2.899,5.818-5.022c1.623-2.12,2.885-4.607,3.778-7.461
		c0.896-2.852,1.344-5.9,1.344-9.15c0-4.708-0.446-9.085-1.344-13.131c-0.896-4.044-2.255-7.543-4.078-10.494
		c-1.824-2.951-4.11-5.273-6.862-6.964c-2.754-1.691-5.952-2.535-9.6-2.535c-2.322,0-4.575,0.517-6.766,1.541
		c-2.188,1.028-4.112,2.521-5.771,4.476c-1.658,1.959-2.982,4.328-3.979,7.113s-1.492,5.938-1.492,9.449
		c0,4.909,0.48,9.45,1.442,13.629c0.959,4.178,2.354,7.773,4.179,10.793c1.823,3.02,4.061,5.372,6.714,7.062
		C381.051,276.338,384.07,277.184,387.45,277.184z"/>
	<path fill="#FFFFFF" stroke="#000000" stroke-miterlimit="10" d="M427.143,248.832c0-4.641,0.876-8.986,2.635-13.03
		c1.756-4.044,4.162-7.593,7.212-10.644c3.053-3.051,6.615-5.455,10.694-7.213c4.078-1.758,8.438-2.637,13.081-2.637
		c4.771,0,9.217,0.83,13.329,2.485c4.108,1.659,7.676,3.979,10.691,6.963c3.02,2.984,5.39,6.533,7.113,10.646
		c1.727,4.113,2.585,8.59,2.585,13.43c0,4.643-0.879,9.004-2.636,13.081c-1.759,4.08-4.162,7.626-7.211,10.644
		c-3.052,3.021-6.632,5.407-10.744,7.164c-4.112,1.756-8.489,2.637-13.13,2.637c-4.776,0-9.22-0.83-13.33-2.485
		c-4.113-1.658-7.661-3.979-10.646-6.964c-2.98-2.984-5.337-6.518-7.062-10.596C428.002,258.232,427.143,253.74,427.143,248.832z
		 M462.257,277.184c2.782,0,5.304-0.613,7.56-1.841c2.253-1.226,4.193-2.899,5.82-5.022c1.623-2.12,2.883-4.607,3.776-7.461
		c0.896-2.852,1.346-5.9,1.346-9.15c0-4.708-0.448-9.085-1.346-13.131c-0.896-4.044-2.255-7.543-4.076-10.494
		c-1.824-2.951-4.112-5.273-6.864-6.964c-2.752-1.691-5.952-2.535-9.598-2.535c-2.322,0-4.575,0.517-6.768,1.541
		c-2.188,1.028-4.112,2.521-5.77,4.476c-1.659,1.959-2.984,4.328-3.979,7.113c-0.996,2.785-1.492,5.938-1.492,9.449
		c0,4.909,0.479,9.45,1.442,13.629c0.959,4.178,2.354,7.773,4.179,10.793c1.823,3.02,4.062,5.372,6.714,7.062
		C455.855,276.338,458.875,277.184,462.257,277.184z"/>
	<path fill="#FFFFFF" stroke="#000000" stroke-miterlimit="10" d="M523.234,272.707c0,1.393,0.896,2.32,2.688,2.785
		c1.789,0.466,4.739,0.695,8.854,0.695h3.778c1.658,0,3.102-0.183,4.328-0.549c1.228-0.361,2.305-0.978,3.232-1.839
		c0.928-0.86,1.772-1.973,2.536-3.332c0.762-1.358,1.508-3,2.237-4.926c0.199-0.528,0.697-0.795,1.494-0.795
		c0.329,0,0.729,0.101,1.19,0.298c0.463,0.199,0.93,0.396,1.395,0.6c-0.531,2.121-1.014,4.426-1.443,6.912
		c-0.432,2.486-0.812,4.926-1.142,7.312c-0.068,0.797-0.284,1.292-0.648,1.491c-0.364,0.197-0.746,0.3-1.143,0.3
		c-0.533,0-1.278-0.036-2.239-0.103c-0.962-0.066-2.007-0.115-3.133-0.147c-1.129-0.035-2.273-0.084-3.435-0.149
		c-1.161-0.066-2.173-0.1-3.033-0.1h-22.58c-1.925,0-4.127,0.051-6.613,0.146c-2.487,0.103-4.729,0.217-6.717,0.353
		c-0.134-0.267-0.197-0.613-0.197-1.048c0-0.432,0-0.743,0-0.944c0-0.995,0.33-1.522,0.994-1.59c2.52-0.463,4.328-0.961,5.421-1.493
		c1.095-0.527,1.642-1.457,1.642-2.784v-49.84c0-0.659-0.064-1.207-0.199-1.642c-0.133-0.43-0.396-0.811-0.795-1.145
		c-0.396-0.33-1.012-0.611-1.841-0.845c-0.829-0.231-1.938-0.448-3.332-0.647c-0.663-0.197-0.994-0.762-0.994-1.688
		c0-0.199,0-0.498,0-0.896c0-0.396,0.065-0.764,0.197-1.094c2.122,0.132,4.378,0.248,6.765,0.348
		c2.391,0.102,4.512,0.147,6.368,0.147c0.929,0,1.987-0.017,3.186-0.048c1.191-0.033,2.437-0.065,3.729-0.104
		c1.293-0.031,2.586-0.08,3.88-0.146c1.293-0.065,2.472-0.135,3.53-0.197c0.065,0.33,0.115,0.696,0.15,1.094
		c0.03,0.396,0.049,0.695,0.049,0.896c0,0.929-0.333,1.491-0.995,1.688c-2.852,0.398-4.758,0.914-5.718,1.543
		c-0.965,0.631-1.443,1.607-1.443,2.938L523.234,272.707L523.234,272.707z"/>
</g>
</svg>
