<?xml version="1.0" standalone="no"?>
<!DOCTYPE svg PUBLIC "-//W3C//DTD SVG 1.1//EN" "http://www.w3.org/Graphics/SVG/1.1/DTD/svg11.dtd" >
<svg xmlns="http://www.w3.org/2000/svg">
<metadata></metadata>
<defs>
<font id="tws_displayregular" horiz-adv-x="1576" >
<font-face units-per-em="2048" ascent="1638" descent="-410" />
<missing-glyph horiz-adv-x="593" />
<glyph horiz-adv-x="0" />
<glyph horiz-adv-x="682" />
<glyph horiz-adv-x="708" d="M55 -223q0 66 52.5 119t150.5 104h-90v1069h373v-1069q-80 -35 -133.5 -75t-53.5 -85q0 -41 29 -53t61 -12q27 0 45.5 1t42.5 3v-172q-37 -4 -75.5 -5t-94.5 -1q-90 0 -149 14t-93 38.5t-49.5 56.5t-15.5 67z" />
<glyph horiz-adv-x="708" d="M55 -223q0 66 52.5 119t150.5 104h-90v1069h373v-1069q-80 -35 -133.5 -75t-53.5 -85q0 -41 29 -53t61 -12q27 0 45.5 1t42.5 3v-172q-37 -4 -75.5 -5t-94.5 -1q-90 0 -149 14t-93 38.5t-49.5 56.5t-15.5 67z" />
<glyph horiz-adv-x="0" />
<glyph unicode=" "  horiz-adv-x="593" />
<glyph unicode="&#x09;" horiz-adv-x="593" />
<glyph unicode="&#xa0;" horiz-adv-x="593" />
<glyph unicode="!" horiz-adv-x="729" d="M166 1462h399l-26 -999h-346zM180 0v326h369v-326h-369z" />
<glyph unicode="&#x22;" horiz-adv-x="1021" d="M90 1456h369l-21 -555h-329zM563 1456h369l-21 -555h-329z" />
<glyph unicode="#" d="M51 326v211h254l68 315h-240v209h287l69 328h318l-70 -328h285l70 328h317l-70 -328h179v-209h-222l-65 -315h196v-211h-247l-68 -326h-315l65 326h-284l-66 -326h-317l65 326h-209zM623 537h284l72 315h-285z" />
<glyph unicode="$" d="M80 453h373q6 -115 62 -174.5t177 -75.5v393q-287 41 -437.5 142.5t-150.5 301.5q0 80 36 151t109 126t183.5 90t259.5 43v186h172v-188q168 -10 274.5 -50t172 -99.5t95.5 -130t40 -140.5l-356 -35q-23 113 -73 167t-153 67v-377l80 -12q272 -45 400.5 -146.5 t128.5 -294.5q0 -76 -34 -149.5t-106.5 -134t-188.5 -100.5t-280 -46v-211h-172v213q-166 12 -278.5 52t-186 102.5t-107.5 146.5t-40 183zM471 1063q0 -78 54.5 -120t166.5 -64v350q-68 -6 -109.5 -23.5t-67.5 -40t-35 -49t-9 -53.5zM864 199q131 10 179.5 63t48.5 125 q0 53 -48.5 106.5t-179.5 75.5v-370z" />
<glyph unicode="%" horiz-adv-x="2584" d="M80 1000q0 117 39 201.5t105.5 140t155.5 82t194 26.5q106 0 196.5 -26.5t156 -82t102 -140.5t36.5 -201q0 -117 -35.5 -202t-102 -138.5t-157 -79t-196.5 -25.5q-104 0 -194.5 25.5t-157 79t-104.5 138.5t-38 202zM390 1000q0 -139 49 -191.5t135 -52.5q88 0 137 52 t49 192q0 139 -49 193t-137 54q-86 0 -135 -54t-49 -193zM645 0l928 1415h359l-926 -1415h-361zM1517 410q0 117 39 201.5t105.5 140t155.5 82t194 26.5q106 0 196.5 -26.5t156 -82t102 -140.5t36.5 -201q0 -117 -35.5 -202t-102 -138.5t-157 -79t-196.5 -25.5 q-104 0 -194.5 25.5t-157 79t-104.5 138.5t-38 202zM1827 410q0 -139 49 -191.5t135 -52.5q88 0 137 52t49 192q0 139 -49 193t-137 54q-86 0 -135 -54t-49 -193z" />
<glyph unicode="&#x26;" horiz-adv-x="1783" d="M80 395q0 78 31.5 139.5t86 110.5t127 89t152.5 75q-72 63 -131 145t-59 176q0 76 35.5 139.5t101 109.5t158 73t202.5 27q123 0 216.5 -26t158 -70t96 -105t31.5 -133q0 -63 -27.5 -117.5t-75.5 -100.5t-113.5 -84t-137.5 -71l346 -311q35 66 47 136.5t12 139.5h330 q0 -131 -47 -248.5t-135 -218.5l299 -270h-426l-98 90q-86 -51 -203 -87t-277 -36q-201 0 -335 37t-214.5 97.5t-115.5 137t-35 156.5zM453 432q0 -51 18 -95t59 -76t110 -50t169 -18q94 0 157.5 18t106.5 43l-432 391q-76 -35 -132 -87t-56 -126zM621 1124q0 -31 18 -63.5 t42 -61t49.5 -51.5t41.5 -35q80 37 136.5 90.5t56.5 131.5q0 68 -44 103.5t-124 35.5q-84 0 -130 -37t-46 -113z" />
<glyph unicode="'" horiz-adv-x="548" d="M90 1456h369l-21 -555h-329z" />
<glyph unicode="(" horiz-adv-x="792" d="M106 625q0 121 22 239.5t62.5 231t101 216t134.5 191.5h354q-156 -211 -223.5 -427t-67.5 -451q0 -236 68 -452t223 -427h-354q-74 88 -134.5 191.5t-101 216t-62.5 231.5t-22 240z" />
<glyph unicode=")" horiz-adv-x="792" d="M12 -254q156 211 223.5 427t67.5 452t-67.5 451.5t-223.5 426.5h355q76 -88 135 -191.5t101 -216t62.5 -231.5t20.5 -239q0 -121 -20.5 -240t-62.5 -231.5t-101.5 -216t-134.5 -191.5h-355z" />
<glyph unicode="*" horiz-adv-x="1107" d="M53 1110l123 223l275 -123l-68 252h342l-68 -252l275 123l123 -223l-330 -57l266 -203l-262 -143l-176 227l-174 -227l-262 143l266 203z" />
<glyph unicode="+" d="M154 573v248h467v389h335v-389h465v-248h-465v-389h-335v389h-467z" />
<glyph unicode="," horiz-adv-x="655" d="M82 -193l88 523h362l-165 -523h-285z" />
<glyph unicode="-" horiz-adv-x="1036" d="M119 471v283h796v-283h-796z" />
<glyph unicode="." horiz-adv-x="655" d="M139 0v330h379v-330h-379z" />
<glyph unicode="/" horiz-adv-x="1019" d="M16 0l617 1503h371l-619 -1503h-369z" />
<glyph unicode="0" d="M88 709q0 193 49 333t141.5 232t222.5 136t292 44q332 0 514 -181t182 -564q0 -385 -185.5 -565.5t-521.5 -180.5q-330 0 -512 180.5t-182 565.5zM477 709q0 -117 15.5 -208t51.5 -155.5t95 -98.5t145 -34q88 0 148.5 34t97.5 98.5t53.5 155.5t16.5 208t-16.5 208 t-53.5 155.5t-97.5 98t-148.5 33.5q-86 0 -145 -33.5t-95 -98t-51.5 -156t-15.5 -207.5z" />
<glyph unicode="1" d="M207 1128l590 287h315v-1415h-381v1083l-358 -165z" />
<glyph unicode="2" d="M100 1018q25 88 70 167t124 139t198.5 95t295.5 35q309 0 469 -116.5t160 -317.5q0 -86 -28.5 -159t-84 -142.5t-142.5 -140t-206 -152.5q-66 -41 -130 -82t-140 -94h758l-41 -250h-1276v215q115 78 226.5 148.5t226.5 148.5q113 76 196.5 137.5t139 118.5t84 113.5 t28.5 124.5q0 88 -65.5 144t-178.5 56q-133 0 -208.5 -46t-112.5 -175z" />
<glyph unicode="3" d="M96 449h381q12 -133 87 -186.5t218 -53.5q129 0 210 46t81 153q0 104 -67.5 150t-225.5 46h-186v252h207q238 0 237 182q0 35 -13 67t-43 55.5t-77 36.5t-121 13q-127 0 -203.5 -45t-111.5 -159l-356 36q23 88 69.5 164t127.5 131.5t198 86t280 30.5q156 0 274 -29.5 t196.5 -81t116.5 -122t38 -150.5q0 -104 -59.5 -185t-188.5 -134q160 -51 225.5 -140.5t65.5 -193.5q0 -100 -37 -184t-118.5 -143.5t-206.5 -93.5t-301 -34q-199 0 -331 44t-212 113.5t-115 157t-39 171.5z" />
<glyph unicode="4" d="M70 317v195l841 903h340v-868h234l-39 -230h-195v-317h-354v317h-827zM451 547h446v493z" />
<glyph unicode="5" d="M141 412h373q12 -98 73.5 -149.5t209.5 -51.5q127 0 200.5 58.5t73.5 193.5q0 121 -69.5 177t-217.5 56q-98 0 -166.5 -24.5t-121.5 -71.5h-316l92 815h1059v-248h-747l-35 -301q63 33 151 48.5t162 15.5q152 0 261.5 -38t180 -101.5t103.5 -147.5t33 -178 q0 -123 -45 -217t-128 -157.5t-199 -95.5t-257 -32q-311 0 -482 109.5t-188 339.5z" />
<glyph unicode="6" d="M131 616q0 236 57.5 397t155.5 259t229.5 140t278.5 42q274 0 413.5 -88t178.5 -272l-346 -33q-14 35 -30.5 63.5t-43.5 49t-69 32t-109 11.5q-172 0 -256 -113t-94 -305q76 63 177 93t230 32q270 0 414.5 -120t144.5 -349q0 -111 -47 -202t-132 -155.5t-208 -99.5 t-276 -35q-197 0 -326 58.5t-204.5 151.5t-106.5 210t-31 233zM514 446q2 -53 20.5 -100t53.5 -81t88 -53t125 -19q129 0 215 63t86 193q0 111 -66.5 178t-224.5 67q-55 0 -110.5 -12t-98.5 -41t-68.5 -76t-19.5 -119z" />
<glyph unicode="7" d="M115 1167v248h1298v-221q-199 -285 -349.5 -575.5t-264.5 -618.5h-414q129 319 279.5 610t326.5 557h-876z" />
<glyph unicode="8" d="M88 401q0 111 79 197t198 133q-231 100 -232 324q0 86 41 158.5t123 126t204 84t281 30.5q170 0 294 -29.5t204 -83t118 -127t38 -161.5q0 -219 -232 -320q127 -47 204 -131t77 -201q0 -203 -175 -320.5t-528 -117.5q-348 0 -521 118t-173 320zM453 401 q0 -96 78.5 -153.5t256.5 -57.5t257 59.5t79 156.5q0 90 -73.5 146t-262.5 56q-96 0 -159.5 -15t-102.5 -43t-56 -66t-17 -83zM485 1034q0 -98 70 -146t229 -48q160 0 228.5 50t68.5 148q0 80 -65.5 137.5t-231.5 57.5q-82 0 -139 -16.5t-93 -44t-51.5 -63.5t-15.5 -75z" />
<glyph unicode="9" d="M100 963q0 111 47.5 200.5t135.5 154t211.5 100.5t279.5 36q197 0 327 -59.5t205.5 -155.5t106.5 -216t31 -241q0 -254 -51.5 -413.5t-140.5 -249.5t-214 -123t-272 -33q-297 0 -451.5 96.5t-175.5 298.5h353q14 -76 70 -117.5t194 -41.5q176 0 247.5 107.5t73.5 314.5 q-76 -63 -178 -97.5t-233 -34.5q-266 0 -416 122t-150 352zM469 969q0 -106 67.5 -179t225.5 -73q55 0 111.5 13t98.5 44t67.5 79t23.5 118q-4 51 -22.5 98t-53.5 81t-88 54.5t-127 20.5q-127 0 -215 -64.5t-88 -191.5z" />
<glyph unicode=":" horiz-adv-x="655" d="M139 0v330h379v-330h-379zM139 739v330h379v-330h-379z" />
<glyph unicode=";" horiz-adv-x="655" d="M82 -193l88 523h362l-165 -523h-285zM139 739v330h379v-330h-379z" />
<glyph unicode="&#x3c;" d="M195 582v225l1218 410v-265l-788 -256l788 -256v-268z" />
<glyph unicode="=" d="M205 348v248h1165v-248h-1165zM205 801v248h1165v-248h-1165z" />
<glyph unicode="&#x3e;" d="M162 172v264l788 254l-788 258v269l1220 -410v-225z" />
<glyph unicode="?" horiz-adv-x="1366" d="M27 1067q20 88 66 165t124 133t193.5 89t275.5 33q285 0 446.5 -100.5t161.5 -272.5q0 -66 -17 -115t-47 -87t-67 -68.5t-78 -61.5q-47 -37 -90 -69.5t-74.5 -66.5t-50 -69.5t-18.5 -78.5v-35h-367v47q0 57 20.5 103t56.5 86t80 75t93 70q35 27 65.5 50.5t54.5 51t37 60 t13 75.5q0 78 -60.5 122t-160.5 44q-135 0 -209 -47t-104 -166zM481 0v326h369v-326h-369z" />
<glyph unicode="@" horiz-adv-x="2672" d="M133 420q0 176 58.5 318.5t156.5 254t227.5 192.5t273.5 133t290.5 77.5t277.5 25.5q250 0 458 -51t356.5 -150.5t232.5 -247t84 -337.5q0 -168 -56.5 -290t-146.5 -199.5t-205 -115.5t-231 -38q-143 0 -232.5 34.5t-120.5 125.5q-82 -98 -180 -136.5t-213 -38.5 q-113 0 -195.5 31t-140 85t-86 126t-28.5 156q0 129 47 237.5t128 187.5t194.5 123t246.5 44q88 0 170 -31t141 -102l23 110h334l-150 -665q-2 -10 -2 -27q0 -72 82 -72q63 0 125 26.5t110 83t77.5 143.5t29.5 206q0 152 -60.5 262.5t-171 182t-267 106.5t-353.5 35 q-201 0 -379 -56.5t-312 -160t-214 -251t-80 -329.5q0 -147 53.5 -272t162 -217.5t272 -143.5t385.5 -51q213 0 349 46t212 116h344q-43 -70 -123 -134.5t-195.5 -114.5t-266 -80t-335.5 -30q-276 0 -491 64.5t-363.5 179.5t-225.5 275.5t-77 353.5zM1067 401 q0 -104 49 -153t127 -49q72 0 123 20.5t85 54t54.5 78.5t30.5 94l14 66q10 49 8 94t-21 79t-60 54.5t-109 20.5q-57 0 -112.5 -22.5t-96.5 -66.5t-66.5 -111.5t-25.5 -158.5z" />
<glyph unicode="A" horiz-adv-x="1857" d="M27 0l712 1462h379l713 -1462h-426l-152 338h-665l-152 -338h-409zM690 590h461l-233 524z" />
<glyph unicode="B" horiz-adv-x="1722" d="M195 0v1462h684q211 0 348 -30.5t217 -84t109.5 -125t29.5 -155.5q0 -86 -47 -162t-180 -129q84 -35 139 -72.5t85 -80.5t42 -88.5t12 -90.5q0 -92 -35.5 -174t-119.5 -141t-219.5 -94t-335.5 -35h-729zM578 240h333q98 0 163 14t105 42t56 64.5t16 83.5 q0 94 -66.5 143.5t-234.5 49.5h-372v-397zM578 883h346q158 0 216 45t58 129q0 90 -75.5 128t-258.5 38h-286v-340z" />
<glyph unicode="C" horiz-adv-x="1898" d="M133 731q0 178 61.5 319.5t176 242t276.5 153.5t367 53q182 0 316 -34.5t226.5 -100.5t147.5 -158t82 -207l-393 -38q-29 129 -113 202.5t-266 73.5q-229 0 -347 -132t-118 -374q0 -244 126 -375t339 -131q184 0 270 73t109 208h426q-14 -117 -71.5 -216.5t-157 -172 t-245 -113.5t-335.5 -41q-217 0 -381 55.5t-273.5 155.5t-166 242.5t-56.5 314.5z" />
<glyph unicode="D" horiz-adv-x="1961" d="M195 0v1462h710q436 0 680 -182t244 -541q0 -182 -67.5 -319t-195.5 -231.5t-311.5 -141.5t-416.5 -47h-643zM592 260h254q156 0 264.5 34t177 97.5t100 150.5t31.5 195q0 106 -27.5 193.5t-89 147t-158.5 92t-239 32.5h-313v-942z" />
<glyph unicode="E" horiz-adv-x="1607" d="M195 0v1462h1296v-260h-899v-319h846v-262h-846v-361h954l-39 -260h-1312z" />
<glyph unicode="F" horiz-adv-x="1554" d="M195 0v1462h1249v-262h-852v-344h801v-262h-801v-594h-397z" />
<glyph unicode="G" horiz-adv-x="1933" d="M133 731q0 178 61.5 319.5t174 242t275.5 153.5t362 53q184 0 316 -34.5t223 -96t146.5 -143.5t77.5 -176l-393 -39q-16 55 -38.5 97t-64.5 71.5t-106.5 45t-160.5 15.5q-231 0 -346 -133t-115 -375q0 -244 116.5 -376t376.5 -132q125 0 217.5 19.5t176.5 60.5v244h-361 v254h729v-619q-147 -104 -349 -161.5t-419 -57.5q-225 0 -394 55.5t-280.5 155.5t-168 242.5t-56.5 314.5z" />
<glyph unicode="H" horiz-adv-x="1935" d="M195 0v1462h397v-565h751v565h398v-1462h-398v614h-751v-614h-397z" />
<glyph unicode="I" horiz-adv-x="784" d="M195 0v1462h397v-1462h-397z" />
<glyph unicode="J" horiz-adv-x="1693" d="M80 504h397q8 -66 26.5 -118t56.5 -88t98.5 -54.5t150.5 -18.5q166 0 240.5 77t74.5 218v942h396v-960q0 -133 -50.5 -234.5t-142.5 -169t-222 -101.5t-290 -34q-352 0 -535.5 131t-199.5 410z" />
<glyph unicode="K" horiz-adv-x="1796" d="M195 0v1462h399v-585l700 585h435l-631 -549l698 -913h-440l-537 715l-225 -178v-537h-399z" />
<glyph unicode="L" horiz-adv-x="1554" d="M195 0v1462h397v-1200h899l-43 -262h-1253z" />
<glyph unicode="M" horiz-adv-x="2289" d="M195 0v1462h477l473 -1091l487 1091h463v-1462h-364v975l-435 -975h-309l-436 973v-973h-356z" />
<glyph unicode="N" horiz-adv-x="1914" d="M195 0v1462h356l782 -958v958h387v-1462h-354l-786 950v-950h-385z" />
<glyph unicode="O" horiz-adv-x="2076" d="M133 731q0 178 62.5 319.5t181.5 242t286.5 153.5t376.5 53q213 0 381 -53t284 -153.5t177.5 -242t61.5 -319.5t-60.5 -319.5t-176.5 -241.5t-283 -153.5t-384 -53.5q-213 0 -380.5 53.5t-284.5 153.5t-179.5 241.5t-62.5 319.5zM543 731q0 -244 122.5 -375t372.5 -131 t373 131t123 375q0 242 -123 374t-373 132t-372.5 -132t-122.5 -374z" />
<glyph unicode="P" horiz-adv-x="1703" d="M195 0v1462h677q219 0 361.5 -38t226.5 -100t117 -145t33 -173q0 -96 -33 -184.5t-117 -155t-223 -105.5t-352 -39h-299v-522h-391zM586 776h284q104 0 172 16.5t108 45t54.5 70.5t14.5 91q0 51 -15.5 90t-55.5 66t-108.5 41t-171.5 14h-282v-434z" />
<glyph unicode="Q" horiz-adv-x="2078" d="M133 731q0 178 62.5 319.5t181.5 242t286.5 153.5t376.5 53q213 0 381 -53t284 -153.5t177.5 -242t61.5 -319.5q0 -180 -61.5 -320.5t-180.5 -238.5l231 -219l-239 -156l-244 230q-180 -63 -410 -64q-213 0 -380.5 53.5t-284.5 153.5t-179.5 241.5t-62.5 319.5zM543 731 q0 -244 124 -378t373 -134q51 0 99.5 5t91.5 18l-234 219l240 155l217 -208q80 117 80 323q0 242 -122 374t-372 132t-373.5 -132t-123.5 -374z" />
<glyph unicode="R" horiz-adv-x="1738" d="M195 0v1462h673q223 0 368.5 -40t227.5 -104.5t114 -143t32 -154.5q0 -141 -66.5 -237.5t-222.5 -161.5l385 -621h-428l-320 549h-372v-549h-391zM586 803h309q92 0 153.5 15.5t97.5 43t49 66.5t13 86q0 39 -15 74.5t-54 63.5t-106.5 43t-172.5 15h-274v-407z" />
<glyph unicode="S" horiz-adv-x="1716" d="M74 477h403q12 -135 112.5 -196.5t295.5 -61.5q92 0 155.5 15.5t103.5 41t57.5 60.5t17.5 76q0 57 -55.5 107t-205.5 73l-247 35q-145 20 -258 53t-189 85t-115.5 128t-39.5 180t55 184t151.5 133.5t232.5 81t298 27.5q209 0 347 -37t223 -97t126 -140t55 -166l-374 -37 q-31 121 -115 174t-254 53q-100 0 -165.5 -13t-105.5 -34.5t-55.5 -50.5t-15.5 -59q0 -82 59.5 -123t202.5 -64l262 -39q307 -47 451.5 -152.5t144.5 -303.5q0 -96 -47 -177t-138 -141.5t-230.5 -94.5t-325.5 -34q-387 0 -594 128t-223 386z" />
<glyph unicode="T" horiz-adv-x="1650" d="M53 1198v264h1544v-264h-573v-1198h-399v1198h-572z" />
<glyph unicode="U" horiz-adv-x="1845" d="M158 598v864h395v-870q0 -186 86 -276.5t285 -90.5q201 0 283.5 90.5t82.5 276.5v870h398v-870q0 -166 -53.5 -285t-152 -195.5t-240.5 -112.5t-320 -36q-182 0 -324.5 37t-241 113.5t-148.5 197.5t-50 287z" />
<glyph unicode="V" horiz-adv-x="1855" d="M27 1462h442l461 -1034l473 1034h426l-713 -1462h-377z" />
<glyph unicode="W" horiz-adv-x="2576" d="M27 1462h446l307 -1016l312 1008h419l326 -1008l287 1016h426l-516 -1462h-385l-355 1081l-344 -1081h-375z" />
<glyph unicode="X" horiz-adv-x="1820" d="M16 0l662 770l-617 692h453l391 -467l400 467h426l-607 -700l680 -762h-452l-461 532l-440 -532h-435z" />
<glyph unicode="Y" horiz-adv-x="1748" d="M27 1462h442l410 -592l424 592h419l-641 -866v-596h-397v596z" />
<glyph unicode="Z" horiz-adv-x="1562" d="M61 0v223l951 977h-932v262h1405v-225l-946 -975h989l-39 -262h-1428z" />
<glyph unicode="[" horiz-adv-x="888" d="M193 -254v1757h669v-246h-295v-1265h295v-246h-669z" />
<glyph unicode="\" horiz-adv-x="1019" d="M16 1503h365l623 -1503h-365z" />
<glyph unicode="]" horiz-adv-x="888" d="M27 -8h295v1265h-295v246h671v-1757h-671v246z" />
<glyph unicode="^" d="M96 606l541 856h301l539 -856h-387l-306 514l-303 -514h-385z" />
<glyph unicode="_" horiz-adv-x="1331" d="M0 -252h1331v-106h-1331v106z" />
<glyph unicode="`" d="M416 1534h422l319 -317h-342z" />
<glyph unicode="a" horiz-adv-x="1492" d="M80 293q0 111 63.5 180.5t168 108.5t233.5 55t262 20l178 7v53q0 98 -70.5 135t-166.5 37q-221 0 -252 -129l-342 24q39 168 192.5 243t415.5 75q160 0 271.5 -30t179 -85t98 -134t30.5 -177v-676h-350v135q-84 -72 -186.5 -117t-263.5 -45q-94 0 -178 18.5t-146.5 57.5 t-99.5 99.5t-37 144.5zM453 303q0 -53 48 -84t132 -31q145 0 235 52q49 29 82 72.5t33 109.5v55l-166 -6q-117 -4 -188.5 -18.5t-110.5 -36t-52 -50t-13 -63.5z" />
<glyph unicode="b" horiz-adv-x="1658" d="M166 0v1462h373v-522q156 162 426 162q289 0 433 -151.5t144 -415.5q0 -127 -42 -231.5t-119.5 -179.5t-190.5 -116t-252 -41q-113 0 -216.5 33t-195.5 119v-119h-360zM535 526q0 -104 22.5 -166.5t73.5 -101.5q53 -37 107.5 -48t111.5 -11q61 0 116.5 18.5t96.5 58 t65.5 103t24.5 153.5q0 94 -22.5 158t-62.5 104t-95 57t-115 17q-70 0 -121 -14t-98 -45q-53 -39 -78.5 -98.5t-25.5 -151.5v-33z" />
<glyph unicode="c" horiz-adv-x="1515" d="M117 532q0 127 47 232.5t134 180.5t215 116t294 41q141 0 245.5 -27.5t177.5 -77t112.5 -118t52.5 -150.5l-375 -39q-14 82 -61.5 132t-165.5 50q-84 0 -140.5 -27.5t-89.5 -74.5t-46 -107.5t-13 -125.5q0 -68 13 -129.5t45 -108.5t87.5 -74.5t141.5 -27.5q113 0 173 49 t72 141h377q-20 -193 -170.5 -306.5t-451.5 -113.5q-176 0 -304.5 41t-209 115t-120.5 178.5t-40 230.5z" />
<glyph unicode="d" horiz-adv-x="1656" d="M117 539q0 125 41 228t118.5 178t189.5 116t253 41q104 0 206.5 -29t192.5 -110v499h373v-1462h-363v141q-160 -174 -430 -174q-293 0 -437 151.5t-144 420.5zM506 541q0 -96 22.5 -161t62.5 -104.5t93 -57t115 -17.5q133 0 219 59q53 41 77.5 99.5t24.5 150.5v37 q0 102 -22.5 163.5t-73.5 100.5q-47 37 -104.5 48t-112.5 11q-61 0 -115.5 -18t-96.5 -57t-65.5 -102.5t-23.5 -151.5z" />
<glyph unicode="e" horiz-adv-x="1568" d="M117 532q0 135 51 241t142 179.5t219 111.5t282 38q319 0 481 -141.5t162 -380.5v-115h-965q6 -129 86 -202t240 -73q221 0 260 144h363q-37 -180 -187.5 -273.5t-439.5 -93.5q-346 0 -520 147.5t-174 417.5zM496 653h598q0 111 -71 172.5t-218 61.5q-76 0 -131.5 -18.5 t-94 -50.5t-60 -74t-23.5 -91z" />
<glyph unicode="f" horiz-adv-x="1009" d="M37 846v223h219v35q0 98 37 170t102.5 117t153.5 66.5t190 21.5q68 0 140.5 -6.5t150.5 -24.5l-51 -209q-84 16 -162 16q-72 0 -130 -31.5t-58 -113.5v-41h321v-223h-321v-846h-373v846h-219z" />
<glyph unicode="g" horiz-adv-x="1658" d="M117 567q0 117 41 215.5t118.5 169t190.5 110.5t254 40q113 0 218 -33t191 -121v121h363v-919q0 -135 -36 -241t-114.5 -179.5t-204.5 -111.5t-307 -38q-168 0 -286.5 21.5t-195.5 65.5t-119 110.5t-54 154.5h377q12 -41 31.5 -65.5t53.5 -38.5t80 -19.5t113 -5.5 q102 0 161 30t87.5 79t34.5 112.5t6 131.5v32q-70 -78 -177 -117.5t-243 -39.5q-293 0 -438 145.5t-145 390.5zM508 569q0 -170 84 -240.5t209 -70.5q70 0 130 15.5t102 49t66.5 88t24.5 132.5v28q0 96 -28.5 155.5t-73.5 91.5t-101.5 42t-111.5 10q-61 0 -115.5 -16 t-95.5 -53t-65.5 -94.5t-24.5 -137.5z" />
<glyph unicode="h" d="M166 0v1462h373v-528q82 86 190.5 127t228.5 41q238 0 351.5 -95.5t113.5 -299.5v-707h-372v668q0 113 -55.5 153.5t-149.5 40.5q-72 0 -123 -16.5t-98 -46.5q-37 -29 -61.5 -69t-24.5 -87v-643h-373z" />
<glyph unicode="i" horiz-adv-x="708" d="M162 1204v258h383v-258h-383zM168 0v1069h373v-1069h-373z" />
<glyph unicode="j" horiz-adv-x="708" d="M-203 -344l53 215q86 -16 158 -16t116 25.5t44 109.5v1079h373v-1073q0 -197 -116 -286t-343 -89q-66 0 -136.5 8.5t-148.5 26.5zM162 1204v258h383v-258h-383z" />
<glyph unicode="k" horiz-adv-x="1536" d="M166 0v1462h364v-766l535 373h432l-506 -369l545 -700h-401l-410 541l-195 -135v-406h-364z" />
<glyph unicode="l" horiz-adv-x="708" d="M168 0v1462h373v-1462h-373z" />
<glyph unicode="m" horiz-adv-x="2328" d="M166 0v1069h360v-143q78 90 181.5 133t218.5 43q152 0 248 -47t137 -137q94 98 200.5 141t235.5 43q215 0 322.5 -91t107.5 -296v-715h-373v676q0 57 -13 93t-35.5 56.5t-54.5 28.5t-67 8q-55 0 -102 -14t-92 -49q-37 -29 -59.5 -66t-22.5 -78v-655h-373v676 q0 57 -13.5 93t-36 56.5t-54 28.5t-66.5 8q-57 0 -103 -14t-91 -49q-37 -29 -59.5 -69t-22.5 -87v-643h-373z" />
<glyph unicode="n" d="M166 0v1069h360v-147q84 94 197 137t235 43q238 0 351.5 -95.5t113.5 -299.5v-707h-372v668q0 113 -55.5 153.5t-149.5 40.5q-72 0 -123 -16.5t-98 -46.5q-37 -29 -61.5 -69t-24.5 -87v-643h-373z" />
<glyph unicode="o" horiz-adv-x="1640" d="M117 537q0 131 49 236.5t141 178t222 111.5t290 39q164 0 294 -39t222 -111.5t140.5 -178t48.5 -236.5q0 -133 -50.5 -238.5t-141.5 -179.5t-222 -113t-291 -39q-334 0 -518 147.5t-184 422.5zM504 537q0 -166 76.5 -253t238.5 -87q160 0 239 88t79 252t-79 249.5 t-239 85.5t-237.5 -86t-77.5 -249z" />
<glyph unicode="p" horiz-adv-x="1658" d="M166 -397v1466h360v-141q160 174 439 174q289 0 433 -151.5t144 -415.5q0 -127 -42 -231.5t-119.5 -179.5t-190.5 -116t-252 -41q-104 0 -206.5 29t-192.5 115v-508h-373zM535 526q0 -104 22.5 -166.5t73.5 -101.5q53 -37 107.5 -48t111.5 -11q61 0 116.5 18.5t96.5 58 t65.5 103t24.5 153.5q0 94 -22.5 158t-62.5 104t-95 57t-115 17q-70 0 -121 -14t-98 -45q-53 -39 -78.5 -98.5t-25.5 -151.5v-33z" />
<glyph unicode="q" horiz-adv-x="1658" d="M117 539q0 125 41 228t118.5 178t190.5 116t254 41q113 0 218 -33t191 -121v121h363v-1466h-373v530q-72 -82 -186.5 -124t-233.5 -42q-295 0 -439 151.5t-144 420.5zM508 541q0 -96 22.5 -161t62.5 -104.5t93 -57t115 -17.5q133 0 219 59q53 41 78.5 99.5t25.5 150.5v37 q0 102 -23.5 163.5t-72.5 100.5q-49 37 -106.5 48t-112.5 11q-61 0 -115.5 -18t-95.5 -57t-65.5 -102.5t-24.5 -151.5z" />
<glyph unicode="r" horiz-adv-x="1116" d="M166 0v1069h360v-149q70 84 168.5 125.5t208.5 41.5q53 0 87 -3t61 -7l-45 -260q-63 12 -156 12q-61 0 -117.5 -11t-101.5 -42q-47 -33 -69.5 -73.5t-22.5 -84.5v-618h-373z" />
<glyph unicode="s" horiz-adv-x="1429" d="M78 340h356q18 -94 98 -123t193 -29q133 0 189.5 26t56.5 83q0 41 -36 71.5t-136 43.5l-193 24q-252 31 -376 105.5t-124 226.5q0 78 44.5 139.5t124 104.5t190 66.5t244.5 23.5q164 0 276.5 -25.5t182 -68.5t106.5 -102.5t51 -127.5l-332 -33q-25 74 -84 109t-192 35 q-76 0 -125 -9.5t-77 -23.5t-40 -32.5t-12 -35.5q0 -51 41 -74.5t162 -39.5l176 -23q145 -18 241.5 -47t153.5 -70.5t79.5 -99t22.5 -133.5q0 -152 -149.5 -243t-460.5 -91q-125 0 -237.5 17.5t-202.5 60.5t-146.5 114.5t-64.5 180.5z" />
<glyph unicode="t" horiz-adv-x="1009" d="M33 846v223h217v285h373v-285h319v-223h-319v-494q0 -84 45 -113.5t116 -29.5q39 0 77 3t77 11l53 -211q-78 -18 -151.5 -25t-139.5 -7q-229 0 -339.5 83.5t-110.5 282.5v500h-217z" />
<glyph unicode="u" horiz-adv-x="1562" d="M152 362v707h372v-668q0 -115 53.5 -154.5t147.5 -39.5q72 0 118 16.5t89 46.5q43 29 67.5 69t24.5 87v643h373v-1069h-361v147q-86 -94 -193.5 -137t-230.5 -43q-238 0 -349 95.5t-111 299.5z" />
<glyph unicode="v" horiz-adv-x="1509" d="M20 1069h433l311 -743l311 743h414l-549 -1069h-373z" />
<glyph unicode="w" horiz-adv-x="2058" d="M16 1069h404l194 -709l267 701h325l252 -701l195 709h389l-406 -1069h-360l-248 705l-250 -705h-358z" />
<glyph unicode="x" horiz-adv-x="1456" d="M20 0l504 549l-454 520h438l237 -305l267 305h389l-451 -504l486 -565h-432l-283 348l-295 -348h-406z" />
<glyph unicode="y" horiz-adv-x="1509" d="M20 1069h433l325 -702l303 702h408l-563 -1100q-47 -92 -90 -160.5t-97.5 -114.5t-130.5 -68.5t-188 -22.5q-68 0 -136.5 7t-142.5 25l62 213q76 -16 155 -16q76 0 121 27.5t78 97.5l41 90z" />
<glyph unicode="z" horiz-adv-x="1331" d="M98 0v195l676 651h-661v223h1136v-195l-674 -651h705l-35 -223h-1147z" />
<glyph unicode="{" horiz-adv-x="886" d="M59 506v237h23q86 0 127 39t41 105v313q0 154 106.5 228.5t276.5 74.5h239v-239h-118q-70 0 -113 -22.5t-43 -74.5v-344q0 -57 -34 -113.5t-132 -84.5q98 -29 132 -85.5t34 -113.5v-344q0 -51 43 -73.5t113 -22.5h118v-240h-239q-170 0 -276.5 75t-106.5 228v313 q0 66 -41 105t-127 39h-23z" />
<glyph unicode="|" horiz-adv-x="735" d="M193 -254v1757h350v-1757h-350z" />
<glyph unicode="}" horiz-adv-x="886" d="M12 -14h121q70 0 112 22.5t42 73.5v344q0 57 34.5 113.5t139.5 85.5q-104 29 -139 85t-35 113v344q0 51 -42 74t-112 23h-121v239h240q174 0 279.5 -74.5t105.5 -228.5v-313q0 -66 44 -105t124 -39h22v-237h-22q-80 0 -124 -39t-44 -105v-313q0 -154 -105.5 -228.5 t-279.5 -74.5h-240v240z" />
<glyph unicode="~" d="M80 463q0 225 103.5 327.5t330.5 102.5q84 0 153.5 -23.5t130 -51t112 -50.5t104.5 -23q147 0 147 144h332q0 -223 -102.5 -326.5t-327.5 -103.5q-86 0 -155.5 23.5t-129 52t-113 52t-104.5 23.5q-145 0 -145 -147h-336z" />
<glyph unicode="&#xa1;" horiz-adv-x="729" d="M166 -397l27 1003h346l26 -1003h-399zM180 743v326h369v-326h-369z" />
<glyph unicode="&#xa2;" d="M158 723q0 115 37.5 211t111.5 168t180.5 118t243.5 58v195h174v-191q125 -6 219.5 -34.5t160 -78t102 -115t51.5 -143.5l-371 -43q-10 66 -47 114t-115 65v-641q154 27 170 184h379q-23 -180 -153 -292t-396 -126v-192h-174v194q-152 10 -259 55t-178 117t-103.5 168 t-32.5 209zM535 729q0 -53 9 -104.5t30.5 -94.5t60.5 -74.5t96 -45.5v632q-57 -14 -95 -44.5t-60.5 -72.5t-31.5 -92.5t-9 -103.5z" />
<glyph unicode="&#xa3;" d="M141 602v223h168q-8 35 -16 75t-8 93q0 121 48 208t129 143.5t187.5 83t222.5 26.5q166 0 272.5 -29.5t170 -80t96.5 -116t45 -134.5l-317 -37q-23 76 -74 119t-174 43q-133 0 -196.5 -58.5t-63.5 -156.5q0 -74 9 -108t15 -71h559v-223h-520q4 -18 4 -37.5v-38.5 q0 -74 -26.5 -147.5t-83.5 -132.5h911l-43 -246h-1257l4 203q80 72 115.5 142.5t35.5 162.5q0 23 -1 44t-7 50h-205z" />
<glyph unicode="&#xa4;" d="M113 272l159 125q-49 61 -75.5 135t-26.5 152q0 84 26.5 156.5t75.5 136.5l-159 123l223 166l164 -140q66 27 137.5 42.5t155.5 15.5q78 0 148.5 -15.5t133.5 -42.5l166 140l221 -166l-157 -123q47 -63 73.5 -136t26.5 -153q0 -82 -26.5 -155.5t-73.5 -135.5l157 -125 l-221 -163l-166 137q-63 -25 -134 -40.5t-148 -15.5q-84 0 -156 15.5t-137 40.5l-164 -137zM473 686q0 -66 17.5 -120t55.5 -94t97 -62.5t145 -22.5q84 0 144.5 22.5t97.5 62.5t54.5 94.5t17.5 119.5q0 66 -17.5 121t-54.5 95t-97.5 62.5t-144.5 22.5q-86 0 -145 -22.5 t-97 -62.5t-55.5 -95t-17.5 -121z" />
<glyph unicode="&#xa5;" d="M29 1415h391l377 -586l381 586h368l-418 -600h293v-199h-446v-141h446v-199h-446v-276h-365v276h-448v199h448v141h-448v199h289z" />
<glyph unicode="&#xa6;" horiz-adv-x="735" d="M193 -254v723h350v-723h-350zM193 815v688h350v-688h-350z" />
<glyph unicode="&#xa7;" horiz-adv-x="1484" d="M96 174h367q10 -59 34.5 -97t60.5 -59.5t86 -29.5t118 -8q137 0 193.5 32.5t56.5 85.5q0 41 -32 79t-153 61l-260 47q-125 25 -210 56.5t-137 74.5t-73.5 99t-21.5 128q0 88 58.5 148.5t164.5 103.5q-100 39 -158.5 104.5t-58.5 171.5q0 76 44 136.5t126 103.5 t196.5 65.5t256.5 22.5q168 0 279.5 -27.5t183 -73.5t109.5 -104.5t56 -117.5l-335 -62q-18 43 -41 73t-58 48t-82 27.5t-112 9.5q-143 0 -199.5 -34t-56.5 -81q0 -18 5 -36.5t23.5 -35t55 -30t96.5 -25.5l287 -55q223 -45 320 -121t97 -190q0 -100 -51 -171t-178 -122 q104 -43 160.5 -106.5t56.5 -168.5q0 -86 -42 -150.5t-121 -107.5t-189.5 -64.5t-243.5 -21.5q-143 0 -260 20.5t-205 68.5t-142 129t-71 204zM436 655q0 -23 7.5 -47t26.5 -45.5t59 -41t110 -32.5l104 -18q20 -4 47 -6t54 -2q43 0 83 7t71.5 24.5t50 45t18.5 68.5 q0 23 -6 46.5t-27.5 45t-61.5 41t-108 31.5l-135 27q-20 4 -42.5 6t-45.5 2q-84 0 -144.5 -36t-60.5 -116z" />
<glyph unicode="&#xa8;" d="M346 1245v256h346v-256h-346zM885 1245v256h346v-256h-346z" />
<glyph unicode="&#xa9;" horiz-adv-x="2068" d="M119 731q0 166 72.5 301t196.5 230.5t290 147.5t358 52q201 0 369 -52t287.5 -147.5t186.5 -230.5t67 -301t-71 -301t-195 -230.5t-289 -147.5t-355 -52q-203 0 -371.5 52t-290.5 147.5t-188.5 230.5t-66.5 301zM332 731q0 -133 52 -241.5t145.5 -184.5t222 -117 t284.5 -41q152 0 280 41t221 117t144.5 184.5t51.5 241.5t-51.5 240.5t-144.5 183.5t-221 117t-280 41q-156 0 -284.5 -41t-222 -117t-145.5 -183.5t-52 -240.5zM539 729q0 92 33.5 169t100 132t163 86t219.5 31q209 0 317.5 -78t126.5 -201l-280 -34q-12 59 -52.5 100 t-122.5 41q-66 0 -107.5 -20.5t-67 -54.5t-36 -78t-10.5 -89q0 -49 10.5 -93t34 -78t66.5 -54.5t106 -20.5q168 0 185 144h286q-14 -145 -128.5 -230.5t-342.5 -85.5q-129 0 -224 31t-157.5 86t-91 131t-28.5 166z" />
<glyph unicode="&#xaa;" horiz-adv-x="1134" d="M78 909q0 82 47 133.5t125 82t175 43t198 16.5l122 4v24q0 72 -49 98.5t-125 26.5q-92 0 -132 -26.5t-50 -65.5l-258 19q31 123 142.5 179t310.5 56q121 0 203.5 -21.5t133 -61.5t74 -97t23.5 -129v-498h-266v96q-61 -53 -136 -84.5t-196 -31.5q-72 0 -134.5 14 t-108.5 44t-72.5 74t-26.5 105zM356 915q0 -80 133 -79q106 0 170 36q86 45 86 134v38l-114 -4q-90 -4 -143.5 -13t-83 -25.5t-39 -38t-9.5 -48.5z" />
<glyph unicode="&#xab;" horiz-adv-x="1456" d="M92 528l342 459h383l-309 -457l309 -469h-389zM678 528l342 459h383l-309 -457l309 -469h-389z" />
<glyph unicode="&#xac;" d="M193 655v248h1165v-553h-334v305h-831z" />
<glyph unicode="&#xad;" horiz-adv-x="1036" d="M119 471v283h796v-283h-796z" />
<glyph unicode="&#xae;" horiz-adv-x="1302" d="M80 1049q0 104 44 187t121 141.5t181 90t223 31.5q131 0 236.5 -31.5t179.5 -90t116 -141.5t42 -187t-44 -188.5t-122 -143t-182.5 -89t-225.5 -30.5q-127 0 -232.5 30.5t-180 89t-115.5 142.5t-41 189zM231 1049q0 -170 115 -260.5t303 -90.5t305 90.5t117 260.5 t-116.5 260t-305.5 90q-188 0 -303 -90t-115 -260zM420 840v434h219q78 0 127 -11.5t76.5 -30t37 -42t9.5 -47.5q0 -47 -19.5 -75t-70.5 -50l119 -178h-160l-94 153h-103v-153h-141zM561 1081h90q57 0 74.5 15.5t17.5 40.5t-22.5 38t-83.5 13h-76v-107z" />
<glyph unicode="&#xaf;" d="M399 1253v220h779v-220h-779z" />
<glyph unicode="&#xb0;" horiz-adv-x="937" d="M80 1159q0 61 29.5 115.5t81 94.5t123 62.5t157.5 22.5q82 0 154.5 -22.5t123 -62.5t80 -94t29.5 -116q0 -63 -29.5 -118.5t-80 -95.5t-123 -62.5t-154.5 -22.5q-86 0 -157.5 22.5t-123 62.5t-81 95.5t-29.5 118.5zM305 1159q0 -61 44 -97t122 -36q72 0 116 36t44 97 q0 59 -44 95t-116 36q-78 0 -122 -35.5t-44 -95.5z" />
<glyph unicode="&#xb1;" d="M154 573v248h467v389h335v-389h465v-248h-465v-325h414v-248h-1165v248h416v325h-467z" />
<glyph unicode="&#xb2;" horiz-adv-x="1097" d="M104 1161q14 57 45 110.5t84.5 92.5t133 62.5t194.5 23.5q193 0 294 -70.5t101 -193.5q0 -41 -12 -77t-38.5 -69.5t-65.5 -69.5t-88 -75q-39 -29 -89.5 -58.5t-103.5 -64.5h410l-29 -182h-795v152q35 25 96.5 60.5t178.5 113.5q66 43 112 74.5t76.5 61.5t45 59.5 t14.5 66.5q0 41 -31 66.5t-92 25.5q-68 0 -110 -27.5t-60 -107.5z" />
<glyph unicode="&#xb3;" horiz-adv-x="1097" d="M139 862h250q10 -78 56.5 -110.5t123.5 -32.5q76 0 123 23.5t47 89.5q0 49 -46 73.5t-122 24.5h-110v164h114q72 0 109 27.5t37 70.5q0 47 -36 70.5t-116 23.5q-70 0 -114.5 -25.5t-61.5 -97.5l-250 27q29 115 129.5 187.5t305.5 72.5q207 0 303 -68.5t96 -173.5 q0 -59 -39 -104t-107 -80q84 -27 127 -80t43 -110q0 -125 -98 -202t-325 -77q-125 0 -208 27.5t-133.5 70.5t-73 98.5t-24.5 110.5z" />
<glyph unicode="&#xb4;" d="M416 1217l319 317h422l-399 -317h-342z" />
<glyph unicode="&#xb5;" d="M166 -397v1466h373v-668q0 -115 53 -154.5t145 -39.5q72 0 119 16.5t88 46.5q43 29 68.5 69t25.5 87v643h373v-1069h-362v147q-61 -82 -142.5 -127t-189.5 -45q-49 0 -95.5 9.5t-82.5 42.5v-424h-373z" />
<glyph unicode="&#xb6;" horiz-adv-x="1742" d="M39 997q0 94 40 179.5t133 149t247.5 100t384.5 36.5h727v-1747h-352v1514h-228v-1514h-352v822q-166 10 -279.5 51t-184.5 103.5t-103.5 141t-32.5 164.5z" />
<glyph unicode="&#xb7;" horiz-adv-x="655" d="M139 598v330h379v-330h-379z" />
<glyph unicode="&#xb8;" d="M506 -291q70 -8 114 -10t78 -2q117 0 117 57q0 29 -31.5 43.5t-117.5 14.5h-97l105 204h205l-54 -112q72 -8 120 -24.5t75 -40t37 -51.5t10 -56q0 -94 -99.5 -135t-267.5 -41q-37 0 -84 2t-110 10v141z" />
<glyph unicode="&#xb9;" horiz-adv-x="1097" d="M113 1254l374 161h261v-825h-283v616l-246 -102z" />
<glyph unicode="&#xba;" horiz-adv-x="1120" d="M35 1079q0 199 143.5 309.5t380.5 110.5q242 0 384 -110.5t142 -309.5q0 -98 -37.5 -177t-107.5 -133t-167 -83t-214 -29q-246 0 -385 110t-139 312zM330 1079q0 -115 54 -176t175 -61q117 0 174.5 62.5t57.5 174.5q0 113 -56.5 174.5t-175.5 61.5q-115 0 -172 -61.5 t-57 -174.5z" />
<glyph unicode="&#xbb;" horiz-adv-x="1456" d="M53 61l309 459l-309 467h391l334 -465l-340 -461h-385zM639 61l309 459l-309 467h391l334 -465l-340 -461h-385z" />
<glyph unicode="&#xbc;" horiz-adv-x="2494" d="M35 1254l374 161h261v-825h-283v616l-246 -102zM550 0l928 1415h359l-926 -1415h-361zM1462 166v129l520 530h246v-495h137l-26 -164h-111v-166h-254v166h-512zM1728 330h246v254z" />
<glyph unicode="&#xbd;" horiz-adv-x="2494" d="M35 1254l374 161h261v-825h-283v616l-246 -102zM473 0l928 1415h359l-926 -1415h-361zM1474 571q14 57 45 110.5t84.5 92.5t133 62.5t194.5 23.5q193 0 294 -70.5t101 -193.5q0 -41 -12 -77t-38.5 -69.5t-65.5 -69.5t-88 -75q-39 -29 -89.5 -58.5t-103.5 -64.5h410 l-29 -182h-795v152q35 25 96.5 60.5t178.5 113.5q66 43 112 74.5t76.5 61.5t45 59.5t14.5 66.5q0 41 -31 66.5t-92 25.5q-68 0 -110 -27.5t-60 -107.5z" />
<glyph unicode="&#xbe;" horiz-adv-x="2494" d="M139 862h250q10 -78 56.5 -110.5t123.5 -32.5q76 0 123 23.5t47 89.5q0 49 -46 73.5t-122 24.5h-110v164h114q72 0 109 27.5t37 70.5q0 47 -36 70.5t-116 23.5q-70 0 -114.5 -25.5t-61.5 -97.5l-250 27q29 115 129.5 187.5t305.5 72.5q207 0 303 -68.5t96 -173.5 q0 -59 -39 -104t-107 -80q84 -27 127 -80t43 -110q0 -125 -98 -202t-325 -77q-125 0 -208 27.5t-133.5 70.5t-73 98.5t-24.5 110.5zM677 0l928 1415h359l-926 -1415h-361zM1462 166v129l520 530h246v-495h137l-26 -164h-111v-166h-254v166h-512zM1728 330h246v254z" />
<glyph unicode="&#xbf;" horiz-adv-x="1329" d="M6 -45q0 66 16.5 115t46 87t66.5 68.5t78 61.5q47 37 90 69.5t75 66.5t50 69.5t18 78.5v35h369v-47q0 -57 -21.5 -103t-57.5 -86t-80 -75t-91 -70q-35 -27 -65.5 -50t-55 -51t-38 -60.5t-13.5 -75.5q0 -78 60.5 -122t160.5 -44q137 0 210 47t106 166l342 -33 q-20 -88 -65.5 -165t-124 -133t-194.5 -89t-276 -33q-285 0 -445.5 100.5t-160.5 272.5zM451 743v326h366v-326h-366z" />
<glyph unicode="&#xc0;" horiz-adv-x="1857" d="M27 0l712 1462h379l713 -1462h-426l-152 338h-665l-152 -338h-409zM407 1878h433l340 -297h-349zM690 590h461l-233 524z" />
<glyph unicode="&#xc1;" horiz-adv-x="1857" d="M27 0l712 1462h379l713 -1462h-426l-152 338h-665l-152 -338h-409zM675 1581l342 297h431l-422 -297h-351zM690 590h461l-233 524z" />
<glyph unicode="&#xc2;" horiz-adv-x="1857" d="M27 0l712 1462h379l713 -1462h-426l-152 338h-665l-152 -338h-409zM415 1581l322 297h377l321 -297h-319l-193 148l-188 -148h-320zM690 590h461l-233 524z" />
<glyph unicode="&#xc3;" horiz-adv-x="1857" d="M27 0l712 1462h379l713 -1462h-426l-152 338h-665l-152 -338h-409zM403 1583q0 154 89 222.5t241 68.5q55 0 102 -14.5t88 -31t80 -30.5t76 -14q51 0 79 16.5t28 65.5h264q0 -154 -88 -221.5t-240 -67.5q-57 0 -104.5 14.5t-87 31.5t-77.5 31.5t-75 14.5q-53 0 -83 -17.5 t-30 -68.5h-262zM690 590h461l-233 524z" />
<glyph unicode="&#xc4;" horiz-adv-x="1857" d="M27 0l712 1462h379l713 -1462h-426l-152 338h-665l-152 -338h-409zM471 1602v264h358v-264h-358zM690 590h461l-233 524zM1026 1602v264h356v-264h-356z" />
<glyph unicode="&#xc5;" horiz-adv-x="1857" d="M27 0l698 1432q-53 29 -87 78t-34 118q0 61 25.5 107.5t69.5 76t102.5 45t122.5 15.5q63 0 121.5 -15.5t102.5 -45t70.5 -75.5t26.5 -108q0 -68 -31.5 -116t-85.5 -76l703 -1436h-426l-152 338h-665l-152 -338h-409zM690 590h461l-233 524zM805 1628q0 -51 32 -73.5 t87 -22.5q123 0 123 96q0 53 -32 77t-91 24q-55 0 -87 -24t-32 -77z" />
<glyph unicode="&#xc6;" horiz-adv-x="2801" d="M0 0l1104 1462h1579v-260h-844v-319h795v-262h-795v-361h901l-41 -260h-1243v438h-698l-314 -438h-444zM940 690h516v512h-149z" />
<glyph unicode="&#xc7;" horiz-adv-x="1898" d="M133 731q0 178 61.5 319.5t176 242t276.5 153.5t367 53q182 0 316 -34.5t226.5 -100.5t147.5 -158t82 -207l-393 -38q-29 129 -113 202.5t-266 73.5q-229 0 -347 -132t-118 -374q0 -244 126 -375t339 -131q184 0 270 73t109 208h426q-14 -111 -67.5 -207t-144.5 -168 t-223.5 -115t-306.5 -51l-30 -69q78 -6 127 -23.5t77.5 -41.5t40 -51.5t11.5 -58.5q0 -96 -104.5 -137t-280.5 -41q-37 0 -83.5 2t-115.5 11v143q72 -10 117 -12t79 -2q68 0 95.5 16t27.5 45t-33.5 43t-119.5 14h-101l86 166q-180 16 -319 79t-232.5 161t-139.5 231t-46 291 z" />
<glyph unicode="&#xc8;" horiz-adv-x="1607" d="M195 0v1462h1296v-260h-899v-319h846v-262h-846v-361h954l-39 -260h-1312zM366 1878h433l340 -297h-349z" />
<glyph unicode="&#xc9;" horiz-adv-x="1607" d="M195 0v1462h1296v-260h-899v-319h846v-262h-846v-361h954l-39 -260h-1312zM579 1581l342 297h431l-422 -297h-351z" />
<glyph unicode="&#xca;" horiz-adv-x="1607" d="M195 0v1462h1296v-260h-899v-319h846v-262h-846v-361h954l-39 -260h-1312zM335 1581l322 297h377l321 -297h-319l-193 148l-188 -148h-320z" />
<glyph unicode="&#xcb;" horiz-adv-x="1607" d="M195 0v1462h1296v-260h-899v-319h846v-262h-846v-361h954l-39 -260h-1312zM391 1602v264h358v-264h-358zM946 1602v264h356v-264h-356z" />
<glyph unicode="&#xcc;" horiz-adv-x="784" d="M-111 1878h433l340 -297h-349zM195 0v1462h397v-1462h-397z" />
<glyph unicode="&#xcd;" horiz-adv-x="784" d="M133 1581l342 297h431l-422 -297h-351zM195 0v1462h397v-1462h-397z" />
<glyph unicode="&#xce;" horiz-adv-x="784" d="M-115 1581l322 297h377l321 -297h-319l-193 148l-188 -148h-320zM195 0v1462h397v-1462h-397z" />
<glyph unicode="&#xcf;" horiz-adv-x="784" d="M-59 1602v264h358v-264h-358zM195 0v1462h397v-1462h-397zM496 1602v264h356v-264h-356z" />
<glyph unicode="&#xd0;" horiz-adv-x="2009" d="M27 629v252h215v581h710q438 0 681 -182t243 -541q0 -182 -67.5 -319t-195.5 -231.5t-311.5 -141.5t-414.5 -47h-645v629h-215zM639 260h256q154 0 263.5 34t177 97.5t99 150.5t31.5 195q0 106 -27.5 193.5t-89 147t-158.5 92t-239 32.5h-313v-321h405v-252h-405v-369z " />
<glyph unicode="&#xd1;" horiz-adv-x="1914" d="M195 0v1462h356l782 -958v958h387v-1462h-354l-786 950v-950h-385zM424 1583q0 154 89 222.5t241 68.5q55 0 102 -14.5t88 -31t80 -30.5t76 -14q51 0 79 16.5t28 65.5h264q0 -154 -88 -221.5t-240 -67.5q-57 0 -104.5 14.5t-87 31.5t-77.5 31.5t-75 14.5q-53 0 -83 -17.5 t-30 -68.5h-262z" />
<glyph unicode="&#xd2;" horiz-adv-x="2076" d="M133 731q0 178 62.5 319.5t181.5 242t286.5 153.5t376.5 53q213 0 381 -53t284 -153.5t177.5 -242t61.5 -319.5t-60.5 -319.5t-176.5 -241.5t-283 -153.5t-384 -53.5q-213 0 -380.5 53.5t-284.5 153.5t-179.5 241.5t-62.5 319.5zM543 731q0 -244 122.5 -375t372.5 -131 t373 131t123 375q0 242 -123 374t-373 132t-372.5 -132t-122.5 -374zM571 1878h433l340 -297h-349z" />
<glyph unicode="&#xd3;" horiz-adv-x="2076" d="M133 731q0 178 62.5 319.5t181.5 242t286.5 153.5t376.5 53q213 0 381 -53t284 -153.5t177.5 -242t61.5 -319.5t-60.5 -319.5t-176.5 -241.5t-283 -153.5t-384 -53.5q-213 0 -380.5 53.5t-284.5 153.5t-179.5 241.5t-62.5 319.5zM543 731q0 -244 122.5 -375t372.5 -131 t373 131t123 375q0 242 -123 374t-373 132t-372.5 -132t-122.5 -374zM757 1581l342 297h431l-422 -297h-351z" />
<glyph unicode="&#xd4;" horiz-adv-x="2076" d="M133 731q0 178 62.5 319.5t181.5 242t286.5 153.5t376.5 53q213 0 381 -53t284 -153.5t177.5 -242t61.5 -319.5t-60.5 -319.5t-176.5 -241.5t-283 -153.5t-384 -53.5q-213 0 -380.5 53.5t-284.5 153.5t-179.5 241.5t-62.5 319.5zM526 1581l322 297h377l321 -297h-319 l-193 148l-188 -148h-320zM543 731q0 -244 122.5 -375t372.5 -131t373 131t123 375q0 242 -123 374t-373 132t-372.5 -132t-122.5 -374z" />
<glyph unicode="&#xd5;" horiz-adv-x="2076" d="M133 731q0 178 62.5 319.5t181.5 242t286.5 153.5t376.5 53q213 0 381 -53t284 -153.5t177.5 -242t61.5 -319.5t-60.5 -319.5t-176.5 -241.5t-283 -153.5t-384 -53.5q-213 0 -380.5 53.5t-284.5 153.5t-179.5 241.5t-62.5 319.5zM514 1583q0 154 89 222.5t241 68.5 q55 0 102 -14.5t88 -31t80 -30.5t76 -14q51 0 79 16.5t28 65.5h264q0 -154 -88 -221.5t-240 -67.5q-57 0 -104.5 14.5t-87 31.5t-77.5 31.5t-75 14.5q-53 0 -83 -17.5t-30 -68.5h-262zM543 731q0 -244 122.5 -375t372.5 -131t373 131t123 375q0 242 -123 374t-373 132 t-372.5 -132t-122.5 -374z" />
<glyph unicode="&#xd6;" horiz-adv-x="2076" d="M133 731q0 178 62.5 319.5t181.5 242t286.5 153.5t376.5 53q213 0 381 -53t284 -153.5t177.5 -242t61.5 -319.5t-60.5 -319.5t-176.5 -241.5t-283 -153.5t-384 -53.5q-213 0 -380.5 53.5t-284.5 153.5t-179.5 241.5t-62.5 319.5zM543 731q0 -244 122.5 -375t372.5 -131 t373 131t123 375q0 242 -123 374t-373 132t-372.5 -132t-122.5 -374zM582 1602v264h358v-264h-358zM1137 1602v264h356v-264h-356z" />
<glyph unicode="&#xd7;" d="M188 410l371 286l-371 289l228 174l372 -287l373 287l225 -174l-368 -289l368 -286l-225 -174l-373 286l-372 -286z" />
<glyph unicode="&#xd8;" horiz-adv-x="2076" d="M133 731q0 178 62.5 319.5t181.5 242t286.5 153.5t376.5 53q248 0 437 -76l137 158l178 -90l-139 -160q141 -100 216 -251.5t75 -348.5q0 -178 -60.5 -319.5t-176.5 -241.5t-283 -153.5t-384 -53.5q-141 0 -261 23.5t-220 66.5l-149 -172l-179 90l158 185 q-125 100 -190.5 244.5t-65.5 330.5zM543 731q0 -190 75 -311l662 772q-109 45 -242 45q-250 0 -372.5 -132t-122.5 -374zM758 287q113 -61 280 -62q250 0 373 131t123 375q0 217 -98 344z" />
<glyph unicode="&#xd9;" horiz-adv-x="1845" d="M158 598v864h395v-870q0 -186 86 -276.5t285 -90.5q201 0 283.5 90.5t82.5 276.5v870h398v-870q0 -166 -53.5 -285t-152 -195.5t-240.5 -112.5t-320 -36q-182 0 -324.5 37t-241 113.5t-148.5 197.5t-50 287zM428 1878h433l340 -297h-349z" />
<glyph unicode="&#xda;" horiz-adv-x="1845" d="M158 598v864h395v-870q0 -186 86 -276.5t285 -90.5q201 0 283.5 90.5t82.5 276.5v870h398v-870q0 -166 -53.5 -285t-152 -195.5t-240.5 -112.5t-320 -36q-182 0 -324.5 37t-241 113.5t-148.5 197.5t-50 287zM669 1581l342 297h431l-422 -297h-351z" />
<glyph unicode="&#xdb;" horiz-adv-x="1845" d="M158 598v864h395v-870q0 -186 86 -276.5t285 -90.5q201 0 283.5 90.5t82.5 276.5v870h398v-870q0 -166 -53.5 -285t-152 -195.5t-240.5 -112.5t-320 -36q-182 0 -324.5 37t-241 113.5t-148.5 197.5t-50 287zM409 1581l322 297h377l321 -297h-319l-193 148l-188 -148h-320 z" />
<glyph unicode="&#xdc;" horiz-adv-x="1845" d="M158 598v864h395v-870q0 -186 86 -276.5t285 -90.5q201 0 283.5 90.5t82.5 276.5v870h398v-870q0 -166 -53.5 -285t-152 -195.5t-240.5 -112.5t-320 -36q-182 0 -324.5 37t-241 113.5t-148.5 197.5t-50 287zM465 1602v264h358v-264h-358zM1020 1602v264h356v-264h-356z " />
<glyph unicode="&#xdd;" horiz-adv-x="1748" d="M27 1462h442l410 -592l424 592h419l-641 -866v-596h-397v596zM632 1581l342 297h431l-422 -297h-351z" />
<glyph unicode="&#xde;" horiz-adv-x="1703" d="M195 0v1462h391v-252h286q219 0 361.5 -37.5t226.5 -100t117 -145.5t33 -173q0 -98 -33 -185.5t-117 -154t-223 -105.5t-352 -39h-299v-270h-391zM586 524h284q104 0 172 16.5t108 45t54.5 70.5t14.5 92q0 51 -15.5 90t-55.5 65.5t-108.5 40.5t-171.5 14h-282v-434z" />
<glyph unicode="&#xdf;" horiz-adv-x="1607" d="M166 0v1026q0 106 43 190t123 142.5t193.5 89.5t252.5 31q276 0 440 -91.5t164 -277.5q0 -102 -52 -173t-165 -124q184 -43 269.5 -140.5t85.5 -254.5q0 -86 -31 -166t-99.5 -139.5t-178 -95t-267.5 -35.5q-66 0 -136.5 6t-148.5 24l54 211q41 -8 89 -13t85 -5 q152 0 211 57t59 174q0 127 -93 174t-284 47h-80v220h84q115 0 176.5 48t61.5 154q0 82 -54.5 132.5t-183.5 50.5q-266 0 -266 -265v-997h-352z" />
<glyph unicode="&#xe0;" horiz-adv-x="1492" d="M80 293q0 111 63.5 180.5t168 108.5t233.5 55t262 20l178 7v53q0 98 -70.5 135t-166.5 37q-221 0 -252 -129l-342 24q39 168 192.5 243t415.5 75q160 0 271.5 -30t179 -85t98 -134t30.5 -177v-676h-350v135q-84 -72 -186.5 -117t-263.5 -45q-94 0 -178 18.5t-146.5 57.5 t-99.5 99.5t-37 144.5zM301 1534h422l319 -317h-342zM453 303q0 -53 48 -84t132 -31q145 0 235 52q49 29 82 72.5t33 109.5v55l-166 -6q-117 -4 -188.5 -18.5t-110.5 -36t-52 -50t-13 -63.5z" />
<glyph unicode="&#xe1;" horiz-adv-x="1492" d="M80 293q0 111 63.5 180.5t168 108.5t233.5 55t262 20l178 7v53q0 98 -70.5 135t-166.5 37q-221 0 -252 -129l-342 24q39 168 192.5 243t415.5 75q160 0 271.5 -30t179 -85t98 -134t30.5 -177v-676h-350v135q-84 -72 -186.5 -117t-263.5 -45q-94 0 -178 18.5t-146.5 57.5 t-99.5 99.5t-37 144.5zM453 303q0 -53 48 -84t132 -31q145 0 235 52q49 29 82 72.5t33 109.5v55l-166 -6q-117 -4 -188.5 -18.5t-110.5 -36t-52 -50t-13 -63.5zM502 1217l319 317h422l-399 -317h-342z" />
<glyph unicode="&#xe2;" horiz-adv-x="1492" d="M80 293q0 111 63.5 180.5t168 108.5t233.5 55t262 20l178 7v53q0 98 -70.5 135t-166.5 37q-221 0 -252 -129l-342 24q39 168 192.5 243t415.5 75q160 0 271.5 -30t179 -85t98 -134t30.5 -177v-676h-350v135q-84 -72 -186.5 -117t-263.5 -45q-94 0 -178 18.5t-146.5 57.5 t-99.5 99.5t-37 144.5zM234 1217l319 317h377l319 -317h-319l-191 169l-186 -169h-319zM453 303q0 -53 48 -84t132 -31q145 0 235 52q49 29 82 72.5t33 109.5v55l-166 -6q-117 -4 -188.5 -18.5t-110.5 -36t-52 -50t-13 -63.5z" />
<glyph unicode="&#xe3;" horiz-adv-x="1492" d="M80 293q0 111 63.5 180.5t168 108.5t233.5 55t262 20l178 7v53q0 98 -70.5 135t-166.5 37q-221 0 -252 -129l-342 24q39 168 192.5 243t415.5 75q160 0 271.5 -30t179 -85t98 -134t30.5 -177v-676h-350v135q-84 -72 -186.5 -117t-263.5 -45q-94 0 -178 18.5t-146.5 57.5 t-99.5 99.5t-37 144.5zM238 1233q0 154 86 222.5t231 68.5q51 0 99 -14.5t89 -31t80 -30.5t76 -14q47 0 75.5 16t28.5 66h250q0 -154 -85 -221.5t-230 -67.5q-53 0 -99 14t-89 31.5t-80 32t-72 14.5q-51 0 -80 -17.5t-29 -68.5h-251zM453 303q0 -53 48 -84t132 -31 q145 0 235 52q49 29 82 72.5t33 109.5v55l-166 -6q-117 -4 -188.5 -18.5t-110.5 -36t-52 -50t-13 -63.5z" />
<glyph unicode="&#xe4;" horiz-adv-x="1492" d="M80 293q0 111 63.5 180.5t168 108.5t233.5 55t262 20l178 7v53q0 98 -70.5 135t-166.5 37q-221 0 -252 -129l-342 24q39 168 192.5 243t415.5 75q160 0 271.5 -30t179 -85t98 -134t30.5 -177v-676h-350v135q-84 -72 -186.5 -117t-263.5 -45q-94 0 -178 18.5t-146.5 57.5 t-99.5 99.5t-37 144.5zM305 1245v256h346v-256h-346zM453 303q0 -53 48 -84t132 -31q145 0 235 52q49 29 82 72.5t33 109.5v55l-166 -6q-117 -4 -188.5 -18.5t-110.5 -36t-52 -50t-13 -63.5zM844 1245v256h346v-256h-346z" />
<glyph unicode="&#xe5;" horiz-adv-x="1492" d="M80 293q0 111 63.5 180.5t168 108.5t233.5 55t262 20l178 7v53q0 98 -70.5 135t-166.5 37q-221 0 -252 -129l-342 24q39 168 192.5 243t415.5 75q160 0 271.5 -30t179 -85t98 -134t30.5 -177v-676h-350v135q-84 -72 -186.5 -117t-263.5 -45q-94 0 -178 18.5t-146.5 57.5 t-99.5 99.5t-37 144.5zM438 1436q0 57 25.5 101t66.5 72.5t97.5 43t115.5 14.5q61 0 117.5 -14.5t99.5 -43t68 -72.5t25 -101q0 -59 -25 -102.5t-68 -71t-99 -42t-118 -14.5q-59 0 -115.5 14.5t-97.5 42t-66.5 71t-25.5 102.5zM453 303q0 -53 48 -84t132 -31q145 0 235 52 q49 29 82 72.5t33 109.5v55l-166 -6q-117 -4 -188.5 -18.5t-110.5 -36t-52 -50t-13 -63.5zM631 1436q0 -47 29.5 -71t82.5 -24t86 24t33 71q0 49 -32.5 71.5t-86.5 22.5q-53 0 -82.5 -22.5t-29.5 -71.5z" />
<glyph unicode="&#xe6;" horiz-adv-x="2387" d="M80 293q0 111 62.5 180.5t164 108.5t229.5 55t255 20l178 7v53q0 49 -18.5 81.5t-50.5 53t-74 29t-87 8.5q-213 0 -243 -129l-342 24q39 168 191.5 243t408.5 75q150 0 257 -37t185 -131q94 96 207 132t237 36q313 0 473 -141.5t160 -380.5v-115h-948q6 -129 85 -202 t232 -73q213 0 254 144h361q-37 -180 -185.5 -273.5t-431.5 -93.5q-158 0 -301 45t-227 162q-80 -86 -202 -143.5t-324 -57.5q-113 0 -206 18.5t-159.5 57.5t-103.5 99.5t-37 144.5zM453 303q0 -53 46 -84t126 -31q74 0 128 13.5t99 38.5q51 29 83 72.5t32 109.5v55l-166 -6 q-115 -4 -183.5 -18.5t-104.5 -36t-48 -50t-12 -63.5zM1331 653h584q0 111 -69.5 172.5t-213.5 61.5q-143 0 -218 -67.5t-83 -166.5z" />
<glyph unicode="&#xe7;" horiz-adv-x="1515" d="M117 532q0 127 47 232.5t134 180.5t215 116t294 41q141 0 245.5 -27.5t177.5 -77t112.5 -118t52.5 -150.5l-375 -39q-14 82 -61.5 132t-165.5 50q-84 0 -140.5 -27.5t-89.5 -74.5t-46 -107.5t-13 -125.5q0 -68 13 -129.5t45 -108.5t87.5 -74.5t141.5 -27.5q113 0 173 49 t72 141h377q-20 -182 -156.5 -294.5t-410.5 -123.5l-29 -65q72 -8 120 -24.5t74.5 -40t37 -51.5t10.5 -56q0 -94 -99.5 -135t-267.5 -41q-37 0 -84 2t-110 10v141q70 -8 113.5 -10t78.5 -2q117 0 117 57q0 29 -32 43.5t-118 14.5h-96l84 163q-274 33 -401 181.5t-127 375.5z " />
<glyph unicode="&#xe8;" horiz-adv-x="1568" d="M117 532q0 135 51 241t142 179.5t219 111.5t282 38q319 0 481 -141.5t162 -380.5v-115h-965q6 -129 86 -202t240 -73q221 0 260 144h363q-37 -180 -187.5 -273.5t-439.5 -93.5q-346 0 -520 147.5t-174 417.5zM344 1534h422l319 -317h-342zM496 653h598q0 111 -71 172.5 t-218 61.5q-76 0 -131.5 -18.5t-94 -50.5t-60 -74t-23.5 -91z" />
<glyph unicode="&#xe9;" horiz-adv-x="1568" d="M117 532q0 135 51 241t142 179.5t219 111.5t282 38q319 0 481 -141.5t162 -380.5v-115h-965q6 -129 86 -202t240 -73q221 0 260 144h363q-37 -180 -187.5 -273.5t-439.5 -93.5q-346 0 -520 147.5t-174 417.5zM496 653h598q0 111 -71 172.5t-218 61.5q-76 0 -131.5 -18.5 t-94 -50.5t-60 -74t-23.5 -91zM547 1217l319 317h422l-399 -317h-342z" />
<glyph unicode="&#xea;" horiz-adv-x="1568" d="M117 532q0 135 51 241t142 179.5t219 111.5t282 38q319 0 481 -141.5t162 -380.5v-115h-965q6 -129 86 -202t240 -73q221 0 260 144h363q-37 -180 -187.5 -273.5t-439.5 -93.5q-346 0 -520 147.5t-174 417.5zM299 1217l319 317h377l319 -317h-319l-191 169l-186 -169 h-319zM496 653h598q0 111 -71 172.5t-218 61.5q-76 0 -131.5 -18.5t-94 -50.5t-60 -74t-23.5 -91z" />
<glyph unicode="&#xeb;" horiz-adv-x="1568" d="M117 532q0 135 51 241t142 179.5t219 111.5t282 38q319 0 481 -141.5t162 -380.5v-115h-965q6 -129 86 -202t240 -73q221 0 260 144h363q-37 -180 -187.5 -273.5t-439.5 -93.5q-346 0 -520 147.5t-174 417.5zM366 1245v256h346v-256h-346zM496 653h598q0 111 -71 172.5 t-218 61.5q-76 0 -131.5 -18.5t-94 -50.5t-60 -74t-23.5 -91zM905 1245v256h346v-256h-346z" />
<glyph unicode="&#xec;" horiz-adv-x="708" d="M-151 1534h422l319 -317h-342zM168 0v1069h373v-1069h-373z" />
<glyph unicode="&#xed;" horiz-adv-x="708" d="M131 1217l319 317h422l-399 -317h-342zM168 0v1069h373v-1069h-373z" />
<glyph unicode="&#xee;" horiz-adv-x="708" d="M-155 1217l319 317h377l319 -317h-319l-191 169l-186 -169h-319zM168 0v1069h373v-1069h-373z" />
<glyph unicode="&#xef;" horiz-adv-x="708" d="M-88 1245v256h346v-256h-346zM168 0v1069h373v-1069h-373zM451 1245v256h346v-256h-346z" />
<glyph unicode="&#xf0;" horiz-adv-x="1640" d="M117 487q0 121 51 217.5t137 164t202 103.5t245 36q268 0 403 -142q-29 113 -108.5 204t-247.5 149l-193 -148l-137 113l115 88q-104 18 -236 24l53 220q117 -10 221.5 -24.5t196.5 -37.5l160 121l139 -113l-96 -73q242 -98 372 -291t130 -514q0 -154 -53.5 -269.5 t-146.5 -192.5t-223 -116t-282 -39q-156 0 -287 35t-222 101.5t-142 164t-51 219.5zM504 487q0 -141 86 -215.5t229 -74.5q137 0 227.5 75.5t90.5 208.5v15q0 78 -22.5 130t-65.5 87q-45 39 -103.5 52t-140.5 13q-129 0 -215 -74.5t-86 -216.5z" />
<glyph unicode="&#xf1;" d="M166 0v1069h360v-147q84 94 197 137t235 43q238 0 351.5 -95.5t113.5 -299.5v-707h-372v668q0 113 -55.5 153.5t-149.5 40.5q-72 0 -123 -16.5t-98 -46.5q-37 -29 -61.5 -69t-24.5 -87v-643h-373zM279 1233q0 154 86 222.5t231 68.5q51 0 99 -14.5t89 -31t80 -30.5 t76 -14q47 0 75.5 16t28.5 66h250q0 -154 -85 -221.5t-230 -67.5q-53 0 -99 14t-89 31.5t-80 32t-72 14.5q-51 0 -80 -17.5t-29 -68.5h-251z" />
<glyph unicode="&#xf2;" horiz-adv-x="1640" d="M117 537q0 131 49 236.5t141 178t222 111.5t290 39q164 0 294 -39t222 -111.5t140.5 -178t48.5 -236.5q0 -133 -50.5 -238.5t-141.5 -179.5t-222 -113t-291 -39q-334 0 -518 147.5t-184 422.5zM371 1534h422l319 -317h-342zM504 537q0 -166 76.5 -253t238.5 -87 q160 0 239 88t79 252t-79 249.5t-239 85.5t-237.5 -86t-77.5 -249z" />
<glyph unicode="&#xf3;" horiz-adv-x="1640" d="M117 537q0 131 49 236.5t141 178t222 111.5t290 39q164 0 294 -39t222 -111.5t140.5 -178t48.5 -236.5q0 -133 -50.5 -238.5t-141.5 -179.5t-222 -113t-291 -39q-334 0 -518 147.5t-184 422.5zM504 537q0 -166 76.5 -253t238.5 -87q160 0 239 88t79 252t-79 249.5 t-239 85.5t-237.5 -86t-77.5 -249zM555 1217l319 317h422l-399 -317h-342z" />
<glyph unicode="&#xf4;" horiz-adv-x="1640" d="M117 537q0 131 49 236.5t141 178t222 111.5t290 39q164 0 294 -39t222 -111.5t140.5 -178t48.5 -236.5q0 -133 -50.5 -238.5t-141.5 -179.5t-222 -113t-291 -39q-334 0 -518 147.5t-184 422.5zM312 1217l319 317h377l319 -317h-319l-191 169l-186 -169h-319zM504 537 q0 -166 76.5 -253t238.5 -87q160 0 239 88t79 252t-79 249.5t-239 85.5t-237.5 -86t-77.5 -249z" />
<glyph unicode="&#xf5;" horiz-adv-x="1640" d="M117 537q0 131 49 236.5t141 178t222 111.5t290 39q164 0 294 -39t222 -111.5t140.5 -178t48.5 -236.5q0 -133 -50.5 -238.5t-141.5 -179.5t-222 -113t-291 -39q-334 0 -518 147.5t-184 422.5zM312 1233q0 154 86 222.5t231 68.5q51 0 99 -14.5t89 -31t80 -30.5t76 -14 q47 0 75.5 16t28.5 66h250q0 -154 -85 -221.5t-230 -67.5q-53 0 -99 14t-89 31.5t-80 32t-72 14.5q-51 0 -80 -17.5t-29 -68.5h-251zM504 537q0 -166 76.5 -253t238.5 -87q160 0 239 88t79 252t-79 249.5t-239 85.5t-237.5 -86t-77.5 -249z" />
<glyph unicode="&#xf6;" horiz-adv-x="1640" d="M117 537q0 131 49 236.5t141 178t222 111.5t290 39q164 0 294 -39t222 -111.5t140.5 -178t48.5 -236.5q0 -133 -50.5 -238.5t-141.5 -179.5t-222 -113t-291 -39q-334 0 -518 147.5t-184 422.5zM379 1245v256h346v-256h-346zM504 537q0 -166 76.5 -253t238.5 -87 q160 0 239 88t79 252t-79 249.5t-239 85.5t-237.5 -86t-77.5 -249zM918 1245v256h346v-256h-346z" />
<glyph unicode="&#xf7;" d="M205 573v248h1165v-248h-1165zM618 170v276h334v-276h-334zM618 934v276h334v-276h-334z" />
<glyph unicode="&#xf8;" horiz-adv-x="1640" d="M117 537q0 131 49 236.5t141 178t222 111.5t290 39q182 0 332 -51l113 131l168 -88l-115 -129q100 -74 153.5 -181.5t53.5 -246.5q0 -133 -50.5 -238.5t-141.5 -179.5t-222 -113t-291 -39q-188 0 -338 51l-129 -149l-168 88l129 147q-94 74 -145 182.5t-51 250.5z M504 537q0 -53 6 -99.5t25 -83.5l434 492q-61 27 -150 26q-160 0 -237.5 -86t-77.5 -249zM666 223q61 -27 153 -26q160 0 239 88t79 252q0 53 -9.5 99t-25.5 83z" />
<glyph unicode="&#xf9;" horiz-adv-x="1562" d="M152 362v707h372v-668q0 -115 53.5 -154.5t147.5 -39.5q72 0 118 16.5t89 46.5q43 29 67.5 69t24.5 87v643h373v-1069h-361v147q-86 -94 -193.5 -137t-230.5 -43q-238 0 -349 95.5t-111 299.5zM334 1534h422l319 -317h-342z" />
<glyph unicode="&#xfa;" horiz-adv-x="1562" d="M152 362v707h372v-668q0 -115 53.5 -154.5t147.5 -39.5q72 0 118 16.5t89 46.5q43 29 67.5 69t24.5 87v643h373v-1069h-361v147q-86 -94 -193.5 -137t-230.5 -43q-238 0 -349 95.5t-111 299.5zM508 1217l319 317h422l-399 -317h-342z" />
<glyph unicode="&#xfb;" horiz-adv-x="1562" d="M152 362v707h372v-668q0 -115 53.5 -154.5t147.5 -39.5q72 0 118 16.5t89 46.5q43 29 67.5 69t24.5 87v643h373v-1069h-361v147q-86 -94 -193.5 -137t-230.5 -43q-238 0 -349 95.5t-111 299.5zM273 1217l319 317h377l319 -317h-319l-191 169l-186 -169h-319z" />
<glyph unicode="&#xfc;" horiz-adv-x="1562" d="M152 362v707h372v-668q0 -115 53.5 -154.5t147.5 -39.5q72 0 118 16.5t89 46.5q43 29 67.5 69t24.5 87v643h373v-1069h-361v147q-86 -94 -193.5 -137t-230.5 -43q-238 0 -349 95.5t-111 299.5zM340 1245v256h346v-256h-346zM879 1245v256h346v-256h-346z" />
<glyph unicode="&#xfd;" horiz-adv-x="1509" d="M20 1069h433l325 -702l303 702h408l-563 -1100q-47 -92 -90 -160.5t-97.5 -114.5t-130.5 -68.5t-188 -22.5q-68 0 -136.5 7t-142.5 25l62 213q76 -16 155 -16q76 0 121 27.5t78 97.5l41 90zM490 1217l319 317h422l-399 -317h-342z" />
<glyph unicode="&#xfe;" horiz-adv-x="1658" d="M166 -397v1859h373v-522q76 82 186.5 122t239.5 40q289 0 433 -151.5t144 -415.5q0 -127 -42 -231.5t-119.5 -179.5t-190.5 -116t-252 -41q-104 0 -206.5 29t-192.5 115v-508h-373zM535 526q0 -104 22.5 -166.5t73.5 -101.5q53 -37 107.5 -48t111.5 -11q61 0 116.5 18.5 t96.5 58t65.5 103t24.5 153.5q0 94 -22.5 158t-62.5 104t-95 57t-115 17q-70 0 -121 -14t-98 -45q-53 -39 -78.5 -98.5t-25.5 -151.5v-33z" />
<glyph unicode="&#xff;" horiz-adv-x="1509" d="M20 1069h433l325 -702l303 702h408l-563 -1100q-47 -92 -90 -160.5t-97.5 -114.5t-130.5 -68.5t-188 -22.5q-68 0 -136.5 7t-142.5 25l62 213q76 -16 155 -16q76 0 121 27.5t78 97.5l41 90zM317 1245v256h346v-256h-346zM856 1245v256h346v-256h-346z" />
<glyph unicode="&#x152;" horiz-adv-x="2828" d="M133 731q0 178 62.5 319.5t176 242t270.5 153.5t345 53q176 0 292 -46t204 -130v139h1227v-260h-844v-319h790v-262h-790v-361h901l-41 -260h-1243v135q-37 -37 -84 -67.5t-106.5 -54t-134.5 -37t-171 -13.5q-190 0 -349 53.5t-270.5 153.5t-173 241.5t-61.5 319.5z M545 731q0 -244 119.5 -375t349.5 -131q244 0 352.5 124t116.5 356v49q-8 229 -117 356t-352 127q-229 0 -349 -132t-120 -374z" />
<glyph unicode="&#x153;" horiz-adv-x="2555" d="M117 537q0 131 49 236.5t140 178t220 111.5t285 39q182 0 298 -52.5t198 -156.5q90 104 208.5 156.5t292.5 52.5q311 0 472 -141.5t161 -380.5v-115h-948q6 -129 85 -202t232 -73q100 0 166 35t86 109h363q-37 -180 -186.5 -273.5t-430.5 -93.5q-186 0 -305 52.5 t-205 152.5q-88 -100 -200.5 -152.5t-286.5 -52.5q-330 0 -512 147.5t-182 422.5zM504 537q0 -166 75.5 -253t231.5 -87q154 0 230.5 87t78.5 248v5q0 164 -74.5 249.5t-234.5 85.5q-152 0 -229.5 -86t-77.5 -249zM1499 653h584q0 111 -70.5 172.5t-212.5 61.5 q-143 0 -218 -67.5t-83 -166.5z" />
<glyph unicode="&#x178;" horiz-adv-x="1748" d="M27 1462h442l410 -592l424 592h419l-641 -866v-596h-397v596zM418 1602v264h358v-264h-358zM973 1602v264h356v-264h-356z" />
<glyph unicode="&#x2c6;" d="M279 1217l319 317h377l319 -317h-319l-191 169l-186 -169h-319z" />
<glyph unicode="&#x2dc;" d="M279 1233q0 154 86 222.5t231 68.5q51 0 99 -14.5t89 -31t80 -30.5t76 -14q47 0 75.5 16t28.5 66h250q0 -154 -85 -221.5t-230 -67.5q-53 0 -99 14t-89 31.5t-80 32t-72 14.5q-51 0 -80 -17.5t-29 -68.5h-251z" />
<glyph unicode="&#x2000;" horiz-adv-x="939" />
<glyph unicode="&#x2001;" horiz-adv-x="1878" />
<glyph unicode="&#x2002;" horiz-adv-x="939" />
<glyph unicode="&#x2003;" horiz-adv-x="1878" />
<glyph unicode="&#x2004;" horiz-adv-x="626" />
<glyph unicode="&#x2005;" horiz-adv-x="469" />
<glyph unicode="&#x2006;" horiz-adv-x="313" />
<glyph unicode="&#x2007;" horiz-adv-x="313" />
<glyph unicode="&#x2008;" horiz-adv-x="234" />
<glyph unicode="&#x2009;" horiz-adv-x="375" />
<glyph unicode="&#x200a;" horiz-adv-x="104" />
<glyph unicode="&#x2010;" horiz-adv-x="1036" d="M119 471v283h796v-283h-796z" />
<glyph unicode="&#x2011;" horiz-adv-x="1036" d="M119 471v283h796v-283h-796z" />
<glyph unicode="&#x2012;" horiz-adv-x="1036" d="M119 471v283h796v-283h-796z" />
<glyph unicode="&#x2013;" horiz-adv-x="1331" d="M0 477v271h1331v-271h-1331z" />
<glyph unicode="&#x2014;" horiz-adv-x="2662" d="M0 477v271h2662v-271h-2662z" />
<glyph unicode="&#x2018;" horiz-adv-x="641" d="M113 942l163 520h285l-84 -520h-364z" />
<glyph unicode="&#x2019;" horiz-adv-x="641" d="M82 940l88 523h362l-165 -523h-285z" />
<glyph unicode="&#x201a;" horiz-adv-x="641" d="M92 -193l88 523h362l-165 -523h-285z" />
<glyph unicode="&#x201c;" horiz-adv-x="1112" d="M113 942l163 520h285l-84 -520h-364zM584 942l163 520h285l-84 -520h-364z" />
<glyph unicode="&#x201d;" horiz-adv-x="1112" d="M82 940l88 523h362l-165 -523h-285zM551 940l88 523h362l-165 -523h-285z" />
<glyph unicode="&#x201e;" horiz-adv-x="1112" d="M92 -193l88 523h362l-165 -523h-285zM563 -193l88 523h362l-165 -523h-285z" />
<glyph unicode="&#x2022;" horiz-adv-x="1064" d="M133 745q0 68 31 124.5t84 96.5t125.5 62.5t161.5 22.5q86 0 158.5 -22.5t125.5 -62.5t83 -96.5t30 -124.5q0 -70 -30 -126t-83 -97t-125.5 -63.5t-158.5 -22.5q-88 0 -161 22.5t-126 63.5t-84 97t-31 126z" />
<glyph unicode="&#x2026;" horiz-adv-x="2594" d="M139 0v330h379v-330h-379zM1108 0v330h379v-330h-379zM2081 0v330h379v-330h-379z" />
<glyph unicode="&#x202f;" horiz-adv-x="375" />
<glyph unicode="&#x2039;" horiz-adv-x="870" d="M92 528l342 459h383l-309 -457l309 -469h-389z" />
<glyph unicode="&#x203a;" horiz-adv-x="870" d="M53 61l309 459l-309 467h391l334 -465l-340 -461h-385z" />
<glyph unicode="&#x205f;" horiz-adv-x="469" />
<glyph unicode="&#x20ac;" d="M37 453l37 186h137v125h-174l37 186h164q23 104 75 196.5t135.5 160t202.5 107.5t275 40q289 0 428 -103.5t174 -308.5l-332 -41q-31 111 -90 157t-193 46q-129 0 -201.5 -71.5t-101.5 -182.5h426l-39 -186h-417v-125h399l-39 -186h-330q29 -109 100.5 -175.5 t196.5 -66.5q143 0 212 53t85 164h348q-23 -229 -180.5 -347t-472.5 -118q-152 0 -266.5 35t-195.5 98.5t-131 153.5t-75 203h-194z" />
<glyph unicode="&#x2122;" horiz-adv-x="2451" d="M53 1286v176h914v-176h-330v-643h-258v643h-326zM1092 643v819h311l285 -594l288 594h305v-819h-237v516l-250 -516h-217l-252 514v-514h-233z" />
<glyph unicode="&#x25fc;" horiz-adv-x="1064" d="M0 0v1065h1065v-1065h-1065z" />
<glyph unicode="&#xfb01;" horiz-adv-x="1716" d="M37 846v223h219v35q0 98 37 170t102.5 117t153.5 66.5t190 21.5q68 0 140.5 -6.5t150.5 -24.5l-51 -209q-84 16 -162 16q-72 0 -130 -31.5t-58 -113.5v-41h321v-223h-321v-846h-373v846h-219zM1172 1204v258h383v-258h-383zM1178 0v1069h373v-1069h-373z" />
<glyph unicode="&#xfb02;" horiz-adv-x="1716" d="M37 846v223h219v35q0 98 37 170t102.5 117t153.5 66.5t190 21.5q68 0 140.5 -6.5t150.5 -24.5l-51 -209q-84 16 -162 16q-72 0 -130 -31.5t-58 -113.5v-41h321v-223h-321v-846h-373v846h-219zM1178 0v1462h373v-1462h-373z" />
<glyph unicode="&#xfb03;" horiz-adv-x="2723" d="M37 846v223h219v35q0 98 37 170t102.5 117t153.5 66.5t190 21.5q68 0 140.5 -6.5t150.5 -24.5l-51 -209q-84 16 -162 16q-72 0 -130 -31.5t-58 -113.5v-41h321v-223h-321v-846h-373v846h-219zM1047 846v223h219v35q0 98 37 170t102.5 117t153.5 66.5t190 21.5 q68 0 140.5 -6.5t150.5 -24.5l-51 -209q-84 16 -162 16q-72 0 -130 -31.5t-58 -113.5v-41h321v-223h-321v-846h-373v846h-219zM2177 1204v258h383v-258h-383zM2183 0v1069h373v-1069h-373z" />
<glyph unicode="&#xfb04;" horiz-adv-x="2723" d="M37 846v223h219v35q0 98 37 170t102.5 117t153.5 66.5t190 21.5q68 0 140.5 -6.5t150.5 -24.5l-51 -209q-84 16 -162 16q-72 0 -130 -31.5t-58 -113.5v-41h321v-223h-321v-846h-373v846h-219zM1047 846v223h219v35q0 98 37 170t102.5 117t153.5 66.5t190 21.5 q68 0 140.5 -6.5t150.5 -24.5l-51 -209q-84 16 -162 16q-72 0 -130 -31.5t-58 -113.5v-41h321v-223h-321v-846h-373v846h-219zM2183 0v1462h373v-1462h-373z" />
</font>
</defs>
</svg>
