<?xml version="1.0" standalone="no"?>
<!DOCTYPE svg PUBLIC "-//W3C//DTD SVG 1.1//EN" "http://www.w3.org/Graphics/SVG/1.1/DTD/svg11.dtd" >
<svg xmlns="http://www.w3.org/2000/svg">
<metadata></metadata>
<defs>
<font id="atlas_groteskbold" horiz-adv-x="1869" >
<font-face units-per-em="2048" ascent="1663" descent="-385" />
<missing-glyph horiz-adv-x="561" />
<glyph unicode="&#xfb01;" horiz-adv-x="1634" d="M47 872v226h186v147q0 106 33 181.5t96.5 118.5t145.5 62t190 19q101 0 185 -12v-228q-35 7 -101 7q-84 0 -126 -37t-42 -127v-131h254v-226h-254v-872h-381v872h-186zM1073 1288v295h397v-295h-397zM1077 0v1098h389v-1098h-389z" />
<glyph unicode="&#xfb02;" horiz-adv-x="1634" d="M47 872v226h186v147q0 106 33 181.5t96.5 118.5t145.5 62t190 19q101 0 185 -12v-228q-35 7 -101 7q-84 0 -126 -37t-42 -127v-131h254v-226h-254v-872h-381v872h-186zM1077 0v1614h389v-1614h-389z" />
<glyph horiz-adv-x="0" />
<glyph horiz-adv-x="682" />
<glyph unicode=" "  horiz-adv-x="561" />
<glyph unicode="&#x09;" horiz-adv-x="561" />
<glyph unicode="&#xa0;" horiz-adv-x="561" />
<glyph unicode="!" horiz-adv-x="811" d="M180 1614h451l-80 -1116h-293zM188 0v311h430v-311h-430z" />
<glyph unicode="&#x22;" horiz-adv-x="1181" d="M162 1567h350l-59 -535h-242zM672 1567h348l-62 -535h-237z" />
<glyph unicode="#" horiz-adv-x="1638" d="M133 569v195h299l49 291h-274v194h307l59 318h222l-56 -318h269l59 318h225l-59 -318h276v-194h-307l-49 -291h283v-195h-320l-61 -366h-228l62 366h-271l-63 -366h-221l61 366h-262zM653 764h273l53 291h-274z" />
<glyph unicode="$" horiz-adv-x="1630" d="M84 440h383q27 -184 256 -217v410l-84 12q-98 14 -176 36.5t-144.5 58.5t-111 84.5t-69.5 115.5t-25 150q0 178 164 300t446 140v166h172v-166q281 -18 431.5 -137t170.5 -297h-383q-7 72 -61 127.5t-158 74.5v-391l90 -12q549 -76 549 -426q0 -219 -165.5 -347 t-473.5 -145v-215h-172v215q-293 15 -459.5 134t-179.5 329zM500 1122q0 -152 223 -190v368q-114 -13 -168.5 -61.5t-54.5 -116.5zM895 221h4q124 13 184 65.5t60 131.5q0 81 -59.5 123t-188.5 65v-385z" />
<glyph unicode="%" horiz-adv-x="2256" d="M135 1151q0 119 60.5 204.5t156 125t213.5 39.5q89 0 166.5 -23t137.5 -68t95 -116.5t35 -161.5q0 -119 -60.5 -204.5t-157.5 -126t-216 -40.5q-187 0 -308.5 97t-121.5 274zM340 -82l1311 1681h280l-1313 -1681h-278zM397 1151q0 -97 43.5 -147t122.5 -50t124.5 50.5 t45.5 146.5t-46 147.5t-124 51.5q-80 0 -123 -50t-43 -149zM1255 356q0 90 34.5 161.5t94.5 116.5t137 68t165 23q120 0 215.5 -39.5t156 -124.5t60.5 -205q0 -90 -34.5 -161.5t-94.5 -116.5t-137 -68.5t-166 -23.5q-188 0 -309.5 96.5t-121.5 273.5zM1516 356 q0 -97 43 -146.5t124 -49.5q78 0 124 50.5t46 145.5q0 96 -46.5 147.5t-123.5 51.5q-167 0 -167 -199z" />
<glyph unicode="&#x26;" horiz-adv-x="1890" d="M109 422q0 138 93.5 245.5t297.5 209.5q-104 92 -148.5 170t-44.5 184q0 165 146.5 273t398.5 108q236 0 376 -94.5t140 -245.5q0 -68 -27 -129t-81.5 -116.5t-117 -101.5t-151.5 -100l287 -262q47 87 127 281h336q-47 -106 -75 -166.5t-77.5 -151.5t-97.5 -161 q86 -78 136 -96.5t163 -18.5v-252h-90q-141 0 -227.5 31t-184.5 114q-218 -176 -534 -176q-324 0 -484.5 119.5t-160.5 335.5zM487 455q0 -118 78 -183t223 -65q173 0 304 112l-424 390l-9 -7q-84 -50 -128 -108t-44 -139zM653 1229q0 -63 35 -117.5t119 -126.5 q116 69 174.5 129.5t58.5 134.5q0 70 -51.5 114t-138.5 44q-90 0 -143.5 -50t-53.5 -128z" />
<glyph unicode="'" horiz-adv-x="675" d="M162 1567h350l-59 -535h-242z" />
<glyph unicode="(" horiz-adv-x="880" d="M168 674q0 124 25 244t62 213.5t93 187.5t105 159.5t110 135.5h281q-71 -104 -124 -200t-101.5 -214.5t-74.5 -251.5t-26 -274q0 -140 26 -273t74.5 -251.5t101.5 -214.5t124 -201h-281q-78 89 -139 176.5t-123.5 207t-97.5 262t-35 294.5z" />
<glyph unicode=")" horiz-adv-x="858" d="M37 -266q71 105 123.5 201.5t100.5 214.5t73.5 251t25.5 273q0 141 -25.5 274t-73.5 251.5t-101 215t-123 199.5h278q61 -71 110 -136t105 -159t93.5 -187.5t62.5 -213.5t25 -244q0 -123 -25 -242.5t-62.5 -213t-93 -188t-105 -160.5t-110.5 -136h-278z" />
<glyph unicode="*" horiz-adv-x="1118" d="M86 1237l90 229l301 -141l4 4l-65 285h286l-63 -287l4 -4l301 139l90 -227l-336 -43v-6l252 -201l-233 -135l-152 260h-10l-152 -256l-233 135l252 199v8z" />
<glyph unicode="+" horiz-adv-x="1556" d="M156 614v238h467v397h307v-397h469v-238h-469v-401h-307v401h-467z" />
<glyph unicode="," horiz-adv-x="708" d="M98 -240l127 566h404l-271 -566h-260z" />
<glyph unicode="-" horiz-adv-x="1044" d="M139 522v248h768v-248h-768z" />
<glyph unicode="." horiz-adv-x="714" d="M150 0v326h415v-326h-415z" />
<glyph unicode="/" horiz-adv-x="1404" d="M-35 -266l1118 1880h295l-1116 -1880h-297z" />
<glyph unicode="0" horiz-adv-x="1724" d="M123 752q0 196 52.5 346.5t150.5 246.5t232.5 144.5t301.5 48.5q358 0 550 -195.5t192 -590.5q0 -387 -195 -585t-547 -198q-359 0 -548 195.5t-189 587.5zM551 754q0 -149 20.5 -254t62 -167t96.5 -90t130 -28q147 0 229 130t82 409q0 281 -83.5 411.5t-227.5 130.5 q-309 0 -309 -542z" />
<glyph unicode="1" horiz-adv-x="1054" d="M63 1040v209h48q171 0 262 64q92 67 92 207h346v-1520h-391v1040h-357z" />
<glyph unicode="2" horiz-adv-x="1570" d="M100 0v188l641 512q163 129 229 214t66 176q0 97 -63.5 152.5t-173.5 55.5q-42 0 -79.5 -8.5t-73 -29t-61.5 -52t-41.5 -81.5t-15.5 -113h-391q5 247 181 386.5t493 139.5q164 0 288 -34t197.5 -94.5t109.5 -136.5t36 -165q0 -66 -17 -124t-45.5 -107t-83 -105 t-112 -104.5t-150.5 -120.5l-370 -287v-2h784v-260h-1348z" />
<glyph unicode="3" horiz-adv-x="1597" d="M111 440h403q13 -108 92 -164.5t195 -56.5q125 0 203.5 60.5t78.5 158.5q0 101 -75.5 159t-206.5 58h-162v230h131q117 0 190.5 57.5t73.5 151.5q0 92 -73 146t-177 54q-129 0 -195.5 -58t-72.5 -163h-381q2 71 25.5 136.5t74 126.5t125 105.5t187 71.5t250.5 27 q298 0 465.5 -115t167.5 -290q0 -124 -80.5 -214t-227.5 -130v-5q167 -33 261 -125.5t94 -242.5q0 -90 -44.5 -170.5t-128 -143t-215.5 -99t-294 -36.5q-143 0 -258 26t-191 70t-128.5 105.5t-77 128t-29.5 141.5z" />
<glyph unicode="4" horiz-adv-x="1636" d="M86 336v227l782 955h461v-932h221v-250h-221v-336h-383v336h-860zM455 582h499v655h-6q-30 -74 -102 -164z" />
<glyph unicode="5" horiz-adv-x="1583" d="M111 428h381q23 -209 280 -209q128 0 212.5 72.5t84.5 200.5q0 126 -78.5 199t-208.5 73q-190 0 -286 -111h-326l90 865h1090v-258h-789l-41 -388h6q54 57 152 95.5t221 38.5q254 0 409.5 -133t155.5 -373q0 -110 -44.5 -205.5t-129 -168.5t-217.5 -115t-299 -42 q-146 0 -260.5 26.5t-186.5 69.5t-120.5 104t-69.5 123.5t-26 135.5z" />
<glyph unicode="6" horiz-adv-x="1626" d="M123 686q0 417 198.5 635.5t559.5 218.5q116 0 210 -19.5t160 -53.5t113 -82.5t72 -105t34 -122.5h-364q-43 150 -232 150q-160 0 -250.5 -127t-97.5 -379h11q55 92 168.5 143t257.5 51q114 0 213.5 -31t177 -90.5t122 -153.5t44.5 -212q0 -111 -44.5 -208t-128 -171 t-216 -117t-297.5 -43q-157 0 -283.5 40.5t-223.5 124t-150.5 224t-53.5 328.5zM563 487q0 -134 82 -203t199 -69q53 0 101.5 16t88.5 48t64 85.5t24 122.5q0 126 -77.5 197.5t-200.5 71.5q-129 0 -205 -69t-76 -200z" />
<glyph unicode="7" horiz-adv-x="1390" d="M57 1257v261h1272v-185l-731 -1333h-401l686 1257h-826z" />
<glyph unicode="8" horiz-adv-x="1617" d="M109 416q0 77 27 140t76 107t110.5 73.5t136.5 45.5v6q-130 36 -209.5 120.5t-79.5 215.5q0 185 168 300.5t471 115.5q302 0 470.5 -115.5t168.5 -302.5q0 -130 -81 -212.5t-212 -121.5v-6q162 -33 258 -122t96 -244q0 -192 -195 -320.5t-505 -128.5q-324 0 -512 124.5 t-188 324.5zM502 424q0 -113 87.5 -174.5t219.5 -61.5t219.5 61.5t87.5 174.5q0 115 -86 174t-221 59t-221 -59t-86 -174zM545 1096q0 -103 75 -159t189 -56q112 0 186 56t74 159q0 105 -74 161t-186 56q-115 0 -189.5 -56t-74.5 -161z" />
<glyph unicode="9" horiz-adv-x="1624" d="M106 1018q0 107 47 201.5t133 166t218 113t293 41.5q337 0 520.5 -185t183.5 -550q0 -211 -53.5 -371.5t-153 -262t-236.5 -152t-310 -50.5q-263 0 -419.5 106.5t-183.5 291.5h361q18 -76 87 -117t165 -41q331 0 340 502h-6q-54 -82 -161 -129t-245 -47 q-113 0 -215.5 31.5t-184.5 90t-131 152t-49 209.5zM504 1028q0 -121 82 -189.5t202 -68.5q126 0 207.5 67.5t81.5 190.5q0 63 -25 113.5t-67 81t-92.5 47t-104.5 16.5q-53 0 -102 -15t-90.5 -45t-66.5 -81.5t-25 -116.5z" />
<glyph unicode=":" horiz-adv-x="733" d="M170 0v326h410v-326h-410zM170 754v325h410v-325h-410z" />
<glyph unicode=";" horiz-adv-x="784" d="M102 -240l129 566h404l-270 -566h-263zM229 754v325h412v-325h-412z" />
<glyph unicode="&#x3c;" horiz-adv-x="1556" d="M158 608v148l1218 518v-266l-776 -320l776 -321v-275z" />
<glyph unicode="=" horiz-adv-x="1556" d="M186 399v236h1180v-236h-1180zM186 819v236h1180v-236h-1180z" />
<glyph unicode="&#x3e;" horiz-adv-x="1556" d="M180 86v266l776 320l-776 321v273l1219 -516v-146z" />
<glyph unicode="?" horiz-adv-x="1452" d="M78 1083q-5 247 172 397t500 150q161 0 283.5 -33t196 -92t110 -134.5t36.5 -166.5t-32.5 -164t-84.5 -124.5t-139 -112.5l-164 -115q-41 -28 -55 -48.5t-14 -61.5v-89h-336v132q0 97 25.5 140t123.5 109l140 97q80 56 116.5 103t36.5 118q0 87 -66.5 137.5t-185.5 50.5 q-129 0 -208.5 -69t-79.5 -224h-375zM504 0v311h430v-311h-430z" />
<glyph unicode="@" horiz-adv-x="2480" d="M125 541q0 207 90.5 388.5t245.5 310t369.5 202.5t455.5 74q302 0 544 -100.5t380.5 -284.5t138.5 -418q0 -124 -32.5 -225.5t-87.5 -170.5t-131 -116t-160 -68.5t-177 -21.5q-143 0 -235 51t-105 147h-8q-130 -194 -381 -194q-181 0 -282 96t-101 268q0 106 39 207.5 t108 182t175 129.5t231 49q114 0 189.5 -43t103.5 -109h4l27 119h315l-145 -568q-22 -89 13.5 -136.5t121.5 -47.5q62 0 117.5 25.5t102 76t74 137.5t27.5 199q0 115 -41.5 220t-119 188.5t-183.5 145t-241.5 95t-286.5 33.5q-264 0 -485 -110t-349.5 -303.5t-128.5 -427.5 q0 -236 117 -416t321 -275.5t462 -95.5q190 0 353.5 47.5t276.5 124.5l109 -92q-304 -213 -756 -213q-309 0 -553.5 114.5t-383 325t-138.5 480.5zM979 479q0 -85 41.5 -132.5t122.5 -47.5q90 0 164 66t98 172l22 90q24 98 -18.5 167.5t-140.5 69.5q-71 0 -128.5 -36.5 t-91 -94.5t-51.5 -123.5t-18 -130.5z" />
<glyph unicode="A" d="M49 0l656 1567h452l666 -1567h-422l-137 348h-691l-139 -348h-385zM668 594h497l-172 455q-23 61 -40.5 118t-24.5 84l-6 27h-4q-1 -2 -9 -31.5t-25.5 -84.5t-39.5 -111z" />
<glyph unicode="B" horiz-adv-x="1789" d="M188 0v1567h783q321 0 485 -100.5t164 -299.5q0 -129 -95.5 -213.5t-232.5 -111.5v-8q182 -25 295 -125.5t113 -251.5q0 -222 -192 -339.5t-521 -117.5h-799zM592 240h366q162 0 246 55.5t84 183.5q0 110 -87.5 164.5t-250.5 54.5h-358v-458zM592 920h330q138 0 217.5 50 t79.5 158q0 100 -75.5 152.5t-211.5 52.5h-340v-413z" />
<glyph unicode="C" horiz-adv-x="1882" d="M123 762q0 388 230.5 607.5t639.5 219.5q346 0 552.5 -145t226.5 -408h-416q-14 139 -111.5 221t-251.5 82q-197 0 -316.5 -146.5t-119.5 -418.5q0 -266 115.5 -410.5t318.5 -144.5q164 0 258 81.5t111 231.5h409q-15 -256 -221.5 -410.5t-548.5 -154.5 q-432 0 -654 207.5t-222 587.5z" />
<glyph unicode="D" horiz-adv-x="1892" d="M188 0v1567h643q212 0 381.5 -44.5t296 -135.5t195 -239t68.5 -345q0 -198 -68 -351.5t-192 -252t-294 -149t-378 -50.5h-652zM592 254h219q126 0 220.5 28t166 90t108.5 168t37 255q0 114 -24.5 202.5t-69 148.5t-110 98.5t-143.5 55.5t-173 17h-231v-1063z" />
<glyph unicode="E" horiz-adv-x="1593" d="M188 0v1567h1239v-256h-835v-404h792v-250h-792v-403h858v-254h-1262z" />
<glyph unicode="F" horiz-adv-x="1482" d="M188 0v1567h1184v-256h-780v-455h735v-252h-735v-604h-404z" />
<glyph unicode="G" horiz-adv-x="1990" d="M123 760q0 251 111 439.5t312.5 289t465.5 100.5q339 0 537.5 -128.5t232.5 -368.5h-410q-19 116 -115 186t-245 70q-220 0 -339.5 -147t-119.5 -425q0 -150 31.5 -259t92 -176t143.5 -98.5t192 -31.5q192 0 303 93t125 261l2 29h-445v242h822v-836h-320v213h-10 q-70 -112 -208.5 -179t-336.5 -67q-396 0 -608.5 212t-212.5 581z" />
<glyph unicode="H" horiz-adv-x="1945" d="M188 0v1567h404v-654h758v654h407v-1567h-407v651h-758v-651h-404z" />
<glyph unicode="I" horiz-adv-x="782" d="M188 0v1567h404v-1567h-404z" />
<glyph unicode="J" horiz-adv-x="1101" d="M82 -6v266h90q92 0 156.5 12t104 33t61 58t29 78t7.5 102v1024h400v-1065q0 -115 -31 -202t-87.5 -145t-143.5 -94t-192 -51.5t-240 -15.5h-154z" />
<glyph unicode="K" horiz-adv-x="1806" d="M188 0v1567h404v-699l686 699h451l-676 -656l704 -911h-463l-516 657l-186 -182v-475h-404z" />
<glyph unicode="L" horiz-adv-x="1499" d="M188 0v1567h404v-1305h811v-262h-1215z" />
<glyph unicode="M" horiz-adv-x="2385" d="M188 0v1567h586l340 -842q24 -58 43.5 -116t26.5 -87l8 -28h4q29 100 80 231l336 842h586v-1567h-400v1227h-6q-43 -146 -117 -332l-350 -895h-301l-352 895q-33 84 -60.5 166.5t-39.5 122.5l-11 41h-8v-1225h-365z" />
<glyph unicode="N" horiz-adv-x="1939" d="M188 0v1567h447l606 -848q43 -60 76.5 -118.5t46.5 -86.5l12 -29h8v1082h369v-1567h-426l-625 864q-44 61 -79.5 120.5t-48.5 88.5l-13 29h-8v-1102h-365z" />
<glyph unicode="O" horiz-adv-x="2019" d="M123 778q0 253 112.5 438t311.5 279t463 94q417 0 651.5 -211.5t234.5 -599.5q0 -255 -109 -438.5t-308 -278t-469 -94.5q-423 0 -655 211t-232 600zM561 778q0 -282 113.5 -423.5t335.5 -141.5q216 0 334 144t118 421q0 274 -123.5 422t-328.5 148q-216 0 -332.5 -144.5 t-116.5 -425.5z" />
<glyph unicode="P" horiz-adv-x="1642" d="M188 0v1567h656q157 0 284.5 -29t226 -88t152.5 -158t54 -231q0 -112 -38 -200.5t-105.5 -148.5t-163 -100t-206 -57.5t-239.5 -17.5h-217v-537h-404zM592 784h244q159 0 244 69t85 204q0 140 -83 204t-242 64h-248v-541z" />
<glyph unicode="Q" horiz-adv-x="2019" d="M123 778q0 257 111 441t310 277t466 93q411 0 648.5 -213t237.5 -598q0 -228 -88.5 -398.5t-248.5 -248.5v-10q136 -19 219 -70t151 -157l-354 -168q-94 143 -185.5 199.5t-238.5 56.5q-21 0 -67.5 -3.5t-77.5 -3.5q-424 0 -653.5 207t-229.5 596zM561 774 q0 -282 113.5 -423.5t335.5 -141.5q452 0 452 565q0 279 -122 426.5t-330 147.5q-211 0 -330 -147t-119 -427z" />
<glyph unicode="R" horiz-adv-x="1755" d="M188 0v1567h736q216 0 379 -58q311 -117 311 -403q0 -89 -31 -163t-85.5 -124.5t-114.5 -85t-132 -57.5v-4l420 -672h-434l-354 596h-291v-596h-404zM592 836h280q94 0 165 23t118 81t47 147q0 68 -29 118t-77.5 76.5t-102 39t-112.5 12.5h-289v-497z" />
<glyph unicode="S" horiz-adv-x="1718" d="M109 449h419q16 -106 103.5 -171t238.5 -65q160 0 243 59.5t83 153.5q0 83 -60 128.5t-206 68.5l-281 45q-226 37 -355.5 148.5t-129.5 293.5q0 213 188 346t518 133q140 0 253.5 -23.5t192.5 -64t133.5 -97.5t81 -122.5t30.5 -140.5h-414q-7 86 -77.5 145.5t-201.5 59.5 q-130 0 -206 -52t-76 -137q0 -80 58 -127t190 -67l284 -43q248 -38 372 -148t124 -285q0 -251 -196.5 -385.5t-557.5 -134.5q-346 0 -541.5 129t-209.5 353z" />
<glyph unicode="T" horiz-adv-x="1626" d="M57 1303v264h1514v-264h-555v-1303h-404v1303h-555z" />
<glyph unicode="U" d="M170 547v1020h403l-4 -914q0 -72 3.5 -118.5t20.5 -105t50 -93.5q100 -103 293 -103q206 0 303 103q30 33 45 89t17 96t2 114v6.5v5.5v6v914h397v-1020q0 -193 -97 -325t-266.5 -193.5t-404.5 -61.5q-176 0 -315 35t-239.5 105.5t-154 182t-53.5 257.5z" />
<glyph unicode="V" horiz-adv-x="1822" d="M49 1567h422l387 -1016q24 -68 40.5 -126.5t21.5 -82.5l4 -25h6q8 82 65 232l391 1018h388l-629 -1567h-461z" />
<glyph unicode="W" horiz-adv-x="2621" d="M51 1567h418l260 -891q21 -70 35 -136t18 -97l4 -31h5q12 106 65 262l291 893h369l294 -891q24 -70 42.5 -136t25.5 -97l6 -31h4q13 106 56 262l258 893h368l-495 -1567h-396l-303 926q-23 70 -37.5 132t-18.5 89l-3 27h-4q-11 -90 -60 -246l-299 -928h-403z" />
<glyph unicode="X" horiz-adv-x="1845" d="M61 0l625 809l-580 758h463l363 -500h2l371 500h424l-584 -746l639 -821h-477l-410 561h-4l-412 -561h-420z" />
<glyph unicode="Y" horiz-adv-x="1712" d="M27 1567h444l397 -617h4l402 617h412l-627 -905v-662h-404v655z" />
<glyph unicode="Z" horiz-adv-x="1617" d="M88 0v231l944 1076h-901v260h1376v-232l-942 -1073h957v-262h-1434z" />
<glyph unicode="[" horiz-adv-x="948" d="M238 -266v1880h649v-197h-326v-1487h326v-196h-649z" />
<glyph unicode="\" horiz-adv-x="1404" d="M29 1614h295l1116 -1880h-295z" />
<glyph unicode="]" horiz-adv-x="948" d="M61 -70h328v1487h-328v197h650v-1880h-650v196z" />
<glyph unicode="^" horiz-adv-x="1105" d="M41 1014l385 600h258l381 -600h-270l-250 354h-2l-248 -354h-254z" />
<glyph unicode="_" horiz-adv-x="958" d="M-4 -186h967v-203h-967v203z" />
<glyph unicode="`" horiz-adv-x="907" d="M168 1614h387l125 -357h-297z" />
<glyph unicode="a" horiz-adv-x="1435" d="M70 313q0 189 198 275q95 42 233 57.5t386 24.5v59q0 184 -195 184q-92 0 -140.5 -38.5t-51.5 -102.5h-375q11 165 160.5 257.5t406.5 92.5q159 0 269.5 -27t177.5 -83t97 -135.5t30 -192.5v-379q0 -45 22.5 -63.5t83.5 -18.5v-225h-131q-147 0 -219 32t-102 120h-7 q-130 -162 -397 -162q-207 0 -326.5 86t-119.5 239zM455 328q0 -61 46.5 -98t127.5 -37q109 0 184.5 70.5t75.5 199.5v35q-157 -8 -241.5 -21t-129.5 -39q-63 -37 -63 -110z" />
<glyph unicode="b" horiz-adv-x="1587" d="M168 0v1614h389v-680h6q54 82 157.5 135t242.5 53q117 0 211.5 -32.5t166.5 -99t111 -177.5t39 -260q0 -277 -149 -428.5t-408 -151.5q-269 0 -389 179h-4v-152h-373zM553 489q0 -135 69 -217t201 -82q130 0 200.5 91.5t70.5 267.5q0 350 -273 350q-120 0 -194 -78 t-74 -213v-119z" />
<glyph unicode="c" horiz-adv-x="1462" d="M94 549q0 267 178.5 421t487.5 154q270 0 436 -108.5t172 -310.5h-383q-10 93 -65 147.5t-160 54.5q-74 0 -127.5 -29t-83 -80.5t-42.5 -111.5t-13 -133q0 -356 264 -356q119 0 176.5 60.5t60.5 150.5h379q-5 -141 -87.5 -240.5t-217.5 -147t-311 -47.5 q-317 0 -490.5 152.5t-173.5 423.5z" />
<glyph unicode="d" horiz-adv-x="1595" d="M96 535q0 142 43.5 254t121.5 184t182.5 109.5t228.5 37.5t219 -45t141 -123h4v662h391v-1614h-372v162h-6q-135 -191 -394 -191q-267 0 -413 142t-146 422zM494 545q0 -355 272 -355q131 0 203.5 77t72.5 200v131q0 143 -71.5 222t-194.5 79q-134 0 -208 -89t-74 -265z " />
<glyph unicode="e" horiz-adv-x="1476" d="M94 551q0 257 175 415t481 158q162 0 285 -42.5t197.5 -119.5t111 -178t36.5 -225v-86h-893q12 -146 78.5 -214.5t192.5 -68.5q105 0 154.5 34.5t72.5 94.5h383q-30 -161 -194 -254.5t-429 -93.5q-314 0 -482.5 155.5t-168.5 424.5zM487 659h496v15q-9 120 -67 184 t-166 64q-235 0 -263 -263z" />
<glyph unicode="f" horiz-adv-x="911" d="M47 872v226h189v143q0 107 33.5 182.5t98 119.5t148.5 63.5t195 19.5q118 0 190 -12v-228q-21 7 -106 7q-92 0 -135.5 -37t-43.5 -127v-131h258v-226h-258v-872h-380v872h-189z" />
<glyph unicode="g" horiz-adv-x="1587" d="M96 569q0 174 76.5 300.5t204 188.5t289.5 62q141 0 235 -49t141 -123h5v150h374v-1010q0 -250 -163.5 -373t-497.5 -123q-299 0 -453 90.5t-170 251.5h377q20 -66 74.5 -97.5t175.5 -31.5q147 0 215 61.5t68 205.5v155h-7q-42 -79 -138 -135.5t-247 -56.5 q-266 0 -412.5 132.5t-146.5 401.5zM494 569q0 -327 278 -327q122 0 198.5 73.5t76.5 184.5v118q0 132 -75 206.5t-200 74.5q-126 0 -202 -84.5t-76 -245.5z" />
<glyph unicode="h" horiz-adv-x="1574" d="M168 0v1614h389v-692h6q49 84 155.5 141t256.5 57q234 0 341 -100.5t107 -306.5v-713h-391v643q0 68 -7.5 110t-31.5 70q-55 64 -170 64q-130 0 -198 -65.5t-68 -186.5v-635h-389z" />
<glyph unicode="i" horiz-adv-x="724" d="M164 1288v295h397v-295h-397zM168 0v1098h389v-1098h-389z" />
<glyph unicode="j" horiz-adv-x="735" d="M-86 -176q25 -10 96 -10q87 0 126.5 36t39.5 119v1129h391v-1131q0 -109 -35 -186.5t-100 -120.5t-146.5 -62.5t-187.5 -19.5q-31 0 -59.5 1.5t-49.5 4.5t-35.5 5.5t-26.5 5t-13 2.5v227zM174 1288v295h395v-295h-395z" />
<glyph unicode="k" horiz-adv-x="1470" d="M168 0v1614h383v-971l448 455h414l-440 -430l463 -668h-424l-299 449l-162 -164v-285h-383z" />
<glyph unicode="l" horiz-adv-x="724" d="M168 0v1614h389v-1614h-389z" />
<glyph unicode="m" horiz-adv-x="2410" d="M168 0v1098h375v-180h6q57 89 161.5 145.5t256.5 56.5q328 0 409 -227h4q29 56 82 104.5t147 85.5t208 37q229 0 335.5 -101t106.5 -306v-713h-391v643q0 68 -7.5 110t-31.5 70q-50 64 -166 64q-123 0 -188.5 -65.5t-65.5 -186.5v-635h-391v643q0 132 -39 180 q-52 64 -166 64q-123 0 -189.5 -65.5t-66.5 -184.5v-637h-389z" />
<glyph unicode="n" horiz-adv-x="1574" d="M168 0v1098h375v-180h6q127 202 426 202q234 0 341 -100.5t107 -306.5v-713h-391v641q0 69 -7.5 111.5t-31.5 70.5q-55 64 -170 64q-130 0 -198 -65.5t-68 -186.5v-635h-389z" />
<glyph unicode="o" horiz-adv-x="1521" d="M94 549q0 269 178.5 422t489.5 153q305 0 485 -153t180 -422q0 -176 -84.5 -308t-235 -201t-347.5 -69q-311 0 -488.5 154.5t-177.5 423.5zM496 549q0 -359 266 -359q260 0 260 359q0 356 -260 356q-71 0 -123.5 -26.5t-83 -75.5t-45 -112t-14.5 -142z" />
<glyph unicode="p" horiz-adv-x="1587" d="M168 -385v1483h375v-178h6q52 84 159 143t255 59q117 0 211.5 -32.5t166.5 -99t111 -177.5t39 -260q0 -272 -153 -426t-412 -154q-132 0 -224.5 46.5t-136.5 117.5h-8v-522h-389zM553 489q0 -135 69 -217t201 -82q130 0 200.5 91.5t70.5 267.5q0 350 -273 350 q-119 0 -193.5 -78.5t-74.5 -212.5v-119z" />
<glyph unicode="q" horiz-adv-x="1595" d="M96 535q0 142 43.5 254t121.5 184t182.5 109.5t228.5 37.5t223.5 -46.5t151.5 -125.5h6v150h374v-1483h-391v522h-4q-46 -67 -142.5 -116.5t-234.5 -49.5q-267 0 -413 140.5t-146 423.5zM494 545q0 -355 272 -355q131 0 203.5 77t72.5 200v131q0 143 -71.5 222t-194.5 79 q-133 0 -207.5 -89t-74.5 -265z" />
<glyph unicode="r" horiz-adv-x="1048" d="M168 0v1098h369v-232h4q53 119 174 184.5t260 65.5h22v-295h-67q-189 0 -282 -63t-93 -215v-543h-387z" />
<glyph unicode="s" horiz-adv-x="1316" d="M78 319h360q3 -63 57 -102t164 -39q96 0 152.5 31t56.5 90q0 51 -33.5 77t-123.5 36l-211 24q-387 46 -387 328q0 58 20.5 110.5t64 98.5t107 79.5t154 52.5t200.5 19q249 0 383 -90t148 -241h-344q-6 55 -55 90t-136 35t-135.5 -32t-48.5 -83q0 -47 36 -74.5t118 -36.5 l223 -24q381 -43 381 -324q0 -119 -74 -205t-202 -128t-298 -42q-143 0 -252.5 26.5t-177.5 75t-104 110.5t-43 138z" />
<glyph unicode="t" horiz-adv-x="985" d="M51 872v224h45q67 0 102 7t58.5 32.5t30 67.5t6.5 120v84h334v-309h295v-226h-291v-485q0 -84 42 -122t140 -38q21 0 48.5 2.5t44.5 4.5l18 2v-238q-153 -12 -260 -12q-203 0 -310.5 80.5t-107.5 259.5v546h-195z" />
<glyph unicode="u" horiz-adv-x="1564" d="M156 367v731h389v-641q0 -130 41 -181q48 -63 166 -63q128 0 193 72.5t65 212.5v600h391v-1098h-377v178h-4q-125 -198 -414 -198q-233 0 -341.5 95.5t-108.5 291.5z" />
<glyph unicode="v" horiz-adv-x="1402" d="M29 1098h393l213 -555q20 -54 38.5 -115t26.5 -95l9 -34h4q26 123 73 244l211 555h377l-473 -1098h-401z" />
<glyph unicode="w" horiz-adv-x="2113" d="M41 1098h377l174 -553q16 -50 28 -108t16 -91l5 -33h8q27 121 66 230l196 555h318l196 -555q17 -49 33 -106.5t24 -90.5l7 -33h10q22 121 57 230l173 555h339l-380 -1098h-375l-160 436q-22 59 -45 142t-35 136l-12 54h-4q-50 -201 -99 -332l-161 -436h-371z" />
<glyph unicode="x" horiz-adv-x="1400" d="M25 0l446 571l-412 527h420l226 -318h6l211 318h413l-413 -523l454 -575h-428l-260 360h-4l-246 -360h-413z" />
<glyph unicode="y" horiz-adv-x="1402" d="M41 1098h403l218 -578q19 -53 34 -106.5t20 -81.5l5 -27h6q14 96 57 215l203 578h381l-461 -1133q-42 -101 -87 -167t-111.5 -114.5t-158 -70t-218.5 -21.5q-135 0 -195 15v237q58 -10 133 -10q111 0 168.5 30t85.5 103l8 27z" />
<glyph unicode="z" horiz-adv-x="1337" d="M109 0v213l657 649h-633v236h1100v-211l-658 -647h670v-240h-1136z" />
<glyph unicode="{" horiz-adv-x="1015" d="M102 559v223h74q82 0 115 32t33 108v313q0 113 36.5 187.5t117 119t194 62.5t282.5 18v-188q-132 0 -200.5 -23t-93.5 -70.5t-25 -136.5v-262q0 -50 -8.5 -90t-29.5 -77t-61 -62t-98 -35v-8q58 -10 98 -35.5t61 -63t29.5 -79t8.5 -93.5v-256q0 -67 12.5 -108t48 -69.5 t97 -40t161.5 -11.5v-188q-336 0 -483 81t-147 289v324q0 76 -33 107.5t-115 31.5h-74z" />
<glyph unicode="|" horiz-adv-x="710" d="M219 -266v1880h264v-1880h-264z" />
<glyph unicode="}" horiz-adv-x="1015" d="M61 -86q99 0 161 11.5t98 40t49.5 69.5t13.5 108v265q0 229 197 262v8q-58 11 -98 36t-61 62.5t-29.5 78.5t-8.5 93v256q0 89 -26 136.5t-95.5 70.5t-200.5 23v188q335 0 483 -81.5t148 -289.5v-323q0 -76 32.5 -108t115.5 -32h73v-223h-73q-83 0 -115.5 -31.5 t-32.5 -107.5v-313q0 -112 -37 -187t-117.5 -119.5t-194.5 -62.5t-282 -18v188z" />
<glyph unicode="~" horiz-adv-x="1103" d="M41 520q0 95 31.5 172t101.5 126.5t168 49.5q66 0 144 -26t144.5 -52t104.5 -26q91 0 99 106h227q0 -71 -16 -132t-49 -110.5t-89.5 -77.5t-130.5 -28q-51 0 -111.5 16.5t-106 36t-95 36t-80.5 16.5q-42 0 -67 -27.5t-29 -79.5h-246z" />
<glyph unicode="&#xa1;" horiz-adv-x="811" d="M180 -233l80 1116h293l78 -1116h-451zM193 1069v311h430v-311h-430z" />
<glyph unicode="&#xa2;" horiz-adv-x="1482" d="M113 549q0 248 154 398.5t425 172.5v180h168v-178q236 -15 378 -123t151 -294h-365q-6 76 -47 130t-117 72v-712q86 20 128.5 78.5t45.5 134.5h359q-6 -192 -151 -303.5t-382 -127.5v-215h-168v213q-277 20 -428 171t-151 403zM489 553q0 -309 203 -356v710 q-55 -15 -95.5 -49.5t-63.5 -83t-33.5 -103t-10.5 -118.5z" />
<glyph unicode="&#xa3;" horiz-adv-x="1595" d="M86 618v199h225l-30 80q-75 198 -20.5 340.5t213 222.5t382.5 80q308 0 461.5 -119t148.5 -338h-393q0 105 -50.5 170.5t-166.5 65.5q-52 0 -94.5 -12t-76 -41t-50 -72.5t-11.5 -111t35 -152.5l39 -113h449v-199h-387q19 -104 -18 -185t-142 -157l-20 -14v-4h866v-258 h-1307v188l70 43q53 33 88 60.5t63.5 62t40 72t9.5 85.5t-21 107h-303z" />
<glyph unicode="&#xa4;" horiz-adv-x="1550" d="M123 342l242 197q-48 79 -48 174q0 89 43 170l-237 196l211 176l235 -200q92 39 203 39q110 0 207 -41l240 204l211 -176l-248 -200q47 -74 47 -168q0 -97 -47 -168l245 -201l-210 -176l-242 203q-84 -37 -203 -37q-113 0 -203 35l-237 -203zM555 713q0 -86 60 -140.5 t157 -54.5q99 0 159 54.5t60 140.5t-60 140t-159 54q-97 0 -157 -54.5t-60 -139.5z" />
<glyph unicode="&#xa5;" horiz-adv-x="1607" d="M51 1518h436l332 -496h4l332 496h404l-537 -738h463v-155h-488v-166h492v-156h-492v-303h-383v303h-487v156h487v166h-491v155h463z" />
<glyph unicode="&#xa6;" horiz-adv-x="710" d="M219 -266v854h264v-854h-264zM219 786v828h264v-828h-264z" />
<glyph unicode="&#xa7;" horiz-adv-x="1536" d="M109 696q0 100 63.5 172.5t183.5 110.5v2q-120 85 -120 240q0 160 149 256t389 96q269 0 398.5 -93.5t140.5 -256.5h-352q-10 141 -185 141q-90 0 -137 -31.5t-47 -83.5q0 -57 38.5 -86t139.5 -65l322 -117q188 -70 263 -148t75 -200q0 -99 -61.5 -168.5t-178.5 -106.5 v-4q117 -80 117 -217q0 -180 -150.5 -275t-406.5 -95q-271 0 -410.5 94.5t-151.5 265.5h349q6 -72 61 -112t154 -40q97 0 147.5 31.5t50.5 87.5q0 48 -33 76t-116 59l-350 127q-88 32 -142.5 59t-104.5 66.5t-72.5 92t-22.5 122.5zM451 748q0 -54 44.5 -87.5t135.5 -68.5 l233 -90q87 -32 97 -37q60 10 92 44t32 83q0 48 -39.5 83t-140.5 73l-239 88q-68 24 -84 34q-65 -11 -98 -44.5t-33 -77.5z" />
<glyph unicode="&#xa8;" horiz-adv-x="907" d="M29 1303v280h336v-280h-336zM541 1303v280h336v-280h-336z" />
<glyph unicode="&#xa9;" horiz-adv-x="2209" d="M135 778q0 170 74 320.5t202 258.5t308 171t385 63t385.5 -63t308.5 -171t202.5 -258.5t74.5 -320.5t-74 -320t-202.5 -258t-309 -170.5t-385.5 -62.5t-385 62.5t-308 170.5t-202 258t-74 320zM295 778q0 -194 104.5 -353t290 -250t414.5 -91t415 91t291 250t105 353 t-105 353.5t-291 251.5t-415 92t-414.5 -92t-290 -251.5t-104.5 -353.5zM606 786q0 203 136.5 321t371.5 118q204 0 330.5 -83.5t132.5 -238.5h-295q-5 70 -47 113t-121 43q-56 0 -97.5 -22.5t-64 -61.5t-33 -85.5t-10.5 -101.5q0 -270 201 -270q93 0 136 45.5t46 116.5h289 q-6 -161 -136 -247.5t-335 -86.5q-242 0 -373 116t-131 324z" />
<glyph unicode="&#xaa;" horiz-adv-x="1245" d="M100 903q0 147 158 217q77 35 186.5 48t305.5 18v43q0 125 -134 125q-59 0 -96.5 -27t-40.5 -70h-340q6 131 135.5 207t331.5 76q177 0 282.5 -42t148 -117.5t42.5 -194.5v-273q0 -40 18.5 -55.5t59.5 -15.5v-189h-115q-119 0 -182.5 23.5t-93.5 93.5h-4 q-46 -59 -126.5 -93t-184.5 -34q-158 0 -254.5 71t-96.5 189zM444 924q0 -45 32 -70t87 -25q85 0 137 49.5t52 137.5v24q-88 -3 -120.5 -4.5t-74 -9t-65.5 -22.5q-48 -26 -48 -80z" />
<glyph unicode="&#xab;" horiz-adv-x="1304" d="M94 535l262 415h285l-238 -422l244 -411h-289zM631 535l264 415h285l-238 -422l240 -411h-285z" />
<glyph unicode="&#xac;" horiz-adv-x="1552" d="M156 614v238h1243v-639h-307v401h-936z" />
<glyph unicode="&#xad;" horiz-adv-x="1044" d="M139 522v248h768v-248h-768z" />
<glyph unicode="&#xae;" horiz-adv-x="1261" d="M98 1141q0 190 151.5 319t379.5 129q229 0 381.5 -129t152.5 -319t-152.5 -318.5t-381.5 -128.5q-228 0 -379.5 128.5t-151.5 318.5zM207 1141q0 -159 119.5 -264t302.5 -105t304.5 105.5t121.5 263.5t-121.5 264t-304.5 106q-182 0 -302 -105.5t-120 -264.5zM418 926 v460h248q81 0 137.5 -34.5t56.5 -104.5q0 -51 -33.5 -83t-78.5 -44l120 -194h-153l-101 176h-59v-176h-137zM555 1184h70q92 0 92 67q0 29 -24.5 44.5t-65.5 15.5h-72v-127z" />
<glyph unicode="&#xaf;" horiz-adv-x="907" d="M33 1303v213h839v-213h-839z" />
<glyph unicode="&#xb0;" horiz-adv-x="1093" d="M133 1217q0 148 117 247t295 99q181 0 298.5 -98.5t117.5 -247.5q0 -148 -117.5 -246.5t-298.5 -98.5q-178 0 -295 98.5t-117 246.5zM336 1217q0 -82 58 -134.5t151 -52.5q96 0 154.5 52t58.5 135t-58.5 135.5t-154.5 52.5q-93 0 -151 -53t-58 -135z" />
<glyph unicode="&#xb1;" horiz-adv-x="1556" d="M156 0v236h1243v-236h-1243zM156 756v237h467v344h307v-344h469v-237h-469v-348h-307v348h-467z" />
<glyph unicode="&#xb2;" horiz-adv-x="1056" d="M74 786v125l428 310q86 61 119.5 101.5t33.5 86.5q0 49 -35.5 78t-95.5 29q-74 0 -119 -37t-45 -119h-276q3 151 116 236t326 85q210 0 315 -71.5t105 -186.5q0 -94 -59 -162t-199 -161l-194 -133v-4h460v-177h-880z" />
<glyph unicode="&#xb3;" horiz-adv-x="1073" d="M90 1047h287q4 -52 47 -80.5t106 -28.5q73 0 117.5 33t44.5 82q0 51 -41 79.5t-114 28.5h-123v146h100q63 0 106.5 28.5t43.5 77.5t-39.5 77t-100.5 28q-72 0 -107.5 -31.5t-37.5 -79.5h-279q2 52 26 98.5t72.5 88.5t137 67t205.5 25q193 0 300 -68t107 -172 q0 -74 -52.5 -126t-156.5 -73v-4q236 -35 236 -211q0 -110 -117 -187t-326 -77q-119 0 -207 23.5t-137 65t-72.5 88.5t-25.5 102z" />
<glyph unicode="&#xb4;" horiz-adv-x="907" d="M231 1257l125 357h389l-217 -357h-297z" />
<glyph unicode="&#xb6;" horiz-adv-x="1513" d="M119 1169q0 102 41 179.5t115.5 124.5t172 70.5t216.5 23.5h219v-1567h-242v766q-239 5 -380.5 107.5t-141.5 295.5zM1081 0v1567h244v-1567h-244z" />
<glyph unicode="&#xb7;" horiz-adv-x="714" d="M150 547v325h415v-325h-415z" />
<glyph unicode="&#xb8;" horiz-adv-x="1316" d="M406 -287h188q17 -43 78 -43q78 0 78 66q0 30 -20 46.5t-58 16.5q-45 0 -68 -26h-160l156 288h129l-86 -155h6q36 20 99 20q90 0 148 -49.5t58 -132.5q0 -80 -74 -136.5t-214 -56.5q-121 0 -189 46.5t-71 115.5z" />
<glyph unicode="&#xb9;" horiz-adv-x="749" d="M59 1360v156h35q104 0 162 34q59 37 59 119h258v-883h-282v574h-232z" />
<glyph unicode="&#xba;" horiz-adv-x="1298" d="M109 1085q0 216 144 334.5t396 118.5q241 0 391 -119t150 -334q0 -139 -70 -242.5t-192 -156.5t-279 -53q-250 0 -395 119t-145 333zM459 1085q0 -251 190 -251q56 0 94.5 20t58.5 56.5t28 78.5t8 96q0 252 -189 252q-190 0 -190 -252z" />
<glyph unicode="&#xbb;" horiz-adv-x="1323" d="M123 950h287l264 -415l-260 -418h-289l242 422zM676 950h287l264 -415l-260 -418h-289l242 422z" />
<glyph unicode="&#xbc;" horiz-adv-x="2146" d="M59 1257v156h35q102 0 162 35q59 37 59 119h258v-883h-282v573h-232zM182 -82l1344 1681h272l-1343 -1681h-273zM1110 184v156l483 543h336v-525h137v-174h-137v-184h-262v184h-557zM1366 348h309v377h-6q-31 -66 -86 -129z" />
<glyph unicode="&#xbd;" horiz-adv-x="2256" d="M59 1257v156h35q102 0 162 35q59 37 59 119h258v-883h-282v573h-232zM180 -82l1344 1681h272l-1343 -1681h-273zM1274 0v125l426 309q88 63 121.5 103t33.5 86q0 49 -35.5 77.5t-97.5 28.5q-73 0 -117 -37t-44 -119h-279q5 151 118 236.5t324 85.5t316.5 -72t105.5 -186 q0 -92 -58.5 -159.5t-199.5 -164.5l-194 -133v-4h458v-176h-878z" />
<glyph unicode="&#xbe;" horiz-adv-x="2338" d="M90 944h287q4 -52 47 -80t106 -28q73 0 117.5 32.5t44.5 81.5q0 51 -41 80t-114 29h-123v145h100q63 0 106.5 29t43.5 78t-39.5 76.5t-100.5 27.5q-72 0 -107.5 -31t-37.5 -79h-279q2 41 16.5 78.5t47.5 74.5t81.5 64.5t124.5 44t171 16.5q193 0 300 -68t107 -172 q0 -74 -52.5 -125.5t-156.5 -72.5v-4q236 -35 236 -211q0 -110 -117 -187t-326 -77q-119 0 -207 23.5t-137 64.5t-72.5 88t-25.5 102zM420 -82l1345 1681h273l-1346 -1681h-272zM1305 184v156l481 543h338v-525h137v-174h-137v-184h-264v184h-555zM1561 348h309v377h-6 q-31 -66 -86 -129z" />
<glyph unicode="&#xbf;" horiz-adv-x="1452" d="M78 176q0 132 62 221.5t194 180.5l166 114q40 27 53.5 48.5t13.5 62.5v88h338v-131q0 -97 -26.5 -140.5t-124.5 -109.5l-140 -96q-53 -37 -82.5 -64.5t-49 -67.5t-19.5 -89q0 -87 65.5 -138t184.5 -51q62 0 112.5 15t91.5 48t64 91.5t23 138.5h372q6 -247 -171 -397 t-500 -150q-161 0 -283.5 33t-196.5 92t-110.5 134.5t-36.5 166.5zM520 1069v311h430v-311h-430z" />
<glyph unicode="&#xc0;" d="M49 0l656 1567h452l666 -1567h-422l-137 348h-691l-139 -348h-385zM528 1966h392l157 -272h-295zM668 594h497l-172 455q-23 61 -40.5 118t-24.5 84l-6 27h-4q-1 -2 -9 -31.5t-25.5 -84.5t-39.5 -111z" />
<glyph unicode="&#xc1;" d="M49 0l656 1567h452l666 -1567h-422l-137 348h-691l-139 -348h-385zM668 594h497l-172 455q-23 61 -40.5 118t-24.5 84l-6 27h-4q-1 -2 -9 -31.5t-25.5 -84.5t-39.5 -111zM776 1694l158 272h389l-254 -272h-293z" />
<glyph unicode="&#xc2;" d="M49 0l656 1567h452l666 -1567h-422l-137 348h-691l-139 -348h-385zM508 1694l266 272h334l266 -272h-282l-162 114h-4l-156 -114h-262zM668 594h497l-172 455q-23 61 -40.5 118t-24.5 84l-6 27h-4q-1 -2 -9 -31.5t-25.5 -84.5t-39.5 -111z" />
<glyph unicode="&#xc3;" d="M49 0l656 1567h452l666 -1567h-422l-137 348h-691l-139 -348h-385zM467 1677q1 54 10.5 100t31 87t53 69.5t80 45t110.5 16.5q53 0 107.5 -16.5t91.5 -37t79.5 -37t73.5 -16.5q87 0 121 109h174q-11 -318 -285 -318q-53 0 -107 16.5t-91 37t-80 37t-76 16.5 q-37 0 -69 -26t-48 -83h-176zM668 594h497l-172 455q-23 61 -40.5 118t-24.5 84l-6 27h-4q-1 -2 -9 -31.5t-25.5 -84.5t-39.5 -111z" />
<glyph unicode="&#xc4;" d="M49 0l656 1567h452l666 -1567h-422l-137 348h-691l-139 -348h-385zM504 1696v280h334v-280h-334zM668 594h497l-172 455q-23 61 -40.5 118t-24.5 84l-6 27h-4q-1 -2 -9 -31.5t-25.5 -84.5t-39.5 -111zM1032 1696v280h334v-280h-334z" />
<glyph unicode="&#xc5;" d="M49 0l656 1567h452l666 -1567h-422l-137 348h-691l-139 -348h-385zM610 1882q0 113 90 183.5t234 70.5q152 0 236.5 -69.5t84.5 -184.5q0 -113 -88.5 -181.5t-234.5 -68.5q-150 0 -236 68t-86 182zM668 594h497l-172 455q-23 61 -40.5 118t-24.5 84l-6 27h-4 q-1 -2 -9 -31.5t-25.5 -84.5t-39.5 -111zM801 1882q0 -56 35.5 -90.5t97.5 -34.5q58 0 92.5 34.5t34.5 90.5q0 57 -33.5 91t-95.5 34q-60 0 -95.5 -34.5t-35.5 -90.5z" />
<glyph unicode="&#xc6;" horiz-adv-x="2686" d="M29 0l915 1567h1577v-256h-825v-404h782v-250h-782v-403h848v-254h-1254v375h-635l-209 -375h-417zM791 621h499v690h-114z" />
<glyph unicode="&#xc7;" horiz-adv-x="1882" d="M123 762q0 388 230.5 607.5t639.5 219.5q346 0 552.5 -145t226.5 -408h-416q-14 139 -111.5 221t-251.5 82q-197 0 -316.5 -146.5t-119.5 -418.5q0 -266 115.5 -410.5t318.5 -144.5q164 0 258 81.5t111 231.5h409q-15 -256 -221.5 -410.5t-548.5 -154.5h-14l-49 -88h6 q38 21 98 21q89 0 147 -50t58 -133q0 -80 -73.5 -136t-213.5 -56q-121 0 -189 46.5t-71 115.5h189q17 -43 76 -43q79 0 79 65q0 30 -20 47t-59 17q-42 0 -66 -27h-160l123 227q-364 33 -550.5 237.5t-186.5 551.5z" />
<glyph unicode="&#xc8;" horiz-adv-x="1593" d="M188 0v1567h1239v-256h-835v-404h792v-250h-792v-403h858v-254h-1262zM416 1966h391l156 -272h-295z" />
<glyph unicode="&#xc9;" horiz-adv-x="1593" d="M188 0v1567h1239v-256h-835v-404h792v-250h-792v-403h858v-254h-1262zM666 1694l157 272h389l-254 -272h-292z" />
<glyph unicode="&#xca;" horiz-adv-x="1593" d="M188 0v1567h1239v-256h-835v-404h792v-250h-792v-403h858v-254h-1262zM395 1694l267 272h333l267 -272h-283l-164 114h-2l-158 -114h-260z" />
<glyph unicode="&#xcb;" horiz-adv-x="1593" d="M188 0v1567h1239v-256h-835v-404h792v-250h-792v-403h858v-254h-1262zM389 1696v280h334v-280h-334zM918 1696v280h333v-280h-333z" />
<glyph unicode="&#xcc;" horiz-adv-x="782" d="M-14 1966h391l155 -272h-294zM188 0v1567h404v-1567h-404z" />
<glyph unicode="&#xcd;" horiz-adv-x="782" d="M188 0v1567h404v-1567h-404zM236 1694l157 272h389l-254 -272h-292z" />
<glyph unicode="&#xce;" horiz-adv-x="782" d="M-35 1694l266 272h334l266 -272h-282l-164 114h-2l-158 -114h-260zM188 0v1567h404v-1567h-404z" />
<glyph unicode="&#xcf;" horiz-adv-x="782" d="M-41 1696v280h334v-280h-334zM188 0v1567h404v-1567h-404zM487 1696v280h334v-280h-334z" />
<glyph unicode="&#xd0;" horiz-adv-x="1945" d="M59 674v227h185v666h643q212 0 381 -44.5t295.5 -135.5t195 -239t68.5 -345q0 -198 -68 -351.5t-192 -252t-294 -149t-378 -50.5h-651v674h-185zM647 254h217q127 0 222 28t167 90t109 168t37 255q0 142 -37 244.5t-108 162.5t-163.5 87.5t-213.5 27.5h-230v-416h408 v-227h-408v-420z" />
<glyph unicode="&#xd1;" horiz-adv-x="1939" d="M188 0v1567h447l606 -848q43 -60 76.5 -118.5t46.5 -86.5l12 -29h8v1082h369v-1567h-426l-625 864q-44 61 -79.5 120.5t-48.5 88.5l-13 29h-8v-1102h-365zM504 1677q2 69 17 124t47 100t87.5 69.5t132.5 24.5q53 0 107.5 -16.5t92 -37t80 -37t73.5 -16.5q87 0 121 109 h174q-11 -318 -285 -318q-53 0 -107 16.5t-91 37t-80 37t-76 16.5q-37 0 -69 -26t-48 -83h-176z" />
<glyph unicode="&#xd2;" horiz-adv-x="2019" d="M123 778q0 253 112.5 438t311.5 279t463 94q417 0 651.5 -211.5t234.5 -599.5q0 -255 -109 -438.5t-308 -278t-469 -94.5q-423 0 -655 211t-232 600zM561 778q0 -282 113.5 -423.5t335.5 -141.5q216 0 334 144t118 421q0 274 -123.5 422t-328.5 148q-216 0 -332.5 -144.5 t-116.5 -425.5zM604 1966h391l158 -272h-295z" />
<glyph unicode="&#xd3;" horiz-adv-x="2019" d="M123 778q0 253 112.5 438t311.5 279t463 94q417 0 651.5 -211.5t234.5 -599.5q0 -255 -109 -438.5t-308 -278t-469 -94.5q-423 0 -655 211t-232 600zM561 778q0 -282 113.5 -423.5t335.5 -141.5q216 0 334 144t118 421q0 274 -123.5 422t-328.5 148q-216 0 -332.5 -144.5 t-116.5 -425.5zM850 1694l158 272h389l-254 -272h-293z" />
<glyph unicode="&#xd4;" horiz-adv-x="2019" d="M123 778q0 253 112.5 438t311.5 279t463 94q417 0 651.5 -211.5t234.5 -599.5q0 -255 -109 -438.5t-308 -278t-469 -94.5q-423 0 -655 211t-232 600zM561 778q0 -282 113.5 -423.5t335.5 -141.5q216 0 334 144t118 421q0 274 -123.5 422t-328.5 148q-216 0 -332.5 -144.5 t-116.5 -425.5zM582 1694l266 272h334l266 -272h-283l-161 114h-5l-155 -114h-262z" />
<glyph unicode="&#xd5;" horiz-adv-x="2019" d="M123 778q0 253 112.5 438t311.5 279t463 94q417 0 651.5 -211.5t234.5 -599.5q0 -255 -109 -438.5t-308 -278t-469 -94.5q-423 0 -655 211t-232 600zM543 1677q11 318 284 318q53 0 107.5 -16.5t92 -37t80 -37t73.5 -16.5q86 0 120 109h175q-1 -54 -10.5 -100t-31 -87 t-53 -69.5t-80 -45t-110.5 -16.5q-53 0 -107 16.5t-91 37t-80 37t-76 16.5q-36 0 -68.5 -26.5t-46.5 -82.5h-178zM561 778q0 -282 113.5 -423.5t335.5 -141.5q216 0 334 144t118 421q0 274 -123.5 422t-328.5 148q-216 0 -332.5 -144.5t-116.5 -425.5z" />
<glyph unicode="&#xd6;" horiz-adv-x="2019" d="M123 778q0 253 112.5 438t311.5 279t463 94q417 0 651.5 -211.5t234.5 -599.5q0 -255 -109 -438.5t-308 -278t-469 -94.5q-423 0 -655 211t-232 600zM561 778q0 -282 113.5 -423.5t335.5 -141.5q216 0 334 144t118 421q0 274 -123.5 422t-328.5 148q-216 0 -332.5 -144.5 t-116.5 -425.5zM578 1696v280h333v-280h-333zM1106 1696v280h334v-280h-334z" />
<glyph unicode="&#xd7;" horiz-adv-x="1552" d="M156 371l413 340l-411 340l211 178l407 -344l408 344l213 -174l-414 -342l414 -340l-213 -178l-410 346l-407 -346z" />
<glyph unicode="&#xd8;" horiz-adv-x="2019" d="M59 -51l258 268q-194 203 -194 561q0 253 112.5 438t311.5 279t463 94q308 0 516 -114l143 149h264l-252 -264q215 -212 215 -582q0 -255 -109 -438.5t-308 -278t-469 -94.5q-330 0 -543 129l-143 -147h-265zM551 778q0 -168 35 -280l725 753q-115 101 -301 101 q-222 0 -340.5 -145t-118.5 -429zM684 324q111 -117 326 -117q221 0 342 146t121 425q0 178 -52 312z" />
<glyph unicode="&#xd9;" d="M170 547v1020h403l-4 -914q0 -72 3.5 -118.5t20.5 -105t50 -93.5q100 -103 293 -103q206 0 303 103q30 33 45 89t17 96t2 114v6.5v5.5v6v914h397v-1020q0 -193 -97 -325t-266.5 -193.5t-404.5 -61.5q-176 0 -315 35t-239.5 105.5t-154 182t-53.5 257.5zM530 1966h392 l157 -272h-295z" />
<glyph unicode="&#xda;" d="M170 547v1020h403l-4 -914q0 -72 3.5 -118.5t20.5 -105t50 -93.5q100 -103 293 -103q206 0 303 103q30 33 45 89t17 96t2 114v6.5v5.5v6v914h397v-1020q0 -193 -97 -325t-266.5 -193.5t-404.5 -61.5q-176 0 -315 35t-239.5 105.5t-154 182t-53.5 257.5zM778 1694l158 272 h389l-254 -272h-293z" />
<glyph unicode="&#xdb;" d="M170 547v1020h403l-4 -914q0 -72 3.5 -118.5t20.5 -105t50 -93.5q100 -103 293 -103q206 0 303 103q30 33 45 89t17 96t2 114v6.5v5.5v6v914h397v-1020q0 -193 -97 -325t-266.5 -193.5t-404.5 -61.5q-176 0 -315 35t-239.5 105.5t-154 182t-53.5 257.5zM512 1694l264 272 h334l266 -272h-282l-162 114h-2l-158 -114h-260z" />
<glyph unicode="&#xdc;" d="M170 547v1020h403l-4 -914q0 -72 3.5 -118.5t20.5 -105t50 -93.5q100 -103 293 -103q206 0 303 103q30 33 45 89t17 96t2 114v6.5v5.5v6v914h397v-1020q0 -193 -97 -325t-266.5 -193.5t-404.5 -61.5q-176 0 -315 35t-239.5 105.5t-154 182t-53.5 257.5zM502 1696v280h334 v-280h-334zM1030 1696v280h334v-280h-334z" />
<glyph unicode="&#xdd;" horiz-adv-x="1712" d="M27 1567h444l397 -617h4l402 617h412l-627 -905v-662h-404v655zM717 1694l157 272h390l-254 -272h-293z" />
<glyph unicode="&#xde;" horiz-adv-x="1642" d="M188 0v1567h404v-303h315q144 0 260.5 -26t206 -79.5t138.5 -143t49 -210.5q0 -126 -50.5 -219t-143 -148t-213.5 -81.5t-273 -26.5h-289v-330h-404zM592 565h268q149 3 229 62.5t80 175.5q0 122 -81.5 176.5t-237.5 54.5h-258v-469z" />
<glyph unicode="&#xdf;" horiz-adv-x="1595" d="M168 0v1137q0 231 161 358t482 127q274 0 428 -114t154 -298q0 -140 -81.5 -226.5t-203.5 -119.5v-6q177 -29 286 -130.5t109 -268.5q0 -219 -179 -339t-501 -120h-98v236h78q135 0 215 60t80 181q0 118 -83 188t-216 70h-39v236h37q107 0 170 56t63 169q0 109 -65 159 t-170 50t-171.5 -58t-66.5 -180v-1167h-389z" />
<glyph unicode="&#xe0;" horiz-adv-x="1435" d="M70 313q0 189 198 275q95 42 233 57.5t386 24.5v59q0 184 -195 184q-92 0 -140.5 -38.5t-51.5 -102.5h-375q11 165 160.5 257.5t406.5 92.5q159 0 269.5 -27t177.5 -83t97 -135.5t30 -192.5v-379q0 -45 22.5 -63.5t83.5 -18.5v-225h-131q-147 0 -219 32t-102 120h-7 q-130 -162 -397 -162q-207 0 -326.5 86t-119.5 239zM356 1614h389l125 -357h-297zM455 328q0 -61 46.5 -98t127.5 -37q109 0 184.5 70.5t75.5 199.5v35q-157 -8 -241.5 -21t-129.5 -39q-63 -37 -63 -110z" />
<glyph unicode="&#xe1;" horiz-adv-x="1435" d="M70 313q0 189 198 275q95 42 233 57.5t386 24.5v59q0 184 -195 184q-92 0 -140.5 -38.5t-51.5 -102.5h-375q11 165 160.5 257.5t406.5 92.5q159 0 269.5 -27t177.5 -83t97 -135.5t30 -192.5v-379q0 -45 22.5 -63.5t83.5 -18.5v-225h-131q-147 0 -219 32t-102 120h-7 q-130 -162 -397 -162q-207 0 -326.5 86t-119.5 239zM455 328q0 -61 46.5 -98t127.5 -37q109 0 184.5 70.5t75.5 199.5v35q-157 -8 -241.5 -21t-129.5 -39q-63 -37 -63 -110zM543 1257l125 357h389l-217 -357h-297z" />
<glyph unicode="&#xe2;" horiz-adv-x="1435" d="M70 313q0 189 198 275q95 42 233 57.5t386 24.5v59q0 184 -195 184q-92 0 -140.5 -38.5t-51.5 -102.5h-375q11 165 160.5 257.5t406.5 92.5q159 0 269.5 -27t177.5 -83t97 -135.5t30 -192.5v-379q0 -45 22.5 -63.5t83.5 -18.5v-225h-131q-147 0 -219 32t-102 120h-7 q-130 -162 -397 -162q-207 0 -326.5 86t-119.5 239zM297 1257l270 357h310l270 -357h-266l-170 158h-2l-164 -158h-248zM455 328q0 -61 46.5 -98t127.5 -37q109 0 184.5 70.5t75.5 199.5v35q-157 -8 -241.5 -21t-129.5 -39q-63 -37 -63 -110z" />
<glyph unicode="&#xe3;" horiz-adv-x="1435" d="M70 313q0 189 198 275q95 42 233 57.5t386 24.5v59q0 184 -195 184q-92 0 -140.5 -38.5t-51.5 -102.5h-375q11 165 160.5 257.5t406.5 92.5q159 0 269.5 -27t177.5 -83t97 -135.5t30 -192.5v-379q0 -45 22.5 -63.5t83.5 -18.5v-225h-131q-147 0 -219 32t-102 120h-7 q-130 -162 -397 -162q-207 0 -326.5 86t-119.5 239zM248 1257q0 71 15.5 129.5t49 106t91 74t135.5 26.5q65 0 130.5 -26t120.5 -52t93 -26q92 0 123 106h174q0 -73 -15.5 -132t-49 -106.5t-91 -73.5t-135.5 -26q-65 0 -130 26.5t-120 52.5t-94 26t-72 -24t-47 -81h-178z M455 328q0 -61 46.5 -98t127.5 -37q109 0 184.5 70.5t75.5 199.5v35q-157 -8 -241.5 -21t-129.5 -39q-63 -37 -63 -110z" />
<glyph unicode="&#xe4;" horiz-adv-x="1435" d="M70 313q0 189 198 275q95 42 233 57.5t386 24.5v59q0 184 -195 184q-92 0 -140.5 -38.5t-51.5 -102.5h-375q11 165 160.5 257.5t406.5 92.5q159 0 269.5 -27t177.5 -83t97 -135.5t30 -192.5v-379q0 -45 22.5 -63.5t83.5 -18.5v-225h-131q-147 0 -219 32t-102 120h-7 q-130 -162 -397 -162q-207 0 -326.5 86t-119.5 239zM291 1303v280h334v-280h-334zM455 328q0 -61 46.5 -98t127.5 -37q109 0 184.5 70.5t75.5 199.5v35q-157 -8 -241.5 -21t-129.5 -39q-63 -37 -63 -110zM801 1303v280h338v-280h-338z" />
<glyph unicode="&#xe5;" horiz-adv-x="1435" d="M70 313q0 189 198 275q95 42 233 57.5t386 24.5v59q0 184 -195 184q-92 0 -140.5 -38.5t-51.5 -102.5h-375q11 165 160.5 257.5t406.5 92.5q159 0 269.5 -27t177.5 -83t97 -135.5t30 -192.5v-379q0 -45 22.5 -63.5t83.5 -18.5v-225h-131q-147 0 -219 32t-102 120h-7 q-130 -162 -397 -162q-207 0 -326.5 86t-119.5 239zM395 1485q0 111 91 181.5t235 70.5q151 0 236 -69.5t85 -182.5q0 -114 -89.5 -183t-235.5 -69q-150 0 -236 68.5t-86 183.5zM455 328q0 -61 46.5 -98t127.5 -37q109 0 184.5 70.5t75.5 199.5v35q-157 -8 -241.5 -21 t-129.5 -39q-63 -37 -63 -110zM588 1483q0 -56 35.5 -89.5t97.5 -33.5q58 0 92.5 33.5t34.5 89.5q0 58 -34.5 91.5t-96.5 33.5q-59 0 -94 -34t-35 -91z" />
<glyph unicode="&#xe6;" horiz-adv-x="2248" d="M70 313q0 189 198 275q96 42 239.5 57.5t379.5 18.5v65q0 184 -195 184q-93 0 -141 -38.5t-51 -102.5h-375q11 165 160.5 257.5t412.5 92.5q291 0 400 -139h6q138 141 409 141q166 0 290.5 -43t199 -120.5t111 -178t36.5 -223.5v-86h-895q13 -148 79.5 -215.5 t191.5 -67.5q107 0 157.5 35t71.5 94h385q-31 -166 -190.5 -257t-425.5 -91q-379 0 -516 207h-4q-161 -190 -488 -190q-207 0 -326.5 86t-119.5 239zM455 328q0 -61 48 -98t126 -37q110 0 187 71.5t77 198.5v26q-286 0 -375 -51q-63 -37 -63 -110zM1255 659h500v13 q-22 250 -246 250q-225 0 -254 -263z" />
<glyph unicode="&#xe7;" horiz-adv-x="1462" d="M94 549q0 267 178.5 421t487.5 154q270 0 436 -108.5t172 -310.5h-383q-10 93 -65 147.5t-160 54.5q-74 0 -127.5 -29t-83 -80.5t-42.5 -111.5t-13 -133q0 -356 264 -356q119 0 176.5 60.5t60.5 150.5h379q-5 -137 -83 -235t-207.5 -147t-299.5 -53l-51 -94h4 q37 21 99 21q91 0 148.5 -50t57.5 -133q0 -80 -73 -136t-215 -56q-120 0 -187.5 46.5t-72.5 115.5h190q14 -43 76 -43q78 0 78 65q0 30 -20 47t-58 17q-41 0 -68 -27h-160l127 231q-272 25 -418.5 174t-146.5 398z" />
<glyph unicode="&#xe8;" horiz-adv-x="1476" d="M94 551q0 257 175 415t481 158q162 0 285 -42.5t197.5 -119.5t111 -178t36.5 -225v-86h-893q12 -146 78.5 -214.5t192.5 -68.5q105 0 154.5 34.5t72.5 94.5h383q-30 -161 -194 -254.5t-429 -93.5q-314 0 -482.5 155.5t-168.5 424.5zM393 1614h389l125 -357h-297zM487 659 h496v15q-9 120 -67 184t-166 64q-235 0 -263 -263z" />
<glyph unicode="&#xe9;" horiz-adv-x="1476" d="M94 551q0 257 175 415t481 158q162 0 285 -42.5t197.5 -119.5t111 -178t36.5 -225v-86h-893q12 -146 78.5 -214.5t192.5 -68.5q105 0 154.5 34.5t72.5 94.5h383q-30 -161 -194 -254.5t-429 -93.5q-314 0 -482.5 155.5t-168.5 424.5zM487 659h496v15q-9 120 -67 184 t-166 64q-235 0 -263 -263zM575 1257l125 357h390l-218 -357h-297z" />
<glyph unicode="&#xea;" horiz-adv-x="1476" d="M94 551q0 257 175 415t481 158q162 0 285 -42.5t197.5 -119.5t111 -178t36.5 -225v-86h-893q12 -146 78.5 -214.5t192.5 -68.5q105 0 154.5 34.5t72.5 94.5h383q-30 -161 -194 -254.5t-429 -93.5q-314 0 -482.5 155.5t-168.5 424.5zM332 1257l270 357h309l271 -357h-269 l-168 158h-4l-161 -158h-248zM487 659h496v15q-9 120 -67 184t-166 64q-235 0 -263 -263z" />
<glyph unicode="&#xeb;" horiz-adv-x="1476" d="M94 551q0 257 175 415t481 158q162 0 285 -42.5t197.5 -119.5t111 -178t36.5 -225v-86h-893q12 -146 78.5 -214.5t192.5 -68.5q105 0 154.5 34.5t72.5 94.5h383q-30 -161 -194 -254.5t-429 -93.5q-314 0 -482.5 155.5t-168.5 424.5zM322 1303v280h333v-280h-333zM487 659 h496v15q-9 120 -67 184t-166 64q-235 0 -263 -263zM834 1303v280h335v-280h-335z" />
<glyph unicode="&#xec;" horiz-adv-x="724" d="M12 1614h389l125 -357h-297zM168 0v1098h389v-1098h-389z" />
<glyph unicode="&#xed;" horiz-adv-x="724" d="M168 0v1098h389v-1098h-389zM193 1257l124 357h388l-216 -357h-296z" />
<glyph unicode="&#xee;" horiz-adv-x="724" d="M-16 1257l241 357h279l244 -357h-242l-152 158h-2l-145 -158h-223zM168 0v1098h389v-1098h-389z" />
<glyph unicode="&#xef;" horiz-adv-x="724" d="M-16 1303v280h299v-280h-299zM168 0v1098h389v-1098h-389zM442 1303v280h303v-280h-303z" />
<glyph unicode="&#xf0;" horiz-adv-x="1527" d="M94 543q0 259 158 416t410 157q92 0 151 -22.5t117 -69.5h4q-77 128 -262 254l-328 -107l-59 129l231 76q-85 50 -260 140l287 112q187 -65 317 -139l266 86l56 -129l-172 -55q198 -149 305.5 -349.5t107.5 -445.5q0 -159 -47.5 -279.5t-136.5 -195.5t-209.5 -112.5 t-271.5 -37.5q-313 0 -488.5 149.5t-175.5 422.5zM496 543q0 -353 264 -353q140 0 200 93t60 260q0 366 -258 366q-142 0 -204 -93.5t-62 -272.5z" />
<glyph unicode="&#xf1;" horiz-adv-x="1574" d="M168 0v1098h375v-180h6q127 202 426 202q234 0 341 -100.5t107 -306.5v-713h-391v641q0 69 -7.5 111.5t-31.5 70.5q-55 64 -170 64q-130 0 -198 -65.5t-68 -186.5v-635h-389zM336 1255q0 149 70.5 242.5t220.5 93.5q65 0 130.5 -26t120.5 -52t93 -26q92 0 123 106h174 q0 -152 -69.5 -245t-219.5 -93q-66 0 -131 26.5t-119.5 52.5t-93.5 26q-92 0 -121 -105h-178z" />
<glyph unicode="&#xf2;" horiz-adv-x="1521" d="M94 549q0 269 178.5 422t489.5 153q305 0 485 -153t180 -422q0 -176 -84.5 -308t-235 -201t-347.5 -69q-311 0 -488.5 154.5t-177.5 423.5zM410 1614h389l125 -357h-297zM496 549q0 -359 266 -359q260 0 260 359q0 356 -260 356q-71 0 -123.5 -26.5t-83 -75.5t-45 -112 t-14.5 -142z" />
<glyph unicode="&#xf3;" horiz-adv-x="1521" d="M94 549q0 269 178.5 422t489.5 153q305 0 485 -153t180 -422q0 -176 -84.5 -308t-235 -201t-347.5 -69q-311 0 -488.5 154.5t-177.5 423.5zM496 549q0 -359 266 -359q260 0 260 359q0 356 -260 356q-71 0 -123.5 -26.5t-83 -75.5t-45 -112t-14.5 -142zM590 1257l125 357 h389l-217 -357h-297z" />
<glyph unicode="&#xf4;" horiz-adv-x="1521" d="M94 549q0 269 178.5 422t489.5 153q305 0 485 -153t180 -422q0 -176 -84.5 -308t-235 -201t-347.5 -69q-311 0 -488.5 154.5t-177.5 423.5zM346 1257l270 357h310l270 -357h-266l-170 158h-2l-164 -158h-248zM496 549q0 -359 266 -359q260 0 260 359q0 356 -260 356 q-71 0 -123.5 -26.5t-83 -75.5t-45 -112t-14.5 -142z" />
<glyph unicode="&#xf5;" horiz-adv-x="1521" d="M94 549q0 269 178.5 422t489.5 153q305 0 485 -153t180 -422q0 -176 -84.5 -308t-235 -201t-347.5 -69q-311 0 -488.5 154.5t-177.5 423.5zM295 1257q0 71 15.5 129.5t49 106t91 74t135.5 26.5q65 0 130.5 -26t120.5 -52t93 -26q92 0 123 106h174q0 -73 -15.5 -132 t-49 -106.5t-91 -73.5t-135.5 -26q-65 0 -130 26.5t-120 52.5t-94 26q-92 0 -121 -105h-176zM496 549q0 -359 266 -359q260 0 260 359q0 356 -260 356q-71 0 -123.5 -26.5t-83 -75.5t-45 -112t-14.5 -142z" />
<glyph unicode="&#xf6;" horiz-adv-x="1521" d="M94 549q0 269 178.5 422t489.5 153q305 0 485 -153t180 -422q0 -176 -84.5 -308t-235 -201t-347.5 -69q-311 0 -488.5 154.5t-177.5 423.5zM336 1303v280h336v-280h-336zM496 549q0 -359 266 -359q260 0 260 359q0 356 -260 356q-71 0 -123.5 -26.5t-83 -75.5t-45 -112 t-14.5 -142zM848 1303v280h336v-280h-336z" />
<glyph unicode="&#xf7;" horiz-adv-x="1556" d="M186 614v238h1180v-238h-1180zM588 160v295h375v-295h-375zM588 1008v292h375v-292h-375z" />
<glyph unicode="&#xf8;" horiz-adv-x="1521" d="M37 -78l213 221q-156 153 -156 406q0 269 178.5 422t489.5 153q215 0 368 -75l121 122h234l-215 -221q157 -148 157 -401q0 -176 -84.5 -308t-235 -201t-347.5 -69q-214 0 -369 76l-123 -125h-231zM483 549q0 -75 17 -152l442 457q-66 57 -180 57q-100 0 -164 -49 t-89.5 -127t-25.5 -186zM580 244q67 -58 182 -58q274 0 274 363q0 81 -12 149z" />
<glyph unicode="&#xf9;" horiz-adv-x="1564" d="M156 367v731h389v-641q0 -130 41 -181q48 -63 166 -63q128 0 193 72.5t65 212.5v600h391v-1098h-377v178h-4q-125 -198 -414 -198q-233 0 -341.5 95.5t-108.5 291.5zM428 1614h387l127 -357h-299z" />
<glyph unicode="&#xfa;" horiz-adv-x="1564" d="M156 367v731h389v-641q0 -130 41 -181q48 -63 166 -63q128 0 193 72.5t65 212.5v600h391v-1098h-377v178h-4q-125 -198 -414 -198q-233 0 -341.5 95.5t-108.5 291.5zM606 1257l127 357h387l-215 -357h-299z" />
<glyph unicode="&#xfb;" horiz-adv-x="1564" d="M156 367v731h389v-641q0 -130 41 -181q48 -63 166 -63q128 0 193 72.5t65 212.5v600h391v-1098h-377v178h-4q-125 -198 -414 -198q-233 0 -341.5 95.5t-108.5 291.5zM365 1257l270 357h309l270 -357h-268l-170 158h-2l-162 -158h-247z" />
<glyph unicode="&#xfc;" horiz-adv-x="1564" d="M156 367v731h389v-641q0 -130 41 -181q48 -63 166 -63q128 0 193 72.5t65 212.5v600h391v-1098h-377v178h-4q-125 -198 -414 -198q-233 0 -341.5 95.5t-108.5 291.5zM358 1303v280h334v-280h-334zM870 1303v280h336v-280h-336z" />
<glyph unicode="&#xfd;" horiz-adv-x="1402" d="M41 1098h403l218 -578q19 -53 34 -106.5t20 -81.5l5 -27h6q14 96 57 215l203 578h381l-461 -1133q-42 -101 -87 -167t-111.5 -114.5t-158 -70t-218.5 -21.5q-135 0 -195 15v237q58 -10 133 -10q111 0 168.5 30t85.5 103l8 27zM555 1257l125 357h389l-217 -357h-297z" />
<glyph unicode="&#xfe;" horiz-adv-x="1587" d="M168 -385v1999h389v-680h6q54 82 157.5 135t242.5 53q117 0 211.5 -32.5t166.5 -99t111 -177.5t39 -260q0 -272 -153 -426t-412 -154q-132 0 -224.5 46.5t-136.5 117.5h-8v-522h-389zM553 489q0 -135 69 -217t201 -82q130 0 200.5 91.5t70.5 267.5q0 350 -273 350 q-120 0 -194 -78t-74 -213v-119z" />
<glyph unicode="&#xff;" horiz-adv-x="1402" d="M41 1098h403l218 -578q19 -53 34 -106.5t20 -81.5l5 -27h6q14 96 57 215l203 578h381l-461 -1133q-42 -101 -87 -167t-111.5 -114.5t-158 -70t-218.5 -21.5q-135 0 -195 15v237q58 -10 133 -10q111 0 168.5 30t85.5 103l8 27zM303 1303v280h334v-280h-334zM813 1303v280 h338v-280h-338z" />
<glyph unicode="&#x152;" horiz-adv-x="2840" d="M121 778q0 159 42 292t118 228.5t181 161t230 97.5t266 32q156 0 283 -48.5t201 -147.5h4v174h1231v-256h-826v-404h781v-250h-781v-403h848v-254h-1253v158h-4q-157 -189 -506 -189q-182 0 -331 51.5t-257.5 151t-167.5 254t-59 352.5zM561 778q0 -278 116 -421.5 t331 -143.5q217 0 327.5 122t110.5 329v213q0 228 -112 349.5t-322 121.5q-99 0 -179.5 -33.5t-142 -100.5t-95.5 -178t-34 -258z" />
<glyph unicode="&#x153;" horiz-adv-x="2387" d="M94 549q0 269 178.5 422t489.5 153q300 0 452 -155q146 155 437 155q166 0 291.5 -42.5t201.5 -119.5t113 -178t37 -225v-86h-895q12 -146 78 -214.5t192 -68.5q105 0 154.5 34.5t72.5 94.5h385q-31 -162 -197.5 -255t-428.5 -93q-302 0 -449 156q-153 -156 -446 -156 q-311 0 -488.5 154.5t-177.5 423.5zM496 549q0 -359 266 -359q260 0 260 359q0 356 -260 356q-71 0 -123.5 -26.5t-83 -75.5t-45 -112t-14.5 -142zM1399 659h495v13q-19 250 -243 250q-112 0 -175 -67.5t-77 -195.5z" />
<glyph unicode="&#x178;" horiz-adv-x="1712" d="M27 1567h444l397 -617h4l402 617h412l-627 -905v-662h-404v655zM442 1696v280h334v-280h-334zM971 1696v280h334v-280h-334z" />
<glyph unicode="&#x2c6;" horiz-adv-x="907" d="M29 1257l270 357h311l271 -357h-269l-170 158h-2l-161 -158h-250z" />
<glyph unicode="&#x2dc;" horiz-adv-x="907" d="M-12 1257q0 71 15.5 129.5t49 106t91 74t135.5 26.5q65 0 130.5 -26t120.5 -52t93 -26q91 0 122 106h175q0 -73 -15.5 -132t-49 -106.5t-91 -73.5t-135.5 -26q-65 0 -130 26.5t-120 52.5t-94 26q-92 0 -121 -105h-176z" />
<glyph unicode="&#x2000;" horiz-adv-x="1068" />
<glyph unicode="&#x2001;" horiz-adv-x="2136" />
<glyph unicode="&#x2002;" horiz-adv-x="1068" />
<glyph unicode="&#x2003;" horiz-adv-x="2136" />
<glyph unicode="&#x2004;" horiz-adv-x="712" />
<glyph unicode="&#x2005;" horiz-adv-x="534" />
<glyph unicode="&#x2006;" horiz-adv-x="356" />
<glyph unicode="&#x2007;" horiz-adv-x="356" />
<glyph unicode="&#x2008;" horiz-adv-x="267" />
<glyph unicode="&#x2009;" horiz-adv-x="427" />
<glyph unicode="&#x200a;" horiz-adv-x="118" />
<glyph unicode="&#x2010;" horiz-adv-x="1044" d="M139 522v248h768v-248h-768z" />
<glyph unicode="&#x2011;" horiz-adv-x="1044" d="M139 522v248h768v-248h-768z" />
<glyph unicode="&#x2012;" horiz-adv-x="1044" d="M139 522v248h768v-248h-768z" />
<glyph unicode="&#x2013;" horiz-adv-x="1288" d="M139 524v232h1008v-232h-1008z" />
<glyph unicode="&#x2014;" horiz-adv-x="2197" d="M139 528v224h1917v-224h-1917z" />
<glyph unicode="&#x2018;" horiz-adv-x="710" d="M74 1032l295 535h247l-145 -535h-397z" />
<glyph unicode="&#x2019;" horiz-adv-x="710" d="M94 1032l148 535h395l-295 -535h-248z" />
<glyph unicode="&#x201a;" horiz-adv-x="710" d="M98 -231l148 534h397l-297 -534h-248z" />
<glyph unicode="&#x201c;" horiz-adv-x="1218" d="M76 1032l289 535h247l-145 -535h-391zM588 1032l286 535h248l-147 -535h-387z" />
<glyph unicode="&#x201d;" horiz-adv-x="1216" d="M100 1032l148 535h389l-289 -535h-248zM612 1032l148 535h387l-287 -535h-248z" />
<glyph unicode="&#x201e;" horiz-adv-x="1214" d="M98 -231l148 534h389l-289 -534h-248zM610 -231l144 534h391l-287 -534h-248z" />
<glyph unicode="&#x2022;" horiz-adv-x="835" d="M121 631q0 109 87 180.5t210 71.5q132 0 214.5 -70.5t82.5 -181.5q0 -112 -86.5 -182t-212.5 -70q-130 0 -212.5 69.5t-82.5 182.5z" />
<glyph unicode="&#x2026;" horiz-adv-x="2211" d="M150 0v326h415v-326h-415zM897 0v326h418v-326h-418zM1647 0v326h415v-326h-415z" />
<glyph unicode="&#x202f;" horiz-adv-x="427" />
<glyph unicode="&#x2039;" horiz-adv-x="770" d="M94 535l262 415h285l-238 -422l244 -411h-289z" />
<glyph unicode="&#x203a;" horiz-adv-x="765" d="M123 950h287l264 -415l-260 -418h-289l242 422z" />
<glyph unicode="&#x205f;" horiz-adv-x="534" />
<glyph unicode="&#x20ac;" horiz-adv-x="1759" d="M66 836v157h200q57 270 243.5 407.5t487.5 137.5q300 0 472 -132.5t188 -346.5h-404q-12 107 -78.5 178.5t-193.5 71.5q-133 0 -211.5 -75.5t-107.5 -240.5h440v-157h-455q-4 -25 -4 -80q0 -59 4 -86h459v-158h-444q29 -165 107 -237t212 -72q131 0 198.5 64t82.5 173 h387q-9 -209 -184 -340t-490 -131q-607 0 -713 543h-190v158h174q-2 27 -2 82q0 57 2 84h-180z" />
<glyph unicode="&#x2122;" horiz-adv-x="1753" d="M37 1432v135h637v-135h-228v-492h-186v492h-223zM760 940v627h299l123 -322q9 -24 15.5 -48t8.5 -36l2 -12h9q8 41 28 96l123 322h295v-627h-184v459h-6q-19 -55 -48 -127l-133 -332h-166l-139 330q-13 32 -23 64t-14 48l-4 17h-10v-459h-176z" />
<glyph unicode="&#x25fc;" horiz-adv-x="1095" d="M0 0v1096h1096v-1096h-1096z" />
</font>
</defs>
</svg>
