<?xml version="1.0" standalone="no"?>
<!DOCTYPE svg PUBLIC "-//W3C//DTD SVG 1.1//EN" "http://www.w3.org/Graphics/SVG/1.1/DTD/svg11.dtd" >
<svg xmlns="http://www.w3.org/2000/svg">
<metadata></metadata>
<defs>
<font id="athelasbold_italic" horiz-adv-x="899" >
<font-face units-per-em="2048" ascent="1638" descent="-410" />
<missing-glyph horiz-adv-x="430" />
<glyph unicode="&#xfb01;" horiz-adv-x="1015" d="M-313 -494q10 35 23.5 88.5t17.5 98.5l45 14q27 -35 51 -58.5t61 -23.5q53 0 91 117t79 334l121 717h-156q4 33 16.5 60.5t41.5 27.5h112l31 174q14 86 64.5 160.5t116 128t140 84t142.5 30.5q66 0 138.5 -24.5t123.5 -94.5q-39 -23 -72.5 -52.5t-58.5 -63.5l-37 4 q-33 66 -79 93.5t-87 27.5q-31 0 -56.5 -17.5t-48 -61.5t-42 -120t-39.5 -195l-12 -73h245q74 0 113 8t74 8q16 0 30.5 -8t14.5 -29q0 -6 -1 -16t-3 -21l-129 -637q-6 -29 -5 -42t17 -13q12 0 29.5 7t34 16.5t31 16.5t22.5 7q16 0 25.5 -17.5t11.5 -33.5q-33 -23 -77 -49.5 t-90 -49t-90 -38t-77 -15.5q-35 0 -58.5 14.5t-23.5 49.5q0 12 2 23.5t4 19.5l139 657q2 10 -1 19.5t-17 11.5q-23 2 -54.5 5t-65.5 5t-65.5 4t-50.5 2l-98 -573q-49 -281 -151.5 -450t-239.5 -248q-23 -12 -50.5 -21.5t-62.5 -9.5q-23 0 -54.5 6t-55.5 16z" />
<glyph unicode="&#xfb02;" horiz-adv-x="1034" d="M-313 -494q10 35 23.5 88.5t17.5 98.5l45 14q27 -35 51 -58.5t61 -23.5q53 0 91 117t79 334l121 717h-156q4 33 16.5 60.5t41.5 27.5h112l31 174q14 86 60.5 160.5t109 128t134 84t139.5 30.5q14 0 38.5 -3t54 -10t61.5 -18.5t63 -27.5q18 6 39.5 15t50.5 20 q39 -16 39 -56q0 -8 -2 -19t-4 -20l-226 -1153q-6 -29 -5 -42t18 -13q12 0 29.5 7t33.5 16.5t30.5 16.5t22.5 7q16 0 25.5 -17.5t11.5 -33.5q-33 -23 -77 -49.5t-90 -49t-90 -38t-77 -15.5q-35 0 -58.5 14.5t-23.5 49.5q0 12 2 23.5t5 19.5l198 983q10 55 16.5 107.5 t8.5 89.5q-29 35 -80 57t-86 22q-27 0 -48.5 -16t-41 -59t-38 -118t-38.5 -194l-12 -73h200q-10 -25 -17 -57.5t-11 -59.5q-47 10 -96.5 15t-90.5 7l-98 -573q-49 -281 -151.5 -450t-239.5 -248q-23 -12 -50.5 -21.5t-62.5 -9.5q-23 0 -54.5 6t-55.5 16z" />
<glyph horiz-adv-x="0" />
<glyph unicode="&#xd;" horiz-adv-x="1024" />
<glyph unicode=" "  horiz-adv-x="430" />
<glyph unicode="&#x09;" horiz-adv-x="430" />
<glyph unicode="&#xa0;" horiz-adv-x="430" />
<glyph unicode="!" horiz-adv-x="514" d="M29 102q0 59 41 104.5t102 45.5q66 0 99.5 -38t33.5 -91q0 -61 -43 -104.5t-100 -43.5q-72 0 -102.5 37t-30.5 90zM152 389l90 938q33 12 74.5 20.5t70.5 8.5q76 0 102.5 -30t10.5 -75q-63 -176 -135 -410.5t-119 -498.5q-35 -6 -54.5 -4t-28.5 10t-10 19.5t-1 21.5z" />
<glyph unicode="&#x22;" horiz-adv-x="669" d="M125 952l29 340q47 23 83.5 31t65.5 8q51 0 68.5 -12t17.5 -33q0 -8 -3 -17t-13 -30q-20 -39 -38 -77t-34 -80t-34.5 -91t-39.5 -108q-68 0 -87 19.5t-15 49.5zM426 952l29 340q47 23 83.5 31t65.5 8q51 0 68.5 -12t17.5 -33q0 -8 -3 -17t-13 -30q-20 -39 -38 -77 t-34 -80t-34.5 -91t-39.5 -108q-68 0 -87 19.5t-15 49.5z" />
<glyph unicode="#" horiz-adv-x="1110" d="M35 217q-4 55 13.5 92t57.5 37h123l66 246h-186q-2 59 14 94t57 35h150l59 223q72 -2 95.5 -16.5t23.5 -34.5q0 -8 -2 -14l-43 -158h219l59 223q72 -2 95.5 -16.5t23.5 -34.5q0 -8 -2 -14l-43 -158h164q2 -55 -13.5 -92t-54.5 -37h-131l-65 -246h190q4 -59 -12 -94 t-55 -35h-158l-64 -242q-72 6 -95 20.5t-23 31.5v4q0 4 2 8l47 178h-219l-64 -242q-72 6 -95.5 20.5t-23.5 31.5v4q0 4 2 8l48 178h-160zM362 346h220l65 246h-219z" />
<glyph unicode="$" horiz-adv-x="1052" d="M20 106q10 84 14.5 177.5t0.5 167.5q14 4 28.5 8t24.5 4q33 0 42 -13.5t13 -41.5q18 -129 65.5 -206t153.5 -91l93 467q-43 33 -90.5 68.5t-87 79.5t-65.5 98.5t-26 121.5q0 57 22.5 119.5t72 116t127 88.5t188.5 37l31 159q100 -20 88 -73l-19 -93q88 -10 160 -35.5 t129 -56.5q-10 -68 -14 -119t-2 -120q-10 -6 -24.5 -11.5t-33.5 -3.5q-25 4 -34 15.5t-13 29.5q-12 90 -61 143.5t-123 69.5l-82 -421l25 -19q45 -35 92 -72.5t85 -83t61.5 -100.5t23.5 -123q0 -158 -107.5 -261t-331.5 -116l-30 -163q-47 12 -70.5 27.5t-17.5 43.5l16 90 q-113 8 -202 39t-122 53zM397 1030q0 -55 31 -100t78 -86l72 375q-82 -6 -131.5 -54.5t-49.5 -134.5zM465 113q80 12 136 62.5t56 150.5q0 66 -31.5 110.5t-80.5 85.5z" />
<glyph unicode="%" horiz-adv-x="1595" d="M61 829q0 115 32 208t85 159t126 100.5t153 34.5q131 0 190.5 -66.5t59.5 -187.5q0 -96 -29 -186t-81 -159.5t-125 -113t-163 -43.5q-66 0 -112.5 19.5t-76.5 53.5t-44.5 81t-14.5 100zM172 2l1002 1309q37 51 131 -21l-990 -1292q-23 -29 -62.5 -28t-80.5 32zM254 813 q0 -72 14.5 -111.5t61.5 -39.5q45 0 79.5 40.5t58.5 104t35 141.5t11 150q0 145 -78 145q-43 0 -76.5 -36t-57 -96t-36 -138t-12.5 -160zM797 229q0 115 31.5 208t85 159t126 100.5t152.5 34.5q131 0 190.5 -66.5t59.5 -187.5q0 -96 -29 -186t-81 -160t-124.5 -113 t-163.5 -43q-66 0 -112.5 19.5t-76.5 53.5t-44 81t-14 100zM989 213q0 -72 14.5 -112t61.5 -40q45 0 80 41t58.5 104.5t34.5 141.5t11 150q0 145 -78 145q-43 0 -76.5 -36t-57 -96t-36 -138t-12.5 -160z" />
<glyph unicode="&#x26;" horiz-adv-x="1630" d="M61 377q0 66 22.5 125t69 107t115 83t160.5 49q-106 41 -159.5 110t-53.5 146q0 90 43 153.5t109.5 103.5t147.5 58.5t157 18.5q135 0 238.5 -34.5t162.5 -82.5q20 -16 5 -53t-68 -67q-35 -20 -70 -16.5t-63 38.5q-55 61 -105.5 94t-122.5 33q-29 0 -60.5 -10t-59 -38 t-46 -76t-18.5 -122q0 -31 8 -67.5t33.5 -71.5t76 -63.5t134.5 -42.5l-17 -76q-55 6 -72.5 7t-27.5 1q-78 0 -130 -22.5t-85 -59.5t-46 -85t-13 -99q0 -86 27.5 -151.5t76.5 -109.5t117.5 -66.5t150.5 -22.5q215 0 325 94t110 244q0 47 -12.5 89t-41.5 76q-27 18 -74 34 t-85 16q-27 0 -44.5 -15.5t-17.5 -58.5q0 -16 5 -31.5t5 -23.5q0 -51 -90 -52q-35 0 -68.5 17.5t-43.5 40.5q12 57 44.5 102t75.5 77t92.5 48t96.5 16q61 0 104 -10t84 -24q43 -16 90 -35t95 -19q37 0 46 17.5t9 44.5q0 18 -8.5 44.5t-8.5 43.5q0 25 20.5 36t55.5 11 q41 0 74 -21.5t53 -44.5q-35 -131 -103.5 -188t-180.5 -57q-18 0 -44 2t-42 6q16 -33 25 -68t9 -78q0 -57 -27.5 -130.5t-98 -139t-192.5 -111t-310 -45.5q-94 0 -193.5 19.5t-181.5 65.5t-135.5 123t-53.5 194z" />
<glyph unicode="'" horiz-adv-x="368" d="M125 952l29 340q47 23 83.5 31t65.5 8q51 0 68.5 -12t17.5 -33q0 -8 -3 -17t-13 -30q-20 -39 -38 -77t-34 -80t-34.5 -91t-39.5 -108q-68 0 -87 19.5t-15 49.5z" />
<glyph unicode="(" horiz-adv-x="657" d="M57 338q0 311 166 579.5t477 479.5q41 -25 39 -48.5t-24 -43.5q-223 -197 -326.5 -435.5t-103.5 -502.5q0 -70 4 -143.5t19.5 -152.5t45 -160t78.5 -165q23 -37 8.5 -60.5t-41.5 -33.5q-160 152 -251 326t-91 360z" />
<glyph unicode=")" horiz-adv-x="684" d="M-123 -299.5q2 23.5 25 43.5q223 197 326.5 435.5t103.5 502.5q0 70 -5 143.5t-20.5 152.5t-44.5 160t-78 165q-23 37 -8.5 60t41.5 34q160 -152 251 -326t91 -360q0 -311 -166 -579.5t-477 -479.5q-41 25 -39 48.5z" />
<glyph unicode="*" horiz-adv-x="684" d="M104 1008q0 18 23 30q27 14 83 19.5t150 9.5q8 0 17.5 -11.5t9.5 -29.5q-57 -35 -93 -70.5t-87 -89.5l-27 4q-6 16 -19.5 35t-25.5 37.5t-21.5 35.5t-9.5 30zM139 1178q10 14 22.5 45.5t26.5 56.5q20 37 48 37q10 0 23 -8.5t31.5 -31t44 -60t62.5 -97.5q2 -2 2 -8 q0 -8 -5 -18.5t-17 -16.5q-53 29 -112.5 44.5t-114.5 29.5zM291 782q0 29 23.5 82.5t68.5 136.5q4 10 27 11q12 0 22 -6q2 -41 11.5 -93.5t37.5 -142.5l-16 -22q-29 0 -56.5 -3.5t-54.5 -3.5q-35 0 -49 7.5t-14 33.5zM367 1346l16 20q29 0 56.5 4t56.5 4q61 0 61 -43 q0 -23 -19.5 -70t-70.5 -149q-8 -8 -29 -8q-16 0 -22 4q-4 59 -17.5 118.5t-31.5 119.5zM444 1004q0 10 6.5 20t18.5 16q20 -12 61 -26q31 -10 72 -22.5t94 -24.5l11 -27q-10 -23 -22.5 -48.5t-22.5 -47.5q-14 -29 -25.5 -36t-24.5 -7q-29 0 -65.5 49t-100.5 147q0 2 -1 3 t-1 4zM461 1090q41 23 82 60.5t98 98.5l29 -4q16 -29 37.5 -55.5t31.5 -54.5q6 -16 6 -27q0 -29 -47 -40t-147 -17q-14 -2 -29.5 -3t-32.5 -1q-8 0 -18 12.5t-10 30.5z" />
<glyph unicode="+" horiz-adv-x="1011" d="M12 399q10 72 37 104t80 32h250v280q0 14 4 28.5t19.5 26t45 18.5t78.5 9v-362h379q-10 -72 -36.5 -104t-80.5 -32h-262v-319q0 -43 -29.5 -58.5t-117.5 -23.5v401h-367z" />
<glyph unicode="," horiz-adv-x="464" d="M-61 -236q0 20 30 46q68 53 90.5 96t22.5 80q0 25 -14.5 41t-33 30.5t-32.5 28.5t-14 37q0 57 141 133q72 -39 115 -90t43 -111q0 -33 -14.5 -72.5t-50.5 -84.5t-94 -92.5t-144 -96.5q-16 10 -30.5 24.5t-14.5 30.5z" />
<glyph unicode="-" horiz-adv-x="632" d="M23 430q4 78 32.5 111.5t81.5 33.5h430q-6 -80 -32.5 -112.5t-81.5 -32.5h-430z" />
<glyph unicode="." horiz-adv-x="421" d="M-20 102q0 59 40.5 104.5t102.5 45.5q66 0 99.5 -38t33.5 -91q0 -61 -43 -104.5t-100 -43.5q-72 0 -102.5 37t-30.5 90z" />
<glyph unicode="/" horiz-adv-x="616" d="M-92 -39l627 1405q10 23 24 41t49 18q27 0 50.5 -6t50.5 -16l-623 -1403q-10 -27 -23.5 -45t-54.5 -18q-23 0 -47 7t-53 17z" />
<glyph unicode="0" horiz-adv-x="1097" d="M0 365q0 123 48 233.5t131 193t192.5 132t234.5 49.5q193 0 301.5 -97.5t108.5 -277.5q0 -123 -46 -235.5t-126 -198.5t-189.5 -137.5t-238.5 -51.5q-205 0 -310.5 106.5t-105.5 283.5zM266 350q0 -150 47 -216t121 -66q72 0 130.5 46t100.5 122.5t65.5 176t23.5 208.5 q0 137 -46 198.5t-118 61.5q-63 0 -121.5 -38t-104 -106.5t-72 -167t-26.5 -219.5z" />
<glyph unicode="1" horiz-adv-x="761" d="M-38 38q5 23 42 30q45 6 72.5 16t44 22.5t24 28t11.5 33.5l114 604q4 20 4 36.5t-11 29t-37.5 21.5t-73.5 13q-41 4 -46 28t3 61q72 -8 151.5 -12.5t155.5 -4.5q20 0 57 1t79 3l84 4t77 6q20 -76 -33 -84q-49 -6 -79 -13t-45 -18.5t-22.5 -27.5t-11.5 -41l-116 -614 q-8 -43 15 -61.5t103 -30.5q45 -6 54.5 -21.5t-5.5 -60.5q-78 6 -161.5 10t-149.5 4q-23 0 -58.5 -1t-77.5 -3t-85 -5t-76 -5q-8 29 -3 52z" />
<glyph unicode="2" horiz-adv-x="942" d="M-61 0l6 43q221 162 344 269.5t183 178t73.5 116.5t13.5 89q0 59 -41 100.5t-115 41.5q-57 0 -114.5 -25t-132.5 -86q-16 -14 -28.5 -18t-23.5 -4q-23 0 -38 14.5t-25 30.5q109 115 221.5 170t245.5 55q84 0 142.5 -20.5t95 -54.5t53 -78t16.5 -89q0 -70 -33.5 -133 t-102.5 -130t-175.5 -143.5t-251.5 -170.5h323q41 0 74 15t66 69q10 18 20 30.5t33 12.5q18 0 36.5 -5.5t35.5 -11.5q-25 -47 -51.5 -117.5t-43.5 -125.5q-6 -18 -17 -24.5t-30 -6.5q-39 0 -98 4t-137 4h-524z" />
<glyph unicode="3" horiz-adv-x="856" d="M-141 -311q0 29 49 41q84 23 173 56.5t162.5 86.5t121 129t47.5 182q0 70 -33 110t-90 40q-31 0 -87.5 -13.5t-144.5 -48.5l15 90q80 35 153.5 70t131 78t91 96t33.5 125q0 45 -28.5 75t-77.5 30q-47 0 -93 -20.5t-114 -67.5q-10 -8 -22.5 -13.5t-24.5 -5.5 q-23 0 -39 11.5t-25 27.5q37 31 84 67.5t102.5 67.5t117 51.5t126.5 20.5q121 0 191 -50.5t70 -146.5q0 -55 -24 -100t-62.5 -83t-89 -70.5t-103.5 -61.5q119 -31 175 -98.5t56 -147.5q0 -129 -80.5 -226t-203.5 -168t-267.5 -117t-271.5 -71q-18 27 -18 54z" />
<glyph unicode="4" horiz-adv-x="966" d="M-83 58.5q5 19.5 28 45.5l712 805q18 23 37 30t47 7h105l-154 -807h172l-22 -139h-174l-64 -326h-235l65 326h-514q-8 39 -3 58.5zM111 139h346l106 512z" />
<glyph unicode="5" horiz-adv-x="839" d="M-160 -328q0 20 39 33q84 29 182.5 75t183.5 111.5t141 152.5t56 198q0 72 -38.5 114.5t-124.5 42.5q-100 0 -246 -47l153 594h623l-27 -117q-8 -33 -29.5 -53t-80.5 -20h-406l-92 -277q57 23 118.5 34t117.5 11q141 0 225 -68.5t84 -183.5q0 -90 -39 -166.5t-105.5 -141 t-152.5 -118t-181.5 -96.5t-192.5 -76.5t-183 -58.5q-10 16 -17.5 31.5t-7.5 25.5z" />
<glyph unicode="6" horiz-adv-x="1026" d="M37 426q0 164 68.5 311.5t191.5 266t296 204.5t382 127q47 -68 2 -86q-111 -41 -205 -87t-172 -103.5t-138.5 -130t-103.5 -168.5q39 25 101.5 46t134.5 21q66 0 124 -19.5t102 -62.5t69.5 -108.5t25.5 -157.5q0 -90 -34.5 -179t-98 -161.5t-153.5 -118t-201 -45.5 q-117 0 -192.5 39t-119.5 102.5t-61.5 144.5t-17.5 165zM299 377q0 -135 36 -225.5t105 -90.5q43 0 82 27t70 78t49 123.5t18 165.5q0 123 -44.5 191.5t-120.5 68.5q-61 0 -99.5 -34t-60 -85t-28.5 -110.5t-7 -108.5z" />
<glyph unicode="7" horiz-adv-x="915" d="M35 -360.5q-8 16.5 6 57.5q37 100 95.5 225t141 263.5t189 283.5t240.5 287h-443q-41 0 -65.5 -20.5t-57.5 -82.5q-6 -10 -13 -17t-30 -7q-29 0 -57 16q27 66 43 133.5t27 132.5q4 18 14 30.5t35 12.5q35 0 85 -4t158 -4h553v-43q-147 -172 -254.5 -327.5t-182.5 -298 t-122 -270.5t-75 -243q-10 -47 -14.5 -76.5t-4.5 -45.5q-53 -4 -113.5 -11.5t-119.5 -23.5q-27 16 -35 32.5z" />
<glyph unicode="8" horiz-adv-x="987" d="M-6 268q0 102 74.5 197.5t259.5 185.5q-59 45 -94 85t-55.5 77t-27 71t-6.5 68q0 57 28 120t83 113t136 82.5t190 32.5q156 0 239.5 -71.5t83.5 -181.5v8q0 -90 -68.5 -180.5t-213.5 -165.5q72 -57 120 -99.5t77.5 -80t41.5 -75.5t12 -87q0 -102 -48 -176t-120.5 -122.5 t-157.5 -71t-161 -22.5q-180 0 -286.5 73t-106.5 220zM209 293q0 -66 16.5 -110t42 -69.5t59 -36.5t70.5 -11q49 0 91 15t75 45t51.5 72t18.5 97q0 35 -9.5 65.5t-34 64.5t-69.5 76t-117 97q-92 -63 -143 -137t-51 -168zM393 1014q0 -76 36 -132.5t116 -121.5 q98 66 133 134.5t35 145.5q0 82 -42 129.5t-110 47.5q-78 0 -123 -59.5t-45 -143.5z" />
<glyph unicode="9" horiz-adv-x="1015" d="M-27 -299q111 41 205 87t172 103.5t138.5 130t103.5 168.5q-39 -25 -98.5 -46t-137.5 -21q-68 0 -127 22.5t-102 68.5t-67.5 115.5t-24.5 162.5q0 88 34.5 175t98 155.5t154 110.5t200.5 42q117 0 193 -39t120 -102.5t61 -144.5t17 -165q0 -164 -68.5 -311t-191.5 -266 t-296 -205t-382 -127q-47 68 -2 86zM291 516q0 -123 45 -201.5t121 -78.5q61 0 99 33.5t59.5 85t28.5 110.5t7 108q0 135 -38 225.5t-115 90.5q-37 0 -75 -23.5t-66.5 -70.5t-47 -117t-18.5 -162z" />
<glyph unicode=":" horiz-adv-x="421" d="M-25 102q0 59 41 104.5t103 45.5q66 0 99.5 -38t33.5 -91q0 -61 -43 -104.5t-100 -43.5q-72 0 -103 37t-31 90zM82 758q0 59 41 104t102 45q66 0 99.5 -38t33.5 -91q0 -61 -43 -104t-100 -43q-72 0 -102.5 37t-30.5 90z" />
<glyph unicode=";" horiz-adv-x="446" d="M-59 -236q0 20 30 46q68 53 90.5 96t22.5 80q0 25 -14.5 41t-33 30.5t-32.5 28.5t-14 37q0 57 141 133q72 -39 115 -90t43 -111q0 -33 -14.5 -72.5t-50.5 -84.5t-94 -92.5t-144 -96.5q-16 10 -30.5 24.5t-14.5 30.5zM113 758q0 59 41 104t102 45q66 0 99.5 -38t33.5 -91 q0 -61 -43 -104t-100 -43q-72 0 -102.5 37t-30.5 90z" />
<glyph unicode="&#x3c;" horiz-adv-x="1011" d="M58.5 444.5q2.5 22.5 39.5 42.5l783 408q25 -49 28.5 -94t-30.5 -64l-586 -303l657 -360q-29 -57 -71.5 -79t-85.5 1l-727 391q-10 35 -7.5 57.5z" />
<glyph unicode="=" horiz-adv-x="1011" d="M8 215q10 72 37 103.5t80 31.5h776q-10 -72 -36.5 -103.5t-80.5 -31.5h-776zM45 602q10 72 37 103.5t80 31.5h776q-10 -72 -37 -103.5t-80 -31.5h-776z" />
<glyph unicode="&#x3e;" horiz-adv-x="1011" d="M29 74l657 354l-592 305q-35 18 -27.5 65.5t31.5 96.5l783 -408q37 -20 40 -42.5t-8 -57.5l-727 -391q-43 -23 -86 -1.5t-71 79.5z" />
<glyph unicode="?" horiz-adv-x="735" d="M115 102q0 59 41 104.5t102 45.5q66 0 99.5 -38t33.5 -91q0 -61 -43 -104.5t-100 -43.5q-72 0 -102.5 37t-30.5 90zM133 637q0 45 14.5 81t46 69.5t84 70.5t128.5 86q35 23 70.5 43.5t65 43t48 48t18.5 58.5q0 49 -32.5 68.5t-73.5 19.5q-33 0 -74 -16.5t-94 -61.5 q-20 -16 -33.5 -26.5t-38.5 -10.5q-20 0 -41.5 12.5t-40 27.5t-30 31.5t-11.5 26.5q0 14 9.5 23.5t25.5 23.5q59 47 126 74t136 27q80 0 139.5 -28t98.5 -69.5t58.5 -90t19.5 -89.5q0 -94 -64.5 -160.5t-193.5 -146.5q-35 -20 -69 -40.5t-61.5 -43t-45 -48.5t-17.5 -58 q0 -18 2 -35t8 -34t14.5 -37.5t20.5 -51.5q2 -6 4 -15.5t-2 -20.5t-16 -21.5t-37 -18.5q-86 98 -124 166t-38 123z" />
<glyph unicode="@" horiz-adv-x="1675" d="M41 395q0 184 72.5 344t194.5 278t283 185.5t339 67.5q143 0 261 -44t203 -125t132 -193.5t47 -250.5q0 -100 -26.5 -214.5t-84 -213t-149.5 -164t-221 -65.5q-80 0 -115 28.5t-35 100.5t31 199h-8q-43 -102 -90.5 -168t-96.5 -104t-100 -53t-100 -15q-33 0 -65 9 t-56.5 30.5t-39 59.5t-14.5 97q0 174 53.5 308.5t136.5 226.5t183.5 139t194.5 47q78 0 146.5 -7t137.5 -19l-141 -719q-2 -10 -2 -25q0 -27 11.5 -36t27.5 -9q53 0 108.5 46t99.5 126t72.5 186.5t28.5 225.5t-45 213t-121.5 160.5t-177 102.5t-213.5 36 q-145 0 -279.5 -55.5t-237.5 -161t-164.5 -256t-61.5 -340.5q0 -152 51 -276t143 -214t218 -139t278 -49q123 0 240.5 23.5t218.5 72.5q16 8 28 8t27.5 -9t34.5 -34q-49 -37 -114.5 -65.5t-138.5 -48t-149.5 -29.5t-152.5 -10q-190 0 -339 58t-252 162.5t-157.5 250 t-54.5 321.5zM625 260q0 -53 15 -84t40 -31q37 0 77 35t78.5 90.5t74.5 125t62.5 141t43 137t16.5 112.5q-49 18 -90 19q-154 0 -235.5 -144.5t-81.5 -400.5z" />
<glyph unicode="A" horiz-adv-x="1202" d="M-154 23q0 14 11.5 23t40.5 13q102 18 137 78l649 1190q16 29 45 29q27 0 45 -15l230 -1200q8 -39 37.5 -57t70.5 -23q25 -4 36 -10t11 -28q0 -6 -1 -15.5t-3 -19.5q-53 4 -114.5 8t-131.5 4q-29 0 -63.5 -1t-71.5 -3t-71.5 -5t-63.5 -5q-6 18 -6 34q0 12 8 21.5t31 13.5 q84 12 84 72q0 14 -2 20l-49 295h-390l-157 -288q-8 -14 -8 -31q0 -33 39.5 -49.5t95.5 -24.5q39 -6 39 -29q0 -14 -7 -34q-78 6 -138 10t-113 4q-39 0 -87.5 -2t-123.5 -12q-4 10 -6.5 19t-2.5 18zM367 537h321l-74 469z" />
<glyph unicode="B" horiz-adv-x="1167" d="M-4 23q0 27 35 34q57 10 83.5 31t35.5 57l200 1037q6 39 -17.5 56t-90.5 22q-41 2 -41 30q0 8 2 18.5t6 22.5h502q106 0 176.5 -20.5t113.5 -56t60.5 -84t17.5 -103.5q0 -106 -78.5 -202.5t-205.5 -149.5q127 -20 208.5 -86t81.5 -187q0 -100 -44 -181t-120.5 -139.5 t-178 -90t-218.5 -31.5h-288q-41 0 -103.5 -3t-130.5 -11q-6 20 -6 37zM385 133q-1 -9 -1 -16q0 -14 5 -20q8 -9 29 -9h24q82 0 152 17.5t121 56.5t79.5 102.5t28.5 155.5q0 113 -77.5 172t-221.5 59h-39zM502 741q168 0 243.5 89.5t75.5 232.5q0 88 -50 134t-163 46h-12z " />
<glyph unicode="C" horiz-adv-x="1267" d="M41 526q0 145 51 294t152.5 267.5t255 193.5t360.5 75q106 0 206.5 -18.5t197.5 -49.5q-6 -59 -7 -119q0 -43 3.5 -81.5t7.5 -73.5q-18 -18 -56 -19q-45 0 -51 41q-27 129 -111.5 182.5t-203.5 53.5q-127 0 -226.5 -59.5t-168 -159t-105.5 -231.5t-37 -279 q0 -109 26.5 -197t76 -150.5t120 -96t156.5 -33.5q123 0 209 57t145 186q10 18 22.5 27.5t39.5 9.5q20 0 38.5 -9t24.5 -15q-27 -53 -53.5 -131t-44.5 -171q-49 -10 -105.5 -18t-111.5 -14t-103 -9.5t-83 -3.5q-170 0 -288 43t-193.5 119t-109.5 175.5t-34 213.5z" />
<glyph unicode="D" horiz-adv-x="1490" d="M-12 23q0 12 6 22t26 14q63 10 92 27.5t38 58.5l200 1045q6 35 -14.5 55.5t-81.5 24.5q-37 2 -37 30q0 10 2 20.5t6 25.5q76 -6 144.5 -10.5t117.5 -4.5h283q145 0 269 -34.5t214 -104.5t140.5 -175.5t50.5 -246.5q0 -172 -67.5 -313.5t-186.5 -242.5t-279.5 -157.5 t-347.5 -56.5h-305q-43 0 -119 -4t-145 -10q-2 8 -4 17t-2 20zM395 147q-3 -16 -3 -27q0 -13 4 -20q7 -12 36 -12h88q131 0 249 38t208 118t143.5 205t53.5 301q0 133 -33 227t-97.5 153.5t-157.5 87t-212 27.5h-72z" />
<glyph unicode="E" horiz-adv-x="1157" d="M-12 23q0 16 11 26t40 14q59 6 81.5 27t29.5 55l200 1045q8 37 -11.5 54.5t-74.5 23.5q-45 6 -45 41q0 14 6 37q78 -6 151 -10.5t124 -4.5h383q80 0 122 6t66 6q25 0 33 -8t8 -30q0 -66 10.5 -129.5t24.5 -126.5q-10 -8 -27.5 -13.5t-32.5 -5.5q-23 0 -33 9.5t-14 23.5 q-29 98 -78 140t-133 42h-227l-98 -520h237q47 0 67.5 28.5t35.5 77.5q4 12 11 22.5t24 10.5q16 0 32.5 -5t28.5 -9q-12 -47 -21.5 -87t-16.5 -81t-12 -88t-9 -107q-20 -10 -54 -10q-29 0 -35 12.5t-4 26.5q2 16 2 31q0 31 -9 54q-13 34 -62 34h-232l-96 -500q-4 -29 3 -38 t36 -9h221q74 0 144.5 41t148.5 150q10 16 18.5 24t24.5 8q18 0 35.5 -11t30.5 -24l-21 -40q-10 -20 -22.5 -46t-24.5 -61q-16 -41 -23.5 -72.5t-15.5 -48.5q-6 -14 -13 -17t-18 -3q-23 0 -40 2t-37.5 4t-46 4t-62.5 2h-479q-41 0 -112.5 -4t-139.5 -10q-10 20 -10 37z" />
<glyph unicode="F" horiz-adv-x="1101" d="M-4 29q0 18 16.5 25t40.5 12q39 6 63.5 22t33.5 57l200 1045q8 37 -11.5 54.5t-74.5 23.5q-45 6 -45 41q0 14 6 37q78 -6 151 -10.5t124 -4.5h383q80 0 122 6t66 6q25 0 33 -8t8 -30q0 -66 10.5 -129.5t24.5 -126.5q-10 -8 -27.5 -13.5t-32.5 -5.5q-23 0 -33 9.5 t-14 23.5q-29 98 -78 140t-133 42h-227l-102 -540h237q47 0 67.5 28.5t35.5 77.5q4 12 11 22.5t23 10.5t33 -5t29 -10q-12 -47 -21.5 -87t-16.5 -80.5t-12 -88t-9 -106.5q-20 -10 -54 -10q-29 0 -35 12t-4 27q2 16 2 30q0 30 -9 54q-13 34 -62 34h-232l-92 -473 q-4 -20 6.5 -33.5t27.5 -21.5t37.5 -12t39.5 -6q35 -4 48 -14.5t13 -24.5q0 -8 -2 -20.5t-4 -22.5q-37 2 -81 5t-85 5t-79 3t-62 1q-41 0 -110.5 -4t-137.5 -10q-4 10 -5 22t-1 21z" />
<glyph unicode="G" horiz-adv-x="1374" d="M45 537q0 141 48 286.5t148.5 263t251 192.5t357.5 77q106 0 210.5 -18.5t201.5 -49.5q-4 -29 -4.5 -59.5t-0.5 -59.5q0 -37 2.5 -74.5t6.5 -80.5q-18 -18 -56 -19q-45 0 -51 41q-27 125 -108.5 180.5t-196.5 55.5q-135 0 -236.5 -60.5t-169 -161t-101.5 -232.5t-34 -275 q0 -217 98.5 -347t286.5 -130q53 0 105.5 3t68.5 7l70 346q1 7 1 13q0 51 -85 63q-25 4 -34 12t-9 25q0 10 2 20t6 25q78 -6 144.5 -10.5t115.5 -4.5q41 0 105.5 4t132.5 11q6 -23 6 -37q0 -37 -45 -45q-47 -8 -69.5 -25.5t-30.5 -54.5l-74 -367q-6 -29 -24.5 -41t-59.5 -16 q-88 -10 -185.5 -14.5t-191.5 -4.5q-160 0 -273.5 44t-186 120t-107.5 178.5t-35 219.5z" />
<glyph unicode="H" horiz-adv-x="1495" d="M-2 23q0 16 7 24t30 12q53 8 79.5 27.5t35.5 58.5l200 1043q8 37 -7 57.5t-75 26.5q-45 6 -45 33q0 14 10 41q76 -6 141.5 -10.5t112.5 -4.5q41 0 115 3t146 12q6 -23 6 -39t-9.5 -24.5t-37.5 -12.5q-57 -8 -81 -26.5t-32 -59.5l-90 -457h508l90 461q8 37 -7.5 57.5 t-74.5 26.5q-45 6 -45 33q0 14 10 41q76 -6 141.5 -10.5t112.5 -4.5q41 0 114.5 3t145.5 12q6 -23 6 -39t-9 -24.5t-38 -12.5q-57 -8 -80.5 -26.5t-31.5 -59.5l-197 -1043q-8 -41 12.5 -56t75.5 -26q39 -8 39 -36q0 -16 -6 -37q-76 6 -149.5 10t-121.5 4q-41 0 -107.5 -4 t-135.5 -10q-6 20 -6 37q0 16 7 24t29 12q53 8 80 27.5t35 58.5l94 484h-510l-92 -488q-8 -41 14.5 -56t77.5 -26q39 -8 39 -36q0 -16 -6 -37q-76 6 -149.5 10t-120.5 4q-41 0 -107.5 -4t-136.5 -10q-6 20 -6 37z" />
<glyph unicode="I" horiz-adv-x="757" d="M6 23q0 16 7 24t30 12q53 8 80 27.5t35 58.5l200 1043q8 37 -7 57.5t-75 26.5q-45 6 -45 33q0 14 11 41q76 -6 141.5 -10.5t112.5 -4.5q41 0 114.5 3t145.5 12q6 -23 6 -39t-9.5 -24.5t-37.5 -12.5q-57 -8 -81 -26.5t-32 -59.5l-196 -1043q-8 -41 12 -56t76 -26 q39 -8 38 -36q0 -16 -6 -37q-76 6 -149.5 10t-120.5 4q-41 0 -107.5 -4t-136.5 -10q-6 20 -6 37z" />
<glyph unicode="J" horiz-adv-x="733" d="M-115 -311q0 20 23 43q61 61 103 117.5t71 112.5t47 117.5t33 135.5l184 969q8 39 -8 60.5t-80 27.5q-53 4 -53 37q0 12 10 39q76 -8 152.5 -12.5t126.5 -4.5q41 0 107.5 4t135.5 11q6 -18 6 -35q0 -18 -13 -29.5t-48 -15.5q-43 -6 -63.5 -23.5t-28.5 -56.5l-148 -772 q-27 -139 -59.5 -240.5t-87.5 -187.5t-144.5 -167t-228.5 -179q-14 10 -25.5 21t-11.5 28z" />
<glyph unicode="K" horiz-adv-x="1339" d="M-2 23q0 16 7 24t30 12q53 8 79.5 27.5t35.5 58.5l200 1043q8 37 -7 57.5t-75 26.5q-45 6 -45 33q0 14 10 41q76 -6 141.5 -10.5t112.5 -4.5q41 0 115 3t146 12q6 -23 6 -39t-9.5 -24.5t-37.5 -12.5q-57 -8 -81 -26.5t-32 -59.5l-197 -1043q-8 -41 12.5 -56t75.5 -26 q39 -8 39 -36q0 -16 -6 -37q-76 6 -149.5 10t-120.5 4q-41 0 -107.5 -4t-136.5 -10q-6 20 -6 37zM543 684l4 18l500 463q28 24 28 54q0 18 -12 35.5t-47 21.5q-25 4 -34 10t-9 21q0 16 8 39q68 -8 115 -11.5t100 -3.5q49 0 100.5 3t106.5 12q6 -23 6 -37q0 -33 -43 -41 t-76 -23.5t-69 -50.5l-467 -432l358 -623q23 -33 48.5 -53t70.5 -31q39 -6 39 -30q0 -10 -15 -39q-61 8 -122.5 11t-98.5 3q-63 0 -95 28.5t-69 82.5z" />
<glyph unicode="L" horiz-adv-x="1138" d="M-6 25q0 12 8 21t31 13q51 8 79.5 26.5t37.5 59.5l200 1045q8 37 -16.5 55.5t-77.5 26.5q-39 6 -39 33q0 8 2 18t6 23q78 -8 153 -11.5t126 -3.5q57 0 141 4t154 11q4 -14 6 -23.5t2 -19.5q0 -31 -47 -37q-82 -10 -123 -32t-51 -79l-195 -1020q-4 -25 3 -36t40 -11h205 q86 0 158.5 46t150.5 157q10 16 18.5 24.5t24.5 8.5q18 0 35.5 -11.5t30.5 -23.5q-10 -23 -23 -47q-10 -23 -23.5 -50.5t-25.5 -62.5q-16 -41 -23.5 -72.5t-15.5 -48.5q-6 -14 -13 -17t-18 -3q-23 0 -40 2t-37.5 4t-46 4t-62.5 2h-479q-43 0 -111.5 -4t-136.5 -10 q-4 10 -6 19t-2 20z" />
<glyph unicode="M" horiz-adv-x="1789" d="M-18 23q0 14 9 22t34 12q96 16 114 88l250 1055q6 23 -5 41.5t-62 28.5q-25 4 -34 12t-9 25q0 14 6 39q37 -4 69.5 -7.5t64.5 -4.5t66.5 -2t77.5 -1t60.5 -15.5t21.5 -39.5l211 -967l506 953q10 20 20.5 33.5t24.5 21.5t34.5 11t55.5 3q59 0 113.5 3t124.5 12 q6 -23 6 -37q0 -33 -43 -41q-41 -10 -63.5 -23.5t-26.5 -48.5l-156 -1053q-6 -39 16.5 -56t63.5 -26q23 -4 35 -12t12 -26q0 -14 -6 -35q-76 6 -147.5 9t-120.5 3q-43 0 -109 -4t-135 -10q-4 12 -6 21t-2 18q0 31 45 36q55 6 80.5 25.5t31.5 58.5l129 840l-522 -965 q-12 -23 -25.5 -34t-35.5 -11q-20 0 -33.5 4.5t-24.5 10.5l-241 1042l-205 -876q-3 -12 -3 -22q-1 -24 17 -40q24 -22 96 -33q31 -4 42.5 -13t11.5 -25q0 -12 -6 -37q-76 6 -128.5 10t-91.5 4q-35 0 -85 -3t-115 -11q-4 10 -6 19t-2 18z" />
<glyph unicode="N" horiz-adv-x="1454" d="M-8 23q0 14 9 22t34 12q47 8 77.5 31t37.5 57l200 1045q4 27 -7 49.5t-62 32.5q-41 8 -41 33q0 8 2 17t6 24q53 -8 110.5 -11.5t114.5 -3.5q37 0 54.5 -9t29.5 -32l490 -960l159 846q1 7 1 14q1 26 -17 46q-22 26 -94 36q-31 4 -42.5 12t-11.5 25q0 12 7 37 q76 -6 128 -10.5t91 -4.5q35 0 85 3t115 12q4 -10 6.5 -19.5t2.5 -17.5q0 -14 -9.5 -22.5t-33.5 -12.5q-47 -8 -78 -30.5t-37 -57.5l-227 -1192q-16 -8 -30.5 -13.5t-33.5 -5.5q-27 0 -38 9.5t-27 38.5l-537 1009l-164 -876q-1 -7 -1 -14q-1 -26 17 -46q22 -26 95 -37 q31 -4 42 -12t11 -24q0 -12 -6 -37q-76 6 -128 10t-91 4q-35 0 -85 -3t-116 -11q-4 10 -6 19t-2 18z" />
<glyph unicode="O" horiz-adv-x="1368" d="M33 526q0 164 56 314.5t156.5 265.5t237.5 182.5t301 67.5q131 0 231.5 -42t168 -115t102.5 -172t35 -214q0 -186 -59.5 -340t-163 -264.5t-244.5 -172t-305 -61.5q-127 0 -223.5 45.5t-162 121t-98 176t-32.5 208.5zM297 524q0 -215 72.5 -335.5t230.5 -120.5 q119 0 205 63.5t142.5 165.5t83 230t26.5 259q0 225 -74 351.5t-213 126.5q-123 0 -212 -62.5t-147.5 -165t-86 -235.5t-27.5 -277z" />
<glyph unicode="P" horiz-adv-x="1130" d="M-12 20q0 18 10 28.5t39 14.5q51 8 77.5 25.5t35.5 56.5l200 1045q8 37 -9 54.5t-83 23.5q-43 6 -43 35q0 16 10 43q78 -6 148.5 -10.5t122.5 -4.5h180q215 0 333.5 -88t118.5 -233q0 -98 -38.5 -181.5t-110.5 -143.5t-174.5 -94t-231.5 -34h-47q6 35 20.5 61.5 t55.5 28.5q131 4 197.5 92t66.5 250q0 51 -14 97.5t-44 82t-73 56t-100 20.5h-35l-205 -1089q-2 -9 -2 -17q-1 -27 21 -43q28 -20 100 -30q47 -8 47 -37q0 -8 -2 -18.5t-6 -24.5q-76 6 -153.5 10t-141.5 4q-43 0 -120 -4t-144 -10q-6 18 -6 34z" />
<glyph unicode="Q" horiz-adv-x="1366" d="M33 526q0 164 56 314.5t156.5 265.5t237.5 182.5t301 67.5q131 0 231.5 -42t168 -115t102.5 -172t35 -214q0 -156 -44 -291t-122 -241.5t-186.5 -179t-239.5 -103.5v-6q82 -23 133 -67t86 -85q31 -35 62.5 -65.5t70.5 -53t91 -35.5q44 -12 102 -12h18q4 -6 5 -14t-9 -16 q-23 -20 -78 -38t-112 -18q-76 0 -133.5 15.5t-102.5 43t-82 62.5t-69 76q-63 78 -122 126t-153 75q-98 27 -173 79t-126 122.5t-77.5 156.5t-26.5 182zM297 524q0 -215 72.5 -335.5t230.5 -120.5q119 0 205 63.5t142.5 166.5t83 231t26.5 257q0 223 -74 350.5t-213 127.5 q-123 0 -212 -62.5t-147.5 -166t-86 -236.5t-27.5 -275z" />
<glyph unicode="R" horiz-adv-x="1245" d="M-18 18q0 33 41 41q59 12 88.5 31t38.5 55l200 1045q8 37 -9 53.5t-67 24.5q-53 8 -53 37q0 14 10 41q78 -8 151 -11.5t124 -3.5h164q203 0 319.5 -84t116.5 -225q0 -61 -17.5 -119.5t-58.5 -109t-106.5 -91t-159.5 -65.5l283 -508q18 -35 46.5 -49t67.5 -25 q29 -6 29 -28q0 -16 -12 -41q-25 2 -55.5 5t-61.5 5t-58.5 3t-46.5 1q-53 0 -89 24.5t-66 84.5l-285 522l14 49q315 12 316 336q0 45 -11.5 87t-38 73.5t-67.5 50t-100 18.5h-29l-209 -1098q-6 -35 14.5 -54t77.5 -30q31 -6 42.5 -15t11.5 -25q0 -8 -2.5 -17.5t-4.5 -19.5 q-78 6 -146.5 10t-125.5 4q-47 0 -125 -4t-145 -10q-6 18 -6 32z" />
<glyph unicode="S" horiz-adv-x="1091" d="M53 55q6 59 11.5 126t5.5 128q0 25 -1 47.5t-3 42.5q12 4 26 8.5t33 4.5q29 0 37 -13.5t14 -40.5q23 -139 81 -213.5t179 -74.5q51 0 98.5 15t84 46t59 76t22.5 104q0 51 -19 94.5t-52 80t-75 68.5t-85 64q-47 35 -92 71t-81 79t-57.5 94.5t-21.5 114.5q0 86 37 155.5 t97.5 118.5t138 77t161.5 28q115 0 206 -29t163 -63q-6 -49 -10 -92.5t-4 -84.5v-31.5t2 -31.5q-18 -14 -50 -14q-20 0 -35.5 9t-19.5 34q-18 109 -86.5 163t-171.5 54q-41 0 -80 -11.5t-69.5 -35t-49 -59.5t-18.5 -85q0 -43 19.5 -79.5t51 -70.5t72.5 -67t84 -65 q49 -39 98.5 -80t88.5 -90t63.5 -106.5t24.5 -129.5q0 -104 -43 -182t-114 -130t-163 -78t-190 -26q-61 0 -119.5 8.5t-108 20.5t-85 25.5t-54.5 25.5z" />
<glyph unicode="T" horiz-adv-x="1335" d="M152 1053q16 35 27 68.5t26 76.5q12 41 18 67.5t15 49.5q10 31 36 31q27 0 75 -7.5t147 -7.5h596q51 0 84.5 2t57 4t40 4t31.5 2q27 0 28 -24q4 -31 4 -55.5t6 -69.5q4 -35 10.5 -68.5t16.5 -68.5q-10 -6 -23.5 -13.5t-33.5 -7.5q-33 0 -43 29q-33 96 -86.5 138 t-143.5 42h-143l-205 -1089q-2 -9 -2 -16q0 -26 20 -42q26 -20 95 -32q29 -4 39 -13.5t10 -25.5q0 -8 -2 -18.5t-6 -22.5q-76 6 -147.5 10t-145.5 4q-63 0 -141 -4t-146 -10q-4 10 -6 20t-2 21q0 33 35 39q72 10 110.5 31.5t47.5 62.5l204 1085h-145q-45 0 -79 -11 t-61.5 -33.5t-54 -56.5t-59.5 -81q-12 -16 -26.5 -22.5t-30.5 -6.5t-29.5 7.5t-17.5 11.5z" />
<glyph unicode="U" horiz-adv-x="1495" d="M188 352q0 27 2.5 53.5t8.5 55.5l139 721q8 37 -9.5 58.5t-76.5 27.5q-45 6 -45 37q0 14 10 41q78 -8 142.5 -11.5t113.5 -3.5q20 0 52 1t68 2t72.5 4t71.5 8q2 -10 3 -18.5t1 -16.5q0 -20 -11 -30.5t-46 -14.5q-59 -8 -76.5 -25.5t-25.5 -54.5l-142 -711 q-16 -82 -16 -141q0 -123 67.5 -187.5t229.5 -64.5q147 0 250.5 88t142.5 291l135 708q1 9 1 17q0 25 -13 48q-18 30 -72 38q-31 4 -42 12t-11 25q0 12 6 37q76 -6 115 -10.5t78 -4.5q35 0 79 1t109 9q4 -10 6 -19t2 -17q0 -14 -9 -22.5t-34 -12.5q-90 -14 -102 -84 l-139 -731q-25 -109 -66 -197t-107.5 -150.5t-161.5 -97.5t-226 -35q-223 0 -348.5 97.5t-125.5 279.5z" />
<glyph unicode="V" horiz-adv-x="1245" d="M84 1307q0 14 6 39q72 -8 142.5 -11.5t119.5 -3.5q43 0 113 3t139 12q4 -12 6 -22.5t2 -18.5q0 -33 -32 -35q-74 -10 -96 -28q-17 -14 -17 -44q0 -11 2 -24l143 -859l480 859q14 24 14 42t-13 28q-26 22 -67 26t-41 37q0 16 8 39q68 -8 114 -11.5t87 -3.5q37 0 90 3 t119 12q6 -25 6 -39q0 -16 -9 -24.5t-34 -12.5q-53 -8 -86 -22.5t-57 -55.5l-691 -1208q-10 -4 -19 -6.5t-26 -2.5q-39 0 -45 37l-223 1182q-6 35 -21.5 49t-66.5 25q-47 8 -47 39z" />
<glyph unicode="W" horiz-adv-x="1966" d="M76 1303q0 20 6 43q72 -10 144.5 -12.5t121.5 -2.5q43 0 121 4t147 11q6 -25 7 -39q0 -37 -37 -39q-70 -10 -88 -28q-13 -13 -13 -43q0 -13 2 -28l131 -792l490 971q10 4 26.5 6t26.5 2q29 0 37 -9.5t12 -25.5l156 -971l426 826q14 25 14 44q0 12 -6 20q-14 24 -80 30 q-39 2 -39 33q0 12 11 43q61 -8 118.5 -11.5t98.5 -3.5q37 0 70.5 2t103.5 8q6 -23 6 -36q0 -18 -13.5 -25.5t-41.5 -11.5q-53 -10 -75 -27.5t-38 -46.5l-641 -1210q-10 -4 -21.5 -6.5t-23.5 -2.5q-29 0 -39 12.5t-14 39.5l-150 931l-500 -974q-10 -4 -21 -6.5t-24 -2.5 q-27 0 -37 12.5t-16 41.5l-213 1157q-8 39 -31.5 51t-76.5 23q-23 4 -30 15t-7 28z" />
<glyph unicode="X" horiz-adv-x="1282" d="M-137 20q0 16 10 27.5t39 15.5q37 6 71.5 21.5t69.5 54.5l473 531l-252 512q-23 47 -44 60t-58 20q-51 8 -51 36q0 14 14 48q29 -4 65 -7.5t72.5 -4.5t71.5 -2t62 -1q53 0 74.5 -23.5t37.5 -60.5l197 -432l307 344q23 27 22 49q0 51 -94 58q-49 2 -49 34q0 16 12 46 q78 -6 144.5 -10.5t107.5 -4.5q33 0 84 4t121 13q2 -10 3 -19.5t1 -17.5q0 -18 -9 -29.5t-34 -15.5q-55 -10 -87 -28.5t-54 -45.5l-428 -469l272 -561q25 -51 52.5 -73.5t78.5 -33.5q33 -6 33 -28q0 -14 -12 -41q-25 2 -57.5 5t-65.5 5t-62.5 3t-48.5 1q-49 0 -85 16.5 t-64 75.5l-230 477l-340 -393q-14 -16 -22 -29.5t-8 -29.5q0 -18 17.5 -30.5t64.5 -18.5q33 -4 48 -14.5t15 -33.5q0 -14 -6 -34q-74 6 -149.5 10t-116.5 4q-35 0 -89.5 -3t-117.5 -13q-6 20 -6 36z" />
<glyph unicode="Y" horiz-adv-x="1142" d="M76 1305q0 16 6 38q74 -8 141.5 -11t118.5 -3q43 0 115.5 4t140.5 10q8 -23 8 -38q0 -35 -39 -37q-72 -10 -84 -33q-5 -10 -5 -23q0 -18 9 -43l156 -469l348 474q14 20 14 37q0 14 -9 27q-19 28 -74 32q-43 2 -43 37q0 8 2 17t6 22q49 -8 107.5 -11.5t99.5 -3.5 q35 0 88 3t118 12q4 -12 6.5 -20.5t2.5 -16.5q0 -20 -15.5 -29.5t-46.5 -15.5q-39 -8 -64.5 -24.5t-47.5 -45.5l-439 -584l-90 -463q-2 -10 -2 -19q0 -27 18 -40q23 -18 72 -25q23 -4 34 -11t11 -25t-8 -41q-78 6 -151.5 10t-124.5 4q-20 0 -53 -1t-70 -3t-76 -5t-72 -5 q-4 10 -6 18t-2 19q0 14 9.5 24t33.5 14q115 18 131 91l86 436l-225 608q-10 27 -28.5 43t-61.5 21q-25 2 -35 14t-10 31z" />
<glyph unicode="Z" horiz-adv-x="1259" d="M-51 22q2 12 14 25l1020 1198h-444q-55 0 -97.5 -8t-78 -30.5t-65.5 -61.5t-60 -101q-10 -23 -23.5 -29.5t-38.5 -6.5q-16 0 -33.5 6t-23.5 12q31 78 54.5 149.5t33.5 118.5q6 27 17.5 37t39.5 10q29 0 50.5 -2t44 -3t51 -3t71.5 -2h822q4 -12 4 -25.5t-15 -29.5 l-1007 -1188h442q55 0 98 15.5t79 46t70 77.5t73 111q10 16 18 24.5t25 8.5q18 0 36.5 -8.5t30.5 -20.5q-35 -72 -58.5 -150.5t-43.5 -166.5q-4 -23 -15.5 -30t-21.5 -7q-43 0 -92 6t-121 6h-854q-3 7 -3 14q0 4 1 8z" />
<glyph unicode="[" horiz-adv-x="630" d="M-14 -371l348 1788h373q10 -45 -4.5 -61.5t-55.5 -20.5q-63 -4 -85.5 -20.5t-31.5 -52.5l-286 -1475q-8 -41 9 -56.5t85 -21.5q47 -4 57.5 -21.5t-0.5 -58.5h-409z" />
<glyph unicode="\" horiz-adv-x="802" d="M133 1405q6 2 27.5 5t44.5 3q82 0 98 -59l377 -1415q-57 -10 -92 -11q-43 0 -55.5 17.5t-20.5 48.5z" />
<glyph unicode="]" horiz-adv-x="604" d="M-137 -371q-10 45 4 61.5t55 20.5q63 4 86 20.5t31 53.5l287 1475q8 41 -9.5 56t-85.5 21q-47 4 -57 21.5t0 58.5h410l-348 -1788h-373z" />
<glyph unicode="^" horiz-adv-x="1007" d="M12 319l377 699q8 14 20.5 24.5t43.5 10.5q23 0 43 -5.5t39 -13.5l370 -710q16 -33 -11.5 -59.5t-131.5 -55.5l-305 594l-305 -598q-98 33 -130 53.5t-10 60.5z" />
<glyph unicode="_" horiz-adv-x="755" d="M-139 -248q8 63 23.5 80.5t45.5 17.5h686q-8 -63 -23 -80.5t-44 -17.5h-688z" />
<glyph unicode="`" horiz-adv-x="1024" d="M326 1303q0 23 19.5 38t48 23t58 11t52.5 3l137 -297q18 -39 4 -54t-53 -26q-41 49 -68.5 82t-52.5 57.5t-49.5 46t-54.5 48.5q-23 20 -32 35.5t-9 32.5z" />
<glyph unicode="a" horiz-adv-x="978" d="M-18 178q0 174 58 309.5t146 228.5t190.5 141t190.5 48q66 0 133.5 -8t157.5 -27l-137 -692q-2 -10 -3 -17t-1 -11q0 -18 18 -19q12 0 29.5 7t34 16.5t31 16.5t22.5 7q16 0 25.5 -17.5t11.5 -33.5q-33 -23 -77 -49.5t-90 -49t-90 -38t-77 -15.5q-35 0 -53.5 14.5 t-18.5 49.5q0 23 11 57l71 223l-8 3q-96 -184 -200.5 -265.5t-184.5 -81.5q-37 0 -70.5 9.5t-60.5 33t-43 62.5t-16 98zM221 233q0 -55 9.5 -85.5t41.5 -30.5q33 0 72 33.5t78 90t74.5 128t63.5 148.5t43 152q13 66 13 121v15q-16 4 -35.5 8t-35.5 4q-72 0 -131.5 -45 t-102.5 -123t-66.5 -184.5t-23.5 -231.5z" />
<glyph unicode="b" horiz-adv-x="989" d="M20 43l197 1022q10 43 15.5 94t5.5 86q0 23 -19 23q-20 0 -50 -5.5t-52 -5.5q-18 0 -25.5 16.5t-7.5 41.5q96 29 189.5 56.5t185.5 62.5q39 -16 39 -56q0 -8 -2 -19t-4 -20l-154 -729l8 -4q55 88 105.5 146.5t97.5 92.5t92 47t92 13q35 0 68 -12t59.5 -40t42 -70 t15.5 -101q0 -174 -59.5 -306t-152 -221t-201 -134.5t-206.5 -45.5q-86 0 -161 22.5t-118 45.5zM252 88q12 -8 33.5 -13t42.5 -5q78 0 143.5 45t112.5 123.5t73.5 183t26.5 221.5q0 66 -19.5 93.5t-43.5 27.5q-39 0 -81 -36t-83 -94.5t-78 -131t-65.5 -148t-45 -145.5 t-16.5 -121z" />
<glyph unicode="c" horiz-adv-x="792" d="M0 293q0 98 31.5 206.5t94 198.5t157 148.5t217.5 58.5q68 0 133 -17.5t119 -45.5q-4 -12 -9.5 -37t-9.5 -53.5t-8 -58t-6 -54.5l-33 2q-23 2 -33 7t-16 26q-27 86 -59 119.5t-91 33.5q-74 0 -123 -57t-77.5 -139t-39.5 -169t-11 -149q0 -96 36.5 -157.5t122.5 -61.5 q37 0 70 9.5t58.5 22.5t45 26.5t31.5 21.5l12 8t17 4q20 0 28.5 -17t10.5 -34q-29 -25 -67 -53.5t-84 -52t-100.5 -39t-113.5 -15.5q-86 0 -143.5 27t-93 71t-51 101t-15.5 119z" />
<glyph unicode="d" horiz-adv-x="983" d="M-16 197q0 172 56 304t141 222t185.5 136t188.5 46q25 0 43 -1t45 -5l33 168q8 43 14 93t6 85q0 23 -18 23q-20 0 -50 -5.5t-53 -5.5q-18 0 -25 16.5t-7 41.5q96 29 187 56.5t183 62.5q39 -16 39 -56q0 -8 -2 -19t-4 -20l-225 -1171q-2 -8 -2 -18q0 -18 18 -19 q12 0 29.5 7t34 16.5t31 16.5t22.5 7q16 0 25.5 -17.5t11.5 -33.5q-33 -23 -77 -49.5t-90 -49t-90 -38t-77 -15.5q-35 0 -53.5 14.5t-18.5 49.5q0 23 11 57l71 223l-8 3q-86 -166 -185.5 -256.5t-197.5 -90.5q-33 0 -66.5 9.5t-61.5 34t-46 67.5t-18 111zM217 260 q0 -84 15.5 -113.5t43.5 -29.5q31 0 68 32.5t75 88t72.5 126t62.5 147.5t45 152.5t19 141.5q-18 4 -39.5 8t-46.5 4q-72 0 -129 -46t-99 -124t-64.5 -178t-22.5 -209z" />
<glyph unicode="e" horiz-adv-x="811" d="M0 311q0 111 36 217.5t102.5 190.5t158.5 135t205 51q104 0 176 -44t72 -148q0 -74 -37 -128.5t-104.5 -90t-162 -56t-208.5 -26.5q-2 -20 -3.5 -39t-1.5 -39q0 -45 7.5 -88t26 -76t50 -53.5t80.5 -20.5q37 0 89.5 15.5t111.5 54.5q18 12 29.5 20.5t25.5 8.5 q20 0 27.5 -21.5t7.5 -30.5q-27 -25 -66.5 -54.5t-90 -54t-108.5 -42t-120 -17.5q-94 0 -153.5 31t-92 80t-45 108.5t-12.5 116.5zM246 485q82 8 137 31t88 54.5t47 71.5t14 83q0 47 -19 72.5t-50 25.5q-39 0 -74 -27.5t-63.5 -74.5t-49 -107.5t-30.5 -128.5z" />
<glyph unicode="f" horiz-adv-x="667" d="M-313 -494q10 35 23.5 88.5t17.5 98.5l45 14q25 -35 50 -62.5t62 -27.5q51 0 90 122t80 337l121 717h-156q4 33 16.5 60.5t41.5 27.5h112l31 174q14 86 60.5 160.5t109 128t134 84t139.5 30.5q29 0 62.5 -9t61.5 -26q-14 -29 -26 -69.5t-21 -87.5l-41 -13 q-18 29 -51 58.5t-67 29.5q-23 0 -43.5 -16t-39 -59t-36 -118t-37.5 -194l-12 -73h221q-10 -25 -17.5 -57.5t-11.5 -59.5q-47 10 -106.5 15t-100.5 7l-98 -573q-49 -281 -151.5 -450t-239.5 -248q-23 -12 -50.5 -21.5t-62.5 -9.5q-23 0 -54.5 6t-55.5 16z" />
<glyph unicode="g" horiz-adv-x="944" d="M-86 -469q14 37 29.5 86t21.5 104l51 13q33 -68 91.5 -114t123.5 -46q78 0 129.5 72.5t79.5 201.5l101 441l-6 4q-27 -63 -66 -120.5t-86 -101.5t-98.5 -70t-102.5 -26q-37 0 -72.5 9.5t-63.5 33t-44 64.5t-16 104q0 166 53 299t136 226.5t184.5 143.5t199.5 50 q43 0 78 -2t68.5 -6t71.5 -10t85 -17l-184 -950q-23 -115 -78 -197.5t-126 -136t-147.5 -78t-144.5 -24.5q-168 0 -268 47zM225 252q0 -66 12.5 -100.5t47.5 -34.5q29 0 66.5 35.5t75.5 95t74 133.5t63.5 150.5t43.5 148.5q13 64 13 113v12q-16 6 -40 9t-44 3 q-78 0 -136.5 -46t-97.5 -124t-58.5 -180t-19.5 -215z" />
<glyph unicode="h" horiz-adv-x="1058" d="M20 6q0 10 2.5 21.5t4.5 17.5l202 1020q10 43 15.5 94t5.5 86q0 23 -19 23q-20 0 -49.5 -5.5t-52.5 -5.5q-18 0 -25.5 16.5t-7.5 41.5q96 29 189.5 56.5t185.5 62.5q39 -16 39 -56q0 -8 -2 -19t-4 -20l-178 -823l6 -2q45 74 95 144.5t105.5 126t116 88t125.5 32.5 q55 0 96 -25.5t41 -93.5q0 -25 -3 -58.5t-11 -72.5l-98 -469q-6 -25 -6 -36q0 -18 18 -19q12 0 29.5 7t34 16.5t31 16.5t22.5 7q16 0 25.5 -17.5t11.5 -33.5q-33 -23 -77 -49.5t-90 -49t-90 -38t-77 -15.5q-35 0 -58.5 14.5t-23.5 49.5q0 12 2 23.5t4 19.5l111 524 q8 35 12 59.5t4 43.5q0 41 -33 41q-23 0 -58.5 -32t-78.5 -83t-87 -115.5t-81 -132.5q-37 -66 -62.5 -157t-25.5 -162q0 -33 6 -60q-49 -6 -99 -14t-108 -25q-35 14 -35 37z" />
<glyph unicode="i" horiz-adv-x="538" d="M14 758q39 20 93.5 46.5t106.5 48t95 37t62 15.5q16 0 30.5 -8t14.5 -29q0 -6 -1 -16t-3 -21l-131 -645q-6 -25 -7 -36q0 -18 19 -19q12 0 29.5 7t34 16.5t30.5 16.5t23 7q16 0 25 -17.5t11 -33.5q-33 -23 -76.5 -49.5t-90 -49t-90.5 -38t-76 -15.5q-35 0 -58.5 14.5 t-23.5 49.5q0 12 2 23.5t4 19.5l131 625q6 31 -10 30q-6 0 -18.5 -5t-28 -11t-30.5 -11t-26 -5q-18 0 -27.5 18t-13.5 35zM209 1178q0 63 49 108t117 45q59 0 85.5 -35.5t26.5 -72.5q0 -66 -45.5 -107t-111.5 -41q-55 0 -88 27.5t-33 75.5z" />
<glyph unicode="j" horiz-adv-x="522" d="M-170 -471q0 17 16 31q39 35 63.5 67.5t40 67.5t25 72.5t19.5 85.5l172 837q2 6 4 18.5t2 16.5q0 12 -12 12q-6 0 -18.5 -5t-28 -11t-30.5 -11t-26 -5q-18 0 -27.5 18t-13.5 35q39 20 93.5 46.5t106.5 48t95 37t62 15.5q16 0 30.5 -8t14.5 -29q0 -6 -1 -16t-3 -21 l-187 -925q-29 -145 -124 -245.5t-226 -178.5q-20 6 -33.5 18.5t-13.5 28.5zM211 1176q0 63 49 108t117 45q59 0 85.5 -36t26.5 -72q0 -66 -45.5 -107t-111.5 -41q-55 0 -88 27.5t-33 75.5z" />
<glyph unicode="k" horiz-adv-x="937" d="M18 6q0 10 2.5 21.5t4.5 17.5l200 1020q10 43 15.5 94t5.5 86q0 23 -19 23q-20 0 -50 -5.5t-52 -5.5q-18 0 -25.5 16.5t-7.5 41.5q96 29 187.5 56.5t183.5 62.5q39 -16 39 -56q0 -8 -2 -19t-4 -20l-170 -807l10 -2q82 111 150.5 183.5t127 115.5t106.5 59.5t89 16.5 q29 0 49.5 -4t38.5 -8q-10 -27 -19.5 -72t-15.5 -92l-35 -12q-14 20 -33.5 36.5t-52.5 16.5q-14 0 -39.5 -9t-60.5 -31.5t-78 -60.5t-90 -98q59 -129 109.5 -243.5t83.5 -171.5q23 -37 35 -44.5t26 -7.5q31 0 62.5 21.5t54.5 21.5q16 0 23 -13t12 -36q-35 -25 -73 -47 t-76 -39.5t-71.5 -27t-58.5 -9.5q-31 0 -57.5 11.5t-46.5 50.5q-14 27 -34 68.5t-43.5 90t-47 99.5t-43.5 94q-18 -35 -32.5 -78t-24 -87t-13.5 -85t-4 -71q0 -33 6 -60q-49 -6 -99 -14t-108 -25q-35 14 -35 37z" />
<glyph unicode="l" horiz-adv-x="532" d="M27 39q0 12 2 23.5t4 19.5l198 983q10 43 15.5 94t5.5 86q0 23 -19 23q-20 0 -49.5 -5.5t-52.5 -5.5q-18 0 -25.5 16.5t-7.5 41.5q96 29 187.5 56.5t183.5 62.5q39 -16 39 -56q0 -8 -2 -19t-4 -20l-226 -1153q-6 -25 -6 -36q0 -18 19 -19q12 0 29.5 7t34 16.5t30.5 16.5 t23 7q16 0 25 -17.5t11 -33.5q-33 -23 -76.5 -49.5t-90 -49t-90.5 -38t-76 -15.5q-35 0 -58.5 14.5t-23.5 49.5z" />
<glyph unicode="m" horiz-adv-x="1542" d="M6 758q39 25 92.5 50.5t105.5 47t95 35.5t63 14q16 0 31 -8t15 -29v-16t-5 -21l-77 -315l6 -2q45 74 92 144.5t98 126t108.5 88t123.5 32.5q55 0 97 -26.5t42 -100.5q0 -61 -23 -141l-24 -94l6 -2q43 70 89 136t95 116.5t103.5 81t117.5 30.5q55 0 96.5 -25.5t41.5 -93.5 q0 -25 -3 -58.5t-12 -72.5l-98 -469q-6 -25 -6 -36q0 -18 18 -19q12 0 29.5 7t34 16.5t31 16.5t22.5 7q16 0 25.5 -17.5t11.5 -33.5q-33 -23 -77 -49.5t-90 -49t-90 -38t-77 -15.5q-35 0 -58.5 14.5t-23.5 49.5q0 12 2 23.5t4 19.5l111 524q8 35 12 59.5t4 43.5q0 41 -32 41 q-23 0 -56 -32t-71.5 -83t-79.5 -115.5t-78 -132.5q-8 -14 -23.5 -48t-30 -78t-24.5 -94t-10 -99q0 -33 6 -60q-49 -6 -99.5 -14t-107.5 -25q-35 14 -35 37q0 10 2 21.5t4 17.5l115 561q8 35 12.5 59.5t4.5 43.5q0 41 -33 41q-23 0 -55.5 -32t-71.5 -83t-80 -115.5 t-78 -132.5q-37 -66 -62.5 -157t-25.5 -162q0 -33 6 -60q-49 -6 -99 -14t-108 -25q-35 14 -35 37q0 10 2.5 21.5t4.5 17.5l131 662q4 12 2 21t-10 9q-6 0 -18.5 -5t-28 -11t-31 -11t-25.5 -5q-18 0 -27.5 18t-13.5 35z" />
<glyph unicode="n" horiz-adv-x="1058" d="M6 758q39 25 92.5 50.5t105.5 47t95 35.5t63 14q16 0 31 -8t15 -29v-16t-5 -21l-77 -315l6 -2q45 74 95 144.5t105.5 126t116 88t125.5 32.5q55 0 96 -25.5t41 -93.5q0 -25 -3 -58.5t-11 -72.5l-98 -469q-6 -25 -6 -36q0 -18 18 -19q12 0 29.5 7t34 16.5t31 16.5t22.5 7 q16 0 25.5 -17.5t11.5 -33.5q-33 -23 -77 -49.5t-90 -49t-90 -38t-77 -15.5q-35 0 -58.5 14.5t-23.5 49.5q0 12 2 23.5t4 19.5l111 524q8 35 12 59.5t4 43.5q0 41 -33 41q-23 0 -58.5 -32t-78.5 -83t-87 -115.5t-81 -132.5q-37 -66 -62.5 -157t-25.5 -162q0 -33 6 -60 q-49 -6 -99 -14t-108 -25q-35 14 -35 37q0 10 2.5 21.5t4.5 17.5l131 662q4 12 2 21t-10 9q-6 0 -18.5 -5t-28 -11t-31 -11t-25.5 -5q-18 0 -27.5 18t-13.5 35z" />
<glyph unicode="o" d="M-2 311q0 137 48 248t122 187.5t163 117.5t171 41q80 0 137 -26.5t96 -73.5t57.5 -109.5t18.5 -136.5q0 -147 -47 -256.5t-123 -182.5t-170 -109t-186 -36q-78 0 -133.5 25t-89 69t-49 106.5t-15.5 135.5zM233 332q0 -129 25 -197.5t84 -68.5q51 0 94 35.5t74 99 t48 151.5t17 191q0 125 -21.5 198.5t-84.5 73.5q-57 0 -101 -44t-74 -113.5t-45.5 -155.5t-15.5 -170z" />
<glyph unicode="p" horiz-adv-x="1007" d="M-68 -463q0 10 5 31l221 1141q4 10 2 19t-10 9q-6 0 -18.5 -5t-28 -11t-31 -11t-25.5 -5q-18 0 -27.5 18t-13.5 35q39 25 92.5 50.5t105.5 47t95 35.5t63 14q16 0 31 -8t15 -29v-16t-5 -21l-67 -260l6 -2q51 94 100.5 159t97.5 103.5t96 56t99 17.5q57 0 95 -21.5 t61.5 -55t33 -77.5t9.5 -89q0 -162 -59.5 -289t-149.5 -215t-195.5 -135.5t-199.5 -47.5h-43t-45 5l-29 -148q-10 -47 -16.5 -84t-6.5 -59q0 -25 7.5 -33t23.5 -8t48 4t55 4q20 0 23 -18.5t3 -34.5q-106 -29 -193 -57.5t-171 -63.5q-25 12 -39.5 23.5t-14.5 31.5zM262 88 q10 -8 35 -14t45 -6q74 0 138.5 42t111.5 114.5t73.5 171t26.5 212.5q0 86 -19.5 120t-47.5 34q-35 0 -75 -34t-79 -89t-77 -127t-66.5 -146.5t-46 -147.5t-19.5 -130z" />
<glyph unicode="q" horiz-adv-x="929" d="M-18 190q0 168 55 301.5t141 225.5t189.5 140t199.5 48q70 0 147 -8t144 -27l-227 -1155q-4 -16 -7 -52t-3 -54q0 -23 1 -47.5t5 -40.5q-47 -6 -104.5 -17.5t-110.5 -23.5q-35 14 -35 35q0 8 2 26.5t6 38.5q12 66 31.5 157t43 188.5t46 191.5t39.5 168l-4 2 q-31 -61 -74 -117.5t-92 -99.5t-102.5 -69t-106.5 -26q-33 0 -65.5 9.5t-59.5 34t-43 65.5t-16 106zM221 256q0 -84 13.5 -111.5t44.5 -27.5t69.5 34.5t76.5 92t74 131.5t63.5 149.5t41.5 149.5q12 65 12 116v15q-18 4 -40.5 8t-47.5 4q-74 0 -130 -47t-96 -125t-60.5 -179 t-20.5 -210z" />
<glyph unicode="r" horiz-adv-x="776" d="M6 758q39 25 92.5 50.5t105.5 47t95 35.5t63 14q16 0 31 -8t15 -29v-16t-5 -21l-71 -272l8 -2q106 188 187 268t163 80q27 0 51.5 -8t34.5 -18q-35 -82 -53 -224h-41q-12 23 -30.5 39.5t-47.5 16.5t-61.5 -23.5t-68.5 -63.5t-71.5 -96.5t-66.5 -119.5q-16 -33 -30.5 -77 t-26 -91t-17.5 -92.5t-6 -79.5q0 -33 6 -60q-49 -6 -99 -14t-108 -25q-35 14 -35 37q0 10 2.5 21.5t4.5 17.5l131 662q4 12 2 21t-10 9q-6 0 -18.5 -5t-28 -11t-31 -11t-25.5 -5q-18 0 -27.5 18t-13.5 35z" />
<glyph unicode="s" horiz-adv-x="733" d="M-35 27q14 55 21.5 111.5t9.5 127.5h29q37 0 49 -11t14 -34q4 -78 51 -123t119 -45q63 0 107.5 35t44.5 105q0 31 -13.5 57t-36 50t-50 45.5t-58.5 43.5q-33 25 -64.5 49.5t-56.5 54t-40 64.5t-15 78q0 66 29.5 116t77.5 84.5t109.5 52t127.5 17.5q129 0 239 -53 q-8 -27 -16 -79t-8 -103l-33 2q-27 0 -35 7t-14 28q-16 51 -47 90t-100 39q-49 0 -89.5 -29t-40.5 -88q0 -61 43 -103.5t99 -83.5q33 -25 67.5 -52t61 -59t44 -70t17.5 -85q0 -68 -30.5 -122t-81 -91t-115 -57.5t-133.5 -20.5q-74 0 -145.5 11.5t-137.5 40.5z" />
<glyph unicode="t" horiz-adv-x="647" d="M23 793q6 39 16 63.5t49 24.5h107l6 30q16 76 16 121q0 33 -6 62q45 6 97 12t114 22q16 -8 24.5 -14t8.5 -20q0 -10 -4 -31l-35 -182h221q-6 -20 -15.5 -54t-13.5 -63q-57 10 -113.5 15t-95.5 7l-110 -610q-2 -10 -3 -17t-1 -14q0 -47 51 -47q29 0 53.5 7.5t46.5 17.5 q16 8 30.5 13t25.5 5q18 0 23 -16t7 -33q-68 -53 -157 -85t-162 -32q-86 0 -119 26t-33 77q0 10 1 20.5t3 20.5l123 674h-155z" />
<glyph unicode="u" horiz-adv-x="1064" d="M0 754q29 18 78 43.5t101 50t100.5 41t72.5 16.5q29 0 46.5 -14t17.5 -49q0 -12 -2 -23.5t-4 -19.5l-111 -525q-8 -35 -12 -59.5t-4 -42.5q0 -41 32 -41q20 0 57.5 32t80.5 83t87 115.5t81 132.5q37 66 62.5 156.5t25.5 162.5q0 31 -7 59q49 6 99.5 14.5t107.5 24.5 q35 -14 35 -37q0 -10 -2 -21t-4 -17l-131 -654q-6 -33 -1 -42t17 -9q25 0 56.5 19.5t50.5 19.5q18 0 22 -15.5t6 -31.5q-39 -25 -86 -51.5t-93 -48t-87 -35t-65 -13.5q-63 0 -64 56q0 16 6 39l70 295l-6 2q-47 -74 -96.5 -144.5t-104.5 -126t-115.5 -88.5t-126.5 -33 q-55 0 -96 26t-41 93q0 25 3 58.5t12 72.5l96 457q6 29 5 42t-17 13q-12 0 -29 -5t-33 -12t-30.5 -12.5t-22.5 -5.5q-16 0 -25.5 17.5t-11.5 34.5z" />
<glyph unicode="v" horiz-adv-x="985" d="M-6 754q29 18 78 43.5t100 50t98 41t72 16.5q29 0 44 -14t15 -49v-25.5t-4 -34.5l-63 -540q-6 -47 -6 -72q0 -29 8 -39t31 -10q33 0 72.5 27.5t78.5 72.5t76 104.5t65.5 121t45 123t16.5 110.5q0 45 -13.5 89t-45.5 75l22 33q66 4 120 13t107 25q18 -55 19 -110 q0 -57 -31 -141t-82 -176.5t-119.5 -184.5t-144.5 -164.5t-155 -118t-150 -45.5q-82 0 -119 32t-37 99q0 27 2 54.5t6 62.5l58 463q4 27 2 39t-15 12q-12 0 -28.5 -5t-32.5 -12t-30.5 -12.5t-22.5 -5.5q-16 0 -25.5 17.5t-11.5 34.5z" />
<glyph unicode="w" horiz-adv-x="1492" d="M-6 754q29 18 78 43.5t100 50t98 41t72 16.5q29 0 44 -14t15 -49v-25.5t-4 -34.5l-63 -540q-6 -43 -6 -68q0 -31 9 -43t30 -12q31 0 69.5 34.5t78.5 89t74 118t54 122.5q33 94 39 172t6 113q0 70 -12 86l18 20q39 4 88 14.5t119 29.5q16 -18 21.5 -38t5.5 -34 q0 -10 -1 -25.5t-3 -32.5l-64 -526q-4 -33 -7 -58.5t-3 -41.5q0 -41 24 -41q33 0 73 27.5t79 72.5t76 104.5t65.5 121t45 123t16.5 110.5q0 45 -13.5 89t-46.5 75l23 33q66 4 120 13t107 25q18 -55 19 -110q0 -57 -30 -140t-80 -175.5t-116.5 -184.5t-140.5 -164.5 t-149.5 -119t-143.5 -46.5q-80 0 -112.5 38t-32.5 106q0 10 4 36.5t8 56.5t9 57.5t8 41.5q-104 -154 -213 -245t-201 -91q-82 0 -119 32t-37 99q0 27 2 54.5t6 62.5l58 463q4 27 2 39t-15 12q-12 0 -28.5 -5t-32.5 -12t-30.5 -12.5t-22.5 -5.5q-16 0 -25.5 17.5t-11.5 34.5z " />
<glyph unicode="x" horiz-adv-x="991" d="M-92 0q14 23 26.5 67t18.5 99l37 14q10 -16 30.5 -31.5t49.5 -15.5q31 0 58.5 11.5t55 37t58 66.5t69.5 100l45 68l-120 303q-4 10 -10.5 22.5t-16.5 12.5q-23 0 -57.5 -17.5t-57.5 -17.5t-27 14.5t-8 30.5q29 23 63 48.5t67.5 46t65.5 33.5t58 13q51 0 74 -26.5 t39 -67.5l90 -231q74 96 129 159.5t99 100.5t82 51t79 14q27 0 50.5 -7t35.5 -17q-14 -23 -26.5 -63t-18.5 -95l-37 -14q-10 16 -30.5 31.5t-49.5 15.5q-31 0 -57.5 -13.5t-54 -40t-60 -67.5t-75.5 -96l-29 -39l135 -338q4 -10 10.5 -22.5t16.5 -12.5q23 0 57.5 17.5 t56.5 17.5q23 0 27 -14.5t8 -30.5q-29 -23 -62.5 -48.5t-67.5 -46t-65.5 -34t-58.5 -13.5q-51 0 -73.5 27t-38.5 68l-103 262q-72 -106 -128 -175t-103 -109t-89 -56.5t-81 -16.5q-27 0 -50.5 7.5t-35.5 17.5z" />
<glyph unicode="y" horiz-adv-x="1050" d="M4 -469q39 92 51 193l51 8q33 -68 90 -113t123 -45q80 0 132.5 70.5t80.5 203.5l111 517l-6 2q-47 -74 -96 -144.5t-104.5 -126t-116 -88.5t-125.5 -33q-55 0 -96.5 26t-41.5 93q0 25 3 58.5t12 72.5l96 457q6 25 6 37q0 18 -18 18q-12 0 -28.5 -5t-33 -12t-31 -12.5 t-22.5 -5.5q-16 0 -25.5 17.5t-11.5 34.5q29 18 78 43.5t101.5 50t100.5 41t72 16.5q29 0 46.5 -14t17.5 -49q0 -12 -2 -23.5t-4 -19.5l-111 -525q-8 -35 -12 -59.5t-4 -42.5q0 -41 32 -41q20 0 57.5 32t80.5 83t87 115.5t81 132.5q37 66 62.5 156.5t25.5 162.5q0 31 -6 59 q49 6 99 14.5t107 24.5q35 -14 35 -37q0 -10 -2 -21t-4 -17l-182 -916q-23 -111 -76 -192.5t-122.5 -136t-148.5 -81t-153 -26.5q-84 0 -144.5 12t-111.5 35z" />
<glyph unicode="z" horiz-adv-x="798" d="M-43 57l545 637q-27 -10 -54.5 -16t-48.5 -6q-45 0 -78.5 7t-59 15t-47 15.5t-44.5 7.5q-18 0 -29.5 -10.5t-31.5 -47.5q-12 -23 -24.5 -35t-53.5 -8l-23 5q8 27 18.5 58.5t19.5 64t16.5 63.5t11.5 55l14 12q55 16 107 17q47 0 89 -8.5t81 -18.5q45 -12 89 -21t81 -9 q63 0 99 10t77 37h32q14 -17 14 -28l-1 -1q0 -10 -13 -27l-573 -659q35 16 68.5 25.5t68.5 9.5q53 0 102.5 -13.5t110.5 -13.5q35 0 56.5 16.5t44.5 63.5q10 20 21 30.5t38 6.5l37 -4q-20 -57 -37.5 -131t-26.5 -123l-20 -21q-35 -16 -65.5 -21t-65.5 -5q-49 0 -96.5 9 t-92.5 19q-47 10 -95 19.5t-103 9.5q-25 0 -57.5 -9t-61.5 -32h-43q-10 14 -10 25q0 13 14 30z" />
<glyph unicode="{" horiz-adv-x="589" d="M8 494l10 71q59 2 99.5 16.5t67 40t41 62.5t24.5 86q16 86 19 176t3 182q0 88 31 144.5t85 90.5t129 46t165 10q-4 -47 -18.5 -59t-59.5 -19q-74 -10 -96.5 -56t-22.5 -126q0 -104 -2 -192t-14 -160q-10 -53 -24.5 -94t-40 -73t-62.5 -57.5t-92 -47.5l-2 -9 q70 -25 96.5 -66.5t26.5 -97.5q0 -76 -33 -195.5t-80 -279.5q-6 -23 -10 -43t-4 -37q0 -47 28.5 -73.5t96.5 -34.5q31 -4 34 -25.5t-6 -44.5q-74 -4 -140.5 3.5t-115.5 25.5t-78.5 52t-29.5 85q0 20 5 47t13 49q31 102 57.5 199.5t43.5 169.5q8 33 10 52.5t2 33.5 q0 61 -35 100t-121 48z" />
<glyph unicode="|" horiz-adv-x="520" d="M184 -492v1926h193v-1926h-193z" />
<glyph unicode="}" horiz-adv-x="626" d="M-113 -373q4 47 18.5 59.5t59.5 18.5q74 10 96.5 56t22.5 126q0 104 2 192.5t14 160.5q8 53 23.5 94t41 72.5t62.5 57t92 48.5l3 8q-70 25 -96.5 67t-26.5 97q0 76 32.5 195.5t79.5 279.5q6 23 10.5 43.5t4.5 36.5q0 47 -29 73.5t-96 35.5q-31 4 -34 25.5t5 43.5 q74 2 140.5 -4t115.5 -24.5t79 -52t30 -85.5q0 -20 -5.5 -46.5t-13.5 -49.5q-31 -102 -57.5 -199.5t-42.5 -169.5q-8 -33 -10 -52t-2 -34q0 -61 34.5 -100t120.5 -47l-10 -72q-59 -2 -99 -16t-67 -40t-42 -62.5t-24 -86.5q-16 -86 -19 -176t-3 -182q0 -88 -30.5 -144.5 t-85 -90t-130.5 -46t-164 -10.5z" />
<glyph unicode="~" horiz-adv-x="1167" d="M86 426q0 25 30.5 60.5t69.5 66.5q41 33 83 52.5t83 19.5q45 0 100.5 -16.5t135.5 -55.5q78 -39 127 -55.5t86 -16.5q41 0 90 31t108 109q20 -12 40 -24.5t32 -28t12 -35t-16 -48.5q-51 -86 -124 -120.5t-128 -34.5q-66 0 -134.5 20.5t-160.5 67.5q-59 29 -98 41t-68 12 q-37 0 -80 -23.5t-112 -99.5q-41 18 -58.5 39t-17.5 39z" />
<glyph unicode="&#xa1;" horiz-adv-x="514" d="M-33 -371q63 176 135 410.5t119 499.5q35 6 54.5 3t28.5 -10.5t10 -18.5t1 -21l-90 -938q-33 -12 -74.5 -20.5t-70.5 -8.5q-76 0 -102.5 29.5t-10.5 74.5zM162 758q0 61 43 104t100 43q72 0 102.5 -37t30.5 -90q0 -59 -41 -104t-102 -45q-66 0 -99.5 38t-33.5 91z" />
<glyph unicode="&#xa2;" horiz-adv-x="880" d="M66 340q0 115 34.5 219.5t97 186t148.5 132t186 56.5l31 156q100 -20 88 -74l-16 -84q49 -6 99 -20.5t104 -39.5q-4 -12 -9.5 -36.5t-9.5 -53t-8 -58.5t-6 -54l-33 2q-23 2 -33 7t-16 26q-18 59 -44 92.5t-61 48.5l-137 -721q35 2 68 12t60.5 22.5t49 25t31.5 20.5 q6 4 12.5 8t16.5 4q20 0 28.5 -17.5t10.5 -33.5q-51 -41 -128 -86t-169 -66l-35 -186q-47 12 -70.5 27.5t-17.5 44.5l20 106q-84 2 -140 31t-90 75t-48 104t-14 124zM301 358q0 -72 18.5 -129t65.5 -84l133 707q-100 -23 -158.5 -153t-58.5 -341z" />
<glyph unicode="&#xa3;" horiz-adv-x="1036" d="M-51 51q0 41 46 84t114 119q35 39 57 72.5t36.5 73.5t19.5 89.5t5 116.5v33h-182q4 53 25.5 75.5t76.5 22.5h80q2 119 37 227.5t96.5 189.5t147.5 129t190 48q70 0 125.5 -15.5t108.5 -43.5q61 -35 61 -68q0 -23 -35.5 -48.5t-78.5 -41.5q-16 -8 -35 -8q-23 0 -34 9 t-24 26q-37 49 -73.5 75.5t-79.5 26.5q-33 0 -60.5 -19.5t-47 -63.5t-31 -117.5t-11.5 -182.5v-123h324q-8 -55 -26.5 -76.5t-73.5 -21.5h-224q-6 -242 -284 -438q63 12 120.5 0.5t129.5 -51.5q41 -25 93 -50.5t93 -25.5q51 0 62.5 24.5t11.5 53.5t-11.5 56.5t-11.5 51.5 q0 18 18.5 37.5t45 35t55.5 26t49 10.5q35 0 52.5 -28t17.5 -62q0 -53 -38 -110.5t-99.5 -107t-139.5 -81t-158 -31.5q-88 0 -136 27.5t-89 62.5q-35 29 -63.5 51.5t-50.5 22.5q-29 0 -52.5 -28t-54.5 -87q-51 2 -72.5 16.5t-21.5 36.5z" />
<glyph unicode="&#xa4;" horiz-adv-x="1177" d="M176 350q0 8 10 23l99 96q-33 47 -51.5 101.5t-18.5 113.5q0 63 20.5 120.5t55.5 104.5l-115 113q29 35 45.5 50t30.5 15q10 0 22 -12l93 -92q47 35 101 53.5t116 18.5q59 0 113.5 -18.5t101.5 -51.5l114 115q35 -27 49.5 -44.5t14.5 -29.5t-10 -22l-93 -93 q37 -47 58.5 -104t21.5 -123q0 -63 -20.5 -118.5t-54.5 -102.5l114 -113q-27 -35 -44 -50t-31 -15q-10 0 -21 10l-94 92q-47 -35 -102.5 -53.5t-116.5 -18.5q-66 0 -122 20.5t-104 55.5l-116 -119q-37 29 -51.5 46.5t-14.5 31.5zM356 711q0 -59 17.5 -111.5t49.5 -91.5 t76 -62.5t95 -23.5q98 0 158.5 63.5t60.5 173.5q0 57 -15.5 109.5t-46 91.5t-78.5 62.5t-114 23.5q-35 0 -70.5 -14t-65.5 -44t-48.5 -74t-18.5 -103z" />
<glyph unicode="&#xa5;" horiz-adv-x="1177" d="M64 1230.5q-5 22.5 4 57.5q74 -8 141 -11t119 -3q43 0 115.5 4t140.5 10q23 -70 -31 -76q-72 -10 -84 -32.5t4 -65.5l158 -397l289 401q29 39 9 64.5t-79 31.5q-31 4 -39 20.5t4 55.5q49 -8 107.5 -11t99.5 -3q35 0 90 2t117 12q14 -43 2 -57t-55 -25q-39 -8 -65 -24.5 t-48 -44.5l-348 -475h305q-6 -57 -25.5 -79t-66.5 -22h-262l-25 -129h332q-6 -57 -25.5 -78.5t-66.5 -21.5h-260l-35 -187q-8 -41 15.5 -59t72.5 -25q33 -4 42 -20t-5 -57q-78 6 -145.5 10t-119.5 4q-20 0 -53 -1t-69.5 -3t-75.5 -5t-72 -5q-4 12 -7 25.5t0 24.5t12 19 t30 13q59 10 91 27.5t40 56.5l35 182h-289q8 53 28.5 76.5t73.5 23.5h207l25 129h-287q8 53 28.5 77t74.5 24h157l-198 477q-10 27 -28.5 43t-62.5 20q-37 4 -42 26.5z" />
<glyph unicode="&#xa6;" horiz-adv-x="516" d="M184 268q0 20 7.5 35.5t28 27t57 18.5t96.5 13v-638q0 -16 -6.5 -32t-25.5 -29t-56 -22.5t-101 -13.5v641zM184 672v641q0 20 7.5 35.5t28 26.5t57 18.5t96.5 13.5v-639q0 -14 -6.5 -29.5t-25.5 -29t-56 -23.5t-101 -14z" />
<glyph unicode="&#xa7;" horiz-adv-x="954" d="M41 -195q0 23 9 44.5t40 21.5q18 0 32.5 -6t31.5 -17q31 -16 68.5 -31.5t96.5 -15.5t88 38t29 98q0 102 -48 195t-103 190q-33 61 -66 123.5t-58.5 128t-42 134t-16.5 142.5q0 106 45.5 203.5t129 172t200.5 119t262 44.5q41 0 57.5 -8.5t22.5 -26.5q6 -20 10.5 -40 t4.5 -40t-9.5 -37.5t-42.5 -17.5q-25 0 -47 10t-46.5 22.5t-54.5 22.5t-71 10q-47 0 -76.5 -31.5t-29.5 -85.5q0 -63 41 -155t92 -193q33 -68 67.5 -140.5t63.5 -146t46 -143.5t17 -131q0 -104 -42 -203.5t-123.5 -178.5t-203.5 -127t-282 -48q-35 0 -53.5 9t-26.5 23.5 t-10 34t-2 37.5zM268 883q0 -59 14.5 -116.5t37 -114t51 -111t57.5 -105.5q25 -45 49.5 -90t45 -94t35.5 -104.5t20 -120.5q18 37 29 78.5t11 95.5q0 57 -15 118.5t-39.5 125t-54 124t-58.5 115.5q-53 100 -90 200.5t-56 188.5q-16 -39 -26.5 -89t-10.5 -101z" />
<glyph unicode="&#xa8;" horiz-adv-x="1024" d="M221 1178q0 59 40 94t83 35q47 0 76 -31t29 -80q0 -57 -36 -93t-83 -36q-49 0 -79 31t-30 80zM586 1178q0 59 40 94t83 35q47 0 75.5 -31t28.5 -80q0 -57 -36 -93t-83 -36q-49 0 -78.5 31t-29.5 80z" />
<glyph unicode="&#xa9;" horiz-adv-x="1413" d="M78 666q0 131 49 245.5t134 199.5t199.5 134t246.5 49q129 0 243.5 -49t200.5 -134t135 -199.5t49 -245.5q0 -129 -49 -244t-135 -201t-200.5 -135t-243.5 -49q-131 0 -246 49t-200 135t-134 201t-49 244zM178 672q0 -109 39 -209.5t109.5 -178t169 -124.5t215.5 -47 q111 0 206 44t165.5 118.5t110.5 174t40 212.5q0 117 -42 218t-114.5 175.5t-169 119t-205.5 44.5q-111 0 -206 -43t-165.5 -118t-111.5 -174.5t-41 -211.5zM332 670q0 63 24.5 128.5t72.5 118t120 86t166 33.5q72 0 122 -7t103 -21q2 -29 9 -78t18 -96q-2 -2 -15.5 -4.5 t-17.5 -2.5q-20 0 -29 19q-29 66 -71.5 88t-98.5 22q-100 0 -157.5 -63.5t-57.5 -198.5q0 -141 59.5 -225t163.5 -84q66 0 107 23.5t72 87.5q8 18 28 18q6 0 19.5 -1t21.5 -5q-14 -43 -27.5 -93t-23.5 -93q-51 -8 -105 -13.5t-120 -5.5q-94 0 -166 27.5t-120 77t-72.5 117 t-24.5 145.5z" />
<glyph unicode="&#xaa;" horiz-adv-x="731" d="M43 670q0 115 43 204t108.5 150t141.5 94t141 33q49 0 102.5 -6t125.5 -21l-93 -460q-2 -10 -2 -17q0 -10 11 -10q18 0 46.5 16.5t41.5 16.5q14 0 22 -15.5t10 -25.5q-23 -14 -56.5 -32.5t-70 -36t-73.5 -30t-66 -12.5q-59 0 -59 49q0 20 8 43l55 131l-8 4 q-66 -117 -140.5 -172t-131.5 -55q-29 0 -57.5 7t-50 24.5t-35 47.5t-13.5 73zM244 700q0 -35 5 -58.5t27 -23.5q31 0 73 47.5t78 118t58.5 150t18.5 147.5q-18 6 -39 6q-49 0 -90 -30.5t-71 -82.5t-45 -123t-15 -151z" />
<glyph unicode="&#xab;" d="M-4 449q-6 27 27 53l339 289q12 10 25.5 19t32.5 9q29 0 43 -20.5t24 -40.5q-66 -72 -124 -144.5t-117 -158.5q12 -47 21 -82t20.5 -69t26 -71.5t36.5 -89.5q-39 -57 -80 -57q-33 0 -57 37zM346 449q-6 27 27 53l340 289q12 10 25.5 19t31.5 9q29 0 43 -20.5t25 -40.5 q-66 -72 -124.5 -144.5t-117.5 -158.5q12 -47 21.5 -82t20.5 -69t25.5 -71.5t36.5 -89.5q-39 -57 -79 -57q-33 0 -58 37z" />
<glyph unicode="&#xac;" horiz-adv-x="1011" d="M4 584q10 74 38 104.5t81 30.5h784v-508q-94 4 -121.5 25.5t-27.5 56.5v291h-754z" />
<glyph unicode="&#xad;" horiz-adv-x="632" d="M23 430q4 78 32.5 111.5t81.5 33.5h430q-6 -80 -32.5 -112.5t-81.5 -32.5h-430z" />
<glyph unicode="&#xae;" d="M123 958q0 78 29.5 147t80 119t119 79.5t146.5 29.5t146.5 -29.5t119.5 -79.5t80.5 -119t29.5 -147t-29.5 -146.5t-80.5 -119.5t-120 -80.5t-146 -29.5q-78 0 -146.5 29.5t-119 80.5t-80 119.5t-29.5 146.5zM197 961q0 -61 22.5 -119t62.5 -102t96 -71.5t122 -27.5 q63 0 117.5 24.5t95.5 67.5t64.5 100.5t23.5 120.5q0 66 -24.5 124.5t-65.5 101.5t-96.5 68.5t-118.5 25.5t-117.5 -24.5t-94.5 -67.5t-63.5 -100.5t-23.5 -120.5zM326 753.5v12.5q0 12 19.5 18.5t19.5 18.5v323q0 6 -6.5 9.5t-13.5 5.5t-13 6t-6 12v11.5t2 13.5 q20 -2 46.5 -3t47.5 -1h76q72 0 120 -30t48 -93q0 -41 -25 -71t-61 -44l108 -156q7 -10 23 -18q-4 -8 -12.5 -17.5t-14.5 -15.5h-18q-29 0 -51.5 13.5t-34.5 29.5l-103 148h-16v-123q0 -12 19.5 -18.5t19.5 -18.5v-12.5t-2 -12.5h-170q-2 4 -2 12.5zM461 983h18 q35 0 58.5 16.5t23.5 57.5q0 76 -84 76h-16v-150z" />
<glyph unicode="&#xaf;" horiz-adv-x="1024" d="M217 1112q8 66 35 94.5t80 28.5h461q-10 -70 -35 -96.5t-78 -26.5h-463z" />
<glyph unicode="&#xb0;" horiz-adv-x="712" d="M102 1063q0 61 24 111.5t62.5 85t91 53t111.5 18.5q51 0 101.5 -18.5t89.5 -52t62.5 -84t23.5 -113.5t-23.5 -113.5t-63.5 -86.5t-90.5 -54t-103.5 -18q-55 0 -106.5 18t-91 53t-63.5 85t-24 116zM250 1079q0 -72 40 -126t101 -54q59 0 95 40t36 105q0 72 -37.5 126.5 t-115.5 54.5q-41 0 -80 -37t-39 -109z" />
<glyph unicode="&#xb1;" horiz-adv-x="1011" d="M59 0q10 72 37 103.5t80 31.5h776q-10 -72 -36.5 -103.5t-79.5 -31.5h-777zM59 600q10 72 37 103.5t80 31.5h250v281q0 14 4 28.5t19.5 25.5t45 18.5t78.5 9.5v-363h379q-10 -72 -36.5 -103.5t-79.5 -31.5h-263v-319q0 -43 -29.5 -58.5t-117.5 -23.5v401h-367z" />
<glyph unicode="&#xb2;" horiz-adv-x="694" d="M68 750l4 47q145 113 235 196.5t139.5 145t65.5 105.5t16 79q0 49 -25.5 69.5t-60.5 20.5q-27 0 -66.5 -11t-88.5 -42q-25 -16 -44.5 -10t-29.5 30q55 49 135 93.5t174 44.5q100 0 156.5 -46.5t56.5 -132.5q0 -63 -36.5 -122.5t-98 -117t-140.5 -111.5t-163 -105h203 q35 0 54 15t36 44q8 18 26 19q10 0 24 -5.5t22 -11.5q-6 -12 -14.5 -31.5t-15.5 -44t-14.5 -49t-13.5 -45.5q-6 -31 -29 -31q-14 0 -25 1t-24.5 2.5t-35 2.5t-56.5 1h-366z" />
<glyph unicode="&#xb3;" horiz-adv-x="694" d="M98 821q0 14 19.5 35t40.5 35q20 14 30 14t19.5 -7t21.5 -17q23 -16 47.5 -35t65.5 -19q47 0 88 44t41 133q0 121 -84 120q-20 0 -58 -9t-91 -32v72q141 51 193 97t52 108q0 29 -16 48t-49 19q-23 0 -53.5 -7t-77.5 -38q-29 -20 -45.5 -16t-30.5 29q55 51 122.5 87 t149.5 36q102 0 147.5 -41t45.5 -97q0 -49 -31 -90t-119 -80v-6q86 -20 122 -64t36 -110q0 -63 -37 -117.5t-95 -93.5t-129 -60.5t-138 -21.5q-41 0 -91.5 13.5t-82.5 44.5q-12 12 -13 26z" />
<glyph unicode="&#xb4;" horiz-adv-x="1024" d="M314 1032q-11 19 16 53l227 293q29 -6 57.5 -15t51 -21.5t37 -29t14.5 -34.5q0 -37 -60 -72q-35 -20 -65.5 -39.5t-64 -44t-73.5 -54.5t-94 -73q-35 18 -46 37z" />
<glyph unicode="&#xb5;" horiz-adv-x="1026" d="M-82 -485q0 23 28.5 171t82.5 416q33 166 55 285t37.5 200t23 125t7.5 58q0 63 -11 84l17 18q43 4 95 16.5t112 29.5q12 -12 16 -29t4 -33q0 -33 -22.5 -122t-51.5 -202l-47 -190q-31 -121 -13.5 -174t58.5 -53q31 0 77 20.5t92 59t83 96t51 129.5q18 92 29.5 152.5 t20 99.5t11.5 61.5t3 36.5q0 63 -10 84l16 18q43 4 95 16.5t112 29.5q12 -12 16 -29t4 -33q0 -33 -21.5 -117t-51.5 -211q-14 -59 -29.5 -117.5t-28 -109.5t-20.5 -90t-8 -59q0 -16 3 -32t25 -16q29 0 59.5 17.5t45.5 17.5q14 0 22 -19.5t8 -31.5q-18 -16 -43.5 -35.5 t-57.5 -36t-67.5 -29t-74.5 -12.5q-23 0 -44.5 6.5t-38 24t-25.5 47t-7 78.5q-66 -63 -127 -109.5t-143 -46.5q-23 0 -45.5 8.5t-34.5 24.5q-16 -61 -26.5 -126.5t-14.5 -126t-6 -111t-4 -82.5q0 -14 1 -22.5t5 -22.5q-49 -4 -103.5 -13.5t-103.5 -25.5q-27 12 -31 22.5 t-4 14.5z" />
<glyph unicode="&#xb6;" horiz-adv-x="849" d="M25 -295q0 14 3 29.5t10 30t20.5 23.5t33.5 9q23 0 41.5 -10t36.5 -21.5t40.5 -21.5t51.5 -10q23 0 50.5 12t53 43t48 84t37.5 135l61 365q-12 -2 -21.5 -2h-21.5q-76 0 -143.5 20.5t-118.5 62.5t-81 105.5t-30 151.5q0 111 37 206t108.5 165.5t177.5 110.5t243 40 q41 0 86 3t81 7q43 4 84 10v-18q0 -12 -4 -29q-4 -12 -13 -20t-44 -12q-37 -4 -52.5 -18.5t-21.5 -45.5l-186 -1032q-23 -129 -69 -213t-106.5 -133t-128 -69.5t-132.5 -20.5q-82 0 -106.5 14t-24.5 49z" />
<glyph unicode="&#xb7;" horiz-adv-x="425" d="M47 467q0 59 41 104t102 45q66 0 100 -37.5t34 -91.5q0 -61 -43 -104t-101 -43q-72 0 -102.5 37t-30.5 90z" />
<glyph unicode="&#xb8;" horiz-adv-x="1024" d="M363.5 -445.5q3.5 17.5 31.5 33.5q53 29 77 48.5t24 46.5q0 20 -11.5 37.5t-26 35t-25.5 36t-11 40.5q0 12 5 24.5t20.5 33t42 50t71.5 76.5h86q-39 -47 -56.5 -73.5t-17.5 -48.5q0 -18 13.5 -37t30 -39.5t29.5 -42t13 -45.5q0 -29 -14 -54.5t-46 -52t-85 -55.5t-131 -62 q-23 31 -19.5 48.5z" />
<glyph unicode="&#xb9;" horiz-adv-x="694" d="M169 790.5q9 14.5 42 18.5q45 6 60.5 21.5t23.5 52.5l84 450q12 61 -66 62q-29 0 -39 6t-10 20q0 4 3 16.5t5 20.5q16 0 41 3t49.5 7.5t48 8.5t38.5 8q41 8 75.5 20.5t65.5 12.5q39 0 39 -31q0 -20 -13.5 -65.5t-19.5 -82.5l-86 -465q-6 -33 8 -48t60 -21 q33 -4 36.5 -18.5t-4.5 -45.5q-27 2 -59.5 4.5t-65 3.5t-63.5 2t-51 1q-12 0 -38 -1t-55.5 -2t-59.5 -3.5t-48 -4.5q-10 35 -1 49.5z" />
<glyph unicode="&#xba;" horiz-adv-x="671" d="M59 754q0 92 35 164.5t90.5 125t122 80t129.5 27.5q61 0 106.5 -19.5t75 -53.5t44 -78t14.5 -93q0 -98 -35 -170.5t-90 -122t-125 -73t-141 -23.5q-121 0 -173.5 67.5t-52.5 168.5zM256 770q0 -86 15.5 -136t56.5 -50q35 0 62.5 23.5t48 64.5t30.5 97t10 122 q0 80 -11 136t-58 56q-37 0 -66 -28.5t-48.5 -73.5t-29.5 -101.5t-10 -109.5z" />
<glyph unicode="&#xbb;" horiz-adv-x="921" d="M0 147q66 72 124.5 145t117.5 159q-12 45 -21.5 80.5t-21 69.5t-25.5 72t-37 89q39 57 80 57q33 0 57 -37l218 -325q4 -14 -2.5 -25.5t-24.5 -28.5l-340 -288q-12 -10 -25.5 -19.5t-31.5 -9.5q-29 0 -43.5 20.5t-24.5 40.5zM369 147q66 72 124 145t117 159 q-12 45 -21 80.5t-20.5 69.5t-26 72t-36.5 89q39 57 80 57q33 0 57 -37l217 -325q4 -14 -2 -25.5t-24 -28.5l-340 -288q-12 -10 -25.5 -19.5t-32.5 -9.5q-29 0 -43 20.5t-24 40.5z" />
<glyph unicode="&#xbc;" horiz-adv-x="1642" d="M67 561q9 14 42 19q45 6 60 21t24 52l83 451q12 61 -65 61q-29 0 -39 6.5t-10 20.5q0 4 3 16.5t5 20.5q16 0 41 3t49.5 7t48 8t37.5 8q41 8 76 20.5t65 12.5q39 0 39 -31q0 -20 -13 -65t-19 -82l-86 -465q-6 -33 8 -48t59 -22q33 -4 37 -18t-4 -45q-27 2 -59.5 4t-65.5 3 t-63.5 2t-51.5 1q-12 0 -37.5 -1t-55.5 -2t-59.5 -3t-47.5 -4q-10 35 -1 49zM260 2l1045 1370q37 51 131 -20l-1033 -1354q-23 -29 -62.5 -28t-80.5 32zM856 223q0 20 25 47l411 435q16 16 33.5 26t42.5 10h133l-90 -473h96l-18 -102h-98l-15 -70q-6 -27 7.5 -37t60.5 -16 q31 -4 37 -15t-4 -46q-66 6 -131.5 8t-100.5 2q-12 0 -39.5 -1t-58.5 -3t-59.5 -4t-47.5 -4q-10 31 -5 45t34 18q47 6 71.5 18.5t30.5 42.5l13 62h-316q-12 45 -12 57zM985 268h217l60 295z" />
<glyph unicode="&#xbd;" horiz-adv-x="1642" d="M22 561q9 14 41 19q45 6 60.5 21t23.5 52l84 451q12 61 -65 61q-29 0 -39 6.5t-10 20.5q0 4 3 16.5t5 20.5q16 0 40.5 3t49.5 7t48.5 8t37.5 8q41 8 76 20.5t65 12.5q39 0 39 -31q0 -20 -13 -65t-19 -82l-87 -465q-6 -33 8.5 -48t59.5 -22q33 -4 37 -18t-4 -45 q-27 2 -59.5 4t-65.5 3t-63.5 2t-51.5 1q-12 0 -37.5 -1t-55.5 -2t-59.5 -3t-47.5 -4q-10 35 -1 49zM186 2l1045 1370q37 51 131 -20l-1032 -1354q-23 -29 -63 -28t-81 32zM819 -10l4 47q145 113 235.5 196.5t139.5 145t65.5 105.5t16.5 79q0 49 -25.5 69.5t-60.5 20.5 q-27 0 -67 -11t-89 -42q-25 -16 -44 -10t-29 31q55 49 135 93t174 44q100 0 156.5 -46t56.5 -132q0 -63 -37 -123t-98.5 -117t-140 -111.5t-162.5 -105.5h202q35 0 54.5 15.5t35.5 43.5q8 18 27 19q10 0 23.5 -5.5t21.5 -11.5q-6 -12 -14 -31.5t-15.5 -44t-14.5 -49 l-13 -45.5q-6 -31 -29 -30q-14 0 -25.5 1t-24.5 2t-34.5 2t-56.5 1h-367z" />
<glyph unicode="&#xbe;" horiz-adv-x="1642" d="M53 592q0 14 19.5 34.5t40.5 35.5q20 14 30 14t19.5 -7t21.5 -18q23 -16 47.5 -34.5t65.5 -18.5q47 0 88 44t41 132q0 121 -84 121q-20 0 -58 -9t-91 -32v72q141 51 193 97t52 107q0 29 -16 48.5t-49 19.5q-23 0 -53.5 -7t-77.5 -38q-29 -20 -45.5 -16t-30.5 28 q55 51 122.5 87t149.5 36q102 0 147.5 -41t45.5 -96q0 -49 -31 -90t-119 -80v-6q86 -20 122 -64.5t36 -109.5q0 -63 -37 -117.5t-95 -93.5t-129 -60.5t-138 -21.5q-41 0 -91.5 13.5t-82.5 43.5q-12 12 -13 27zM268 2l1045 1370q37 51 131 -20l-1032 -1354q-23 -29 -63 -28 t-81 32zM846 223q0 20 24 47l412 435q16 16 33.5 26t42.5 10h133l-90 -473h96l-18 -102h-99l-14 -70q-6 -27 7 -37t61 -16q31 -4 36.5 -15t-4.5 -46q-66 6 -131 8t-100 2q-12 0 -40 -1t-58.5 -3t-59 -4t-47.5 -4q-10 31 -5 45t34 18q47 6 71.5 18.5t30.5 42.5l13 62h-316 q-12 45 -12 57zM975 268h217l59 295z" />
<glyph unicode="&#xbf;" horiz-adv-x="665" d="M-106 -201q0 94 64.5 161t193.5 146q33 20 67.5 41t62 43.5t45 48t17.5 58.5q0 18 -2 34.5t-8 34t-14.5 38t-20.5 51.5q-2 6 -4 15t2 20.5t16 21.5t37 18q86 -98 124 -165.5t38 -122.5q0 -47 -14.5 -82t-47 -69t-84 -70.5t-126.5 -86.5q-35 -23 -72 -43t-65.5 -42.5 t-47 -48t-18.5 -58.5q0 -49 32.5 -68.5t73.5 -19.5q33 0 74 16.5t94 61.5q20 16 33.5 26.5t38.5 10.5q20 0 41.5 -12.5t40 -28t30 -33t11.5 -25.5q0 -14 -9.5 -23t-25.5 -24q-59 -47 -125.5 -73.5t-136.5 -26.5q-80 0 -139.5 27.5t-98.5 68.5t-58 90t-19 90zM254 756 q0 61 43 104t100 43q72 0 102.5 -37t30.5 -90q0 -59 -40.5 -104t-102.5 -45q-66 0 -99.5 37.5t-33.5 91.5z" />
<glyph unicode="&#xc0;" horiz-adv-x="1202" d="M-154 23q0 14 11.5 23t40.5 13q102 18 137 78l649 1190q16 29 45 29q27 0 45 -15l230 -1200q8 -39 37.5 -57t70.5 -23q25 -4 36 -10t11 -28q0 -6 -1 -15.5t-3 -19.5q-53 4 -114.5 8t-131.5 4q-29 0 -63.5 -1t-71.5 -3t-71.5 -5t-63.5 -5q-6 18 -6 34q0 12 8 21.5t31 13.5 q84 12 84 72q0 14 -2 20l-49 295h-390l-157 -288q-8 -14 -8 -31q0 -33 39.5 -49.5t95.5 -24.5q39 -6 39 -29q0 -14 -7 -34q-78 6 -138 10t-113 4q-39 0 -87.5 -2t-123.5 -12q-4 10 -6.5 19t-2.5 18zM367 537h321l-74 469zM436 1657q0 57 133 117l273 -230q35 -29 35 -45 t-41 -47q-55 29 -97.5 50.5t-79 36.5t-71.5 28.5t-78 25.5q-31 10 -52.5 23.5t-21.5 40.5z" />
<glyph unicode="&#xc1;" horiz-adv-x="1202" d="M-154 23q0 14 11.5 23t40.5 13q102 18 137 78l649 1190q16 29 45 29q27 0 45 -15l230 -1200q8 -39 37.5 -57t70.5 -23q25 -4 36 -10t11 -28q0 -6 -1 -15.5t-3 -19.5q-53 4 -114.5 8t-131.5 4q-29 0 -63.5 -1t-71.5 -3t-71.5 -5t-63.5 -5q-6 18 -6 34q0 12 8 21.5t31 13.5 q84 12 84 72q0 14 -2 20l-49 295h-390l-157 -288q-8 -14 -8 -31q0 -33 39.5 -49.5t95.5 -24.5q39 -6 39 -29q0 -14 -7 -34q-78 6 -138 10t-113 4q-39 0 -87.5 -2t-123.5 -12q-4 10 -6.5 19t-2.5 18zM367 537h321l-74 469zM610 1499.5q0 16.5 35 44.5l273 230 q133 -59 133 -117q0 -27 -21.5 -40t-52.5 -24q-43 -12 -78 -25.5t-71.5 -28.5t-78.5 -36.5t-98 -50.5q-41 31 -41 47.5z" />
<glyph unicode="&#xc2;" horiz-adv-x="1202" d="M-154 23q0 14 11.5 23t40.5 13q102 18 137 78l649 1190q16 29 45 29q27 0 45 -15l230 -1200q8 -39 37.5 -57t70.5 -23q25 -4 36 -10t11 -28q0 -6 -1 -15.5t-3 -19.5q-53 4 -114.5 8t-131.5 4q-29 0 -63.5 -1t-71.5 -3t-71.5 -5t-63.5 -5q-6 18 -6 34q0 12 8 21.5t31 13.5 q84 12 84 72q0 14 -2 20l-49 295h-390l-157 -288q-8 -14 -8 -31q0 -33 39.5 -49.5t95.5 -24.5q39 -6 39 -29q0 -14 -7 -34q-78 6 -138 10t-113 4q-39 0 -87.5 -2t-123.5 -12q-4 10 -6.5 19t-2.5 18zM367 537h321l-74 469zM467 1499.5q-4 20.5 25 44.5l258 221q66 0 95 -9 t54 -42l121 -162q31 -41 16.5 -58t-59.5 -40q-63 51 -112.5 84t-88.5 55q-63 -29 -127.5 -63.5t-130.5 -75.5q-47 25 -51 45.5z" />
<glyph unicode="&#xc3;" horiz-adv-x="1202" d="M-154 23q0 14 11.5 23t40.5 13q102 18 137 78l649 1190q16 29 45 29q27 0 45 -15l230 -1200q8 -39 37.5 -57t70.5 -23q25 -4 36 -10t11 -28q0 -6 -1 -15.5t-3 -19.5q-53 4 -114.5 8t-131.5 4q-29 0 -63.5 -1t-71.5 -3t-71.5 -5t-63.5 -5q-6 18 -6 34q0 12 8 21.5t31 13.5 q84 12 84 72q0 14 -2 20l-49 295h-390l-157 -288q-8 -14 -8 -31q0 -33 39.5 -49.5t95.5 -24.5q39 -6 39 -29q0 -14 -7 -34q-78 6 -138 10t-113 4q-39 0 -87.5 -2t-123.5 -12q-4 10 -6.5 19t-2.5 18zM367 537h321l-74 469zM498.5 1480.5q-9.5 14.5 19.5 41.5q72 66 114 94.5 t89 28.5q25 0 47.5 -8.5t45 -19.5t44 -19.5t41.5 -8.5q16 0 44 10.5t79 45.5q27 -12 34 -29t-18 -43q-45 -47 -92 -85t-96 -38q-29 0 -53.5 10t-47 21.5t-46 21.5t-50.5 10t-54.5 -17t-61.5 -46q-29 16 -38.5 30.5z" />
<glyph unicode="&#xc4;" horiz-adv-x="1202" d="M-154 23q0 14 11.5 23t40.5 13q102 18 137 78l649 1190q16 29 45 29q27 0 45 -15l230 -1200q8 -39 37.5 -57t70.5 -23q25 -4 36 -10t11 -28q0 -6 -1 -15.5t-3 -19.5q-53 4 -114.5 8t-131.5 4q-29 0 -63.5 -1t-71.5 -3t-71.5 -5t-63.5 -5q-6 18 -6 34q0 12 8 21.5t31 13.5 q84 12 84 72q0 14 -2 20l-49 295h-390l-157 -288q-8 -14 -8 -31q0 -33 39.5 -49.5t95.5 -24.5q39 -6 39 -29q0 -14 -7 -34q-78 6 -138 10t-113 4q-39 0 -87.5 -2t-123.5 -12q-4 10 -6.5 19t-2.5 18zM367 537h321l-74 469zM477 1563q0 59 40 94t83 35q47 0 76 -31t29 -80 q0 -57 -36 -93t-83 -36q-49 0 -79 31t-30 80zM842 1563q0 59 40 94t83 35q47 0 75.5 -31t28.5 -80q0 -57 -36 -93t-83 -36q-49 0 -78.5 31t-29.5 80z" />
<glyph unicode="&#xc5;" horiz-adv-x="1202" d="M-154 23q0 14 11.5 23t40.5 13q102 18 137 78l649 1190q16 29 45 29q27 0 45 -15l230 -1200q8 -39 37.5 -57t70.5 -23q25 -4 36 -10t11 -28q0 -6 -1 -15.5t-3 -19.5q-53 4 -114.5 8t-131.5 4q-29 0 -63.5 -1t-71.5 -3t-71.5 -5t-63.5 -5q-6 18 -6 34q0 12 8 21.5t31 13.5 q84 12 84 72q0 14 -2 20l-49 295h-390l-157 -288q-8 -14 -8 -31q0 -33 39.5 -49.5t95.5 -24.5q39 -6 39 -29q0 -14 -7 -34q-78 6 -138 10t-113 4q-39 0 -87.5 -2t-123.5 -12q-4 10 -6.5 19t-2.5 18zM367 537h321l-74 469zM584 1606q0 39 17 74.5t46 61t69 41t85 15.5 q49 0 81.5 -13t52 -34.5t29 -49.5t9.5 -54q0 -49 -18.5 -87t-48 -66t-66.5 -42t-74 -14q-96 0 -139 48t-43 120zM717 1585q0 -41 14 -59.5t37 -18.5q33 0 52.5 39t19.5 105q0 78 -52 78q-35 0 -53 -41t-18 -103z" />
<glyph unicode="&#xc6;" horiz-adv-x="1732" d="M-150 36q5 13 48 23q47 10 87 37t87 99l647 970q18 27 18 56q0 45 -90 53q-35 4 -38 22.5t5 46.5q154 -12 248 -12h596q80 0 122 6t67 6t33 -8t8 -30q0 -66 10 -129.5t24 -126.5q-10 -8 -27.5 -13.5t-31.5 -5.5q-23 0 -33 9.5t-14 23.5q-29 98 -78 140t-133 42h-227 l-105 -553h238q47 0 67.5 29t34.5 78q4 12 11.5 22t23.5 10t32.5 -5t28.5 -9q-12 -47 -21 -87t-16.5 -81t-12.5 -88t-9 -106q-20 -10 -53 -11q-29 0 -35 12.5t-4 26.5q6 51 -7.5 85t-62.5 34h-231l-90 -467q-4 -29 3 -38t36 -9h221q74 0 144.5 41t148.5 150q10 16 18 24 t25 8q18 0 35.5 -11t29.5 -24l-20 -40q-10 -20 -22.5 -46t-24.5 -61q-16 -41 -23.5 -72.5t-15.5 -48.5q-6 -14 -13.5 -17t-17.5 -3q-23 0 -40 2t-37.5 4t-46.5 4t-62 2h-480q-41 0 -112.5 -4t-139.5 -10q-6 12 -8 25.5t1 23.5t14.5 18t33.5 10q59 6 82 27t29 55l86 455h-344 l-279 -422q-20 -29 -20 -53q0 -29 28.5 -41t77.5 -18q39 -4 53.5 -20.5t2.5 -57.5q-154 12 -256 12q-39 0 -97.5 -3t-117.5 -9q-14 35 -9 48zM526 692h303l109 553q-29 -2 -48.5 -14t-43.5 -49z" />
<glyph unicode="&#xc7;" horiz-adv-x="1267" d="M41 526q0 145 51 294t152.5 267.5t255 193.5t360.5 75q106 0 206.5 -18.5t197.5 -49.5q-6 -59 -7 -119q0 -43 3.5 -81.5t7.5 -73.5q-18 -18 -56 -19q-45 0 -51 41q-27 129 -111.5 182.5t-203.5 53.5q-127 0 -226.5 -59.5t-168 -159t-105.5 -231.5t-37 -279 q0 -109 26.5 -197t76 -150.5t120 -96t156.5 -33.5q123 0 209 57t145 186q10 18 22.5 27.5t39.5 9.5q20 0 38.5 -9t24.5 -15q-27 -53 -53.5 -131.5t-44.5 -170.5q-47 -8 -99 -16t-104.5 -14t-99.5 -10.5t-84 -4.5q-39 -51 -39 -81q0 -18 13.5 -37t29.5 -39.5t29.5 -42 t13.5 -45.5q0 -29 -14.5 -54.5t-46 -52t-85 -55.5t-130.5 -62q-23 31 -20 48.5t32 33.5q53 29 76.5 48.5t23.5 46.5q0 20 -11 37.5t-25.5 35t-25.5 36t-11 40.5q0 10 4 21.5t15 28t30.5 39t52.5 56.5q-150 8 -254 55.5t-171 121t-97.5 169t-30.5 203.5z" />
<glyph unicode="&#xc8;" horiz-adv-x="1157" d="M-12 23q0 16 11 26t40 14q59 6 81.5 27t29.5 55l200 1045q8 37 -11.5 54.5t-74.5 23.5q-45 6 -45 41q0 14 6 37q78 -6 151 -10.5t124 -4.5h383q80 0 122 6t66 6q25 0 33 -8t8 -30q0 -66 10.5 -129.5t24.5 -126.5q-10 -8 -27.5 -13.5t-32.5 -5.5q-23 0 -33 9.5t-14 23.5 q-29 98 -78 140t-133 42h-227l-98 -520h237q47 0 67.5 28.5t35.5 77.5q4 12 11 22.5t24 10.5q16 0 32.5 -5t28.5 -9q-12 -47 -21.5 -87t-16.5 -81t-12 -88t-9 -107q-20 -10 -54 -10q-29 0 -35 12.5t-4 26.5q6 51 -7 85t-62 34h-232l-96 -500q-4 -29 3 -38t36 -9h221 q74 0 144.5 41t148.5 150q10 16 18.5 24t24.5 8q18 0 35.5 -11t30.5 -24l-21 -40q-10 -20 -22.5 -46t-24.5 -61q-16 -41 -23.5 -72.5t-15.5 -48.5q-6 -14 -13 -17t-18 -3q-23 0 -40 2t-37.5 4t-46 4t-62.5 2h-479q-41 0 -112.5 -4t-139.5 -10q-10 20 -10 37zM471 1657 q0 57 133 117l273 -230q35 -29 34.5 -45t-41.5 -47q-55 29 -97 50.5t-79 36.5t-71.5 28.5t-77.5 25.5q-31 10 -52.5 23.5t-21.5 40.5z" />
<glyph unicode="&#xc9;" horiz-adv-x="1157" d="M-12 23q0 16 11 26t40 14q59 6 81.5 27t29.5 55l200 1045q8 37 -11.5 54.5t-74.5 23.5q-45 6 -45 41q0 14 6 37q78 -6 151 -10.5t124 -4.5h383q80 0 122 6t66 6q25 0 33 -8t8 -30q0 -66 10.5 -129.5t24.5 -126.5q-10 -8 -27.5 -13.5t-32.5 -5.5q-23 0 -33 9.5t-14 23.5 q-29 98 -78 140t-133 42h-227l-98 -520h237q47 0 67.5 28.5t35.5 77.5q4 12 11 22.5t24 10.5q16 0 32.5 -5t28.5 -9q-12 -47 -21.5 -87t-16.5 -81t-12 -88t-9 -107q-20 -10 -54 -10q-29 0 -35 12.5t-4 26.5q6 51 -7 85t-62 34h-232l-96 -500q-4 -29 3 -38t36 -9h221 q74 0 144.5 41t148.5 150q10 16 18.5 24t24.5 8q18 0 35.5 -11t30.5 -24l-21 -40q-10 -20 -22.5 -46t-24.5 -61q-16 -41 -23.5 -72.5t-15.5 -48.5q-6 -14 -13 -17t-18 -3q-23 0 -40 2t-37.5 4t-46 4t-62.5 2h-479q-41 0 -112.5 -4t-139.5 -10q-10 20 -10 37zM580 1499.5 q0 16.5 34 44.5l273 230q133 -59 133 -117q0 -27 -21.5 -40t-52.5 -24q-43 -12 -77.5 -25.5t-71.5 -28.5t-79 -36.5t-97 -50.5q-41 31 -41 47.5z" />
<glyph unicode="&#xca;" horiz-adv-x="1157" d="M-12 23q0 16 11 26t40 14q59 6 81.5 27t29.5 55l200 1045q8 37 -11.5 54.5t-74.5 23.5q-45 6 -45 41q0 14 6 37q78 -6 151 -10.5t124 -4.5h383q80 0 122 6t66 6q25 0 33 -8t8 -30q0 -66 10.5 -129.5t24.5 -126.5q-10 -8 -27.5 -13.5t-32.5 -5.5q-23 0 -33 9.5t-14 23.5 q-29 98 -78 140t-133 42h-227l-98 -520h237q47 0 67.5 28.5t35.5 77.5q4 12 11 22.5t24 10.5q16 0 32.5 -5t28.5 -9q-12 -47 -21.5 -87t-16.5 -81t-12 -88t-9 -107q-20 -10 -54 -10q-29 0 -35 12.5t-4 26.5q6 51 -7 85t-62 34h-232l-96 -500q-4 -29 3 -38t36 -9h221 q74 0 144.5 41t148.5 150q10 16 18.5 24t24.5 8q18 0 35.5 -11t30.5 -24l-21 -40q-10 -20 -22.5 -46t-24.5 -61q-16 -41 -23.5 -72.5t-15.5 -48.5q-6 -14 -13 -17t-18 -3q-23 0 -40 2t-37.5 4t-46 4t-62.5 2h-479q-41 0 -112.5 -4t-139.5 -10q-10 20 -10 37zM450.5 1499.5 q-4.5 20.5 24.5 44.5l258 221q66 0 95.5 -9t54.5 -42l121 -162q31 -41 16.5 -58t-59.5 -40q-63 51 -112.5 84t-88.5 55q-63 -29 -128 -63.5t-130 -75.5q-47 25 -51.5 45.5z" />
<glyph unicode="&#xcb;" horiz-adv-x="1157" d="M-12 23q0 16 11 26t40 14q59 6 81.5 27t29.5 55l200 1045q8 37 -11.5 54.5t-74.5 23.5q-45 6 -45 41q0 14 6 37q78 -6 151 -10.5t124 -4.5h383q80 0 122 6t66 6q25 0 33 -8t8 -30q0 -66 10.5 -129.5t24.5 -126.5q-10 -8 -27.5 -13.5t-32.5 -5.5q-23 0 -33 9.5t-14 23.5 q-29 98 -78 140t-133 42h-227l-98 -520h237q47 0 67.5 28.5t35.5 77.5q4 12 11 22.5t24 10.5q16 0 32.5 -5t28.5 -9q-12 -47 -21.5 -87t-16.5 -81t-12 -88t-9 -107q-20 -10 -54 -10q-29 0 -35 12.5t-4 26.5q6 51 -7 85t-62 34h-232l-96 -500q-4 -29 3 -38t36 -9h221 q74 0 144.5 41t148.5 150q10 16 18.5 24t24.5 8q18 0 35.5 -11t30.5 -24l-21 -40q-10 -20 -22.5 -46t-24.5 -61q-16 -41 -23.5 -72.5t-15.5 -48.5q-6 -14 -13 -17t-18 -3q-23 0 -40 2t-37.5 4t-46 4t-62.5 2h-479q-41 0 -112.5 -4t-139.5 -10q-10 20 -10 37zM457 1563 q0 59 40 94t83 35q47 0 75.5 -31t28.5 -80q0 -57 -36 -93t-83 -36q-49 0 -78.5 31t-29.5 80zM821 1563q0 59 40 94t83 35q47 0 76 -31t29 -80q0 -57 -36 -93t-83 -36q-49 0 -79 31t-30 80z" />
<glyph unicode="&#xcc;" horiz-adv-x="757" d="M6 23q0 16 7 24t30 12q53 8 80 27.5t35 58.5l200 1043q8 37 -7 57.5t-75 26.5q-45 6 -45 33q0 14 11 41q76 -6 141.5 -10.5t112.5 -4.5q41 0 114.5 3t145.5 12q6 -23 6 -39t-9.5 -24.5t-37.5 -12.5q-57 -8 -81 -26.5t-32 -59.5l-196 -1043q-8 -41 12 -56t76 -26 q39 -8 38 -36q0 -16 -6 -37q-76 6 -149.5 10t-120.5 4q-41 0 -107.5 -4t-136.5 -10q-6 20 -6 37zM285 1657q0 57 133 117l272 -230q35 -29 35 -45t-41 -47q-55 29 -97 50.5t-79 36.5t-72 28.5t-78 25.5q-31 10 -52 23.5t-21 40.5z" />
<glyph unicode="&#xcd;" horiz-adv-x="757" d="M6 23q0 16 7 24t30 12q53 8 80 27.5t35 58.5l200 1043q8 37 -7 57.5t-75 26.5q-45 6 -45 33q0 14 11 41q76 -6 141.5 -10.5t112.5 -4.5q41 0 114.5 3t145.5 12q6 -23 6 -39t-9.5 -24.5t-37.5 -12.5q-57 -8 -81 -26.5t-32 -59.5l-196 -1043q-8 -41 12 -56t76 -26 q39 -8 38 -36q0 -16 -6 -37q-76 6 -149.5 10t-120.5 4q-41 0 -107.5 -4t-136.5 -10q-6 20 -6 37zM340 1499.5q0 16.5 35 44.5l272 230q133 -59 133 -117q0 -27 -21.5 -40t-51.5 -24q-43 -12 -78 -25.5t-72 -28.5t-79 -36.5t-97 -50.5q-41 31 -41 47.5z" />
<glyph unicode="&#xce;" horiz-adv-x="757" d="M6 23q0 16 7 24t30 12q53 8 80 27.5t35 58.5l200 1043q8 37 -7 57.5t-75 26.5q-45 6 -45 33q0 14 11 41q76 -6 141.5 -10.5t112.5 -4.5q41 0 114.5 3t145.5 12q6 -23 6 -39t-9.5 -24.5t-37.5 -12.5q-57 -8 -81 -26.5t-32 -59.5l-196 -1043q-8 -41 12 -56t76 -26 q39 -8 38 -36q0 -16 -6 -37q-76 6 -149.5 10t-120.5 4q-41 0 -107.5 -4t-136.5 -10q-6 20 -6 37zM237.5 1499.5q-4.5 20.5 24.5 44.5l258 221q66 0 95.5 -9t54.5 -42l121 -162q31 -41 16.5 -58t-59.5 -40q-63 51 -112.5 84t-88.5 55q-63 -29 -128 -63.5t-130 -75.5 q-47 25 -51.5 45.5z" />
<glyph unicode="&#xcf;" horiz-adv-x="757" d="M6 23q0 16 7 24t30 12q53 8 80 27.5t35 58.5l200 1043q8 37 -7 57.5t-75 26.5q-45 6 -45 33q0 14 11 41q76 -6 141.5 -10.5t112.5 -4.5q41 0 114.5 3t145.5 12q6 -23 6 -39t-9.5 -24.5t-37.5 -12.5q-57 -8 -81 -26.5t-32 -59.5l-196 -1043q-8 -41 12 -56t76 -26 q39 -8 38 -36q0 -16 -6 -37q-76 6 -149.5 10t-120.5 4q-41 0 -107.5 -4t-136.5 -10q-6 20 -6 37zM248 1563q0 59 40 94t83 35q47 0 75.5 -31t28.5 -80q0 -57 -36 -93t-83 -36q-49 0 -78.5 31t-29.5 80zM612 1563q0 59 40 94t83 35q47 0 76 -31t29 -80q0 -57 -36 -93t-83 -36 q-49 0 -79 31t-30 80z" />
<glyph unicode="&#xd0;" horiz-adv-x="1523" d="M20 23q0 12 6.5 22t26.5 14q63 10 92 27.5t37 58.5l92 488h-200q8 55 27.5 79.5t68.5 24.5h125l88 453q6 35 -14.5 55.5t-81.5 24.5q-37 2 -37 30q0 10 2 20.5t6 25.5q76 -6 144.5 -10.5t117.5 -4.5h283q145 0 269 -34.5t214 -104.5t140.5 -175.5t50.5 -246.5 q0 -172 -68 -313.5t-186.5 -242.5t-279.5 -157.5t-347 -56.5h-305q-43 0 -119 -4t-145 -10q-2 8 -4.5 17t-2.5 20zM428 147q-6 -35 1 -47t36 -12h88q131 0 249 37t208 115.5t143 205t53 304.5q0 133 -32.5 227t-97 153.5t-158 87t-211.5 27.5h-72l-96 -508h356 q-6 -55 -26.5 -79.5t-71.5 -24.5h-279z" />
<glyph unicode="&#xd1;" horiz-adv-x="1454" d="M-8 23q0 14 9 22t34 12q47 8 77.5 31t37.5 57l200 1045q4 27 -7 49.5t-62 32.5q-41 8 -41 33q0 8 2 17t6 24q53 -8 110.5 -11.5t114.5 -3.5q37 0 54.5 -9t29.5 -32l490 -960l159 846q6 35 -16.5 60.5t-93.5 35.5q-31 4 -42.5 12t-11.5 25q0 12 7 37q76 -6 128 -10.5 t91 -4.5q35 0 85 3t115 12q4 -10 6.5 -19.5t2.5 -17.5q0 -14 -9.5 -22.5t-33.5 -12.5q-47 -8 -78 -30.5t-37 -57.5l-227 -1192q-16 -8 -30.5 -13.5t-33.5 -5.5q-27 0 -38 9.5t-27 38.5l-537 1009l-164 -876q-6 -35 16.5 -60.5t94.5 -36.5q31 -4 42 -12t11 -24q0 -12 -6 -37 q-76 6 -128 10t-91 4q-35 0 -85 -3t-116 -11q-4 10 -6 19t-2 18zM629.5 1480.5q-9.5 14.5 19.5 41.5q72 66 114 94.5t89 28.5q25 0 47.5 -8.5t45 -19.5t44 -19.5t41.5 -8.5q16 0 44 10.5t79 45.5q27 -12 34 -29t-18 -43q-45 -47 -92 -85t-96 -38q-29 0 -53.5 10t-47 21.5 t-46 21.5t-50.5 10t-54.5 -17t-61.5 -46q-29 16 -38.5 30.5z" />
<glyph unicode="&#xd2;" horiz-adv-x="1368" d="M33 526q0 164 56 314.5t156.5 265.5t237.5 182.5t301 67.5q131 0 231.5 -42t168 -115t102.5 -172t35 -214q0 -186 -59.5 -340t-163 -264.5t-244.5 -172t-305 -61.5q-127 0 -223.5 45.5t-162 121t-98 176t-32.5 208.5zM297 524q0 -215 72.5 -335.5t230.5 -120.5 q119 0 205 63.5t142.5 165.5t83 230t26.5 259q0 225 -74 351.5t-213 126.5q-123 0 -212 -62.5t-147.5 -165t-86 -235.5t-27.5 -277zM555 1657q0 57 133 117l273 -230q35 -29 34.5 -45t-41.5 -47q-55 29 -97 50.5t-79 36.5t-71.5 28.5t-77.5 25.5q-31 10 -52.5 23.5 t-21.5 40.5z" />
<glyph unicode="&#xd3;" horiz-adv-x="1368" d="M33 526q0 164 56 314.5t156.5 265.5t237.5 182.5t301 67.5q131 0 231.5 -42t168 -115t102.5 -172t35 -214q0 -186 -59.5 -340t-163 -264.5t-244.5 -172t-305 -61.5q-127 0 -223.5 45.5t-162 121t-98 176t-32.5 208.5zM297 524q0 -215 72.5 -335.5t230.5 -120.5 q119 0 205 63.5t142.5 165.5t83 230t26.5 259q0 225 -74 351.5t-213 126.5q-123 0 -212 -62.5t-147.5 -165t-86 -235.5t-27.5 -277zM623 1499.5q0 16.5 34 44.5l273 230q133 -59 133 -117q0 -27 -21.5 -40t-52.5 -24q-43 -12 -77.5 -25.5t-71.5 -28.5t-79 -36.5t-97 -50.5 q-41 31 -41 47.5z" />
<glyph unicode="&#xd4;" horiz-adv-x="1368" d="M33 526q0 164 56 314.5t156.5 265.5t237.5 182.5t301 67.5q131 0 231.5 -42t168 -115t102.5 -172t35 -214q0 -186 -59.5 -340t-163 -264.5t-244.5 -172t-305 -61.5q-127 0 -223.5 45.5t-162 121t-98 176t-32.5 208.5zM297 524q0 -215 72.5 -335.5t230.5 -120.5 q119 0 205 63.5t142.5 165.5t83 230t26.5 259q0 225 -74 351.5t-213 126.5q-123 0 -212 -62.5t-147.5 -165t-86 -235.5t-27.5 -277zM532.5 1499.5q-4.5 20.5 24.5 44.5l258 221q66 0 95.5 -9t54.5 -42l120 -162q31 -41 16.5 -58t-59.5 -40q-63 51 -112 84t-88 55 q-63 -29 -128 -63.5t-130 -75.5q-47 25 -51.5 45.5z" />
<glyph unicode="&#xd5;" horiz-adv-x="1368" d="M33 526q0 164 56 314.5t156.5 265.5t237.5 182.5t301 67.5q131 0 231.5 -42t168 -115t102.5 -172t35 -214q0 -186 -59.5 -340t-163 -264.5t-244.5 -172t-305 -61.5q-127 0 -223.5 45.5t-162 121t-98 176t-32.5 208.5zM297 524q0 -215 72.5 -335.5t230.5 -120.5 q119 0 205 63.5t142.5 165.5t83 230t26.5 259q0 225 -74 351.5t-213 126.5q-123 0 -212 -62.5t-147.5 -165t-86 -235.5t-27.5 -277zM551.5 1480.5q-9.5 14.5 19.5 41.5q72 66 114 94.5t89 28.5q25 0 47.5 -8.5t45 -19.5t44 -19.5t41.5 -8.5q16 0 44 10.5t79 45.5 q27 -12 34 -29t-17 -43q-45 -47 -92.5 -85t-96.5 -38q-29 0 -53.5 10t-47 21.5t-46 21.5t-49.5 10q-27 0 -54.5 -17t-62.5 -46q-29 16 -38.5 30.5z" />
<glyph unicode="&#xd6;" horiz-adv-x="1368" d="M33 526q0 164 56 314.5t156.5 265.5t237.5 182.5t301 67.5q131 0 231.5 -42t168 -115t102.5 -172t35 -214q0 -186 -59.5 -340t-163 -264.5t-244.5 -172t-305 -61.5q-127 0 -223.5 45.5t-162 121t-98 176t-32.5 208.5zM297 524q0 -215 72.5 -335.5t230.5 -120.5 q119 0 205 63.5t142.5 165.5t83 230t26.5 259q0 225 -74 351.5t-213 126.5q-123 0 -212 -62.5t-147.5 -165t-86 -235.5t-27.5 -277zM543 1563q0 59 40 94t83 35q47 0 75.5 -31t28.5 -80q0 -57 -36 -93t-83 -36q-49 0 -78.5 31t-29.5 80zM907 1563q0 59 40 94t83 35 q47 0 76 -31t29 -80q0 -57 -36 -93t-83 -36q-49 0 -79 31t-30 80z" />
<glyph unicode="&#xd7;" horiz-adv-x="1011" d="M61.5 116q-6.5 34 16.5 56l284 283l-268 264q-12 12 -17 25.5t0 32t21.5 45t46.5 65.5l324 -326l330 330q31 -39 46 -65.5t19 -46t-2 -33t-18 -25.5l-269 -268l283 -283q27 -23 20.5 -56.5t-63.5 -109.5l-346 342l-342 -342q-59 78 -65.5 112z" />
<glyph unicode="&#xd8;" horiz-adv-x="1368" d="M33 526q0 164 56 314.5t156.5 265.5t237.5 182.5t301 67.5q61 0 116.5 -10.5t105.5 -28.5l94 156q35 -23 52 -40.5t23.5 -33t3.5 -27.5t-12 -24l-53 -88q102 -72 154.5 -189t52.5 -258q0 -186 -59.5 -340t-163 -264.5t-244.5 -172t-305 -61.5q-111 0 -199 35l-92 -151 q-66 43 -75 69.5t7 53.5l54 86q-104 78 -157.5 198.5t-53.5 259.5zM297 524q0 -182 47 -291l590 967q-70 63 -164 64q-123 0 -212 -62.5t-147.5 -165t-86 -236t-27.5 -276.5zM422 127q69 -59 178 -59q119 0 205 63.5t142.5 165.5t83 230t26.5 259q0 92 -13.5 166t-35.5 133z " />
<glyph unicode="&#xd9;" horiz-adv-x="1495" d="M188 352q0 27 2.5 53.5t8.5 55.5l139 721q8 37 -9.5 58.5t-76.5 27.5q-45 6 -45 37q0 14 10 41q78 -8 142.5 -11.5t113.5 -3.5q20 0 52 1t68 2t72.5 4t71.5 8q2 -10 3 -18.5t1 -16.5q0 -20 -11 -30.5t-46 -14.5q-59 -8 -76.5 -25.5t-25.5 -54.5l-142 -711 q-16 -82 -16 -141q0 -123 67.5 -187.5t229.5 -64.5q147 0 250.5 88t142.5 291l135 708q6 35 -12 65t-72 38q-31 4 -42 12t-11 25q0 12 6 37q76 -6 115 -10.5t78 -4.5q35 0 79 1t109 9q4 -10 6 -19t2 -17q0 -14 -9 -22.5t-34 -12.5q-90 -14 -102 -84l-139 -731 q-25 -109 -66 -197t-107.5 -150.5t-161.5 -97.5t-226 -35q-223 0 -348.5 97.5t-125.5 279.5zM655 1657q0 57 133 117l273 -230q35 -29 35 -45t-41 -47q-55 29 -97.5 50.5t-79 36.5t-71.5 28.5t-78 25.5q-31 10 -52.5 23.5t-21.5 40.5z" />
<glyph unicode="&#xda;" horiz-adv-x="1495" d="M188 352q0 27 2.5 53.5t8.5 55.5l139 721q8 37 -9.5 58.5t-76.5 27.5q-45 6 -45 37q0 14 10 41q78 -8 142.5 -11.5t113.5 -3.5q20 0 52 1t68 2t72.5 4t71.5 8q2 -10 3 -18.5t1 -16.5q0 -20 -11 -30.5t-46 -14.5q-59 -8 -76.5 -25.5t-25.5 -54.5l-142 -711 q-16 -82 -16 -141q0 -123 67.5 -187.5t229.5 -64.5q147 0 250.5 88t142.5 291l135 708q6 35 -12 65t-72 38q-31 4 -42 12t-11 25q0 12 6 37q76 -6 115 -10.5t78 -4.5q35 0 79 1t109 9q4 -10 6 -19t2 -17q0 -14 -9 -22.5t-34 -12.5q-90 -14 -102 -84l-139 -731 q-25 -109 -66 -197t-107.5 -150.5t-161.5 -97.5t-226 -35q-223 0 -348.5 97.5t-125.5 279.5zM772 1499.5q0 16.5 35 44.5l272 230q133 -59 133 -117q0 -27 -21.5 -40t-51.5 -24q-43 -12 -78 -25.5t-72 -28.5t-79 -36.5t-97 -50.5q-41 31 -41 47.5z" />
<glyph unicode="&#xdb;" horiz-adv-x="1495" d="M188 352q0 27 2.5 53.5t8.5 55.5l139 721q8 37 -9.5 58.5t-76.5 27.5q-45 6 -45 37q0 14 10 41q78 -8 142.5 -11.5t113.5 -3.5q20 0 52 1t68 2t72.5 4t71.5 8q2 -10 3 -18.5t1 -16.5q0 -20 -11 -30.5t-46 -14.5q-59 -8 -76.5 -25.5t-25.5 -54.5l-142 -711 q-16 -82 -16 -141q0 -123 67.5 -187.5t229.5 -64.5q147 0 250.5 88t142.5 291l135 708q6 35 -12 65t-72 38q-31 4 -42 12t-11 25q0 12 6 37q76 -6 115 -10.5t78 -4.5q35 0 79 1t109 9q4 -10 6 -19t2 -17q0 -14 -9 -22.5t-34 -12.5q-90 -14 -102 -84l-139 -731 q-25 -109 -66 -197t-107.5 -150.5t-161.5 -97.5t-226 -35q-223 0 -348.5 97.5t-125.5 279.5zM663.5 1499.5q-4.5 20.5 24.5 44.5l258 221q66 0 95.5 -9t54.5 -42l121 -162q31 -41 16.5 -58t-59.5 -40q-63 51 -112.5 84t-88.5 55q-63 -29 -128 -63.5t-130 -75.5 q-47 25 -51.5 45.5z" />
<glyph unicode="&#xdc;" horiz-adv-x="1495" d="M188 352q0 27 2.5 53.5t8.5 55.5l139 721q8 37 -9.5 58.5t-76.5 27.5q-45 6 -45 37q0 14 10 41q78 -8 142.5 -11.5t113.5 -3.5q20 0 52 1t68 2t72.5 4t71.5 8q2 -10 3 -18.5t1 -16.5q0 -20 -11 -30.5t-46 -14.5q-59 -8 -76.5 -25.5t-25.5 -54.5l-142 -711 q-16 -82 -16 -141q0 -123 67.5 -187.5t229.5 -64.5q147 0 250.5 88t142.5 291l135 708q6 35 -12 65t-72 38q-31 4 -42 12t-11 25q0 12 6 37q76 -6 115 -10.5t78 -4.5q35 0 79 1t109 9q4 -10 6 -19t2 -17q0 -14 -9 -22.5t-34 -12.5q-90 -14 -102 -84l-139 -731 q-25 -109 -66 -197t-107.5 -150.5t-161.5 -97.5t-226 -35q-223 0 -348.5 97.5t-125.5 279.5zM664 1563q0 59 39.5 94t82.5 35q47 0 76 -31t29 -80q0 -57 -36 -93t-83 -36q-49 0 -78.5 31t-29.5 80zM1028 1563q0 59 40 94t83 35q47 0 75.5 -31t28.5 -80q0 -57 -35.5 -93 t-82.5 -36q-49 0 -79 31t-30 80z" />
<glyph unicode="&#xdd;" horiz-adv-x="1142" d="M76 1305q0 16 6 38q74 -8 141.5 -11t118.5 -3q43 0 115.5 4t140.5 10q8 -23 8 -38q0 -35 -39 -37q-72 -10 -84 -33t4 -66l156 -469l348 474q25 35 5.5 63.5t-74.5 32.5q-43 2 -43 37q0 8 2 17t6 22q49 -8 107.5 -11.5t99.5 -3.5q35 0 88 3t118 12q4 -12 6.5 -20.5 t2.5 -16.5q0 -20 -15.5 -29.5t-46.5 -15.5q-39 -8 -64.5 -24.5t-47.5 -45.5l-439 -584l-90 -463q-8 -41 15.5 -59t72.5 -25q23 -4 34 -11t11 -25t-8 -41q-78 6 -151.5 10t-124.5 4q-20 0 -53 -1t-70 -3t-76 -5t-72 -5q-4 10 -6 18t-2 19q0 14 9.5 24t33.5 14q115 18 131 91 l86 436l-225 608q-10 27 -28.5 43t-61.5 21q-25 2 -35 14t-10 31zM598 1499.5q0 16.5 35 44.5l272 230q133 -59 133 -117q0 -27 -21.5 -40t-51.5 -24q-43 -12 -78 -25.5t-72 -28.5t-79 -36.5t-97 -50.5q-41 31 -41 47.5z" />
<glyph unicode="&#xde;" horiz-adv-x="1126" d="M0 35q4 20 37 24q53 8 79.5 27.5t35.5 58.5l200 1043q8 37 -7 57.5t-75 26.5q-41 4 -44 22.5t10 51.5q76 -6 141 -10.5t112 -4.5q41 0 115 3t146 12q10 -35 5 -52.5t-46 -23.5q-57 -8 -81 -26.5t-32 -59.5l-25 -127h62q215 0 333.5 -84t118.5 -244q0 -96 -38.5 -178 t-110.5 -141.5t-174.5 -93t-231.5 -33.5h-47q6 35 20.5 61.5t55.5 28.5q131 4 197.5 90t66.5 239q0 123 -57 196t-174 73h-35l-158 -830q-8 -41 12.5 -56t75.5 -26q33 -6 38 -22.5t-5 -50.5q-76 6 -149.5 10t-120.5 4q-41 0 -107.5 -4t-136.5 -10q-10 29 -6 49z" />
<glyph unicode="&#xdf;" horiz-adv-x="985" d="M-338 -494q10 35 23.5 88.5t17.5 98.5l45 14q27 -35 51.5 -58.5t61.5 -23.5q53 0 91 117t79 334l125 737q10 59 20 120.5t21 121.5q14 98 59 173t107.5 126t138.5 77.5t155 26.5q61 0 123 -16.5t109 -48t76.5 -76.5t29.5 -103q0 -39 -16 -75.5t-41 -70.5t-56.5 -65.5 t-62.5 -60.5q-47 -45 -77.5 -89t-30.5 -97q0 -59 29.5 -109.5t58.5 -91.5q35 -51 59.5 -101.5t24.5 -97.5q0 -80 -37 -149.5t-99.5 -120.5t-143.5 -81t-169 -30q-23 0 -47.5 2.5t-46 7.5t-35.5 14t-14 26q0 16 7 37.5t20.5 41t30 33t34.5 13.5t35.5 -12.5t36 -26t39 -25.5 t45.5 -12q59 0 97 48t38 146q0 66 -32 121t-62 100q-35 53 -56.5 101.5t-21.5 99.5q0 63 39 116.5t112 121.5q25 25 48.5 48t41 53t27.5 65.5t10 83.5q0 96 -52 146t-122 50q-35 0 -62.5 -15.5t-52 -59.5t-46 -121.5t-42.5 -200.5l-127 -764q-47 -283 -149 -451t-242 -247 q-23 -12 -50.5 -21.5t-61.5 -9.5q-23 0 -54.5 6t-56.5 16z" />
<glyph unicode="&#xe0;" horiz-adv-x="978" d="M-18 178q0 174 58 309.5t146 228.5t190.5 141t190.5 48q66 0 133.5 -8t157.5 -27l-137 -692q-2 -10 -3 -17t-1 -11q0 -18 18 -19q12 0 29.5 7t34 16.5t31 16.5t22.5 7q16 0 25.5 -17.5t11.5 -33.5q-33 -23 -77 -49.5t-90 -49t-90 -38t-77 -15.5q-35 0 -53.5 14.5 t-18.5 49.5q0 23 11 57l71 223l-8 3q-96 -184 -200.5 -265.5t-184.5 -81.5q-37 0 -70.5 9.5t-60.5 33t-43 62.5t-16 98zM221 233q0 -55 9.5 -85.5t41.5 -30.5q33 0 72 33.5t78 90t74.5 128t63.5 148.5t43 152t13 136q-16 4 -35.5 8t-35.5 4q-72 0 -131.5 -45t-102.5 -123 t-66.5 -184.5t-23.5 -231.5zM391 1303q0 23 19.5 38t48 23t58.5 11t52 3l138 -297q18 -39 3.5 -54t-53.5 -26q-41 49 -68.5 82t-52 57.5t-49 46t-55.5 48.5q-23 20 -32 35.5t-9 32.5z" />
<glyph unicode="&#xe1;" horiz-adv-x="978" d="M-18 178q0 174 58 309.5t146 228.5t190.5 141t190.5 48q66 0 133.5 -8t157.5 -27l-137 -692q-2 -10 -3 -17t-1 -11q0 -18 18 -19q12 0 29.5 7t34 16.5t31 16.5t22.5 7q16 0 25.5 -17.5t11.5 -33.5q-33 -23 -77 -49.5t-90 -49t-90 -38t-77 -15.5q-35 0 -53.5 14.5 t-18.5 49.5q0 23 11 57l71 223l-8 3q-96 -184 -200.5 -265.5t-184.5 -81.5q-37 0 -70.5 9.5t-60.5 33t-43 62.5t-16 98zM221 233q0 -55 9.5 -85.5t41.5 -30.5q33 0 72 33.5t78 90t74.5 128t63.5 148.5t43 152t13 136q-16 4 -35.5 8t-35.5 4q-72 0 -131.5 -45t-102.5 -123 t-66.5 -184.5t-23.5 -231.5zM498.5 1032q-11.5 19 15.5 53l227 293q29 -6 57.5 -15t51 -21.5t37 -29t14.5 -34.5q0 -37 -59 -72q-35 -20 -66 -39.5t-64.5 -44t-73.5 -54.5t-93 -73q-35 18 -46.5 37z" />
<glyph unicode="&#xe2;" horiz-adv-x="978" d="M-18 178q0 174 58 309.5t146 228.5t190.5 141t190.5 48q66 0 133.5 -8t157.5 -27l-137 -692q-2 -10 -3 -17t-1 -11q0 -18 18 -19q12 0 29.5 7t34 16.5t31 16.5t22.5 7q16 0 25.5 -17.5t11.5 -33.5q-33 -23 -77 -49.5t-90 -49t-90 -38t-77 -15.5q-35 0 -53.5 14.5 t-18.5 49.5q0 23 11 57l71 223l-8 3q-96 -184 -200.5 -265.5t-184.5 -81.5q-37 0 -70.5 9.5t-60.5 33t-43 62.5t-16 98zM221 233q0 -55 9.5 -85.5t41.5 -30.5q33 0 72 33.5t78 90t74.5 128t63.5 148.5t43 152t13 136q-16 4 -35.5 8t-35.5 4q-72 0 -131.5 -45t-102.5 -123 t-66.5 -184.5t-23.5 -231.5zM334 1038.5q-2 10.5 2 19.5t10 15l248 283q86 6 122 -8.5t52 -51.5l92 -223q10 -27 2 -43t-53 -37q-43 57 -87 107.5t-81 81.5q-53 -35 -119.5 -86.5t-138.5 -110.5q-25 14 -36 28.5t-13 25z" />
<glyph unicode="&#xe3;" horiz-adv-x="978" d="M-18 178q0 174 58 309.5t146 228.5t190.5 141t190.5 48q66 0 133.5 -8t157.5 -27l-137 -692q-2 -10 -3 -17t-1 -11q0 -18 18 -19q12 0 29.5 7t34 16.5t31 16.5t22.5 7q16 0 25.5 -17.5t11.5 -33.5q-33 -23 -77 -49.5t-90 -49t-90 -38t-77 -15.5q-35 0 -53.5 14.5 t-18.5 49.5q0 23 11 57l71 223l-8 3q-96 -184 -200.5 -265.5t-184.5 -81.5q-37 0 -70.5 9.5t-60.5 33t-43 62.5t-16 98zM221 233q0 -55 9.5 -85.5t41.5 -30.5q33 0 72 33.5t78 90t74.5 128t63.5 148.5t43 152t13 136q-16 4 -35.5 8t-35.5 4q-72 0 -131.5 -45t-102.5 -123 t-66.5 -184.5t-23.5 -231.5zM371.5 1109.5q-9.5 14.5 19.5 41.5q72 66 114 94.5t89 28.5q25 0 47.5 -8.5t45 -19.5t44 -19t41.5 -8q16 0 44 10t79 45q27 -12 34 -28.5t-18 -43.5q-45 -47 -92 -85t-96 -38q-29 0 -53.5 10.5t-47 21.5t-46 21.5t-50.5 10.5t-54.5 -17.5 t-61.5 -46.5q-29 16 -38.5 30.5z" />
<glyph unicode="&#xe4;" horiz-adv-x="978" d="M-18 178q0 174 58 309.5t146 228.5t190.5 141t190.5 48q66 0 133.5 -8t157.5 -27l-137 -692q-2 -10 -3 -17t-1 -11q0 -18 18 -19q12 0 29.5 7t34 16.5t31 16.5t22.5 7q16 0 25.5 -17.5t11.5 -33.5q-33 -23 -77 -49.5t-90 -49t-90 -38t-77 -15.5q-35 0 -53.5 14.5 t-18.5 49.5q0 23 11 57l71 223l-8 3q-96 -184 -200.5 -265.5t-184.5 -81.5q-37 0 -70.5 9.5t-60.5 33t-43 62.5t-16 98zM221 233q0 -55 9.5 -85.5t41.5 -30.5q33 0 72 33.5t78 90t74.5 128t63.5 148.5t43 152t13 136q-16 4 -35.5 8t-35.5 4q-72 0 -131.5 -45t-102.5 -123 t-66.5 -184.5t-23.5 -231.5zM348 1178q0 59 40 94t83 35q47 0 75.5 -31t28.5 -80q0 -57 -35.5 -93t-82.5 -36q-49 0 -79 31t-30 80zM713 1178q0 59 40 94t83 35q47 0 75.5 -31t28.5 -80q0 -57 -36 -93t-83 -36q-49 0 -78.5 31t-29.5 80z" />
<glyph unicode="&#xe5;" horiz-adv-x="978" d="M-18 178q0 174 58 309.5t146 228.5t190.5 141t190.5 48q66 0 133.5 -8t157.5 -27l-137 -692q-2 -10 -3 -17t-1 -11q0 -18 18 -19q12 0 29.5 7t34 16.5t31 16.5t22.5 7q16 0 25.5 -17.5t11.5 -33.5q-33 -23 -77 -49.5t-90 -49t-90 -38t-77 -15.5q-35 0 -53.5 14.5 t-18.5 49.5q0 23 11 57l71 223l-8 3q-96 -184 -200.5 -265.5t-184.5 -81.5q-37 0 -70.5 9.5t-60.5 33t-43 62.5t-16 98zM221 233q0 -55 9.5 -85.5t41.5 -30.5q33 0 72 33.5t78 90t74.5 128t63.5 148.5t43 152t13 136q-16 4 -35.5 8t-35.5 4q-72 0 -131.5 -45t-102.5 -123 t-66.5 -184.5t-23.5 -231.5zM434 1159q0 39 17.5 75t46 61.5t68.5 41t85 15.5q49 0 82 -13.5t52.5 -35t28.5 -49t9 -54.5q0 -49 -18.5 -87t-48 -65.5t-66.5 -42t-74 -14.5q-96 0 -139 48t-43 120zM567 1139q0 -41 14 -59.5t37 -18.5q33 0 52.5 39t19.5 104q0 78 -51 78 q-35 0 -53.5 -41t-18.5 -102z" />
<glyph unicode="&#xe6;" horiz-adv-x="1345" d="M-18 178q0 174 58 309.5t146 228.5t190.5 141t190.5 48q66 0 115 -5t109 -17l-13 -60q55 39 120 60.5t138 21.5q104 0 176 -44t72 -148q0 -74 -38 -128.5t-105.5 -90t-161.5 -56t-209 -26.5q-2 -20 -2 -39v-39q0 -45 8 -88t26.5 -77t48.5 -54.5t73 -20.5q47 0 98 16.5 t111 55.5q18 12 29.5 19.5t27.5 7.5q18 0 25.5 -20.5t7.5 -29.5q-29 -25 -69 -54.5t-88 -55t-103.5 -42t-114.5 -16.5q-90 0 -148.5 27t-93.5 70t-51 98t-20 111q-92 -164 -189.5 -235t-173.5 -71q-37 0 -70.5 9.5t-60.5 33t-43 62.5t-16 98zM221 233q0 -55 9.5 -85.5 t41.5 -30.5q33 0 72 33.5t78 90t74.5 128t63.5 148.5t43 152t13 136q-16 4 -35.5 8t-35.5 4q-72 0 -131.5 -45t-102.5 -123t-66.5 -184.5t-23.5 -231.5zM780 485q82 8 137.5 31t88 54.5t47 71.5t14.5 83q0 47 -19.5 72.5t-50.5 25.5q-39 0 -73.5 -27.5t-63.5 -74.5 t-49 -107.5t-31 -128.5z" />
<glyph unicode="&#xe7;" horiz-adv-x="792" d="M0 293q0 98 31.5 206.5t94 198.5t157 148.5t217.5 58.5q68 0 133 -17.5t119 -45.5q-4 -12 -9.5 -37t-9.5 -53.5t-8 -58t-6 -54.5l-33 2q-23 2 -33 7t-16 26q-27 86 -59 119.5t-91 33.5q-74 0 -123 -57t-77.5 -139t-39.5 -169t-11 -149q0 -96 36.5 -157.5t122.5 -61.5 q37 0 70 9.5t58.5 22.5t45 26.5t31.5 21.5l12 8t17 4q20 0 28.5 -17t10.5 -34q-45 -41 -110.5 -83t-149.5 -62q-27 -35 -38.5 -55.5t-11.5 -40.5q0 -18 13.5 -37t30 -39.5t29.5 -42t13 -45.5q0 -29 -14 -54.5t-46 -52t-85 -55.5t-131 -62q-23 31 -19.5 48.5t31.5 33.5 q53 29 77 48.5t24 46.5q0 20 -11.5 37.5t-26 35t-25.5 36t-11 40.5q0 10 4 21.5t14.5 27t30.5 38t51 56.5h-4q-86 0 -143.5 27t-93 71t-51 101t-15.5 119z" />
<glyph unicode="&#xe8;" horiz-adv-x="811" d="M0 311q0 111 36 217.5t102.5 190.5t158.5 135t205 51q104 0 176 -44t72 -148q0 -74 -37 -128.5t-104.5 -90t-162 -56t-208.5 -26.5q-2 -20 -3.5 -39t-1.5 -39q0 -45 7.5 -88t26 -76t50 -53.5t80.5 -20.5q37 0 89.5 15.5t111.5 54.5q18 12 29.5 20.5t25.5 8.5 q20 0 27.5 -21.5t7.5 -30.5q-27 -25 -66.5 -54.5t-90 -54t-108.5 -42t-120 -17.5q-94 0 -153.5 31t-92 80t-45 108.5t-12.5 116.5zM246 485q82 8 137 31t88 54.5t47 71.5t14 83q0 47 -19 72.5t-50 25.5q-39 0 -74 -27.5t-63.5 -74.5t-49 -107.5t-30.5 -128.5zM309 1303 q0 23 19.5 38t48.5 23t58.5 11t51.5 3l138 -297q18 -39 3.5 -54t-53.5 -26q-41 49 -68.5 82t-52 57.5t-49 46t-55.5 48.5q-23 20 -32 35.5t-9 32.5z" />
<glyph unicode="&#xe9;" horiz-adv-x="811" d="M0 311q0 -57 12.5 -116.5t45 -108.5t92 -80t153.5 -31q61 0 119.5 17.5t109 42t90.5 54.5t66 54q0 8 -7 30t-28 22q-14 0 -25.5 -8.5t-29.5 -20.5q-59 -39 -111.5 -54.5t-89.5 -15.5q-49 0 -80.5 20.5t-50 53.5t-26 76t-7.5 88q0 20 1.5 38.5t3.5 39.5q115 6 209 26.5 t161.5 56t104.5 90t37 128.5q0 104 -72 148t-176 44q-113 0 -205 -51t-158.5 -135t-102.5 -190.5t-36 -217.5zM246 485q10 68 30.5 128.5t49 107.5t63.5 74.5t74 27.5q31 0 50 -25.5t19 -72.5q0 -43 -14 -83t-47 -71.5t-88 -54t-137 -31.5zM402.5 1032q-11.5 19 15.5 53 l227 293q29 -6 57.5 -15t51 -21.5t37 -29t14.5 -34.5q0 -37 -60 -72q-35 -20 -65.5 -39.5t-64 -44t-73.5 -54.5t-93 -73q-35 18 -46.5 37z" />
<glyph unicode="&#xea;" horiz-adv-x="811" d="M0 311q0 -57 12.5 -116.5t45 -108.5t92 -80t153.5 -31q61 0 119.5 17.5t109 42t90.5 54.5t66 54q0 8 -7 30t-28 22q-14 0 -25.5 -8.5t-29.5 -20.5q-59 -39 -111.5 -54.5t-89.5 -15.5q-49 0 -80.5 20.5t-50 53.5t-26 76t-7.5 88q0 20 1.5 38.5t3.5 39.5q115 6 209 26.5 t161.5 56t104.5 90t37 128.5q0 104 -72 148t-176 44q-113 0 -205 -51t-158.5 -135t-102.5 -190.5t-36 -217.5zM246 485q10 68 30.5 128.5t49 107.5t63.5 74.5t74 27.5q31 0 50 -25.5t19 -72.5q0 -43 -14 -83t-47 -71.5t-88 -54t-137 -31.5zM258 1038.5q-2 10.5 2 19.5t10 15 l248 283q86 6 122 -8.5t52 -51.5l92 -223q10 -27 2 -43t-53 -37q-43 57 -87 107.5t-81 81.5q-53 -35 -119.5 -86.5t-138.5 -110.5q-25 14 -36 28.5t-13 25z" />
<glyph unicode="&#xeb;" horiz-adv-x="811" d="M0 311q0 111 36 217.5t102.5 190.5t158.5 135t205 51q104 0 176 -44t72 -148q0 -74 -37 -128.5t-104.5 -90t-162 -56t-208.5 -26.5q-2 -20 -3.5 -39t-1.5 -39q0 -45 7.5 -88t26 -76t50 -53.5t80.5 -20.5q37 0 89.5 15.5t111.5 54.5q18 12 29.5 20.5t25.5 8.5 q20 0 27.5 -21.5t7.5 -30.5q-27 -25 -66.5 -54.5t-90 -54t-108.5 -42t-120 -17.5q-94 0 -153.5 31t-92 80t-45 108.5t-12.5 116.5zM246 485q82 8 137 31t88 54.5t47 71.5t14 83q0 47 -19 72.5t-50 25.5q-39 0 -74 -27.5t-63.5 -74.5t-49 -107.5t-30.5 -128.5zM264 1178 q0 59 40 94t83 35q47 0 76 -31t29 -80q0 -57 -36 -93t-83 -36q-49 0 -79 31t-30 80zM629 1178q0 59 40 94t83 35q47 0 75.5 -31t28.5 -80q0 -57 -36 -93t-83 -36q-49 0 -78.5 31t-29.5 80z" />
<glyph unicode="&#xec;" horiz-adv-x="538" d="M14 758q39 20 93.5 46.5t106.5 48t95 37t62 15.5q16 0 30.5 -8t14.5 -29q0 -6 -1 -16t-3 -21l-131 -645q-6 -25 -7 -36q0 -18 19 -19q12 0 29.5 7t34 16.5t30.5 16.5t23 7q16 0 25 -17.5t11 -33.5q-33 -23 -76.5 -49.5t-90 -49t-90.5 -38t-76 -15.5q-35 0 -58.5 14.5 t-23.5 49.5q0 12 2 23.5t4 19.5l131 625q6 31 -10 30q-6 0 -18.5 -5t-28 -11t-30.5 -11t-26 -5q-18 0 -27.5 18t-13.5 35zM115 1303q0 23 19.5 38t48 23t58 11t52.5 3l137 -297q18 -39 4 -54t-53 -26q-41 49 -68.5 82t-52 57.5t-49.5 46t-55 48.5q-23 20 -32 35.5t-9 32.5z " />
<glyph unicode="&#xed;" horiz-adv-x="538" d="M14 758q39 20 93.5 46.5t106.5 48t95 37t62 15.5q16 0 30.5 -8t14.5 -29q0 -6 -1 -16t-3 -21l-131 -645q-6 -25 -7 -36q0 -18 19 -19q12 0 29.5 7t34 16.5t30.5 16.5t23 7q16 0 25 -17.5t11 -33.5q-33 -23 -76.5 -49.5t-90 -49t-90.5 -38t-76 -15.5q-35 0 -58.5 14.5 t-23.5 49.5q0 12 2 23.5t4 19.5l131 625q6 31 -10 30q-6 0 -18.5 -5t-28 -11t-30.5 -11t-26 -5q-18 0 -27.5 18t-13.5 35zM185 1032q-11 19 16 53l227 293q29 -6 57.5 -15t51 -21.5t37 -29t14.5 -34.5q0 -37 -60 -72q-35 -20 -65.5 -39.5t-64 -44t-73.5 -54.5t-94 -73 q-35 18 -46 37z" />
<glyph unicode="&#xee;" horiz-adv-x="538" d="M14 758q39 20 93.5 46.5t106.5 48t95 37t62 15.5q16 0 30.5 -8t14.5 -29q0 -6 -1 -16t-3 -21l-131 -645q-6 -25 -7 -36q0 -18 19 -19q12 0 29.5 7t34 16.5t30.5 16.5t23 7q16 0 25 -17.5t11 -33.5q-33 -23 -76.5 -49.5t-90 -49t-90.5 -38t-76 -15.5q-35 0 -58.5 14.5 t-23.5 49.5q0 12 2 23.5t4 19.5l131 625q6 31 -10 30q-6 0 -18.5 -5t-28 -11t-30.5 -11t-26 -5q-18 0 -27.5 18t-13.5 35zM47 1038.5q-2 10.5 2 19.5t10 15l248 283q86 6 122 -8.5t52 -51.5l92 -223q10 -27 2 -43t-53 -37q-43 57 -87 107.5t-81 81.5q-53 -35 -119.5 -86.5 t-138.5 -110.5q-25 14 -36 28.5t-13 25z" />
<glyph unicode="&#xef;" horiz-adv-x="538" d="M14 758q39 20 93.5 46.5t106.5 48t95 37t62 15.5q16 0 30.5 -8t14.5 -29q0 -6 -1 -16t-3 -21l-131 -645q-6 -25 -7 -36q0 -18 19 -19q12 0 29.5 7t34 16.5t30.5 16.5t23 7q16 0 25 -17.5t11 -33.5q-33 -23 -76.5 -49.5t-90 -49t-90.5 -38t-76 -15.5q-35 0 -58.5 14.5 t-23.5 49.5q0 12 2 23.5t4 19.5l131 625q6 31 -10 30q-6 0 -18.5 -5t-28 -11t-30.5 -11t-26 -5q-18 0 -27.5 18t-13.5 35zM70 1178q0 59 40 94t83 35q47 0 75.5 -31t28.5 -80q0 -57 -36 -93t-83 -36q-49 0 -78.5 31t-29.5 80zM434 1178q0 59 40 94t83 35q47 0 76 -31t29 -80 q0 -57 -36 -93t-83 -36q-49 0 -79 31t-30 80z" />
<glyph unicode="&#xf0;" horiz-adv-x="989" d="M0 305q0 123 45 227.5t116.5 182.5t163 122t181.5 44q33 0 67.5 -2t67.5 -9q-10 66 -29.5 127.5t-46.5 114.5l-207 -111q-39 35 -44 58.5t32 44.5l170 92q-39 59 -84 105t-92 79q-41 29 -31 51.5t39 47.5q184 -98 303 -211l230 127q27 -25 37 -42.5t9 -29.5t-11.5 -20.5 t-24.5 -16.5l-168 -90q96 -113 140 -237.5t44 -266.5q0 -111 -34.5 -236.5t-106.5 -232t-180.5 -177.5t-255.5 -71q-92 0 -155.5 27t-101.5 72t-55.5 104.5t-17.5 126.5zM256 354q0 -158 37 -221t98 -63q53 0 101.5 45t84 121.5t58 181t22.5 225.5v44.5t-2 37.5 q-18 25 -67 44t-96 19q-61 0 -105.5 -39.5t-73 -102t-43 -139.5t-14.5 -153z" />
<glyph unicode="&#xf1;" horiz-adv-x="1058" d="M6 758q39 25 92.5 50.5t105.5 47t95 35.5t63 14q16 0 31 -8t15 -29v-16t-5 -21l-77 -315l6 -2q45 74 95 144.5t105.5 126t116 88t125.5 32.5q55 0 96 -25.5t41 -93.5q0 -25 -3 -58.5t-11 -72.5l-98 -469q-6 -25 -6 -36q0 -18 18 -19q12 0 29.5 7t34 16.5t31 16.5t22.5 7 q16 0 25.5 -17.5t11.5 -33.5q-33 -23 -77 -49.5t-90 -49t-90 -38t-77 -15.5q-35 0 -58.5 14.5t-23.5 49.5q0 12 2 23.5t4 19.5l111 524q8 35 12 59.5t4 43.5q0 41 -33 41q-23 0 -58.5 -32t-78.5 -83t-87 -115.5t-81 -132.5q-37 -66 -62.5 -157t-25.5 -162q0 -33 6 -60 q-49 -6 -99 -14t-108 -25q-35 14 -35 37q0 10 2.5 21.5t4.5 17.5l131 662q4 12 2 21t-10 9q-6 0 -18.5 -5t-28 -11t-31 -11t-25.5 -5q-18 0 -27.5 18t-13.5 35zM355 1109.5q-9 14.5 20 41.5q72 66 113.5 94.5t89.5 28.5q25 0 47 -8.5t44.5 -19.5t44 -19t42.5 -8 q16 0 43.5 10t79.5 45q27 -12 34 -28.5t-18 -43.5q-45 -47 -92 -85t-96 -38q-29 0 -53.5 10.5t-47 21.5t-46 21.5t-50.5 10.5t-54.5 -17.5t-62.5 -46.5q-29 16 -38 30.5z" />
<glyph unicode="&#xf2;" d="M-2 311q0 137 48 248t122 187.5t163 117.5t171 41q80 0 137 -26.5t96 -73.5t57.5 -109.5t18.5 -136.5q0 -147 -47 -256.5t-123 -182.5t-170 -109t-186 -36q-78 0 -133.5 25t-89 69t-49 106.5t-15.5 135.5zM233 332q0 -129 25 -197.5t84 -68.5q51 0 94 35.5t74 99 t48 151.5t17 191q0 125 -21.5 198.5t-84.5 73.5q-57 0 -101 -44t-74 -113.5t-45.5 -155.5t-15.5 -170zM305 1303q0 23 19.5 38t48 23t58.5 11t52 3l138 -297q18 -39 3.5 -54t-53.5 -26q-41 49 -68.5 82t-52 57.5t-49 46t-55.5 48.5q-23 20 -32 35.5t-9 32.5z" />
<glyph unicode="&#xf3;" d="M-2 311q0 137 48 248t122 187.5t163 117.5t171 41q80 0 137 -26.5t96 -73.5t57.5 -109.5t18.5 -136.5q0 -147 -47 -256.5t-123 -182.5t-170 -109t-186 -36q-78 0 -133.5 25t-89 69t-49 106.5t-15.5 135.5zM233 332q0 -129 25 -197.5t84 -68.5q51 0 94 35.5t74 99 t48 151.5t17 191q0 125 -21.5 198.5t-84.5 73.5q-57 0 -101 -44t-74 -113.5t-45.5 -155.5t-15.5 -170zM392 1032q-11 19 16 53l227 293q29 -6 57.5 -15t51 -21.5t37 -29t14.5 -34.5q0 -37 -60 -72q-35 -20 -65.5 -39.5t-64.5 -44t-73.5 -54.5t-93.5 -73q-35 18 -46 37z" />
<glyph unicode="&#xf4;" d="M-2 311q0 137 48 248t122 187.5t163 117.5t171 41q80 0 137 -26.5t96 -73.5t57.5 -109.5t18.5 -136.5q0 -147 -47 -256.5t-123 -182.5t-170 -109t-186 -36q-78 0 -133.5 25t-89 69t-49 106.5t-15.5 135.5zM233 332q0 -129 25 -197.5t84 -68.5q51 0 94 35.5t74 99 t48 151.5t17 191q0 125 -21.5 198.5t-84.5 73.5q-57 0 -101 -44t-74 -113.5t-45.5 -155.5t-15.5 -170zM258 1038.5q-2 10.5 2 19.5t10 15l248 283q86 6 122 -8.5t52 -51.5l92 -223q10 -27 2 -43t-53 -37q-43 57 -87 107.5t-81 81.5q-53 -35 -119.5 -86.5t-138.5 -110.5 q-25 14 -36 28.5t-13 25z" />
<glyph unicode="&#xf5;" d="M-2 311q0 137 48 248t122 187.5t163 117.5t171 41q80 0 137 -26.5t96 -73.5t57.5 -109.5t18.5 -136.5q0 -147 -47 -256.5t-123 -182.5t-170 -109t-186 -36q-78 0 -133.5 25t-89 69t-49 106.5t-15.5 135.5zM233 332q0 -129 25 -197.5t84 -68.5q51 0 94 35.5t74 99 t48 151.5t17 191q0 125 -21.5 198.5t-84.5 73.5q-57 0 -101 -44t-74 -113.5t-45.5 -155.5t-15.5 -170zM273 1109.5q-9 14.5 20 41.5q72 66 114 94.5t89 28.5q25 0 47 -8.5t44.5 -19.5t44 -19t42.5 -8q16 0 43.5 10t79.5 45q27 -12 34 -28.5t-18 -43.5q-45 -47 -92 -85 t-96 -38q-29 0 -53.5 10.5t-47 21.5t-46 21.5t-50.5 10.5t-54.5 -17.5t-62.5 -46.5q-29 16 -38 30.5z" />
<glyph unicode="&#xf6;" d="M-2 311q0 137 48 248t122 187.5t163 117.5t171 41q80 0 137 -26.5t96 -73.5t57.5 -109.5t18.5 -136.5q0 -147 -47 -256.5t-123 -182.5t-170 -109t-186 -36q-78 0 -133.5 25t-89 69t-49 106.5t-15.5 135.5zM233 332q0 -129 25 -197.5t84 -68.5q51 0 94 35.5t74 99 t48 151.5t17 191q0 125 -21.5 198.5t-84.5 73.5q-57 0 -101 -44t-74 -113.5t-45.5 -155.5t-15.5 -170zM250 1178q0 59 40 94t83 35q47 0 75.5 -31t28.5 -80q0 -57 -35.5 -93t-83.5 -36q-49 0 -78.5 31t-29.5 80zM614 1178q0 59 40 94t83 35q47 0 76 -31t29 -80 q0 -57 -36 -93t-83 -36q-49 0 -79 31t-30 80z" />
<glyph unicode="&#xf7;" horiz-adv-x="1011" d="M25 399q10 72 36.5 104t79.5 32h777q-10 -72 -37 -104t-80 -32h-776zM346 158q0 61 35 105t86 44q53 0 87 -35.5t34 -89.5q0 -66 -36 -109.5t-85 -43.5q-57 0 -89 37t-32 92zM346 741q0 61 35 105.5t86 44.5q53 0 87 -36t34 -89q0 -66 -36 -110t-85 -44q-57 0 -89 37 t-32 92z" />
<glyph unicode="&#xf8;" horiz-adv-x="901" d="M0 319q0 137 48 248t122 187.5t163 117.5t171 41q43 0 88 -10l67 137q35 -20 52.5 -36.5t22.5 -32t2 -29.5t-9 -27l-31 -61q59 -47 88 -121t29 -166q0 -147 -47 -256.5t-123 -182.5t-170 -108.5t-186 -35.5q-6 0 -12.5 1t-12.5 1l-78 -158q-66 39 -76 62.5t5 52.5l34 67 q-80 37 -113.5 118t-33.5 191zM236 340q0 -49 3 -90t11 -72l285 613q-27 33 -64 32q-57 0 -101 -44t-74 -113.5t-45 -155.5t-15 -170zM309 80q15 -6 35 -6q51 0 94 35.5t74 99t48.5 152t17.5 190.5q0 29 -1.5 53.5t-3.5 46.5z" />
<glyph unicode="&#xf9;" horiz-adv-x="1064" d="M0 754q29 18 78 43.5t101 50t100.5 41t72.5 16.5q29 0 46.5 -14t17.5 -49q0 -12 -2 -23.5t-4 -19.5l-111 -525q-8 -35 -12 -59.5t-4 -42.5q0 -41 32 -41q20 0 57.5 32t80.5 83t87 115.5t81 132.5q37 66 62.5 156.5t25.5 162.5q0 31 -7 59q49 6 99.5 14.5t107.5 24.5 q35 -14 35 -37q0 -10 -2 -21t-4 -17l-131 -654q-6 -33 -1 -42t17 -9q25 0 56.5 19.5t50.5 19.5q18 0 22 -15.5t6 -31.5q-39 -25 -86 -51.5t-93 -48t-87 -35t-65 -13.5q-63 0 -64 56q0 16 6 39l70 295l-6 2q-47 -74 -96.5 -144.5t-104.5 -126t-115.5 -88.5t-126.5 -33 q-55 0 -96 26t-41 93q0 25 3 58.5t12 72.5l96 457q6 29 5 42t-17 13q-12 0 -29 -5t-33 -12t-30.5 -12.5t-22.5 -5.5q-16 0 -25.5 17.5t-11.5 34.5zM399 1303q0 23 19.5 38t48.5 23t58.5 11t52.5 3l137 -297q18 -39 4 -54t-53 -26q-41 49 -69 82t-52.5 57.5t-49 46 t-55.5 48.5q-23 20 -32 35.5t-9 32.5z" />
<glyph unicode="&#xfa;" horiz-adv-x="1064" d="M0 754q29 18 78 43.5t101 50t100.5 41t72.5 16.5q29 0 46.5 -14t17.5 -49q0 -12 -2 -23.5t-4 -19.5l-111 -525q-8 -35 -12 -59.5t-4 -42.5q0 -41 32 -41q20 0 57.5 32t80.5 83t87 115.5t81 132.5q37 66 62.5 156.5t25.5 162.5q0 31 -7 59q49 6 99.5 14.5t107.5 24.5 q35 -14 35 -37q0 -10 -2 -21t-4 -17l-131 -654q-6 -33 -1 -42t17 -9q25 0 56.5 19.5t50.5 19.5q18 0 22 -15.5t6 -31.5q-39 -25 -86 -51.5t-93 -48t-87 -35t-65 -13.5q-63 0 -64 56q0 16 6 39l70 295l-6 2q-47 -74 -96.5 -144.5t-104.5 -126t-115.5 -88.5t-126.5 -33 q-55 0 -96 26t-41 93q0 25 3 58.5t12 72.5l96 457q6 29 5 42t-17 13q-12 0 -29 -5t-33 -12t-30.5 -12.5t-22.5 -5.5q-16 0 -25.5 17.5t-11.5 34.5zM509 1032q-11 19 15 53l228 293q29 -6 57.5 -15t51 -21.5t36.5 -29t14 -34.5q0 -37 -59 -72q-35 -20 -65.5 -39.5t-64.5 -44 t-74 -54.5t-93 -73q-35 18 -46 37z" />
<glyph unicode="&#xfb;" horiz-adv-x="1064" d="M0 754q29 18 78 43.5t101 50t100.5 41t72.5 16.5q29 0 46.5 -14t17.5 -49q0 -12 -2 -23.5t-4 -19.5l-111 -525q-8 -35 -12 -59.5t-4 -42.5q0 -41 32 -41q20 0 57.5 32t80.5 83t87 115.5t81 132.5q37 66 62.5 156.5t25.5 162.5q0 31 -7 59q49 6 99.5 14.5t107.5 24.5 q35 -14 35 -37q0 -10 -2 -21t-4 -17l-131 -654q-6 -33 -1 -42t17 -9q25 0 56.5 19.5t50.5 19.5q18 0 22 -15.5t6 -31.5q-39 -25 -86 -51.5t-93 -48t-87 -35t-65 -13.5q-63 0 -64 56q0 16 6 39l70 295l-6 2q-47 -74 -96.5 -144.5t-104.5 -126t-115.5 -88.5t-126.5 -33 q-55 0 -96 26t-41 93q0 25 3 58.5t12 72.5l96 457q6 29 5 42t-17 13q-12 0 -29 -5t-33 -12t-30.5 -12.5t-22.5 -5.5q-16 0 -25.5 17.5t-11.5 34.5zM354 1038.5q-2 10.5 2 19.5t11 15l247 283q86 6 122 -8.5t52 -51.5l93 -223q10 -27 1.5 -43t-53.5 -37q-43 57 -87 107.5 t-80 81.5q-53 -35 -120 -86.5t-139 -110.5q-25 14 -36 28.5t-13 25z" />
<glyph unicode="&#xfc;" horiz-adv-x="1064" d="M0 754q29 18 78 43.5t101 50t100.5 41t72.5 16.5q29 0 46.5 -14t17.5 -49q0 -12 -2 -23.5t-4 -19.5l-111 -525q-8 -35 -12 -59.5t-4 -42.5q0 -41 32 -41q20 0 57.5 32t80.5 83t87 115.5t81 132.5q37 66 62.5 156.5t25.5 162.5q0 31 -7 59q49 6 99.5 14.5t107.5 24.5 q35 -14 35 -37q0 -10 -2 -21t-4 -17l-131 -654q-6 -33 -1 -42t17 -9q25 0 56.5 19.5t50.5 19.5q18 0 22 -15.5t6 -31.5q-39 -25 -86 -51.5t-93 -48t-87 -35t-65 -13.5q-63 0 -64 56q0 16 6 39l70 295l-6 2q-47 -74 -96.5 -144.5t-104.5 -126t-115.5 -88.5t-126.5 -33 q-55 0 -96 26t-41 93q0 25 3 58.5t12 72.5l96 457q6 29 5 42t-17 13q-12 0 -29 -5t-33 -12t-30.5 -12.5t-22.5 -5.5q-16 0 -25.5 17.5t-11.5 34.5zM352 1178q0 59 40 94t83 35q47 0 76 -31t29 -80q0 -57 -36 -93t-83 -36q-49 0 -79 31t-30 80zM717 1178q0 59 40 94t83 35 q47 0 75.5 -31t28.5 -80q0 -57 -36 -93t-83 -36q-49 0 -78.5 31t-29.5 80z" />
<glyph unicode="&#xfd;" horiz-adv-x="1050" d="M4 -469q39 92 51 193l51 8q33 -68 90 -113t123 -45q80 0 132.5 70.5t80.5 203.5l111 517l-6 2q-47 -74 -96 -144.5t-104.5 -126t-116 -88.5t-125.5 -33q-55 0 -96.5 26t-41.5 93q0 25 3 58.5t12 72.5l96 457q6 25 6 37q0 18 -18 18q-12 0 -28.5 -5t-33 -12t-31 -12.5 t-22.5 -5.5q-16 0 -25.5 17.5t-11.5 34.5q29 18 78 43.5t101.5 50t100.5 41t72 16.5q29 0 46.5 -14t17.5 -49q0 -12 -2 -23.5t-4 -19.5l-111 -525q-8 -35 -12 -59.5t-4 -42.5q0 -41 32 -41q20 0 57.5 32t80.5 83t87 115.5t81 132.5q37 66 62.5 156.5t25.5 162.5q0 31 -6 59 q49 6 99 14.5t107 24.5q35 -14 35 -37q0 -10 -2 -21t-4 -17l-182 -916q-23 -111 -76 -192.5t-122.5 -136t-148.5 -81t-153 -26.5q-84 0 -144.5 12t-111.5 35zM517 1032q-11 19 15 53l228 293q29 -6 57.5 -15t51 -21.5t37 -29t14.5 -34.5q0 -37 -60 -72q-35 -20 -65.5 -39.5 t-64.5 -44t-74 -54.5t-93 -73q-35 18 -46 37z" />
<glyph unicode="&#xfe;" horiz-adv-x="960" d="M-68 -463q0 10 5 31l290 1497q10 43 15.5 94t5.5 86q0 23 -19 23q-20 0 -49.5 -5.5t-52.5 -5.5q-18 0 -25.5 16.5t-7.5 41.5q96 29 194.5 56.5t190.5 62.5q39 -16 39 -56q0 -8 -2 -19t-4 -20l-176 -768l6 -2q51 94 100.5 159t97.5 103.5t96 56t99 17.5q57 0 95 -21.5 t61.5 -55t33 -77.5t9.5 -89q0 -162 -59.5 -289t-149.5 -215t-195.5 -135.5t-199.5 -47.5h-43t-45 5l-29 -148q-10 -47 -16.5 -84t-6.5 -59q0 -25 7.5 -33t23.5 -8t48 4t55 4q20 0 23 -18.5t3 -34.5q-106 -29 -193 -57.5t-171 -63.5q-25 12 -39.5 23.5t-14.5 31.5zM262 88 q10 -8 35 -14t45 -6q74 0 138.5 42t111.5 114.5t73.5 171t26.5 212.5q0 86 -19.5 120t-47.5 34q-35 0 -75 -34t-79 -89t-77 -127t-66.5 -146.5t-46 -147.5t-19.5 -130z" />
<glyph unicode="&#xff;" horiz-adv-x="1050" d="M4 -469q39 92 51 193l51 8q33 -68 90 -113t123 -45q80 0 132.5 70.5t80.5 203.5l111 517l-6 2q-47 -74 -96 -144.5t-104.5 -126t-116 -88.5t-125.5 -33q-55 0 -96.5 26t-41.5 93q0 25 3 58.5t12 72.5l96 457q6 25 6 37q0 18 -18 18q-12 0 -28.5 -5t-33 -12t-31 -12.5 t-22.5 -5.5q-16 0 -25.5 17.5t-11.5 34.5q29 18 78 43.5t101.5 50t100.5 41t72 16.5q29 0 46.5 -14t17.5 -49q0 -12 -2 -23.5t-4 -19.5l-111 -525q-8 -35 -12 -59.5t-4 -42.5q0 -41 32 -41q20 0 57.5 32t80.5 83t87 115.5t81 132.5q37 66 62.5 156.5t25.5 162.5q0 31 -6 59 q49 6 99 14.5t107 24.5q35 -14 35 -37q0 -10 -2 -21t-4 -17l-182 -916q-23 -111 -76 -192.5t-122.5 -136t-148.5 -81t-153 -26.5q-84 0 -144.5 12t-111.5 35zM344 1178q0 59 40 94t83 35q47 0 75.5 -31t28.5 -80q0 -57 -35.5 -93t-82.5 -36q-49 0 -79 31t-30 80zM709 1178 q0 59 39.5 94t82.5 35q47 0 76 -31t29 -80q0 -57 -36 -93t-83 -36q-49 0 -78.5 31t-29.5 80z" />
<glyph unicode="&#x152;" horiz-adv-x="1740" d="M33 510q0 168 55 321.5t152.5 270.5t230.5 185.5t291 68.5q41 0 98.5 -7.5t91.5 -17.5h514q80 0 122 6t67 6t33 -8t8 -30q2 -63 11 -128t24 -128q-10 -8 -27.5 -13.5t-32.5 -5.5q-23 0 -33 9.5t-14 23.5q-29 98 -78 140t-133 42h-227l-99 -520h238q47 0 67.5 28.5 t34.5 77.5q4 12 11.5 22.5t23.5 10.5t32.5 -5t29.5 -9q-12 -47 -21.5 -87t-16.5 -81t-12.5 -88t-9.5 -107q-20 -10 -53 -10q-29 0 -35 12.5t-4 26.5q6 51 -7 85t-62 34h-232l-96 -500q-4 -29 3 -38t36 -9h221q74 0 144.5 41t148.5 150q10 16 18 24t25 8q18 0 35.5 -11 t29.5 -24l-20 -40q-10 -20 -22.5 -46t-24.5 -61q-16 -41 -23.5 -72.5t-15.5 -48.5q-6 -14 -13.5 -17t-17.5 -3q-23 0 -40 2t-37.5 4t-46 4t-62.5 2h-576q-41 -10 -93 -17.5t-112 -7.5q-121 0 -214 40t-156.5 111t-96 169t-32.5 215zM297 541q0 -242 72.5 -357.5 t232.5 -115.5q59 0 91 21.5t42 72.5l187 964q6 37 -5.5 64t-35 43t-56 23.5t-69.5 7.5q-119 0 -206 -64.5t-143.5 -168t-83 -232.5t-26.5 -258z" />
<glyph unicode="&#x153;" horiz-adv-x="1361" d="M-2 311q0 137 48 248t122 187.5t163 117.5t171 41q94 0 152.5 -42t86.5 -97q47 53 131 96t191 43q49 0 92 -10t75 -33.5t51 -60.5t19 -88q0 -74 -37.5 -128.5t-105 -90t-162 -56t-209.5 -26.5q-2 -20 -2 -39v-39q0 -45 8.5 -88t27 -77t48 -54.5t72.5 -20.5 q47 0 98.5 16.5t110.5 55.5q18 12 29.5 19.5t27.5 7.5q18 0 25.5 -20.5t7.5 -29.5q-29 -25 -69 -54.5t-88 -55t-103 -42t-115 -16.5q-109 0 -165 41t-83 97q-68 -70 -152.5 -104t-164.5 -34q-84 0 -141.5 25t-93 69t-51 106.5t-15.5 135.5zM233 332q0 -129 25 -197.5 t84 -68.5q51 0 94 35.5t74 99t48 151.5t17 191q0 125 -21.5 198.5t-84.5 73.5q-57 0 -101 -44t-74 -113.5t-45.5 -155.5t-15.5 -170zM797 485q82 8 137 31t88 54.5t47 71.5t14 83q0 47 -19 72.5t-50 25.5q-39 0 -74 -27.5t-63.5 -74.5t-49 -107.5t-30.5 -128.5z" />
<glyph unicode="&#x178;" horiz-adv-x="1142" d="M76 1305q0 16 6 38q74 -8 141.5 -11t118.5 -3q43 0 115.5 4t140.5 10q8 -23 8 -38q0 -35 -39 -37q-72 -10 -84 -33t4 -66l156 -469l348 474q25 35 5.5 63.5t-74.5 32.5q-43 2 -43 37q0 8 2 17t6 22q49 -8 107.5 -11.5t99.5 -3.5q35 0 88 3t118 12q4 -12 6.5 -20.5 t2.5 -16.5q0 -20 -15.5 -29.5t-46.5 -15.5q-39 -8 -64.5 -24.5t-47.5 -45.5l-439 -584l-90 -463q-8 -41 15.5 -59t72.5 -25q23 -4 34 -11t11 -25t-8 -41q-78 6 -151.5 10t-124.5 4q-20 0 -53 -1t-70 -3t-76 -5t-72 -5q-4 10 -6 18t-2 19q0 14 9.5 24t33.5 14q115 18 131 91 l86 436l-225 608q-10 27 -28.5 43t-61.5 21q-25 2 -35 14t-10 31zM475 1563q0 59 40 94t83 35q47 0 75.5 -31t28.5 -80q0 -57 -35.5 -93t-82.5 -36q-49 0 -79 31t-30 80zM840 1563q0 59 40 94t83 35q47 0 75.5 -31t28.5 -80q0 -57 -36 -93t-83 -36q-49 0 -78.5 31t-29.5 80z " />
<glyph unicode="&#x2c6;" horiz-adv-x="1024" d="M244 1038.5q-2 10.5 2 19.5t10 15l248 283q86 6 122 -8.5t52 -51.5l92 -223q10 -27 2 -43t-53 -37q-43 57 -87 107.5t-81 81.5q-53 -35 -119.5 -86.5t-138.5 -110.5q-25 14 -36 28.5t-13 25z" />
<glyph unicode="&#x2dc;" horiz-adv-x="1024" d="M224 1109.5q-9 14.5 20 41.5q72 66 113.5 94.5t88.5 28.5q25 0 47.5 -8.5t45 -19.5t44 -19t42.5 -8q16 0 43.5 10t79.5 45q27 -12 33.5 -28.5t-17.5 -43.5q-45 -47 -92 -85t-97 -38q-29 0 -53 10.5t-46.5 21.5t-46 21.5t-50.5 10.5t-54.5 -17.5t-62.5 -46.5 q-29 16 -38 30.5z" />
<glyph unicode="&#x2000;" />
<glyph unicode="&#x2001;" horiz-adv-x="1798" />
<glyph unicode="&#x2002;" />
<glyph unicode="&#x2003;" horiz-adv-x="1798" />
<glyph unicode="&#x2004;" horiz-adv-x="599" />
<glyph unicode="&#x2005;" horiz-adv-x="449" />
<glyph unicode="&#x2006;" horiz-adv-x="299" />
<glyph unicode="&#x2007;" horiz-adv-x="299" />
<glyph unicode="&#x2008;" horiz-adv-x="224" />
<glyph unicode="&#x2009;" horiz-adv-x="359" />
<glyph unicode="&#x200a;" horiz-adv-x="99" />
<glyph unicode="&#x2010;" horiz-adv-x="632" d="M23 430q4 78 32.5 111.5t81.5 33.5h430q-6 -80 -32.5 -112.5t-81.5 -32.5h-430z" />
<glyph unicode="&#x2011;" horiz-adv-x="632" d="M23 430q4 78 32.5 111.5t81.5 33.5h430q-6 -80 -32.5 -112.5t-81.5 -32.5h-430z" />
<glyph unicode="&#x2012;" horiz-adv-x="632" d="M23 430q4 78 32.5 111.5t81.5 33.5h430q-6 -80 -32.5 -112.5t-81.5 -32.5h-430z" />
<glyph unicode="&#x2013;" horiz-adv-x="1024" d="M-59 430q8 63 30.5 91t77.5 28h969q-8 -63 -31.5 -91t-81.5 -28h-964z" />
<glyph unicode="&#x2014;" horiz-adv-x="2048" d="M-59 430q8 63 30.5 91t77.5 28h1999q-8 -63 -31.5 -91t-81.5 -28h-1994z" />
<glyph unicode="&#x2018;" horiz-adv-x="354" d="M125 1143q0 37 17.5 79t54 84t94 81.5t137.5 70.5q31 -23 27 -47.5t-23 -36.5q-53 -37 -81.5 -78t-28.5 -82q0 -29 14 -46t31 -29q20 -14 33.5 -29.5t13.5 -38.5q0 -31 -41 -69.5t-101 -59.5q-72 35 -109.5 91.5t-37.5 109.5z" />
<glyph unicode="&#x2019;" horiz-adv-x="339" d="M98 989.5q4 24.5 23 36.5q53 37 81.5 78t28.5 82q0 29 -14 46t-31 30q-20 14 -33.5 29.5t-13.5 37.5q0 31 41 70t101 59q72 -35 109.5 -91t37.5 -110q0 -37 -17.5 -78.5t-54.5 -83.5t-94 -82t-137 -71q-31 23 -27 47.5z" />
<glyph unicode="&#x201a;" horiz-adv-x="393" d="M-86 -198.5q4 24.5 23 36.5q53 37 81.5 78t28.5 82q0 29 -14.5 46t-30.5 30q-20 14 -33.5 29.5t-13.5 37.5q0 31 41 70t100 59q72 -35 110 -91t38 -109q0 -37 -17.5 -79t-54.5 -84t-94 -82t-137 -71q-31 23 -27 47.5z" />
<glyph unicode="&#x201c;" horiz-adv-x="708" d="M125 1143q0 37 17.5 79t54 84t94 81.5t137.5 70.5q31 -23 27 -47.5t-23 -36.5q-53 -37 -81.5 -78t-28.5 -82q0 -29 14 -46t31 -29q20 -14 33.5 -29.5t13.5 -38.5q0 -31 -41 -69.5t-101 -59.5q-72 35 -109.5 91.5t-37.5 109.5zM479 1143q0 37 17.5 79t54.5 84t94 81.5 t137 70.5q31 -23 27 -47.5t-23 -36.5q-53 -37 -81.5 -78t-28.5 -82q0 -29 14.5 -46t30.5 -29q20 -14 33.5 -29.5t13.5 -38.5q0 -31 -41 -69.5t-100 -59.5q-72 35 -110 91.5t-38 109.5z" />
<glyph unicode="&#x201d;" horiz-adv-x="694" d="M98 989.5q4 24.5 23 36.5q53 37 81.5 78t28.5 82q0 29 -14 46t-31 30q-20 14 -33.5 29.5t-13.5 37.5q0 31 41 70t101 59q72 -35 109.5 -91t37.5 -110q0 -37 -17.5 -78.5t-54.5 -83.5t-94 -82t-137 -71q-31 23 -27 47.5zM452.5 989.5q4.5 24.5 22.5 36.5q53 37 82 78 t29 82q0 29 -14.5 46t-30.5 30q-20 14 -33.5 29.5t-13.5 37.5q0 31 40.5 70t100.5 59q72 -35 109.5 -91t37.5 -110q0 -37 -17 -78.5t-54 -83.5t-94.5 -82t-137.5 -71q-31 23 -26.5 47.5z" />
<glyph unicode="&#x201e;" horiz-adv-x="747" d="M-86 -198.5q4 24.5 23 36.5q53 37 81.5 78t28.5 82q0 29 -14.5 46t-30.5 30q-20 14 -33.5 29.5t-13.5 37.5q0 31 41 70t100 59q72 -35 110 -91t38 -109q0 -37 -17.5 -79t-54.5 -84t-94 -82t-137 -71q-31 23 -27 47.5zM268 -198.5q4 24.5 23 36.5q53 37 81.5 78t28.5 82 q0 29 -14 46t-31 30q-20 14 -33.5 29.5t-13.5 37.5q0 31 41 70t101 59q72 -35 109.5 -91t37.5 -109q0 -37 -17.5 -79t-54.5 -84t-94 -82t-137 -71q-31 23 -27 47.5z" />
<glyph unicode="&#x2022;" horiz-adv-x="1011" d="M197 481q0 59 23.5 110.5t62.5 88.5t89 57.5t103 20.5q119 0 188.5 -65.5t69.5 -170.5q0 -59 -24.5 -109.5t-63.5 -86t-89 -56t-101 -20.5q-119 0 -188.5 64.5t-69.5 166.5z" />
<glyph unicode="&#x2026;" horiz-adv-x="1308" d="M-20 102q0 59 40.5 104.5t102.5 45.5q66 0 99.5 -38t33.5 -91q0 -61 -43 -104.5t-100 -43.5q-72 0 -102.5 37t-30.5 90zM422 102q0 59 41 104.5t102 45.5q66 0 99.5 -38t33.5 -91q0 -61 -43 -104.5t-100 -43.5q-72 0 -102.5 37t-30.5 90zM866 102q0 59 41 104.5t103 45.5 q66 0 99.5 -38t33.5 -91q0 -61 -43 -104.5t-101 -43.5q-72 0 -102.5 37t-30.5 90z" />
<glyph unicode="&#x202f;" horiz-adv-x="359" />
<glyph unicode="&#x2039;" horiz-adv-x="548" d="M-4 449q-6 27 27 53l339 289q12 10 25.5 19t32.5 9q29 0 43 -20.5t24 -40.5q-66 -72 -124 -144.5t-117 -158.5q12 -47 21 -82t20.5 -69t26 -71.5t36.5 -89.5q-39 -57 -80 -57q-33 0 -57 37z" />
<glyph unicode="&#x203a;" horiz-adv-x="552" d="M0 147q66 72 124.5 145t117.5 159q-12 45 -21.5 80.5t-21 69.5t-25.5 72t-37 89q39 57 80 57q33 0 57 -37l218 -325q4 -14 -2.5 -25.5t-24.5 -28.5l-340 -288q-12 -10 -25.5 -19.5t-31.5 -9.5q-29 0 -43.5 20.5t-24.5 40.5z" />
<glyph unicode="&#x205f;" horiz-adv-x="449" />
<glyph unicode="&#x20ac;" horiz-adv-x="1206" d="M4 508q4 55 26.5 76.5t75.5 21.5h105q4 23 9 53.5t11 59.5h-172q8 53 29 76.5t74 23.5h94q39 117 101.5 212t142.5 162t175 102.5t202 35.5q80 0 152.5 -15.5t150.5 -43.5q-14 -66 -20.5 -130.5t-10.5 -148.5q-10 -4 -20.5 -5t-26.5 -1q-39 0 -44 18.5t-5 34.5 q0 102 -47.5 152.5t-124.5 50.5q-51 0 -106.5 -30.5t-107 -87t-95.5 -134.5t-70 -172h467q-6 -57 -25.5 -78.5t-66.5 -21.5h-400q-6 -29 -9 -56.5t-7 -56.5h422q-6 -57 -26.5 -77.5t-78.5 -20.5h-323q-2 -100 12 -183t46 -141.5t80 -90.5t114 -32q162 0 229 197q12 37 45 37 q18 0 33.5 -6t23.5 -10q-20 -66 -35.5 -129.5t-31.5 -141.5q-74 -16 -152 -25.5t-155 -9.5q-139 0 -228.5 47.5t-140.5 123t-70.5 172t-19.5 192.5h-201z" />
<glyph unicode="&#x2122;" horiz-adv-x="1558" d="M115 1161l26 142q2 14 19 14q18 0 40.5 -2t57.5 -2h285q35 0 57.5 2t40.5 2q16 0 18 -14l27 -142q-4 -4 -15.5 -5t-15.5 -1q-14 0 -16 8q-10 27 -18.5 44.5t-20.5 27.5t-30.5 13t-49.5 3h-53v-348q0 -27 14.5 -41t59.5 -18q16 -4 16 -17v-26h-313v26q0 12 16 17 q45 4 59.5 18.5t14.5 40.5v348h-53q-31 0 -49.5 -3t-31 -13t-20.5 -27.5t-18 -44.5q-2 -8 -17 -8q-4 0 -15 1t-15 5zM729 801v26q0 12 12 17q39 6 49.5 16t10.5 27q4 84 10 167t10 167q0 14 -11 22t-23.5 14.5t-23.5 12.5t-11 16v27h215q14 0 20 -17l174 -317l160 317 q10 16 22 17h175v-27q0 -14 -15 -16q-35 -4 -44 -13.5t-9 -25.5q4 -86 9 -171t9 -171q2 -16 13.5 -28.5t46.5 -16.5q12 -4 12 -17v-26h-274v24q0 16 12 19q41 6 50 16t9 27l-16 268l-176 -350q-4 -6 -7 -10t-10 -4q-6 0 -8 2l-235 428l-21 -334q0 -16 9.5 -26.5t56.5 -16.5 q12 -4 12 -17v-26h-213z" />
<glyph unicode="&#x25fc;" horiz-adv-x="901" d="M0 0v901h901v-901h-901z" />
<glyph unicode="&#xfb03;" horiz-adv-x="1507" d="M-313 -494q10 35 23.5 88.5t17.5 98.5l45 14q27 -35 51 -58.5t61 -23.5q53 0 93 117t77 334l121 717h-156q4 33 16.5 60.5t41.5 27.5h112l23 139q14 86 59 159.5t107.5 128t136.5 84t146 29.5q41 0 104 -20.5t125 -59.5q66 55 141.5 86t143.5 31q66 0 138 -24.5 t124 -94.5q-39 -23 -73 -52.5t-58 -63.5l-37 4q-33 66 -79 93.5t-87 27.5q-31 0 -56.5 -17.5t-48 -61.5t-42 -120t-39.5 -195l-13 -73h246q74 0 113 8t73 8q16 0 30.5 -8t14.5 -29q0 -6 -1 -16t-3 -21l-129 -637q-6 -29 -5 -42t18 -13q12 0 29.5 7t33.5 16.5t30.5 16.5 t22.5 7q16 0 25.5 -17.5t11.5 -33.5q-33 -23 -77 -49.5t-90 -49t-90 -38t-77 -15.5q-35 0 -58.5 14.5t-23.5 49.5q0 12 2.5 23.5t4.5 19.5l139 657q2 10 -1 19.5t-18 11.5q-23 2 -54.5 5t-65 5t-65.5 4t-50 2l-98 -573q-49 -281 -151.5 -450t-240.5 -248q-23 -12 -50 -21.5 t-62 -9.5q-23 0 -54.5 6t-56.5 16q10 35 23.5 88.5t17.5 98.5l45 14q27 -35 51.5 -58.5t61.5 -23.5q53 0 93 117t77 334l121 717h-267l-100 -580q-49 -281 -151.5 -450t-239.5 -248q-23 -12 -50.5 -21.5t-62.5 -9.5q-23 0 -54.5 6t-55.5 16zM414 881h268l31 174 q8 41 23.5 81t37.5 74q-41 45 -89 70t-97 25q-27 0 -47.5 -10.5t-40 -46.5t-37 -105.5t-37.5 -188.5z" />
<glyph unicode="&#xfb04;" horiz-adv-x="1533" d="M-313 -494q10 35 23.5 88.5t17.5 98.5l45 14q27 -35 51 -58.5t61 -23.5q53 0 93 117t77 334l121 717h-156q4 33 16.5 60.5t41.5 27.5h112l23 139q14 86 59 159.5t107.5 128t136.5 84t146 29.5q41 0 104 -19.5t125 -58.5q61 53 133 84t139 31q14 0 39 -3t54.5 -10 t61.5 -18.5t62 -27.5q18 6 40 15t50 20q39 -16 39 -56q0 -8 -2 -19t-4 -20l-225 -1153q-6 -29 -5 -42t17 -13q12 0 29.5 7t34 16.5t31 16.5t22.5 7q16 0 25.5 -17.5t11.5 -33.5q-33 -23 -77 -49.5t-90 -49t-90 -38t-77 -15.5q-35 0 -58.5 14.5t-23.5 49.5q0 12 2 23.5 t4 19.5l199 983q10 55 16 107.5t8 89.5q-29 35 -80 57t-85 22q-27 0 -48.5 -16t-41 -59t-38 -118t-38.5 -194l-13 -73h201q-10 -25 -17 -57.5t-12 -59.5q-47 10 -96 15t-90 7l-98 -573q-49 -281 -151.5 -450t-239.5 -248q-23 -12 -50.5 -21.5t-62.5 -9.5q-23 0 -54.5 6 t-56.5 16q10 35 23.5 88.5t17.5 98.5l45 14q27 -35 51.5 -58.5t61.5 -23.5q53 0 91 117t79 334l121 717h-275l-100 -580q-49 -281 -151.5 -450t-239.5 -248q-23 -12 -50.5 -21.5t-62.5 -9.5q-23 0 -54.5 6t-55.5 16zM414 881h276l31 174q16 86 57 153q-41 45 -90 71t-100 26 q-27 0 -47.5 -10.5t-40 -46.5t-37 -105.5t-37.5 -188.5z" />
</font>
</defs>
</svg>
