<?xml version="1.0" standalone="no"?>
<!DOCTYPE svg PUBLIC "-//W3C//DTD SVG 1.1//EN" "http://www.w3.org/Graphics/SVG/1.1/DTD/svg11.dtd" >
<svg xmlns="http://www.w3.org/2000/svg">
<metadata></metadata>
<defs>
<font id="athelasitalic" horiz-adv-x="1024" >
<font-face units-per-em="2048" ascent="1638" descent="-410" />
<missing-glyph horiz-adv-x="430" />
<glyph unicode="&#xfb01;" horiz-adv-x="983" d="M-274 -502q12 37 20 80t12 90l31 13q23 -29 50.5 -47.5t60.5 -18.5q70 0 112.5 114.5t81.5 340.5l127 741h-160q10 70 43 70h127l31 182q12 74 51 144.5t95.5 126t127 89t148.5 33.5q176 0 256 -108q-35 -23 -65.5 -48.5t-59.5 -64.5l-31 4q-16 51 -62 87t-104 36 q-43 0 -73.5 -15.5t-55 -59.5t-46 -122t-42.5 -202l-14 -82h275q63 0 100 4t65 4q14 0 24.5 -7.5t10.5 -25.5q0 -12 -4 -33l-133 -655q-4 -16 -4 -26.5v-16.5q0 -8 4 -15.5t18 -7.5t29.5 7.5t31 16.5t29 16.5t21.5 7.5q20 0 27 -41q-35 -27 -75 -50.5t-77 -42t-69.5 -30 t-53.5 -11.5q-23 0 -42 9.5t-19 44.5q0 6 2 21.5t4 21.5q37 178 60.5 297.5t39 197.5t24.5 121t13 72q4 27 -20 28q-25 2 -64 5.5t-82 5.5t-83 4t-62 2l-103 -594q-27 -150 -62.5 -262.5t-82.5 -196.5t-103.5 -142.5t-123.5 -96.5q-23 -12 -45.5 -20.5t-51.5 -8.5 q-41 0 -79 14z" />
<glyph unicode="&#xfb02;" horiz-adv-x="991" d="M-274 -502q12 37 20 80t12 90l31 13q23 -29 50.5 -47.5t60.5 -18.5q70 0 112.5 114.5t81.5 340.5l127 741h-160q10 70 43 70h127l25 137q18 96 58 177t96.5 139.5t125 90t142.5 31.5q41 0 92 -14.5t92 -40.5q23 8 41.5 15t44.5 18q14 -10 18.5 -19.5t4.5 -19.5 q0 -12 -4 -33l-232 -1194q-6 -31 -6 -45q0 -20 23 -21q14 0 29.5 7.5t30.5 16.5t28.5 16.5t21.5 7.5q20 0 27 -41q-35 -27 -75 -50.5t-77 -42t-69.5 -30t-53.5 -11.5q-23 0 -42 9.5t-19 44.5q0 6 2 20t4 23l193 989q12 66 18 123t6 90q-29 41 -75 64.5t-89 23.5 q-41 0 -71.5 -15.5t-55 -58.5t-45 -122t-39.5 -203l-12 -82h211q-8 -20 -13 -43t-9 -52q-100 14 -201 19l-103 -594q-27 -152 -62.5 -264.5t-82.5 -195.5t-103.5 -141.5t-123.5 -96.5q-23 -12 -45.5 -20.5t-51.5 -8.5q-41 0 -79 14z" />
<glyph horiz-adv-x="0" />
<glyph unicode="&#xd;" />
<glyph unicode=" "  horiz-adv-x="430" />
<glyph unicode="&#x09;" horiz-adv-x="430" />
<glyph unicode="&#xa0;" horiz-adv-x="430" />
<glyph unicode="!" horiz-adv-x="514" d="M39 94q0 59 33.5 99t87.5 40q53 0 82.5 -33.5t29.5 -84.5q0 -61 -34.5 -100.5t-83.5 -39.5q-59 0 -87 33t-28 86zM164 377l112 954q27 12 54.5 18.5t50.5 6.5q57 0 82.5 -29t11.5 -70q-63 -180 -129.5 -415.5t-114.5 -497.5q-49 -8 -59 4t-8 29z" />
<glyph unicode="&#x22;" horiz-adv-x="552" d="M117 942l43 358q35 18 64.5 24.5t51.5 6.5q68 0 68 -39q0 -10 -2 -19t-10 -26q-23 -43 -40.5 -81t-33.5 -78.5t-34.5 -87t-39.5 -105.5q-41 0 -56 11.5t-11 35.5zM383 942l43 358q35 18 64.5 24.5t52.5 6.5q68 0 67 -39q0 -10 -2 -19t-10 -26q-23 -43 -40 -81 t-33.5 -78.5t-35 -87t-38.5 -105.5q-41 0 -56.5 11.5t-11.5 35.5z" />
<glyph unicode="#" horiz-adv-x="1110" d="M68 236q-2 41 12 71.5t49 30.5h139l74 276h-201q-2 41 12.5 72t49.5 31h168l63 237q59 -4 78.5 -13t19.5 -30q0 -8 -2 -14l-49 -180h217l64 237q59 -4 78.5 -13t19.5 -30q0 -8 -2 -14l-49 -180h176q0 -41 -13.5 -72t-47.5 -31h-142l-73 -276h202q0 -41 -13 -71.5 t-48 -30.5h-170l-70 -263q-59 4 -78.5 14.5t-19.5 28.5q0 8 2 15l55 205h-217l-69 -263q-59 4 -79 14.5t-20 28.5q0 8 2 15l56 205h-174zM381 338h215l74 276h-215z" />
<glyph unicode="$" horiz-adv-x="1052" d="M45 113q18 162 12 317q27 6 41 6q29 0 36 -10t11 -37q10 -63 24.5 -113.5t40.5 -87t63.5 -58t95.5 -28.5l100 488q-45 35 -88 71.5t-78 79.5t-56.5 94.5t-21.5 112.5q0 55 21.5 116.5t67.5 113t119 86t175 39.5l27 137q49 -12 63.5 -28.5t10.5 -45.5l-13 -68 q84 -10 150.5 -32.5t124.5 -57.5q-8 -55 -11.5 -107t-1.5 -118q-6 -2 -16 -4t-22 -2t-26.5 5t-19.5 26q-16 96 -68 144t-126 62l-88 -450q55 -43 106.5 -83t89 -83t60 -95t22.5 -120q0 -72 -27.5 -136.5t-80.5 -113.5t-134 -81t-188 -38l-30 -157q-47 12 -63.5 27.5 t-10.5 43.5l16 86q-98 6 -178 35t-129 64zM379 1034q0 -59 38 -112.5t97 -104.5l78 402q-94 -4 -153.5 -54.5t-59.5 -130.5zM457 102q102 10 167.5 59.5t65.5 147.5q0 43 -11 75t-29.5 57.5t-44 49t-56.5 48.5z" />
<glyph unicode="%" horiz-adv-x="1540" d="M51 829q0 115 32 208t84 159t118.5 100.5t138.5 34.5q115 0 172 -66.5t57 -187.5q0 -96 -27.5 -186t-77.5 -159.5t-120 -113t-152 -43.5q-111 0 -168 72.5t-57 181.5zM158 2l1001 1309q20 29 48 22.5t65 -30.5l-998 -1305q-20 -29 -50.5 -23.5t-65.5 27.5zM203 803 q0 -78 19.5 -122t66.5 -44q51 0 91 44t66.5 113.5t41 153.5t14.5 162q0 158 -88 158q-47 0 -86 -39t-67 -103.5t-43 -148.5t-15 -174zM797 229q0 115 31.5 208t84 159t119 100.5t137.5 34.5q115 0 172.5 -67.5t57.5 -186.5q0 -96 -28 -186t-78 -160t-119.5 -113t-151.5 -43 q-111 0 -168 72.5t-57 181.5zM948 203q0 -78 19.5 -122t66.5 -44q51 0 91 44t67 113.5t41 153.5t14 162q0 158 -88 158q-47 0 -86 -39t-66.5 -103.5t-43 -148.5t-15.5 -174z" />
<glyph unicode="&#x26;" horiz-adv-x="1562" d="M80 375q0 139 93 238.5t273 127.5v4q-104 39 -158.5 107t-54.5 154q0 88 40 149.5t103.5 100t139.5 56t148 17.5q127 0 226 -36t159 -81q20 -16 4.5 -50t-64.5 -62q-49 -29 -94 22q-53 59 -114.5 94t-139.5 35q-35 0 -73 -9t-71.5 -36.5t-55 -76t-21.5 -123.5 q0 -31 8 -69t34.5 -74t77 -65.5t136.5 -43.5l-17 -66q-27 4 -41 4h-26q-88 0 -148.5 -23.5t-97.5 -61.5t-52 -88t-15 -101q0 -90 30.5 -157.5t83.5 -113t127 -68t160 -22.5q98 0 182 26t144.5 72t94.5 109.5t34 141.5q0 39 -8.5 78.5t-33 71.5t-68.5 52.5t-116 20.5 q-45 0 -66.5 -19.5t-21.5 -66.5q0 -18 4 -29.5t4 -21.5q0 -25 -17 -35.5t-44 -10.5q-25 0 -49.5 12.5t-38.5 37.5q12 57 45 101t75 73.5t87 45t84 15.5q57 0 102 -12t87 -27.5t85 -28t96 -12.5t67.5 23.5t14.5 52.5q0 23 -6 40t-6 34q0 20 16.5 30.5t38.5 10.5q53 0 101 -56 q-35 -123 -105.5 -179t-169.5 -56q-66 0 -112 10q16 -31 27.5 -70.5t11.5 -89.5q0 -59 -28 -132.5t-96.5 -138t-187.5 -110t-303 -45.5q-86 0 -178 19.5t-169 65.5t-127 123t-50 192z" />
<glyph unicode="'" horiz-adv-x="286" d="M117 942l43 358q35 18 64.5 24.5t51.5 6.5q68 0 68 -39q0 -10 -2 -19t-10 -26q-23 -43 -40.5 -81t-33.5 -78.5t-34.5 -87t-39.5 -105.5q-41 0 -56 11.5t-11 35.5z" />
<glyph unicode="(" horiz-adv-x="634" d="M90 336q0 317 156.5 577.5t462.5 477.5q8 -6 14 -14.5t6 -22.5t-12 -27q-236 -201 -349.5 -447.5t-113.5 -510.5q0 -72 5 -145.5t21.5 -151.5t50.5 -163t91 -181q10 -16 10 -31q0 -20 -24 -35q-317 309 -318 674z" />
<glyph unicode=")" horiz-adv-x="634" d="M-158 -301q0 14 13 27q236 201 349 445.5t113 508.5q0 72 -5 145.5t-21.5 152.5t-50 165t-90.5 182q-10 16 -11 31q0 18 25 35q317 -309 317 -678q0 -317 -156.5 -575.5t-461.5 -475.5q-8 6 -14.5 14.5t-6.5 22.5z" />
<glyph unicode="*" horiz-adv-x="684" d="M133 1018q0 23 30 35t68.5 17t76.5 6t54 1q8 0 15.5 -6t7.5 -22q-47 -29 -90 -62t-86 -80l-27 6l-18 27q-14 23 -22.5 40t-8.5 38zM164 1200l14 29q6 12 23.5 40.5t44.5 28.5q47 0 149 -172q4 -6 4 -12q0 -12 -16 -22q-43 23 -95 44t-116 38zM307 823q0 29 22.5 79 t59.5 122q6 10 17 10q8 0 18 -6q2 -55 8 -107.5t25 -117.5l-17 -21l-43 -2h-25.5t-29.5 4t-24.5 13.5t-10.5 25.5zM381 1346l16 20l43 2h25.5t30 -4t24.5 -13.5t10 -25.5q0 -29 -22.5 -79t-58.5 -122q-6 -10 -17 -10q-10 0 -18 6q-2 55 -8.5 107.5t-24.5 118.5zM440 1032 q1 13 17 23q43 -23 95 -44.5t116 -37.5l8 -27l-14 -28q-6 -12 -23.5 -41t-44.5 -29q-47 0 -150 172q-4 6 -4 12zM453 1100q47 29 90 61.5t86 79.5l26 -6l19 -27q14 -23 22.5 -40t8.5 -38q0 -23 -30 -35t-69 -17t-76.5 -6t-54.5 -1q-8 0 -15 6.5t-7 22.5z" />
<glyph unicode="+" horiz-adv-x="1011" d="M23 406q8 66 25.5 88t55.5 22h299v303q0 31 20.5 48.5t92.5 25.5v-377h395q-8 -66 -26.5 -88t-57.5 -22h-311v-330q0 -35 -20.5 -50.5t-92.5 -23.5v404h-380z" />
<glyph unicode="," horiz-adv-x="421" d="M-74 -238q0 18 21 35q74 61 103.5 107.5t29.5 81.5q0 25 -14.5 42t-31 31.5t-30.5 27.5t-14 32q0 53 112 119q59 -31 97.5 -79t38.5 -110q0 -68 -61.5 -154t-219.5 -176q-31 18 -31 43z" />
<glyph unicode="-" horiz-adv-x="632" d="M51 436q8 66 25.5 86.5t56.5 20.5h406q-8 -66 -26.5 -86.5t-55.5 -20.5h-406z" />
<glyph unicode="." horiz-adv-x="393" d="M-6 94q0 59 33.5 99t87.5 40q53 0 82.5 -33.5t29.5 -84.5q0 -61 -34.5 -100.5t-83.5 -39.5q-59 0 -87 33t-28 86z" />
<glyph unicode="/" horiz-adv-x="583" d="M-80 -47l633 1423q10 20 21.5 30.5t35.5 10.5q33 0 76 -14l-631 -1421q-10 -23 -21 -33t-40 -10q-14 0 -31.5 4t-42.5 10z" />
<glyph unicode="0" horiz-adv-x="1069" d="M16 362q0 123 46.5 235t125 196t184 133t224.5 49q178 0 279.5 -97.5t101.5 -277.5q0 -123 -44 -236.5t-121 -199.5t-181.5 -137.5t-227.5 -51.5q-190 0 -288.5 105.5t-98.5 281.5zM217 348q0 -143 56.5 -215t148.5 -72q80 0 145.5 48.5t112.5 126t72.5 179t25.5 208.5 q0 141 -55 203.5t-143 62.5q-72 0 -136.5 -38t-116 -108.5t-81 -171t-29.5 -223.5z" />
<glyph unicode="1" horiz-adv-x="688" d="M-47 20q0 33 27 37q53 8 85.5 18.5t51 23t26 28.5t11.5 37l118 620q6 33 -6 51.5t-33.5 27.5t-48 13.5t-51.5 8.5q-14 2 -24.5 9t-10.5 26v14t4 24q61 -6 136 -9t145 -3q23 0 57.5 1t72.5 2t75 3t63 4q4 -12 4 -20v-14q0 -10 -5 -21.5t-19 -13.5q-55 -6 -88 -13.5 t-50.5 -19.5t-24.5 -29.5t-11 -44.5l-117 -622q-6 -31 3 -48.5t29.5 -27.5t50.5 -15.5t62 -11.5q29 -2 29 -30q0 -16 -4 -37q-63 6 -140 9t-143 3q-23 0 -56.5 -1t-72.5 -2t-75.5 -4t-63.5 -5q-2 4 -4 13t-2 19z" />
<glyph unicode="2" horiz-adv-x="923" d="M-29 0l6 45q147 113 250 197t170.5 147.5t105.5 109.5t56.5 80.5t22.5 62.5t4 56q0 63 -40 105.5t-122 42.5q-72 0 -137.5 -25.5t-145.5 -91.5q-8 -6 -18 -11t-21 -5q-26 -1 -49 32q106 119 212 174.5t229 55.5q76 0 132 -20.5t93 -54.5t54.5 -78t17.5 -91 q0 -66 -29 -124t-94.5 -124.5t-171 -146.5t-260.5 -191h342q45 0 79.5 21.5t69.5 75.5q10 16 18.5 23t24.5 7q10 0 23.5 -3t23.5 -7q-29 -53 -54.5 -119.5t-41.5 -124.5q-6 -16 -13.5 -21t-23.5 -5q-41 0 -101.5 4t-131.5 4h-480z" />
<glyph unicode="3" horiz-adv-x="856" d="M-115 -319q0 16 8.5 23t22.5 11q88 25 182.5 61t172 90t128 131t50.5 185q0 72 -42 114t-116 42q-37 0 -86 -10.5t-113 -36.5l12 74q63 29 136 61.5t134.5 76.5t101.5 101.5t40 134.5q0 47 -29.5 77t-97.5 30q-57 0 -111.5 -21.5t-123.5 -68.5q-6 -4 -15.5 -10.5 t-19.5 -6.5q-14 0 -27.5 7.5t-19.5 23.5q104 92 202.5 148.5t210.5 56.5q109 0 172.5 -49t63.5 -144q0 -57 -24.5 -103t-63.5 -85t-88 -70.5t-99 -58.5l-2 -4q117 -29 173.5 -94.5t56.5 -151.5q0 -88 -36 -159.5t-95.5 -130t-138 -104.5t-164.5 -80t-175.5 -58.5 t-168.5 -40.5q-10 20 -11 39z" />
<glyph unicode="4" horiz-adv-x="966" d="M-66 35q0 35 27 65l729 826q18 20 47 20h86l-151 -815h172l-23 -131h-172l-63 -326h-183l62 326h-526q-4 20 -5 35zM96 131h393l111 574z" />
<glyph unicode="5" horiz-adv-x="825" d="M-141 -336q0 23 26 29q86 31 187.5 78t188.5 113.5t145.5 153.5t58.5 198q0 76 -42 121.5t-142 45.5q-43 0 -105.5 -9t-124.5 -25l148 577h575l-16 -88q-4 -27 -21.5 -50.5t-58.5 -23.5h-410l-96 -303q113 39 221 39q137 0 214 -68.5t77 -181.5q0 -90 -37 -167.5 t-99.5 -142t-145.5 -117t-173 -94.5t-182 -73.5t-174 -54.5q-14 20 -14 43z" />
<glyph unicode="6" horiz-adv-x="968" d="M37 426q0 166 64.5 313.5t183 266t282.5 202.5t365 125q16 -20 16 -41q0 -18 -16 -32q-123 -43 -225.5 -93.5t-183.5 -113t-139 -142.5t-93 -182q109 96 256 96q57 0 113.5 -19.5t100.5 -61.5t71.5 -107.5t27.5 -157.5q0 -78 -32.5 -166t-93 -163.5t-145.5 -126 t-192 -50.5q-109 0 -178 38t-110 101.5t-56.5 145.5t-15.5 168zM233 375q0 -143 45.5 -234.5t127.5 -91.5q51 0 98 28.5t83 82t57.5 128t21.5 167.5q0 129 -54.5 198.5t-146.5 69.5q-100 0 -166 -85t-66 -263z" />
<glyph unicode="7" horiz-adv-x="862" d="M20 -362q0 16 11 43q78 248 251 533.5t439 576.5h-465q-41 0 -67.5 -20.5t-61.5 -88.5q-4 -10 -16.5 -15t-26.5 -5q-23 0 -41 8q31 76 48.5 136t27.5 118q4 20 12 25t25 5q37 0 91 -4t132 -4h528v-45q-139 -172 -243.5 -325.5t-182.5 -297t-133 -281.5t-94 -280 q-12 -49 -12 -77q-20 -2 -47 -4.5t-54.5 -5.5t-54.5 -8t-47 -11q-18 12 -19 27z" />
<glyph unicode="8" horiz-adv-x="966" d="M2 260q0 109 80 209t262 190q-57 43 -92 82t-53.5 75t-23.5 72t-5 73q0 57 26.5 117.5t78 109.5t127.5 80.5t176 31.5q141 0 226 -71.5t85 -181.5q0 -92 -78 -180.5t-215 -159.5q70 -55 117 -98.5t76.5 -81.5t42 -75.5t12.5 -82.5q0 -96 -46 -170t-117 -123t-154 -75 t-156 -26q-80 0 -147.5 17.5t-117 53.5t-77 89t-27.5 125zM176 295q0 -68 18.5 -114t49 -73.5t68.5 -40t79 -12.5q51 0 100.5 17.5t87 49.5t60.5 77t23 102q0 33 -9.5 61.5t-37 64.5t-79 81t-133.5 108q-117 -72 -172 -147.5t-55 -173.5zM352 1012q0 -37 9.5 -70t31 -63.5 t56 -63.5t86.5 -70q119 76 161.5 146t42.5 145q0 86 -48 135.5t-138 49.5t-145.5 -61.5t-55.5 -147.5z" />
<glyph unicode="9" horiz-adv-x="970" d="M-35 -342q1 19 17 31q119 45 218 95t178 112.5t137 141.5t93 181q-57 -47 -118.5 -70.5t-137.5 -23.5q-59 0 -115.5 22.5t-100.5 67.5t-70.5 113.5t-26.5 160.5q0 84 32.5 171.5t93 157t145.5 113.5t192 44q106 0 177 -38t111.5 -101.5t57 -144.5t16.5 -169 q0 -166 -65.5 -312.5t-182 -264t-278.5 -202.5t-354 -128q-8 12 -13.5 22.5t-5.5 20.5zM231 502q0 -131 54.5 -203t146.5 -72q98 0 166 84t68 264q0 143 -44 232.5t-143 89.5q-49 0 -94 -27.5t-79 -79t-54.5 -125t-20.5 -163.5z" />
<glyph unicode=":" horiz-adv-x="393" d="M-6 94q0 59 33.5 99t87.5 40q53 0 82.5 -33.5t29.5 -84.5q0 -61 -34.5 -100.5t-83.5 -39.5q-59 0 -87 33t-28 86zM100 750q0 59 34 99t87 40t83 -34t30 -85q0 -61 -35 -100t-84 -39q-59 0 -87 33t-28 86z" />
<glyph unicode=";" horiz-adv-x="417" d="M-74 -238q0 18 21 35q74 61 103.5 107.5t29.5 81.5q0 25 -14.5 42t-31 31.5t-30.5 27.5t-14 32q0 53 112 119q59 -31 97.5 -79t38.5 -110q0 -68 -61.5 -154t-219.5 -176q-31 18 -31 43zM104 750q0 59 34 99t87 40t83 -34t30 -85q0 -61 -35 -100t-84 -39q-59 0 -87 33 t-28 86z" />
<glyph unicode="&#x3c;" horiz-adv-x="1011" d="M84 428q0 18 12.5 28.5t28.5 20.5l739 400q20 -41 24.5 -77t-24.5 -50l-610 -324l666 -356q-23 -49 -54.5 -66.5t-60.5 -1.5l-715 383q-6 27 -6 43z" />
<glyph unicode="=" horiz-adv-x="1011" d="M10 223q8 66 26.5 88.5t55.5 22.5h807q-10 -66 -29.5 -88.5t-54.5 -22.5h-805zM51 614q8 66 26.5 88.5t55.5 22.5h807q-10 -66 -28.5 -88.5t-55.5 -22.5h-805z" />
<glyph unicode="&#x3e;" horiz-adv-x="1011" d="M51 70l666 356l-611 324q-29 14 -24.5 50t24.5 77l740 -400q16 -10 28.5 -20.5t12.5 -28.5q0 -16 -6 -43l-715 -383q-29 -16 -60.5 1t-54.5 67z" />
<glyph unicode="?" horiz-adv-x="735" d="M125 94q0 59 34 99t87 40t82.5 -33.5t29.5 -84.5q0 -61 -34.5 -100.5t-83.5 -39.5q-59 0 -87 33t-28 86zM147 623q0 90 69 154.5t175 131.5q41 27 81 52.5t71.5 52t51 55.5t19.5 61q0 57 -42 82t-91 25q-35 0 -74.5 -18.5t-87.5 -63.5q-18 -16 -28 -22.5t-25 -6.5 q-16 0 -34.5 10.5t-33 24t-23.5 28.5t-9 28q0 12 8 22t21 21q23 18 52 35.5t62 30.5t66 21.5t63 8.5q74 0 127 -25.5t89 -67.5t53.5 -93.5t17.5 -100.5q0 -43 -18.5 -80t-50 -69.5t-73.5 -62.5t-89 -60q-39 -25 -77 -49.5t-68 -50t-48 -53.5t-18 -58q0 -39 10 -74t37 -100 q6 -16 2 -32t-37 -26q-45 53 -73.5 93t-45 72t-23 56.5t-6.5 47.5z" />
<glyph unicode="@" horiz-adv-x="1644" d="M27 371q0 188 68.5 352t187 284.5t277.5 190.5t341 70q143 0 264 -45t207 -127t134 -195t48 -248q0 -68 -12 -142.5t-36.5 -147t-63.5 -138t-94.5 -116t-126 -80t-158.5 -29.5q-68 0 -96.5 33t-33.5 84t5 112.5t20 118.5h-8q-43 -102 -91 -170.5t-98 -108.5t-101.5 -56.5 t-100.5 -16.5q-29 0 -55.5 7t-47 28.5t-32.5 58.5t-12 96q0 176 50 310.5t129 224.5t175 136t186 46q78 0 132.5 -6t125.5 -20l-135 -687q-8 -41 2 -76.5t56 -35.5q53 0 109 44t103.5 120.5t78 183t30.5 229.5q0 121 -47 220.5t-127 171t-185.5 111.5t-222.5 40 q-154 0 -287.5 -60.5t-235 -169t-160 -263t-58.5 -340.5q0 -150 55.5 -275t151.5 -214t223 -138t273 -49q133 0 246.5 25.5t215.5 74.5q16 8 29 8q27 0 51 -30q-102 -76 -248.5 -116t-300.5 -40q-176 0 -322.5 53t-253 151.5t-165.5 239t-59 316.5zM584 264 q0 -76 23.5 -103.5t54.5 -27.5q39 0 81.5 36t84.5 93t79 130t65.5 146.5t46 141.5t17.5 117q-29 10 -56.5 15t-55.5 5q-168 0 -254 -146.5t-86 -406.5z" />
<glyph unicode="A" horiz-adv-x="1181" d="M-135 18q0 27 35 33q106 18 137 78l655 1206q12 20 31 21q6 0 12 -2t10 -4l220 -1215q6 -37 36.5 -55.5t79.5 -26.5q27 -4 35 -12t8 -21q0 -10 -4 -30q-57 4 -109.5 7t-107.5 3q-121 0 -239 -12q-6 14 -7 30q0 27 39 33q27 4 57.5 18.5t30.5 45.5v12t-2 18l-61 342h-393 l-183 -335q-14 -29 -14 -48q0 -25 27.5 -36t85.5 -19q37 -6 37 -31q0 -10 -5 -30q-61 6 -113 9t-110 3q-41 0 -85 -2t-97 -10l-4 16t-2 14zM369 565h338l-80 477z" />
<glyph unicode="B" horiz-adv-x="1138" d="M16 20q0 10 6.5 18.5t18.5 10.5q117 14 131 90l203 1051q4 25 -3 38t-23.5 21t-40 11.5t-54.5 7.5q-10 2 -19.5 9t-9.5 23q0 6 1 13.5t3 17.5h449q98 0 167.5 -20.5t114 -56t63.5 -83t19 -102.5q0 -111 -79.5 -204t-202.5 -152q51 -8 102 -25.5t93 -49.5t68 -79t26 -113 q0 -100 -45.5 -182t-121 -140t-176 -91t-210.5 -33h-271q-43 0 -96 -3t-109 -9q-2 10 -3 17t-1 15zM344 133q-2 -11 -2 -20q0 -16 7 -23q11 -12 46 -12h33q88 0 166 16.5t135 55t90 104t33 164.5q0 117 -86 178t-250 61h-70zM461 735q209 0 299 85t90 245q0 92 -56.5 140 t-197.5 48h-39z" />
<glyph unicode="C" horiz-adv-x="1255" d="M70 524q0 150 49 298.5t147.5 267t247 192.5t348.5 74q102 0 197.5 -16.5t183.5 -45.5q-6 -59 -6 -116q0 -41 3 -82t7 -82q-14 -10 -37 -10q-39 0 -41 30q-18 135 -100 188.5t-219 53.5q-135 0 -241.5 -58.5t-181.5 -159t-114 -234.5t-39 -283q0 -111 30 -200t83 -151.5 t130 -97.5t173 -35q139 0 220 57.5t141 184.5q14 33 49 33q12 0 25.5 -5t17.5 -10q-31 -66 -54.5 -138.5t-48.5 -162.5q-45 -8 -96 -15t-102 -13t-96 -9.5t-78 -3.5q-162 0 -275.5 43t-185.5 118t-104.5 174.5t-32.5 213.5z" />
<glyph unicode="D" horiz-adv-x="1495" d="M8 20q0 25 25 31q61 12 96 29.5t43 58.5l203 1053q2 10 2 19q1 29 -19 41q-26 16 -92 26q-25 2 -24 31q0 6 1 15t3 19q61 -6 120.5 -9t112.5 -3h283q141 0 260 -34.5t205 -104.5t134 -175.5t48 -244.5q0 -172 -66.5 -314.5t-181 -243.5t-270.5 -157.5t-336 -56.5h-309 q-43 0 -110.5 -3t-123.5 -9q-4 20 -4 32zM350 145q-2 -11 -2 -20q0 -23 12 -33q16 -14 54 -14h98q137 0 263 38t221.5 118.5t151.5 209t56 306.5q0 135 -35.5 231t-104.5 156.5t-169 88t-229 27.5h-105z" />
<glyph unicode="E" horiz-adv-x="1136" d="M12 20q0 10 6.5 20.5t22.5 12.5q63 10 94 30.5t37 55.5l203 1053q2 9 2 16q-1 30 -25 44q-30 18 -80 24q-29 6 -28 35q0 6 1 14t3 18q61 -6 124.5 -9t119.5 -3h387q88 0 122.5 6t57.5 6q27 0 33 -24q4 -35 10 -105.5t24 -160.5q-8 -4 -20 -9.5t-23 -5.5q-27 0 -34 25 q-27 104 -78 147t-154 43h-256l-102 -534h280q45 0 65.5 30.5t37.5 84.5q4 10 11 16t24 6q18 0 38 -8q-12 -49 -21 -89t-16.5 -81t-12.5 -86t-9 -103q-18 -6 -37 -6q-18 0 -25.5 10.5t-5.5 22.5q1 12 1 23q0 34 -9 63q-12 39 -57 39h-279l-96 -508q-6 -33 9.5 -44t50.5 -11 h235q88 0 157.5 45t145.5 156q8 10 15.5 15t19.5 5t24.5 -6t22.5 -17q-10 -20 -20 -43q-10 -18 -20.5 -42.5t-20.5 -49.5q-16 -41 -26.5 -79.5t-20.5 -55.5q-10 -16 -33 -16q-35 0 -70 5t-94 5h-483q-43 0 -105.5 -3t-118.5 -9q-2 10 -3 18t-1 14z" />
<glyph unicode="F" horiz-adv-x="1081" d="M16 23q0 10 8.5 20t24.5 12q39 4 77 22.5t46 61.5l203 1053q4 25 -4.5 39t-24.5 23.5t-35.5 14.5t-38.5 7q-29 4 -28 35q0 6 1 14t3 18q61 -6 125.5 -9t118.5 -3h389q45 0 73.5 2t49 4t34 4t25.5 2q29 0 31 -24q4 -33 10 -102.5t24 -159.5q-6 -4 -16 -9.5t-27 -5.5 q-25 0 -30 23q-16 51 -35 87t-45.5 58.5t-63.5 32.5t-90 10h-260l-106 -557h280q45 0 67.5 35t39.5 88q4 8 12 15.5t23 7.5q8 0 18 -2l20 -4q-14 -45 -23 -83t-16.5 -78t-12.5 -88t-11 -112q-18 -6 -39 -6q-27 0 -27 29v38.5t-6 39t-20.5 30.5t-40.5 12h-279l-92 -481 q-4 -23 9.5 -37t35 -23t48 -14.5t48.5 -7.5q12 -2 22.5 -9t10.5 -23q0 -6 -1 -15.5t-3 -19.5q-31 2 -68.5 5t-75.5 4t-73 2t-61 1q-43 0 -103.5 -3t-116.5 -9q-2 10 -3 19t-1 16z" />
<glyph unicode="G" horiz-adv-x="1351" d="M74 535q0 141 48 287.5t144 265t243.5 193.5t346.5 75q102 0 196.5 -15.5t200.5 -44.5q-5 -72 -5 -126v-18q1 -60 9 -136q-12 -12 -36 -12q-35 0 -41 30q-18 129 -97 185.5t-225 56.5q-145 0 -253.5 -59.5t-181.5 -160t-110 -234.5t-37 -281q0 -111 29 -200t83 -151.5 t131 -97.5t173 -35q61 0 121.5 3t95.5 12l66 348q4 20 -5 35.5t-25.5 26t-36 16.5t-36.5 10q-8 2 -16 7t-8 22q0 10 6 32q125 -12 233 -12q43 0 99.5 3t109.5 9q4 -20 4 -28q0 -29 -26 -35q-49 -8 -81 -28.5t-40 -59.5l-72 -371q-4 -23 -20.5 -36t-52.5 -17 q-90 -10 -180.5 -14.5t-196.5 -4.5q-145 0 -251 43t-173.5 119t-100 178.5t-32.5 219.5z" />
<glyph unicode="H" horiz-adv-x="1474" d="M16 20q0 27 27 29q66 10 93.5 29.5t35.5 60.5l203 1051q2 11 2 21q1 25 -15 41q-22 22 -88 32q-29 2 -28 29q0 14 6 30q59 -6 117.5 -9t109.5 -3q41 0 107.5 3t122.5 9q6 -16 6 -30q0 -25 -29 -29q-66 -10 -96.5 -31.5t-38.5 -62.5l-92 -469h581l93 469q2 11 2 20 q-1 26 -17 40q-22 20 -86 30q-29 6 -28 29q0 6 2 15t4 17q61 -4 121.5 -8t109.5 -4q43 0 104.5 3t116.5 9q4 -16 4 -32q0 -25 -26 -27q-61 -10 -91 -30.5t-38 -61.5l-201 -1051q-2 -10 -2 -18q0 -27 20 -41q26 -18 86 -29q27 -6 27 -31q0 -12 -4 -32q-59 6 -123.5 9 t-116.5 3q-41 0 -104.5 -3t-118.5 -9q-4 20 -4 32q0 27 25 31q72 12 99.5 29.5t35.5 58.5l96 502h-582l-96 -502q-2 -10 -2 -19q0 -26 18 -40q24 -18 93 -29q27 -2 26 -31q0 -12 -4 -32q-61 6 -126.5 9t-116.5 3q-41 0 -100.5 -3t-112.5 -9q-6 14 -7 32z" />
<glyph unicode="I" horiz-adv-x="712" d="M14 20q0 25 25 29q66 10 94.5 29.5t36.5 60.5l203 1053q2 11 2 21q1 25 -15 39q-22 20 -88 28q-29 6 -28 33q0 6 2 13t4 17q61 -6 120.5 -9t110.5 -3q43 0 104.5 3t116.5 9q4 -20 5 -30q0 -29 -29 -31q-66 -8 -92.5 -28.5t-34.5 -61.5l-203 -1053q-2 -11 -2 -20 q0 -25 16 -39q22 -18 93 -29q27 -6 26 -31q0 -12 -4 -32q-61 6 -124.5 9t-114.5 3q-43 0 -103.5 -3t-116.5 -9q-4 20 -4 32z" />
<glyph unicode="J" horiz-adv-x="712" d="M-106 -309q0 10 5 16t11 12q68 68 114 126.5t77.5 115.5t52 117.5t32.5 130.5l185 977q2 11 2 20q0 27 -17 44q-22 22 -96 30q-16 2 -23.5 11t-7.5 22q0 10 4 30q61 -6 131 -9t121 -3q43 0 101.5 3t113.5 9q4 -20 5 -30q0 -27 -31 -33q-59 -8 -87 -27.5t-36 -60.5 l-150 -780q-29 -143 -59.5 -247t-82.5 -189t-134 -161.5t-211 -166.5q-20 18 -20 43z" />
<glyph unicode="K" horiz-adv-x="1253" d="M6 20q0 27 25 31q55 8 93 27.5t46 60.5l203 1053q4 25 -4.5 40t-23.5 24.5t-34.5 13.5t-38.5 6q-29 4 -28 33q0 6 2 15t4 19q61 -6 120.5 -9t110.5 -3q43 0 107.5 3t120.5 9q2 -10 3 -18t1 -16q0 -25 -29 -31q-53 -8 -89 -26.5t-44 -59.5l-203 -1053q-4 -25 2 -40 t21.5 -25.5t36 -15.5t43.5 -7q25 -4 24 -31q0 -6 -1 -14t-3 -18q-61 6 -121.5 9t-111.5 3q-43 0 -107.5 -3t-120.5 -9q-2 10 -3 18t-1 14zM496 680l4 29l504 456q41 35 40 64q0 37 -73 49q-29 6 -29 31q0 14 4 34q59 -6 102.5 -9t96.5 -3q45 0 88 3t94 9q2 -10 3 -18t1 -14 q0 -27 -26 -33q-47 -10 -81 -29.5t-63 -46.5l-504 -459l383 -616q18 -29 50 -50.5t77 -29.5q16 -4 20.5 -10t4.5 -14q0 -14 -10 -35q-117 12 -195 12q-47 0 -75.5 27.5t-63.5 81.5z" />
<glyph unicode="L" horiz-adv-x="1126" d="M16 23q0 10 6.5 18t18.5 10q53 8 88 27.5t43 60.5l203 1053q2 8 2 16q0 30 -26 44q-32 18 -83 26q-14 2 -20 11t-6 20q0 6 2 15t4 19q61 -6 127.5 -9t120.5 -3q29 0 63.5 1t70.5 2t69.5 3t60.5 6q6 -23 6 -34q0 -27 -29 -31t-60.5 -11t-58 -18.5t-46 -30t-25.5 -47.5 l-199 -1038q-6 -29 10.5 -42t44.5 -13h238q92 0 160.5 50t146.5 155q16 20 37 20q12 0 23.5 -7t19.5 -15q-10 -23 -20 -45q-10 -20 -20.5 -45t-20.5 -50q-16 -41 -26.5 -79.5t-20.5 -55.5q-10 -16 -33 -16q-35 0 -70 5t-94 5h-483q-43 0 -103.5 -3t-116.5 -9q-2 10 -3 18 t-1 17z" />
<glyph unicode="M" horiz-adv-x="1769" d="M0 20q0 10 6 19.5t21 11.5q49 8 83.5 29.5t45.5 58.5l252 1063q6 25 -13.5 45.5t-68.5 30.5q-29 6 -29 31q0 6 1 15t3 19q61 -6 108.5 -9t102.5 -3q57 0 75.5 -11t22.5 -32l219 -1036l568 1032q6 12 13 21.5t19.5 15.5t33 8t55.5 2q84 0 194 12q2 -10 3 -18t1 -14 q0 -29 -26 -35q-47 -8 -75 -23.5t-34 -50.5l-156 -1061q-1 -7 -1 -13q0 -32 24 -48q29 -20 76 -25q29 -2 28 -35q0 -10 -4 -30q-59 4 -122.5 7t-114.5 3q-43 0 -101.5 -3t-111.5 -9q-6 18 -6 35q0 27 26 30q53 8 89 26.5t42 59.5l140 953l-603 -1086q-16 -31 -45 -31 q-18 0 -26 7l-244 1122l-229 -961q-2 -10 -2 -18q0 -27 24 -43q32 -20 84 -29q18 -2 24.5 -10t6.5 -23q0 -6 -1 -14t-3 -18q-61 6 -104.5 9t-84.5 3q-76 0 -180 -12q-6 18 -6 32z" />
<glyph unicode="N" horiz-adv-x="1466" d="M16 20q0 10 6.5 19.5t20.5 11.5q53 8 87 29.5t42 58.5l205 1061q4 29 -14.5 49.5t-69.5 28.5q-14 2 -20.5 11t-6.5 20q0 12 6 34q53 -6 90 -9t84 -3q53 0 71 -5t28 -23l510 -1027l176 910q1 7 1 13q0 33 -26 51q-30 22 -82 28q-31 2 -30 33q0 6 1 14t3 18q61 -6 104 -9 t84 -3q74 0 182 12q4 -20 5 -32q0 -10 -6.5 -19.5t-20.5 -11.5q-49 -8 -85 -29.5t-44 -58.5l-232 -1206q-10 -4 -18 -7.5t-20 -3.5q-25 0 -41 31l-562 1112l-184 -975q-1 -8 -1 -15q0 -30 28 -48q35 -22 84 -27q27 -2 26 -33q0 -6 -1 -14t-3 -18q-61 6 -109 9t-89 3 q-37 0 -79 -3t-96 -9q-2 10 -3 18t-1 14z" />
<glyph unicode="O" horiz-adv-x="1380" d="M70 524q0 166 54 316.5t150.5 265.5t229.5 182.5t291 67.5q125 0 220 -42t158.5 -115t96.5 -171t33 -213q0 -186 -57.5 -341t-158 -265.5t-236.5 -172t-294 -61.5q-121 0 -212 45.5t-152.5 121t-92 175t-30.5 207.5zM268 522q0 -219 81 -339t259 -120q129 0 222.5 66 t153.5 169t89 232t29 258q0 106 -21.5 194.5t-62.5 152t-100.5 98.5t-137.5 35q-133 0 -229 -64.5t-158.5 -169t-93.5 -238.5t-31 -274z" />
<glyph unicode="P" horiz-adv-x="1077" d="M8 20q0 27 29 33q59 10 93 28.5t42 57.5l203 1053q2 9 2 16q1 28 -23 44q-30 18 -78 24q-35 4 -34 33q0 12 6 34q61 -6 123.5 -9t115.5 -3h181q100 0 176 -24.5t128 -67.5t78.5 -101.5t26.5 -125.5q0 -92 -34.5 -172t-101.5 -138.5t-162 -92.5t-214 -34h-88 q6 41 21.5 60.5t46.5 19.5q160 4 247 86t87 263q0 49 -13.5 94t-43 79.5t-77 55t-114.5 20.5h-70l-209 -1099q-2 -10 -2 -20q0 -30 25 -44q33 -20 112 -31q10 -2 20.5 -9t10.5 -27q0 -6 -1 -15.5t-3 -19.5q-61 6 -131 9t-135 3q-43 0 -111.5 -3t-124.5 -9q-2 10 -3 18t-1 14 z" />
<glyph unicode="Q" horiz-adv-x="1380" d="M70 524q0 166 54 316.5t150.5 265.5t229.5 182.5t291 67.5q125 0 220 -42t158.5 -115t96.5 -171t33 -213q0 -162 -43 -299t-121 -243.5t-184.5 -178t-233.5 -100.5v-8q84 -27 139 -81.5t107.5 -107.5t117 -94t168.5 -41h21q4 -6 4 -14t-10 -17q-25 -18 -67 -31.5 t-89 -13.5q-86 0 -149.5 26t-115.5 64.5t-95 87t-88.5 92.5t-95.5 79.5t-115 50.5q-190 53 -286.5 197.5t-96.5 340.5zM268 522q0 -219 81 -339t259 -120q129 0 222.5 66t153.5 169t89 232t29 258q0 106 -20.5 194.5t-61.5 152t-101.5 98.5t-138.5 35q-133 0 -229 -64.5 t-158.5 -169t-93.5 -238.5t-31 -274z" />
<glyph unicode="R" horiz-adv-x="1224" d="M2 20q0 27 27 31q53 10 94 28.5t49 59.5l203 1053q2 9 2 17q1 27 -21 41q-28 18 -77 26q-31 6 -31 33q0 16 6 34q61 -6 125.5 -9t118.5 -3h164q193 0 300 -83t107 -224q0 -63 -18.5 -122.5t-60.5 -112t-109.5 -95.5t-165.5 -69l297 -504q18 -33 52 -48.5t75 -25.5 q16 -4 16 -24q0 -8 -2 -16.5t-6 -18.5q-57 6 -107.5 9t-87.5 3t-66.5 26.5t-60.5 79.5l-311 533l8 37q172 2 262 85t90 257q0 49 -13 91t-44 75t-79 51t-117 18h-60l-213 -1114q-1 -7 -1 -14q0 -31 29 -45q36 -18 89 -25q29 -6 29 -35q0 -6 -1 -14t-4 -18q-123 12 -241 12 q-49 0 -118 -3t-124 -9q-2 10 -3 17t-1 15z" />
<glyph unicode="S" horiz-adv-x="1064" d="M39 74q10 86 15 168q3 46 3 90q0 35 -2 69q10 4 20.5 6.5t20.5 2.5q27 0 34 -12.5t11 -37.5q12 -74 29.5 -129t49.5 -92t79 -56.5t119 -19.5q125 0 208 68t83 184q0 49 -17.5 90t-45.5 78t-65.5 70t-76.5 63q-49 39 -99.5 78t-90.5 83t-65.5 95.5t-25.5 112.5 q0 68 29 133.5t82 117.5t129 85t172 33q129 0 213 -28t149 -69q-10 -57 -13 -112q-2 -33 -2 -71q0 -25 1 -52q-10 -4 -20.5 -5t-16.5 -1q-27 0 -34 9t-11 26q-29 119 -100.5 169t-173.5 50q-49 0 -93.5 -14.5t-77 -39t-52 -60.5t-19.5 -79t20.5 -83t55.5 -77.5t79 -74.5 t91 -76q49 -41 97 -84t85 -90t60.5 -101.5t23.5 -117.5q0 -88 -35 -162t-99.5 -126t-157.5 -81t-208 -29q-125 0 -214 30t-144 69z" />
<glyph unicode="T" horiz-adv-x="1308" d="M154 1055q20 43 32.5 81t22.5 72q8 27 12 45.5t7 30.5t6.5 21.5t9.5 19.5q12 18 37 18q14 0 35.5 -3t48.5 -5q29 -2 61.5 -3t60.5 -1h600q31 0 62 1t55 3q18 2 33.5 5t32.5 3q10 0 20 -4t13 -14q4 -14 4 -43t8 -76q4 -33 12 -69.5t19 -79.5q-18 -14 -43 -15q-25 0 -31 21 q-29 104 -82 147t-162 43h-170l-207 -1099q-4 -25 6.5 -41.5t30 -27.5t45 -17.5t49.5 -10.5q10 -2 20.5 -7t10.5 -27q0 -16 -6 -35q-59 6 -121.5 9t-140.5 3q-66 0 -135.5 -3t-122.5 -9q-2 10 -3 18t-1 17q0 10 6 21t16 13q72 10 117 33t53 64l207 1099h-170q-53 0 -92 -11 t-70 -33.5t-59.5 -58.5t-61.5 -87q-8 -12 -18 -16.5t-21 -4.5q-16 0 -24 4.5t-12 8.5z" />
<glyph unicode="U" horiz-adv-x="1484" d="M220 268q-9 42 -9 88q0 49 10 103l141 731q2 9 2 16q0 30 -26 46q-32 18 -76 22q-31 4 -31 33q0 14 7 36q123 -12 225 -12q43 0 111.5 3t123.5 9q2 -10 3 -18t1 -14q0 -12 -7 -21.5t-23 -11.5q-53 -8 -89 -27.5t-44 -58.5l-136 -698q-9 -52 -9 -102q0 -25 2 -50 q7 -74 40 -132t91.5 -94t146.5 -36q74 0 142.5 21.5t126.5 69.5t101 126t66 192l133 699q2 9 2 17q-1 29 -23 45q-28 20 -81 28q-25 2 -25 33q0 6 1 14t3 18q61 -6 100.5 -9t79.5 -3q37 0 81 2t98 8q2 -10 4 -18t2 -14q0 -27 -27 -31q-51 -8 -84 -28.5t-41 -57.5l-141 -735 q-18 -102 -64.5 -190.5t-117 -153t-164.5 -101.5t-213 -37q-117 0 -203 38t-139 102.5t-71 152.5z" />
<glyph unicode="V" horiz-adv-x="1224" d="M96 1309q0 16 6 34q59 -6 124 -9t116 -3q43 0 111.5 3t121.5 9q6 -18 7 -34q0 -10 -6.5 -19.5t-18.5 -11.5q-63 -6 -94 -26q-25 -16 -25 -48q0 -8 2 -18l144 -914l503 904q16 27 16 46q1 16 -11 26q-24 24 -78 30q-29 2 -29 31q0 16 6 34q117 -12 201 -12q37 0 80 3t96 9 q6 -18 6 -34q0 -27 -26 -31q-104 -16 -144 -78l-696 -1218q-16 -6 -29 -7q-23 0 -28 29l-220 1196q-10 61 -104 76q-16 2 -23.5 11t-7.5 22z" />
<glyph unicode="W" horiz-adv-x="1945" d="M94 1309q0 16 6 34q59 -6 122 -9t114 -3q43 0 112.5 3t124.5 9q2 -10 3.5 -18t1.5 -16q0 -10 -6.5 -20.5t-18.5 -12.5q-63 -6 -92 -26q-23 -16 -23 -48q0 -9 2 -18l148 -865l542 1031q12 6 29 6q27 0 29 -27l153 -1018l461 867q15 28 15 47q-1 15 -9 25q-20 22 -82 28 q-27 2 -26 31q0 6 1 15t3 19q59 -6 112.5 -9t94.5 -3q37 0 74.5 3t93.5 7q2 -10 3 -18t1 -14q0 -27 -31 -33q-102 -16 -133 -74l-662 -1220q-12 -6 -26 -7q-29 0 -35 31l-156 987l-536 -1011q-12 -6 -27 -7q-29 0 -35 31l-213 1198q-6 33 -34.5 46.5t-73.5 21.5 q-27 8 -27 37z" />
<glyph unicode="X" horiz-adv-x="1261" d="M-111 20q0 18 8.5 25.5t18.5 9.5q43 6 89 28.5t69 47.5l477 549l-250 510q-20 41 -56 65.5t-77 28.5q-23 2 -23 21q0 8 3.5 18t7.5 20q59 -6 122.5 -9t104.5 -3q35 0 63.5 -22.5t51.5 -73.5l202 -442l297 337q25 27 39.5 51.5t13.5 44t-20.5 33t-64.5 17.5q-25 2 -25 33 q0 12 6 34q61 -6 122.5 -9t102.5 -3q74 0 172 12q2 -10 3.5 -18t1.5 -14q0 -29 -27 -35q-53 -10 -91 -29.5t-61 -46.5l-430 -485l277 -570q25 -53 59.5 -71.5t79.5 -26.5q20 -4 16 -27q0 -8 -2 -15t-6 -17q-55 4 -112.5 8t-94.5 4t-67.5 21.5t-59.5 80.5l-241 496l-355 -416 q-34 -39 -34 -67q1 -10 5 -19q18 -33 89 -43q8 -2 14 -8t6 -25q0 -6 -1 -14t-3 -18q-61 6 -128.5 9t-108.5 3q-82 0 -176 -12q-6 18 -7 32z" />
<glyph unicode="Y" horiz-adv-x="1122" d="M94 1307q0 16 6 34q59 -6 119 -9t113 -3q20 0 50 1t62.5 2t64.5 3t58 6q2 -10 3 -18t1 -16q0 -10 -6 -19.5t-18 -11.5q-63 -4 -90 -30q-17 -17 -17 -42q0 -15 6 -33l172 -477l361 482q17 21 17 40q0 15 -10 28q-21 30 -79 34q-29 2 -28 31q0 16 6 34q53 -6 108.5 -9 t96.5 -3q37 0 79.5 3t96.5 9q6 -18 6 -32q0 -29 -33 -35q-49 -8 -80 -26.5t-53 -47.5l-449 -590l-90 -467q-2 -9 -2 -17q0 -30 23 -46q30 -21 82 -27q31 -4 30 -32q0 -16 -6 -35q-61 6 -128.5 9t-119.5 3q-23 0 -52 -1t-63 -2t-67 -4t-59 -5q-2 10 -3 18t-1 14q0 10 6 20.5 t20 12.5q53 8 95.5 29.5t52.5 62.5l84 445l-232 618q-8 23 -32.5 39.5t-73.5 24.5q-27 6 -27 35z" />
<glyph unicode="Z" horiz-adv-x="1239" d="M-34 20q1 10 9 19l1033 1212h-484q-63 0 -109 -7t-80 -28.5t-61.5 -60.5t-54.5 -102q-14 -33 -45 -33q-14 0 -26.5 4t-16.5 10q31 84 51.5 150.5t32.5 113.5q6 25 17.5 34t33.5 9q43 0 89 -5t118 -5h801q1 -7 1 -14v-9q-1 -12 -11 -22l-1024 -1206h489q61 0 107.5 14.5 t82 43t66.5 71.5t64 102q6 12 16 21.5t22 9.5q16 0 27.5 -5t18.5 -11q-35 -86 -58.5 -160t-40.5 -137q-6 -23 -19.5 -32t-29.5 -9q-41 0 -93 6t-120 6h-805q-1 7 -1 13v7z" />
<glyph unicode="[" horiz-adv-x="604" d="M45 -371l348 1788h316q2 -10 2 -17v-11q0 -25 -7.5 -33t-31.5 -10q-41 -2 -67.5 -7.5t-42 -14.5t-23 -23.5t-11.5 -34.5l-292 -1487q-6 -27 -1 -40t20 -21.5t41 -11.5t62 -7q23 -4 29 -12.5t6 -24.5v-12t-2 -21h-346z" />
<glyph unicode="\" horiz-adv-x="724" d="M111 1407q16 2 31.5 4t29.5 2q29 0 45 -11t25 -40l381 -1428q-37 -6 -66 -6t-42 12.5t-21 39.5z" />
<glyph unicode="]" horiz-adv-x="573" d="M-174 -342q0 25 7 33t32 10q41 2 67.5 7t42 14.5t22.5 23.5t11 35l293 1487q6 27 1 40t-20.5 21t-41 11t-62.5 8q-23 4 -29 12t-6 24v12.5t2 20.5h347l-349 -1788h-315q-2 10 -2 17.5v11.5z" />
<glyph unicode="^" horiz-adv-x="1007" d="M29 289q0 10 4 17t10 18l373 706q4 10 13 15.5t28 5.5q16 0 51 -11l375 -712q4 -10 8 -17.5t4 -19.5q0 -18 -21.5 -34.5t-80.5 -35.5l-332 649l-334 -649q-53 20 -75.5 33.5t-22.5 34.5z" />
<glyph unicode="_" horiz-adv-x="755" d="M-139 -252q8 63 25.5 84t54.5 21h675q-8 -63 -25.5 -84t-55.5 -21h-674z" />
<glyph unicode="`" d="M360 1290q0 37 43 59.5t103 24.5l137 -301q6 -16 6 -26q0 -25 -39 -39q-35 41 -62.5 73.5t-53 59t-51 51.5t-56.5 51q-27 25 -27 47z" />
<glyph unicode="a" horiz-adv-x="960" d="M23 176q0 174 56 309.5t140 228.5t181.5 142t181.5 49q66 0 126 -6t136 -22l-142 -711q-4 -20 -4 -37q0 -27 23 -27q14 0 29.5 7.5t31 16.5t28.5 16.5t21 7.5q20 0 29 -41q-37 -27 -77 -50.5t-76.5 -42t-69.5 -30t-53 -11.5q-23 0 -41.5 9.5t-18.5 40.5q0 10 2 23t6 28 l60 264h-8q-51 -100 -104.5 -170t-105.5 -113t-102.5 -62.5t-95.5 -19.5q-31 0 -58.5 9.5t-49 32t-33.5 61.5t-12 98zM197 244q0 -74 18 -106t51 -32q41 0 88 37t91 96.5t85 134.5t71 152.5t47.5 150.5t17.5 128q-25 8 -54.5 13t-56.5 5q-82 0 -147.5 -43t-112.5 -120.5 t-72.5 -184t-25.5 -231.5z" />
<glyph unicode="b" horiz-adv-x="960" d="M61 35l199 1026q10 59 17.5 117.5t7.5 91.5q0 27 -21 26q-23 0 -57.5 -6t-50.5 -6q-27 0 -27 43q92 25 171 50.5t157 56.5q16 -10 20 -19.5t4 -19.5q0 -16 -4 -33l-160 -801h9q61 104 117.5 172t107.5 106t95 52t83 14q33 0 62.5 -10t53 -33.5t37 -62.5t13.5 -99 q0 -174 -56.5 -309t-142.5 -227t-188.5 -140.5t-196.5 -48.5q-78 0 -144.5 19.5t-105.5 40.5zM233 86q23 -12 51.5 -19.5t55.5 -7.5q84 0 154.5 44t121 121t79 182.5t28.5 228.5q0 74 -22.5 106.5t-57.5 32.5q-45 0 -92 -36t-93 -95t-87 -134t-71 -150.5t-48.5 -147.5 t-18.5 -125z" />
<glyph unicode="c" horiz-adv-x="784" d="M41 303q0 113 34 221.5t95 193.5t148.5 136t191.5 51q125 0 246 -57q-10 -31 -18.5 -86t-12.5 -98l-31 2q-31 2 -37 30q-20 74 -62 102.5t-95 28.5q-72 0 -126.5 -41t-90 -109.5t-54 -160.5t-18.5 -194q0 -49 9 -93.5t30.5 -77t59.5 -52t93 -19.5q59 0 114.5 23.5 t109.5 58.5q4 4 10 7t10 3q16 0 21.5 -15.5t7.5 -25.5q-31 -27 -70 -54.5t-85 -50t-97 -37t-107 -14.5q-78 0 -131 29t-85.5 75t-46 104.5t-13.5 119.5z" />
<glyph unicode="d" horiz-adv-x="958" d="M23 193q0 174 51 307t131 223t176 136t186 46q66 0 119 -6l33 162q4 25 9 54.5t8 58t5 54t2 42.5q0 10 -3 20t-17 10q-6 0 -21.5 -3t-33 -6t-32.5 -5t-22 -2q-27 0 -26 43q92 25 170 50.5t155 56.5q16 -10 20.5 -18.5t4.5 -16.5q0 -16 -4 -37l-234 -1200q-2 -10 -4 -19.5 t-2 -15.5q0 -25 25 -25q14 0 29.5 7.5t31 16.5t28.5 16.5t21 7.5q20 0 27 -41q-35 -27 -75 -50.5t-76.5 -42t-69.5 -30t-53 -11.5q-23 0 -41.5 9.5t-18.5 44.5q0 16 6 47l62 264h-8q-96 -193 -192.5 -279t-196.5 -86q-31 0 -61 9.5t-54.5 34t-39.5 66.5t-15 108zM197 262 q0 -86 20.5 -121t61.5 -35q39 0 81.5 37t85.5 96.5t82 135.5t69 153.5t48.5 150.5t18.5 126q-25 8 -60 13t-63 5q-80 0 -143.5 -44t-107.5 -119.5t-68.5 -178t-24.5 -219.5z" />
<glyph unicode="e" horiz-adv-x="786" d="M35 313q0 109 33.5 215.5t95 190.5t149.5 135t197 51q43 0 84 -11t72.5 -33.5t51 -59.5t19.5 -88q0 -76 -40 -130.5t-110.5 -90t-166.5 -54t-211 -22.5q-2 -20 -3 -41t-1 -43q0 -47 8 -92t28.5 -80t56.5 -56.5t91 -21.5q53 0 110.5 19.5t116.5 60.5q20 14 29 14 q16 0 21.5 -16.5t5.5 -24.5q-31 -29 -70 -57.5t-84 -51t-96 -37t-107 -14.5q-86 0 -140 32t-86 82t-43 109.5t-11 114.5zM215 477q195 16 276.5 80t81.5 160q0 57 -27.5 87t-74.5 30q-49 0 -91 -30t-76 -79t-56.5 -113.5t-32.5 -134.5z" />
<glyph unicode="f" horiz-adv-x="598" d="M-274 -502q12 37 20 80t12 90l31 13q23 -29 50.5 -47.5t60.5 -18.5q70 0 112.5 114.5t81.5 340.5l127 741h-160q10 70 43 70h127l31 182q14 88 57 160.5t101.5 125t126 81t131.5 28.5q47 0 94 -26q-16 -33 -26.5 -67t-18.5 -79l-29 -8q-20 27 -53 48.5t-67 21.5 q-29 0 -51.5 -13.5t-42 -54.5t-40 -117t-41.5 -200l-12 -82h217q-16 -45 -20 -95q-51 8 -106.5 12.5t-102.5 6.5l-103 -594q-27 -152 -63.5 -264.5t-83.5 -195.5t-103.5 -141.5t-123.5 -96.5q-23 -12 -45.5 -20.5t-51.5 -8.5q-41 0 -79 14z" />
<glyph unicode="g" horiz-adv-x="907" d="M-55 -475q14 45 22 77.5t15 86.5l34 20q29 -61 88.5 -103t128.5 -42q86 0 152 70.5t94 205.5l101 492h-9q-86 -180 -189 -268.5t-198 -88.5q-31 0 -61.5 9.5t-53 33t-37 63.5t-14.5 103q0 166 50.5 300t130.5 227.5t177 143.5t189 50q72 0 132.5 -6t142.5 -22l-189 -963 q-23 -117 -76 -198t-118.5 -133t-138 -75.5t-134.5 -23.5q-154 0 -239 41zM193 250q0 -76 20 -110t61 -34q37 0 80 38t87 98.5t84 136.5t71 153.5t48.5 149.5t17.5 123q-25 8 -58 13t-61 5q-88 0 -153.5 -45t-109.5 -122.5t-65.5 -182t-21.5 -223.5z" />
<glyph unicode="h" horiz-adv-x="1042" d="M55 -2q0 8 2 19.5t4 19.5l199 1024q12 59 18.5 117.5t6.5 91.5q0 10 -3 20t-18 10q-6 0 -21.5 -3t-31.5 -6t-30.5 -5t-20.5 -2q-29 0 -29 43q92 25 171 50.5t157 56.5q25 -16 24 -39q0 -8 -2 -17.5t-4 -15.5l-174 -879h6q55 90 110.5 168t113 134.5t117 88t118.5 31.5 t95 -28.5t36 -94.5q0 -25 -4 -57.5t-10 -65.5l-105 -491q-2 -8 -4 -20.5t-2 -18.5q0 -27 25 -27q12 0 28.5 7.5t31.5 16.5l27.5 16.5t20.5 7.5q20 0 29 -41q-37 -27 -76 -50.5t-77 -42t-69.5 -30t-51.5 -11.5q-23 0 -43.5 9.5t-20.5 44.5q0 6 2 21.5t4 21.5l115 546 q12 57 12 93q0 59 -57 59q-29 0 -72 -30.5t-91 -83t-97 -122t-92 -145.5q-18 -35 -36 -77t-30 -87t-19.5 -88t-7.5 -78q0 -29 7 -55q-78 -8 -162 -31q-18 10 -19 25z" />
<glyph unicode="i" horiz-adv-x="505" d="M39 760q37 20 86 45.5t95 48.5t82 37t48 14q35 0 35 -35q0 -14 -4 -30l-135 -672q-2 -8 -4 -21.5t-2 -19.5q0 -25 24 -25q14 0 29.5 7.5t31 16.5t28 16.5t20.5 7.5q20 0 28 -41q-35 -27 -74.5 -50.5t-76.5 -42t-70 -30t-53 -11.5q-23 0 -43.5 9.5t-20.5 44.5 q0 6 2.5 21.5t4.5 21.5q45 219 71.5 349t40 198.5t17.5 91t4 26.5q0 25 -19 25q-8 0 -24.5 -7t-35 -14.5t-33.5 -14.5t-23 -7q-12 0 -18.5 12t-10.5 29zM266 1210q0 55 38 99.5t91 44.5q41 0 58.5 -27t17.5 -67q0 -51 -35 -93.5t-86 -42.5q-39 0 -61.5 23.5t-22.5 62.5z" />
<glyph unicode="j" horiz-adv-x="497" d="M-154 -483q1 10 9 16q47 39 76.5 75t49 72.5t31 78.5t21.5 94l166 839q2 8 4 23.5t2 25.5q0 20 -17 21q-8 0 -24.5 -7t-34.5 -14.5t-34.5 -14.5t-24.5 -7q-10 0 -16.5 12t-10.5 29q37 20 87 45.5t96 48.5t82 37t46 14q14 0 24.5 -7t10.5 -28q0 -14 -4 -30l-186 -940 q-31 -154 -119 -250t-203 -166q-31 12 -31 33zM268 1210q0 55 38 99.5t91 44.5q41 0 58.5 -27t17.5 -67q0 -51 -35 -93.5t-86 -42.5q-39 0 -61.5 23.5t-22.5 62.5z" />
<glyph unicode="k" horiz-adv-x="911" d="M61 -2q0 4 2.5 17.5t4.5 21.5l198 1024q10 59 17.5 117.5t7.5 91.5q0 27 -19 26q-20 0 -56 -6t-52 -6q-27 0 -27 43q92 25 170 50.5t156 56.5q16 -10 20 -18.5t4 -16.5t-2 -18.5t-4 -18.5l-170 -862h8q33 43 88.5 111.5t124 133t143.5 111.5t146 47q33 0 62 -6 q-10 -29 -19.5 -66.5t-15.5 -82.5l-25 -9q-10 14 -28.5 23.5t-38.5 9.5q-18 0 -47 -7t-67 -29.5t-86 -63.5t-107 -111q57 -125 106 -226.5t92 -172.5q45 -78 76 -78q14 0 29.5 6t30 13.5t27.5 13.5t21 6q12 0 18.5 -7t10.5 -30q-66 -47 -133.5 -79t-103.5 -32 q-20 0 -42 10.5t-42 49.5q-14 27 -40 76t-54.5 107t-57.5 116.5t-49 105.5q-39 -45 -68 -159q-16 -61 -26.5 -123t-10.5 -99q0 -29 7 -55q-78 -8 -162 -31q-16 10 -17 25z" />
<glyph unicode="l" horiz-adv-x="507" d="M68 29q0 6 2 21.5t4 21.5l192 989q12 59 18.5 117.5t6.5 91.5q0 10 -3 20t-18 10q-6 0 -21.5 -3t-32.5 -6t-31.5 -5t-20.5 -2q-27 0 -27 43q92 25 170 50.5t156 56.5q16 -10 20 -19.5t4 -19.5q0 -16 -4 -33l-233 -1194q-2 -10 -4 -23.5t-2 -17.5q0 -25 24 -25 q14 0 29.5 7.5t31 16.5t28 16.5t20.5 7.5q20 0 29 -41q-35 -27 -75 -50.5t-77 -42t-69.5 -30t-53.5 -11.5q-23 0 -43 9.5t-20 44.5z" />
<glyph unicode="m" horiz-adv-x="1538" d="M37 760q37 23 86 48.5t95 47t82 35.5t48 14q14 0 24.5 -7t10.5 -24q0 -4 -1 -14t-3 -20l-74 -357h8q53 90 108.5 168t112 134.5t114 88t116.5 31.5q45 0 79 -29.5t34 -95.5q0 -27 -4.5 -56.5t-12.5 -68.5l-33 -163h7q53 88 108 163.5t111.5 131t114 87t114.5 31.5 q45 0 78 -28.5t33 -94.5q0 -29 -4.5 -60.5t-10.5 -62.5l-104 -491q-2 -10 -4 -21.5t-2 -17.5q0 -27 24 -27q14 0 29.5 7.5t31 16.5t29 16.5t21.5 7.5q20 0 27 -41q-35 -27 -75 -50.5t-77 -42t-69.5 -30t-53.5 -11.5q-23 0 -43 9.5t-20 44.5q0 6 2 21.5t4 21.5l116 546 q10 51 11 93q0 59 -43 59q-29 0 -71 -34t-89 -88t-95 -121.5t-85 -137.5q-16 -29 -32.5 -69.5t-31 -85t-22.5 -90.5t-8 -85q0 -29 6 -55q-80 -10 -162 -31q-16 12 -17 25q0 4 2.5 16.5l4.5 22.5l114 581q12 55 13 93q0 59 -45 59q-29 0 -71 -34t-89 -88t-94.5 -121.5 t-83.5 -137.5q-18 -35 -36 -77t-31 -86t-20.5 -87t-7.5 -80q0 -29 7 -55q-78 -8 -162 -31q-16 10 -17 25q0 4 2 17.5t5 21.5q45 236 71.5 374t41 208.5t17.5 92t3 25.5q0 25 -17 25q-8 0 -24.5 -7t-34 -14.5t-33.5 -14.5t-24 -7q-10 0 -17.5 12t-11.5 29z" />
<glyph unicode="n" horiz-adv-x="1048" d="M37 760q37 23 87 48.5t97 47t82 35.5t45 14q14 0 24.5 -7t10.5 -24q0 -6 -1 -15t-3 -19l-74 -357h8q53 90 110.5 168t116 134.5t118 88t120.5 31.5q57 0 91 -28.5t34 -94.5q0 -25 -4 -57.5t-10 -65.5l-105 -491q-6 -29 -6 -39q0 -27 25 -27q12 0 28.5 7.5t32 16.5 t27.5 16.5t20 7.5q20 0 29 -41q-37 -27 -76 -50.5t-76.5 -42t-70.5 -30t-53 -11.5q-23 0 -42.5 9.5t-19.5 44.5q0 6 2 19t4 24l115 546q12 55 12 93q0 59 -57 59q-31 0 -76 -34t-94 -88t-97.5 -121.5t-84.5 -137.5q-18 -35 -36 -77t-31 -86t-20.5 -87t-7.5 -80q0 -29 7 -55 q-78 -8 -162 -31q-16 10 -17 25q0 4 2 17.5t5 21.5q47 238 73.5 375t40 207.5t16.5 92t3 25.5q0 25 -17 25q-8 0 -24.5 -7t-34 -14.5t-33.5 -14.5t-24 -7q-10 0 -17.5 12t-11.5 29z" />
<glyph unicode="o" horiz-adv-x="878" d="M29 309q0 135 46 246t116.5 188.5t153.5 119.5t157 42q76 0 132 -25.5t91 -71.5t52.5 -109.5t17.5 -137.5q0 -147 -47.5 -257.5t-120 -183.5t-162.5 -109t-176 -36q-72 0 -122 22.5t-81 65.5t-44 105.5t-13 140.5zM201 330q0 -135 31.5 -205t107.5 -70q61 0 113.5 37 t90.5 102.5t58.5 154.5t20.5 196q0 129 -31 204.5t-109 75.5q-68 0 -121 -45t-88.5 -116.5t-54 -159.5t-18.5 -174z" />
<glyph unicode="p" horiz-adv-x="972" d="M-33 -475q0 10 4 31l228 1155q2 10 2 18v12q0 20 -17 21q-8 0 -24.5 -7t-35 -14.5t-33.5 -14.5t-23 -7q-12 0 -18.5 12t-10.5 29q37 23 86 48.5t95 47t82 35.5t48 14q14 0 24.5 -7t10.5 -28q0 -14 -4 -30l-62 -289h7q102 186 202.5 270t200.5 84q51 0 86 -20.5t55.5 -54 t28.5 -77.5t8 -89q0 -162 -56 -289t-140 -216t-185.5 -136.5t-189.5 -47.5q-27 0 -61.5 3.5t-59.5 9.5l-31 -164q-20 -115 -20 -170q0 -31 22 -31q16 0 53 5t56 5q12 0 17 -12t7 -27q-94 -27 -170.5 -52t-152.5 -58q-16 10 -22.5 19.5t-6.5 21.5zM238 86q23 -12 59.5 -19.5 t62.5 -7.5q84 0 152 42t116 117t74.5 175.5t26.5 216.5q0 92 -26.5 128t-67.5 36q-39 0 -84 -37t-89 -96t-84 -134t-72 -151.5t-50 -147.5t-18 -122z" />
<glyph unicode="q" horiz-adv-x="913" d="M23 188q0 168 53 301.5t134 225.5t178 141t187 49q72 0 135.5 -6t133.5 -22l-230 -1170q-4 -20 -8 -53t-4 -49q0 -23 1 -48.5t5 -39.5q-39 -4 -83 -13.5t-85 -19.5q-16 12 -16 24q0 8 2 24.5t6 39.5q12 70 32.5 168t42 203.5t42 208t37.5 180.5h-6 q-84 -170 -185.5 -263.5t-206.5 -93.5q-31 0 -61.5 9.5t-53 33t-36.5 64.5t-14 106zM197 262q0 -92 21.5 -124t57.5 -32q39 0 83 37t88.5 97.5t84 136.5t69.5 153.5t47.5 149.5t17.5 125q-27 8 -61 13t-62 5q-82 0 -146.5 -44t-108.5 -119.5t-67.5 -178t-23.5 -219.5z" />
<glyph unicode="r" horiz-adv-x="737" d="M37 760q37 23 87 48.5t96 47t82 35.5t46 14q14 0 24.5 -7t10.5 -24q0 -4 -1 -14t-3 -20l-66 -308h9q111 197 201.5 285t178.5 88q18 0 34 -6t22 -12q-18 -47 -32.5 -98.5t-23.5 -114.5h-32q-21 37 -60 37q-33 0 -74.5 -29t-83.5 -78t-82 -113.5t-71 -137t-49.5 -148.5 t-18.5 -146q0 -29 7 -55q-41 -4 -83 -12t-83 -19q-18 10 -19 25q0 12 4 28.5t9 26.5q4 10 8 24.5t8 41.5l90 465q14 80 18.5 108.5t6.5 40.5q0 27 -19 27q-8 0 -23.5 -6t-33 -14.5t-32.5 -14.5t-23 -6q-10 0 -17.5 12t-11.5 29z" />
<glyph unicode="s" horiz-adv-x="718" d="M-10 27q16 61 25.5 113.5t13.5 117.5h20q49 0 49 -35v-14q0 -76 40 -119q44 -47 122 -47q80 0 131 42t51 110q0 31 -15 59.5t-40 54t-55.5 51t-63.5 52.5q-61 51 -111.5 107t-50.5 130q0 55 26 102.5t70 81t102 53t124 19.5q119 0 223 -55q-10 -31 -17 -78t-11 -94l-31 2 q-23 2 -29 11t-8 22q-10 61 -47 95t-100 34q-66 0 -113 -32t-47 -91q0 -41 35.5 -83t85.5 -85q37 -33 77.5 -67.5t73.5 -70.5t54.5 -75t21.5 -80q0 -59 -26.5 -110.5t-72.5 -89.5t-108.5 -60.5t-132.5 -22.5q-72 0 -139.5 12.5t-126.5 39.5z" />
<glyph unicode="t" horiz-adv-x="612" d="M74 811q4 35 13 52.5t32 17.5h117l6 34q16 78 16 125q0 27 -6 56q39 6 82 12t86 18q16 -12 16 -24q0 -4 -1 -16.5t-3 -20.5l-35 -184h211q-6 -18 -12 -45t-10 -50q-51 8 -104.5 12.5t-100.5 6.5l-113 -639q-6 -31 -6 -43q0 -49 60 -49q31 0 56 7t46 17q18 8 31.5 15.5 t21.5 7.5q23 0 27 -39q-63 -49 -138 -78t-141 -29q-74 0 -104.5 24t-30.5 71q0 23 4 43l129 698h-149z" />
<glyph unicode="u" horiz-adv-x="1046" d="M41 758q35 20 83 46.5t94 48t83 37t49 15.5q41 0 41 -35q0 -10 -2 -20t-4 -21l-119 -567q-12 -59 -12 -92t19.5 -47t50.5 -14q45 0 94 35.5t97 95t92 135.5t77 154.5t52.5 155.5t19.5 136q0 27 -6 56q80 10 161 30q16 -10 17 -24q0 -4 -2 -17.5t-4 -21.5l-140 -705 q-6 -37 27 -37q12 0 27.5 7.5t30 14.5t27.5 14t21 7q18 0 25 -36q-37 -27 -78 -51.5t-77.5 -43t-68.5 -29t-50 -10.5q-20 0 -39 9.5t-19 42.5q0 4 1 18t5 27l60 282h-8q-109 -201 -219.5 -290t-219.5 -89q-66 0 -102.5 33t-36.5 98q0 25 4 58t10 63l101 471q0 4 2 14.5 t2 14.5q4 35 -19 35q-10 0 -27.5 -7t-36 -14.5t-33.5 -14.5t-23 -7q-10 0 -16.5 12t-10.5 27z" />
<glyph unicode="v" horiz-adv-x="964" d="M33 762q41 31 85 56.5t84 45t72.5 30.5t51.5 11q20 0 37.5 -9t17.5 -40v-23.5t-2 -25.5l-66 -553q-4 -27 -6 -48.5t-2 -37.5q0 -35 10.5 -47t36.5 -12q39 0 84 28.5t88 74.5t83 106.5t70 125t48 126t18 112.5q0 45 -13 87t-48 77l23 33q57 4 103 10t99 18 q8 -23 11.5 -49.5t3.5 -48.5q0 -57 -30 -142t-80 -177.5t-117.5 -184.5t-141.5 -165.5t-149.5 -119t-145.5 -45.5q-127 0 -127 127q0 25 2 54.5t6 64.5l60 473q2 8 3 20.5t1 16.5q0 35 -25 35q-12 0 -29.5 -7t-34 -14.5t-30.5 -14.5t-23 -7q-20 0 -28 39z" />
<glyph unicode="w" horiz-adv-x="1484" d="M33 762q41 31 85 56.5t84 45t72.5 30.5t51.5 11q20 0 38.5 -9t18.5 -44q0 -6 -1 -20.5t-3 -24.5q-14 -141 -31.5 -277.5t-34.5 -275.5q-6 -53 -6 -84q0 -37 11.5 -50.5t39.5 -13.5q35 0 80 34t90 88.5t85 122t69 134.5q37 94 46 174t9 113t-5 56.5t-11 33.5l12 15 q37 4 78 12t86 20q14 -20 14 -59q0 -6 -1 -25.5t-3 -31.5l-63 -533q-4 -29 -6 -53.5t-2 -40.5q0 -33 11 -45t40 -12q55 0 119.5 59t122 147t95.5 189.5t38 185.5q0 47 -12.5 89t-41.5 71l21 29q55 4 100 10t98 18q8 -23 11.5 -49.5t3.5 -48.5q0 -55 -29 -138t-78 -175.5 t-113.5 -185.5t-137 -167.5t-147.5 -121t-142 -46.5q-117 0 -125 113q-2 23 -1 48t5 54t9 73t9 75q-109 -164 -223.5 -263.5t-212.5 -99.5q-123 0 -123 127q0 25 2 54.5t6 64.5l58 473q2 8 3 20.5t1 16.5q0 35 -25 35q-12 0 -29.5 -7t-34 -14.5t-30.5 -14.5t-23 -7 q-20 0 -28 39z" />
<glyph unicode="x" horiz-adv-x="966" d="M-72 -8q16 27 28.5 67.5t18.5 94.5l29 10q10 -10 28.5 -19.5t41.5 -9.5q43 0 77.5 18.5t68.5 55.5t73 92t90 129l-123 307q-4 10 -13 24.5t-28 14.5q-27 0 -59.5 -19.5t-53.5 -19.5q-12 0 -16 11.5t-8 25.5q57 51 115.5 91t99.5 40q45 0 66.5 -25.5t37.5 -66.5l103 -258 q133 188 231.5 269t182.5 81q33 0 55 -16q-16 -27 -28.5 -64t-18.5 -90l-31 -10q-10 10 -25.5 19.5t-38.5 9.5q-39 0 -69.5 -12.5t-60 -39t-62.5 -68.5t-76 -104l-31 -43l134 -327q14 -35 26.5 -49.5t30.5 -14.5q25 0 54.5 18.5t47.5 18.5q14 0 19.5 -8t9.5 -29 q-57 -51 -111.5 -86t-93.5 -35q-59 0 -86.5 39t-52.5 103l-98 245q-61 -106 -121 -179.5t-113 -120t-101 -67t-89 -20.5q-16 0 -33.5 5.5t-26.5 11.5z" />
<glyph unicode="y" horiz-adv-x="1038" d="M29 -475q16 47 24 83t15 87l34 12q29 -59 83 -101t122 -42q96 0 163 70.5t95 205.5l107 514h-8q-111 -205 -217.5 -292t-213.5 -87q-68 0 -103.5 29t-35.5 94q0 25 4 58.5t11 64.5l100 477q2 6 4 19.5t2 19.5q0 25 -20 25q-10 0 -27.5 -7t-36 -14.5t-34 -14.5t-23.5 -7 q-10 0 -16.5 12t-8.5 27q35 20 82 46.5t93 48t83 37t51 15.5q39 0 39 -41q0 -18 -4 -35l-119 -567q-12 -55 -12 -92q0 -57 62 -57q47 0 98 36.5t98 96t89 136.5t74 154.5t50.5 152.5t18.5 132q0 29 -7 58q82 6 168 28q12 -12 13 -24q0 -4 -2 -17.5t-4 -21.5l-185 -930 q-23 -111 -74 -191.5t-116.5 -134t-140 -79t-142.5 -25.5q-145 0 -233 41z" />
<glyph unicode="z" horiz-adv-x="784" d="M-25 49l596 696q-55 -28 -128 -28h-5q-41 0 -70.5 6t-55 12t-51 12.5t-58.5 6.5t-60 -60q-4 -12 -13 -25.5t-32 -9.5l-32 5q33 115 45 202l12 13q39 12 82 12t86 -9.5t86 -19.5t86 -19t86 -9q47 0 88 10t82 37h33q10 -11 11 -21v-2q0 -9 -13 -24l-605 -703q47 16 82 22.5 t76 6.5q57 0 106.5 -13.5t110.5 -13.5q29 0 50.5 24.5t37.5 61.5q4 12 13.5 23.5t27.5 9.5l37 -4q-18 -59 -31.5 -119.5t-19.5 -108.5l-17 -16q-25 -10 -49 -14t-53 -4q-47 0 -93 9t-92 19.5t-93.5 19.5t-92.5 9q-35 0 -68.5 -9t-62.5 -32h-43q-10 14 -10 22t14 25z" />
<glyph unicode="{" horiz-adv-x="561" d="M41 492l10 65q115 8 165 62.5t69 152.5q16 78 18 169t4 196q0 41 6 75q12 66 46 106t80 62.5t101.5 29.5t112.5 7q0 -6 -1 -15t-5 -16q-4 -12 -13 -19t-34 -11q-84 -10 -113.5 -60.5t-29.5 -126.5q0 -111 -3 -197.5t-16 -158.5q-18 -106 -65 -174t-150 -107v-4 q66 -23 92.5 -61.5t26.5 -99.5q0 -57 -16 -134q-16 -72 -42 -161.5t-57 -196.5q-6 -20 -12 -40.5t-6 -39.5q0 -55 42 -78.5t101 -31.5q23 -2 24 -18.5t-5 -37.5q-59 0 -114.5 5.5t-98.5 22.5t-69 48t-26 82q0 23 5.5 48.5t13.5 47.5q37 117 66.5 215.5t41.5 169.5 q4 23 6.5 41.5t2.5 34.5q0 63 -36 101t-122 47z" />
<glyph unicode="|" horiz-adv-x="477" d="M193 -492v1924h126v-1924h-126z" />
<glyph unicode="}" horiz-adv-x="583" d="M-123 -371q0 6 1 15.5t5 15.5q4 12 13.5 19.5t33.5 11.5q84 10 114 60t30 126q0 111 3 198t15 158q18 106 65.5 174t149.5 107v4q-66 23 -92.5 61.5t-26.5 100.5q0 57 17 133q16 72 41.5 162t56.5 196q6 20 12.5 41t6.5 39q0 55 -42 79t-102 32q-23 2 -23.5 18.5 t5.5 36.5q59 0 114.5 -5t98.5 -22.5t68.5 -48t25.5 -81.5q0 -23 -5 -48.5t-13 -48.5q-37 -117 -67 -215t-42 -170q-4 -23 -6 -41t-2 -35q0 -63 35.5 -101t121.5 -46l-10 -66q-115 -10 -165 -63t-68 -152q-16 -78 -18.5 -169t-4.5 -195q0 -43 -6 -76q-12 -66 -46 -105.5 t-80 -62t-101.5 -30t-112.5 -7.5z" />
<glyph unicode="~" horiz-adv-x="1167" d="M96 424q0 16 10 31q80 90 136.5 120.5t109.5 30.5q41 0 90.5 -13t114.5 -48q88 -45 148.5 -66.5t107.5 -21.5q41 0 89 29.5t110 105.5q35 -18 48 -34.5t13 -41.5q0 -23 -12 -35q-78 -88 -137.5 -115.5t-106.5 -27.5q-59 0 -129 21.5t-149 62.5q-59 29 -104.5 45t-82.5 16 t-79 -24.5t-117 -108.5q-35 18 -47.5 35.5t-12.5 38.5z" />
<glyph unicode="&#xa1;" horiz-adv-x="514" d="M0 -377q63 180 130 415.5t114 498.5q49 8 59 -4.5t8 -28.5l-112 -955q-27 -12 -54.5 -18t-50.5 -6q-57 0 -82.5 28.5t-11.5 69.5zM203 766q0 59 33.5 99t87.5 40q53 0 82.5 -33.5t29.5 -85.5q0 -61 -34.5 -100t-84.5 -39q-59 0 -86.5 33t-27.5 86z" />
<glyph unicode="&#xa2;" horiz-adv-x="880" d="M94 338q0 113 32 216t88 183t133 132.5t169 62.5l29 147q49 -12 64.5 -26.5t8.5 -46.5l-14 -72q98 -6 209 -55q-8 -31 -17.5 -86.5t-13.5 -98.5l-30 2q-27 2 -37 31q-16 59 -49 89t-78 38l-142 -743h11q59 0 117.5 23.5t111.5 58.5q4 4 10 7t11 3q16 0 21 -15.5t5 -25.5 q-53 -47 -133 -92t-172 -60l-31 -157q-47 12 -62.5 27.5t-8.5 45.5l14 80q-70 6 -117 37t-75.5 77t-41 102.5t-12.5 115.5zM264 356q0 -76 20.5 -137t80.5 -90l135 723q-111 -27 -173.5 -156t-62.5 -340z" />
<glyph unicode="&#xa3;" horiz-adv-x="1036" d="M-16 41q0 20 14 44t35.5 49.5t48.5 53t51 58.5q35 43 60.5 78.5t42 76.5t24.5 90.5t8 116.5v39h-186q4 51 19.5 69.5t50.5 18.5h116q0 121 32 224.5t90.5 179t140 118.5t180.5 43q53 0 112.5 -15t108.5 -44q25 -14 40 -29.5t15 -31.5q0 -14 -13 -27.5t-31.5 -26 t-38 -20.5t-32.5 -12q-12 -4 -20 -4q-14 0 -27 16q-43 55 -86 83t-94 28q-41 0 -74.5 -18.5t-58.5 -63.5t-39 -120t-14 -188v-92h325q-6 -49 -20 -68.5t-49 -19.5h-256q0 -131 -63.5 -242.5t-209.5 -216.5q16 4 31.5 6.5t30.5 2.5q51 0 95 -18.5t91 -43.5q43 -23 89 -44 t95 -21q59 0 88 27.5t29 62.5q0 23 -8 50.5t-8 47.5q0 14 15.5 31.5t37 31t44 22.5t36.5 9q27 0 40 -21.5t13 -54.5q0 -55 -35.5 -112.5t-93 -105.5t-130.5 -78.5t-148 -30.5q-68 0 -114 25.5t-83 57t-70.5 57.5t-76.5 26q-51 0 -111 -115q-37 0 -48 12.5t-11 28.5z" />
<glyph unicode="&#xa4;" horiz-adv-x="1189" d="M184 352q0 12 9 21l98 98q-35 47 -55.5 104.5t-20.5 120.5q0 66 22.5 125.5t59.5 106.5l-113 114q45 57 68 58q10 0 22 -13l93 -92q47 37 104 57.5t121 20.5q63 0 119.5 -20.5t103.5 -55.5l119 117q29 -23 41 -40t12 -27t-10 -21l-92 -94q41 -47 62.5 -108.5t21.5 -127.5 t-21.5 -124t-58.5 -107l117 -113q-45 -59 -70 -59q-10 0 -21 10l-94 94q-47 -35 -105.5 -56.5t-123.5 -21.5q-66 0 -125 21.5t-109 58.5l-116 -118q-33 23 -45.5 40t-12.5 31zM342 723q0 -63 19.5 -120.5t54.5 -100.5t83 -68.5t103 -25.5q106 0 174 69.5t68 190.5 q0 63 -16.5 120.5t-51.5 100.5t-88 68.5t-125 25.5q-37 0 -77 -16.5t-71.5 -48t-52 -81t-20.5 -114.5z" />
<glyph unicode="&#xa5;" horiz-adv-x="1177" d="M141 1251q0 12 9 37q78 -6 128 -9t89 -3q45 0 110.5 3t120.5 7q4 -16 4 -23.5v-11.5q0 -8 -3 -16t-19 -12q-14 -4 -36 -6.5t-40.5 -11.5t-25.5 -29.5t5 -59.5l160 -387l270 369q37 51 33 82.5t-76 42.5q-18 4 -22 13t-4 19v10.5t4 20.5q20 -2 50 -4t60.5 -3t58 -2 t44.5 -1q78 0 176 12q4 -16 4 -23.5v-11.5q0 -10 -6 -18t-16 -10q-59 -10 -102.5 -38t-94.5 -97l-332 -439h309q-4 -49 -18 -68.5t-49 -19.5h-266l-25 -127h315q-4 -51 -18 -70.5t-49 -19.5h-266l-27 -145q-8 -43 -6 -69t15 -41t39 -23.5t69 -16.5q20 -4 23 -13t3 -15v-11.5 t-4 -23.5q-63 6 -140 9t-128 3q-23 0 -52.5 -1t-63.5 -2t-67.5 -4t-60.5 -5q-2 10 -3 16t-1 16q0 8 7 18.5t24 12.5q47 8 76.5 18.5t46 25t25 32.5t12.5 41l32 178h-295q2 35 10.5 53.5t19.5 26.5t24.5 9t23.5 1h234l24 127h-293q2 33 10.5 51.5t19.5 26.5t22.5 9t21.5 1 h219l-188 445q-20 59 -43 87.5t-84 39.5q-20 2 -23.5 11t-3.5 17z" />
<glyph unicode="&#xa6;" horiz-adv-x="473" d="M193 276q0 33 22.5 49.5t99.5 26.5v-649q0 -33 -21.5 -50.5t-100.5 -25.5v649zM193 680v649q0 33 22.5 49.5t99.5 26.5v-649q0 -33 -21.5 -50.5t-100.5 -25.5z" />
<glyph unicode="&#xa7;" horiz-adv-x="954" d="M68 -203q0 23 8 43.5t33 20.5q10 0 18 -4l18 -9q37 -20 79 -35.5t102 -15.5q23 0 48 9.5t46.5 25.5t36 41t14.5 55q0 53 -14.5 105.5t-38 103.5t-52 103.5t-59.5 105.5q-33 57 -63.5 117.5t-54 123t-38 130t-14.5 139.5q0 106 44 202.5t124 170.5t194 117t253 43 q41 0 53 -35q4 -12 7 -31.5t3 -36.5q0 -20 -8 -38.5t-37 -18.5q-12 0 -22.5 5t-18.5 9q-33 18 -70.5 32.5t-97.5 14.5q-45 0 -87 -29.5t-42 -89.5q0 -49 24.5 -113.5t61.5 -140t79 -159.5t79 -170t61.5 -170t24.5 -162q0 -104 -40 -203.5t-119 -177.5t-195.5 -126 t-272.5 -48q-47 0 -57 30.5t-10 65.5zM244 893q0 -84 25.5 -162t62.5 -152.5t80 -149.5t78.5 -150.5t56 -155.5t14.5 -166q41 51 65.5 112.5t24.5 125.5q0 129 -51 253.5t-111.5 244.5t-108.5 234t-42 220q-35 -41 -64.5 -106.5t-29.5 -147.5z" />
<glyph unicode="&#xa8;" d="M258 1163q0 51 30.5 82t67.5 31q43 0 66.5 -26.5t23.5 -69.5q0 -51 -29.5 -82t-68.5 -31q-41 0 -65.5 26.5t-24.5 69.5zM578 1163q0 51 30.5 82t67.5 31q43 0 66.5 -26.5t23.5 -69.5q0 -51 -29.5 -82t-68.5 -31q-41 0 -65.5 26.5t-24.5 69.5z" />
<glyph unicode="&#xa9;" horiz-adv-x="1437" d="M76 678q0 133 50 249.5t136 203t203 136.5t250 50q131 0 247.5 -50t203.5 -136.5t137.5 -203t50.5 -249.5t-50.5 -250t-137.5 -204t-203.5 -137t-247.5 -50q-133 0 -250 50t-203 137t-136 204t-50 250zM164 684q0 -113 42 -217.5t115.5 -184t175 -126.5t222.5 -47 q113 0 213 44t175 120.5t118 180t43 220.5q0 119 -45 223t-121 181t-177.5 122t-213.5 45q-115 0 -214.5 -44t-173 -120.5t-116.5 -178t-43 -218.5zM340 682q0 63 23.5 130t70.5 121t120 88t169 34q72 0 122 -7.5t107 -21.5q0 -31 7.5 -76t19.5 -90q-18 -8 -27 -8 q-25 0 -30 18q-23 70 -71 95.5t-108 25.5q-121 0 -186 -75.5t-65 -217.5q0 -74 19 -134t55 -102t83 -65.5t103 -23.5q78 0 119.5 27.5t68.5 93.5q8 20 29 20q14 0 35 -8q-14 -43 -28.5 -89t-25.5 -89q-53 -10 -107 -15.5t-120 -5.5q-96 0 -169 29t-120 79t-70.5 118.5 t-23.5 148.5z" />
<glyph unicode="&#xaa;" horiz-adv-x="718" d="M76 664q0 117 41 208t103.5 152t135 94t136.5 33q49 0 96 -5t108 -20l-92 -473q-4 -16 -4 -22q0 -12 16 -13q20 0 46 15.5t36 15.5q20 0 25 -33q-25 -16 -54.5 -32.5t-60 -31.5t-59.5 -24.5t-49 -9.5q-23 0 -37 8.5t-14 32.5q0 14 6 37l47 160h-6q-72 -129 -149 -183.5 t-140 -54.5q-51 0 -91 30t-40 116zM231 707q0 -96 45 -97q41 0 88.5 51.5t87.5 124t65.5 153.5t23.5 142q-35 10 -66 11q-55 0 -100 -30t-77 -82t-49.5 -122t-17.5 -151z" />
<glyph unicode="&#xab;" horiz-adv-x="849" d="M16 451q0 10 4.5 19t20.5 24l354 301q12 12 27 12q16 0 26.5 -12.5t20.5 -28.5q-78 -84 -136.5 -153.5t-117.5 -151.5q10 -45 20.5 -81t22.5 -72t27.5 -77t40.5 -96q-16 -23 -38 -32t-38 14zM356 451q0 10 4.5 19t20.5 24l354 301q12 12 27 12q16 0 26.5 -12.5 t20.5 -28.5q-78 -84 -136.5 -153.5t-117.5 -151.5q10 -45 20.5 -81t22.5 -72t27.5 -77t40.5 -96q-16 -23 -38 -32t-38 14z" />
<glyph unicode="&#xac;" horiz-adv-x="1011" d="M20 608q8 66 27 87.5t57 21.5h807v-498q-72 6 -92 23.5t-20 48.5v317h-779z" />
<glyph unicode="&#xad;" horiz-adv-x="632" d="M51 436q8 66 25.5 86.5t56.5 20.5h406q-8 -66 -26.5 -86.5t-55.5 -20.5h-406z" />
<glyph unicode="&#xae;" horiz-adv-x="876" d="M121 981q0 78 26.5 146.5t75.5 119.5t119 81t156 30q88 0 158.5 -30t119.5 -81t75 -119.5t26 -146.5t-28 -147.5t-77 -120.5t-118.5 -81t-155.5 -30t-156 30t-119 81t-75.5 120.5t-26.5 147.5zM188 983q0 -63 19.5 -120.5t58.5 -101.5t97.5 -70.5t136.5 -26.5 q72 0 129 24.5t97 66.5t61.5 99t21.5 123q0 68 -22.5 126t-64.5 101t-99.5 67.5t-126.5 24.5q-72 0 -128.5 -24.5t-96.5 -66.5t-61.5 -99t-21.5 -123zM319 1192q0 8 5 20q20 -2 47.5 -3t48.5 -1h78q74 0 126 -27.5t52 -93.5q0 -41 -32 -73.5t-73 -42.5l91 -133 q12 -18 29.5 -28.5t29.5 -14.5q-4 -8 -15.5 -22.5t-17.5 -20.5h-16q-25 0 -43.5 12t-32.5 33l-109 159h-32v-139q0 -8 7 -15t34 -11q12 -4 12 -13q0 -8 -4 -20q-18 2 -44 2h-48h-42t-46 -2q-2 4 -2 10v10q0 10 10 13q41 6 41 26v340q0 10 -8.5 15.5t-30.5 7.5q-14 0 -15 12z M455 999h24q104 0 105 82q0 41 -23.5 62.5t-83.5 21.5h-22v-166z" />
<glyph unicode="&#xaf;" d="M252 1112q8 63 26.5 88t55.5 25h432q-8 -63 -26.5 -88t-53.5 -25h-434z" />
<glyph unicode="&#xb0;" horiz-adv-x="737" d="M102 1069q0 61 22.5 109.5t60.5 82t89.5 52t108.5 18.5q51 0 100 -17.5t87 -51t61.5 -83t23.5 -110.5q0 -63 -23.5 -112.5t-61.5 -84t-88 -53t-101 -18.5q-55 0 -105.5 18.5t-88 52t-61.5 84t-24 113.5zM229 1085q0 -39 11.5 -74.5t32 -63t49 -44t61.5 -16.5 q66 0 105.5 44t39.5 116q0 80 -41 139t-125 59q-47 0 -90 -41t-43 -119z" />
<glyph unicode="&#xb1;" horiz-adv-x="1011" d="M80 0q8 66 26.5 87.5t57.5 21.5h805q-8 -66 -26.5 -87.5t-57.5 -21.5h-805zM80 616q8 66 25.5 88.5t56.5 22.5h299v303q0 31 20.5 48.5t91.5 25.5v-377h396q-8 -66 -26.5 -88.5t-57.5 -22.5h-312v-329q0 -35 -20.5 -50.5t-91.5 -23.5v403h-381z" />
<glyph unicode="&#xb2;" horiz-adv-x="694" d="M121 750l4 55q139 117 227 198.5t138.5 141t69 100.5t18.5 76q0 57 -32 77.5t-71 20.5q-35 0 -80 -12t-98 -47q-10 -6 -21 -6q-20 0 -34 24q59 66 138 103t150 37q96 0 149.5 -46.5t53.5 -130.5q0 -49 -23.5 -97t-74.5 -101t-133 -119t-197 -152h217q29 0 48.5 16.5 t35.5 39.5q14 20 33 20q6 0 15.5 -2t19.5 -6q-8 -14 -16.5 -37.5t-16.5 -49.5t-15.5 -50.5t-11.5 -42.5q-4 -16 -22 -17q-25 0 -56.5 3.5t-78.5 3.5h-336z" />
<glyph unicode="&#xb3;" horiz-adv-x="694" d="M123 807q0 12 16.5 32.5t40.5 43.5q14 10 23 10q16 0 33 -14q29 -25 56 -42.5t54 -17.5q31 0 62.5 11.5t56 33t41 55t16.5 80.5q0 57 -28.5 94t-87.5 37q-20 0 -51 -6t-66 -22v55q133 51 186 97t53 106q0 76 -82 76q-31 0 -68.5 -10.5t-88.5 -45.5q-29 -16 -51 19 q66 61 129 90t131 29q90 0 133 -39t43 -90q0 -55 -33 -96.5t-117 -84.5v-6q80 -16 115 -62t35 -112q0 -63 -35 -116.5t-88 -92.5t-121 -60.5t-131 -21.5q-45 0 -93 13.5t-77 42.5q-6 6 -6 14z" />
<glyph unicode="&#xb4;" d="M328 1038q0 12 10 25l240 295q53 -10 86.5 -36t33.5 -54q0 -33 -43 -60q-41 -25 -74.5 -47t-67.5 -45.5t-72 -52.5t-83 -66q-14 10 -22 18.5t-8 22.5z" />
<glyph unicode="&#xb5;" horiz-adv-x="944" d="M-61 -498q0 8 2 19.5t4 19.5l135 703q43 223 70.5 358t27.5 170q0 68 -12 90l14 15q37 4 78 12t86 20q14 -20 12 -59q0 -16 -12 -68.5t-29.5 -124t-38 -152.5t-38.5 -155q-29 -106 -23 -173.5t78 -67.5q43 0 87 17t84 51t69.5 84t44.5 116q12 59 25 122.5t23.5 119 t17.5 97.5t7 56q0 68 -12 90l14 15q37 4 78 12t86 20q14 -20 12 -59q0 -16 -12 -68.5t-29.5 -124t-38 -152.5t-38.5 -155q-10 -43 -21.5 -89t-16.5 -86t0 -65.5t27 -25.5q35 0 60.5 15.5t42.5 15.5q12 0 18 -13.5t6 -25.5q-16 -14 -44.5 -31.5t-58.5 -33t-56.5 -27 t-40.5 -11.5q-59 0 -74.5 58.5t-9.5 163.5q-6 -6 -41 -42t-84 -76t-107.5 -72t-115.5 -32q-8 0 -18.5 3.5t-16.5 13.5q-12 -59 -20.5 -119.5t-14.5 -117t-9 -105.5t-3 -84q0 -18 1 -29.5t3 -26.5q-80 -10 -162 -30q-16 8 -16 24z" />
<glyph unicode="&#xb6;" horiz-adv-x="849" d="M53 -305q0 27 10.5 57.5t42.5 30.5q16 0 31 -8q33 -23 58.5 -35t60.5 -12q25 0 53.5 15t54 48t48 84t34.5 125l64 383q-39 -8 -84 -8q-63 2 -117.5 22.5t-94.5 59.5t-62.5 98t-22.5 137q0 119 37 218.5t105.5 171t169 111.5t227.5 40q35 0 74.5 2t72.5 6l74 8v-14t-2 -18 q-4 -25 -33 -31q-53 -8 -74.5 -22.5t-27.5 -47.5l-189 -1040q-25 -133 -67.5 -218t-98 -133.5t-118 -65.5t-123.5 -17q-66 0 -84.5 11t-18.5 42z" />
<glyph unicode="&#xb7;" horiz-adv-x="389" d="M53 471q0 59 34 99t87 40t83 -33.5t30 -84.5q0 -61 -35 -100.5t-84 -39.5q-59 0 -87 33t-28 86z" />
<glyph unicode="&#xb8;" d="M376 -448q3 14 25 26q63 35 84 60.5t21 54.5q0 18 -10.5 35.5t-23.5 34t-23.5 33t-10.5 34.5q0 12 4 24.5t17.5 32t39 47t66.5 70.5h76q-47 -55 -58.5 -76.5t-11.5 -42.5q0 -18 12.5 -36.5t26 -38t25.5 -39t12 -39.5q0 -31 -13 -57.5t-43 -53.5t-79 -53.5t-121 -56.5 q-18 27 -15 41z" />
<glyph unicode="&#xb9;" horiz-adv-x="694" d="M199 761.5v8.5q0 20 11 23.5t17 5.5q66 12 82.5 32.5t20.5 42.5l88 461q4 25 -3 39.5t-21.5 20.5t-33 7t-36.5 1q-23 0 -23 22q0 4 2 14.5t6 18.5q35 2 75 8.5t75 16.5q41 10 71.5 22.5t53.5 12.5q27 0 22 -23q-4 -23 -15 -61.5t-22 -90.5l-88 -473q-6 -37 11.5 -49 t70.5 -22q23 -2 23 -27q0 -6 -1 -14.5t-1 -16.5q-41 4 -105.5 6.5t-105.5 2.5q-12 0 -35 -1t-47.5 -2.5t-49 -2.5t-40.5 -3q-2 16 -2 20.5z" />
<glyph unicode="&#xba;" horiz-adv-x="659" d="M78 752q0 92 33.5 165.5t86 126t115 80t119.5 27.5q59 0 102.5 -19.5t72 -52t42 -77t13.5 -95.5q0 -98 -35 -170.5t-89.5 -122t-121 -73t-131.5 -23.5q-115 0 -161 64.5t-46 169.5zM229 766q0 -92 21 -141.5t74 -49.5q41 0 74.5 25t57 67t37 100t13.5 126 q0 88 -18.5 142.5t-73.5 54.5q-45 0 -79 -30t-57.5 -76t-36 -103.5t-12.5 -114.5z" />
<glyph unicode="&#xbb;" horiz-adv-x="856" d="M-20 133q39 43 71.5 80t63 74t59 73.5t59.5 77.5q-10 45 -20 81t-22.5 72t-28 77t-39.5 96q16 23 37.5 32t38.5 -14l233 -333q0 -10 -4 -19.5t-20 -23.5l-355 -302q-12 -12 -26 -12q-16 0 -26.5 12.5t-20.5 28.5zM319 133q39 43 72 80t63.5 74t59 73.5t59.5 77.5 q-10 45 -20 81t-22.5 72t-28 77t-39.5 96q16 23 37.5 32t38.5 -14l233 -333q0 -10 -4 -19.5t-20 -23.5l-355 -302q-12 -12 -26 -12q-16 0 -26.5 12.5t-21.5 28.5z" />
<glyph unicode="&#xbc;" horiz-adv-x="1642" d="M137 542.5v8.5q0 20 11.5 23.5t17.5 5.5q66 12 82 32.5t20 42.5l88 461q4 25 -3 39t-21.5 20.5t-32.5 7.5t-37 1q-23 0 -22 22q0 4 2 14.5t6 18.5q35 2 74.5 8t74.5 17q41 10 72 22t53 12q27 0 23 -22q-4 -23 -15.5 -61.5t-21.5 -90.5l-88 -473q-6 -37 11.5 -49t70.5 -22 q23 -2 22 -27q0 -6 -1 -14.5t-1 -16.5q-41 4 -105.5 6t-105.5 2q-12 0 -34.5 -1t-47 -2l-49 -2t-41.5 -3q-2 16 -2 20.5zM268 2l1008 1317q23 29 48.5 22.5t64.5 -32.5l-1004 -1311q-20 -29 -51 -23.5t-66 27.5zM866 231q0 25 17 41l436 461q8 10 16 14.5t29 4.5h86 l-90 -482h96l-16 -94h-101l-14 -72q-6 -35 10.5 -40t73.5 -15q23 -2 23 -24v-9.5t-5 -21.5q-41 4 -101 6t-101 2q-12 0 -35 -1t-47.5 -2l-49 -2t-40.5 -3q-2 16 -2 20v9q0 16 11 21t17 7q33 4 52.5 10.5t29.5 12.5t13.5 15t5.5 20l14 67h-320q-8 33 -8 55zM969 270h241 l68 332z" />
<glyph unicode="&#xbd;" horiz-adv-x="1642" d="M117 542.5v8.5q0 20 11 23.5t17 5.5q66 12 82.5 32.5t20.5 42.5l88 461q4 25 -3 39t-21.5 20.5t-33 7.5t-36.5 1q-23 0 -23 22q0 4 2 14.5t6 18.5q35 2 75 8t75 17q41 10 71.5 22t53.5 12q27 0 22 -22q-4 -23 -15 -61.5t-22 -90.5l-88 -473q-6 -37 11.5 -49t70.5 -22 q23 -2 23 -27q0 -6 -1 -14.5t-1 -16.5q-41 4 -105.5 6t-105.5 2q-12 0 -35 -1t-47.5 -2l-49 -2t-40.5 -3q-2 16 -2 20.5zM217 2l1008 1317q23 29 48 22.5t64 -32.5l-1003 -1311q-20 -29 -51 -23.5t-66 27.5zM850 0l4 55q139 117 227 199t138.5 141.5t69 100.5t18.5 75 q0 57 -32 78t-71 21q-35 0 -80 -12.5t-98 -47.5q-10 -6 -20 -6q-20 0 -35 25q59 66 138 102.5t151 36.5q96 0 149 -46t53 -130q0 -49 -23.5 -97.5t-74.5 -101.5t-133 -118.5t-197 -151.5h217q29 0 48.5 16.5t35.5 38.5q14 20 33 21q6 0 15.5 -2.5t19.5 -6.5 q-8 -14 -16.5 -37.5t-16.5 -49t-15 -50t-12 -43.5q-4 -16 -22 -16q-25 0 -56.5 3t-78.5 3h-336z" />
<glyph unicode="&#xbe;" horiz-adv-x="1642" d="M61 588q0 12 16.5 32.5t41.5 43.5q14 10 22 10q16 0 33 -15q29 -25 56.5 -42t54.5 -17q31 0 62.5 11.5t56 33t41 55t16.5 80.5q0 57 -29 94t-88 37q-20 0 -51 -6t-66 -22v55q133 51 186.5 97t53.5 106q0 76 -82 76q-31 0 -68.5 -10.5t-89.5 -45.5q-29 -16 -51 19 q66 61 129.5 89.5t130.5 28.5q90 0 133 -38.5t43 -90.5q0 -55 -32.5 -96t-116.5 -84v-6q80 -16 114.5 -62.5t34.5 -111.5q0 -63 -34.5 -116.5t-88 -92.5t-121 -60.5t-130.5 -21.5q-45 0 -93.5 13.5t-76.5 41.5q-6 6 -7 15zM266 2l1008 1317q23 29 48.5 22.5t63.5 -32.5 l-1003 -1311q-20 -29 -51 -23.5t-66 27.5zM850 231q0 25 16 41l437 461q8 10 16 14.5t29 4.5h86l-91 -482h97l-17 -94h-100l-14 -72q-6 -35 10 -40t74 -15q23 -2 22 -24v-9.5t-4 -21.5q-41 4 -101.5 6t-101.5 2q-12 0 -34.5 -1t-47 -2l-49 -2t-41.5 -3q-2 16 -2 20v9 q0 16 11.5 21t17.5 7q33 4 52.5 10.5t29.5 12.5t13 15t5 20l15 67h-320q-8 33 -8 55zM952 270h242l68 332z" />
<glyph unicode="&#xbf;" horiz-adv-x="665" d="M-80 -190q0 43 18.5 79.5t50 69.5t73.5 62.5t90 60.5q39 25 76.5 49.5t67.5 50t48 53t18 58.5q0 39 -10 73.5t-37 100.5q-6 16 -2 31.5t37 25.5q45 -53 74 -93t45 -71.5t22.5 -56t6.5 -47.5q0 -90 -69 -154.5t-175 -132.5q-41 -27 -81 -52.5t-71.5 -52t-51 -55 t-19.5 -61.5q0 -57 42 -81.5t91 -24.5q35 0 75 18t87 64q18 16 28.5 22t24.5 6q16 0 34.5 -10t33 -23.5t23.5 -29t9 -27.5t-8 -22.5t-20 -20.5q-23 -18 -52.5 -35.5t-62.5 -31t-65.5 -21.5t-63.5 -8q-74 0 -127 25.5t-89 67.5t-53.5 93t-17.5 101zM287 764q0 61 34.5 100 t84.5 39q59 0 86.5 -33t27.5 -86q0 -59 -33.5 -99t-87.5 -40q-53 0 -82.5 34t-29.5 85z" />
<glyph unicode="&#xc0;" horiz-adv-x="1181" d="M-135 18q0 27 35 33q106 18 137 78l655 1206q12 20 31 21q6 0 12 -2t10 -4l220 -1215q6 -37 36.5 -55.5t79.5 -26.5q27 -4 35 -12t8 -21q0 -10 -4 -30q-57 4 -109.5 7t-107.5 3q-121 0 -239 -12q-6 14 -7 30q0 27 39 33q27 4 57.5 18.5t30.5 45.5v12t-2 18l-61 342h-393 l-183 -335q-14 -29 -14 -48q0 -25 27.5 -36t85.5 -19q37 -6 37 -31q0 -10 -5 -30q-61 6 -113 9t-110 3q-41 0 -85 -2t-97 -10l-4 16t-2 14zM369 565h338l-80 477zM459 1638q0 27 24.5 55.5t75.5 51.5l281 -221q12 -10 15 -17.5t3 -13.5q0 -10 -7 -20.5t-17 -18.5 q-51 25 -90 43.5t-75 31.5t-73 25.5t-82 28.5q-20 6 -37.5 18.5t-17.5 36.5z" />
<glyph unicode="&#xc1;" horiz-adv-x="1181" d="M-135 18q0 27 35 33q106 18 137 78l655 1206q12 20 31 21q6 0 12 -2t10 -4l220 -1215q6 -37 36.5 -55.5t79.5 -26.5q27 -4 35 -12t8 -21q0 -10 -4 -30q-57 4 -109.5 7t-107.5 3q-121 0 -239 -12q-6 14 -7 30q0 27 39 33q27 4 57.5 18.5t30.5 45.5v12t-2 18l-61 342h-393 l-183 -335q-14 -29 -14 -48q0 -25 27.5 -36t85.5 -19q37 -6 37 -31q0 -10 -5 -30q-61 6 -113 9t-110 3q-41 0 -85 -2t-97 -10l-4 16t-2 14zM369 565h338l-80 477zM623 1489q0 6 3 13t15 18l287 231q100 -45 100 -102q0 -25 -17.5 -37.5t-37.5 -18.5q-47 -16 -85 -29.5 t-75 -29.5t-77 -35.5t-91 -44.5q-23 18 -22 35z" />
<glyph unicode="&#xc2;" horiz-adv-x="1181" d="M-135 18q0 27 35 33q106 18 137 78l655 1206q12 20 31 21q6 0 12 -2t10 -4l220 -1215q6 -37 36.5 -55.5t79.5 -26.5q27 -4 35 -12t8 -21q0 -10 -4 -30q-57 4 -109.5 7t-107.5 3q-121 0 -239 -12q-6 14 -7 30q0 27 39 33q27 4 57.5 18.5t30.5 45.5v12t-2 18l-61 342h-393 l-183 -335q-14 -29 -14 -48q0 -25 27.5 -36t85.5 -19q37 -6 37 -31q0 -10 -5 -30q-61 6 -113 9t-110 3q-41 0 -85 -2t-97 -10l-4 16t-2 14zM369 565h338l-80 477zM471 1493q0 16 16 31l263 229q53 0 75.5 -9t44.5 -42l129 -172q10 -12 11 -27q0 -29 -47 -49q-47 39 -93.5 73 t-105.5 64q-66 -31 -125 -63.5t-133 -73.5q-35 16 -35 39z" />
<glyph unicode="&#xc3;" horiz-adv-x="1181" d="M-135 18q0 27 35 33q106 18 137 78l655 1206q12 20 31 21q6 0 12 -2t10 -4l220 -1215q6 -37 36.5 -55.5t79.5 -26.5q27 -4 35 -12t8 -21q0 -10 -4 -30q-57 4 -109.5 7t-107.5 3q-121 0 -239 -12q-6 14 -7 30q0 27 39 33q27 4 57.5 18.5t30.5 45.5v12t-2 18l-61 342h-393 l-183 -335q-14 -29 -14 -48q0 -25 27.5 -36t85.5 -19q37 -6 37 -31q0 -10 -5 -30q-61 6 -113 9t-110 3q-41 0 -85 -2t-97 -10l-4 16t-2 14zM369 565h338l-80 477zM508 1487q0 10 10 20q76 76 121 102.5t86 26.5q20 0 40.5 -8t41 -18.5t40 -18.5t38.5 -8q23 0 53.5 12.5 t77.5 46.5q12 -8 21.5 -17t9.5 -23t-11 -25q-41 -43 -93 -83t-97 -40q-27 0 -50.5 9.5t-45 19.5t-41 19t-37.5 9q-25 0 -51.5 -11t-79.5 -52q-12 8 -22.5 18.5t-10.5 20.5z" />
<glyph unicode="&#xc4;" horiz-adv-x="1181" d="M-135 18q0 27 35 33q106 18 137 78l655 1206q12 20 31 21q6 0 12 -2t10 -4l220 -1215q6 -37 36.5 -55.5t79.5 -26.5q27 -4 35 -12t8 -21q0 -10 -4 -30q-57 4 -109.5 7t-107.5 3q-121 0 -239 -12q-6 14 -7 30q0 27 39 33q27 4 57.5 18.5t30.5 45.5v12t-2 18l-61 342h-393 l-183 -335q-14 -29 -14 -48q0 -25 27.5 -36t85.5 -19q37 -6 37 -31q0 -10 -5 -30q-61 6 -113 9t-110 3q-41 0 -85 -2t-97 -10l-4 16t-2 14zM369 565h338l-80 477zM496 1548q0 51 30.5 82t67.5 31q43 0 66.5 -26.5t23.5 -69.5q0 -51 -29.5 -82t-68.5 -31q-41 0 -65.5 26.5 t-24.5 69.5zM815 1548q0 51 31 82t67 31q43 0 67 -26.5t24 -69.5q0 -51 -30 -82t-69 -31q-41 0 -65.5 26.5t-24.5 69.5z" />
<glyph unicode="&#xc5;" horiz-adv-x="1181" d="M-135 18q0 27 35 33q106 18 137 78l655 1206q12 20 31 21q6 0 12 -2t10 -4l220 -1215q6 -37 36.5 -55.5t79.5 -26.5q27 -4 35 -12t8 -21q0 -10 -4 -30q-57 4 -109.5 7t-107.5 3q-121 0 -239 -12q-6 14 -7 30q0 27 39 33q27 4 57.5 18.5t30.5 45.5v12t-2 18l-61 342h-393 l-183 -335q-14 -29 -14 -48q0 -25 27.5 -36t85.5 -19q37 -6 37 -31q0 -10 -5 -30q-61 6 -113 9t-110 3q-41 0 -85 -2t-97 -10l-4 16t-2 14zM369 565h338l-80 477zM580 1606q0 41 16 76.5t42 61t59.5 40t68.5 14.5q84 0 119 -45t35 -113q0 -43 -16.5 -78.5t-43 -61t-59.5 -40 t-64 -14.5q-86 0 -121.5 45t-35.5 115zM680 1593q0 -41 18.5 -59t38.5 -18q37 0 59.5 36.5t22.5 98.5q0 41 -18.5 59.5t-40.5 18.5q-39 0 -59.5 -41t-20.5 -95z" />
<glyph unicode="&#xc6;" horiz-adv-x="1734" d="M-127 10v10q0 16 15.5 23.5t37.5 13.5q49 14 81 42t71 87l659 981q20 33 23.5 54.5t-9 35t-37 20.5t-57.5 11q-25 2 -24 23v10t4 20q61 -4 114.5 -7t102.5 -3h619q66 0 111.5 6t70.5 6q31 0 33 -24q4 -35 9 -106.5t27 -163.5q-23 -14 -45 -15q-29 0 -34 25 q-27 104 -79.5 148t-156.5 44h-260l-107 -565h285q45 0 66.5 31t38.5 84q6 25 34 24q18 0 39 -8q-12 -49 -22 -89t-17.5 -81t-12.5 -86t-9 -104q-20 -4 -37 -4q-16 0 -21.5 10t-5.5 26q0 20 -1 42t-7 38.5t-20.5 26.5t-40.5 10h-285l-88 -456q-12 -70 70 -70h229 q88 0 162 44t147 159q12 20 35 20q10 0 22.5 -6t22.5 -16q-10 -20 -20 -43q-18 -41 -39 -95q-14 -35 -22.5 -62.5t-15.5 -48t-17.5 -31.5t-28.5 -11q-35 0 -71 5t-95 5h-502q-45 0 -101.5 -3t-111.5 -9q-4 16 -4 22v10q0 27 29 31q51 4 87 25.5t44 64.5l88 465h-381 l-258 -391q-53 -80 -44 -113.5t113 -48.5q33 -2 33 -33q0 -10 -1 -15t-5 -15q-20 2 -53 4t-68 3t-66.5 2t-49.5 1q-41 0 -86.5 -2t-102.5 -8q-4 14 -4 20zM518 686h344l111 565q-68 12 -109 -49z" />
<glyph unicode="&#xc7;" horiz-adv-x="1255" d="M70 524q0 150 49 298.5t147.5 267t247 192.5t348.5 74q102 0 197.5 -16.5t183.5 -45.5q-6 -59 -6 -116q0 -41 3 -82t7 -82q-14 -10 -37 -10q-39 0 -41 30q-18 135 -100 188.5t-219 53.5q-135 0 -241.5 -58.5t-181.5 -159t-114 -234.5t-39 -283q0 -111 30 -200t83 -151.5 t130 -97.5t173 -35q139 0 220 57.5t141 184.5q14 33 49 33q12 0 25.5 -5t17.5 -10q-31 -66 -54.5 -138.5t-48.5 -162.5q-41 -8 -86 -14t-91 -12t-89 -9.5t-78 -5.5q-31 -37 -38 -54.5t-7 -35.5t12.5 -36.5t25.5 -38t25.5 -39t12.5 -39.5q0 -31 -13.5 -57.5t-43 -53.5 t-78.5 -53.5t-121 -56.5q-18 27 -15 41t25 26q63 35 84 60.5t21 54.5q0 18 -10.5 35.5t-23.5 34t-23.5 33t-10.5 34.5q0 12 3 23.5t14.5 28t31 39t51.5 56.5q-147 6 -251.5 52.5t-170 120t-96 170t-30.5 204.5z" />
<glyph unicode="&#xc8;" horiz-adv-x="1136" d="M12 20q0 10 6.5 20.5t22.5 12.5q63 10 94 30.5t37 55.5l203 1053q8 41 -22.5 59.5t-80.5 24.5q-29 6 -28 35q0 6 1 14t3 18q61 -6 124.5 -9t119.5 -3h387q88 0 122.5 6t57.5 6q27 0 33 -24q4 -35 10 -105.5t24 -160.5q-8 -4 -20 -9.5t-23 -5.5q-27 0 -34 25 q-27 104 -78 147t-154 43h-256l-102 -534h280q45 0 65.5 30.5t37.5 84.5q4 10 11 16t24 6q18 0 38 -8q-12 -49 -21 -89t-16.5 -81t-12.5 -86t-9 -103q-18 -6 -37 -6q-18 0 -25.5 10.5t-5.5 22.5q4 47 -8 86t-57 39h-279l-96 -508q-6 -33 9.5 -44t50.5 -11h235q88 0 157.5 45 t145.5 156q8 10 15.5 15t19.5 5t24.5 -6t22.5 -17q-10 -20 -20 -43q-10 -18 -20.5 -42.5t-20.5 -49.5q-16 -41 -26.5 -79.5t-20.5 -55.5q-10 -16 -33 -16q-35 0 -70 5t-94 5h-483q-43 0 -105.5 -3t-118.5 -9q-2 10 -3 18t-1 14zM473 1638q0 27 24.5 55.5t75.5 51.5l281 -221 q12 -10 15 -17.5t3 -13.5q0 -10 -7 -20.5t-17 -18.5q-51 25 -90 43.5t-75 31.5t-73 25.5t-82 28.5q-20 6 -37.5 18.5t-17.5 36.5z" />
<glyph unicode="&#xc9;" horiz-adv-x="1136" d="M12 20q0 10 6.5 20.5t22.5 12.5q63 10 94 30.5t37 55.5l203 1053q8 41 -22.5 59.5t-80.5 24.5q-29 6 -28 35q0 6 1 14t3 18q61 -6 124.5 -9t119.5 -3h387q88 0 122.5 6t57.5 6q27 0 33 -24q4 -35 10 -105.5t24 -160.5q-8 -4 -20 -9.5t-23 -5.5q-27 0 -34 25 q-27 104 -78 147t-154 43h-256l-102 -534h280q45 0 65.5 30.5t37.5 84.5q4 10 11 16t24 6q18 0 38 -8q-12 -49 -21 -89t-16.5 -81t-12.5 -86t-9 -103q-18 -6 -37 -6q-18 0 -25.5 10.5t-5.5 22.5q4 47 -8 86t-57 39h-279l-96 -508q-6 -33 9.5 -44t50.5 -11h235q88 0 157.5 45 t145.5 156q8 10 15.5 15t19.5 5t24.5 -6t22.5 -17q-10 -20 -20 -43q-10 -18 -20.5 -42.5t-20.5 -49.5q-16 -41 -26.5 -79.5t-20.5 -55.5q-10 -16 -33 -16q-35 0 -70 5t-94 5h-483q-43 0 -105.5 -3t-118.5 -9q-2 10 -3 18t-1 14zM586 1489q0 6 3 13t15 18l287 231 q100 -45 100 -102q0 -25 -17.5 -37.5t-37.5 -18.5q-47 -16 -85 -29.5t-75 -29.5t-77 -35.5t-91 -44.5q-23 18 -22 35z" />
<glyph unicode="&#xca;" horiz-adv-x="1136" d="M12 20q0 10 6.5 20.5t22.5 12.5q63 10 94 30.5t37 55.5l203 1053q8 41 -22.5 59.5t-80.5 24.5q-29 6 -28 35q0 6 1 14t3 18q61 -6 124.5 -9t119.5 -3h387q88 0 122.5 6t57.5 6q27 0 33 -24q4 -35 10 -105.5t24 -160.5q-8 -4 -20 -9.5t-23 -5.5q-27 0 -34 25 q-27 104 -78 147t-154 43h-256l-102 -534h280q45 0 65.5 30.5t37.5 84.5q4 10 11 16t24 6q18 0 38 -8q-12 -49 -21 -89t-16.5 -81t-12.5 -86t-9 -103q-18 -6 -37 -6q-18 0 -25.5 10.5t-5.5 22.5q4 47 -8 86t-57 39h-279l-96 -508q-6 -33 9.5 -44t50.5 -11h235q88 0 157.5 45 t145.5 156q8 10 15.5 15t19.5 5t24.5 -6t22.5 -17q-10 -20 -20 -43q-10 -18 -20.5 -42.5t-20.5 -49.5q-16 -41 -26.5 -79.5t-20.5 -55.5q-10 -16 -33 -16q-35 0 -70 5t-94 5h-483q-43 0 -105.5 -3t-118.5 -9q-2 10 -3 18t-1 14zM459 1493q0 16 16 31l262 229q53 0 76 -9 t45 -42l129 -172q10 -12 10 -27q0 -29 -47 -49q-47 39 -93 73t-105 64q-66 -31 -125.5 -63.5t-132.5 -73.5q-35 16 -35 39z" />
<glyph unicode="&#xcb;" horiz-adv-x="1136" d="M12 20q0 10 6.5 20.5t22.5 12.5q63 10 94 30.5t37 55.5l203 1053q8 41 -22.5 59.5t-80.5 24.5q-29 6 -28 35q0 6 1 14t3 18q61 -6 124.5 -9t119.5 -3h387q88 0 122.5 6t57.5 6q27 0 33 -24q4 -35 10 -105.5t24 -160.5q-8 -4 -20 -9.5t-23 -5.5q-27 0 -34 25 q-27 104 -78 147t-154 43h-256l-102 -534h280q45 0 65.5 30.5t37.5 84.5q4 10 11 16t24 6q18 0 38 -8q-12 -49 -21 -89t-16.5 -81t-12.5 -86t-9 -103q-18 -6 -37 -6q-18 0 -25.5 10.5t-5.5 22.5q4 47 -8 86t-57 39h-279l-96 -508q-6 -33 9.5 -44t50.5 -11h235q88 0 157.5 45 t145.5 156q8 10 15.5 15t19.5 5t24.5 -6t22.5 -17q-10 -20 -20 -43q-10 -18 -20.5 -42.5t-20.5 -49.5q-16 -41 -26.5 -79.5t-20.5 -55.5q-10 -16 -33 -16q-35 0 -70 5t-94 5h-483q-43 0 -105.5 -3t-118.5 -9q-2 10 -3 18t-1 14zM477 1548q0 51 31 82t67 31q43 0 67 -26.5 t24 -69.5q0 -51 -30 -82t-69 -31q-41 0 -65.5 26.5t-24.5 69.5zM797 1548q0 51 30.5 82t67.5 31q43 0 66.5 -26.5t23.5 -69.5q0 -51 -29.5 -82t-68.5 -31q-41 0 -65.5 26.5t-24.5 69.5z" />
<glyph unicode="&#xcc;" horiz-adv-x="712" d="M14 20q0 25 25 29q66 10 94.5 29.5t36.5 60.5l203 1053q8 41 -13.5 60.5t-87.5 27.5q-29 6 -28 33q0 6 2 13t4 17q61 -6 120.5 -9t110.5 -3q43 0 104.5 3t116.5 9q4 -20 5 -30q0 -29 -29 -31q-66 -8 -92.5 -28.5t-34.5 -61.5l-203 -1053q-8 -41 14.5 -59.5t92.5 -28.5 q27 -6 26 -31q0 -12 -4 -32q-61 6 -124.5 9t-114.5 3q-43 0 -103.5 -3t-116.5 -9q-4 20 -4 32zM266 1638q0 27 24.5 55.5t76.5 51.5l280 -221q12 -10 15.5 -17.5t3.5 -13.5q0 -10 -7.5 -20.5t-17.5 -18.5q-51 25 -90 43.5t-75 31.5t-72.5 25.5t-81.5 28.5q-20 6 -38 18.5 t-18 36.5z" />
<glyph unicode="&#xcd;" horiz-adv-x="712" d="M14 20q0 25 25 29q66 10 94.5 29.5t36.5 60.5l203 1053q8 41 -13.5 60.5t-87.5 27.5q-29 6 -28 33q0 6 2 13t4 17q61 -6 120.5 -9t110.5 -3q43 0 104.5 3t116.5 9q4 -20 5 -30q0 -29 -29 -31q-66 -8 -92.5 -28.5t-34.5 -61.5l-203 -1053q-8 -41 14.5 -59.5t92.5 -28.5 q27 -6 26 -31q0 -12 -4 -32q-61 6 -124.5 9t-114.5 3q-43 0 -103.5 -3t-116.5 -9q-4 20 -4 32zM336 1489q0 6 3 13t15 18l287 231q100 -45 100 -102q0 -25 -17 -37.5t-38 -18.5q-47 -16 -85 -29.5t-75 -29.5t-76.5 -35.5t-91.5 -44.5q-23 18 -22 35z" />
<glyph unicode="&#xce;" horiz-adv-x="712" d="M14 20q0 25 25 29q66 10 94.5 29.5t36.5 60.5l203 1053q8 41 -13.5 60.5t-87.5 27.5q-29 6 -28 33q0 6 2 13t4 17q61 -6 120.5 -9t110.5 -3q43 0 104.5 3t116.5 9q4 -20 5 -30q0 -29 -29 -31q-66 -8 -92.5 -28.5t-34.5 -61.5l-203 -1053q-8 -41 14.5 -59.5t92.5 -28.5 q27 -6 26 -31q0 -12 -4 -32q-61 6 -124.5 9t-114.5 3q-43 0 -103.5 -3t-116.5 -9q-4 20 -4 32zM238 1493q0 16 16 31l262 229q53 0 75.5 -9t45.5 -42l129 -172q10 -12 10 -27q0 -29 -47 -49q-47 39 -93 73t-106 64q-66 -31 -125 -63.5t-133 -73.5q-35 16 -34 39z" />
<glyph unicode="&#xcf;" horiz-adv-x="712" d="M14 20q0 25 25 29q66 10 94.5 29.5t36.5 60.5l203 1053q8 41 -13.5 60.5t-87.5 27.5q-29 6 -28 33q0 6 2 13t4 17q61 -6 120.5 -9t110.5 -3q43 0 104.5 3t116.5 9q4 -20 5 -30q0 -29 -29 -31q-66 -8 -92.5 -28.5t-34.5 -61.5l-203 -1053q-8 -41 14.5 -59.5t92.5 -28.5 q27 -6 26 -31q0 -12 -4 -32q-61 6 -124.5 9t-114.5 3q-43 0 -103.5 -3t-116.5 -9q-4 20 -4 32zM260 1548q0 51 31 82t67 31q43 0 67 -26.5t24 -69.5q0 -51 -30 -82t-69 -31q-41 0 -65.5 26.5t-24.5 69.5zM580 1548q0 51 30.5 82t67.5 31q43 0 66.5 -26.5t23.5 -69.5 q0 -51 -29.5 -82t-68.5 -31q-41 0 -65.5 26.5t-24.5 69.5z" />
<glyph unicode="&#xd0;" horiz-adv-x="1478" d="M8 20q0 25 25 31q61 12 96 29.5t43 58.5l96 500h-143q8 59 25.5 75.5t56.5 16.5h78l90 461q8 43 -17.5 59.5t-91.5 26.5q-25 2 -24 31q0 6 1 15t3 19q61 -6 120.5 -9t112.5 -3h283q141 0 260 -34.5t205 -104.5t134 -175.5t48 -244.5q0 -172 -66.5 -314.5t-181 -243.5 t-270.5 -157.5t-336 -56.5h-309q-43 0 -110.5 -3t-123.5 -9q-4 20 -4 32zM350 145q-6 -39 9.5 -53t54.5 -14h98q137 0 263 38t221.5 118.5t151.5 208.5t56 307q0 135 -35.5 231t-104.5 156.5t-169 88t-229 27.5h-105l-100 -522h373q-6 -59 -26 -75.5t-56 -16.5h-308z" />
<glyph unicode="&#xd1;" horiz-adv-x="1466" d="M16 20q0 10 6.5 19.5t20.5 11.5q53 8 87 29.5t42 58.5l205 1061q4 29 -14.5 49.5t-69.5 28.5q-14 2 -20.5 11t-6.5 20q0 12 6 34q53 -6 90 -9t84 -3q53 0 71 -5t28 -23l510 -1027l176 910q6 41 -24.5 63.5t-82.5 28.5q-31 2 -30 33q0 6 1 14t3 18q61 -6 104 -9t84 -3 q74 0 182 12q4 -20 5 -32q0 -10 -6.5 -19.5t-20.5 -11.5q-49 -8 -85 -29.5t-44 -58.5l-232 -1206q-10 -4 -18 -7.5t-20 -3.5q-25 0 -41 31l-562 1112l-184 -975q-8 -41 27 -62.5t84 -27.5q27 -2 26 -33q0 -6 -1 -14t-3 -18q-61 6 -109 9t-89 3q-37 0 -79 -3t-96 -9 q-2 10 -3 18t-1 14zM649 1487q0 10 10 20q76 76 121 102.5t86 26.5q20 0 41 -8t41.5 -18.5t40 -18.5t37.5 -8q23 0 53.5 12.5t77.5 46.5q12 -8 21.5 -17t9.5 -23t-10 -25q-41 -43 -93.5 -83t-97.5 -40q-27 0 -50.5 9.5t-45 19.5t-41 19t-37.5 9q-25 0 -51.5 -11t-79.5 -52 q-12 8 -22.5 18.5t-10.5 20.5z" />
<glyph unicode="&#xd2;" horiz-adv-x="1380" d="M70 524q0 166 54 316.5t150.5 265.5t229.5 182.5t291 67.5q125 0 220 -42t158.5 -115t96.5 -171t33 -213q0 -186 -57.5 -341t-158 -265.5t-236.5 -172t-294 -61.5q-121 0 -212 45.5t-152.5 121t-92 175t-30.5 207.5zM268 522q0 -219 81 -339t259 -120q129 0 222.5 66 t153.5 169t89 232t29 258q0 106 -21.5 194.5t-62.5 152t-100.5 98.5t-137.5 35q-133 0 -229 -64.5t-158.5 -169t-93.5 -238.5t-31 -274zM571 1638q0 27 25 55.5t76 51.5l280 -221q12 -10 15.5 -17.5t3.5 -13.5q0 -10 -7.5 -20.5t-17.5 -18.5q-51 25 -90 43.5t-75 31.5 t-72.5 25.5t-81.5 28.5q-20 6 -38 18.5t-18 36.5z" />
<glyph unicode="&#xd3;" horiz-adv-x="1380" d="M70 524q0 166 54 316.5t150.5 265.5t229.5 182.5t291 67.5q125 0 220 -42t158.5 -115t96.5 -171t33 -213q0 -186 -57.5 -341t-158 -265.5t-236.5 -172t-294 -61.5q-121 0 -212 45.5t-152.5 121t-92 175t-30.5 207.5zM268 522q0 -219 81 -339t259 -120q129 0 222.5 66 t153.5 169t89 232t29 258q0 106 -21.5 194.5t-62.5 152t-100.5 98.5t-137.5 35q-133 0 -229 -64.5t-158.5 -169t-93.5 -238.5t-31 -274zM641 1489q0 6 3 13t15 18l287 231q100 -45 101 -102q0 -25 -17.5 -37.5t-38.5 -18.5q-47 -16 -85 -29.5t-74.5 -29.5t-76.5 -35.5 t-91 -44.5q-23 18 -23 35z" />
<glyph unicode="&#xd4;" horiz-adv-x="1380" d="M70 524q0 166 54 316.5t150.5 265.5t229.5 182.5t291 67.5q125 0 220 -42t158.5 -115t96.5 -171t33 -213q0 -186 -57.5 -341t-158 -265.5t-236.5 -172t-294 -61.5q-121 0 -212 45.5t-152.5 121t-92 175t-30.5 207.5zM268 522q0 -219 81 -339t259 -120q129 0 222.5 66 t153.5 169t89 232t29 258q0 106 -21.5 194.5t-62.5 152t-100.5 98.5t-137.5 35q-133 0 -229 -64.5t-158.5 -169t-93.5 -238.5t-31 -274zM545 1493q0 16 16 31l262 229q53 0 76 -9t45 -42l129 -172q10 -12 10 -27q0 -29 -47 -49q-47 39 -93 73t-105 64q-66 -31 -125.5 -63.5 t-132.5 -73.5q-35 16 -35 39z" />
<glyph unicode="&#xd5;" horiz-adv-x="1380" d="M70 524q0 166 54 316.5t150.5 265.5t229.5 182.5t291 67.5q125 0 220 -42t158.5 -115t96.5 -171t33 -213q0 -186 -57.5 -341t-158 -265.5t-236.5 -172t-294 -61.5q-121 0 -212 45.5t-152.5 121t-92 175t-30.5 207.5zM268 522q0 -219 81 -339t259 -120q129 0 222.5 66 t153.5 169t89 232t29 258q0 106 -21.5 194.5t-62.5 152t-100.5 98.5t-137.5 35q-133 0 -229 -64.5t-158.5 -169t-93.5 -238.5t-31 -274zM557 1487q0 10 10 20q76 76 121 102.5t86 26.5q20 0 41 -8t41.5 -18.5t39.5 -18.5t38 -8q23 0 53.5 12.5t77.5 46.5q12 -8 21.5 -17 t9.5 -23t-11 -25q-41 -43 -93 -83t-97 -40q-27 0 -50.5 9.5t-45 19.5t-41 19t-37.5 9q-25 0 -51.5 -11t-79.5 -52q-12 8 -22.5 18.5t-10.5 20.5z" />
<glyph unicode="&#xd6;" horiz-adv-x="1380" d="M70 524q0 166 54 316.5t150.5 265.5t229.5 182.5t291 67.5q125 0 220 -42t158.5 -115t96.5 -171t33 -213q0 -186 -57.5 -341t-158 -265.5t-236.5 -172t-294 -61.5q-121 0 -212 45.5t-152.5 121t-92 175t-30.5 207.5zM268 522q0 -219 81 -339t259 -120q129 0 222.5 66 t153.5 169t89 232t29 258q0 106 -21.5 194.5t-62.5 152t-100.5 98.5t-137.5 35q-133 0 -229 -64.5t-158.5 -169t-93.5 -238.5t-31 -274zM575 1548q0 51 31 82t68 31q43 0 66.5 -26.5t23.5 -69.5q0 -51 -29.5 -82t-68.5 -31q-41 0 -66 26.5t-25 69.5zM895 1548q0 51 30.5 82 t67.5 31q43 0 66.5 -26.5t23.5 -69.5q0 -51 -29.5 -82t-68.5 -31q-41 0 -65.5 26.5t-24.5 69.5z" />
<glyph unicode="&#xd7;" horiz-adv-x="1011" d="M83 114.5q-3 26.5 19 49.5l289 291l-272 272q-23 23 -21 49.5t49 83.5l324 -325l330 329q45 -59 47 -86.5t-19 -48.5l-278 -276l293 -291q23 -23 20.5 -48.5t-47.5 -82.5l-346 342l-342 -342q-43 57 -46 83.5z" />
<glyph unicode="&#xd8;" horiz-adv-x="1347" d="M53 524q0 166 54.5 316.5t150.5 265.5t229 182.5t291 67.5q70 0 128.5 -13.5t109.5 -37.5l84 137q47 -33 55 -55.5t-8 -47.5l-51 -84q94 -72 142 -186.5t48 -253.5q0 -186 -57.5 -341t-157.5 -265.5t-236.5 -172t-293.5 -61.5q-57 0 -107.5 11.5t-93.5 29.5l-92 -151 q-47 33 -55.5 53.5t8.5 48.5l57 94q-102 76 -153.5 199t-51.5 264zM252 522q0 -111 19.5 -195.5t60.5 -144.5l618 1014q-78 72 -186 72q-133 0 -229.5 -64.5t-159 -169t-93 -239t-30.5 -273.5zM399 115q76 -52 193 -52q129 0 222 66t153.5 169t89 232t28.5 258 q0 100 -18 184.5t-55 145.5z" />
<glyph unicode="&#xd9;" horiz-adv-x="1484" d="M219.5 268q-18.5 88 1.5 191l141 731q8 43 -23.5 61.5t-76.5 22.5q-31 4 -31 33q0 14 7 36q123 -12 225 -12q43 0 111.5 3t123.5 9q2 -10 3 -18t1 -14q0 -12 -7 -21.5t-23 -11.5q-53 -8 -89 -27.5t-44 -58.5l-136 -698q-14 -78 -7 -152t40 -132t91.5 -94t146.5 -36 q74 0 142.5 21.5t126.5 69.5t101 126t66 192l133 699q8 41 -20.5 61.5t-81.5 28.5q-25 2 -25 33q0 6 1 14t3 18q61 -6 100.5 -9t79.5 -3q37 0 81 2t98 8q2 -10 4 -18t2 -14q0 -27 -27 -31q-51 -8 -84 -28.5t-41 -57.5l-141 -735q-18 -102 -64.5 -190.5t-117 -153 t-164.5 -101.5t-213 -37q-117 0 -203 38t-139 102.5t-71.5 152.5zM662 1638q0 27 24.5 55.5t75.5 51.5l280 -221q12 -10 15.5 -17.5t3.5 -13.5q0 -10 -7 -20.5t-18 -18.5q-51 25 -90 43.5t-74.5 31.5t-72.5 25.5t-82 28.5q-20 6 -37.5 18.5t-17.5 36.5z" />
<glyph unicode="&#xda;" horiz-adv-x="1484" d="M219.5 268q-18.5 88 1.5 191l141 731q8 43 -23.5 61.5t-76.5 22.5q-31 4 -31 33q0 14 7 36q123 -12 225 -12q43 0 111.5 3t123.5 9q2 -10 3 -18t1 -14q0 -12 -7 -21.5t-23 -11.5q-53 -8 -89 -27.5t-44 -58.5l-136 -698q-14 -78 -7 -152t40 -132t91.5 -94t146.5 -36 q74 0 142.5 21.5t126.5 69.5t101 126t66 192l133 699q8 41 -20.5 61.5t-81.5 28.5q-25 2 -25 33q0 6 1 14t3 18q61 -6 100.5 -9t79.5 -3q37 0 81 2t98 8q2 -10 4 -18t2 -14q0 -27 -27 -31q-51 -8 -84 -28.5t-41 -57.5l-141 -735q-18 -102 -64.5 -190.5t-117 -153 t-164.5 -101.5t-213 -37q-117 0 -203 38t-139 102.5t-71.5 152.5zM784 1489q0 6 3.5 13t15.5 18l287 231q100 -45 100 -102q0 -25 -17.5 -37.5t-37.5 -18.5q-47 -16 -85 -29.5t-75 -29.5t-77 -35.5t-91 -44.5q-23 18 -23 35z" />
<glyph unicode="&#xdb;" horiz-adv-x="1484" d="M219.5 268q-18.5 88 1.5 191l141 731q8 43 -23.5 61.5t-76.5 22.5q-31 4 -31 33q0 14 7 36q123 -12 225 -12q43 0 111.5 3t123.5 9q2 -10 3 -18t1 -14q0 -12 -7 -21.5t-23 -11.5q-53 -8 -89 -27.5t-44 -58.5l-136 -698q-14 -78 -7 -152t40 -132t91.5 -94t146.5 -36 q74 0 142.5 21.5t126.5 69.5t101 126t66 192l133 699q8 41 -20.5 61.5t-81.5 28.5q-25 2 -25 33q0 6 1 14t3 18q61 -6 100.5 -9t79.5 -3q37 0 81 2t98 8q2 -10 4 -18t2 -14q0 -27 -27 -31q-51 -8 -84 -28.5t-41 -57.5l-141 -735q-18 -102 -64.5 -190.5t-117 -153 t-164.5 -101.5t-213 -37q-117 0 -203 38t-139 102.5t-71.5 152.5zM664 1493q0 16 16 31l262 229q53 0 75.5 -9t45.5 -42l129 -172q10 -12 10 -27q0 -29 -47 -49q-47 39 -93 73t-106 64q-66 -31 -125 -63.5t-133 -73.5q-35 16 -34 39z" />
<glyph unicode="&#xdc;" horiz-adv-x="1484" d="M219.5 268q-18.5 88 1.5 191l141 731q8 43 -23.5 61.5t-76.5 22.5q-31 4 -31 33q0 14 7 36q123 -12 225 -12q43 0 111.5 3t123.5 9q2 -10 3 -18t1 -14q0 -12 -7 -21.5t-23 -11.5q-53 -8 -89 -27.5t-44 -58.5l-136 -698q-14 -78 -7 -152t40 -132t91.5 -94t146.5 -36 q74 0 142.5 21.5t126.5 69.5t101 126t66 192l133 699q8 41 -20.5 61.5t-81.5 28.5q-25 2 -25 33q0 6 1 14t3 18q61 -6 100.5 -9t79.5 -3q37 0 81 2t98 8q2 -10 4 -18t2 -14q0 -27 -27 -31q-51 -8 -84 -28.5t-41 -57.5l-141 -735q-18 -102 -64.5 -190.5t-117 -153 t-164.5 -101.5t-213 -37q-117 0 -203 38t-139 102.5t-71.5 152.5zM682 1548q0 51 30.5 82t67.5 31q43 0 66.5 -26.5t23.5 -69.5q0 -51 -29.5 -82t-68.5 -31q-41 0 -65.5 26.5t-24.5 69.5zM1001 1548q0 51 31 82t68 31q43 0 66.5 -26.5t23.5 -69.5q0 -51 -30 -82t-68 -31 q-41 0 -66 26.5t-25 69.5z" />
<glyph unicode="&#xdd;" horiz-adv-x="1122" d="M94 1307q0 16 6 34q59 -6 119 -9t113 -3q20 0 50 1t62.5 2t64.5 3t58 6q2 -10 3 -18t1 -16q0 -10 -6 -19.5t-18 -11.5q-63 -4 -90 -30.5t-11 -74.5l172 -477l361 482q29 37 7.5 67.5t-79.5 34.5q-29 2 -28 31q0 16 6 34q53 -6 108.5 -9t96.5 -3q37 0 79.5 3t96.5 9 q6 -18 6 -32q0 -29 -33 -35q-49 -8 -80 -26.5t-53 -47.5l-449 -590l-90 -467q-8 -43 21.5 -63.5t81.5 -26.5q31 -4 30 -32q0 -16 -6 -35q-61 6 -128.5 9t-119.5 3q-23 0 -52 -1t-63 -2t-67 -4t-59 -5q-2 10 -3 18t-1 14q0 10 6 20.5t20 12.5q53 8 95.5 29.5t52.5 62.5 l84 445l-232 618q-8 23 -32.5 39.5t-73.5 24.5q-27 6 -27 35zM614 1489q0 6 3.5 13t15.5 18l287 231q100 -45 100 -102q0 -25 -17.5 -37.5t-37.5 -18.5q-47 -16 -85 -29.5t-75 -29.5t-77 -35.5t-91 -44.5q-23 18 -23 35z" />
<glyph unicode="&#xde;" horiz-adv-x="1060" d="M18 23q0 10 7.5 19t25.5 11q106 8 121 86l199 1039q6 31 1 50t-18.5 30.5t-34 15.5t-43.5 8q-14 2 -23 6t-9 23q0 12 4 32q61 -6 123.5 -9t111.5 -3q43 0 104.5 3t114.5 9q4 -16 4.5 -23t0.5 -13q0 -10 -7.5 -16.5t-15.5 -8.5q-45 -4 -84 -21.5t-49 -68.5l-27 -137h82 q98 0 172 -24.5t123 -67.5t73.5 -101.5t24.5 -126.5q0 -90 -34.5 -169t-99 -137t-158 -92t-211.5 -34h-115l-29 -149q-6 -33 0 -51.5t21.5 -30t36 -15.5t45.5 -8q10 -2 18 -6t8 -23q0 -8 -6 -32q-59 6 -126.5 9t-115.5 3q-43 0 -100 -3t-110 -9q-4 16 -4.5 22t-0.5 13z M395 383h27q88 0 158.5 17.5t120 58.5t76 107.5t26.5 164.5q0 47 -12.5 91t-40 78t-73.5 54.5t-114 20.5h-53z" />
<glyph unicode="&#xdf;" horiz-adv-x="978" d="M-289 -502q12 37 21.5 80t13.5 90l31 13q23 -29 50.5 -46.5t57.5 -17.5q72 0 114 112.5t81 340.5l166 993q16 98 58 172t100.5 124t129 74.5t144.5 24.5q57 0 112.5 -15.5t99.5 -46t70.5 -76.5t26.5 -108q0 -72 -45 -129t-98 -109t-98.5 -104.5t-45.5 -111.5 q0 -57 28 -106.5t59.5 -97.5t59 -96t27.5 -104q0 -80 -35.5 -149.5t-95 -119.5t-136.5 -80t-161 -30q-16 0 -38.5 2.5t-42 7.5t-33 13t-13.5 22q0 16 7.5 37t18.5 38.5t25.5 29.5t28.5 12q16 0 27 -8q27 -23 61.5 -42t69.5 -19q63 0 112.5 52t49.5 156q0 59 -27.5 110.5 t-60.5 101t-60.5 99.5t-27.5 107q0 76 43 127t102 109q27 25 52.5 51.5t45 57t31.5 66.5t12 81q0 100 -58 149t-144 49q-43 0 -79 -17t-64.5 -63.5t-53 -127t-45.5 -207.5l-127 -758q-25 -152 -61.5 -265.5t-82.5 -196.5t-102.5 -140.5t-122.5 -95.5q-23 -12 -46 -20.5 t-52 -8.5q-16 0 -39.5 4t-40.5 10z" />
<glyph unicode="&#xe0;" horiz-adv-x="960" d="M23 176q0 174 56 309.5t140 228.5t181.5 142t181.5 49q66 0 126 -6t136 -22l-142 -711q-4 -20 -4 -37q0 -27 23 -27q14 0 29.5 7.5t31 16.5t28.5 16.5t21 7.5q20 0 29 -41q-37 -27 -77 -50.5t-76.5 -42t-69.5 -30t-53 -11.5q-23 0 -41.5 9.5t-18.5 40.5q0 10 2 23t6 28 l60 264h-8q-51 -100 -104.5 -170t-105.5 -113t-102.5 -62.5t-95.5 -19.5q-31 0 -58.5 9.5t-49 32t-33.5 61.5t-12 98zM197 244q0 -74 18 -106t51 -32q41 0 88 37t91 96.5t85 134.5t71 152.5t47.5 150.5t17.5 128q-25 8 -54.5 13t-56.5 5q-82 0 -147.5 -43t-112.5 -120.5 t-72.5 -184t-25.5 -231.5zM389 1290q0 37 43 59.5t103 24.5l137 -301q6 -16 6 -26q0 -25 -39 -39q-35 41 -62.5 73.5t-53 59t-51.5 51.5t-56 51q-27 25 -27 47z" />
<glyph unicode="&#xe1;" horiz-adv-x="960" d="M23 176q0 174 56 309.5t140 228.5t181.5 142t181.5 49q66 0 126 -6t136 -22l-142 -711q-4 -20 -4 -37q0 -27 23 -27q14 0 29.5 7.5t31 16.5t28.5 16.5t21 7.5q20 0 29 -41q-37 -27 -77 -50.5t-76.5 -42t-69.5 -30t-53 -11.5q-23 0 -41.5 9.5t-18.5 40.5q0 10 2 23t6 28 l60 264h-8q-51 -100 -104.5 -170t-105.5 -113t-102.5 -62.5t-95.5 -19.5q-31 0 -58.5 9.5t-49 32t-33.5 61.5t-12 98zM197 244q0 -74 18 -106t51 -32q41 0 88 37t91 96.5t85 134.5t71 152.5t47.5 150.5t17.5 128q-25 8 -54.5 13t-56.5 5q-82 0 -147.5 -43t-112.5 -120.5 t-72.5 -184t-25.5 -231.5zM508 1038q0 12 10 25l240 295q53 -10 87 -36t34 -54q0 -33 -43 -60q-41 -25 -75 -47t-68 -45.5t-71.5 -52.5t-82.5 -66q-14 10 -22.5 18.5t-8.5 22.5z" />
<glyph unicode="&#xe2;" horiz-adv-x="960" d="M23 176q0 174 56 309.5t140 228.5t181.5 142t181.5 49q66 0 126 -6t136 -22l-142 -711q-4 -20 -4 -37q0 -27 23 -27q14 0 29.5 7.5t31 16.5t28.5 16.5t21 7.5q20 0 29 -41q-37 -27 -77 -50.5t-76.5 -42t-69.5 -30t-53 -11.5q-23 0 -41.5 9.5t-18.5 40.5q0 10 2 23t6 28 l60 264h-8q-51 -100 -104.5 -170t-105.5 -113t-102.5 -62.5t-95.5 -19.5q-31 0 -58.5 9.5t-49 32t-33.5 61.5t-12 98zM197 244q0 -74 18 -106t51 -32q41 0 88 37t91 96.5t85 134.5t71 152.5t47.5 150.5t17.5 128q-25 8 -54.5 13t-56.5 5q-82 0 -147.5 -43t-112.5 -120.5 t-72.5 -184t-25.5 -231.5zM348 1036.5q0 16.5 10 28.5l250 289q59 2 89 -5.5t42 -35.5l109 -248q6 -16 4 -31.5t-39 -32.5q-51 61 -89 106.5t-81 84.5q-63 -39 -126.5 -87t-135.5 -108q-33 23 -33 39.5z" />
<glyph unicode="&#xe3;" horiz-adv-x="960" d="M23 176q0 174 56 309.5t140 228.5t181.5 142t181.5 49q66 0 126 -6t136 -22l-142 -711q-4 -20 -4 -37q0 -27 23 -27q14 0 29.5 7.5t31 16.5t28.5 16.5t21 7.5q20 0 29 -41q-37 -27 -77 -50.5t-76.5 -42t-69.5 -30t-53 -11.5q-23 0 -41.5 9.5t-18.5 40.5q0 10 2 23t6 28 l60 264h-8q-51 -100 -104.5 -170t-105.5 -113t-102.5 -62.5t-95.5 -19.5q-31 0 -58.5 9.5t-49 32t-33.5 61.5t-12 98zM197 244q0 -74 18 -106t51 -32q41 0 88 37t91 96.5t85 134.5t71 152.5t47.5 150.5t17.5 128q-25 8 -54.5 13t-56.5 5q-82 0 -147.5 -43t-112.5 -120.5 t-72.5 -184t-25.5 -231.5zM375 1116q0 11 10 21q76 76 121 102.5t86 26.5q20 0 40.5 -8.5t41 -18.5t40 -18.5t38.5 -8.5q23 0 53.5 12.5t77.5 47.5q12 -8 21 -17.5t9 -23.5t-10 -25q-41 -43 -93 -83t-97 -40q-27 0 -50.5 9.5t-45 19.5t-41 19.5t-37.5 9.5q-25 0 -51.5 -11.5 t-79.5 -52.5q-12 8 -22.5 18.5t-10.5 20.5z" />
<glyph unicode="&#xe4;" horiz-adv-x="960" d="M23 176q0 174 56 309.5t140 228.5t181.5 142t181.5 49q66 0 126 -6t136 -22l-142 -711q-4 -20 -4 -37q0 -27 23 -27q14 0 29.5 7.5t31 16.5t28.5 16.5t21 7.5q20 0 29 -41q-37 -27 -77 -50.5t-76.5 -42t-69.5 -30t-53 -11.5q-23 0 -41.5 9.5t-18.5 40.5q0 10 2 23t6 28 l60 264h-8q-51 -100 -104.5 -170t-105.5 -113t-102.5 -62.5t-95.5 -19.5q-31 0 -58.5 9.5t-49 32t-33.5 61.5t-12 98zM197 244q0 -74 18 -106t51 -32q41 0 88 37t91 96.5t85 134.5t71 152.5t47.5 150.5t17.5 128q-25 8 -54.5 13t-56.5 5q-82 0 -147.5 -43t-112.5 -120.5 t-72.5 -184t-25.5 -231.5zM385 1163q0 51 30.5 82t67.5 31q43 0 66.5 -26.5t23.5 -69.5q0 -51 -29.5 -82t-68.5 -31q-41 0 -65.5 26.5t-24.5 69.5zM705 1163q0 51 30.5 82t67.5 31q43 0 66.5 -26.5t23.5 -69.5q0 -51 -29.5 -82t-68.5 -31q-41 0 -65.5 26.5t-24.5 69.5z" />
<glyph unicode="&#xe5;" horiz-adv-x="960" d="M23 176q0 174 56 309.5t140 228.5t181.5 142t181.5 49q66 0 126 -6t136 -22l-142 -711q-4 -20 -4 -37q0 -27 23 -27q14 0 29.5 7.5t31 16.5t28.5 16.5t21 7.5q20 0 29 -41q-37 -27 -77 -50.5t-76.5 -42t-69.5 -30t-53 -11.5q-23 0 -41.5 9.5t-18.5 40.5q0 10 2 23t6 28 l60 264h-8q-51 -100 -104.5 -170t-105.5 -113t-102.5 -62.5t-95.5 -19.5q-31 0 -58.5 9.5t-49 32t-33.5 61.5t-12 98zM197 244q0 -74 18 -106t51 -32q41 0 88 37t91 96.5t85 134.5t71 152.5t47.5 150.5t17.5 128q-25 8 -54.5 13t-56.5 5q-82 0 -147.5 -43t-112.5 -120.5 t-72.5 -184t-25.5 -231.5zM453 1157q0 41 16 77t42 61.5t59.5 40t68.5 14.5q84 0 119 -45t35 -113q0 -43 -16.5 -79t-43 -61.5t-59.5 -40t-64 -14.5q-86 0 -121.5 45t-35.5 115zM553 1145q0 -41 18.5 -59.5t38.5 -18.5q37 0 59.5 37t22.5 98q0 41 -18.5 59.5t-40.5 18.5 q-39 0 -59.5 -41t-20.5 -94z" />
<glyph unicode="&#xe6;" horiz-adv-x="1374" d="M23 180q0 176 56 311.5t141 227.5t184.5 139t183.5 47q66 0 123 -6t125 -18l-15 -72q57 45 123 70.5t143 25.5q43 0 85 -8t76 -29.5t55.5 -57.5t21.5 -89q0 -76 -45 -131t-122 -95t-178 -63.5t-216 -36.5q-2 -18 -2 -36.5v-36.5q0 -47 11 -91.5t33.5 -78t59.5 -54 t88 -20.5q61 0 126 22.5t124 65.5q18 14 29 14q14 0 19 -15t5 -24q-33 -31 -74.5 -61.5t-88.5 -53t-99.5 -37t-105.5 -14.5q-82 0 -138.5 27t-91 74t-50 113.5t-15.5 146.5h-8q-51 -102 -103.5 -171t-103.5 -112t-100.5 -61.5t-92.5 -18.5q-33 0 -62.5 9.5t-52 33 t-35.5 63.5t-13 101zM201 248q0 -78 19.5 -108.5t55.5 -30.5q41 0 87.5 35.5t90.5 94t84 133t70.5 151.5t48 151t17.5 129q-25 8 -54.5 13t-58.5 5q-84 0 -150.5 -42t-112.5 -116.5t-71.5 -180t-25.5 -234.5zM770 451q199 33 295 101.5t96 164.5q0 117 -117 117 q-47 0 -93 -29t-83 -80t-63.5 -122t-34.5 -152z" />
<glyph unicode="&#xe7;" horiz-adv-x="784" d="M41 303q0 113 34 221.5t95 193.5t148.5 136t191.5 51q125 0 246 -57q-10 -31 -18.5 -86t-12.5 -98l-31 2q-31 2 -37 30q-20 74 -62 102.5t-95 28.5q-72 0 -126.5 -41t-90 -109.5t-54 -160.5t-18.5 -194q0 -49 9 -93.5t30.5 -77t59.5 -52t93 -19.5q59 0 114.5 23.5 t109.5 58.5q4 4 10 7t10 3q16 0 21.5 -15.5t7.5 -25.5q-49 -43 -120 -86t-157 -59q-35 -43 -43 -61.5t-8 -39.5q0 -18 12.5 -36.5t25.5 -38t25.5 -39t12.5 -39.5q0 -31 -13.5 -57.5t-43 -53.5t-78.5 -53.5t-121 -56.5q-18 27 -15 41t25 26q63 35 84 60.5t21 54.5 q0 18 -10.5 35.5t-23.5 34t-23.5 33t-10.5 34.5q0 12 3 23.5t13.5 27t30 38t51.5 56.5q-78 0 -130 29t-83.5 75t-45 104.5t-13.5 119.5z" />
<glyph unicode="&#xe8;" horiz-adv-x="786" d="M35 313q0 109 33.5 215.5t95 190.5t149.5 135t197 51q43 0 84 -11t72.5 -33.5t51 -59.5t19.5 -88q0 -76 -40 -130.5t-110.5 -90t-166.5 -54t-211 -22.5q-2 -20 -3 -41t-1 -43q0 -47 8 -92t28.5 -80t56.5 -56.5t91 -21.5q53 0 110.5 19.5t116.5 60.5q20 14 29 14 q16 0 21.5 -16.5t5.5 -24.5q-31 -29 -70 -57.5t-84 -51t-96 -37t-107 -14.5q-86 0 -140 32t-86 82t-43 109.5t-11 114.5zM215 477q195 16 276.5 80t81.5 160q0 57 -27.5 87t-74.5 30q-49 0 -91 -30t-76 -79t-56.5 -113.5t-32.5 -134.5zM313 1290q0 37 43 59.5t103 24.5 l137 -301q6 -16 6 -26q0 -25 -39 -39q-35 41 -62.5 73.5t-53 59t-51 51.5t-56.5 51q-27 25 -27 47z" />
<glyph unicode="&#xe9;" horiz-adv-x="786" d="M35 313q0 109 33.5 215.5t95 190.5t149.5 135t197 51q43 0 84 -11t72.5 -33.5t51 -59.5t19.5 -88q0 -76 -40 -130.5t-110.5 -90t-166.5 -54t-211 -22.5q-2 -20 -3 -41t-1 -43q0 -47 8 -92t28.5 -80t56.5 -56.5t91 -21.5q53 0 110.5 19.5t116.5 60.5q20 14 29 14 q16 0 21.5 -16.5t5.5 -24.5q-31 -29 -70 -57.5t-84 -51t-96 -37t-107 -14.5q-86 0 -140 32t-86 82t-43 109.5t-11 114.5zM215 477q195 16 276.5 80t81.5 160q0 57 -27.5 87t-74.5 30q-49 0 -91 -30t-76 -79t-56.5 -113.5t-32.5 -134.5zM403 1038q0 12 11 25l239 295 q53 -10 87 -36t34 -54q0 -33 -43 -60q-41 -25 -74.5 -47t-67.5 -45.5t-72 -52.5t-83 -66q-14 10 -22.5 18.5t-8.5 22.5z" />
<glyph unicode="&#xea;" horiz-adv-x="786" d="M35 313q0 109 33.5 215.5t95 190.5t149.5 135t197 51q43 0 84 -11t72.5 -33.5t51 -59.5t19.5 -88q0 -76 -40 -130.5t-110.5 -90t-166.5 -54t-211 -22.5q-2 -20 -3 -41t-1 -43q0 -47 8 -92t28.5 -80t56.5 -56.5t91 -21.5q53 0 110.5 19.5t116.5 60.5q20 14 29 14 q16 0 21.5 -16.5t5.5 -24.5q-31 -29 -70 -57.5t-84 -51t-96 -37t-107 -14.5q-86 0 -140 32t-86 82t-43 109.5t-11 114.5zM215 477q195 16 276.5 80t81.5 160q0 57 -27.5 87t-74.5 30q-49 0 -91 -30t-76 -79t-56.5 -113.5t-32.5 -134.5zM268 1036.5q0 16.5 11 28.5l249 289 q59 2 89 -5.5t42 -35.5l109 -248q6 -16 4 -31.5t-39 -32.5q-51 61 -89 106.5t-81 84.5q-63 -39 -126.5 -87t-135.5 -108q-33 23 -33 39.5z" />
<glyph unicode="&#xeb;" horiz-adv-x="786" d="M35 313q0 109 33.5 215.5t95 190.5t149.5 135t197 51q43 0 84 -11t72.5 -33.5t51 -59.5t19.5 -88q0 -76 -40 -130.5t-110.5 -90t-166.5 -54t-211 -22.5q-2 -20 -3 -41t-1 -43q0 -47 8 -92t28.5 -80t56.5 -56.5t91 -21.5q53 0 110.5 19.5t116.5 60.5q20 14 29 14 q16 0 21.5 -16.5t5.5 -24.5q-31 -29 -70 -57.5t-84 -51t-96 -37t-107 -14.5q-86 0 -140 32t-86 82t-43 109.5t-11 114.5zM215 477q195 16 276.5 80t81.5 160q0 57 -27.5 87t-74.5 30q-49 0 -91 -30t-76 -79t-56.5 -113.5t-32.5 -134.5zM289 1163q0 51 30.5 82t67.5 31 q43 0 66.5 -26.5t23.5 -69.5q0 -51 -29.5 -82t-68.5 -31q-41 0 -65.5 26.5t-24.5 69.5zM608 1163q0 51 31 82t68 31q43 0 66.5 -26.5t23.5 -69.5q0 -51 -30 -82t-69 -31q-41 0 -65.5 26.5t-24.5 69.5z" />
<glyph unicode="&#xec;" horiz-adv-x="505" d="M39 760q37 20 86 45.5t95 48.5t82 37t48 14q35 0 35 -35q0 -14 -4 -30l-135 -672q-2 -8 -4 -21.5t-2 -19.5q0 -25 24 -25q14 0 29.5 7.5t31 16.5t28 16.5t20.5 7.5q20 0 28 -41q-35 -27 -74.5 -50.5t-76.5 -42t-70 -30t-53 -11.5q-23 0 -43.5 9.5t-20.5 44.5 q0 6 2.5 21.5t4.5 21.5q45 219 71.5 349t40 198.5t17.5 91t4 26.5q0 25 -19 25q-8 0 -24.5 -7t-35 -14.5t-33.5 -14.5t-23 -7q-12 0 -18.5 12t-10.5 29zM154 1290q0 37 43 59.5t102 24.5l137 -301q6 -16 6 -26q0 -25 -39 -39q-35 41 -62.5 73.5t-53 59t-51 51.5t-56.5 51 q-27 25 -26 47z" />
<glyph unicode="&#xed;" horiz-adv-x="505" d="M39 760q37 20 86 45.5t95 48.5t82 37t48 14q35 0 35 -35q0 -14 -4 -30l-135 -672q-2 -8 -4 -21.5t-2 -19.5q0 -25 24 -25q14 0 29.5 7.5t31 16.5t28 16.5t20.5 7.5q20 0 28 -41q-35 -27 -74.5 -50.5t-76.5 -42t-70 -30t-53 -11.5q-23 0 -43.5 9.5t-20.5 44.5 q0 6 2.5 21.5t4.5 21.5q45 219 71.5 349t40 198.5t17.5 91t4 26.5q0 25 -19 25q-8 0 -24.5 -7t-35 -14.5t-33.5 -14.5t-23 -7q-12 0 -18.5 12t-10.5 29zM209 1038q0 12 10 25l240 295q53 -10 87 -36t34 -54q0 -33 -43 -60q-41 -25 -75 -47t-68 -45.5t-71.5 -52.5t-82.5 -66 q-14 10 -22.5 18.5t-8.5 22.5z" />
<glyph unicode="&#xee;" horiz-adv-x="505" d="M39 760q37 20 86 45.5t95 48.5t82 37t48 14q35 0 35 -35q0 -14 -4 -30l-135 -672q-2 -8 -4 -21.5t-2 -19.5q0 -25 24 -25q14 0 29.5 7.5t31 16.5t28 16.5t20.5 7.5q20 0 28 -41q-35 -27 -74.5 -50.5t-76.5 -42t-70 -30t-53 -11.5q-23 0 -43.5 9.5t-20.5 44.5 q0 6 2.5 21.5t4.5 21.5q45 219 71.5 349t40 198.5t17.5 91t4 26.5q0 25 -19 25q-8 0 -24.5 -7t-35 -14.5t-33.5 -14.5t-23 -7q-12 0 -18.5 12t-10.5 29zM57 1036.5q0 16.5 11 28.5l249 289q59 2 89 -5.5t43 -35.5l108 -248q6 -16 4 -31.5t-39 -32.5q-51 61 -89 106.5 t-81 84.5q-63 -39 -126.5 -87t-135.5 -108q-33 23 -33 39.5z" />
<glyph unicode="&#xef;" horiz-adv-x="505" d="M39 760q37 20 86 45.5t95 48.5t82 37t48 14q35 0 35 -35q0 -14 -4 -30l-135 -672q-2 -8 -4 -21.5t-2 -19.5q0 -25 24 -25q14 0 29.5 7.5t31 16.5t28 16.5t20.5 7.5q20 0 28 -41q-35 -27 -74.5 -50.5t-76.5 -42t-70 -30t-53 -11.5q-23 0 -43.5 9.5t-20.5 44.5 q0 6 2.5 21.5t4.5 21.5q45 219 71.5 349t40 198.5t17.5 91t4 26.5q0 25 -19 25q-8 0 -24.5 -7t-35 -14.5t-33.5 -14.5t-23 -7q-12 0 -18.5 12t-10.5 29zM102 1163q0 51 31 82t68 31q43 0 66.5 -26.5t23.5 -69.5q0 -51 -30 -82t-68 -31q-41 0 -66 26.5t-25 69.5zM422 1163 q0 51 30.5 82t67.5 31q43 0 66.5 -26.5t23.5 -69.5q0 -51 -29.5 -82t-68.5 -31q-41 0 -65.5 26.5t-24.5 69.5z" />
<glyph unicode="&#xf0;" horiz-adv-x="950" d="M29 303q0 123 46 228.5t116.5 183.5t156.5 122t166 44q41 0 87 -5.5t87 -17.5q-10 78 -34.5 145.5t-59.5 126.5l-227 -120q-37 37 -37 59q0 8 4 14.5t18 14.5l197 106q-45 59 -94.5 108.5t-104.5 94.5q-8 8 -8 16q0 23 25 47q180 -94 292 -208l230 127q10 -10 24.5 -25.5 t14.5 -32.5q0 -18 -25 -33l-184 -100q88 -111 129 -235.5t41 -268.5q0 -111 -34 -236.5t-102.5 -233t-172 -178.5t-242.5 -71q-86 0 -145.5 27t-96.5 71t-52 103.5t-15 126.5zM221 352q0 -162 48 -227.5t130 -65.5q61 0 115.5 45.5t95.5 124t66.5 184t25.5 228.5 q0 23 -1 44.5t-3 39.5q-29 31 -84 52.5t-114 21.5q-70 0 -122 -41t-87 -105.5t-52.5 -143.5t-17.5 -157z" />
<glyph unicode="&#xf1;" horiz-adv-x="1048" d="M37 760q37 23 87 48.5t97 47t82 35.5t45 14q14 0 24.5 -7t10.5 -24q0 -6 -1 -15t-3 -19l-74 -357h8q53 90 110.5 168t116 134.5t118 88t120.5 31.5q57 0 91 -28.5t34 -94.5q0 -25 -4 -57.5t-10 -65.5l-105 -491q-6 -29 -6 -39q0 -27 25 -27q12 0 28.5 7.5t32 16.5 t27.5 16.5t20 7.5q20 0 29 -41q-37 -27 -76 -50.5t-76.5 -42t-70.5 -30t-53 -11.5q-23 0 -42.5 9.5t-19.5 44.5q0 6 2 19t4 24l115 546q12 55 12 93q0 59 -57 59q-31 0 -76 -34t-94 -88t-97.5 -121.5t-84.5 -137.5q-18 -35 -36 -77t-31 -86t-20.5 -87t-7.5 -80q0 -29 7 -55 q-78 -8 -162 -31q-16 10 -17 25q0 4 2 17.5t5 21.5q47 238 73.5 375t40 207.5t16.5 92t3 25.5q0 25 -17 25q-8 0 -24.5 -7t-34 -14.5t-33.5 -14.5t-24 -7q-10 0 -17.5 12t-11.5 29zM389 1116q0 11 10 21q76 76 121 102.5t86 26.5q20 0 41 -8.5t41.5 -18.5t40 -18.5 t37.5 -8.5q23 0 53.5 12.5t77.5 47.5q12 -8 21.5 -17.5t9.5 -23.5t-10 -25q-41 -43 -93.5 -83t-97.5 -40q-27 0 -50.5 9.5t-45 19.5t-41 19.5t-37.5 9.5q-25 0 -51.5 -11.5t-79.5 -52.5q-12 8 -22.5 18.5t-10.5 20.5z" />
<glyph unicode="&#xf2;" horiz-adv-x="878" d="M29 309q0 135 46 246t116.5 188.5t153.5 119.5t157 42q76 0 132 -25.5t91 -71.5t52.5 -109.5t17.5 -137.5q0 -147 -47.5 -257.5t-120 -183.5t-162.5 -109t-176 -36q-72 0 -122 22.5t-81 65.5t-44 105.5t-13 140.5zM201 330q0 -135 31.5 -205t107.5 -70q61 0 113.5 37 t90.5 102.5t58.5 154.5t20.5 196q0 129 -31 204.5t-109 75.5q-68 0 -121 -45t-88.5 -116.5t-54 -159.5t-18.5 -174zM344 1290q0 37 43 59.5t102 24.5l138 -301q6 -16 6 -26q0 -25 -39 -39q-35 41 -62.5 73.5t-53 59t-51.5 51.5t-56 51q-27 25 -27 47z" />
<glyph unicode="&#xf3;" horiz-adv-x="878" d="M29 309q0 135 46 246t116.5 188.5t153.5 119.5t157 42q76 0 132 -25.5t91 -71.5t52.5 -109.5t17.5 -137.5q0 -147 -47.5 -257.5t-120 -183.5t-162.5 -109t-176 -36q-72 0 -122 22.5t-81 65.5t-44 105.5t-13 140.5zM201 330q0 -135 31.5 -205t107.5 -70q61 0 113.5 37 t90.5 102.5t58.5 154.5t20.5 196q0 129 -31 204.5t-109 75.5q-68 0 -121 -45t-88.5 -116.5t-54 -159.5t-18.5 -174zM414 1038q0 12 10 25l240 295q53 -10 86.5 -36t33.5 -54q0 -33 -43 -60q-41 -25 -74.5 -47t-67.5 -45.5t-72 -52.5t-83 -66q-14 10 -22 18.5t-8 22.5z" />
<glyph unicode="&#xf4;" horiz-adv-x="878" d="M29 309q0 135 46 246t116.5 188.5t153.5 119.5t157 42q76 0 132 -25.5t91 -71.5t52.5 -109.5t17.5 -137.5q0 -147 -47.5 -257.5t-120 -183.5t-162.5 -109t-176 -36q-72 0 -122 22.5t-81 65.5t-44 105.5t-13 140.5zM201 330q0 -135 31.5 -205t107.5 -70q61 0 113.5 37 t90.5 102.5t58.5 154.5t20.5 196q0 129 -31 204.5t-109 75.5q-68 0 -121 -45t-88.5 -116.5t-54 -159.5t-18.5 -174zM286.5 1036.5q0.5 16.5 10.5 28.5l250 289q59 2 89 -5.5t42 -35.5l108 -248q6 -16 4 -31.5t-38 -32.5q-51 61 -89 106.5t-81 84.5q-63 -39 -127 -87 t-136 -108q-33 23 -32.5 39.5z" />
<glyph unicode="&#xf5;" horiz-adv-x="878" d="M29 309q0 135 46 246t116.5 188.5t153.5 119.5t157 42q76 0 132 -25.5t91 -71.5t52.5 -109.5t17.5 -137.5q0 -147 -47.5 -257.5t-120 -183.5t-162.5 -109t-176 -36q-72 0 -122 22.5t-81 65.5t-44 105.5t-13 140.5zM201 330q0 -135 31.5 -205t107.5 -70q61 0 113.5 37 t90.5 102.5t58.5 154.5t20.5 196q0 129 -31 204.5t-109 75.5q-68 0 -121 -45t-88.5 -116.5t-54 -159.5t-18.5 -174zM299 1116q0 11 10 21q76 76 121 102.5t86 26.5q20 0 41 -8.5t41 -18.5t39.5 -18.5t38.5 -8.5q23 0 53.5 12.5t77.5 47.5q12 -8 21.5 -17.5t9.5 -23.5 t-11 -25q-41 -43 -93 -83t-97 -40q-27 0 -50.5 9.5t-45 19.5t-41 19.5t-37.5 9.5q-25 0 -51.5 -11.5t-79.5 -52.5q-12 8 -22.5 18.5t-10.5 20.5z" />
<glyph unicode="&#xf6;" horiz-adv-x="878" d="M29 309q0 135 46 246t116.5 188.5t153.5 119.5t157 42q76 0 132 -25.5t91 -71.5t52.5 -109.5t17.5 -137.5q0 -147 -47.5 -257.5t-120 -183.5t-162.5 -109t-176 -36q-72 0 -122 22.5t-81 65.5t-44 105.5t-13 140.5zM201 330q0 -135 31.5 -205t107.5 -70q61 0 113.5 37 t90.5 102.5t58.5 154.5t20.5 196q0 129 -31 204.5t-109 75.5q-68 0 -121 -45t-88.5 -116.5t-54 -159.5t-18.5 -174zM297 1163q0 51 30.5 82t67.5 31q43 0 66.5 -26.5t23.5 -69.5q0 -51 -29.5 -82t-68.5 -31q-41 0 -65.5 26.5t-24.5 69.5zM616 1163q0 51 31 82t68 31 q43 0 66.5 -26.5t23.5 -69.5q0 -51 -30 -82t-68 -31q-41 0 -66 26.5t-25 69.5z" />
<glyph unicode="&#xf7;" horiz-adv-x="1011" d="M27 406q8 66 26.5 88t55.5 22h806q-10 -66 -28.5 -88t-55.5 -22h-804zM354 156q0 59 34 99t81 40t76.5 -34t29.5 -83q0 -59 -32.5 -99t-77.5 -40q-53 0 -82 32t-29 85zM354 741q0 59 34 99.5t81 40.5t76.5 -34t29.5 -83q0 -59 -32.5 -99t-77.5 -40q-53 0 -82 31.5 t-29 84.5z" />
<glyph unicode="&#xf8;" horiz-adv-x="878" d="M29 309q0 135 46 246t116.5 188.5t153.5 119.5t157 42q84 0 143 -31l45 72q12 18 22.5 27.5t32.5 9.5q16 0 25.5 -5t26.5 -15l-86 -140q43 -47 63.5 -113.5t20.5 -148.5q0 -147 -47.5 -257.5t-120 -183.5t-162.5 -109t-176 -36q-57 0 -99 15l-40 -70q-12 -20 -23.5 -32.5 t-34.5 -12.5q-16 0 -29.5 4t-29.5 12l86 138q-49 41 -69.5 111.5t-20.5 168.5zM201 330q0 -88 12 -150l367 590q-35 55 -97 55q-68 0 -121 -45t-88.5 -116.5t-54 -159.5t-18.5 -174zM254 90q33 -35 86 -35q61 0 113.5 37t90.5 102.5t58.5 154.5t20.5 196q0 35 -2.5 65.5 t-6.5 57.5z" />
<glyph unicode="&#xf9;" horiz-adv-x="1046" d="M41 758q35 20 83 46.5t94 48t83 37t49 15.5q41 0 41 -35q0 -10 -2 -20t-4 -21l-119 -567q-12 -59 -12 -92t19.5 -47t50.5 -14q45 0 94 35.5t97 95t92 135.5t77 154.5t52.5 155.5t19.5 136q0 27 -6 56q80 10 161 30q16 -10 17 -24q0 -4 -2 -17.5t-4 -21.5l-140 -705 q-6 -37 27 -37q12 0 27.5 7.5t30 14.5t27.5 14t21 7q18 0 25 -36q-37 -27 -78 -51.5t-77.5 -43t-68.5 -29t-50 -10.5q-20 0 -39 9.5t-19 42.5q0 4 1 18t5 27l60 282h-8q-109 -201 -219.5 -290t-219.5 -89q-66 0 -102.5 33t-36.5 98q0 25 4 58t10 63l101 471q0 4 2 14.5 t2 14.5q4 35 -19 35q-10 0 -27.5 -7t-36 -14.5t-33.5 -14.5t-23 -7q-10 0 -16.5 12t-10.5 27zM412 1290q0 37 43 59.5t102 24.5l137 -301q6 -16 6 -26q0 -25 -38 -39q-35 41 -63 73.5t-53.5 59t-51 51.5t-56.5 51q-27 25 -26 47z" />
<glyph unicode="&#xfa;" horiz-adv-x="1046" d="M41 758q35 20 83 46.5t94 48t83 37t49 15.5q41 0 41 -35q0 -10 -2 -20t-4 -21l-119 -567q-12 -59 -12 -92t19.5 -47t50.5 -14q45 0 94 35.5t97 95t92 135.5t77 154.5t52.5 155.5t19.5 136q0 27 -6 56q80 10 161 30q16 -10 17 -24q0 -4 -2 -17.5t-4 -21.5l-140 -705 q-6 -37 27 -37q12 0 27.5 7.5t30 14.5t27.5 14t21 7q18 0 25 -36q-37 -27 -78 -51.5t-77.5 -43t-68.5 -29t-50 -10.5q-20 0 -39 9.5t-19 42.5q0 4 1 18t5 27l60 282h-8q-109 -201 -219.5 -290t-219.5 -89q-66 0 -102.5 33t-36.5 98q0 25 4 58t10 63l101 471q0 4 2 14.5 t2 14.5q4 35 -19 35q-10 0 -27.5 -7t-36 -14.5t-33.5 -14.5t-23 -7q-10 0 -16.5 12t-10.5 27zM496 1038q0 12 10 25l239 295q53 -10 87 -36t34 -54q0 -33 -43 -60q-41 -25 -74.5 -47t-67.5 -45.5t-72 -52.5t-83 -66q-14 10 -22 18.5t-8 22.5z" />
<glyph unicode="&#xfb;" horiz-adv-x="1046" d="M41 758q35 20 83 46.5t94 48t83 37t49 15.5q41 0 41 -35q0 -10 -2 -20t-4 -21l-119 -567q-12 -59 -12 -92t19.5 -47t50.5 -14q45 0 94 35.5t97 95t92 135.5t77 154.5t52.5 155.5t19.5 136q0 27 -6 56q80 10 161 30q16 -10 17 -24q0 -4 -2 -17.5t-4 -21.5l-140 -705 q-6 -37 27 -37q12 0 27.5 7.5t30 14.5t27.5 14t21 7q18 0 25 -36q-37 -27 -78 -51.5t-77.5 -43t-68.5 -29t-50 -10.5q-20 0 -39 9.5t-19 42.5q0 4 1 18t5 27l60 282h-8q-109 -201 -219.5 -290t-219.5 -89q-66 0 -102.5 33t-36.5 98q0 25 4 58t10 63l101 471q0 4 2 14.5 t2 14.5q4 35 -19 35q-10 0 -27.5 -7t-36 -14.5t-33.5 -14.5t-23 -7q-10 0 -16.5 12t-10.5 27zM346 1036.5q0 16.5 10 28.5l250 289q59 2 89 -5.5t42 -35.5l109 -248q6 -16 4 -31.5t-39 -32.5q-51 61 -89 106.5t-81 84.5q-63 -39 -126.5 -87t-135.5 -108q-33 23 -33 39.5z " />
<glyph unicode="&#xfc;" horiz-adv-x="1046" d="M41 758q35 20 83 46.5t94 48t83 37t49 15.5q41 0 41 -35q0 -10 -2 -20t-4 -21l-119 -567q-12 -59 -12 -92t19.5 -47t50.5 -14q45 0 94 35.5t97 95t92 135.5t77 154.5t52.5 155.5t19.5 136q0 27 -6 56q80 10 161 30q16 -10 17 -24q0 -4 -2 -17.5t-4 -21.5l-140 -705 q-6 -37 27 -37q12 0 27.5 7.5t30 14.5t27.5 14t21 7q18 0 25 -36q-37 -27 -78 -51.5t-77.5 -43t-68.5 -29t-50 -10.5q-20 0 -39 9.5t-19 42.5q0 4 1 18t5 27l60 282h-8q-109 -201 -219.5 -290t-219.5 -89q-66 0 -102.5 33t-36.5 98q0 25 4 58t10 63l101 471q0 4 2 14.5 t2 14.5q4 35 -19 35q-10 0 -27.5 -7t-36 -14.5t-33.5 -14.5t-23 -7q-10 0 -16.5 12t-10.5 27zM375 1163q0 51 30.5 82t67.5 31q43 0 66.5 -26.5t23.5 -69.5q0 -51 -29.5 -82t-68.5 -31q-41 0 -65.5 26.5t-24.5 69.5zM694 1163q0 51 31 82t68 31q43 0 66.5 -26.5t23.5 -69.5 q0 -51 -30 -82t-69 -31q-41 0 -65.5 26.5t-24.5 69.5z" />
<glyph unicode="&#xfd;" horiz-adv-x="1038" d="M29 -475q16 47 24 83t15 87l34 12q29 -59 83 -101t122 -42q96 0 163 70.5t95 205.5l107 514h-8q-111 -205 -217.5 -292t-213.5 -87q-68 0 -103.5 29t-35.5 94q0 25 4 58.5t11 64.5l100 477q2 6 4 19.5t2 19.5q0 25 -20 25q-10 0 -27.5 -7t-36 -14.5t-34 -14.5t-23.5 -7 q-10 0 -16.5 12t-8.5 27q35 20 82 46.5t93 48t83 37t51 15.5q39 0 39 -41q0 -18 -4 -35l-119 -567q-12 -55 -12 -92q0 -57 62 -57q47 0 98 36.5t98 96t89 136.5t74 154.5t50.5 152.5t18.5 132q0 29 -7 58q82 6 168 28q12 -12 13 -24q0 -4 -2 -17.5t-4 -21.5l-185 -930 q-23 -111 -74 -191.5t-116.5 -134t-140 -79t-142.5 -25.5q-145 0 -233 41zM500 1038q0 12 10 25l240 295q53 -10 86.5 -36t33.5 -54q0 -33 -43 -60q-41 -25 -74.5 -47t-67.5 -45.5t-72 -52.5t-83 -66q-14 10 -22 18.5t-8 22.5z" />
<glyph unicode="&#xfe;" horiz-adv-x="978" d="M-20 -475q0 10 4 31l299 1521q12 59 19 121t7 92q0 27 -22 27q-23 0 -57.5 -5t-53.5 -5q-10 0 -16 12t-10 29q92 27 174 53t161 57q16 -10 20.5 -20.5t4.5 -20.5q0 -4 -1 -13t-3 -20l-174 -833h8q100 186 200.5 270t200.5 84q51 0 86 -20.5t56.5 -54t30 -77.5t8.5 -89 q0 -162 -56.5 -289t-141.5 -216t-185.5 -136.5t-190.5 -47.5q-27 0 -61.5 3.5t-57.5 9.5l-32 -164q-20 -115 -21 -170q0 -31 23 -31q18 0 55 5t53 5q12 0 17.5 -12t7.5 -27q-94 -27 -171 -52t-153 -58q-29 20 -28 41zM250 86q23 -12 60.5 -19.5t62.5 -7.5q84 0 151.5 42 t115.5 117t74.5 175.5t26.5 216.5q0 92 -25.5 128t-66.5 36t-85 -37t-89 -96t-85 -134t-71.5 -151.5t-50 -147.5t-18.5 -122z" />
<glyph unicode="&#xff;" horiz-adv-x="1038" d="M29 -475q16 47 24 83t15 87l34 12q29 -59 83 -101t122 -42q96 0 163 70.5t95 205.5l107 514h-8q-111 -205 -217.5 -292t-213.5 -87q-68 0 -103.5 29t-35.5 94q0 25 4 58.5t11 64.5l100 477q2 6 4 19.5t2 19.5q0 25 -20 25q-10 0 -27.5 -7t-36 -14.5t-34 -14.5t-23.5 -7 q-10 0 -16.5 12t-8.5 27q35 20 82 46.5t93 48t83 37t51 15.5q39 0 39 -41q0 -18 -4 -35l-119 -567q-12 -55 -12 -92q0 -57 62 -57q47 0 98 36.5t98 96t89 136.5t74 154.5t50.5 152.5t18.5 132q0 29 -7 58q82 6 168 28q12 -12 13 -24q0 -4 -2 -17.5t-4 -21.5l-185 -930 q-23 -111 -74 -191.5t-116.5 -134t-140 -79t-142.5 -25.5q-145 0 -233 41zM375 1163q0 51 30.5 82t67.5 31q43 0 66.5 -26.5t23.5 -69.5q0 -51 -29.5 -82t-68.5 -31q-41 0 -65.5 26.5t-24.5 69.5zM694 1163q0 51 31 82t68 31q43 0 66.5 -26.5t23.5 -69.5q0 -51 -30 -82 t-69 -31q-41 0 -65.5 26.5t-24.5 69.5z" />
<glyph unicode="&#x152;" horiz-adv-x="1724" d="M53 487q0 172 53.5 330t145.5 277.5t219 190.5t274 71q45 0 101.5 -7.5t91.5 -17.5h528q88 0 123 6t58 6q31 0 32 -24q4 -35 10.5 -105.5t24.5 -160.5q-8 -4 -20.5 -9.5t-22.5 -5.5q-29 0 -35 25q-25 104 -76 147t-155 43h-256l-100 -534h278q45 0 65.5 30.5t37.5 84.5 q4 10 11 16t23 6q20 0 41 -8q-14 -49 -23 -89t-16.5 -81t-12.5 -86t-9 -103q-18 -4 -25.5 -5t-11.5 -1q-18 0 -25.5 10.5t-5.5 22.5q4 47 -8 86t-57 39h-279l-96 -508q-4 -33 10.5 -44t48.5 -11h238q86 0 155.5 46t147.5 155q6 10 13 15t20 5q12 0 24.5 -6t22.5 -17 q-10 -20 -21 -43q-10 -18 -19 -42.5t-20 -49.5q-16 -41 -27 -79.5t-22 -55.5q-10 -16 -32 -16q-35 0 -70 5t-94 5h-586q-45 -10 -94 -17.5t-107 -7.5q-113 0 -200.5 39t-147 107.5t-91.5 163t-32 202.5zM252 539q0 -246 81 -361t261 -115q76 0 118 23t52 78l184 958 q8 39 -6 68t-43 45t-68.5 24.5t-82.5 8.5q-129 0 -222.5 -64.5t-155 -169t-90 -234.5t-28.5 -261z" />
<glyph unicode="&#x153;" horiz-adv-x="1363" d="M29 309q0 135 46 246t116.5 188.5t153.5 119.5t157 42q104 0 164.5 -51t85.5 -129q57 78 143 129t197 51q43 0 82.5 -9t70.5 -30.5t50.5 -57.5t19.5 -87q0 -76 -42 -131t-116 -95t-173 -63.5t-214 -36.5q-2 -18 -2 -36.5v-36.5q0 -47 11.5 -91.5t34 -78t59 -54 t88.5 -20.5q125 0 249 88q18 14 29 14q14 0 19.5 -14t5.5 -25q-33 -31 -75 -61.5t-89 -53t-99.5 -37t-105.5 -14.5q-115 0 -173 46.5t-81 125.5q-72 -88 -162 -130t-182 -42q-147 0 -207.5 88.5t-60.5 245.5zM201 330q0 -135 31.5 -205t107.5 -70q61 0 113.5 37t90.5 102.5 t58.5 154.5t20.5 196q0 129 -31 204.5t-109 75.5q-68 0 -121 -45t-88.5 -116.5t-54 -159.5t-18.5 -174zM776 457q199 31 287 97.5t88 162.5q0 57 -28.5 87t-75.5 30t-92.5 -29t-82 -79t-62.5 -119.5t-34 -149.5z" />
<glyph unicode="&#x178;" horiz-adv-x="1122" d="M94 1307q0 16 6 34q59 -6 119 -9t113 -3q20 0 50 1t62.5 2t64.5 3t58 6q2 -10 3 -18t1 -16q0 -10 -6 -19.5t-18 -11.5q-63 -4 -90 -30.5t-11 -74.5l172 -477l361 482q29 37 7.5 67.5t-79.5 34.5q-29 2 -28 31q0 16 6 34q53 -6 108.5 -9t96.5 -3q37 0 79.5 3t96.5 9 q6 -18 6 -32q0 -29 -33 -35q-49 -8 -80 -26.5t-53 -47.5l-449 -590l-90 -467q-8 -43 21.5 -63.5t81.5 -26.5q31 -4 30 -32q0 -16 -6 -35q-61 6 -128.5 9t-119.5 3q-23 0 -52 -1t-63 -2t-67 -4t-59 -5q-2 10 -3 18t-1 14q0 10 6 20.5t20 12.5q53 8 95.5 29.5t52.5 62.5 l84 445l-232 618q-8 23 -32.5 39.5t-73.5 24.5q-27 6 -27 35zM494 1548q0 51 30.5 82t67.5 31q43 0 66.5 -26.5t23.5 -69.5q0 -51 -29.5 -82t-68.5 -31q-41 0 -65.5 26.5t-24.5 69.5zM813 1548q0 51 30.5 82t67.5 31q43 0 66.5 -26.5t23.5 -69.5q0 -51 -29.5 -82t-68.5 -31 q-41 0 -65.5 26.5t-24.5 69.5z" />
<glyph unicode="&#x2c6;" d="M258 1036.5q0 16.5 10 28.5l250 289q59 2 89 -5.5t42 -35.5l109 -248q6 -16 4 -31.5t-39 -32.5q-51 61 -89 106.5t-81 84.5q-63 -39 -127 -87t-135 -108q-33 23 -33 39.5z" />
<glyph unicode="&#x2dc;" d="M240 1116q0 11 10 21q76 76 121 102.5t86 26.5q20 0 40.5 -8.5t41 -18.5t40 -18.5t37.5 -8.5q23 0 53.5 12.5t78.5 47.5q12 -8 21 -17.5t9 -23.5t-10 -25q-41 -43 -93 -83t-97 -40q-27 0 -50.5 9.5t-45 19.5t-41 19.5t-38.5 9.5q-25 0 -51 -11.5t-80 -52.5 q-12 8 -22 18.5t-10 20.5z" />
<glyph unicode="&#x2000;" horiz-adv-x="899" />
<glyph unicode="&#x2001;" horiz-adv-x="1798" />
<glyph unicode="&#x2002;" horiz-adv-x="899" />
<glyph unicode="&#x2003;" horiz-adv-x="1798" />
<glyph unicode="&#x2004;" horiz-adv-x="599" />
<glyph unicode="&#x2005;" horiz-adv-x="449" />
<glyph unicode="&#x2006;" horiz-adv-x="299" />
<glyph unicode="&#x2007;" horiz-adv-x="299" />
<glyph unicode="&#x2008;" horiz-adv-x="224" />
<glyph unicode="&#x2009;" horiz-adv-x="359" />
<glyph unicode="&#x200a;" horiz-adv-x="99" />
<glyph unicode="&#x2010;" horiz-adv-x="632" d="M51 436q8 66 25.5 86.5t56.5 20.5h406q-8 -66 -26.5 -86.5t-55.5 -20.5h-406z" />
<glyph unicode="&#x2011;" horiz-adv-x="632" d="M51 436q8 66 25.5 86.5t56.5 20.5h406q-8 -66 -26.5 -86.5t-55.5 -20.5h-406z" />
<glyph unicode="&#x2012;" horiz-adv-x="632" d="M51 436q8 66 25.5 86.5t56.5 20.5h406q-8 -66 -26.5 -86.5t-55.5 -20.5h-406z" />
<glyph unicode="&#x2013;" d="M-59 436q8 63 25.5 84t53.5 21h994q-8 -63 -25.5 -84t-56.5 -21h-991z" />
<glyph unicode="&#x2014;" horiz-adv-x="2048" d="M-72 436q8 63 25.5 84t54.5 21h2054q-8 -63 -25.5 -84t-56.5 -21h-2052z" />
<glyph unicode="&#x2018;" horiz-adv-x="329" d="M143 1106q0 72 64 154.5t209 148.5q29 -23 26.5 -43t-18.5 -31q-119 -80 -119 -164q0 -25 13.5 -44t37.5 -37q16 -10 25.5 -23.5t9.5 -34.5q0 -29 -30.5 -61.5t-88.5 -50.5q-59 31 -94 81t-35 105z" />
<glyph unicode="&#x2019;" horiz-adv-x="313" d="M99 963q3 20 20 30q115 84 114 168q0 45 -49 80q-33 23 -32 49q0 31 30.5 61.5t85.5 57.5q59 -31 94 -79t35 -105q0 -72 -62.5 -152.5t-209.5 -152.5q-29 23 -26 43z" />
<glyph unicode="&#x201a;" horiz-adv-x="393" d="M-81 -215q3 20 20 31q115 84 114 168q0 45 -49 79q-33 23 -33 50q0 31 31 61.5t86 56.5q59 -31 94 -79t35 -105q0 -72 -62.5 -152.5t-209.5 -152.5q-29 23 -26 43z" />
<glyph unicode="&#x201c;" horiz-adv-x="663" d="M143 1106q0 72 64 154.5t209 148.5q29 -23 26.5 -43t-18.5 -31q-119 -80 -119 -164q0 -25 13.5 -44t37.5 -37q16 -10 25.5 -23.5t9.5 -34.5q0 -29 -30.5 -61.5t-88.5 -50.5q-59 31 -94 81t-35 105zM471 1106q0 72 63.5 154.5t208.5 148.5q29 -23 27 -43t-18 -31 q-119 -80 -119 -164q0 -25 13 -44t38 -37q16 -10 25.5 -23.5t9.5 -34.5q0 -29 -31 -61.5t-88 -50.5q-59 31 -94 81t-35 105z" />
<glyph unicode="&#x201d;" horiz-adv-x="645" d="M99 963q3 20 20 30q115 84 114 168q0 45 -49 80q-33 23 -32 49q0 31 30.5 61.5t85.5 57.5q59 -31 94 -79t35 -105q0 -72 -62.5 -152.5t-209.5 -152.5q-29 23 -26 43zM427 963q3 20 19 30q115 84 115 168q0 45 -49 80q-33 23 -33 49q0 31 31 61.5t86 57.5q59 -31 94 -79 t35 -105q0 -72 -62.5 -152.5t-209.5 -152.5q-29 23 -26 43z" />
<glyph unicode="&#x201e;" horiz-adv-x="724" d="M-81 -215q3 20 20 31q115 84 114 168q0 45 -49 79q-33 23 -33 50q0 31 31 61.5t86 56.5q59 -31 94 -79t35 -105q0 -72 -62.5 -152.5t-209.5 -152.5q-29 23 -26 43zM246.5 -215q3.5 20 19.5 31q115 84 115 168q0 45 -49 79q-33 23 -33 50q0 31 30.5 61.5t86.5 56.5 q59 -31 94 -79t35 -105q0 -72 -63 -152.5t-210 -152.5q-29 23 -25.5 43z" />
<glyph unicode="&#x2022;" horiz-adv-x="1011" d="M231 481q0 57 20.5 108.5t55.5 88.5t78 58.5t90 21.5q102 0 162.5 -65.5t60.5 -170.5q0 -61 -20.5 -111.5t-55 -86t-78.5 -55t-89 -19.5q-104 0 -164 64.5t-60 166.5z" />
<glyph unicode="&#x2026;" horiz-adv-x="1277" d="M-6 94q0 59 33.5 99t87.5 40q53 0 82.5 -33.5t29.5 -84.5q0 -61 -34.5 -100.5t-83.5 -39.5q-59 0 -87 33t-28 86zM436 94q0 59 34 99t87 40t83 -33.5t30 -84.5q0 -61 -35 -100.5t-84 -39.5q-59 0 -87 33t-28 86zM879 94q0 59 33.5 99t86.5 40t83 -33.5t30 -84.5 q0 -61 -35 -100.5t-84 -39.5q-59 0 -86.5 33t-27.5 86z" />
<glyph unicode="&#x202f;" horiz-adv-x="359" />
<glyph unicode="&#x2039;" horiz-adv-x="509" d="M16 451q0 10 4.5 19t20.5 24l354 301q12 12 27 12q16 0 26.5 -12.5t20.5 -28.5q-78 -84 -136.5 -153.5t-117.5 -151.5q10 -45 20.5 -81t22.5 -72t27.5 -77t40.5 -96q-16 -23 -38 -32t-38 14z" />
<glyph unicode="&#x203a;" horiz-adv-x="516" d="M-20 133q39 43 71.5 80t63 74t59 73.5t59.5 77.5q-10 45 -20 81t-22.5 72t-28 77t-39.5 96q16 23 37.5 32t38.5 -14l233 -333q0 -10 -4 -19.5t-20 -23.5l-355 -302q-12 -12 -26 -12q-16 0 -26.5 12.5t-20.5 28.5z" />
<glyph unicode="&#x205f;" horiz-adv-x="449" />
<glyph unicode="&#x20ac;" horiz-adv-x="1206" d="M43 516q4 47 19.5 67.5t52.5 20.5h127q4 31 9 62.5t13 62.5h-153q4 51 19 69.5t50 18.5h107q37 113 97 203t138 152.5t170 95t193 32.5q74 0 144.5 -14t141.5 -41q-16 -70 -22 -131t-10 -145q-20 -8 -35 -8q-25 0 -34 13t-7 30q6 113 -41 164t-139 51q-55 0 -115.5 -27 t-117 -77t-103.5 -125t-76 -173h473q-6 -49 -20.5 -68.5t-49.5 -19.5h-425q-12 -61 -19 -125h426q-4 -53 -18.5 -70.5t-53.5 -17.5h-358q0 -209 67.5 -331t190.5 -122q102 0 161.5 46.5t98.5 154.5q10 31 45 31q23 0 39 -10q-23 -68 -38 -128.5t-32 -140.5 q-164 -35 -309 -34q-129 0 -209 48t-126 124.5t-62 172t-16 189.5h-193z" />
<glyph unicode="&#x2122;" horiz-adv-x="1478" d="M111 1169l26 134q2 14 19 14q18 0 40.5 -2t57.5 -2h285q35 0 57 2t41 2q16 0 18 -14l27 -134q-4 -4 -13.5 -5t-15.5 -1q-4 0 -8 2t-6 6q-12 27 -21.5 44.5t-21.5 27.5t-30.5 13.5t-49.5 3.5h-67v-361q0 -25 14 -40t59 -19q16 0 17 -17v-22h-285v22q0 16 16 17 q45 4 59.5 19t14.5 40v361h-68q-31 0 -49 -3.5t-30.5 -13.5t-21.5 -27.5t-21 -44.5q-2 -4 -6.5 -6t-8.5 -2q-6 0 -15 1t-13 5zM725 801v22q0 16 12 17q39 6 48.5 16t11.5 27q6 102 9 164.5t5 99.5t4 53.5t2 26.5q0 14 -11 21t-23.5 13.5t-23.5 11.5t-11 15v25h182 q14 0 20 -17l195 -356l180 356q10 16 23 17h157v-23q0 -16 -14 -16q-35 -4 -44 -11.5t-9 -23.5t2 -39.5t4 -63.5t5 -101.5t7 -153.5q2 -16 13.5 -28.5t46.5 -16.5q12 -4 12 -17v-18h-244v16q0 16 12 19q41 6 50.5 16t9.5 27l-19 313l-196 -387q-4 -6 -7.5 -10t-9.5 -4t-8 2 l-244 438l-20 -348q0 -16 9 -25.5t57 -17.5q12 0 12 -17v-22h-205z" />
<glyph unicode="&#x25fc;" horiz-adv-x="901" d="M0 0v901h901v-901h-901z" />
<glyph unicode="&#xfb03;" horiz-adv-x="1478" d="M-272 -502q12 37 20 80t12 90l31 13q23 -29 50.5 -47.5t60.5 -18.5q70 0 113.5 114.5t80.5 340.5l123 741h-162q4 33 13.5 51.5t29.5 18.5h129l25 137q14 88 59 162.5t104.5 127t128 82t134.5 29.5q51 0 114.5 -21.5t116.5 -58.5q59 55 130 86t137 31q176 0 256 -108 q-35 -23 -66 -48.5t-59 -64.5l-31 4q-16 51 -62.5 87t-103.5 36q-43 0 -73.5 -15.5t-55.5 -59.5t-46.5 -122t-41.5 -202l-14 -82h274q63 0 100 4t66 4q14 0 24.5 -7.5t10.5 -25.5q0 -12 -4 -33l-133 -655q-4 -16 -4.5 -26.5t-0.5 -16.5q0 -8 4.5 -15.5t18.5 -7.5t29.5 7.5 t31 16.5t28.5 16.5t22 7.5q20 0 26 -41q-35 -27 -74.5 -50.5t-76.5 -42t-70 -30t-53 -11.5q-23 0 -42.5 9.5t-19.5 44.5q0 6 2 21.5t4 21.5q37 178 60.5 297.5t39 197.5t25 121t13.5 72q4 27 -21 28q-25 2 -63.5 5.5t-81.5 5.5t-83 4t-63 2l-102 -594q-27 -150 -62.5 -262.5 t-83 -196.5t-103.5 -142.5t-124 -96.5q-23 -12 -45 -20.5t-51 -8.5q-41 0 -80 14q12 37 20.5 80t12.5 90l31 13q23 -29 50 -47.5t60 -18.5q70 0 113 114.5t82 340.5l127 741h-338l-101 -600q-25 -150 -61.5 -262.5t-83.5 -196.5t-103.5 -142.5t-123.5 -96.5 q-23 -12 -45.5 -20.5t-51.5 -8.5q-41 0 -79 14zM389 881h336l31 182q8 41 22.5 81t34.5 75q-45 53 -98 78.5t-101 25.5q-41 0 -73.5 -14.5t-59 -56.5t-47 -119.5t-39.5 -206.5z" />
<glyph unicode="&#xfb04;" horiz-adv-x="1486" d="M-272 -502q12 37 20 80t12 90l31 13q23 -29 50.5 -47.5t60.5 -18.5q70 0 113.5 114.5t80.5 340.5l123 741h-162q4 33 13.5 51.5t29.5 18.5h129l25 137q14 88 59 162.5t104.5 127t128 82t134.5 29.5q49 0 111.5 -20.5t115.5 -57.5q55 53 124 84t143 31q41 0 92 -14.5 t92 -40.5q23 8 41 15t45 18q14 -10 18 -19.5t4 -19.5q0 -12 -4 -33l-231 -1194q-6 -31 -6 -45q0 -20 22 -21q14 0 29.5 7.5t31 16.5t29 16.5t21.5 7.5q20 0 26 -41q-35 -27 -74.5 -50.5t-76.5 -42t-70 -30t-53 -11.5q-23 0 -42 9.5t-19 44.5q0 6 2 20t4 23l192 989 q12 66 18.5 123t6.5 90q-29 41 -75 64.5t-89 23.5q-41 0 -71.5 -15.5t-55.5 -58.5t-45.5 -122t-38.5 -203l-12 -82h211q-8 -20 -13.5 -43t-9.5 -52q-100 14 -201 19l-102 -594q-27 -152 -62.5 -264.5t-82.5 -195.5t-103.5 -141.5t-124.5 -96.5q-23 -12 -45 -20.5t-51 -8.5 q-41 0 -80 14q12 37 20.5 80t12.5 90l31 13q23 -29 50 -47.5t60 -18.5q70 0 113 114.5t82 340.5l127 741h-340l-101 -600q-25 -150 -61.5 -262.5t-83.5 -196.5t-103.5 -142.5t-123.5 -96.5q-23 -12 -45.5 -20.5t-51.5 -8.5q-41 0 -79 14zM389 881h338l31 182q12 84 53 156 q-45 53 -97 78.5t-100 25.5q-41 0 -73.5 -14.5t-59 -57.5t-47 -120.5t-39.5 -204.5z" />
</font>
</defs>
</svg>
